<?xml version="1.0" encoding="UTF-8"?>
<svg width="48px" height="48px" viewBox="0 0 48 48" version="1.1" xmlns="http://www.w3.org/2000/svg" xmlns:xlink="http://www.w3.org/1999/xlink">
    <!-- Generator: Sketch 42 (36781) - http://www.bohemiancoding.com/sketch -->
    <title>magnifying-glass (2)</title>
    <desc>Created with Sketch.</desc>
    <defs></defs>
    <g id="Icons" stroke="none" stroke-width="1" fill="none" fill-rule="evenodd">
        <g id="Artboard" transform="translate(-432.000000, -58.000000)" fill-rule="nonzero" fill="#27475A">
            <g id="magnifying-glass-(2)" transform="translate(432.000000, 58.000000)">
                <path d="M47.5848303,45.5521064 L35.9174983,33.8873614 C39.0472389,30.2900222 40.9421158,25.5964523 40.9421158,20.4665188 C40.9421158,9.17427938 31.7551564,0 20.4710579,0 C9.17631404,0 0,9.18492239 0,20.4665188 C0,31.7481153 9.18695941,40.9330377 20.4710579,40.9330377 C25.6021291,40.9330377 30.2967399,39.0385809 33.8948769,35.9095344 L45.5622089,47.5742794 C45.8389887,47.8509978 46.2115768,48 46.5735196,48 C46.9354624,48 47.3080506,47.8616408 47.5848303,47.5742794 C48.1383899,47.0208426 48.1383899,46.1055432 47.5848303,45.5521064 Z M2.86360612,20.4665188 C2.86360612,10.7600887 10.762475,2.87361419 20.4604125,2.87361419 C30.1689953,2.87361419 38.0572189,10.7707317 38.0572189,20.4665188 C38.0572189,30.162306 30.1689953,38.0700665 20.4604125,38.0700665 C10.762475,38.0700665 2.86360612,30.172949 2.86360612,20.4665188 Z" id="Shape"></path>
            </g>
        </g>
    </g>
</svg>