<?xml version="1.0" standalone="no"?><!DOCTYPE svg PUBLIC "-//W3C//DTD SVG 1.1//EN" "http://www.w3.org/Graphics/SVG/1.1/DTD/svg11.dtd" ><svg version="1.1" xmlns="http://www.w3.org/2000/svg"><defs><font horiz-adv-x="0" id="font"><font-face ascent="750" bbox="-135 -204 995 870" cap-height="650" descent="-250" font-family="AT Fabriga Web Light" font-stretch="normal" font-style="normal" font-weight="600" units-per-em="1000" x-height="500" /><missing-glyph horiz-adv-x="180" /><glyph d="M85 0H30V13L295 650H361L627 13V0H568L494 178H159ZM326 583 183 236H470L328 583Z" glyph-name="A" horiz-adv-x="656" unicode="A" /><glyph d="M62 0H-5V14L402 650H818V592H503V363H775V305H503V58H818V0H443V178H174ZM441 597 211 236H443V597Z" glyph-name="AE" horiz-adv-x="893" unicode="&#198;" /><glyph d="M85 0H30V13L295 650H361L627 13V0H568L494 178H159ZM326 583 183 236H470L328 583ZM444 813 234 699 212 733 408 870Z" glyph-name="Aacute" horiz-adv-x="656" unicode="&#193;" /><glyph d="M85 0H30V13L295 650H361L627 13V0H568L494 178H159ZM326 583 183 236H470L328 583ZM328 773 209 703 186 738 328 842 475 738 454 703Z" glyph-name="Acircumflex" horiz-adv-x="656" unicode="&#194;" /><glyph d="M85 0H30V13L295 650H361L627 13V0H568L494 178H159ZM326 583 183 236H470L328 583ZM412 718Q392 718 377.5 731.5Q363 745 363 765V767Q363 789 377.5 801Q392 813 412 813Q432 813 446.5 801Q461 789 461 767V765Q461 745 446.5 731.5Q432 718 412 718ZM248 718Q228 718 213.5 731.5Q199 745 199 765V767Q199 789 213.5 801Q228 813 248 813Q268 813 282.5 801Q297 789 297 767V765Q297 745 282.5 731.5Q268 718 248 718Z" glyph-name="Adieresis" horiz-adv-x="656" unicode="&#196;" /><glyph d="M85 0H30V13L295 650H361L627 13V0H568L494 178H159ZM326 583 183 236H470L328 583ZM458 733 436 699 226 813 262 870Z" glyph-name="Agrave" horiz-adv-x="656" unicode="&#192;" /><glyph d="M85 0H30V13L292 644Q278 651 266 663Q240 689 240 727Q240 765 266 790.5Q292 816 330 816Q369 816 395 790.5Q421 765 421 727Q421 689 395 663Q381 649 364 642L627 13V0H568L494 178H159ZM326 583 183 236H470L328 583ZM330 679Q350 679 362 693.5Q374 708 374 728Q374 748 362 761.5Q350 775 330 775Q311 775 298.5 761.5Q286 748 286 728Q286 708 298.5 693.5Q311 679 330 679Z" glyph-name="Aring" horiz-adv-x="656" unicode="&#197;" /><glyph d="M85 0H30V13L295 650H361L627 13V0H568L494 178H159ZM326 583 183 236H470L328 583ZM225 715H178Q178 733 183.5 750.5Q189 768 200 782.5Q211 797 228 806Q245 815 268 815Q291 815 307 807.5Q323 800 337 791.5Q351 783 363.5 775.5Q376 768 391 768Q408 768 421.5 778Q435 788 435 820H482Q482 802 476.5 784.5Q471 767 460 752.5Q449 738 432 729Q415 720 392 720Q370 720 353.5 727.5Q337 735 323 743.5Q309 752 296.5 759.5Q284 767 269 767Q252 767 238.5 757Q225 747 225 715Z" glyph-name="Atilde" horiz-adv-x="656" unicode="&#195;" /><glyph d="M370 0H99V650H330Q369 650 402.5 640.5Q436 631 460.5 610.5Q485 590 499.5 557.5Q514 525 514 480V474Q514 426 494.5 394Q475 362 443 342V340Q463 332 481.5 317Q500 302 515 282.5Q530 263 539 239.5Q548 216 548 189V183Q548 90 498 45Q448 0 370 0ZM161 303V58H359Q400 58 424.5 69.5Q449 81 462 99.5Q475 118 479.5 141Q484 164 484 186Q484 202 479 222.5Q474 243 460 261Q446 279 421.5 291Q397 303 358 303ZM161 592V361H349Q378 361 397.5 372Q417 383 428.5 400Q440 417 445 438Q450 459 450 479Q450 499 444.5 519.5Q439 540 426.5 556Q414 572 394.5 582Q375 592 347 592Z" glyph-name="B" horiz-adv-x="603" unicode="B" /><glyph d="M363 -15Q301 -15 246 9Q191 33 150.5 76.5Q110 120 86.5 181.5Q63 243 63 318V342Q63 414 86 473Q109 532 149.5 575Q190 618 244.5 641.5Q299 665 361 665Q419 665 467.5 648Q516 631 551.5 601.5Q587 572 609 532.5Q631 493 636 447V441H575Q570 474 555 503.5Q540 533 513.5 555.5Q487 578 449.5 591.5Q412 605 362 605Q308 605 264.5 583.5Q221 562 190.5 525Q160 488 143.5 438Q127 388 127 331Q127 271 143.5 218.5Q160 166 190.5 127.5Q221 89 264.5 66.5Q308 44 362 44Q412 44 449.5 58Q487 72 513.5 96.5Q540 121 555 153Q570 185 576 221H639V215Q633 167 611.5 125.5Q590 84 555 52.5Q520 21 471.5 3Q423 -15 363 -15Z" glyph-name="C" horiz-adv-x="694" unicode="C" /><glyph d="M311 -180Q271 -180 240 -169V-123H250Q267 -128 283.5 -130Q300 -132 309 -132Q362 -132 362 -103Q362 -86 348.5 -79Q335 -72 314 -74L311 -68L331 -13Q286 -8 246 9Q191 33 150.5 76.5Q110 120 86.5 181.5Q63 243 63 318V342Q63 414 86 473Q109 532 149.5 575Q190 618 244.5 641.5Q299 665 361 665Q419 665 467.5 648Q516 631 551.5 601.5Q587 572 609 532.5Q631 493 636 447V441H575Q570 474 555 503.5Q540 533 513.5 555.5Q487 578 449.5 591.5Q412 605 362 605Q308 605 264.5 583.5Q221 562 190.5 525Q160 488 143.5 438Q127 388 127 331Q127 271 143.5 218.5Q160 166 190.5 127.5Q221 89 264.5 66.5Q308 44 362 44Q412 44 449.5 58Q487 72 513.5 96.5Q540 121 555 153Q570 185 576 221H639V215Q633 167 611.5 125.5Q590 84 555 52.5Q520 21 471 3Q430 -12 381 -14L371 -44Q388 -49 405 -63.5Q422 -78 422 -102Q422 -123 412.5 -137.5Q403 -152 387.5 -161.5Q372 -171 352 -175.5Q332 -180 311 -180Z" glyph-name="Ccedilla" horiz-adv-x="694" unicode="&#199;" /><glyph d="M292 0H99V650H292Q371 650 431.5 630.5Q492 611 535 568Q576 525 598.5 464.5Q621 404 621 339V313Q621 248 598.5 188Q576 128 535 85Q450 0 292 0ZM161 592V58H300Q418 58 484 124Q519 161 538 213Q557 265 557 325Q557 385 536.5 441.5Q516 498 483 531Q450 564 404.5 578Q359 592 300 592Z" glyph-name="D" horiz-adv-x="684" unicode="D" /><glyph d="M476 0H99V650H476V592H161V363H433V305H161V58H476Z" glyph-name="E" horiz-adv-x="553" unicode="E" /><glyph d="M476 0H99V650H476V592H161V363H433V305H161V58H476ZM393 813 183 699 161 733 357 870Z" glyph-name="Eacute" horiz-adv-x="553" unicode="&#201;" /><glyph d="M476 0H99V650H476V592H161V363H433V305H161V58H476ZM290 773 171 703 148 738 290 842 437 738 416 703Z" glyph-name="Ecircumflex" horiz-adv-x="553" unicode="&#202;" /><glyph d="M476 0H99V650H476V592H161V363H433V305H161V58H476ZM369 718Q349 718 334.5 731.5Q320 745 320 765V767Q320 789 334.5 801Q349 813 369 813Q389 813 403.5 801Q418 789 418 767V765Q418 745 403.5 731.5Q389 718 369 718ZM205 718Q185 718 170.5 731.5Q156 745 156 765V767Q156 789 170.5 801Q185 813 205 813Q225 813 239.5 801Q254 789 254 767V765Q254 745 239.5 731.5Q225 718 205 718Z" glyph-name="Edieresis" horiz-adv-x="553" unicode="&#203;" /><glyph d="M476 0H99V650H476V592H161V363H433V305H161V58H476ZM408 732 386 698 176 812 212 869Z" glyph-name="Egrave" horiz-adv-x="553" unicode="&#200;" /><glyph d="M407 351H187Q186 344 186 338V309Q186 301 187 293H387L374 235H195Q203 193 219.5 157.5Q236 122 259.5 96.5Q283 71 313.5 57Q344 43 380 43Q420 43 448.5 57Q477 71 496.5 94.5Q516 118 526.5 149.5Q537 181 541 215H602V209Q598 163 581.5 122Q565 81 536.5 50.5Q508 20 467.5 2Q427 -16 375 -15Q330 -16 289 1.5Q248 19 216 51.5Q184 84 161 130.5Q138 177 129 235H7L20 293H123V351H40L53 409H128Q137 467 160 514.5Q183 562 216 595.5Q249 629 290 647Q331 665 376 665Q427 665 466 648Q505 631 532 601.5Q559 572 575 533Q591 494 597 449V443H536Q530 475 519.5 504.5Q509 534 490.5 557.5Q472 581 444 595Q416 609 376 609Q341 609 311 594Q281 579 257.5 552Q234 525 218 488.5Q202 452 194 409H420Z" glyph-name="Euro" horiz-adv-x="657" unicode="&#8364;" /><glyph d="M161 0H99V650H486V592H161V340H443V282H161Z" glyph-name="F" horiz-adv-x="534" unicode="F" /><glyph d="M388 -15Q312 -15 251.5 10.5Q191 36 149 80.5Q107 125 85 185Q63 245 63 313V336Q63 408 85 468.5Q107 529 147.5 572.5Q188 616 245 640.5Q302 665 372 665Q431 665 477.5 649.5Q524 634 557.5 605.5Q591 577 611.5 537Q632 497 639 449V443H573Q569 475 556 504.5Q543 534 519 556Q495 578 458.5 591Q422 604 370 604Q310 604 264.5 582.5Q219 561 188.5 523.5Q158 486 143 435.5Q128 385 128 327Q128 269 145.5 217.5Q163 166 196 127.5Q229 89 276 67Q323 45 383 45Q450 45 503.5 68.5Q557 92 596 132V275H382V334H659V116Q641 89 613.5 65.5Q586 42 551 24Q516 6 474.5 -4.5Q433 -15 388 -15Z" glyph-name="G" horiz-adv-x="730" unicode="G" /><glyph d="M161 0H99V650H161V363H562V650H624V0H562V305H161Z" glyph-name="H" horiz-adv-x="723" unicode="H" /><glyph d="M161 0H99V650H161Z" glyph-name="I" horiz-adv-x="260" unicode="I" /><glyph d="M161 0H99V650H161ZM240 812 30 698 8 732 204 869Z" glyph-name="Iacute" horiz-adv-x="260" unicode="&#205;" /><glyph d="M161 0H99V650H161ZM127 772 8 702 -15 737 127 841 274 737 253 702Z" glyph-name="Icircumflex" horiz-adv-x="260" unicode="&#206;" /><glyph d="M161 0H99V650H161ZM210 718Q190 718 175.5 731.5Q161 745 161 765V767Q161 789 175.5 801Q190 813 210 813Q230 813 244.5 801Q259 789 259 767V765Q259 745 244.5 731.5Q230 718 210 718ZM46 718Q26 718 11.5 731.5Q-3 745 -3 765V767Q-3 789 11.5 801Q26 813 46 813Q66 813 80.5 801Q95 789 95 767V765Q95 745 80.5 731.5Q66 718 46 718Z" glyph-name="Idieresis" horiz-adv-x="260" unicode="&#207;" /><glyph d="M161 0H99V650H161ZM256 733 234 699 24 813 60 870Z" glyph-name="Igrave" horiz-adv-x="260" unicode="&#204;" /><glyph d="M143 -16Q124 -16 98 -12Q72 -8 49 2V62H64Q78 54 98.5 48Q119 42 142 42Q165 42 182.5 49Q200 56 211 67Q229 85 233 110.5Q237 136 237 169V650H299V169Q299 132 292.5 98.5Q286 65 269 39.5Q252 14 221.5 -1Q191 -16 143 -16Z" glyph-name="J" horiz-adv-x="398" unicode="J" /><glyph d="M161 0H99V650H161V349L467 650H537V637L232 340L550 13V0H480L161 325Z" glyph-name="K" horiz-adv-x="582" unicode="K" /><glyph d="M464 0H99V650H161V58H464Z" glyph-name="L" horiz-adv-x="511" unicode="L" /><glyph d="M139 0H74V15L173 650H249L466 121L683 650H759L858 15V0H791L735 378Q733 394 729.5 419.5Q726 445 722 473Q718 501 715 526.5Q712 552 710 568H708Q704 553 695 527Q686 501 675.5 473.5Q665 446 654.5 420Q644 394 638 378L483 10H447L292 378Q286 394 275.5 420Q265 446 254.5 473.5Q244 501 235 527Q226 553 222 568H220Q219 552 215.5 526.5Q212 501 208.5 473Q205 445 201 419.5Q197 394 195 378Z" glyph-name="M" horiz-adv-x="932" unicode="M" /><glyph d="M161 0H99V650H169L545 104H547V650H609V0H541L163 551H161Z" glyph-name="N" horiz-adv-x="708" unicode="N" /><glyph glyph-name="NULL" horiz-adv-x="0" /><glyph d="M161 0H99V650H169L545 104H547V650H609V0H541L163 551H161ZM256 715H209Q209 733 214.5 750.5Q220 768 231 782.5Q242 797 259 806Q276 815 299 815Q322 815 338 807.5Q354 800 368 791.5Q382 783 394.5 775.5Q407 768 422 768Q439 768 452.5 778Q466 788 466 820H513Q513 802 507.5 784.5Q502 767 491 752.5Q480 738 463 729Q446 720 423 720Q401 720 384.5 727.5Q368 735 354 743.5Q340 752 327.5 759.5Q315 767 300 767Q283 767 269.5 757Q256 747 256 715Z" glyph-name="Ntilde" horiz-adv-x="708" unicode="&#209;" /><glyph d="M371 -15Q307 -15 250.5 9Q194 33 152.5 76Q111 119 87 179.5Q63 240 63 313V337Q63 410 87 470.5Q111 531 152.5 574Q194 617 250.5 641Q307 665 371 665Q436 665 492 641Q548 617 589.5 574Q631 531 655 470.5Q679 410 679 337V313Q679 240 655 179.5Q631 119 589.5 76Q548 33 492 9Q436 -15 371 -15ZM371 45Q430 45 475.5 67.5Q521 90 552 128Q583 166 599 217Q615 268 615 325Q615 382 599 433Q583 484 552 522Q521 560 475.5 582.5Q430 605 371 605Q312 605 266.5 582.5Q221 560 190 522Q159 484 143 433Q127 382 127 325Q127 268 143 217Q159 166 190 128Q221 90 266.5 67.5Q312 45 371 45Z" glyph-name="O" horiz-adv-x="742" unicode="O" /><glyph d="M995 0H618V125Q603 98 583 76Q544 33 490 9Q436 -15 371 -15Q307 -15 250.5 9Q194 33 152.5 76Q111 119 87 179.5Q63 240 63 313V337Q63 410 87 470.5Q111 531 152.5 574Q194 617 250.5 641Q307 665 371 665Q436 665 490 641.5Q544 618 583 575Q603 553 618 526V650H995V592H680V363H952V305H680V58H995ZM371 45Q430 45 475.5 67.5Q521 90 552 128Q583 166 599 217Q615 268 615 325Q615 382 599 433Q583 484 552 522Q521 560 475.5 582.5Q430 605 371 605Q312 605 266.5 582.5Q221 560 190 522Q159 484 143 433Q127 382 127 325Q127 268 143 217Q159 166 190 128Q221 90 266.5 67.5Q312 45 371 45Z" glyph-name="OE" horiz-adv-x="1072" unicode="&#338;" /><glyph d="M371 -15Q307 -15 250.5 9Q194 33 152.5 76Q111 119 87 179.5Q63 240 63 313V337Q63 410 87 470.5Q111 531 152.5 574Q194 617 250.5 641Q307 665 371 665Q436 665 492 641Q548 617 589.5 574Q631 531 655 470.5Q679 410 679 337V313Q679 240 655 179.5Q631 119 589.5 76Q548 33 492 9Q436 -15 371 -15ZM371 45Q430 45 475.5 67.5Q521 90 552 128Q583 166 599 217Q615 268 615 325Q615 382 599 433Q583 484 552 522Q521 560 475.5 582.5Q430 605 371 605Q312 605 266.5 582.5Q221 560 190 522Q159 484 143 433Q127 382 127 325Q127 268 143 217Q159 166 190 128Q221 90 266.5 67.5Q312 45 371 45ZM475 813 265 699 243 733 439 870Z" glyph-name="Oacute" horiz-adv-x="742" unicode="&#211;" /><glyph d="M371 -15Q307 -15 250.5 9Q194 33 152.5 76Q111 119 87 179.5Q63 240 63 313V337Q63 410 87 470.5Q111 531 152.5 574Q194 617 250.5 641Q307 665 371 665Q436 665 492 641Q548 617 589.5 574Q631 531 655 470.5Q679 410 679 337V313Q679 240 655 179.5Q631 119 589.5 76Q548 33 492 9Q436 -15 371 -15ZM371 45Q430 45 475.5 67.5Q521 90 552 128Q583 166 599 217Q615 268 615 325Q615 382 599 433Q583 484 552 522Q521 560 475.5 582.5Q430 605 371 605Q312 605 266.5 582.5Q221 560 190 522Q159 484 143 433Q127 382 127 325Q127 268 143 217Q159 166 190 128Q221 90 266.5 67.5Q312 45 371 45ZM370 773 251 703 228 738 370 842 517 738 496 703Z" glyph-name="Ocircumflex" horiz-adv-x="742" unicode="&#212;" /><glyph d="M371 -15Q307 -15 250.5 9Q194 33 152.5 76Q111 119 87 179.5Q63 240 63 313V337Q63 410 87 470.5Q111 531 152.5 574Q194 617 250.5 641Q307 665 371 665Q436 665 492 641Q548 617 589.5 574Q631 531 655 470.5Q679 410 679 337V313Q679 240 655 179.5Q631 119 589.5 76Q548 33 492 9Q436 -15 371 -15ZM371 45Q430 45 475.5 67.5Q521 90 552 128Q583 166 599 217Q615 268 615 325Q615 382 599 433Q583 484 552 522Q521 560 475.5 582.5Q430 605 371 605Q312 605 266.5 582.5Q221 560 190 522Q159 484 143 433Q127 382 127 325Q127 268 143 217Q159 166 190 128Q221 90 266.5 67.5Q312 45 371 45ZM454 718Q434 718 419.5 731.5Q405 745 405 765V767Q405 789 419.5 801Q434 813 454 813Q474 813 488.5 801Q503 789 503 767V765Q503 745 488.5 731.5Q474 718 454 718ZM290 718Q270 718 255.5 731.5Q241 745 241 765V767Q241 789 255.5 801Q270 813 290 813Q310 813 324.5 801Q339 789 339 767V765Q339 745 324.5 731.5Q310 718 290 718Z" glyph-name="Odieresis" horiz-adv-x="742" unicode="&#214;" /><glyph d="M371 -15Q307 -15 250.5 9Q194 33 152.5 76Q111 119 87 179.5Q63 240 63 313V337Q63 410 87 470.5Q111 531 152.5 574Q194 617 250.5 641Q307 665 371 665Q436 665 492 641Q548 617 589.5 574Q631 531 655 470.5Q679 410 679 337V313Q679 240 655 179.5Q631 119 589.5 76Q548 33 492 9Q436 -15 371 -15ZM371 45Q430 45 475.5 67.5Q521 90 552 128Q583 166 599 217Q615 268 615 325Q615 382 599 433Q583 484 552 522Q521 560 475.5 582.5Q430 605 371 605Q312 605 266.5 582.5Q221 560 190 522Q159 484 143 433Q127 382 127 325Q127 268 143 217Q159 166 190 128Q221 90 266.5 67.5Q312 45 371 45ZM490 733 468 699 258 813 294 870Z" glyph-name="Ograve" horiz-adv-x="742" unicode="&#210;" /><glyph d="M371 -15Q311 -15 257 6L227 -65H175V-50L209 30Q178 49 152 76Q111 119 87 179.5Q63 240 63 313V337Q63 410 87 470.5Q111 531 152.5 574Q194 617 250.5 641Q307 665 371 665Q425 665 474 648L503 715H556V700L524 625Q560 604 589 574Q631 531 655 470.5Q679 410 679 337V313Q679 240 655 179.5Q631 119 589.5 76Q548 33 492 9Q436 -15 371 -15ZM371 45Q430 45 475.5 67.5Q521 90 552 128Q583 166 599 217Q615 268 615 325Q615 382 599 433Q583 484 552 522Q529 549 499 568L281 61Q321 45 371 45ZM371 605Q312 605 266.5 582.5Q221 560 190 522Q159 484 143 433Q127 382 127 325Q127 268 143 217Q159 166 190 128Q209 104 234 87L450 593Q414 605 371 605Z" glyph-name="Oslash" horiz-adv-x="742" unicode="&#216;" /><glyph d="M371 -15Q307 -15 250.5 9Q194 33 152.5 76Q111 119 87 179.5Q63 240 63 313V337Q63 410 87 470.5Q111 531 152.5 574Q194 617 250.5 641Q307 665 371 665Q436 665 492 641Q548 617 589.5 574Q631 531 655 470.5Q679 410 679 337V313Q679 240 655 179.5Q631 119 589.5 76Q548 33 492 9Q436 -15 371 -15ZM371 45Q430 45 475.5 67.5Q521 90 552 128Q583 166 599 217Q615 268 615 325Q615 382 599 433Q583 484 552 522Q521 560 475.5 582.5Q430 605 371 605Q312 605 266.5 582.5Q221 560 190 522Q159 484 143 433Q127 382 127 325Q127 268 143 217Q159 166 190 128Q221 90 266.5 67.5Q312 45 371 45ZM267 715H220Q220 733 225.5 750.5Q231 768 242 782.5Q253 797 270 806Q287 815 310 815Q333 815 349 807.5Q365 800 379 791.5Q393 783 405.5 775.5Q418 768 433 768Q450 768 463.5 778Q477 788 477 820H524Q524 802 518.5 784.5Q513 767 502 752.5Q491 738 474 729Q457 720 434 720Q412 720 395.5 727.5Q379 735 365 743.5Q351 752 338.5 759.5Q326 767 311 767Q294 767 280.5 757Q267 747 267 715Z" glyph-name="Otilde" horiz-adv-x="742" unicode="&#213;" /><glyph d="M161 0H99V650H341Q386 650 424.5 636.5Q463 623 491 596.5Q519 570 534.5 531.5Q550 493 550 442V424Q550 373 534.5 334.5Q519 296 491.5 269.5Q464 243 425.5 229.5Q387 216 342 216H161ZM161 592V274H350Q386 274 411.5 287Q437 300 453.5 322Q470 344 478 372.5Q486 401 486 431Q486 462 478.5 491Q471 520 454.5 542.5Q438 565 412 578.5Q386 592 350 592Z" glyph-name="P" horiz-adv-x="595" unicode="P" /><glyph d="M626 -114H553L458 -3Q418 -15 371 -15Q307 -15 250.5 9Q194 33 152.5 76Q111 119 87 179.5Q63 240 63 313V337Q63 410 87 470.5Q111 531 152.5 574Q194 617 250.5 641Q307 665 371 665Q436 665 492 641Q548 617 589.5 574Q631 531 655 470.5Q679 410 679 337V313Q679 213 636 138Q593 63 521 23L626 -103ZM371 45Q430 45 475.5 67.5Q521 90 552 128Q583 166 599 217Q615 268 615 325Q615 382 599 433Q583 484 552 522Q521 560 475.5 582.5Q430 605 371 605Q312 605 266.5 582.5Q221 560 190 522Q159 484 143 433Q127 382 127 325Q127 268 143 217Q159 166 190 128Q221 90 266.5 67.5Q312 45 371 45Z" glyph-name="Q" horiz-adv-x="742" unicode="Q" /><glyph d="M536 0H468L274 261H161V0H99V650H325Q368 650 404.5 638.5Q441 627 467.5 603.5Q494 580 509 545.5Q524 511 524 466V448Q524 363 476 315.5Q428 268 351 262L536 13ZM161 592V319H336Q369 319 392.5 330Q416 341 431 360Q446 379 453 403Q460 427 460 453Q460 479 452.5 504Q445 529 430 548.5Q415 568 391 580Q367 592 334 592Z" glyph-name="R" horiz-adv-x="595" unicode="R" /><glyph d="M293 -16Q196 -16 136 37Q76 90 68 192V198H134Q135 167 146 138Q157 109 176.5 87.5Q196 66 224.5 53Q253 40 289 40Q318 40 345 47Q372 54 393 69.5Q414 85 426.5 109.5Q439 134 439 169Q439 195 432.5 214Q426 233 411 248Q384 275 347.5 287Q311 299 271.5 308Q232 317 193 330Q154 343 124 371Q102 391 89.5 419Q77 447 77 483V493Q77 536 94 567.5Q111 599 139 620Q167 641 202.5 651.5Q238 662 275 662Q325 662 363 648Q401 634 426.5 609Q452 584 464.5 551.5Q477 519 477 481V475H416Q415 536 379.5 570.5Q344 605 276 605Q240 605 214 595.5Q188 586 172 570.5Q156 555 148.5 535Q141 515 141 494Q141 447 170 418Q193 396 228.5 385Q264 374 304.5 364.5Q345 355 385.5 340Q426 325 457 294Q478 273 490 244Q502 215 502 176V167Q502 118 482.5 83.5Q463 49 433 27Q403 5 366 -5.5Q329 -16 293 -16Z" glyph-name="S" horiz-adv-x="564" unicode="S" /><glyph d="M314 0H252V592H49V650H507V592H314Z" glyph-name="T" horiz-adv-x="556" unicode="T" /><glyph d="M332 -15Q222 -15 158 43.5Q94 102 94 226V650H156V221Q156 130 203 86.5Q250 43 332 43Q414 43 461 86.5Q508 130 508 221V650H570V226Q570 102 506 43.5Q442 -15 332 -15Z" glyph-name="U" horiz-adv-x="664" unicode="U" /><glyph d="M332 -15Q222 -15 158 43.5Q94 102 94 226V650H156V221Q156 130 203 86.5Q250 43 332 43Q414 43 461 86.5Q508 130 508 221V650H570V226Q570 102 506 43.5Q442 -15 332 -15ZM451 813 241 699 219 733 415 870Z" glyph-name="Uacute" horiz-adv-x="664" unicode="&#218;" /><glyph d="M332 -15Q222 -15 158 43.5Q94 102 94 226V650H156V221Q156 130 203 86.5Q250 43 332 43Q414 43 461 86.5Q508 130 508 221V650H570V226Q570 102 506 43.5Q442 -15 332 -15ZM326 773 207 703 184 738 326 842 473 738 452 703Z" glyph-name="Ucircumflex" horiz-adv-x="664" unicode="&#219;" /><glyph d="M332 -15Q222 -15 158 43.5Q94 102 94 226V650H156V221Q156 130 203 86.5Q250 43 332 43Q414 43 461 86.5Q508 130 508 221V650H570V226Q570 102 506 43.5Q442 -15 332 -15ZM410 718Q390 718 375.5 731.5Q361 745 361 765V767Q361 789 375.5 801Q390 813 410 813Q430 813 444.5 801Q459 789 459 767V765Q459 745 444.5 731.5Q430 718 410 718ZM246 718Q226 718 211.5 731.5Q197 745 197 765V767Q197 789 211.5 801Q226 813 246 813Q266 813 280.5 801Q295 789 295 767V765Q295 745 280.5 731.5Q266 718 246 718Z" glyph-name="Udieresis" horiz-adv-x="664" unicode="&#220;" /><glyph d="M332 -15Q222 -15 158 43.5Q94 102 94 226V650H156V221Q156 130 203 86.5Q250 43 332 43Q414 43 461 86.5Q508 130 508 221V650H570V226Q570 102 506 43.5Q442 -15 332 -15ZM425 733 403 699 193 813 229 870Z" glyph-name="Ugrave" horiz-adv-x="664" unicode="&#217;" /><glyph d="M349 0H303L30 637V650H96L327 99H329L559 650H623V637Z" glyph-name="V" horiz-adv-x="652" unicode="V" /><glyph d="M284 0H211L24 637V650H88L249 83H251L406 650H481L636 83H638L799 650H860V637L673 0H600L443 560H441Z" glyph-name="W" horiz-adv-x="884" unicode="W" /><glyph d="M100 0H38V13L267 344L78 637V650H143L304 399L466 650H529V637L339 346L569 13V0H505L303 291Z" glyph-name="X" horiz-adv-x="607" unicode="X" /><glyph d="M341 0H279V260L32 637V650H95L311 314L525 650H586V637L341 260Z" glyph-name="Y" horiz-adv-x="619" unicode="Y" /><glyph d="M341 0H279V260L32 637V650H95L311 314L525 650H586V637L341 260ZM395 718Q375 718 360.5 731.5Q346 745 346 765V767Q346 789 360.5 801Q375 813 395 813Q415 813 429.5 801Q444 789 444 767V765Q444 745 429.5 731.5Q415 718 395 718ZM231 718Q211 718 196.5 731.5Q182 745 182 765V767Q182 789 196.5 801Q211 813 231 813Q251 813 265.5 801Q280 789 280 767V765Q280 745 265.5 731.5Q251 718 231 718Z" glyph-name="Ydieresis" horiz-adv-x="619" unicode="&#376;" /><glyph d="M522 0H76V50L450 590V592H93V650H531V601L155 60V58H522Z" glyph-name="Z" horiz-adv-x="594" unicode="Z" /><glyph d="M302 -15Q257 -15 214.5 0Q172 15 138 46.5Q104 78 83.5 125.5Q63 173 63 239V258Q63 314 78.5 361Q94 408 124.5 442.5Q155 477 201 496Q247 515 307 515Q331 515 355.5 509Q380 503 402 492.5Q424 482 442.5 468Q461 454 473 437H475L494 500H536V0H493L473 65H471Q461 47 442.5 32.5Q424 18 401.5 7Q379 -4 353.5 -9.5Q328 -15 302 -15ZM306 40Q351 40 384 57Q417 74 438 102.5Q459 131 469 168.5Q479 206 479 247Q479 289 469.5 327.5Q460 366 439 395.5Q418 425 385.5 442.5Q353 460 306 460Q258 460 223.5 443.5Q189 427 167.5 398.5Q146 370 135.5 331Q125 292 125 247Q125 204 136 166.5Q147 129 169.5 101Q192 73 226 56.5Q260 40 306 40Z" glyph-name="a" horiz-adv-x="625" unicode="a" /><glyph d="M302 -15Q257 -15 214.5 0Q172 15 138 46.5Q104 78 83.5 125.5Q63 173 63 239V258Q63 314 78.5 361Q94 408 124.5 442.5Q155 477 201 496Q247 515 307 515Q331 515 355.5 509Q380 503 402 492.5Q424 482 442.5 468Q461 454 473 437H475L494 500H536V0H493L473 65H471Q461 47 442.5 32.5Q424 18 401.5 7Q379 -4 353.5 -9.5Q328 -15 302 -15ZM306 40Q351 40 384 57Q417 74 438 102.5Q459 131 469 168.5Q479 206 479 247Q479 289 469.5 327.5Q460 366 439 395.5Q418 425 385.5 442.5Q353 460 306 460Q258 460 223.5 443.5Q189 427 167.5 398.5Q146 370 135.5 331Q125 292 125 247Q125 204 136 166.5Q147 129 169.5 101Q192 73 226 56.5Q260 40 306 40ZM402 663 192 549 170 583 366 720Z" glyph-name="aacute" horiz-adv-x="625" unicode="&#225;" /><glyph d="M302 -15Q257 -15 214.5 0Q172 15 138 46.5Q104 78 83.5 125.5Q63 173 63 239V258Q63 314 78.5 361Q94 408 124.5 442.5Q155 477 201 496Q247 515 307 515Q331 515 355.5 509Q380 503 402 492.5Q424 482 442.5 468Q461 454 473 437H475L494 500H536V0H493L473 65H471Q461 47 442.5 32.5Q424 18 401.5 7Q379 -4 353.5 -9.5Q328 -15 302 -15ZM306 40Q351 40 384 57Q417 74 438 102.5Q459 131 469 168.5Q479 206 479 247Q479 289 469.5 327.5Q460 366 439 395.5Q418 425 385.5 442.5Q353 460 306 460Q258 460 223.5 443.5Q189 427 167.5 398.5Q146 370 135.5 331Q125 292 125 247Q125 204 136 166.5Q147 129 169.5 101Q192 73 226 56.5Q260 40 306 40ZM297 623 178 553 155 588 297 692 444 588 423 553Z" glyph-name="acircumflex" horiz-adv-x="625" unicode="&#226;" /><glyph d="M361 663 151 549 129 583 325 720Z" glyph-name="acute" horiz-adv-x="500" unicode="&#180;" /><glyph d="M302 -15Q257 -15 214.5 0Q172 15 138 46.5Q104 78 83.5 125.5Q63 173 63 239V258Q63 314 78.5 361Q94 408 124.5 442.5Q155 477 201 496Q247 515 307 515Q331 515 355.5 509Q380 503 402 492.5Q424 482 442.5 468Q461 454 473 437H475L494 500H536V0H493L473 65H471Q461 47 442.5 32.5Q424 18 401.5 7Q379 -4 353.5 -9.5Q328 -15 302 -15ZM306 40Q351 40 384 57Q417 74 438 102.5Q459 131 469 168.5Q479 206 479 247Q479 289 469.5 327.5Q460 366 439 395.5Q418 425 385.5 442.5Q353 460 306 460Q258 460 223.5 443.5Q189 427 167.5 398.5Q146 370 135.5 331Q125 292 125 247Q125 204 136 166.5Q147 129 169.5 101Q192 73 226 56.5Q260 40 306 40ZM375 568Q355 568 340.5 581.5Q326 595 326 615V617Q326 639 340.5 651Q355 663 375 663Q395 663 409.5 651Q424 639 424 617V615Q424 595 409.5 581.5Q395 568 375 568ZM211 568Q191 568 176.5 581.5Q162 595 162 615V617Q162 639 176.5 651Q191 663 211 663Q231 663 245.5 651Q260 639 260 617V615Q260 595 245.5 581.5Q231 568 211 568Z" glyph-name="adieresis" horiz-adv-x="625" unicode="&#228;" /><glyph d="M230 -15Q192 -15 155 -2Q118 11 96 35Q54 77 54 136V142Q54 182 69.5 212.5Q85 243 112 264Q139 285 176.5 295.5Q214 306 258 306Q288 306 318 302.5Q348 299 376 288V308Q376 345 369 376Q362 407 343 426Q327 442 305.5 451Q284 460 251 460Q230 460 210.5 455.5Q191 451 175 440.5Q159 430 149 412Q139 394 138 368H77V374Q82 413 98 440Q114 467 138 483.5Q162 500 192 507.5Q222 515 254 515Q314 515 356.5 488.5Q399 462 416 402Q440 456 484 485.5Q528 515 592 515Q649 515 688.5 492.5Q728 470 752.5 433Q777 396 788 349.5Q799 303 799 255V245Q799 241 798 233H438Q440 192 450.5 156.5Q461 121 480.5 95.5Q500 70 528 55.5Q556 41 593 41Q646 41 679.5 66.5Q713 92 725 135H786Q770 65 718.5 25Q667 -15 594 -15Q530 -15 483 13.5Q436 42 410 95Q377 35 329 10Q281 -15 230 -15ZM233 41Q258 41 283.5 50.5Q309 60 329.5 78Q350 96 363 123Q376 150 376 186V232Q315 253 256 253Q230 253 204.5 247Q179 241 159.5 228Q140 215 128 194.5Q116 174 116 145Q116 92 149.5 66.5Q183 41 233 41ZM737 287Q736 318 728.5 349Q721 380 704.5 404.5Q688 429 661.5 444.5Q635 460 595 460Q524 460 486.5 415Q449 370 439 287Z" glyph-name="ae" horiz-adv-x="862" unicode="&#230;" /><glyph d="M302 -15Q257 -15 214.5 0Q172 15 138 46.5Q104 78 83.5 125.5Q63 173 63 239V258Q63 314 78.5 361Q94 408 124.5 442.5Q155 477 201 496Q247 515 307 515Q331 515 355.5 509Q380 503 402 492.5Q424 482 442.5 468Q461 454 473 437H475L494 500H536V0H493L473 65H471Q461 47 442.5 32.5Q424 18 401.5 7Q379 -4 353.5 -9.5Q328 -15 302 -15ZM306 40Q351 40 384 57Q417 74 438 102.5Q459 131 469 168.5Q479 206 479 247Q479 289 469.5 327.5Q460 366 439 395.5Q418 425 385.5 442.5Q353 460 306 460Q258 460 223.5 443.5Q189 427 167.5 398.5Q146 370 135.5 331Q125 292 125 247Q125 204 136 166.5Q147 129 169.5 101Q192 73 226 56.5Q260 40 306 40ZM399 583 377 549 167 663 203 720Z" glyph-name="agrave" horiz-adv-x="625" unicode="&#224;" /><glyph d="M255 394Q281 408 305.5 422.5Q330 437 348.5 455Q367 473 378.5 496Q390 519 390 550Q390 589 366 613.5Q342 638 306 638Q264 638 239 607Q214 576 214 524Q214 492 224 459.5Q234 427 252 392ZM446 81Q383 132 326.5 191Q270 250 228 314Q191 289 163.5 255.5Q136 222 136 169Q136 136 149 112Q162 88 184.5 72.5Q207 57 237.5 49Q268 41 302 41Q348 41 383.5 52Q419 63 446 81ZM298 -15Q252 -15 211 -3.5Q170 8 139.5 30.5Q109 53 91.5 85.5Q74 118 74 161V177Q74 210 84.5 237.5Q95 265 112 287.5Q129 310 152 328.5Q175 347 199 362Q176 403 164 441.5Q152 480 152 516V532Q152 568 163.5 597.5Q175 627 195 648.5Q215 670 243.5 682Q272 694 306 694Q338 694 364 683.5Q390 673 409 654.5Q428 636 438.5 611.5Q449 587 449 559V546Q449 506 434 476Q419 446 395 423Q371 400 341 381.5Q311 363 282 346L280 345Q319 286 373.5 230Q428 174 489 125Q506 148 514 174Q522 200 522 226Q522 268 512 302Q502 336 485 364V379H547Q564 347 574 310.5Q584 274 584 226Q584 191 572 155.5Q560 120 537 89Q589 50 643 21V6L576 -10Q556 2 535 16Q514 30 493 45Q458 18 409.5 1.5Q361 -15 298 -15Z" glyph-name="ampersand" horiz-adv-x="679" unicode="&amp;" /><glyph d="M437 190Q407 190 376.5 195Q346 200 315 205.5Q284 211 253 216Q222 221 191 221Q162 221 135 215Q108 209 80 193Q78 193 76 192Q74 191 72 191V244Q106 265 135 271.5Q164 278 190 278Q221 278 252 273Q283 268 314 262Q345 256 375.5 251Q406 246 437 246Q466 246 495.5 253.5Q525 261 556 280Q558 280 559.5 280.5Q561 281 563 281V228Q528 205 496.5 197.5Q465 190 437 190ZM437 345Q407 345 376.5 350Q346 355 315 360.5Q284 366 253 371Q222 376 191 376Q162 376 135 370Q108 364 80 347Q78 347 76 346.5Q74 346 72 346V398Q106 419 135 425.5Q164 432 190 432Q221 432 252 427Q283 422 314 416Q345 410 375.5 405Q406 400 437 400Q466 400 495.5 407.5Q525 415 556 434Q558 434 559.5 434.5Q561 435 563 435V383Q528 359 496.5 352Q465 345 437 345Z" glyph-name="approxequal" horiz-adv-x="635" unicode="&#8776;" /><glyph d="M302 -15Q257 -15 214.5 0Q172 15 138 46.5Q104 78 83.5 125.5Q63 173 63 239V258Q63 314 78.5 361Q94 408 124.5 442.5Q155 477 201 496Q220 504 241 508L237 513Q211 539 211 577Q211 615 237 640.5Q263 666 301 666Q340 666 366 640.5Q392 615 392 577Q392 539 366 513L361 508Q382 502 402 492Q424 482 442.5 468Q461 454 473 437H475L494 500H536V0H493L473 65H471Q461 47 442.5 32.5Q424 18 401.5 7Q379 -4 353.5 -9.5Q328 -15 302 -15ZM306 40Q351 40 384 57Q417 74 438 102.5Q459 131 469 168.5Q479 206 479 247Q479 289 469.5 327.5Q460 366 439 395.5Q418 425 385.5 442.5Q353 460 306 460Q258 460 223.5 443.5Q189 427 167.5 398.5Q146 370 135.5 331Q125 292 125 247Q125 204 136 166.5Q147 129 169.5 101Q192 73 226 56.5Q260 40 306 40ZM301 529Q321 529 333 543.5Q345 558 345 578Q345 598 333 611.5Q321 625 301 625Q282 625 269.5 611.5Q257 598 257 578Q257 558 269.5 543.5Q282 529 301 529Z" glyph-name="aring" horiz-adv-x="625" unicode="&#229;" /><glyph d="M91 401H27L165 650H228L371 401H305L195 592Z" glyph-name="asciicircum" horiz-adv-x="398" unicode="^" /><glyph d="M82 244V304Q108 320 133.5 327.5Q159 335 180 335Q202 335 222.5 330Q243 325 263 318.5Q283 312 303 307Q323 302 345 302Q390 302 441 336V276Q417 260 393 253Q369 246 346 246Q324 246 304 250.5Q284 255 263.5 261Q243 267 223 271.5Q203 276 181 276Q159 276 133.5 267.5Q108 259 82 244Z" glyph-name="asciitilde" horiz-adv-x="523" unicode="~" /><glyph d="M206 541 161 461 110 496 176 565 83 587 104 642 186 601 176 695H234L225 601L309 642L330 587L237 565L304 496L253 461Z" glyph-name="asterisk" horiz-adv-x="412" unicode="*" /><glyph d="M427 -71Q347 -71 280 -48Q213 -25 165 18.5Q117 62 90 124Q63 186 63 263Q63 334 88.5 396.5Q114 459 160 505.5Q206 552 269.5 579.5Q333 607 409 607Q480 607 538.5 582.5Q597 558 638.5 515.5Q680 473 703 416Q726 359 726 294Q726 206 686.5 155Q647 104 578 104Q542 104 518.5 121.5Q495 139 487 163Q469 128 431.5 108.5Q394 89 355 89Q324 89 299 101Q274 113 256.5 133Q239 153 230 179.5Q221 206 221 235Q221 279 235.5 318Q250 357 275 386Q300 415 334 432.5Q368 450 408 450Q445 450 467 435.5Q489 421 502 401H504L523 440H561L529 236Q521 196 533.5 172Q546 148 583 148Q609 148 627.5 160Q646 172 657.5 191.5Q669 211 674 236Q679 261 679 287Q679 358 655 409.5Q631 461 592.5 494.5Q554 528 506 544Q458 560 409 560Q348 560 294 537Q240 514 200 474.5Q160 435 137 381.5Q114 328 114 267Q114 197 138 143Q162 89 204 52Q246 15 303 -4Q360 -23 425 -23Q478 -23 518 -12.5Q558 -2 596 18H609V-26Q573 -47 531 -59Q489 -71 427 -71ZM363 134Q392 134 415 149Q438 164 454 188Q470 212 478 241.5Q486 271 486 300Q486 343 467 374Q448 405 399 405Q372 405 349 391.5Q326 378 309.5 355Q293 332 283.5 301.5Q274 271 274 238Q274 194 295.5 164Q317 134 363 134Z" glyph-name="at" horiz-adv-x="789" unicode="@" /><glyph d="M302 -15Q257 -15 214.5 0Q172 15 138 46.5Q104 78 83.5 125.5Q63 173 63 239V258Q63 314 78.5 361Q94 408 124.5 442.5Q155 477 201 496Q247 515 307 515Q331 515 355.5 509Q380 503 402 492.5Q424 482 442.5 468Q461 454 473 437H475L494 500H536V0H493L473 65H471Q461 47 442.5 32.5Q424 18 401.5 7Q379 -4 353.5 -9.5Q328 -15 302 -15ZM306 40Q351 40 384 57Q417 74 438 102.5Q459 131 469 168.5Q479 206 479 247Q479 289 469.5 327.5Q460 366 439 395.5Q418 425 385.5 442.5Q353 460 306 460Q258 460 223.5 443.5Q189 427 167.5 398.5Q146 370 135.5 331Q125 292 125 247Q125 204 136 166.5Q147 129 169.5 101Q192 73 226 56.5Q260 40 306 40ZM190 565H143Q143 583 148.5 600.5Q154 618 165 632.5Q176 647 193 656Q210 665 233 665Q256 665 272 657.5Q288 650 302 641.5Q316 633 328.5 625.5Q341 618 356 618Q373 618 386.5 628Q400 638 400 670H447Q447 652 441.5 634.5Q436 617 425 602.5Q414 588 397 579Q380 570 357 570Q335 570 318.5 577.5Q302 585 288 593.5Q274 602 261.5 609.5Q249 617 234 617Q217 617 203.5 607Q190 597 190 565Z" glyph-name="atilde" horiz-adv-x="625" unicode="&#227;" /><glyph d="M318 -15Q294 -15 269.5 -9Q245 -3 223 7.5Q201 18 182.5 32.5Q164 47 152 64H150L131 0H89V700H149V432H151Q178 474 225 494.5Q272 515 323 515Q368 515 410.5 500Q453 485 487 453.5Q521 422 541.5 374.5Q562 327 562 261V242Q562 186 546.5 139Q531 92 500.5 57.5Q470 23 424 4Q378 -15 318 -15ZM319 40Q367 40 401.5 56.5Q436 73 457.5 101.5Q479 130 489.5 169Q500 208 500 253Q500 296 489 333.5Q478 371 455.5 399Q433 427 399 443Q365 459 319 459Q274 459 241 442Q208 425 187 396.5Q166 368 156 331Q146 294 146 253Q146 211 155.5 172.5Q165 134 186 104.5Q207 75 240 57.5Q273 40 319 40Z" glyph-name="b" horiz-adv-x="625" unicode="b" /><glyph d="M418 -124 82 682V696H137L473 -110V-124Z" glyph-name="backslash" horiz-adv-x="531" unicode="\" /><glyph d="M285 -126H229V774H285Z" glyph-name="bar" horiz-adv-x="514" unicode="|" /><glyph d="M292 -124H252Q149 -124 149 -20V139Q149 166 146.5 188Q144 210 136.5 227Q129 244 114.5 257.5Q100 271 77 281V292Q100 303 114.5 316Q129 329 136.5 346.5Q144 364 146.5 386Q149 408 149 435V592Q149 696 252 696H292V642H241Q217 642 212 620.5Q207 599 207 572V420Q207 387 203.5 365Q200 343 192.5 328Q185 313 175.5 303.5Q166 294 154 287V286Q166 279 175.5 270Q185 261 192.5 246Q200 231 203.5 209Q207 187 207 154V0Q207 -27 212 -48.5Q217 -70 241 -70H292Z" glyph-name="braceleft" horiz-adv-x="390" unicode="{" /><glyph d="M98 -124V-70H149Q173 -70 178 -48.5Q183 -27 183 0V154Q183 187 186.5 209Q190 231 197.5 246Q205 261 214.5 270Q224 279 236 286V287Q224 294 214.5 303.5Q205 313 197.5 328Q190 343 186.5 365Q183 387 183 420V572Q183 599 178 620.5Q173 642 149 642H98V696H138Q241 696 241 592V435Q241 408 243.5 386Q246 364 253.5 346.5Q261 329 275.5 316Q290 303 313 292V281Q290 271 275.5 257.5Q261 244 253.5 227Q246 210 243.5 188Q241 166 241 139V-20Q241 -124 138 -124Z" glyph-name="braceright" horiz-adv-x="390" unicode="}" /><glyph d="M242 -124H98V696H241V642H156V-70H242Z" glyph-name="bracketleft" horiz-adv-x="325" unicode="[" /><glyph d="M83 696H227V-124H84V-70H169V642H83Z" glyph-name="bracketright" horiz-adv-x="325" unicode="]" /><glyph d="M249 559Q191 559 150.5 586.5Q110 614 103 663H163Q171 632 195.5 618Q220 604 250 604Q280 604 304.5 618Q329 632 337 663H397Q390 614 348.5 586.5Q307 559 249 559Z" glyph-name="breve" horiz-adv-x="500" unicode="&#728;" /><glyph d="M238 195Q196 195 167 222Q138 249 138 291V295Q138 340 167 364.5Q196 389 238 389Q280 389 309 364.5Q338 340 338 295V291Q338 249 309 222Q280 195 238 195Z" glyph-name="bullet" horiz-adv-x="476" unicode="&#8226;" /><glyph d="M297 -15Q243 -15 200 3Q157 21 126.5 55Q96 89 79.5 137Q63 185 63 245V256Q63 315 79.5 363Q96 411 126 444.5Q156 478 199 496.5Q242 515 296 515Q339 515 376 503.5Q413 492 441 470.5Q469 449 487 417Q505 385 509 344V338H448Q438 398 399 428.5Q360 459 297 459Q254 459 222 443.5Q190 428 168.5 400.5Q147 373 136 334.5Q125 296 125 251Q125 206 136 167.5Q147 129 168.5 101Q190 73 222 57Q254 41 296 41Q364 41 402 73Q440 105 448 165H509V159Q504 118 486 86Q468 54 440 31.5Q412 9 375.5 -3Q339 -15 297 -15Z" glyph-name="c" horiz-adv-x="556" unicode="c" /><glyph d="M394 657 252 553 105 657 126 692 252 622 371 692Z" glyph-name="caron" horiz-adv-x="500" unicode="&#711;" /><glyph d="M249 -180Q209 -180 178 -169V-123H188Q205 -128 221.5 -130Q238 -132 247 -132Q300 -132 300 -103Q300 -86 286.5 -79Q273 -72 252 -74L249 -68L269 -14Q231 -10 200 3Q157 21 126.5 55Q96 89 79.5 137Q63 185 63 245V256Q63 315 79.5 363Q96 411 126 444.5Q156 478 199 496.5Q242 515 296 515Q339 515 376 503.5Q413 492 441 470.5Q469 449 487 417Q505 385 509 344V338H448Q438 398 399 428.5Q360 459 297 459Q254 459 222 443.5Q190 428 168.5 400.5Q147 373 136 334.5Q125 296 125 251Q125 206 136 167.5Q147 129 168.5 101Q190 73 222 57Q254 41 296 41Q364 41 402 73Q440 105 448 165H509V159Q504 118 486 86Q468 54 440 31.5Q412 9 375 -3Q349 -12 319 -14L309 -44Q326 -49 343 -63.5Q360 -78 360 -102Q360 -123 350.5 -137.5Q341 -152 325.5 -161.5Q310 -171 290 -175.5Q270 -180 249 -180Z" glyph-name="ccedilla" horiz-adv-x="556" unicode="&#231;" /><glyph d="M195 -180Q155 -180 124 -169V-123H134Q151 -128 167.5 -130Q184 -132 193 -132Q246 -132 246 -103Q246 -86 232.5 -79Q219 -72 198 -74L195 -68L220 0H270L255 -44Q272 -49 289 -63.5Q306 -78 306 -102Q306 -123 296.5 -137.5Q287 -152 271.5 -161.5Q256 -171 236 -175.5Q216 -180 195 -180Z" glyph-name="cedilla" horiz-adv-x="500" unicode="&#184;" /><glyph d="M260 456Q192 442 158.5 386Q125 330 125 249Q125 168 159 112.5Q193 57 260 44ZM321 -126H260V-13Q168 -1 115.5 67Q63 135 63 245V256Q63 364 115.5 432.5Q168 501 260 513V635H321V514Q398 508 449.5 464Q501 420 509 344V338H448Q437 394 406.5 423.5Q376 453 321 458V42Q377 48 408.5 79.5Q440 111 448 165H509V159Q505 121 488.5 90.5Q472 60 447.5 38Q423 16 390.5 2.5Q358 -11 321 -14Z" glyph-name="cent" horiz-adv-x="556" unicode="&#162;" /><glyph d="M247 623 128 553 105 588 247 692 394 588 373 553Z" glyph-name="circumflex" horiz-adv-x="500" unicode="&#710;" /><glyph d="M148 368Q128 368 113.5 381.5Q99 395 99 415V417Q99 439 113.5 451Q128 463 148 463Q168 463 182.5 451Q197 439 197 417V415Q197 395 182.5 381.5Q168 368 148 368ZM148 -6Q128 -6 113.5 7.5Q99 21 99 41V43Q99 65 113.5 77Q128 89 148 89Q168 89 182.5 77Q197 65 197 43V41Q197 21 182.5 7.5Q168 -6 148 -6Z" glyph-name="colon" horiz-adv-x="296" unicode=":" /><glyph d="M127 -127H84L131 89H200V78Z" glyph-name="comma" horiz-adv-x="252" unicode="," /><glyph d="M392 -12Q320 -12 259.5 14.5Q199 41 155.5 87Q112 133 87.5 195Q63 257 63 327Q63 397 87.5 459Q112 521 155.5 567Q199 613 259.5 639.5Q320 666 392 666Q464 666 525 639.5Q586 613 629.5 567Q673 521 697.5 459Q722 397 722 327Q722 257 697.5 195Q673 133 629.5 87Q586 41 525 14.5Q464 -12 392 -12ZM392 34Q453 34 504.5 57Q556 80 593 120Q630 160 651 213.5Q672 267 672 327Q672 387 651 440.5Q630 494 593 534Q556 574 504.5 597Q453 620 392 620Q331 620 279.5 597Q228 574 191 534Q154 494 133.5 440.5Q113 387 113 327Q113 267 133.5 213.5Q154 160 191 120Q228 80 279.5 57Q331 34 392 34ZM395 140Q360 140 329 153.5Q298 167 275 191Q252 215 238.5 248Q225 281 225 321V334Q225 374 238.5 407Q252 440 275 464Q298 488 329 501.5Q360 515 395 515Q428 515 456 504Q484 493 505.5 474Q527 455 541 429Q555 403 558 373V368H509Q504 407 476.5 437.5Q449 468 399 468Q369 468 346 457Q323 446 307 426.5Q291 407 283 382Q275 357 275 328Q275 300 283 274Q291 248 306.5 229Q322 210 345.5 198.5Q369 187 399 187Q449 187 476.5 217.5Q504 248 509 287H558V281Q554 251 540.5 225Q527 199 505.5 180.5Q484 162 456 151Q428 140 395 140Z" glyph-name="copyright" horiz-adv-x="785" unicode="&#169;" /><glyph d="M299 -15Q256 -15 213.5 0Q171 15 137.5 46.5Q104 78 83.5 126Q63 174 63 240V259Q63 315 78.5 362Q94 409 124.5 443Q155 477 201 496Q247 515 307 515Q359 515 403.5 493.5Q448 472 474 435H476V700H536V0H493L473 65H471Q461 47 442.5 32.5Q424 18 401 7Q378 -4 352 -9.5Q326 -15 299 -15ZM306 40Q351 40 384 57Q417 74 438 102.5Q459 131 469 168.5Q479 206 479 247Q479 289 469.5 327Q460 365 439 394.5Q418 424 385.5 441.5Q353 459 306 459Q258 459 223.5 443Q189 427 167.5 398.5Q146 370 135.5 331.5Q125 293 125 248Q125 205 136 167.5Q147 130 169.5 101.5Q192 73 226 56.5Q260 40 306 40Z" glyph-name="d" horiz-adv-x="625" unicode="d" /><glyph d="M248 -78H196V392H73V439H196V700H248V439H372V392H248Z" glyph-name="dagger" horiz-adv-x="446" unicode="&#8224;" /><glyph d="M248 -78H196V207H73V253H196V392H73V439H196V700H248V439H372V392H248V253H372V207H248Z" glyph-name="daggerdbl" horiz-adv-x="446" unicode="&#8225;" /><glyph d="M227 349Q201 349 174 358.5Q147 368 124.5 387Q102 406 88 434Q74 462 74 498V509Q74 545 88 573Q102 601 124.5 619.5Q147 638 174 647.5Q201 657 227 657Q253 657 280 647.5Q307 638 329.5 619.5Q352 601 366.5 573Q381 545 381 509V498Q381 462 366.5 434Q352 406 329.5 387Q307 368 280 358.5Q253 349 227 349ZM227 403Q242 403 258 409Q274 415 286.5 427Q299 439 307.5 457Q316 475 316 498V509Q316 533 307.5 550.5Q299 568 286.5 579.5Q274 591 258 597Q242 603 227 603Q212 603 196.5 597Q181 591 168 579.5Q155 568 147 550.5Q139 533 139 509V498Q139 475 147 457Q155 439 168 427Q181 415 196.5 409Q212 403 227 403Z" glyph-name="degree" horiz-adv-x="455" unicode="&#176;" /><glyph d="M332 568Q312 568 297.5 581.5Q283 595 283 615V617Q283 639 297.5 651Q312 663 332 663Q352 663 366.5 651Q381 639 381 617V615Q381 595 366.5 581.5Q352 568 332 568ZM168 568Q148 568 133.5 581.5Q119 595 119 615V617Q119 639 133.5 651Q148 663 168 663Q188 663 202.5 651Q217 639 217 617V615Q217 595 202.5 581.5Q188 568 168 568Z" glyph-name="dieresis" horiz-adv-x="500" unicode="&#168;" /><glyph d="M543 301H52V356H543ZM297 140Q277 140 263 153.5Q249 167 249 187Q249 207 262 220Q275 233 297 233Q317 233 331.5 220Q346 207 346 187Q346 167 331.5 153.5Q317 140 297 140ZM297 425Q275 425 261 438.5Q247 452 247 471Q247 492 261 504.5Q275 517 297 517Q317 517 331 504Q345 491 345 471Q345 451 331 438Q317 425 297 425Z" glyph-name="divide" horiz-adv-x="595" unicode="&#247;" /><glyph d="M306 -113H245V8Q178 16 133 56Q77 106 69 202V207H131Q132 177 142 150.5Q152 124 171 103.5Q190 83 216 71Q230 65 245 61V314Q216 322 187 332Q151 344 122 370Q101 390 89 415.5Q77 441 77 476V485Q77 525 93 555Q109 585 135.5 604.5Q162 624 195 634Q220 641 245 643V723H306V641Q328 637 346 630Q382 617 405.5 594Q429 571 441 540Q453 509 453 474V468H396Q395 525 361 557Q340 578 306 586V360Q337 352 368 341Q406 327 435 298Q455 278 466 251Q477 224 477 187V178Q477 132 459 99.5Q441 67 412.5 46Q384 25 349 15Q327 9 306 7ZM329 65Q355 72 374.5 86.5Q394 101 406 124Q418 147 418 180Q418 228 391 254Q366 279 331 290Q319 294 306 298V60Q318 62 329 65ZM206 581Q182 572 167 557.5Q152 543 145 524.5Q138 506 138 486Q138 441 165 414Q186 393 220 383Q232 379 245 375V589Q223 587 206 581Z" glyph-name="dollar" horiz-adv-x="539" unicode="$" /><glyph d="M250 564Q230 564 215.5 577.5Q201 591 201 611V613Q201 635 215.5 647Q230 659 250 659Q270 659 284.5 647Q299 635 299 613V611Q299 591 284.5 577.5Q270 564 250 564Z" glyph-name="dotaccent" horiz-adv-x="500" unicode="&#729;" /><glyph d="M146 0H86V500H146Z" glyph-name="dotlessi" horiz-adv-x="232" unicode="&#305;" /><glyph d="M297 -15Q243 -15 200 3Q157 21 126.5 55Q96 89 79.5 137Q63 185 63 245V256Q63 315 79 363Q95 411 125 444.5Q155 478 198 496.5Q241 515 295 515Q356 515 398 492.5Q440 470 466.5 433Q493 396 504.5 349.5Q516 303 516 255V245Q516 241 515 233H125Q127 192 138.5 156.5Q150 121 171.5 95.5Q193 70 224.5 55.5Q256 41 296 41Q354 41 390.5 66Q427 91 442 135H503Q486 65 430.5 25Q375 -15 297 -15ZM454 287Q450 317 441.5 348Q433 379 415 403.5Q397 428 368.5 444Q340 460 296 460Q218 460 176 413.5Q134 367 126 287Z" glyph-name="e" horiz-adv-x="579" unicode="e" /><glyph d="M297 -15Q243 -15 200 3Q157 21 126.5 55Q96 89 79.5 137Q63 185 63 245V256Q63 315 79 363Q95 411 125 444.5Q155 478 198 496.5Q241 515 295 515Q356 515 398 492.5Q440 470 466.5 433Q493 396 504.5 349.5Q516 303 516 255V245Q516 241 515 233H125Q127 192 138.5 156.5Q150 121 171.5 95.5Q193 70 224.5 55.5Q256 41 296 41Q354 41 390.5 66Q427 91 442 135H503Q486 65 430.5 25Q375 -15 297 -15ZM454 287Q450 317 441.5 348Q433 379 415 403.5Q397 428 368.5 444Q340 460 296 460Q218 460 176 413.5Q134 367 126 287ZM402 663 192 549 170 583 366 720Z" glyph-name="eacute" horiz-adv-x="579" unicode="&#233;" /><glyph d="M297 -15Q243 -15 200 3Q157 21 126.5 55Q96 89 79.5 137Q63 185 63 245V256Q63 315 79 363Q95 411 125 444.5Q155 478 198 496.5Q241 515 295 515Q356 515 398 492.5Q440 470 466.5 433Q493 396 504.5 349.5Q516 303 516 255V245Q516 241 515 233H125Q127 192 138.5 156.5Q150 121 171.5 95.5Q193 70 224.5 55.5Q256 41 296 41Q354 41 390.5 66Q427 91 442 135H503Q486 65 430.5 25Q375 -15 297 -15ZM454 287Q450 317 441.5 348Q433 379 415 403.5Q397 428 368.5 444Q340 460 296 460Q218 460 176 413.5Q134 367 126 287ZM276 623 157 553 134 588 276 692 423 588 402 553Z" glyph-name="ecircumflex" horiz-adv-x="579" unicode="&#234;" /><glyph d="M297 -15Q243 -15 200 3Q157 21 126.5 55Q96 89 79.5 137Q63 185 63 245V256Q63 315 79 363Q95 411 125 444.5Q155 478 198 496.5Q241 515 295 515Q356 515 398 492.5Q440 470 466.5 433Q493 396 504.5 349.5Q516 303 516 255V245Q516 241 515 233H125Q127 192 138.5 156.5Q150 121 171.5 95.5Q193 70 224.5 55.5Q256 41 296 41Q354 41 390.5 66Q427 91 442 135H503Q486 65 430.5 25Q375 -15 297 -15ZM454 287Q450 317 441.5 348Q433 379 415 403.5Q397 428 368.5 444Q340 460 296 460Q218 460 176 413.5Q134 367 126 287ZM362 568Q342 568 327.5 581.5Q313 595 313 615V617Q313 639 327.5 651Q342 663 362 663Q382 663 396.5 651Q411 639 411 617V615Q411 595 396.5 581.5Q382 568 362 568ZM198 568Q178 568 163.5 581.5Q149 595 149 615V617Q149 639 163.5 651Q178 663 198 663Q218 663 232.5 651Q247 639 247 617V615Q247 595 232.5 581.5Q218 568 198 568Z" glyph-name="edieresis" horiz-adv-x="579" unicode="&#235;" /><glyph d="M297 -15Q243 -15 200 3Q157 21 126.5 55Q96 89 79.5 137Q63 185 63 245V256Q63 315 79 363Q95 411 125 444.5Q155 478 198 496.5Q241 515 295 515Q356 515 398 492.5Q440 470 466.5 433Q493 396 504.5 349.5Q516 303 516 255V245Q516 241 515 233H125Q127 192 138.5 156.5Q150 121 171.5 95.5Q193 70 224.5 55.5Q256 41 296 41Q354 41 390.5 66Q427 91 442 135H503Q486 65 430.5 25Q375 -15 297 -15ZM454 287Q450 317 441.5 348Q433 379 415 403.5Q397 428 368.5 444Q340 460 296 460Q218 460 176 413.5Q134 367 126 287ZM406 583 384 549 174 663 210 720Z" glyph-name="egrave" horiz-adv-x="579" unicode="&#232;" /><glyph d="M282 -16Q234 -16 193.5 -4Q153 8 124.5 31Q96 54 80 88Q64 122 64 166V173Q64 198 73 223Q82 248 97 269.5Q112 291 132 308Q152 325 174 334V336Q157 347 141.5 363Q126 379 114 398Q102 417 94.5 437.5Q87 458 87 478V486Q87 530 102.5 563.5Q118 597 144.5 619.5Q171 642 206.5 653.5Q242 665 282 665Q322 665 357.5 653.5Q393 642 419.5 619.5Q446 597 461.5 563.5Q477 530 477 486V478Q477 458 469.5 437.5Q462 417 450 398Q438 379 422.5 363Q407 347 390 336V334Q412 325 432 308Q452 291 467 269.5Q482 248 491 223Q500 198 500 173V166Q500 122 484 88Q468 54 439.5 31Q411 8 370.5 -4Q330 -16 282 -16ZM282 41Q351 41 393 73Q435 105 435 165Q435 228 392 263Q349 298 282 298Q215 298 172 263Q129 228 129 165Q129 105 171 73Q213 41 282 41ZM282 361Q313 361 337 371.5Q361 382 378 399.5Q395 417 404 439Q413 461 413 483Q413 540 378.5 575Q344 610 282 610Q220 610 185.5 575Q151 540 151 483Q151 461 160 439Q169 417 186 399.5Q203 382 227 371.5Q251 361 282 361Z" glyph-name="eight" horiz-adv-x="564" unicode="8" /><glyph d="M148 -6Q128 -6 113.5 7.5Q99 21 99 41V43Q99 65 113.5 77Q128 89 148 89Q168 89 182.5 77Q197 65 197 43V41Q197 21 182.5 7.5Q168 -6 148 -6ZM444 -6Q424 -6 409.5 7.5Q395 21 395 41V43Q395 65 409.5 77Q424 89 444 89Q464 89 478.5 77Q493 65 493 43V41Q493 21 478.5 7.5Q464 -6 444 -6ZM741 -6Q721 -6 706.5 7.5Q692 21 692 41V43Q692 65 706.5 77Q721 89 741 89Q761 89 775.5 77Q790 65 790 43V41Q790 21 775.5 7.5Q761 -6 741 -6Z" glyph-name="ellipsis" horiz-adv-x="889" unicode="&#8230;" /><glyph d="M607 265H82V323H607Z" glyph-name="emdash" horiz-adv-x="689" unicode="&#8212;" /><glyph d="M437 265H82V323H437Z" glyph-name="endash" horiz-adv-x="519" unicode="&#8211;" /><glyph d="M564 222H72V278H564ZM564 376H72V431H564Z" glyph-name="equal" horiz-adv-x="636" unicode="=" /><glyph d="M172 186H123L113 637V650H182V637ZM148 -6Q128 -6 113.5 7.5Q99 21 99 41V43Q99 65 113.5 77Q128 89 148 89Q168 89 182.5 77Q197 65 197 43V41Q197 21 182.5 7.5Q168 -6 148 -6Z" glyph-name="exclam" horiz-adv-x="296" unicode="!" /><glyph d="M124 323H173L183 -128V-141H114V-128ZM148 515Q168 515 182.5 501.5Q197 488 197 468V466Q197 444 182.5 432Q168 420 148 420Q128 420 113.5 432Q99 444 99 466V468Q99 488 113.5 501.5Q128 515 148 515Z" glyph-name="exclamdown" horiz-adv-x="296" unicode="&#161;" /><glyph d="M189 0H129V446H52V481L129 499V549Q129 633 164 674Q199 715 277 715Q296 715 318.5 712Q341 709 362 701V649H347Q333 657 311.5 658.5Q290 660 276 660Q229 660 209 634Q189 608 189 558V500H358V446H189Z" glyph-name="f" horiz-adv-x="406" unicode="f" /><glyph d="M530 0H470V500H530ZM500 621Q480 621 465.5 634.5Q451 648 451 668V670Q451 692 465.5 704Q480 716 500 716Q520 716 534.5 704Q549 692 549 670V668Q549 648 534.5 634.5Q520 621 500 621ZM189 0H129V446H52V481L129 499V546Q129 715 277 715Q296 715 313.5 712Q331 709 352 701V649H337Q323 657 306.5 658.5Q290 660 276 660Q229 660 209 634Q189 608 189 558V500H348V446H189Z" glyph-name="fi" horiz-adv-x="616" unicode="&#64257;" /><glyph d="M251 -15Q206 -15 154 -5Q102 5 60 33V100H75Q88 86 108 75.5Q128 65 151 57.5Q174 50 198.5 46.5Q223 43 245 43Q283 43 313.5 54Q344 65 365 83.5Q386 102 397 127.5Q408 153 408 181Q408 216 393.5 242Q379 268 354.5 285.5Q330 303 298 312Q266 321 231 321Q202 321 169.5 317.5Q137 314 108 304L95 317L131 650H445V594H186L164 378Q176 380 194 381Q212 382 225 382Q269 382 313.5 371Q358 360 393 336.5Q428 313 450 276Q472 239 472 188V176Q472 133 453.5 97.5Q435 62 404 37Q373 12 333 -1.5Q293 -15 251 -15Z" glyph-name="five" horiz-adv-x="531" unicode="5" /><glyph d="M189 0H129V446H52V481L129 499V546Q129 715 277 715Q296 715 313.5 712Q331 709 352 701V649H337Q323 657 306.5 658.5Q290 660 276 660Q229 660 209 634Q189 608 189 558V500H348V446H189ZM553 -6Q508 -6 486.5 18.5Q465 43 465 86V700H525V97Q525 67 540 56Q555 45 585 50H594V-3Q587 -5 575 -5.5Q563 -6 553 -6Z" glyph-name="fl" horiz-adv-x="640" unicode="&#64258;" /><glyph d="M115 -90H53L99 347H25L30 401H105L115 497Q123 582 162.5 623.5Q202 665 270 665Q290 665 314.5 660.5Q339 656 358 646L352 595H335Q321 603 304.5 605.5Q288 608 274 608Q224 608 204.5 583.5Q185 559 180 509L169 401H329L323 347H161Z" glyph-name="florin" horiz-adv-x="384" unicode="&#402;" /><glyph d="M423 0H361V158H31L21 213L356 650H423V216H521V158H423ZM98 218V216H361V561H359Z" glyph-name="four" horiz-adv-x="551" unicode="4" /><glyph d="M-83 0H-135V14L283 650H338V637Q232 476 127.5 318.5Q23 161 -83 0Z" glyph-name="fraction" horiz-adv-x="203" unicode="&#8260;" /><glyph d="M305 -204Q200 -204 142.5 -153Q85 -102 80 -18V-10H143Q145 -38 154.5 -62.5Q164 -87 183.5 -105.5Q203 -124 231.5 -134.5Q260 -145 299 -145Q344 -145 376.5 -133.5Q409 -122 430 -102Q451 -82 461 -54Q471 -26 471 6V89H469Q459 71 441 56.5Q423 42 400.5 31.5Q378 21 353 15.5Q328 10 302 10Q257 10 214.5 22.5Q172 35 138 63.5Q104 92 83.5 137Q63 182 63 246V265Q63 319 78.5 365Q94 411 125 444.5Q156 478 201.5 496.5Q247 515 307 515Q355 515 402 493.5Q449 472 473 438H475L494 500H536V2Q536 -47 517 -85Q498 -123 466 -149.5Q434 -176 392.5 -190Q351 -204 305 -204ZM306 65Q348 65 380 80Q412 95 434 120.5Q456 146 467.5 180Q479 214 479 253Q479 295 469.5 332.5Q460 370 439 398.5Q418 427 385.5 443.5Q353 460 306 460Q258 460 223.5 444.5Q189 429 167.5 401.5Q146 374 135.5 336Q125 298 125 254Q125 212 136 177.5Q147 143 169.5 118Q192 93 226 79Q260 65 306 65Z" glyph-name="g" horiz-adv-x="625" unicode="g" /><glyph d="M338 -13Q319 -13 292.5 -9.5Q266 -6 241 2V59H257Q277 50 294.5 46Q312 42 339 42Q416 42 449.5 80.5Q483 119 483 187Q483 250 445.5 291.5Q408 333 324 333H262V388H298Q339 388 364 399.5Q389 411 402.5 430Q416 449 420.5 473.5Q425 498 425 523Q425 585 391.5 621.5Q358 658 287 658Q245 658 218 646.5Q191 635 175.5 613.5Q160 592 154.5 562Q149 532 149 496V0H89V516Q89 558 100 594Q111 630 135 657Q159 684 196.5 699.5Q234 715 287 715Q331 715 367.5 702.5Q404 690 431 666Q458 642 473 607.5Q488 573 488 529V516Q488 478 469.5 438.5Q451 399 420 373V372Q446 363 468.5 345Q491 327 508 303.5Q525 280 535 252.5Q545 225 545 195V185Q545 95 493 41Q441 -13 338 -13Z" glyph-name="germandbls" horiz-adv-x="604" unicode="&#223;" /><glyph d="M370 583 348 549 138 663 174 720Z" glyph-name="grave" horiz-adv-x="500" unicode="`" /><glyph d="M90 128 485 331V333L90 535V603L562 357V304L90 57Z" glyph-name="greater" horiz-adv-x="643" unicode="&gt;" /><glyph d="M93 231 454 405V407L94 579V649L543 430V377L93 158ZM91 43V100H547V43Z" glyph-name="greaterequal" horiz-adv-x="628" unicode="&#8805;" /><glyph d="M272 60H207L50 248V257L207 445H272V431L123 252L272 74ZM462 60H397L240 248V257L397 445H462V431L313 252L462 74Z" glyph-name="guillemotleft" horiz-adv-x="527" unicode="&#171;" /><glyph d="M65 60V74L214 252L65 431V445H130L287 257V248L130 60ZM255 60V74L404 252L255 431V445H320L477 257V248L320 60Z" glyph-name="guillemotright" horiz-adv-x="527" unicode="&#187;" /><glyph d="M272 60H207L50 248V257L207 445H272V431L123 252L272 74Z" glyph-name="guilsinglleft" horiz-adv-x="337" unicode="&#8249;" /><glyph d="M65 60V74L214 252L65 431V445H130L287 257V248L130 60Z" glyph-name="guilsinglright" horiz-adv-x="337" unicode="&#8250;" /><glyph d="M149 0H89V700H149V443H151Q177 477 218 496Q259 515 303 515Q394 515 441 468Q467 442 479 403.5Q491 365 491 314V0H431V317Q431 353 423.5 381Q416 409 397 428Q366 459 300 459Q264 459 235.5 448Q207 437 183 413Q165 395 157 368Q149 341 149 297Z" glyph-name="h" horiz-adv-x="570" unicode="h" /><glyph d="M293 656 126 548 105 582 249 715ZM465 658 299 548 280 582 423 715Z" glyph-name="hungarumlaut" horiz-adv-x="500" unicode="&#733;" /><glyph d="M337 265H82V323H337Z" glyph-name="hyphen" horiz-adv-x="419" unicode="-" /><glyph d="M146 0H86V500H146ZM116 621Q96 621 81.5 634.5Q67 648 67 668V670Q67 692 81.5 704Q96 716 116 716Q136 716 150.5 704Q165 692 165 670V668Q165 648 150.5 634.5Q136 621 116 621Z" glyph-name="i" horiz-adv-x="232" unicode="i" /><glyph d="M146 0H86V500H146ZM236 663 26 549 4 583 200 720Z" glyph-name="iacute" horiz-adv-x="232" unicode="&#237;" /><glyph d="M146 0H86V500H146ZM110 623 -9 553 -32 588 110 692 257 588 236 553Z" glyph-name="icircumflex" horiz-adv-x="232" unicode="&#238;" /><glyph d="M146 0H86V500H146ZM195 568Q175 568 160.5 581.5Q146 595 146 615V617Q146 639 160.5 651Q175 663 195 663Q215 663 229.5 651Q244 639 244 617V615Q244 595 229.5 581.5Q215 568 195 568ZM31 568Q11 568 -3.5 581.5Q-18 595 -18 615V617Q-18 639 -3.5 651Q11 663 31 663Q51 663 65.5 651Q80 639 80 617V615Q80 595 65.5 581.5Q51 568 31 568Z" glyph-name="idieresis" horiz-adv-x="232" unicode="&#239;" /><glyph d="M146 0H86V500H146ZM240 583 218 549 8 663 44 720Z" glyph-name="igrave" horiz-adv-x="232" unicode="&#236;" /><glyph d="M68 -174Q52 -174 37.5 -171Q23 -168 0 -159V-101Q20 -109 35 -112Q50 -115 65 -115Q114 -115 128 -92Q142 -69 142 -29V532Q142 611 174.5 648Q207 685 277 685Q292 685 313 681Q334 677 357 668V613Q336 621 315.5 624.5Q295 628 279 628Q238 628 219.5 607Q201 586 201 541V-14Q201 -94 171 -134Q141 -174 68 -174Z" glyph-name="integral" horiz-adv-x="372" unicode="&#8747;" /><glyph d="M63 -180H4V-160Q31 -141 50 -116.5Q69 -92 80 -65Q91 -38 96 -10.5Q101 17 101 42V500H161V45Q161 -28 135.5 -86.5Q110 -145 63 -180ZM131 621Q111 621 96.5 634.5Q82 648 82 668V670Q82 692 96.5 704Q111 716 131 716Q151 716 165.5 704Q180 692 180 670V668Q180 648 165.5 634.5Q151 621 131 621Z" glyph-name="j" horiz-adv-x="248" unicode="j" /><glyph d="M149 0H89V700H149V278L359 500H423V489L219 271L469 11V0H398L149 253Z" glyph-name="k" horiz-adv-x="477" unicode="k" /><glyph d="M172 -6Q127 -6 105.5 18.5Q84 43 84 86V700H144V97Q144 67 159 56Q174 45 204 50H213V-3Q206 -5 194 -5.5Q182 -6 172 -6Z" glyph-name="l" horiz-adv-x="259" unicode="l" /><glyph d="M553 128V57L81 304V357L553 603V535L158 333V331Z" glyph-name="less" horiz-adv-x="644" unicode="&lt;" /><glyph d="M535 231V158L85 377V430L534 649V579L174 407V405ZM537 43H81V100H537Z" glyph-name="lessequal" horiz-adv-x="628" unicode="&#8804;" /><glyph d="M469 278H406V503H44V560H469Z" glyph-name="logicalnot" horiz-adv-x="527" unicode="&#172;" /><glyph d="M149 0H89V500H132L149 443H151Q175 478 212 496.5Q249 515 289 515Q401 515 441 426H443Q469 468 509.5 491.5Q550 515 601 515Q773 515 773 318V0H713V319Q713 388 687 423.5Q661 459 598 459Q535 459 498 418Q461 377 461 304V0H401V316Q401 385 375 422Q349 459 286 459Q222 459 185.5 416Q149 373 149 297Z" glyph-name="m" horiz-adv-x="852" unicode="m" /><glyph d="M388 590H112V643H388Z" glyph-name="macron" horiz-adv-x="500" unicode="&#175;" /><glyph d="M147 -180H91V560H147V200Q147 170 155 141.5Q163 113 181.5 90.5Q200 68 230.5 54Q261 40 307 40Q347 40 377 53Q407 66 427 88.5Q447 111 457.5 141Q468 171 469 206V560H527V0H486L478 28Q474 42 469 56H467Q453 38 433 25Q413 12 391.5 3Q370 -6 348 -10.5Q326 -15 308 -15Q287 -15 263 -12Q239 -9 216.5 -3Q194 3 175.5 12Q157 21 147 32Z" glyph-name="mu" horiz-adv-x="603" unicode="&#181;" /><glyph d="M149 0H89V500H132L149 443H151Q177 477 218 496Q259 515 303 515Q394 515 441 468Q467 442 479 403.5Q491 365 491 314V0H431V317Q431 353 423.5 381Q416 409 397 428Q366 459 300 459Q264 459 235.5 448Q207 437 183 413Q165 395 157 368Q149 341 149 297Z" glyph-name="n" horiz-adv-x="570" unicode="n" /><glyph d="M274 665Q331 665 372.5 647Q414 629 442 599.5Q470 570 483.5 531.5Q497 493 497 452V433Q497 385 476 326Q455 267 417 210Q396 178 375 151Q354 124 331 99Q308 74 282 50Q256 26 225 0H150V13Q225 68 285.5 135.5Q346 203 388 271L387 272Q378 265 363.5 258.5Q349 252 333.5 247.5Q318 243 302.5 240.5Q287 238 275 238Q228 238 187.5 251Q147 264 117 290.5Q87 317 70 357Q53 397 53 450V461Q53 505 71 542.5Q89 580 119.5 607Q150 634 190 649.5Q230 665 274 665ZM274 607Q234 607 204 593.5Q174 580 154.5 558.5Q135 537 125.5 509.5Q116 482 116 453Q116 419 126 390Q136 361 156 340Q176 319 206.5 307Q237 295 278 295Q317 295 346.5 308Q376 321 396 342.5Q416 364 426 392.5Q436 421 436 452Q436 479 425.5 507Q415 535 394 557Q373 579 343 593Q313 607 274 607Z" glyph-name="nine" horiz-adv-x="560" unicode="9" /><glyph glyph-name="nonmarkingreturn" horiz-adv-x="250" unicode="" /><glyph d="M184 54H130V68L220 222H72V278H252L308 376H72V431H340L433 590H487V576L402 431H564V376H370L314 278H564V222H282Z" glyph-name="notequal" horiz-adv-x="636" unicode="&#8800;" /><glyph d="M149 0H89V500H132L149 443H151Q177 477 218 496Q259 515 303 515Q394 515 441 468Q467 442 479 403.5Q491 365 491 314V0H431V317Q431 353 423.5 381Q416 409 397 428Q366 459 300 459Q264 459 235.5 448Q207 437 183 413Q165 395 157 368Q149 341 149 297ZM195 565H148Q148 583 153.5 600.5Q159 618 170 632.5Q181 647 198 656Q215 665 238 665Q261 665 277 657.5Q293 650 307 641.5Q321 633 333.5 625.5Q346 618 361 618Q378 618 391.5 628Q405 638 405 670H452Q452 652 446.5 634.5Q441 617 430 602.5Q419 588 402 579Q385 570 362 570Q340 570 323.5 577.5Q307 585 293 593.5Q279 602 266.5 609.5Q254 617 239 617Q222 617 208.5 607Q195 597 195 565Z" glyph-name="ntilde" horiz-adv-x="570" unicode="&#241;" /><glyph d="M267 409 249 260H396L414 409ZM583 409H471L453 260H558V207H447L422 0H365V13L389 207H243L218 0H161V13L185 207H82V260H192L210 409H106V461H217L240 650H294V637L273 461H421L444 650H498V637L477 461H583Z" glyph-name="numbersign" horiz-adv-x="665" unicode="#" /><glyph d="M398 177Q351 251 291.5 342.5Q232 434 170 531H166V0H105V650H167Q171 643 202 596Q233 549 280.5 475.5Q328 402 388 309Q448 216 511 118H515V650H576V0H515L478 56Q446 104 398 177ZM790 347Q763 347 737.5 357Q712 367 692.5 386.5Q673 406 661 435Q649 464 649 501V511Q649 549 661 577.5Q673 606 692.5 625.5Q712 645 737.5 655Q763 665 790 665Q816 665 841.5 655Q867 645 887 625.5Q907 606 919 577.5Q931 549 931 511V501Q931 464 919 435Q907 406 887 386.5Q867 367 841.5 357Q816 347 790 347ZM789 397Q832 397 855 427.5Q878 458 878 506Q878 553 855 586Q832 619 789 619Q746 619 724 586Q702 553 702 506Q702 458 724 427.5Q746 397 789 397ZM517 -3Q516 -2 516 -1Z" glyph-name="numero" horiz-adv-x="991" unicode="&#8470;" /><glyph d="M303 -15Q252 -15 208 2.5Q164 20 132 53Q100 86 81.5 134.5Q63 183 63 244V258Q63 320 81.5 368Q100 416 132 448.5Q164 481 207.5 498Q251 515 301 515Q352 515 396 498Q440 481 472 448.5Q504 416 522.5 368Q541 320 541 258V244Q541 183 522.5 134.5Q504 86 472 53Q440 20 396.5 2.5Q353 -15 303 -15ZM302 41Q346 41 379 57Q412 73 434 101.5Q456 130 467.5 168.5Q479 207 479 251Q479 296 467.5 334Q456 372 434 399.5Q412 427 379 443Q346 459 302 459Q259 459 225.5 443Q192 427 170 399.5Q148 372 136.5 334Q125 296 125 251Q125 207 136.5 168.5Q148 130 170 101.5Q192 73 225.5 57Q259 41 302 41Z" glyph-name="o" horiz-adv-x="604" unicode="o" /><glyph d="M303 -15Q252 -15 208 2.5Q164 20 132 53Q100 86 81.5 134.5Q63 183 63 244V258Q63 320 81.5 368Q100 416 132 448.5Q164 481 207.5 498Q251 515 301 515Q352 515 396 498Q440 481 472 448.5Q504 416 522.5 368Q541 320 541 258V244Q541 183 522.5 134.5Q504 86 472 53Q440 20 396.5 2.5Q353 -15 303 -15ZM302 41Q346 41 379 57Q412 73 434 101.5Q456 130 467.5 168.5Q479 207 479 251Q479 296 467.5 334Q456 372 434 399.5Q412 427 379 443Q346 459 302 459Q259 459 225.5 443Q192 427 170 399.5Q148 372 136.5 334Q125 296 125 251Q125 207 136.5 168.5Q148 130 170 101.5Q192 73 225.5 57Q259 41 302 41ZM417 663 207 549 185 583 381 720Z" glyph-name="oacute" horiz-adv-x="604" unicode="&#243;" /><glyph d="M303 -15Q252 -15 208 2.5Q164 20 132 53Q100 86 81.5 134.5Q63 183 63 244V258Q63 320 81.5 368Q100 416 132 448.5Q164 481 207.5 498Q251 515 301 515Q352 515 396 498Q440 481 472 448.5Q504 416 522.5 368Q541 320 541 258V244Q541 183 522.5 134.5Q504 86 472 53Q440 20 396.5 2.5Q353 -15 303 -15ZM302 41Q346 41 379 57Q412 73 434 101.5Q456 130 467.5 168.5Q479 207 479 251Q479 296 467.5 334Q456 372 434 399.5Q412 427 379 443Q346 459 302 459Q259 459 225.5 443Q192 427 170 399.5Q148 372 136.5 334Q125 296 125 251Q125 207 136.5 168.5Q148 130 170 101.5Q192 73 225.5 57Q259 41 302 41ZM301 623 182 553 159 588 301 692 448 588 427 553Z" glyph-name="ocircumflex" horiz-adv-x="604" unicode="&#244;" /><glyph d="M303 -15Q252 -15 208 2.5Q164 20 132 53Q100 86 81.5 134.5Q63 183 63 244V258Q63 320 81.5 368Q100 416 132 448.5Q164 481 207.5 498Q251 515 301 515Q352 515 396 498Q440 481 472 448.5Q504 416 522.5 368Q541 320 541 258V244Q541 183 522.5 134.5Q504 86 472 53Q440 20 396.5 2.5Q353 -15 303 -15ZM302 41Q346 41 379 57Q412 73 434 101.5Q456 130 467.5 168.5Q479 207 479 251Q479 296 467.5 334Q456 372 434 399.5Q412 427 379 443Q346 459 302 459Q259 459 225.5 443Q192 427 170 399.5Q148 372 136.5 334Q125 296 125 251Q125 207 136.5 168.5Q148 130 170 101.5Q192 73 225.5 57Q259 41 302 41ZM385 568Q365 568 350.5 581.5Q336 595 336 615V617Q336 639 350.5 651Q365 663 385 663Q405 663 419.5 651Q434 639 434 617V615Q434 595 419.5 581.5Q405 568 385 568ZM221 568Q201 568 186.5 581.5Q172 595 172 615V617Q172 639 186.5 651Q201 663 221 663Q241 663 255.5 651Q270 639 270 617V615Q270 595 255.5 581.5Q241 568 221 568Z" glyph-name="odieresis" horiz-adv-x="604" unicode="&#246;" /><glyph d="M660 -15Q594 -15 547 15Q500 45 474 101Q445 44 395.5 14.5Q346 -15 285 -15Q238 -15 197.5 2.5Q157 20 127 53Q97 86 80 134.5Q63 183 63 244V258Q63 320 80 368Q97 416 126.5 448.5Q156 481 196.5 498Q237 515 283 515Q348 515 399 483.5Q450 452 478 392Q501 450 546 482.5Q591 515 658 515Q715 515 754.5 492.5Q794 470 818.5 433Q843 396 854 349.5Q865 303 865 255V245Q865 241 864 233H505V224Q508 185 519 151.5Q530 118 549 93.5Q568 69 595.5 55Q623 41 659 41Q712 41 745.5 66.5Q779 92 791 135H852Q836 65 784.5 25Q733 -15 660 -15ZM284 41Q323 41 352.5 57Q382 73 402.5 101.5Q423 130 433 168.5Q443 207 443 251Q443 296 433 334Q423 372 402.5 399.5Q382 427 352.5 443Q323 459 284 459Q245 459 215.5 443Q186 427 165.5 399.5Q145 372 135 334Q125 296 125 251Q125 207 135 168.5Q145 130 165.5 101.5Q186 73 215.5 57Q245 41 284 41ZM803 287Q802 318 794.5 349Q787 380 770.5 404.5Q754 429 727.5 444.5Q701 460 661 460Q590 460 552.5 415Q515 370 505 287Z" glyph-name="oe" horiz-adv-x="928" unicode="&#339;" /><glyph d="M259 -180Q233 -180 215.5 -173Q198 -166 187 -154.5Q176 -143 171.5 -129.5Q167 -116 167 -103Q167 -89 172 -73Q177 -57 187 -42.5Q197 -28 212 -16Q227 -4 247 2L307 0Q259 -22 242.5 -47.5Q226 -73 226 -93Q226 -111 238 -121.5Q250 -132 271 -132Q282 -132 294 -130Q306 -128 320 -123H329V-168Q315 -175 295 -177.5Q275 -180 259 -180Z" glyph-name="ogonek" horiz-adv-x="500" unicode="&#731;" /><glyph d="M303 -15Q252 -15 208 2.5Q164 20 132 53Q100 86 81.5 134.5Q63 183 63 244V258Q63 320 81.5 368Q100 416 132 448.5Q164 481 207.5 498Q251 515 301 515Q352 515 396 498Q440 481 472 448.5Q504 416 522.5 368Q541 320 541 258V244Q541 183 522.5 134.5Q504 86 472 53Q440 20 396.5 2.5Q353 -15 303 -15ZM302 41Q346 41 379 57Q412 73 434 101.5Q456 130 467.5 168.5Q479 207 479 251Q479 296 467.5 334Q456 372 434 399.5Q412 427 379 443Q346 459 302 459Q259 459 225.5 443Q192 427 170 399.5Q148 372 136.5 334Q125 296 125 251Q125 207 136.5 168.5Q148 130 170 101.5Q192 73 225.5 57Q259 41 302 41ZM421 583 399 549 189 663 225 720Z" glyph-name="ograve" horiz-adv-x="604" unicode="&#242;" /><glyph d="M185 0H123V524H24V562Q75 567 106.5 584.5Q138 602 149 654H185Z" glyph-name="one" horiz-adv-x="292" unicode="1" /><glyph d="M229 280Q193 280 163 293.5Q133 307 111 330Q89 353 77 384.5Q65 416 65 452V465Q65 503 77 535Q89 567 111 590.5Q133 614 163 627.5Q193 641 229 641Q266 641 293.5 626.5Q321 612 337 592H339L352 631H390V290H352L339 329H337Q321 309 293.5 294.5Q266 280 229 280ZM229 325Q258 325 279 336.5Q300 348 313.5 366.5Q327 385 333.5 409.5Q340 434 340 460Q340 486 333.5 510.5Q327 535 313.5 554Q300 573 279 584.5Q258 596 229 596Q201 596 179.5 585Q158 574 144.5 555Q131 536 124 511.5Q117 487 117 460Q117 433 124 408.5Q131 384 144.5 365.5Q158 347 179.5 336Q201 325 229 325Z" glyph-name="ordfeminine" horiz-adv-x="469" unicode="&#170;" /><glyph d="M228 283Q196 283 166.5 294.5Q137 306 114.5 328Q92 350 78.5 383Q65 416 65 458V469Q65 510 78.5 542Q92 574 114.5 596Q137 618 166.5 629.5Q196 641 228 641Q260 641 290 629.5Q320 618 343 596Q366 574 380 542Q394 510 394 469V458Q394 416 380 383Q366 350 343 328Q320 306 290 294.5Q260 283 228 283ZM229 330Q284 330 312 368Q340 406 340 463Q340 520 312 558Q284 596 229 596Q175 596 147 558Q119 520 119 463Q119 406 147 368Q175 330 229 330Z" glyph-name="ordmasculine" horiz-adv-x="459" unicode="&#186;" /><glyph d="M303 -15Q265 -15 231 -5L206 -65H151V-52L180 15Q153 31 132 53Q100 86 81.5 134.5Q63 183 63 244V258Q63 320 81.5 368Q100 416 132 448.5Q164 481 207.5 498Q251 515 301 515Q347 515 388 501L416 565H470V551L438 476Q456 464 472 448Q504 416 522.5 368Q541 320 541 258V244Q541 183 522.5 134.5Q504 86 472 53Q440 20 396.5 2.5Q353 -15 303 -15ZM302 459Q259 459 225.5 443Q192 427 170 399.5Q148 372 136.5 334Q125 296 125 251Q125 207 136.5 168.5Q148 130 170 101Q184 83 203 69L366 448Q337 459 302 459ZM302 41Q346 41 379 57Q412 73 434 101.5Q456 130 467.5 168.5Q479 207 479 251Q479 296 467.5 334Q456 372 434 399Q425 411 414 420L254 46Q276 41 302 41Z" glyph-name="oslash" horiz-adv-x="604" unicode="&#248;" /><glyph d="M303 -15Q252 -15 208 2.5Q164 20 132 53Q100 86 81.5 134.5Q63 183 63 244V258Q63 320 81.5 368Q100 416 132 448.5Q164 481 207.5 498Q251 515 301 515Q352 515 396 498Q440 481 472 448.5Q504 416 522.5 368Q541 320 541 258V244Q541 183 522.5 134.5Q504 86 472 53Q440 20 396.5 2.5Q353 -15 303 -15ZM302 41Q346 41 379 57Q412 73 434 101.5Q456 130 467.5 168.5Q479 207 479 251Q479 296 467.5 334Q456 372 434 399.5Q412 427 379 443Q346 459 302 459Q259 459 225.5 443Q192 427 170 399.5Q148 372 136.5 334Q125 296 125 251Q125 207 136.5 168.5Q148 130 170 101.5Q192 73 225.5 57Q259 41 302 41ZM198 565H151Q151 583 156.5 600.5Q162 618 173 632.5Q184 647 201 656Q218 665 241 665Q264 665 280 657.5Q296 650 310 641.5Q324 633 336.5 625.5Q349 618 364 618Q381 618 394.5 628Q408 638 408 670H455Q455 652 449.5 634.5Q444 617 433 602.5Q422 588 405 579Q388 570 365 570Q343 570 326.5 577.5Q310 585 296 593.5Q282 602 269.5 609.5Q257 617 242 617Q225 617 211.5 607Q198 597 198 565Z" glyph-name="otilde" horiz-adv-x="604" unicode="&#245;" /><glyph d="M149 -180H89V500H132L152 435H154Q165 453 183 468Q201 483 224 493.5Q247 504 273 509.5Q299 515 326 515Q370 515 412 500Q454 485 487.5 453.5Q521 422 541.5 374Q562 326 562 260V241Q562 185 546.5 138Q531 91 500 57Q469 23 423 4Q377 -15 317 -15Q265 -15 221 6.5Q177 28 151 65H149ZM319 41Q367 41 401.5 57Q436 73 457.5 101.5Q479 130 489.5 168.5Q500 207 500 252Q500 295 489 332.5Q478 370 455.5 398.5Q433 427 399 443.5Q365 460 319 460Q274 460 241 443Q208 426 187 397.5Q166 369 156 331.5Q146 294 146 253Q146 211 155.5 173Q165 135 186 105.5Q207 76 240 58.5Q273 41 319 41Z" glyph-name="p" horiz-adv-x="625" unicode="p" /><glyph d="M412 0H354V588H271V342H254Q223 342 193.5 352Q164 362 141.5 381Q119 400 105.5 427.5Q92 455 92 491V502Q92 538 104 565.5Q116 593 136 611.5Q156 630 182.5 640Q209 650 238 650H412Z" glyph-name="paragraph" horiz-adv-x="550" unicode="&#182;" /><glyph d="M228 -124H181Q125 -15 101 86Q77 187 77 285Q77 385 101 486Q125 587 181 696H227V684Q180 579 160 480.5Q140 382 140 285Q140 190 160.5 91.5Q181 -7 228 -112Z" glyph-name="parenleft" horiz-adv-x="296" unicode="(" /><glyph d="M68 696H115Q171 587 195 486Q219 385 219 287Q219 187 195 86Q171 -15 115 -124H69V-112Q116 -7 136 91.5Q156 190 156 287Q156 382 135.5 480.5Q115 579 68 684Z" glyph-name="parenright" horiz-adv-x="296" unicode=")" /><glyph d="M179 0H126V13L484 650H539V637ZM456 -6Q432 -6 409.5 3Q387 12 370 28.5Q353 45 342.5 69Q332 93 332 123V131Q332 161 342.5 185Q353 209 370 225.5Q387 242 410 251Q433 260 457 260Q481 260 503.5 251Q526 242 543 225.5Q560 209 570.5 185Q581 161 581 131V123Q581 93 570.5 69Q560 45 543 28.5Q526 12 503 3Q480 -6 456 -6ZM457 43Q491 43 509 67Q527 91 527 126Q527 161 509 186Q491 211 457 211Q422 211 404 186Q386 161 386 126Q386 91 404 67Q422 43 457 43ZM210 388Q186 388 163.5 397Q141 406 124 422.5Q107 439 96.5 463Q86 487 86 517V525Q86 555 96.5 579Q107 603 124 619.5Q141 636 164 645Q187 654 211 654Q235 654 257.5 645Q280 636 297 619.5Q314 603 324.5 579Q335 555 335 525V517Q335 487 324.5 463Q314 439 297 422.5Q280 406 257 397Q234 388 210 388ZM211 437Q245 437 263 461Q281 485 281 520Q281 555 263 580Q245 605 211 605Q176 605 158 580Q140 555 140 520Q140 485 158 461Q176 437 211 437Z" glyph-name="percent" horiz-adv-x="615" unicode="%" /><glyph d="M148 -6Q128 -6 113.5 7.5Q99 21 99 41V43Q99 65 113.5 77Q128 89 148 89Q168 89 182.5 77Q197 65 197 43V41Q197 21 182.5 7.5Q168 -6 148 -6Z" glyph-name="period" horiz-adv-x="296" unicode="." /><glyph d="M148 233Q128 233 113.5 246.5Q99 260 99 280V282Q99 304 113.5 316Q128 328 148 328Q168 328 182.5 316Q197 304 197 282V280Q197 260 182.5 246.5Q168 233 148 233Z" glyph-name="periodcentered" horiz-adv-x="296" unicode="&#183;" /><glyph d="M179 0H126V13L484 650H539V637ZM456 -6Q432 -6 409.5 3Q387 12 370 28.5Q353 45 342.5 69Q332 93 332 123V131Q332 161 342.5 185Q353 209 370 225.5Q387 242 410 251Q433 260 457 260Q481 260 503.5 251Q526 242 543 225.5Q560 209 570.5 185Q581 161 581 131V123Q581 93 570.5 69Q560 45 543 28.5Q526 12 503 3Q480 -6 456 -6ZM457 43Q491 43 509 67Q527 91 527 126Q527 161 509 186Q491 211 457 211Q422 211 404 186Q386 161 386 126Q386 91 404 67Q422 43 457 43ZM210 388Q186 388 163.5 397Q141 406 124 422.5Q107 439 96.5 463Q86 487 86 517V525Q86 555 96.5 579Q107 603 124 619.5Q141 636 164 645Q187 654 211 654Q235 654 257.5 645Q280 636 297 619.5Q314 603 324.5 579Q335 555 335 525V517Q335 487 324.5 463Q314 439 297 422.5Q280 406 257 397Q234 388 210 388ZM211 437Q245 437 263 461Q281 485 281 520Q281 555 263 580Q245 605 211 605Q176 605 158 580Q140 555 140 520Q140 485 158 461Q176 437 211 437ZM737 -6Q713 -6 690.5 3Q668 12 651 28.5Q634 45 623.5 69Q613 93 613 123V131Q613 161 623.5 185Q634 209 651 225.5Q668 242 691 251Q714 260 738 260Q762 260 784.5 251Q807 242 824 225.5Q841 209 851.5 185Q862 161 862 131V123Q862 93 851.5 69Q841 45 824 28.5Q807 12 784 3Q761 -6 737 -6ZM738 43Q772 43 790 67Q808 91 808 126Q808 161 790 186Q772 211 738 211Q703 211 685 186Q667 161 667 126Q667 91 685 67Q703 43 738 43Z" glyph-name="perthousand" horiz-adv-x="896" unicode="&#8240;" /><glyph d="M327 73H268V300H52V358H268V584H327V358H543V300H327Z" glyph-name="plus" horiz-adv-x="595" unicode="+" /><glyph d="M327 208H268V384H72V444H268V619H327V444H523V384H327ZM523 43H72V100H523Z" glyph-name="plusminus" horiz-adv-x="595" unicode="&#177;" /><glyph d="M390 -10Q320 -10 260.5 16.5Q201 43 157 89Q113 135 88 196.5Q63 258 63 328Q63 398 88 459.5Q113 521 157 566.5Q201 612 260.5 638.5Q320 665 390 665Q460 665 520 638.5Q580 612 624.5 566.5Q669 521 694 459.5Q719 398 719 328Q719 258 694 196.5Q669 135 624.5 89Q580 43 520 16.5Q460 -10 390 -10ZM390 33Q449 33 500.5 56.5Q552 80 589.5 120Q627 160 648.5 213.5Q670 267 670 328Q670 389 648.5 442.5Q627 496 589.5 536Q552 576 500.5 599Q449 622 390 622Q331 622 280.5 599Q230 576 192.5 536Q155 496 133.5 442.5Q112 389 112 328Q112 267 133.5 213.5Q155 160 192.5 120Q230 80 280.5 56.5Q331 33 390 33ZM336 145H285V516H424Q449 516 471.5 508.5Q494 501 511 486Q528 471 538 450Q548 429 548 402V393Q547 369 536.5 348Q526 327 509.5 311.5Q493 296 471 287.5Q449 279 424 279H336ZM336 465V329H425Q463 329 480 351Q497 373 497 398Q497 408 493.5 420Q490 432 482 442Q474 452 462 458.5Q450 465 432 465Z" glyph-name="published" horiz-adv-x="782" unicode="&#8471;" /><glyph d="M536 -180H476V68H474Q447 26 400 5.5Q353 -15 302 -15Q257 -15 214.5 0Q172 15 138 46.5Q104 78 83.5 125.5Q63 173 63 239V258Q63 314 78.5 361Q94 408 124.5 442.5Q155 477 201 496Q247 515 307 515Q331 515 355.5 509Q380 503 402 492.5Q424 482 442.5 467.5Q461 453 473 436H475L494 500H536ZM306 41Q351 41 384 58Q417 75 438 103.5Q459 132 469 169Q479 206 479 247Q479 289 469.5 327.5Q460 366 439 395.5Q418 425 385.5 442.5Q353 460 306 460Q258 460 223.5 443.5Q189 427 167.5 398.5Q146 370 135.5 331Q125 292 125 247Q125 204 136 166.5Q147 129 169.5 101Q192 73 226 57Q260 41 306 41Z" glyph-name="q" horiz-adv-x="625" unicode="q" /><glyph d="M263 190H211L206 367L212 373Q239 376 264.5 384Q290 392 309 406.5Q328 421 339.5 443.5Q351 466 351 498Q351 549 321 579Q291 609 239 609Q180 609 154.5 581.5Q129 554 125 515H67V527Q70 564 86 590Q102 616 126.5 632.5Q151 649 180 657Q209 665 237 665Q279 665 312 653Q345 641 367.5 619.5Q390 598 402 568Q414 538 414 503V493Q414 432 372.5 388Q331 344 266 328ZM236 -6Q216 -6 201.5 7.5Q187 21 187 41V43Q187 65 201.5 77Q216 89 236 89Q256 89 270.5 77Q285 65 285 43V41Q285 21 270.5 7.5Q256 -6 236 -6Z" glyph-name="question" horiz-adv-x="480" unicode="?" /><glyph d="M218 319H270L275 142L269 136Q242 133 216.5 125Q191 117 172 102.5Q153 88 141.5 65.5Q130 43 130 11Q130 -40 160 -70Q190 -100 242 -100Q301 -100 326.5 -72.5Q352 -45 356 -6H414V-18Q411 -55 395 -81Q379 -107 354.5 -123.5Q330 -140 301 -148Q272 -156 244 -156Q202 -156 169 -144Q136 -132 113.5 -110.5Q91 -89 79 -59Q67 -29 67 6V16Q67 77 108.5 121Q150 165 215 181ZM245 515Q265 515 279.5 501.5Q294 488 294 468V466Q294 444 279.5 432Q265 420 245 420Q225 420 210.5 432Q196 444 196 466V468Q196 488 210.5 501.5Q225 515 245 515Z" glyph-name="questiondown" horiz-adv-x="480" unicode="&#191;" /><glyph d="M253 444H209L199 637V650H263V637ZM138 444H94L84 637V650H148V637Z" glyph-name="quotedbl" horiz-adv-x="347" unicode="&quot;" /><glyph d="M232 -127H189L236 89H305V78ZM96 -127H53L100 89H169V78Z" glyph-name="quotedblbase" horiz-adv-x="379" unicode="&#8222;" /><glyph d="M301 650H344L297 434H228V445ZM165 650H208L161 434H92V445Z" glyph-name="quotedblleft" horiz-adv-x="428" unicode="&#8220;" /><glyph d="M263 434H220L267 650H336V639ZM127 434H84L131 650H200V639Z" glyph-name="quotedblright" horiz-adv-x="428" unicode="&#8221;" /><glyph d="M165 650H208L161 434H92V445Z" glyph-name="quoteleft" horiz-adv-x="292" unicode="&#8216;" /><glyph d="M127 434H84L131 650H200V639Z" glyph-name="quoteright" horiz-adv-x="292" unicode="&#8217;" /><glyph d="M127 -127H84L131 89H200V78Z" glyph-name="quotesinglbase" horiz-adv-x="252" unicode="&#8218;" /><glyph d="M138 444H94L84 637V650H148V637Z" glyph-name="quotesingle" horiz-adv-x="232" unicode="&apos;" /><glyph d="M149 0H89V500H124L145 421H146Q166 463 210 483.5Q254 504 302 504H312Q321 504 325 503V443H313Q256 443 223 425Q190 407 173.5 378Q157 349 153 311.5Q149 274 149 236Z" glyph-name="r" horiz-adv-x="361" unicode="r" /><glyph d="M392 -12Q320 -12 259.5 14.5Q199 41 155.5 87Q112 133 87.5 195Q63 257 63 327Q63 397 87.5 459Q112 521 155.5 567Q199 613 259.5 639.5Q320 666 392 666Q464 666 525 639.5Q586 613 629.5 567Q673 521 697.5 459Q722 397 722 327Q722 257 697.5 195Q673 133 629.5 87Q586 41 525 14.5Q464 -12 392 -12ZM392 34Q453 34 504.5 57Q556 80 593 120Q630 160 651 213.5Q672 267 672 327Q672 387 651 440.5Q630 494 593 534Q556 574 504.5 597Q453 620 392 620Q331 620 279.5 597Q228 574 191 534Q154 494 133.5 440.5Q113 387 113 327Q113 267 133.5 213.5Q154 160 191 120Q228 80 279.5 57Q331 34 392 34ZM322 148H273V518H410Q435 518 457.5 510.5Q480 503 497 489Q514 475 524 454Q534 433 534 406V397Q534 359 513 331.5Q492 304 459 290L550 166V148H502L402 284H322ZM322 472V330H416Q435 330 448 336.5Q461 343 469 353.5Q477 364 480.5 377Q484 390 484 403Q484 412 480.5 424Q477 436 469 446.5Q461 457 448.5 464.5Q436 472 419 472Z" glyph-name="registered" horiz-adv-x="785" unicode="&#174;" /><glyph d="M250 567Q212 567 186 593Q160 619 160 657Q160 695 186 720.5Q212 746 250 746Q289 746 315 720.5Q341 695 341 657Q341 619 315 593Q289 567 250 567ZM250 609Q270 609 282 623.5Q294 638 294 658Q294 678 282 691.5Q270 705 250 705Q231 705 218.5 691.5Q206 678 206 658Q206 638 218.5 623.5Q231 609 250 609Z" glyph-name="ring" horiz-adv-x="500" unicode="&#730;" /><glyph d="M247 -15Q161 -15 111 26.5Q61 68 57 149V155H120Q123 102 151 69.5Q179 37 246 37Q311 37 339 66.5Q367 96 367 135Q367 167 348 186Q326 208 294 217Q262 226 227 233.5Q192 241 158.5 251.5Q125 262 100 287Q83 304 73.5 325.5Q64 347 64 374V380Q64 412 78 437.5Q92 463 115.5 480Q139 497 169.5 506Q200 515 233 515Q271 515 303.5 507Q336 499 360 482Q384 465 398.5 439Q413 413 415 378V372H355Q354 399 344 416.5Q334 434 318.5 444.5Q303 455 282.5 459Q262 463 239 463Q207 463 185.5 456Q164 449 151 437Q138 425 132.5 410.5Q127 396 127 381Q127 362 132.5 350.5Q138 339 149 328Q167 310 198 302Q229 294 264.5 286.5Q300 279 335 267.5Q370 256 395 230Q428 197 430 140Q429 96 411.5 66.5Q394 37 367.5 19Q341 1 309 -7Q277 -15 247 -15Z" glyph-name="s" horiz-adv-x="488" unicode="s" /><glyph d="M403 182Q405 181 407 179Q441 145 443 84Q442 40 425 10Q408 -20 381 -38.5Q354 -57 321.5 -65Q289 -73 257 -73Q174 -73 124 -31.5Q74 10 70 91V97H133Q136 44 163.5 12Q191 -20 258 -20Q323 -20 351.5 9Q380 38 380 77Q380 94 374.5 109Q369 124 357 135Q337 153 304 162.5Q271 172 235 180Q199 188 166 198Q133 208 113 227Q96 243 86.5 266.5Q77 290 77 316V322Q77 355 89.5 379.5Q102 404 123 421Q117 425 113 429Q96 445 86.5 468.5Q77 492 77 518V524Q77 559 91.5 584.5Q106 610 129.5 626.5Q153 643 184 651Q215 659 248 659Q324 659 374 626Q424 593 428 522V516H368Q363 569 330.5 587Q298 605 251 605Q219 605 197.5 598.5Q176 592 163.5 580.5Q151 569 145.5 554.5Q140 540 140 525Q140 510 144.5 496.5Q149 483 159 473Q176 457 208 449Q240 441 276.5 433.5Q313 426 348 414.5Q383 403 405 381Q422 364 432 340Q441 317 443 289V283Q441 250 431 226Q421 201 403 182ZM189 393Q162 382 151 363.5Q140 345 140 323Q140 308 144.5 294.5Q149 281 159 271Q172 259 194 252Q216 245 242.5 239Q269 233 298 227Q327 221 352 212Q366 225 373 242Q380 259 380 279Q380 296 374.5 311Q369 326 357 337Q344 349 324.5 357Q305 365 282.5 371Q260 377 236 382Q212 387 189 393Z" glyph-name="section" horiz-adv-x="506" unicode="&#167;" /><glyph d="M132 -127H89L136 89H205V78ZM168 368Q148 368 133.5 381.5Q119 395 119 415V417Q119 439 133.5 451Q148 463 168 463Q188 463 202.5 451Q217 439 217 417V415Q217 395 202.5 381.5Q188 368 168 368Z" glyph-name="semicolon" horiz-adv-x="294" unicode=";" /><glyph d="M302 405H261V650H319L387 487L453 650H513V405H471L472 557Q472 570 472.5 583Q473 596 474 609H473Q468 594 463.5 581.5Q459 569 453 555L405 445H364L316 560Q311 571 307 584.5Q303 598 299 609H298Q299 598 300 584Q301 570 301 559ZM137 397Q98 397 70 418Q42 439 40 476H80Q83 457 99 444.5Q115 432 139 432Q164 432 173.5 442.5Q183 453 183 469Q183 484 174 493Q166 501 151 506Q136 511 119 515.5Q102 520 86 526Q70 532 59 543Q51 551 46 561Q41 571 41 585V589Q41 608 48.5 621Q56 634 68.5 642.5Q81 651 96.5 654.5Q112 658 128 658Q143 658 158.5 654Q174 650 186.5 642Q199 634 207 620.5Q215 607 216 587H177Q177 601 165 613.5Q153 626 127 626Q106 626 95 617Q84 608 84 595Q84 579 93 570Q101 562 115 557.5Q129 553 145.5 548.5Q162 544 178.5 537Q195 530 207 518Q215 510 219.5 499.5Q224 489 224 476V471Q224 434 196.5 415.5Q169 397 137 397Z" glyph-name="servicemark" horiz-adv-x="582" unicode="&#8480;" /><glyph d="M170 0H105V13Q143 174 216.5 322Q290 470 417 593V595H57V650H500V593Q360 465 282.5 316Q205 167 170 0Z" glyph-name="seven" horiz-adv-x="521" unicode="7" /><glyph d="M286 -15Q229 -15 187.5 3Q146 21 118 50.5Q90 80 76.5 118.5Q63 157 63 198V217Q63 265 84 324Q105 383 143 440Q164 472 185 499Q206 526 229 551Q252 576 278 600.5Q304 625 335 650H410V637Q335 582 274.5 514.5Q214 447 172 379L173 378Q182 386 196.5 392Q211 398 226.5 402.5Q242 407 257.5 409.5Q273 412 285 412Q332 412 372.5 399Q413 386 443 359.5Q473 333 490 293Q507 253 507 200V189Q507 145 489 107.5Q471 70 440.5 43Q410 16 370 0.5Q330 -15 286 -15ZM286 43Q326 43 356 56.5Q386 70 405.5 91.5Q425 113 434.5 141Q444 169 444 197Q444 231 434 260Q424 289 404 310Q384 331 353.5 343Q323 355 282 355Q243 355 213.5 342Q184 329 164 307.5Q144 286 134 257.5Q124 229 124 198Q124 171 134.5 143Q145 115 166 93Q187 71 217 57Q247 43 286 43Z" glyph-name="six" horiz-adv-x="560" unicode="6" /><glyph d="M113 -124H58V-110L394 696H449V682Z" glyph-name="slash" horiz-adv-x="531" unicode="/" /><glyph glyph-name="space" horiz-adv-x="180" unicode=" " /><glyph d="M405 283H239Q250 260 256 235.5Q262 211 262 181Q262 137 256 99Q292 85 325.5 68Q359 51 401 51Q421 51 432.5 58Q444 65 450.5 76.5Q457 88 459.5 102Q462 116 462 131H524V122Q523 94 516 70Q509 46 494.5 29Q480 12 456 2Q432 -8 397 -8Q365 -8 337 2Q309 12 283.5 23.5Q258 35 233.5 45Q209 55 184 55Q150 55 135.5 40.5Q121 26 120 0H56Q57 54 86 84.5Q115 115 184 115H194Q196 129 197 144.5Q198 160 198 176Q198 207 189.5 233.5Q181 260 170 283H67V341H139Q121 372 106.5 406.5Q92 441 92 481Q92 524 106.5 558Q121 592 146.5 616Q172 640 206.5 652.5Q241 665 281 665Q369 665 418 617Q467 569 467 485V476H407V479Q407 502 401.5 524.5Q396 547 382 566Q368 585 344 596.5Q320 608 283 608Q229 608 193.5 575Q158 542 158 479Q158 444 176 408Q194 372 210 342L211 341H405Z" glyph-name="sterling" horiz-adv-x="565" unicode="&#163;" /><glyph d="M259 -9Q219 -9 192 3Q165 15 148.5 35Q132 55 125.5 83Q119 111 119 142V446H42V478Q75 487 94.5 500Q114 513 124.5 530Q135 547 138.5 568Q142 589 144 613H179V500H323V446H179V134Q179 85 204.5 65Q230 45 261 45Q279 45 298.5 51Q318 57 332 68H347V14Q331 4 307.5 -2.5Q284 -9 259 -9Z" glyph-name="t" horiz-adv-x="382" unicode="t" /><glyph d="M256 -16Q194 -16 153.5 2Q113 20 88.5 46.5Q64 73 53 104Q42 135 40 161V167H107Q110 142 120 119Q130 96 149 79Q168 62 195.5 51.5Q223 41 260 41Q332 41 370 83Q408 125 408 197Q408 226 398.5 252.5Q389 279 369.5 299.5Q350 320 321.5 332Q293 344 254 344Q236 344 218 342Q200 340 192 338L180 344L170 387L356 593V595H66L65 650H441V601L261 404Q304 404 342.5 389Q381 374 409.5 347Q438 320 455 283Q472 246 472 203V195Q472 143 455.5 103.5Q439 64 409.5 37.5Q380 11 340.5 -2.5Q301 -16 256 -16Z" glyph-name="three" horiz-adv-x="531" unicode="3" /><glyph d="M145 565H98Q98 583 103.5 600.5Q109 618 120 632.5Q131 647 148 656Q165 665 188 665Q211 665 227 657.5Q243 650 257 641.5Q271 633 283.5 625.5Q296 618 311 618Q328 618 341.5 628Q355 638 355 670H402Q402 652 396.5 634.5Q391 617 380 602.5Q369 588 352 579Q335 570 312 570Q290 570 273.5 577.5Q257 585 243 593.5Q229 602 216.5 609.5Q204 617 189 617Q172 617 158.5 607Q145 597 145 565Z" glyph-name="tilde" horiz-adv-x="500" unicode="&#732;" /><glyph d="M315 405H274V650H332L400 487L466 650H526V405H484L485 557Q485 570 485.5 583Q486 596 487 609H486Q481 594 476.5 581.5Q472 569 466 555L418 445H377L329 560Q324 571 320 584.5Q316 598 312 609H311Q312 598 313 584Q314 570 314 559ZM160 405H116V612H45V650H231V612H160Z" glyph-name="trademark" horiz-adv-x="595" unicode="&#8482;" /><glyph d="M476 0H70V49Q136 109 198.5 171.5Q261 234 321 303Q354 342 377.5 385Q401 428 401 481Q401 505 393.5 528Q386 551 369.5 569Q353 587 327.5 598Q302 609 267 609Q201 607 166 573Q131 539 131 485Q131 475 132 462Q133 449 135 439V424H76Q74 434 72 453.5Q70 473 70 484Q70 522 82.5 555Q95 588 120 612.5Q145 637 182 651Q219 665 267 665Q313 665 349.5 651.5Q386 638 411.5 613.5Q437 589 450.5 555Q464 521 464 480V465Q464 424 443 377.5Q422 331 387 290Q360 259 330.5 226.5Q301 194 272 164Q243 134 215.5 106.5Q188 79 165 58V56H474Z" glyph-name="two" horiz-adv-x="542" unicode="2" /><glyph d="M273 -16Q238 -16 202.5 -5.5Q167 5 138.5 29Q110 53 92 92Q74 131 74 188V500H134V188Q134 147 146.5 119Q159 91 179 73.5Q199 56 224 48Q249 40 273 40Q297 40 322 48Q347 56 367 73.5Q387 91 399.5 119Q412 147 412 188V500H472V188Q472 131 454 92Q436 53 407.5 29Q379 5 343.5 -5.5Q308 -16 273 -16Z" glyph-name="u" horiz-adv-x="546" unicode="u" /><glyph d="M273 -16Q238 -16 202.5 -5.5Q167 5 138.5 29Q110 53 92 92Q74 131 74 188V500H134V188Q134 147 146.5 119Q159 91 179 73.5Q199 56 224 48Q249 40 273 40Q297 40 322 48Q347 56 367 73.5Q387 91 399.5 119Q412 147 412 188V500H472V188Q472 131 454 92Q436 53 407.5 29Q379 5 343.5 -5.5Q308 -16 273 -16ZM407 663 197 549 175 583 371 720Z" glyph-name="uacute" horiz-adv-x="546" unicode="&#250;" /><glyph d="M273 -16Q238 -16 202.5 -5.5Q167 5 138.5 29Q110 53 92 92Q74 131 74 188V500H134V188Q134 147 146.5 119Q159 91 179 73.5Q199 56 224 48Q249 40 273 40Q297 40 322 48Q347 56 367 73.5Q387 91 399.5 119Q412 147 412 188V500H472V188Q472 131 454 92Q436 53 407.5 29Q379 5 343.5 -5.5Q308 -16 273 -16ZM270 623 151 553 128 588 270 692 417 588 396 553Z" glyph-name="ucircumflex" horiz-adv-x="546" unicode="&#251;" /><glyph d="M273 -16Q238 -16 202.5 -5.5Q167 5 138.5 29Q110 53 92 92Q74 131 74 188V500H134V188Q134 147 146.5 119Q159 91 179 73.5Q199 56 224 48Q249 40 273 40Q297 40 322 48Q347 56 367 73.5Q387 91 399.5 119Q412 147 412 188V500H472V188Q472 131 454 92Q436 53 407.5 29Q379 5 343.5 -5.5Q308 -16 273 -16ZM355 568Q335 568 320.5 581.5Q306 595 306 615V617Q306 639 320.5 651Q335 663 355 663Q375 663 389.5 651Q404 639 404 617V615Q404 595 389.5 581.5Q375 568 355 568ZM191 568Q171 568 156.5 581.5Q142 595 142 615V617Q142 639 156.5 651Q171 663 191 663Q211 663 225.5 651Q240 639 240 617V615Q240 595 225.5 581.5Q211 568 191 568Z" glyph-name="udieresis" horiz-adv-x="546" unicode="&#252;" /><glyph d="M273 -16Q238 -16 202.5 -5.5Q167 5 138.5 29Q110 53 92 92Q74 131 74 188V500H134V188Q134 147 146.5 119Q159 91 179 73.5Q199 56 224 48Q249 40 273 40Q297 40 322 48Q347 56 367 73.5Q387 91 399.5 119Q412 147 412 188V500H472V188Q472 131 454 92Q436 53 407.5 29Q379 5 343.5 -5.5Q308 -16 273 -16ZM361 583 339 549 129 663 165 720Z" glyph-name="ugrave" horiz-adv-x="546" unicode="&#249;" /><glyph d="M274 -188H-2V-135H274Z" glyph-name="underscore" horiz-adv-x="272" unicode="_" /><glyph d="M290 0H228L20 489V500H81L258 71H260L438 500H498V489Z" glyph-name="v" horiz-adv-x="518" unicode="v" /><glyph d="M264 0H195L39 489V500H101L231 84H233L364 500H439L571 84H573L703 500H762V489L606 0H537L401 427H399Z" glyph-name="w" horiz-adv-x="801" unicode="w" /><glyph d="M86 0H25V11L217 267L59 489V500H124L255 317L387 500H448V489L290 271L482 11V0H417L252 220Z" glyph-name="x" horiz-adv-x="507" unicode="x" /><glyph d="M202 -180H141V-169L220 14L20 489V500H81L252 82H254L427 500H487V489Z" glyph-name="y" horiz-adv-x="507" unicode="y" /><glyph d="M202 -180H141V-169L220 14L20 489V500H81L252 82H254L427 500H487V489ZM335 568Q315 568 300.5 581.5Q286 595 286 615V617Q286 639 300.5 651Q315 663 335 663Q355 663 369.5 651Q384 639 384 617V615Q384 595 369.5 581.5Q355 568 335 568ZM171 568Q151 568 136.5 581.5Q122 595 122 615V617Q122 639 136.5 651Q151 663 171 663Q191 663 205.5 651Q220 639 220 617V615Q220 595 205.5 581.5Q191 568 171 568Z" glyph-name="ydieresis" horiz-adv-x="507" unicode="&#255;" /><glyph d="M332 0H270V241H64V297H245L208 354H64V411H171L23 637V650H86L302 314L516 650H577V637L430 411H538V354H393L356 297L538 298V241H332Z" glyph-name="yen" horiz-adv-x="600" unicode="&#165;" /><glyph d="M428 0H72V45L348 444V446H75V500H423V451L151 56V54H428Z" glyph-name="z" horiz-adv-x="498" unicode="z" /><glyph d="M296 -14Q240 -14 196.5 10.5Q153 35 123.5 78.5Q94 122 79 182.5Q64 243 64 316V334Q64 407 79 468Q94 529 123.5 572.5Q153 616 196.5 640.5Q240 665 296 665Q352 665 395.5 640.5Q439 616 468.5 572.5Q498 529 513 468Q528 407 528 334V316Q528 243 513 182.5Q498 122 468.5 78.5Q439 35 395.5 10.5Q352 -14 296 -14ZM296 46Q342 46 374 68Q406 90 426 128Q446 166 455 216.5Q464 267 464 323Q464 381 455 432.5Q446 484 426 522Q406 560 374 582.5Q342 605 296 605Q250 605 218 583Q186 561 166 523Q146 485 137 434.5Q128 384 128 328Q128 270 137 218.5Q146 167 166 129Q186 91 218 68.5Q250 46 296 46Z" glyph-name="zero" horiz-adv-x="592" unicode="0" /></font>
</defs>
</svg>
