<?xml version="1.0" standalone="no"?><!DOCTYPE svg PUBLIC "-//W3C//DTD SVG 1.1//EN" "http://www.w3.org/Graphics/SVG/1.1/DTD/svg11.dtd" ><svg version="1.1" xmlns="http://www.w3.org/2000/svg"><defs><font horiz-adv-x="0" id="font"><font-face ascent="750" bbox="-135 -272 1034 915" cap-height="650" descent="-250" font-family="AT Fabriga Web Bold" font-stretch="normal" font-style="normal" font-weight="600" units-per-em="1000" x-height="500" /><missing-glyph horiz-adv-x="180" /><glyph d="M172 0H2V18L256 650H434L688 18V0H520L479 113H213ZM309 379 259 241H433L383 379Q373 407 363 439Q353 471 347 498H345Q339 471 329 439Q319 407 309 379Z" glyph-name="A" horiz-adv-x="689" unicode="A" /><glyph d="M917 0H471V113H243L180 0H2V18L373 650H917V521H632V395H874V262H632V130H917ZM471 521H469L314 241H471Z" glyph-name="AE" horiz-adv-x="964" unicode="&#198;" /><glyph d="M172 0H2V18L256 650H434L688 18V0H520L479 113H213ZM309 379 259 241H433L383 379Q373 407 363 439Q353 471 347 498H345Q339 471 329 439Q319 407 309 379ZM508 792 235 689 195 776 450 915Z" glyph-name="Aacute" horiz-adv-x="689" unicode="&#193;" /><glyph d="M172 0H2V18L256 650H434L688 18V0H520L479 113H213ZM309 379 259 241H433L383 379Q373 407 363 439Q353 471 347 498H345Q339 471 329 439Q319 407 309 379ZM346 767 206 685 153 765 333 903H359L537 765L484 685Z" glyph-name="Acircumflex" horiz-adv-x="689" unicode="&#194;" /><glyph d="M172 0H2V18L256 650H434L688 18V0H520L479 113H213ZM309 379 259 241H433L383 379Q373 407 363 439Q353 471 347 498H345Q339 471 329 439Q319 407 309 379ZM454 704Q418 704 393 725.5Q368 747 368 785Q368 822 393 844Q418 866 454 866Q489 866 514 844Q539 822 539 785Q539 747 514 725.5Q489 704 454 704ZM238 704Q203 704 178 725.5Q153 747 153 785Q153 822 178 844Q203 866 238 866Q274 866 298.5 844Q323 822 323 785Q323 747 298.5 725.5Q274 704 238 704Z" glyph-name="Adieresis" horiz-adv-x="689" unicode="&#196;" /><glyph d="M172 0H2V18L256 650H434L688 18V0H520L479 113H213ZM309 379 259 241H433L383 379Q373 407 363 439Q353 471 347 498H345Q339 471 329 439Q319 407 309 379ZM491 776 451 689 178 792 236 915Z" glyph-name="Agrave" horiz-adv-x="689" unicode="&#192;" /><glyph d="M172 0H2V18L252 640Q240 654 233 670Q224 691 224 714Q224 737 233 757Q242 777 258 792Q274 807 296.5 815.5Q319 824 345 824Q371 824 393.5 815.5Q416 807 432 792Q448 777 457 757Q466 737 466 714Q466 691 457 670Q449 654 438 640L688 18V0H520L479 113H213ZM309 379 259 241H433L383 379Q373 407 363 439Q353 471 347 498H345Q339 471 329 439Q319 407 309 379ZM345 671Q362 671 374.5 683.5Q387 696 387 714Q387 731 375 743Q363 755 345 755Q328 755 315.5 743Q303 731 303 714Q303 696 315.5 683.5Q328 671 345 671Z" glyph-name="Aring" horiz-adv-x="689" unicode="&#197;" /><glyph d="M172 0H2V18L256 650H434L688 18V0H520L479 113H213ZM309 379 259 241H433L383 379Q373 407 363 439Q353 471 347 498H345Q339 471 329 439Q319 407 309 379ZM258 700H150Q150 732 158 761Q166 790 182.5 812.5Q199 835 223 848.5Q247 862 278 862Q299 862 314 855.5Q329 849 341.5 841.5Q354 834 366 827.5Q378 821 394 821Q399 821 405.5 822Q412 823 418 827.5Q424 832 428 840.5Q432 849 432 865H540Q540 833 532 804Q524 775 508 752.5Q492 730 468.5 716.5Q445 703 415 703Q393 703 377.5 709.5Q362 716 349.5 723.5Q337 731 325 737.5Q313 744 296 744Q292 744 285.5 743Q279 742 273 737.5Q267 733 262.5 724.5Q258 716 258 700Z" glyph-name="Atilde" horiz-adv-x="689" unicode="&#195;" /><glyph d="M351 0H69V650H322Q374 650 419 641Q464 632 497 611.5Q530 591 549 559Q568 527 568 480V470Q568 422 544.5 387Q521 352 482 336V334Q505 328 524.5 314Q544 300 558.5 280.5Q573 261 581.5 237Q590 213 590 187V177Q590 131 572.5 97.5Q555 64 523.5 42Q492 20 448 10Q404 0 351 0ZM228 268V123H343Q370 123 386 128.5Q402 134 411 144Q420 154 423 166.5Q426 179 426 192Q426 201 423 214Q420 227 411 239Q402 251 386 259.5Q370 268 344 268ZM228 528V390H333Q352 390 365 397.5Q378 405 386 416.5Q394 428 397.5 441Q401 454 401 464Q401 488 385.5 508Q370 528 335 528Z" glyph-name="B" horiz-adv-x="630" unicode="B" /><glyph d="M366 -15Q297 -15 236.5 8Q176 31 131 73.5Q86 116 59.5 176.5Q33 237 33 311V335Q33 407 59 467.5Q85 528 130.5 572Q176 616 236.5 640.5Q297 665 366 665Q426 665 480 648.5Q534 632 576 600.5Q618 569 645 524Q672 479 678 422V409H513Q495 523 374 523Q331 523 299 507Q267 491 246.5 464Q226 437 216 401.5Q206 366 206 326Q206 286 216 250Q226 214 246.5 187Q267 160 299 144Q331 128 374 128Q442 128 475.5 162.5Q509 197 514 253H678V239Q671 179 645 131.5Q619 84 577.5 51.5Q536 19 482 2Q428 -15 366 -15Z" glyph-name="C" horiz-adv-x="704" unicode="C" /><glyph d="M324 -195Q299 -195 271.5 -191Q244 -187 226 -180V-108H242Q280 -124 307 -124Q329 -124 342 -118Q355 -112 355 -101Q355 -75 307 -74L301 -63L322 -12Q277 -7 236 8Q176 31 131 73.5Q86 116 59.5 176.5Q33 237 33 311V335Q33 407 59 467.5Q85 528 130.5 572Q176 616 236.5 640.5Q297 665 366 665Q426 665 480 648.5Q534 632 576 600.5Q618 569 645 524Q672 479 678 422V409H513Q495 523 374 523Q331 523 299 507Q267 491 246.5 464Q226 437 216 401.5Q206 366 206 326Q206 286 216 250Q226 214 246.5 187Q267 160 299 144Q331 128 374 128Q442 128 475.5 162.5Q509 197 514 253H678V239Q671 179 645 131.5Q619 84 577.5 51.5Q536 19 482 2Q444 -10 401 -13L393 -46Q418 -50 439.5 -67Q461 -84 461 -109Q461 -135 448.5 -151.5Q436 -168 416.5 -177.5Q397 -187 372.5 -191Q348 -195 324 -195Z" glyph-name="Ccedilla" horiz-adv-x="704" unicode="&#199;" /><glyph d="M347 0H69V650H348Q409 650 466 630Q523 610 567 570.5Q611 531 637.5 472.5Q664 414 664 337V313Q664 235 637.5 176.5Q611 118 567 78.5Q523 39 466 19.5Q409 0 347 0ZM232 521V129H337Q419 129 456 183.5Q493 238 493 328Q493 418 455 469.5Q417 521 339 521Z" glyph-name="D" horiz-adv-x="697" unicode="D" /><glyph d="M519 0H69V650H519V517H234V397H476V260H234V134H519Z" glyph-name="E" horiz-adv-x="566" unicode="E" /><glyph d="M519 0H69V650H519V517H234V397H476V260H234V134H519ZM451 792 178 689 138 776 393 915Z" glyph-name="Eacute" horiz-adv-x="566" unicode="&#201;" /><glyph d="M519 0H69V650H519V517H234V397H476V260H234V134H519ZM289 767 149 685 96 765 276 903H302L480 765L427 685Z" glyph-name="Ecircumflex" horiz-adv-x="566" unicode="&#202;" /><glyph d="M519 0H69V650H519V517H234V397H476V260H234V134H519ZM397 704Q361 704 336 725.5Q311 747 311 785Q311 822 336 844Q361 866 397 866Q432 866 457 844Q482 822 482 785Q482 747 457 725.5Q432 704 397 704ZM181 704Q146 704 121 725.5Q96 747 96 785Q96 822 121 844Q146 866 181 866Q217 866 241.5 844Q266 822 266 785Q266 747 241.5 725.5Q217 704 181 704Z" glyph-name="Edieresis" horiz-adv-x="566" unicode="&#203;" /><glyph d="M519 0H69V650H519V517H234V397H476V260H234V134H519ZM428 776 388 689 115 792 173 915Z" glyph-name="Egrave" horiz-adv-x="566" unicode="&#200;" /><glyph d="M398 -13Q346 -13 299.5 3Q253 19 216 48.5Q179 78 152.5 120.5Q126 163 112 216H3L22 295H100Q98 325 100 348H33L52 427H110Q122 481 148.5 525Q175 569 212.5 600Q250 631 297 648Q344 665 398 665Q450 665 496.5 650Q543 635 579 605.5Q615 576 638 533Q661 490 666 434V421H511Q506 473 477 502.5Q448 532 398 532Q354 532 324 503.5Q294 475 283 427H456L437 348H271Q269 337 269 321.5Q269 306 271 295H426L407 216H287Q300 169 329.5 144.5Q359 120 404 120Q449 120 477.5 148.5Q506 177 512 231H666V217Q660 159 637 116Q614 73 578 44.5Q542 16 496 1.5Q450 -13 398 -13Z" glyph-name="Euro" horiz-adv-x="697" unicode="&#8364;" /><glyph d="M234 0H69V650H529V517H232V380H486V243H234Z" glyph-name="F" horiz-adv-x="556" unicode="F" /><glyph d="M383 -15Q303 -15 238.5 10Q174 35 128 79Q82 123 57.5 183Q33 243 33 313V337Q33 411 59.5 471Q86 531 132 574.5Q178 618 240 641.5Q302 665 374 665Q436 665 487 653Q538 641 576.5 616Q615 591 640 551.5Q665 512 673 457V444H512Q504 488 469 508Q434 528 379 528Q290 528 246.5 473.5Q203 419 203 324Q203 281 216 243.5Q229 206 253.5 178.5Q278 151 314.5 135Q351 119 398 119Q445 119 480 131.5Q515 144 541 164V228H374V360H688V117Q672 96 645 73Q618 50 579.5 30.5Q541 11 492 -2Q443 -15 383 -15Z" glyph-name="G" horiz-adv-x="739" unicode="G" /><glyph d="M234 0H69V650H234V395H499V650H664V0H499V262H234Z" glyph-name="H" horiz-adv-x="732" unicode="H" /><glyph d="M234 0H69V650H234Z" glyph-name="I" horiz-adv-x="302" unicode="I" /><glyph d="M234 0H69V650H234ZM310 792 37 689 -3 776 252 915Z" glyph-name="Iacute" horiz-adv-x="302" unicode="&#205;" /><glyph d="M234 0H69V650H234ZM151 767 11 685 -42 765 138 903H164L342 765L289 685Z" glyph-name="Icircumflex" horiz-adv-x="302" unicode="&#206;" /><glyph d="M234 0H69V650H234ZM262 704Q226 704 201 725.5Q176 747 176 785Q176 822 201 844Q226 866 262 866Q297 866 322 844Q347 822 347 785Q347 747 322 725.5Q297 704 262 704ZM46 704Q11 704 -14 725.5Q-39 747 -39 785Q-39 822 -14 844Q11 866 46 866Q82 866 106.5 844Q131 822 131 785Q131 747 106.5 725.5Q82 704 46 704Z" glyph-name="Idieresis" horiz-adv-x="302" unicode="&#207;" /><glyph d="M234 0H69V650H234ZM294 776 254 689 -19 792 39 915Z" glyph-name="Igrave" horiz-adv-x="302" unicode="&#204;" /><glyph d="M139 -15Q108 -15 76 -10Q44 -5 19 6V140H37Q56 130 79.5 126.5Q103 123 124 123Q167 123 191.5 142Q216 161 216 213V650H377V192Q377 95 317 40Q257 -15 139 -15Z" glyph-name="J" horiz-adv-x="446" unicode="J" /><glyph d="M234 0H69V650H234V388L452 650H630V632L388 343L641 18V0H454L234 288Z" glyph-name="K" horiz-adv-x="653" unicode="K" /><glyph d="M509 0H69V650H234V131H509Z" glyph-name="L" horiz-adv-x="536" unicode="L" /><glyph d="M196 0H38V18L137 650H297L470 230H472L647 650H803L898 18V0H735L691 306Q689 322 687 341.5Q685 361 684.5 381.5Q684 402 684 422Q684 442 685 457H683Q681 441 677 421.5Q673 402 668 382.5Q663 363 657.5 345Q652 327 647 315L526 10H408L286 311Q282 320 276 338.5Q270 357 264 378.5Q258 400 252.5 421Q247 442 244 457H242Q243 441 243.5 419.5Q244 398 244 376Q244 354 243 333Q242 312 240 297Z" glyph-name="M" horiz-adv-x="936" unicode="M" /><glyph d="M230 0H69V650H224L417 392Q431 372 444.5 349.5Q458 327 470 306.5Q482 286 492 268.5Q502 251 508 241H510Q510 249 509 268Q508 287 507 311.5Q506 336 505 362.5Q504 389 504 413L503 650H664V0H516L314 267Q301 285 288 305.5Q275 326 263 345.5Q251 365 241 382.5Q231 400 225 411H223Q223 403 224.5 384Q226 365 227 341.5Q228 318 229 293Q230 268 230 248Z" glyph-name="N" horiz-adv-x="732" unicode="N" /><glyph glyph-name="NULL" horiz-adv-x="0" /><glyph d="M230 0H69V650H224L417 392Q431 372 444.5 349.5Q458 327 470 306.5Q482 286 492 268.5Q502 251 508 241H510Q510 249 509 268Q508 287 507 311.5Q506 336 505 362.5Q504 389 504 413L503 650H664V0H516L314 267Q301 285 288 305.5Q275 326 263 345.5Q251 365 241 382.5Q231 400 225 411H223Q223 403 224.5 384Q226 365 227 341.5Q228 318 229 293Q230 268 230 248ZM274 700H166Q166 732 174 761Q182 790 198.5 812.5Q215 835 239 848.5Q263 862 294 862Q315 862 330 855.5Q345 849 357.5 841.5Q370 834 382 827.5Q394 821 410 821Q415 821 421.5 822Q428 823 434 827.5Q440 832 444 840.5Q448 849 448 865H556Q556 833 548 804Q540 775 524 752.5Q508 730 484.5 716.5Q461 703 431 703Q409 703 393.5 709.5Q378 716 365.5 723.5Q353 731 341 737.5Q329 744 312 744Q308 744 301.5 743Q295 742 289 737.5Q283 733 278.5 724.5Q274 716 274 700Z" glyph-name="Ntilde" horiz-adv-x="732" unicode="&#209;" /><glyph d="M376 -15Q304 -15 241 9Q178 33 132 76Q86 119 59.5 179.5Q33 240 33 313V337Q33 410 59.5 470.5Q86 531 132.5 574Q179 617 241.5 641Q304 665 376 665Q448 665 510.5 641Q573 617 619.5 574Q666 531 692.5 470.5Q719 410 719 337V313Q719 240 692.5 179.5Q666 119 620 76Q574 33 511 9Q448 -15 376 -15ZM375 124Q416 124 448 139.5Q480 155 502 182.5Q524 210 535 246.5Q546 283 546 325Q546 367 535.5 403.5Q525 440 503.5 467.5Q482 495 450 510.5Q418 526 375 526Q333 526 301 510.5Q269 495 248 467.5Q227 440 216.5 403.5Q206 367 206 325Q206 283 217 246.5Q228 210 250 182.5Q272 155 303.5 139.5Q335 124 375 124Z" glyph-name="O" horiz-adv-x="753" unicode="O" /><glyph d="M1002 0H552V34Q530 20 504 9Q448 -15 376 -15Q304 -15 241 9Q178 33 132 76Q86 119 59.5 179.5Q33 240 33 313V337Q33 410 59.5 470.5Q86 531 132.5 574Q179 617 241.5 641Q304 665 376 665Q448 665 504 641Q530 630 552 615V650H1002V517H717V397H959V260H717V134H1002ZM375 124Q416 124 448 139.5Q480 155 502 182.5Q524 210 535 246.5Q546 283 546 325Q546 367 535.5 403.5Q525 440 503.5 467.5Q482 495 450 510.5Q418 526 375 526Q333 526 301 510.5Q269 495 248 467.5Q227 440 216.5 403.5Q206 367 206 325Q206 283 217 246.5Q228 210 250 182.5Q272 155 303.5 139.5Q335 124 375 124Z" glyph-name="OE" horiz-adv-x="1035" unicode="&#338;" /><glyph d="M376 -15Q304 -15 241 9Q178 33 132 76Q86 119 59.5 179.5Q33 240 33 313V337Q33 410 59.5 470.5Q86 531 132.5 574Q179 617 241.5 641Q304 665 376 665Q448 665 510.5 641Q573 617 619.5 574Q666 531 692.5 470.5Q719 410 719 337V313Q719 240 692.5 179.5Q666 119 620 76Q574 33 511 9Q448 -15 376 -15ZM375 124Q416 124 448 139.5Q480 155 502 182.5Q524 210 535 246.5Q546 283 546 325Q546 367 535.5 403.5Q525 440 503.5 467.5Q482 495 450 510.5Q418 526 375 526Q333 526 301 510.5Q269 495 248 467.5Q227 440 216.5 403.5Q206 367 206 325Q206 283 217 246.5Q228 210 250 182.5Q272 155 303.5 139.5Q335 124 375 124ZM538 792 265 689 225 776 480 915Z" glyph-name="Oacute" horiz-adv-x="753" unicode="&#211;" /><glyph d="M376 -15Q304 -15 241 9Q178 33 132 76Q86 119 59.5 179.5Q33 240 33 313V337Q33 410 59.5 470.5Q86 531 132.5 574Q179 617 241.5 641Q304 665 376 665Q448 665 510.5 641Q573 617 619.5 574Q666 531 692.5 470.5Q719 410 719 337V313Q719 240 692.5 179.5Q666 119 620 76Q574 33 511 9Q448 -15 376 -15ZM375 124Q416 124 448 139.5Q480 155 502 182.5Q524 210 535 246.5Q546 283 546 325Q546 367 535.5 403.5Q525 440 503.5 467.5Q482 495 450 510.5Q418 526 375 526Q333 526 301 510.5Q269 495 248 467.5Q227 440 216.5 403.5Q206 367 206 325Q206 283 217 246.5Q228 210 250 182.5Q272 155 303.5 139.5Q335 124 375 124ZM373 767 233 685 180 765 360 903H386L564 765L511 685Z" glyph-name="Ocircumflex" horiz-adv-x="753" unicode="&#212;" /><glyph d="M376 -15Q304 -15 241 9Q178 33 132 76Q86 119 59.5 179.5Q33 240 33 313V337Q33 410 59.5 470.5Q86 531 132.5 574Q179 617 241.5 641Q304 665 376 665Q448 665 510.5 641Q573 617 619.5 574Q666 531 692.5 470.5Q719 410 719 337V313Q719 240 692.5 179.5Q666 119 620 76Q574 33 511 9Q448 -15 376 -15ZM375 124Q416 124 448 139.5Q480 155 502 182.5Q524 210 535 246.5Q546 283 546 325Q546 367 535.5 403.5Q525 440 503.5 467.5Q482 495 450 510.5Q418 526 375 526Q333 526 301 510.5Q269 495 248 467.5Q227 440 216.5 403.5Q206 367 206 325Q206 283 217 246.5Q228 210 250 182.5Q272 155 303.5 139.5Q335 124 375 124ZM480 704Q444 704 419 725.5Q394 747 394 785Q394 822 419 844Q444 866 480 866Q515 866 540 844Q565 822 565 785Q565 747 540 725.5Q515 704 480 704ZM264 704Q229 704 204 725.5Q179 747 179 785Q179 822 204 844Q229 866 264 866Q300 866 324.5 844Q349 822 349 785Q349 747 324.5 725.5Q300 704 264 704Z" glyph-name="Odieresis" horiz-adv-x="753" unicode="&#214;" /><glyph d="M376 -15Q304 -15 241 9Q178 33 132 76Q86 119 59.5 179.5Q33 240 33 313V337Q33 410 59.5 470.5Q86 531 132.5 574Q179 617 241.5 641Q304 665 376 665Q448 665 510.5 641Q573 617 619.5 574Q666 531 692.5 470.5Q719 410 719 337V313Q719 240 692.5 179.5Q666 119 620 76Q574 33 511 9Q448 -15 376 -15ZM375 124Q416 124 448 139.5Q480 155 502 182.5Q524 210 535 246.5Q546 283 546 325Q546 367 535.5 403.5Q525 440 503.5 467.5Q482 495 450 510.5Q418 526 375 526Q333 526 301 510.5Q269 495 248 467.5Q227 440 216.5 403.5Q206 367 206 325Q206 283 217 246.5Q228 210 250 182.5Q272 155 303.5 139.5Q335 124 375 124ZM521 776 481 689 208 792 266 915Z" glyph-name="Ograve" horiz-adv-x="753" unicode="&#210;" /><glyph d="M376 -15Q338 -15 303 -8L279 -65H137V-50L176 41Q152 57 132 76Q86 119 59.5 179.5Q33 240 33 313V337Q33 410 59.5 470.5Q86 531 132.5 574Q179 617 241.5 641Q304 665 376 665Q410 665 441 659L465 715H608V700L570 611Q597 595 619 574Q666 531 692.5 470.5Q719 410 719 337V313Q719 240 692.5 179.5Q666 119 620 76Q574 33 511 9Q448 -15 376 -15ZM375 124Q416 124 448 139.5Q480 155 502 182.5Q524 210 535 246.5Q546 283 546 325Q546 367 535 403Q526 437 506 463L360 124ZM375 526Q333 526 301 510.5Q269 495 248 467.5Q227 440 216.5 403.5Q206 367 206 325Q206 283 217 246Q226 217 241 193L384 526Z" glyph-name="Oslash" horiz-adv-x="753" unicode="&#216;" /><glyph d="M376 -15Q304 -15 241 9Q178 33 132 76Q86 119 59.5 179.5Q33 240 33 313V337Q33 410 59.5 470.5Q86 531 132.5 574Q179 617 241.5 641Q304 665 376 665Q448 665 510.5 641Q573 617 619.5 574Q666 531 692.5 470.5Q719 410 719 337V313Q719 240 692.5 179.5Q666 119 620 76Q574 33 511 9Q448 -15 376 -15ZM375 124Q416 124 448 139.5Q480 155 502 182.5Q524 210 535 246.5Q546 283 546 325Q546 367 535.5 403.5Q525 440 503.5 467.5Q482 495 450 510.5Q418 526 375 526Q333 526 301 510.5Q269 495 248 467.5Q227 440 216.5 403.5Q206 367 206 325Q206 283 217 246.5Q228 210 250 182.5Q272 155 303.5 139.5Q335 124 375 124ZM285 700H177Q177 732 185 761Q193 790 209.5 812.5Q226 835 250 848.5Q274 862 305 862Q326 862 341 855.5Q356 849 368.5 841.5Q381 834 393 827.5Q405 821 421 821Q426 821 432.5 822Q439 823 445 827.5Q451 832 455 840.5Q459 849 459 865H567Q567 833 559 804Q551 775 535 752.5Q519 730 495.5 716.5Q472 703 442 703Q420 703 404.5 709.5Q389 716 376.5 723.5Q364 731 352 737.5Q340 744 323 744Q319 744 312.5 743Q306 742 300 737.5Q294 733 289.5 724.5Q285 716 285 700Z" glyph-name="Otilde" horiz-adv-x="753" unicode="&#213;" /><glyph d="M235 0H69V650H369Q418 650 463 635Q508 620 542 590.5Q576 561 596 518Q616 475 616 419V403Q616 349 596.5 307.5Q577 266 542.5 237.5Q508 209 461 194.5Q414 180 360 180H235ZM235 523V308H347Q404 308 427 337Q450 366 450 411Q450 461 428.5 492Q407 523 352 523Z" glyph-name="P" horiz-adv-x="634" unicode="P" /><glyph d="M666 -114H488L413 -13Q404 -14 395 -14.5Q386 -15 376 -15Q304 -15 241 9Q178 33 132 76Q86 119 59.5 179.5Q33 240 33 313V337Q33 410 59.5 470.5Q86 531 132.5 574Q179 617 241.5 641Q304 665 376 665Q448 665 510.5 641Q573 617 619.5 574Q666 531 692.5 470.5Q719 410 719 337V313Q719 220 677.5 148.5Q636 77 566 35L666 -93ZM375 124Q416 124 448 139.5Q480 155 502 182.5Q524 210 535 246.5Q546 283 546 325Q546 367 535.5 403.5Q525 440 503.5 467.5Q482 495 450 510.5Q418 526 375 526Q333 526 301 510.5Q269 495 248 467.5Q227 440 216.5 403.5Q206 367 206 325Q206 283 217 246.5Q228 210 250 182.5Q272 155 303.5 139.5Q335 124 375 124Z" glyph-name="Q" horiz-adv-x="753" unicode="Q" /><glyph d="M234 0H69V650H349Q400 650 446 637Q492 624 526.5 598.5Q561 573 581 534Q601 495 601 443V427Q601 360 563 312Q525 264 459 242L627 20V0H452L287 228H234ZM234 523V346H334Q364 346 384.5 353.5Q405 361 417 374Q429 387 434.5 404Q440 421 440 439Q440 454 435.5 469Q431 484 420 496Q409 508 390.5 515.5Q372 523 345 523Z" glyph-name="R" horiz-adv-x="633" unicode="R" /><glyph d="M292 -15Q241 -15 196 -5Q151 5 116.5 27.5Q82 50 60.5 86Q39 122 34 174V188H195Q197 144 225 124.5Q253 105 298 105Q340 105 364.5 124Q389 143 389 171Q389 197 376.5 213Q364 229 321 243Q294 253 262.5 261.5Q231 270 200 279.5Q169 289 142 301.5Q115 314 97 332Q77 352 62 385.5Q47 419 47 453V463Q47 518 68.5 556Q90 594 125 617.5Q160 641 204 651.5Q248 662 292 662Q339 662 382 653Q425 644 458 623Q491 602 512 569Q533 536 537 488V475H380Q378 503 359 522Q340 541 297 541Q255 541 234 524.5Q213 508 213 482Q213 450 233 437Q253 424 286 415Q311 408 340.5 400Q370 392 399.5 382.5Q429 373 455.5 359.5Q482 346 500 328Q520 308 535.5 274Q551 240 551 203V193Q551 135 528.5 95Q506 55 469 30.5Q432 6 385.5 -4.5Q339 -15 292 -15Z" glyph-name="S" horiz-adv-x="587" unicode="S" /><glyph d="M379 0H214V517H29V650H557V517H379Z" glyph-name="T" horiz-adv-x="585" unicode="T" /><glyph d="M346 -15Q206 -15 135.5 52.5Q65 120 65 249V650H232V223Q232 172 264 147Q296 122 350 122Q396 122 429.5 147Q463 172 463 223V650H625V249Q625 120 554.5 52.5Q484 -15 346 -15Z" glyph-name="U" horiz-adv-x="690" unicode="U" /><glyph d="M346 -15Q206 -15 135.5 52.5Q65 120 65 249V650H232V223Q232 172 264 147Q296 122 350 122Q396 122 429.5 147Q463 172 463 223V650H625V249Q625 120 554.5 52.5Q484 -15 346 -15ZM511 792 238 689 198 776 453 915Z" glyph-name="Uacute" horiz-adv-x="690" unicode="&#218;" /><glyph d="M346 -15Q206 -15 135.5 52.5Q65 120 65 249V650H232V223Q232 172 264 147Q296 122 350 122Q396 122 429.5 147Q463 172 463 223V650H625V249Q625 120 554.5 52.5Q484 -15 346 -15ZM351 769 211 687 158 767 338 905H364L542 767L489 687Z" glyph-name="Ucircumflex" horiz-adv-x="690" unicode="&#219;" /><glyph d="M346 -15Q206 -15 135.5 52.5Q65 120 65 249V650H232V223Q232 172 264 147Q296 122 350 122Q396 122 429.5 147Q463 172 463 223V650H625V249Q625 120 554.5 52.5Q484 -15 346 -15ZM445 704Q409 704 384 725.5Q359 747 359 785Q359 822 384 844Q409 866 445 866Q480 866 505 844Q530 822 530 785Q530 747 505 725.5Q480 704 445 704ZM229 704Q194 704 169 725.5Q144 747 144 785Q144 822 169 844Q194 866 229 866Q265 866 289.5 844Q314 822 314 785Q314 747 289.5 725.5Q265 704 229 704Z" glyph-name="Udieresis" horiz-adv-x="690" unicode="&#220;" /><glyph d="M346 -15Q206 -15 135.5 52.5Q65 120 65 249V650H232V223Q232 172 264 147Q296 122 350 122Q396 122 429.5 147Q463 172 463 223V650H625V249Q625 120 554.5 52.5Q484 -15 346 -15ZM486 776 446 689 173 792 231 915Z" glyph-name="Ugrave" horiz-adv-x="690" unicode="&#217;" /><glyph d="M419 0H262L1 632V650H178L316 282Q323 265 329.5 239Q336 213 344 184H346Q353 213 360.5 238.5Q368 264 375 282L510 650H681V632Z" glyph-name="V" horiz-adv-x="682" unicode="V" /><glyph d="M344 0H190L-5 632V650H165L250 326Q258 299 264.5 261.5Q271 224 276 198H278Q281 224 286.5 261.5Q292 299 299 326L390 650H555L649 326Q656 299 661.5 261.5Q667 224 670 198H672Q677 224 683.5 261.5Q690 299 698 326L775 650H940V632L751 0H594L471 423H469Z" glyph-name="W" horiz-adv-x="935" unicode="W" /><glyph d="M189 0H11V18L246 344L43 632V650H225L345 464L456 650H630V632L438 347L662 18V0H479L339 216Z" glyph-name="X" horiz-adv-x="673" unicode="X" /><glyph d="M404 0H239V263L0 632V650H180L325 405L474 650H644V632L404 263Z" glyph-name="Y" horiz-adv-x="644" unicode="Y" /><glyph d="M404 0H239V263L0 632V650H180L325 405L474 650H644V632L404 263ZM434 704Q398 704 373 725.5Q348 747 348 785Q348 822 373 844Q398 866 434 866Q469 866 494 844Q519 822 519 785Q519 747 494 725.5Q469 704 434 704ZM218 704Q183 704 158 725.5Q133 747 133 785Q133 822 158 844Q183 866 218 866Q254 866 278.5 844Q303 822 303 785Q303 747 278.5 725.5Q254 704 218 704Z" glyph-name="Ydieresis" horiz-adv-x="644" unicode="&#376;" /><glyph d="M562 0H46V89L342 515V517H63V650H571V565L276 135V133H562Z" glyph-name="Z" horiz-adv-x="603" unicode="Z" /><glyph d="M261 -15Q217 -15 176 2.5Q135 20 103 52.5Q71 85 52 132Q33 179 33 238V257Q33 310 50.5 357Q68 404 99.5 439Q131 474 174 494.5Q217 515 268 515H269Q320 515 357.5 496Q395 477 419 442H421L441 500H554V0H434L414 61H412Q383 20 347.5 2.5Q312 -15 261 -15ZM299 115Q326 115 345 125.5Q364 136 376 154Q388 172 394 196.5Q400 221 400 249Q400 278 394 302.5Q388 327 376 346Q364 365 345 375.5Q326 386 299 386Q272 386 253 375.5Q234 365 222 347Q210 329 204 304.5Q198 280 198 252Q198 224 204 199Q210 174 222 155Q234 136 253 125.5Q272 115 299 115Z" glyph-name="a" horiz-adv-x="613" unicode="a" /><glyph d="M261 -15Q217 -15 176 2.5Q135 20 103 52.5Q71 85 52 132Q33 179 33 238V257Q33 310 50.5 357Q68 404 99.5 439Q131 474 174 494.5Q217 515 268 515H269Q320 515 357.5 496Q395 477 419 442H421L441 500H554V0H434L414 61H412Q383 20 347.5 2.5Q312 -15 261 -15ZM299 115Q326 115 345 125.5Q364 136 376 154Q388 172 394 196.5Q400 221 400 249Q400 278 394 302.5Q388 327 376 346Q364 365 345 375.5Q326 386 299 386Q272 386 253 375.5Q234 365 222 347Q210 329 204 304.5Q198 280 198 252Q198 224 204 199Q210 174 222 155Q234 136 253 125.5Q272 115 299 115ZM445 642 172 539 132 626 387 765Z" glyph-name="aacute" horiz-adv-x="613" unicode="&#225;" /><glyph d="M261 -15Q217 -15 176 2.5Q135 20 103 52.5Q71 85 52 132Q33 179 33 238V257Q33 310 50.5 357Q68 404 99.5 439Q131 474 174 494.5Q217 515 268 515H269Q320 515 357.5 496Q395 477 419 442H421L441 500H554V0H434L414 61H412Q383 20 347.5 2.5Q312 -15 261 -15ZM299 115Q326 115 345 125.5Q364 136 376 154Q388 172 394 196.5Q400 221 400 249Q400 278 394 302.5Q388 327 376 346Q364 365 345 375.5Q326 386 299 386Q272 386 253 375.5Q234 365 222 347Q210 329 204 304.5Q198 280 198 252Q198 224 204 199Q210 174 222 155Q234 136 253 125.5Q272 115 299 115ZM286 617 146 535 93 615 273 753H299L477 615L424 535Z" glyph-name="acircumflex" horiz-adv-x="613" unicode="&#226;" /><glyph d="M413 642 140 539 100 626 355 765Z" glyph-name="acute" horiz-adv-x="500" unicode="&#180;" /><glyph d="M261 -15Q217 -15 176 2.5Q135 20 103 52.5Q71 85 52 132Q33 179 33 238V257Q33 310 50.5 357Q68 404 99.5 439Q131 474 174 494.5Q217 515 268 515H269Q320 515 357.5 496Q395 477 419 442H421L441 500H554V0H434L414 61H412Q383 20 347.5 2.5Q312 -15 261 -15ZM299 115Q326 115 345 125.5Q364 136 376 154Q388 172 394 196.5Q400 221 400 249Q400 278 394 302.5Q388 327 376 346Q364 365 345 375.5Q326 386 299 386Q272 386 253 375.5Q234 365 222 347Q210 329 204 304.5Q198 280 198 252Q198 224 204 199Q210 174 222 155Q234 136 253 125.5Q272 115 299 115ZM401 554Q365 554 340 575.5Q315 597 315 635Q315 672 340 694Q365 716 401 716Q436 716 461 694Q486 672 486 635Q486 597 461 575.5Q436 554 401 554ZM185 554Q150 554 125 575.5Q100 597 100 635Q100 672 125 694Q150 716 185 716Q221 716 245.5 694Q270 672 270 635Q270 597 245.5 575.5Q221 554 185 554Z" glyph-name="adieresis" horiz-adv-x="613" unicode="&#228;" /><glyph d="M224 -16Q187 -16 152.5 -5.5Q118 5 91 25.5Q64 46 48 75Q32 104 32 141V152Q32 210 75 253Q103 282 152 297.5Q201 313 256 313Q281 313 301 310.5Q321 308 344 302V325Q344 363 327.5 383Q311 403 277 403Q241 403 226 386Q211 369 209 347V345H59V358Q59 397 78 426.5Q97 456 127 475.5Q157 495 195 505Q233 515 271 515Q326 515 371 503.5Q416 492 449 459Q503 516 595 516Q643 516 686 500.5Q729 485 762 454.5Q795 424 814.5 377Q834 330 834 267Q834 252 833.5 236Q833 220 832 212H511Q515 165 538 134.5Q561 104 605 104Q633 104 654 115.5Q675 127 686 156H833Q824 113 802.5 80.5Q781 48 750 26.5Q719 5 680.5 -5.5Q642 -16 601 -16Q548 -16 501.5 2Q455 20 420 55Q398 31 373.5 17Q349 3 323.5 -4.5Q298 -12 273 -14Q248 -16 224 -16ZM256 103Q269 103 285.5 108.5Q302 114 317 124Q332 134 342.5 148Q353 162 354 180Q353 183 352.5 186.5Q352 190 350 197Q335 205 315.5 210.5Q296 216 274 216Q258 216 242.5 213Q227 210 214.5 203Q202 196 194.5 184Q187 172 187 155Q187 128 206 115.5Q225 103 256 103ZM678 312Q678 353 658.5 378.5Q639 404 599 404Q558 404 538.5 377.5Q519 351 514 312Z" glyph-name="ae" horiz-adv-x="867" unicode="&#230;" /><glyph d="M261 -15Q217 -15 176 2.5Q135 20 103 52.5Q71 85 52 132Q33 179 33 238V257Q33 310 50.5 357Q68 404 99.5 439Q131 474 174 494.5Q217 515 268 515H269Q320 515 357.5 496Q395 477 419 442H421L441 500H554V0H434L414 61H412Q383 20 347.5 2.5Q312 -15 261 -15ZM299 115Q326 115 345 125.5Q364 136 376 154Q388 172 394 196.5Q400 221 400 249Q400 278 394 302.5Q388 327 376 346Q364 365 345 375.5Q326 386 299 386Q272 386 253 375.5Q234 365 222 347Q210 329 204 304.5Q198 280 198 252Q198 224 204 199Q210 174 222 155Q234 136 253 125.5Q272 115 299 115ZM418 626 378 539 105 642 163 765Z" glyph-name="agrave" horiz-adv-x="613" unicode="&#224;" /><glyph d="M314 -15Q270 -15 225 -5.5Q180 4 143.5 25.5Q107 47 84 82.5Q61 118 61 170V185Q61 212 71 238.5Q81 265 98 289Q115 313 138 334Q161 355 187 370Q165 403 150.5 440.5Q136 478 134 514V527Q134 559 146.5 589.5Q159 620 183 643.5Q207 667 241.5 681Q276 695 320 695Q362 695 395.5 681Q429 667 452 644.5Q475 622 487.5 593Q500 564 500 534V523Q500 469 464.5 425Q429 381 375 348Q394 322 417.5 295Q441 268 466 242Q475 231 484.5 220.5Q494 210 503 200Q513 225 513 249Q513 278 501 309.5Q489 341 475 362V379H606Q629 350 638 312.5Q647 275 647 247Q647 212 636 176Q625 140 602 108Q631 83 659.5 60.5Q688 38 715 22V6L559 -15Q542 -7 525.5 3Q509 13 494 25Q459 6 414.5 -4.5Q370 -15 314 -15ZM323 106Q336 106 355.5 109Q375 112 391 117Q380 127 370 138Q360 149 349 161Q326 186 304 212Q282 238 262 264Q216 236 216 190Q216 169 225 153Q234 137 249 126.5Q264 116 283 111Q302 106 323 106ZM307 439Q340 458 356.5 479.5Q373 501 373 530Q373 554 361 572Q349 590 323 590Q301 590 286 574.5Q271 559 271 529Q271 506 281 484Q291 462 307 439Z" glyph-name="ampersand" horiz-adv-x="730" unicode="&amp;" /><glyph d="M80 338H72V468Q133 503 220 503Q249 503 278 499Q307 495 336.5 490Q366 485 395 481Q424 477 453 477Q492 477 527.5 484.5Q563 492 598 510L605 511V381Q573 363 536 353Q499 343 452 343Q423 343 393.5 347Q364 351 335 355.5Q306 360 277 364Q248 368 219 368Q185 368 150 361.5Q115 355 80 338ZM80 118H72V247Q133 282 220 282Q249 282 278 278Q307 274 336.5 269Q366 264 395 260Q424 256 453 256Q492 256 527.5 263.5Q563 271 598 289L605 290V161Q573 143 536 133Q499 123 452 123Q423 123 393.5 127Q364 131 335 135.5Q306 140 277 144Q248 148 219 148Q185 148 150 141.5Q115 135 80 118Z" glyph-name="approxequal" horiz-adv-x="677" unicode="&#8776;" /><glyph d="M261 -15Q217 -15 176 2.5Q135 20 103 52.5Q71 85 52 132Q33 179 33 238V257Q33 310 50.5 357Q68 404 99.5 439Q131 474 174 494Q183 499 193 502Q178 518 170 537Q161 558 161 581Q161 604 170 624Q179 644 195 659Q211 674 233.5 682.5Q256 691 282 691Q308 691 330.5 682.5Q353 674 369 659Q385 644 394 624Q403 604 403 581Q403 558 394 537.5Q385 517 369 501Q365 498 361 494Q396 475 419 442H421L441 500H554V0H434L414 61H412Q383 20 347.5 2.5Q312 -15 261 -15ZM299 115Q326 115 345 125.5Q364 136 376 154Q388 172 394 196.5Q400 221 400 249Q400 278 394 302.5Q388 327 376 346Q364 365 345 375.5Q326 386 299 386Q272 386 253 375.5Q234 365 222 347Q210 329 204 304.5Q198 280 198 252Q198 224 204 199Q210 174 222 155Q234 136 253 125.5Q272 115 299 115ZM282 538Q299 538 311.5 550.5Q324 563 324 581Q324 598 312 610Q300 622 282 622Q265 622 252.5 610Q240 598 240 581Q240 563 252.5 550.5Q265 538 282 538Z" glyph-name="aring" horiz-adv-x="613" unicode="&#229;" /><glyph d="M152 361H14L184 650H299L467 361H326L239 516Z" glyph-name="asciicircum" horiz-adv-x="481" unicode="^" /><glyph d="M52 209V326Q87 348 124.5 359Q162 370 196 370Q228 370 258 363Q288 356 317.5 347Q347 338 377 331Q407 324 439 324Q474 324 510 335Q546 346 583 371V254Q512 211 440 211Q408 211 378 217.5Q348 224 318.5 232.5Q289 241 259 247.5Q229 254 197 254Q162 254 124.5 243Q87 232 52 209Z" glyph-name="asciitilde" horiz-adv-x="635" unicode="~" /><glyph d="M216 480 164 384 78 443 156 519 50 536 81 633 181 587 166 696H269L252 587L352 633L384 536L276 521L351 444L270 384Z" glyph-name="asterisk" horiz-adv-x="433" unicode="*" /><glyph d="M409 -72Q330 -72 262 -47.5Q194 -23 144 22Q94 67 65.5 130Q37 193 37 269Q37 337 64.5 398Q92 459 140.5 504.5Q189 550 255.5 576.5Q322 603 399 603Q474 603 536 581Q598 559 642.5 520Q687 481 711 427Q735 373 735 309Q735 261 719.5 223.5Q704 186 678.5 160.5Q653 135 619 121.5Q585 108 549 108Q516 108 491 121.5Q466 135 453 163Q432 137 405 125.5Q378 114 351 114Q327 114 303.5 122Q280 130 261.5 146.5Q243 163 232 188.5Q221 214 221 249Q221 286 235 318.5Q249 351 272.5 375Q296 399 327.5 413Q359 427 394 427Q422 427 446 417Q470 407 482 383L500 418H569L541 236Q537 212 542.5 196.5Q548 181 569 181Q580 181 593 187Q606 193 617.5 207Q629 221 637 244.5Q645 268 645 302Q645 346 627 385Q609 424 576.5 452.5Q544 481 497.5 497.5Q451 514 394 514Q339 514 292 494.5Q245 475 211 441Q177 407 158 362Q139 317 139 267Q139 210 159.5 163.5Q180 117 216 84Q252 51 302 33Q352 15 410 15Q458 15 509 24.5Q560 34 605 56H621V-30Q573 -52 525 -62Q477 -72 409 -72ZM377 202Q409 202 427 227.5Q445 253 445 290Q445 342 398 342Q370 342 349.5 318Q329 294 329 257Q329 231 341.5 216.5Q354 202 377 202Z" glyph-name="at" horiz-adv-x="764" unicode="@" /><glyph d="M261 -15Q217 -15 176 2.5Q135 20 103 52.5Q71 85 52 132Q33 179 33 238V257Q33 310 50.5 357Q68 404 99.5 439Q131 474 174 494.5Q217 515 268 515H269Q320 515 357.5 496Q395 477 419 442H421L441 500H554V0H434L414 61H412Q383 20 347.5 2.5Q312 -15 261 -15ZM299 115Q326 115 345 125.5Q364 136 376 154Q388 172 394 196.5Q400 221 400 249Q400 278 394 302.5Q388 327 376 346Q364 365 345 375.5Q326 386 299 386Q272 386 253 375.5Q234 365 222 347Q210 329 204 304.5Q198 280 198 252Q198 224 204 199Q210 174 222 155Q234 136 253 125.5Q272 115 299 115ZM203 550H95Q95 582 103 611Q111 640 127.5 662.5Q144 685 168 698.5Q192 712 223 712Q244 712 259 705.5Q274 699 286.5 691.5Q299 684 311 677.5Q323 671 339 671Q344 671 350.5 672Q357 673 363 677.5Q369 682 373 690.5Q377 699 377 715H485Q485 683 477 654Q469 625 453 602.5Q437 580 413.5 566.5Q390 553 360 553Q338 553 322.5 559.5Q307 566 294.5 573.5Q282 581 270 587.5Q258 594 241 594Q237 594 230.5 593Q224 592 218 587.5Q212 583 207.5 574.5Q203 566 203 550Z" glyph-name="atilde" horiz-adv-x="613" unicode="&#227;" /><glyph d="M348 -15Q297 -15 257.5 4Q218 23 193 58H191L171 0H59V700H216V456H218Q239 483 276 499Q313 515 360 515Q404 515 444.5 497Q485 479 516.5 446Q548 413 567 366.5Q586 320 586 262V243Q586 190 568 143Q550 96 518 61Q486 26 442.5 5.5Q399 -15 348 -15ZM317 114Q344 114 363.5 124.5Q383 135 395.5 153Q408 171 414.5 195.5Q421 220 421 248Q421 277 414.5 301.5Q408 326 395.5 345Q383 364 363.5 374.5Q344 385 317 385Q290 385 270.5 374.5Q251 364 238.5 346Q226 328 219.5 303.5Q213 279 213 251Q213 223 219.5 198Q226 173 238.5 154Q251 135 270.5 124.5Q290 114 317 114Z" glyph-name="b" horiz-adv-x="619" unicode="b" /><glyph d="M347 -124 12 680V696H169L504 -108V-124Z" glyph-name="backslash" horiz-adv-x="516" unicode="\" /><glyph d="M337 -126H200V773H337Z" glyph-name="bar" horiz-adv-x="537" unicode="|" /><glyph d="M368 -124H283Q204 -124 167 -82.5Q130 -41 130 28V137Q130 195 107.5 227Q85 259 47 276V297Q85 314 107.5 344.5Q130 375 130 435V544Q130 613 167 654.5Q204 696 283 696H368V575H319Q292 575 284 555Q276 535 276 501V419Q276 376 266.5 351Q257 326 244 312.5Q231 299 216.5 294.5Q202 290 191 287V285Q202 283 216.5 278Q231 273 244 259.5Q257 246 266.5 221Q276 196 276 153V71Q276 37 284 17Q292 -3 319 -3H368Z" glyph-name="braceleft" horiz-adv-x="436" unicode="{" /><glyph d="M68 696H153Q232 696 269 654.5Q306 613 306 544V435Q306 377 328.5 345Q351 313 389 296V275Q351 258 328.5 227.5Q306 197 306 137V28Q306 -41 269 -82.5Q232 -124 153 -124H68V-3H117Q144 -3 152 17Q160 37 160 71V153Q160 196 169.5 221Q179 246 192 259.5Q205 273 220 277L245 285V287Q235 289 220 294Q205 299 192 312.5Q179 326 169.5 351Q160 376 160 419V501Q160 535 152 555Q144 575 117 575H68Z" glyph-name="braceright" horiz-adv-x="436" unicode="}" /><glyph d="M353 -124H68V696H354V575H218V-3H353Z" glyph-name="bracketleft" horiz-adv-x="407" unicode="[" /><glyph d="M54 696H339V-124H53V-3H189V575H54Z" glyph-name="bracketright" horiz-adv-x="407" unicode="]" /><glyph d="M248 541Q170 541 118.5 582Q67 623 56 708H186Q191 679 206.5 662.5Q222 646 250 646Q279 646 294.5 662.5Q310 679 315 708H444Q433 623 379.5 582Q326 541 248 541Z" glyph-name="breve" horiz-adv-x="500" unicode="&#728;" /><glyph d="M240 165Q213 165 189 173Q165 181 147 196Q129 211 118.5 233Q108 255 108 284V295Q108 323 118.5 345.5Q129 368 147 383.5Q165 399 189 407.5Q213 416 240 416Q267 416 291 407.5Q315 399 333 383.5Q351 368 361.5 345.5Q372 323 372 295V284Q372 255 361.5 233Q351 211 333 196Q315 181 291 173Q267 165 240 165Z" glyph-name="bullet" horiz-adv-x="480" unicode="&#8226;" /><glyph d="M295 -16Q242 -16 194.5 2Q147 20 111 53Q75 86 54 133.5Q33 181 33 240V259Q33 316 53.5 363.5Q74 411 109.5 444.5Q145 478 192.5 497Q240 516 294 516Q342 516 385 503Q428 490 461.5 464.5Q495 439 516.5 402Q538 365 542 317V304H399Q391 346 365.5 368.5Q340 391 301 391Q245 391 218.5 350.5Q192 310 192 250Q192 189 218.5 149Q245 109 301 109Q343 109 366 130.5Q389 152 399 196H542V183Q537 135 514.5 98Q492 61 458.5 35.5Q425 10 382.5 -3Q340 -16 295 -16Z" glyph-name="c" horiz-adv-x="562" unicode="c" /><glyph d="M261 539H235L56 677L109 757L248 674L388 757L441 677Z" glyph-name="caron" horiz-adv-x="500" unicode="&#711;" /><glyph d="M260 -195Q235 -195 207.5 -191Q180 -187 162 -180V-108H178Q216 -124 243 -124Q265 -124 278 -118Q291 -112 291 -101Q291 -75 243 -74L237 -63L258 -14Q225 -9 194 2Q147 20 111 53Q75 86 54 133.5Q33 181 33 240V259Q33 316 53.5 363.5Q74 411 109.5 444.5Q145 478 192.5 497Q240 516 294 516Q342 516 385 503Q428 490 461.5 464.5Q495 439 516.5 402Q538 365 542 317V304H399Q391 346 365.5 368.5Q340 391 301 391Q245 391 218.5 350.5Q192 310 192 250Q192 189 218.5 149Q245 109 301 109Q343 109 366 130.5Q389 152 399 196H542V183Q537 135 514.5 98Q492 61 458.5 35.5Q425 10 382 -3Q360 -10 337 -13L329 -46Q354 -50 375.5 -67Q397 -84 397 -109Q397 -135 384.5 -151.5Q372 -168 352.5 -177.5Q333 -187 308.5 -191Q284 -195 260 -195Z" glyph-name="ccedilla" horiz-adv-x="562" unicode="&#231;" /><glyph d="M214 -195Q189 -195 161.5 -191Q134 -187 116 -180V-108H132Q170 -124 197 -124Q219 -124 232 -118Q245 -112 245 -101Q245 -75 197 -74L191 -63L220 5H296L283 -46Q308 -50 329.5 -67Q351 -84 351 -109Q351 -135 338.5 -151.5Q326 -168 306.5 -177.5Q287 -187 262.5 -191Q238 -195 214 -195Z" glyph-name="cedilla" horiz-adv-x="500" unicode="&#184;" /><glyph d="M335 -126H254V-13Q223 -9 194 2Q147 20 111 53Q75 86 54 133.5Q33 181 33 240V259Q33 316 53.5 363.5Q74 411 109.5 444.5Q145 478 192 497Q222 509 254 513V635H335V513Q361 510 385 503Q428 490 461.5 464.5Q495 439 516.5 402Q538 365 542 317V304H399Q391 346 365 368Q352 380 335 386V113Q353 118 366 130Q389 152 399 196H542V183Q537 135 514.5 98Q492 61 458.5 35.5Q425 10 382 -3Q359 -10 335 -13ZM218 350Q192 310 192 250Q192 189 218 149Q232 128 254 118V382Q232 371 218 350Z" glyph-name="cent" horiz-adv-x="560" unicode="&#162;" /><glyph d="M250 617 110 535 57 615 237 753H263L441 615L388 535Z" glyph-name="circumflex" horiz-adv-x="500" unicode="&#710;" /><glyph d="M172 -8Q131 -8 102.5 14.5Q74 37 74 80V88Q74 130 102.5 154Q131 178 172 178Q213 178 241.5 154Q270 130 270 88V80Q270 37 241.5 14.5Q213 -8 172 -8ZM172 283Q131 283 102.5 305.5Q74 328 74 371V379Q74 421 102.5 445Q131 469 172 469Q213 469 241.5 445Q270 421 270 379V371Q270 328 241.5 305.5Q213 283 172 283Z" glyph-name="colon" horiz-adv-x="346" unicode=":" /><glyph d="M175 -127H57L104 167H283V151Z" glyph-name="comma" horiz-adv-x="346" unicode="," /><glyph d="M386 -13Q311 -13 246 13.5Q181 40 134 86Q87 132 60 194Q33 256 33 326Q33 396 60 457.5Q87 519 134 565Q181 611 246 638Q311 665 386 665Q461 665 525.5 638Q590 611 637.5 565Q685 519 712 457.5Q739 396 739 326Q739 256 712 194Q685 132 637.5 86Q590 40 525.5 13.5Q461 -13 386 -13ZM386 76Q440 76 486 95.5Q532 115 565.5 149Q599 183 618 228.5Q637 274 637 325Q637 377 618 422.5Q599 468 565.5 502Q532 536 486 555.5Q440 575 386 575Q332 575 286 555.5Q240 536 206.5 502Q173 468 154 422.5Q135 377 135 325Q135 274 154 228.5Q173 183 206.5 149Q240 115 286 95.5Q332 76 386 76ZM389 146Q354 146 322 158.5Q290 171 266 194Q242 217 228 249.5Q214 282 214 322V335Q214 375 228 407.5Q242 440 266 463Q290 486 322 498.5Q354 511 389 511Q451 511 494.5 477Q538 443 548 380V372H459Q454 398 437.5 412.5Q421 427 390 427Q353 427 332.5 399Q312 371 312 329Q312 287 332.5 258Q353 229 391 229Q421 229 437 243.5Q453 258 459 284H548V274Q540 214 495.5 180Q451 146 389 146Z" glyph-name="copyright" horiz-adv-x="772" unicode="&#169;" /><glyph d="M262 -15Q218 -15 177 2.5Q136 20 104 52.5Q72 85 52.5 132Q33 179 33 238V257Q33 310 51 357Q69 404 100.5 439Q132 474 175 494.5Q218 515 269 515Q359 515 402 466H404V700H560V0H440L420 61H418Q389 20 351 2.5Q313 -15 262 -15ZM302 115Q329 115 348.5 125.5Q368 136 380.5 154Q393 172 399.5 196.5Q406 221 406 249Q406 278 399.5 302.5Q393 327 380.5 346Q368 365 348.5 375.5Q329 386 302 386Q275 386 255.5 375.5Q236 365 223.5 347Q211 329 204.5 304.5Q198 280 198 252Q198 224 204.5 199Q211 174 223.5 155Q236 136 255.5 125.5Q275 115 302 115Z" glyph-name="d" horiz-adv-x="619" unicode="d" /><glyph d="M271 -78H153V351H57V453H153V700H271V453H370V351H271Z" glyph-name="dagger" horiz-adv-x="427" unicode="&#8224;" /><glyph d="M272 -78H154V141H57V243H154V351H57V453H154V700H272V453H370V351H272V243H370V141H272Z" glyph-name="daggerdbl" horiz-adv-x="427" unicode="&#8225;" /><glyph d="M227 331Q190 331 157 342Q124 353 100 373Q76 393 62 422.5Q48 452 48 489V500Q48 537 62 566.5Q76 596 100 617Q124 638 157 649Q190 660 227 660Q264 660 297 649Q330 638 354.5 617Q379 596 393 566.5Q407 537 407 500V489Q407 452 393 422.5Q379 393 354.5 373Q330 353 297 342Q264 331 227 331ZM227 427Q258 427 279.5 444Q301 461 301 489V500Q301 528 279.5 546Q258 564 227 564Q196 564 175 546Q154 528 154 500V489Q154 461 175 444Q196 427 227 427Z" glyph-name="degree" horiz-adv-x="455" unicode="&#176;" /><glyph d="M358 554Q322 554 297 575.5Q272 597 272 635Q272 672 297 694Q322 716 358 716Q393 716 418 694Q443 672 443 635Q443 597 418 575.5Q393 554 358 554ZM142 554Q107 554 82 575.5Q57 597 57 635Q57 672 82 694Q107 716 142 716Q178 716 202.5 694Q227 672 227 635Q227 597 202.5 575.5Q178 554 142 554Z" glyph-name="dieresis" horiz-adv-x="500" unicode="&#168;" /><glyph d="M585 262H52V395H585ZM319 59Q281 59 253.5 80.5Q226 102 226 140Q226 177 253.5 199.5Q281 222 319 222Q357 222 384.5 199.5Q412 177 412 140Q412 102 384.5 80.5Q357 59 319 59ZM319 435Q281 435 253.5 456.5Q226 478 226 516Q226 553 253.5 575.5Q281 598 319 598Q357 598 384.5 575.5Q412 553 412 516Q412 478 384.5 456.5Q357 435 319 435Z" glyph-name="divide" horiz-adv-x="637" unicode="&#247;" /><glyph d="M320 641Q339 639 357 635Q397 627 428 607.5Q459 588 479 556.5Q499 525 503 480V467H355Q353 493 335 511Q327 519 316 524V397Q317 397 318 396Q346 389 373.5 380Q401 371 426 358.5Q451 346 468 329Q487 310 501.5 278Q516 246 516 211V202Q516 147 494.5 109.5Q473 72 438.5 49Q404 26 360 16Q338 11 316 8V-105H236V7Q208 9 181 15Q139 25 106.5 46Q74 67 53.5 101Q33 135 29 184V197H181Q183 155 209 137Q221 128 238 123V267L186 283Q157 292 131 304Q105 316 88 333Q70 351 55.5 383Q41 415 41 447V456Q41 508 61.5 544Q82 580 115 602Q148 624 189 634Q215 640 241 642V731H320ZM351 220Q342 232 316 243V124Q329 129 340 137Q363 155 363 181Q363 205 351 220ZM216 431Q225 425 237 420V524Q225 520 217 514Q198 498 198 474Q198 444 216 431Z" glyph-name="dollar" horiz-adv-x="554" unicode="$" /><glyph d="M250 549Q215 549 189.5 570.5Q164 592 164 630Q164 666 189.5 687.5Q215 709 250 709Q285 709 310 687.5Q335 666 335 630Q335 592 310 570.5Q285 549 250 549Z" glyph-name="dotaccent" horiz-adv-x="500" unicode="&#729;" /><glyph d="M215 0H57V500H215Z" glyph-name="dotlessi" horiz-adv-x="271" unicode="&#305;" /><glyph d="M297 -16Q244 -16 196 1.5Q148 19 112 52Q76 85 54.5 132.5Q33 180 33 240V257Q33 316 53 364Q73 412 108 445.5Q143 479 190 497.5Q237 516 291 516Q339 516 384 500.5Q429 485 463.5 454.5Q498 424 518.5 377Q539 330 539 267Q539 252 538.5 236Q538 220 537 212H193Q198 165 225 134.5Q252 104 301 104Q332 104 356 115.5Q380 127 391 156H538Q529 113 506.5 80.5Q484 48 451.5 26.5Q419 5 379.5 -5.5Q340 -16 297 -16ZM383 312Q383 353 359 378.5Q335 404 295 404Q249 404 225.5 377.5Q202 351 196 312Z" glyph-name="e" horiz-adv-x="572" unicode="e" /><glyph d="M297 -16Q244 -16 196 1.5Q148 19 112 52Q76 85 54.5 132.5Q33 180 33 240V257Q33 316 53 364Q73 412 108 445.5Q143 479 190 497.5Q237 516 291 516Q339 516 384 500.5Q429 485 463.5 454.5Q498 424 518.5 377Q539 330 539 267Q539 252 538.5 236Q538 220 537 212H193Q198 165 225 134.5Q252 104 301 104Q332 104 356 115.5Q380 127 391 156H538Q529 113 506.5 80.5Q484 48 451.5 26.5Q419 5 379.5 -5.5Q340 -16 297 -16ZM383 312Q383 353 359 378.5Q335 404 295 404Q249 404 225.5 377.5Q202 351 196 312ZM454 642 181 539 141 626 396 765Z" glyph-name="eacute" horiz-adv-x="572" unicode="&#233;" /><glyph d="M297 -16Q244 -16 196 1.5Q148 19 112 52Q76 85 54.5 132.5Q33 180 33 240V257Q33 316 53 364Q73 412 108 445.5Q143 479 190 497.5Q237 516 291 516Q339 516 384 500.5Q429 485 463.5 454.5Q498 424 518.5 377Q539 330 539 267Q539 252 538.5 236Q538 220 537 212H193Q198 165 225 134.5Q252 104 301 104Q332 104 356 115.5Q380 127 391 156H538Q529 113 506.5 80.5Q484 48 451.5 26.5Q419 5 379.5 -5.5Q340 -16 297 -16ZM383 312Q383 353 359 378.5Q335 404 295 404Q249 404 225.5 377.5Q202 351 196 312ZM289 617 149 535 96 615 276 753H302L480 615L427 535Z" glyph-name="ecircumflex" horiz-adv-x="572" unicode="&#234;" /><glyph d="M297 -16Q244 -16 196 1.5Q148 19 112 52Q76 85 54.5 132.5Q33 180 33 240V257Q33 316 53 364Q73 412 108 445.5Q143 479 190 497.5Q237 516 291 516Q339 516 384 500.5Q429 485 463.5 454.5Q498 424 518.5 377Q539 330 539 267Q539 252 538.5 236Q538 220 537 212H193Q198 165 225 134.5Q252 104 301 104Q332 104 356 115.5Q380 127 391 156H538Q529 113 506.5 80.5Q484 48 451.5 26.5Q419 5 379.5 -5.5Q340 -16 297 -16ZM383 312Q383 353 359 378.5Q335 404 295 404Q249 404 225.5 377.5Q202 351 196 312ZM396 554Q360 554 335 575.5Q310 597 310 635Q310 672 335 694Q360 716 396 716Q431 716 456 694Q481 672 481 635Q481 597 456 575.5Q431 554 396 554ZM180 554Q145 554 120 575.5Q95 597 95 635Q95 672 120 694Q145 716 180 716Q216 716 240.5 694Q265 672 265 635Q265 597 240.5 575.5Q216 554 180 554Z" glyph-name="edieresis" horiz-adv-x="572" unicode="&#235;" /><glyph d="M297 -16Q244 -16 196 1.5Q148 19 112 52Q76 85 54.5 132.5Q33 180 33 240V257Q33 316 53 364Q73 412 108 445.5Q143 479 190 497.5Q237 516 291 516Q339 516 384 500.5Q429 485 463.5 454.5Q498 424 518.5 377Q539 330 539 267Q539 252 538.5 236Q538 220 537 212H193Q198 165 225 134.5Q252 104 301 104Q332 104 356 115.5Q380 127 391 156H538Q529 113 506.5 80.5Q484 48 451.5 26.5Q419 5 379.5 -5.5Q340 -16 297 -16ZM383 312Q383 353 359 378.5Q335 404 295 404Q249 404 225.5 377.5Q202 351 196 312ZM437 626 397 539 124 642 182 765Z" glyph-name="egrave" horiz-adv-x="572" unicode="&#232;" /><glyph d="M290 -16Q239 -16 192.5 -5Q146 6 111.5 29Q77 52 56.5 89Q36 126 36 177V188Q36 234 63 274.5Q90 315 132 336V338Q117 347 104 362Q91 377 81 395Q71 413 65.5 433Q60 453 60 472V479Q60 524 77 558.5Q94 593 125 616.5Q156 640 198 652.5Q240 665 289 665Q339 665 381.5 652.5Q424 640 455 616.5Q486 593 503 558.5Q520 524 520 479V472Q520 453 514.5 433Q509 413 499 395Q489 377 476 362Q463 347 448 338V336Q490 315 517 274.5Q544 234 544 188V177Q544 126 524 89Q504 52 469.5 29Q435 6 388.5 -5Q342 -16 290 -16ZM290 99Q340 99 363.5 123.5Q387 148 387 184Q387 201 381 217.5Q375 234 363 247.5Q351 261 333 269.5Q315 278 290 278Q265 278 247 269.5Q229 261 217 247.5Q205 234 199 217.5Q193 201 193 184Q193 148 217 123.5Q241 99 290 99ZM290 389Q311 389 326 397Q341 405 351 417.5Q361 430 366 445.5Q371 461 371 475Q371 509 351.5 533.5Q332 558 290 558Q248 558 228.5 533.5Q209 509 209 475Q209 461 214 445.5Q219 430 229 417.5Q239 405 254 397Q269 389 290 389Z" glyph-name="eight" horiz-adv-x="580" unicode="8" /><glyph d="M173 -8Q132 -8 103.5 14.5Q75 37 75 80V88Q75 130 103.5 154Q132 178 173 178Q214 178 242.5 154Q271 130 271 88V80Q271 37 242.5 14.5Q214 -8 173 -8ZM519 -8Q478 -8 449.5 14.5Q421 37 421 80V88Q421 130 449.5 154Q478 178 519 178Q560 178 588.5 154Q617 130 617 88V80Q617 37 588.5 14.5Q560 -8 519 -8ZM865 -8Q824 -8 795.5 14.5Q767 37 767 80V88Q767 130 795.5 154Q824 178 865 178Q906 178 934.5 154Q963 130 963 88V80Q963 37 934.5 14.5Q906 -8 865 -8Z" glyph-name="ellipsis" horiz-adv-x="1038" unicode="&#8230;" /><glyph d="M736 234H52V347H736Z" glyph-name="emdash" horiz-adv-x="788" unicode="&#8212;" /><glyph d="M582 234H52V347H582Z" glyph-name="endash" horiz-adv-x="634" unicode="&#8211;" /><glyph d="M604 371H72V503H604ZM604 153H72V284H604Z" glyph-name="equal" horiz-adv-x="676" unicode="=" /><glyph d="M243 229H101L80 632V650H266V632ZM169 -8Q128 -8 100 14.5Q72 37 72 79V87Q72 129 100 152Q128 175 169 175Q210 175 238.5 152Q267 129 267 87V79Q267 37 238.5 14.5Q210 -8 169 -8Z" glyph-name="exclam" horiz-adv-x="339" unicode="!" /><glyph d="M260 -140H72L96 279H238ZM170 333Q129 333 100.5 356Q72 379 72 421V429Q72 471 100.5 493.5Q129 516 170 516Q211 516 239 493.5Q267 471 267 429V421Q267 379 239 356Q211 333 170 333Z" glyph-name="exclamdown" horiz-adv-x="339" unicode="&#161;" /><glyph d="M252 0H93V381H22V453L93 487V529Q93 619 141.5 667Q190 715 278 715Q303 715 331.5 712.5Q360 710 388 703V591H374Q360 595 342.5 597Q325 599 311 599Q278 599 263.5 587Q249 575 249 542V494H387V381H252Z" glyph-name="f" horiz-adv-x="414" unicode="f" /><glyph d="M617 0H459V500H617ZM538 550Q498 550 470 571Q442 592 442 631V638Q442 677 470 699Q498 721 538 721Q577 721 605.5 699Q634 677 634 638V631Q634 592 605.5 571Q577 550 538 550ZM252 0H93V381H22V453L93 487V529Q93 619 141.5 667Q190 715 278 715Q303 715 326.5 712.5Q350 710 378 703V591H364Q350 595 337.5 597Q325 599 311 599Q278 599 263.5 587Q249 575 249 542V494H377V381H252Z" glyph-name="fi" horiz-adv-x="673" unicode="&#64257;" /><glyph d="M234 -15Q180 -15 128 -6.5Q76 2 28 25V167H45Q93 142 136 130Q179 118 228 118Q289 118 316.5 143.5Q344 169 344 208Q344 235 332 252Q320 269 300.5 279Q281 289 255 292.5Q229 296 200 296Q165 296 128 292Q91 288 69 284L53 297L90 650H468V522H221L210 422Q266 427 318 415.5Q370 404 410.5 378.5Q451 353 475.5 313.5Q500 274 500 222V208Q500 150 477 107.5Q454 65 416.5 38Q379 11 331.5 -2Q284 -15 234 -15Z" glyph-name="five" horiz-adv-x="533" unicode="5" /><glyph d="M621 -6Q546 -6 503 30.5Q460 67 460 153V700H617V181Q617 144 631.5 129Q646 114 684 119H696V3Q674 -2 658 -4Q642 -6 621 -6ZM252 0H93V381H22V453L93 487V529Q93 619 141.5 667Q190 715 278 715Q303 715 326.5 712.5Q350 710 378 703V591H364Q350 595 337.5 597Q325 599 311 599Q278 599 263.5 587Q249 575 249 542V494H377V381H252Z" glyph-name="fl" horiz-adv-x="717" unicode="&#64258;" /><glyph d="M190 -90H31L70 288H-1L11 401H82L91 479Q101 569 154.5 617Q208 665 296 665Q321 665 349 662.5Q377 660 404 653L393 541H379Q365 545 347.5 547Q330 549 316 549Q283 549 267.5 537Q252 525 248 492L238 401H376L364 288H229Z" glyph-name="florin" horiz-adv-x="432" unicode="&#402;" /><glyph d="M490 0H331V158H24L11 245L329 650H490V285H586V158H490ZM191 284V282Q199 284 213 284.5Q227 285 240 285H341V428Q341 462 344 498H342Q335 485 327 469.5Q319 454 308 440L228 334Q220 322 210 308.5Q200 295 191 284Z" glyph-name="four" horiz-adv-x="606" unicode="4" /><glyph d="M-50 0H-135V17Q-120 44 -91.5 93.5Q-63 143 -29 204.5Q5 266 43 333.5Q81 401 115 462.5Q149 524 177.5 574Q206 624 221 650H313V632Z" glyph-name="fraction" horiz-adv-x="178" unicode="&#8260;" /><glyph d="M314 -204Q198 -204 131 -153Q64 -102 59 -18V-10H212Q214 -32 223.5 -46.5Q233 -61 247.5 -69.5Q262 -78 278 -81.5Q294 -85 307 -85Q322 -85 339.5 -81Q357 -77 372 -66.5Q387 -56 396.5 -38.5Q406 -21 406 6V60H404Q381 33 349 22.5Q317 12 271 13Q227 14 184.5 29Q142 44 108 73Q74 102 53.5 146.5Q33 191 33 250V269Q33 322 51 367Q69 412 100.5 445Q132 478 175 496.5Q218 515 269 515H270Q321 515 361 496Q401 477 425 442H427L447 500H560V-4Q560 -52 541 -89Q522 -126 488.5 -151.5Q455 -177 410 -190.5Q365 -204 314 -204ZM302 143Q356 143 381 176Q406 209 406 263Q406 317 381 351Q356 385 302 385Q248 385 223 351Q198 317 198 264Q198 210 223 176.5Q248 143 302 143Z" glyph-name="g" horiz-adv-x="619" unicode="g" /><glyph d="M366 -14Q346 -14 316.5 -10.5Q287 -7 268 1V123H288Q297 118 313.5 115.5Q330 113 342 113Q377 113 402 137Q427 161 427 208Q427 248 401.5 273.5Q376 299 335 299H281V429H290Q336 429 354.5 454.5Q373 480 373 519Q373 551 353 572.5Q333 594 295 594Q270 594 254 585Q238 576 229 562Q220 548 217 529.5Q214 511 214 491V0H59V500Q59 602 119.5 658.5Q180 715 292 715Q337 715 379 704.5Q421 694 453.5 671.5Q486 649 505.5 614.5Q525 580 525 532V519Q525 476 505.5 441.5Q486 407 461 390V388Q485 381 506.5 365Q528 349 544 326.5Q560 304 569.5 276Q579 248 579 216V202Q579 149 560 108.5Q541 68 511 41Q481 14 443 0Q405 -14 366 -14Z" glyph-name="germandbls" horiz-adv-x="607" unicode="&#223;" /><glyph d="M401 626 361 539 88 642 146 765Z" glyph-name="grave" horiz-adv-x="500" unicode="`" /><glyph d="M82 452V616L593 375V274L84 36V195L318 298Q329 303 350 310.5Q371 318 384 322V324Q371 328 349.5 335.5Q328 343 317 348Z" glyph-name="greater" horiz-adv-x="645" unicode="&gt;" /><glyph d="M82 347 256 403Q279 411 300.5 415.5Q322 420 345 425V427Q322 432 300 437.5Q278 443 256 450L84 506V650L575 478V377L82 200ZM83 34V170H576V34Z" glyph-name="greaterequal" horiz-adv-x="648" unicode="&#8805;" /><glyph d="M321 60H173L16 248V257L173 445H321V431L172 252L321 74ZM551 60H403L246 248V257L403 445H551V431L402 252L551 74Z" glyph-name="guillemotleft" horiz-adv-x="582" unicode="&#171;" /><glyph d="M31 60V74L180 252L31 431V445H179L336 257V248L179 60ZM261 60V74L410 252L261 431V445H409L566 257V248L409 60Z" glyph-name="guillemotright" horiz-adv-x="582" unicode="&#187;" /><glyph d="M321 60H173L16 248V257L173 445H321V431L172 252L321 74Z" glyph-name="guilsinglleft" horiz-adv-x="352" unicode="&#8249;" /><glyph d="M31 60V74L180 252L31 431V445H179L336 257V248L179 60Z" glyph-name="guilsinglright" horiz-adv-x="352" unicode="&#8250;" /><glyph d="M216 0H59V700H216V454H218Q267 515 352 515Q397 515 431 501Q465 487 487.5 462.5Q510 438 521 405.5Q532 373 532 337V0H375V290Q375 340 353.5 362.5Q332 385 299 385Q260 385 238 361.5Q216 338 216 290Z" glyph-name="h" horiz-adv-x="580" unicode="h" /><glyph d="M509 685 339 535 264 606 409 781ZM283 689 116 535 43 606 187 781Z" glyph-name="hungarumlaut" horiz-adv-x="500" unicode="&#733;" /><glyph d="M424 222H52V362H424Z" glyph-name="hyphen" horiz-adv-x="476" unicode="-" /><glyph d="M215 0H57V500H215ZM136 550Q96 550 68 571Q40 592 40 631V638Q40 677 68 699Q96 721 136 721Q175 721 203.5 699Q232 677 232 638V631Q232 592 203.5 571Q175 550 136 550Z" glyph-name="i" horiz-adv-x="271" unicode="i" /><glyph d="M215 0H57V500H215ZM288 642 15 539 -25 626 230 765Z" glyph-name="iacute" horiz-adv-x="271" unicode="&#237;" /><glyph d="M215 0H57V500H215ZM137 617 -3 535 -56 615 124 753H150L328 615L275 535Z" glyph-name="icircumflex" horiz-adv-x="271" unicode="&#238;" /><glyph d="M215 0H57V500H215ZM245 554Q209 554 184 575.5Q159 597 159 635Q159 672 184 694Q209 716 245 716Q280 716 305 694Q330 672 330 635Q330 597 305 575.5Q280 554 245 554ZM29 554Q-6 554 -31 575.5Q-56 597 -56 635Q-56 672 -31 694Q-6 716 29 716Q65 716 89.5 694Q114 672 114 635Q114 597 89.5 575.5Q65 554 29 554Z" glyph-name="idieresis" horiz-adv-x="271" unicode="&#239;" /><glyph d="M215 0H57V500H215ZM271 626 231 539 -42 642 16 765Z" glyph-name="igrave" horiz-adv-x="271" unicode="&#236;" /><glyph d="M115 -180H-38V-163Q-11 -144 7.5 -117.5Q26 -91 37 -61.5Q48 -32 52.5 -2.5Q57 27 57 52V500H215V45Q215 -24 188.5 -84.5Q162 -145 115 -180ZM136 550Q96 550 68 571Q40 592 40 631V638Q40 677 68 699Q96 721 136 721Q175 721 203.5 699Q232 677 232 638V631Q232 592 203.5 571Q175 550 136 550Z" glyph-name="j" horiz-adv-x="272" unicode="j" /><glyph d="M217 0H59V700H217V306L364 500H532V483L366 275L578 17V0H397L217 221Z" glyph-name="k" horiz-adv-x="578" unicode="k" /><glyph d="M215 -6Q140 -6 97 30.5Q54 67 54 153V700H211V181Q211 144 225.5 129Q240 114 278 119H290V3Q268 -2 252 -4Q236 -6 215 -6Z" glyph-name="l" horiz-adv-x="311" unicode="l" /><glyph d="M563 200V36L52 277V378L561 616V457L327 354Q316 349 295 341.5Q274 334 261 330V328Q274 324 295.5 316.5Q317 309 328 304Z" glyph-name="less" horiz-adv-x="645" unicode="&lt;" /><glyph d="M566 347V200L73 377V478L564 650V506L392 450Q370 443 348 437.5Q326 432 303 427V425Q326 420 347.5 415.5Q369 411 392 403ZM565 34H72V170H565Z" glyph-name="lessequal" horiz-adv-x="648" unicode="&#8804;" /><glyph d="M526 263H368V430H26V561H526Z" glyph-name="logicalnot" horiz-adv-x="569" unicode="&#172;" /><glyph d="M216 0H59V500H181L201 436H203Q226 478 261 496.5Q296 515 341 515Q397 515 433 493Q469 471 489 434H491Q515 476 554 495.5Q593 515 638 515Q682 515 714 502Q746 489 767 466.5Q788 444 798.5 413Q809 382 809 346V0H652V299Q652 350 633 367.5Q614 385 585 385Q551 385 532 365.5Q513 346 513 299V0H355V299Q355 350 336 367.5Q317 385 288 385Q254 385 235 365Q216 345 216 297Z" glyph-name="m" horiz-adv-x="858" unicode="m" /><glyph d="M426 570H73V683H426Z" glyph-name="macron" horiz-adv-x="500" unicode="&#175;" /><glyph d="M216 -180H59V561H216V210Q216 185 225 167Q234 149 248 137.5Q262 126 279.5 120.5Q297 115 313 115Q332 115 350.5 121Q369 127 383 138.5Q397 150 406 168Q415 186 415 210V561H572V0H450L430 65H428Q402 23 362 4Q322 -15 287 -15Q235 -15 216 -4Z" glyph-name="mu" horiz-adv-x="631" unicode="&#181;" /><glyph d="M216 0H59V500H181L201 435H203Q229 477 266 496Q303 515 351 515Q397 515 431 501Q465 487 487.5 462.5Q510 438 521 405.5Q532 373 532 337V0H375V290Q375 340 353 362.5Q331 385 298 385Q260 385 238 361.5Q216 338 216 290Z" glyph-name="n" horiz-adv-x="581" unicode="n" /><glyph d="M280 665Q392 665 460.5 607.5Q529 550 536 440V419Q536 368 509.5 299.5Q483 231 423 152Q392 111 358.5 76Q325 41 277 0H98V18Q120 36 148 60Q176 84 204 111Q232 138 257.5 166.5Q283 195 300 222L299 223Q295 221 286.5 219.5Q278 218 268 217Q258 216 249.5 215.5Q241 215 237 215Q195 215 157 230Q119 245 90 273Q61 301 44 339.5Q27 378 27 426V438Q27 493 48 535Q69 577 104 606Q139 635 184.5 650Q230 665 280 665ZM277 540Q252 540 234 531.5Q216 523 204 509Q192 495 186.5 476.5Q181 458 181 438Q181 397 204 368Q227 339 278 339Q331 339 354 370Q377 401 377 441Q377 481 353 510.5Q329 540 277 540Z" glyph-name="nine" horiz-adv-x="566" unicode="9" /><glyph glyph-name="nonmarkingreturn" horiz-adv-x="250" unicode="" /><glyph d="M604 371H430L380 284H604V153H303L246 54H127V68L176 153H72V284H253L303 371H72V503H380L431 590H550V576L507 503H604Z" glyph-name="notequal" horiz-adv-x="676" unicode="&#8800;" /><glyph d="M216 0H59V500H181L201 435H203Q229 477 266 496Q303 515 351 515Q397 515 431 501Q465 487 487.5 462.5Q510 438 521 405.5Q532 373 532 337V0H375V290Q375 340 353 362.5Q331 385 298 385Q260 385 238 361.5Q216 338 216 290ZM199 550H91Q91 582 99 611Q107 640 123.5 662.5Q140 685 164 698.5Q188 712 219 712Q240 712 255 705.5Q270 699 282.5 691.5Q295 684 307 677.5Q319 671 335 671Q340 671 346.5 672Q353 673 359 677.5Q365 682 369 690.5Q373 699 373 715H481Q481 683 473 654Q465 625 449 602.5Q433 580 409.5 566.5Q386 553 356 553Q334 553 318.5 559.5Q303 566 290.5 573.5Q278 581 266 587.5Q254 594 237 594Q233 594 226.5 593Q220 592 214 587.5Q208 583 203.5 574.5Q199 566 199 550Z" glyph-name="ntilde" horiz-adv-x="581" unicode="&#241;" /><glyph d="M273 388 260 281H364L378 388ZM585 388H475L462 281H561V189H450L427 0H332V18L353 189H248L225 0H130V18L151 189H52V281H162L176 388H76V479H187L208 650H303V631L284 479H389L410 650H505V631L486 479H585Z" glyph-name="numbersign" horiz-adv-x="637" unicode="#" /><glyph d="M211 0H75V650H218Q296 527 344 450Q392 373 420 327.5Q448 282 460 260Q472 238 479 225H481Q481 238 480 257.5Q479 277 478 299.5Q477 322 476.5 345.5Q476 369 476 390L475 650H612V0H477Q396 127 346 205Q296 283 267.5 329Q239 375 226.5 397Q214 419 207 433H205Q206 420 207 401Q208 382 209 360.5Q210 339 210.5 317Q211 295 211 275ZM862 346Q829 346 798.5 356.5Q768 367 744.5 386.5Q721 406 707 434.5Q693 463 693 500V512Q693 549 707 577.5Q721 606 744.5 625.5Q768 645 798.5 655.5Q829 666 862 666Q896 666 927 655.5Q958 645 982 625.5Q1006 606 1020 577.5Q1034 549 1034 512V500Q1034 463 1020 434.5Q1006 406 982 386.5Q958 367 927 356.5Q896 346 862 346ZM864 439Q893 439 906 458.5Q919 478 919 507Q919 535 906 554Q893 573 864 573Q835 573 821.5 554Q808 535 808 507Q808 478 821.5 458.5Q835 439 864 439Z" glyph-name="numero" horiz-adv-x="1079" unicode="&#8470;" /><glyph d="M302 -16Q247 -16 198.5 1.5Q150 19 113 52Q76 85 54.5 132.5Q33 180 33 240V259Q33 319 54.5 367Q76 415 112.5 448Q149 481 197.5 498.5Q246 516 300 516Q354 516 402.5 498.5Q451 481 487.5 448Q524 415 545.5 367.5Q567 320 567 260V241Q567 181 545.5 133Q524 85 487.5 52Q451 19 403 1.5Q355 -16 302 -16ZM300 115Q326 115 345.5 125.5Q365 136 377.5 154Q390 172 396 196.5Q402 221 402 249Q402 278 396 302.5Q390 327 377.5 346Q365 365 345.5 375.5Q326 386 300 386Q274 386 254.5 375.5Q235 365 222.5 347Q210 329 204 304.5Q198 280 198 252Q198 224 204 199Q210 174 222.5 155Q235 136 254.5 125.5Q274 115 300 115Z" glyph-name="o" horiz-adv-x="600" unicode="o" /><glyph d="M302 -16Q247 -16 198.5 1.5Q150 19 113 52Q76 85 54.5 132.5Q33 180 33 240V259Q33 319 54.5 367Q76 415 112.5 448Q149 481 197.5 498.5Q246 516 300 516Q354 516 402.5 498.5Q451 481 487.5 448Q524 415 545.5 367.5Q567 320 567 260V241Q567 181 545.5 133Q524 85 487.5 52Q451 19 403 1.5Q355 -16 302 -16ZM300 115Q326 115 345.5 125.5Q365 136 377.5 154Q390 172 396 196.5Q402 221 402 249Q402 278 396 302.5Q390 327 377.5 346Q365 365 345.5 375.5Q326 386 300 386Q274 386 254.5 375.5Q235 365 222.5 347Q210 329 204 304.5Q198 280 198 252Q198 224 204 199Q210 174 222.5 155Q235 136 254.5 125.5Q274 115 300 115ZM487 642 214 539 174 626 429 765Z" glyph-name="oacute" horiz-adv-x="600" unicode="&#243;" /><glyph d="M302 -16Q247 -16 198.5 1.5Q150 19 113 52Q76 85 54.5 132.5Q33 180 33 240V259Q33 319 54.5 367Q76 415 112.5 448Q149 481 197.5 498.5Q246 516 300 516Q354 516 402.5 498.5Q451 481 487.5 448Q524 415 545.5 367.5Q567 320 567 260V241Q567 181 545.5 133Q524 85 487.5 52Q451 19 403 1.5Q355 -16 302 -16ZM300 115Q326 115 345.5 125.5Q365 136 377.5 154Q390 172 396 196.5Q402 221 402 249Q402 278 396 302.5Q390 327 377.5 346Q365 365 345.5 375.5Q326 386 300 386Q274 386 254.5 375.5Q235 365 222.5 347Q210 329 204 304.5Q198 280 198 252Q198 224 204 199Q210 174 222.5 155Q235 136 254.5 125.5Q274 115 300 115ZM301 617 161 535 108 615 288 753H314L492 615L439 535Z" glyph-name="ocircumflex" horiz-adv-x="600" unicode="&#244;" /><glyph d="M302 -16Q247 -16 198.5 1.5Q150 19 113 52Q76 85 54.5 132.5Q33 180 33 240V259Q33 319 54.5 367Q76 415 112.5 448Q149 481 197.5 498.5Q246 516 300 516Q354 516 402.5 498.5Q451 481 487.5 448Q524 415 545.5 367.5Q567 320 567 260V241Q567 181 545.5 133Q524 85 487.5 52Q451 19 403 1.5Q355 -16 302 -16ZM300 115Q326 115 345.5 125.5Q365 136 377.5 154Q390 172 396 196.5Q402 221 402 249Q402 278 396 302.5Q390 327 377.5 346Q365 365 345.5 375.5Q326 386 300 386Q274 386 254.5 375.5Q235 365 222.5 347Q210 329 204 304.5Q198 280 198 252Q198 224 204 199Q210 174 222.5 155Q235 136 254.5 125.5Q274 115 300 115ZM410 554Q374 554 349 575.5Q324 597 324 635Q324 672 349 694Q374 716 410 716Q445 716 470 694Q495 672 495 635Q495 597 470 575.5Q445 554 410 554ZM194 554Q159 554 134 575.5Q109 597 109 635Q109 672 134 694Q159 716 194 716Q230 716 254.5 694Q279 672 279 635Q279 597 254.5 575.5Q230 554 194 554Z" glyph-name="odieresis" horiz-adv-x="600" unicode="&#246;" /><glyph d="M292 -16Q239 -16 192 1.5Q145 19 109.5 52Q74 85 53.5 132.5Q33 180 33 240V259Q33 319 53.5 367Q74 415 109.5 448Q145 481 191.5 498.5Q238 516 290 516Q347 516 395 495Q443 474 475 434Q505 474 551 495Q597 516 657 516Q705 516 748 500.5Q791 485 824 454.5Q857 424 876.5 377Q896 330 896 267Q896 252 895.5 236Q895 220 894 212H573Q577 165 600 134.5Q623 104 667 104Q695 104 716 115.5Q737 127 748 156H895Q886 113 864.5 80.5Q843 48 812 26.5Q781 5 742.5 -5.5Q704 -16 663 -16Q604 -16 555 4Q506 24 473 64Q441 25 394.5 4.5Q348 -16 292 -16ZM290 115Q314 115 331 125.5Q348 136 359.5 154Q371 172 376.5 196.5Q382 221 382 249Q382 278 376.5 302.5Q371 327 359.5 346Q348 365 331 375.5Q314 386 290 386Q266 386 249 375.5Q232 365 220.5 347Q209 329 203.5 304.5Q198 280 198 252Q198 224 203.5 199Q209 174 220.5 155Q232 136 249 125.5Q266 115 290 115ZM740 312Q740 353 720.5 378.5Q701 404 661 404Q620 404 600.5 377.5Q581 351 576 312Z" glyph-name="oe" horiz-adv-x="929" unicode="&#339;" /><glyph d="M271 -195Q246 -195 222.5 -190Q199 -185 182 -173.5Q165 -162 154.5 -145Q144 -128 144 -104Q144 -64 170 -30Q196 4 244 25L319 0Q287 -14 270 -35Q253 -56 253 -77Q253 -92 262 -104.5Q271 -117 292 -117Q303 -117 316 -115Q329 -113 341 -105H357V-180Q339 -188 316.5 -191.5Q294 -195 271 -195Z" glyph-name="ogonek" horiz-adv-x="500" unicode="&#731;" /><glyph d="M302 -16Q247 -16 198.5 1.5Q150 19 113 52Q76 85 54.5 132.5Q33 180 33 240V259Q33 319 54.5 367Q76 415 112.5 448Q149 481 197.5 498.5Q246 516 300 516Q354 516 402.5 498.5Q451 481 487.5 448Q524 415 545.5 367.5Q567 320 567 260V241Q567 181 545.5 133Q524 85 487.5 52Q451 19 403 1.5Q355 -16 302 -16ZM300 115Q326 115 345.5 125.5Q365 136 377.5 154Q390 172 396 196.5Q402 221 402 249Q402 278 396 302.5Q390 327 377.5 346Q365 365 345.5 375.5Q326 386 300 386Q274 386 254.5 375.5Q235 365 222.5 347Q210 329 204 304.5Q198 280 198 252Q198 224 204 199Q210 174 222.5 155Q235 136 254.5 125.5Q274 115 300 115ZM470 626 430 539 157 642 215 765Z" glyph-name="ograve" horiz-adv-x="600" unicode="&#242;" /><glyph d="M289 0H128V443H4V554Q33 556 58.5 559.5Q84 563 104 573.5Q124 584 138 603Q152 622 158 654H289Z" glyph-name="one" horiz-adv-x="361" unicode="1" /><glyph d="M192 280Q162 280 133.5 291.5Q105 303 83.5 325.5Q62 348 48.5 380Q35 412 35 452V466Q35 501 47.5 532.5Q60 564 82.5 588Q105 612 136 626Q167 640 204 640Q237 640 267 628.5Q297 617 314 590H315L330 630H409V290H325L308 334H307Q289 307 259.5 293.5Q230 280 192 280ZM225 382Q257 382 274.5 403Q292 424 292 463Q292 501 274 522Q256 543 224 543Q194 543 175.5 520.5Q157 498 157 463Q157 425 175.5 403.5Q194 382 225 382Z" glyph-name="ordfeminine" horiz-adv-x="460" unicode="&#170;" /><glyph d="M223 283Q186 283 152 294.5Q118 306 92 328Q66 350 50.5 382Q35 414 35 455V469Q35 510 50.5 542Q66 574 92 596Q118 618 152 629.5Q186 641 223 641Q260 641 294 629.5Q328 618 354.5 596Q381 574 396.5 542Q412 510 412 469V455Q412 414 396.5 382Q381 350 354.5 328Q328 306 294 294.5Q260 283 223 283ZM223 379Q258 379 273.5 403.5Q289 428 289 463Q289 497 273.5 521Q258 545 223 545Q189 545 173.5 521Q158 497 158 463Q158 428 173.5 403.5Q189 379 223 379Z" glyph-name="ordmasculine" horiz-adv-x="447" unicode="&#186;" /><glyph d="M233 -65H104V-52L140 31Q91 63 62 116Q33 169 33 240V259Q33 319 54.5 367Q76 415 112.5 448Q149 481 197.5 498.5Q246 516 300 516Q323 516 347 513L369 565H497V551L462 469Q510 436 538.5 383.5Q567 331 567 260V241Q567 181 545.5 133Q524 85 487.5 52Q451 19 403 1.5Q355 -16 302 -16Q278 -16 255 -13ZM306 112Q359 114 384 154Q409 194 409 249Q409 292 396 322ZM296 389Q269 388 249.5 376.5Q230 365 217.5 346.5Q205 328 198.5 303.5Q192 279 192 252Q192 232 195 213Q198 194 205 178Z" glyph-name="oslash" horiz-adv-x="600" unicode="&#248;" /><glyph d="M302 -16Q247 -16 198.5 1.5Q150 19 113 52Q76 85 54.5 132.5Q33 180 33 240V259Q33 319 54.5 367Q76 415 112.5 448Q149 481 197.5 498.5Q246 516 300 516Q354 516 402.5 498.5Q451 481 487.5 448Q524 415 545.5 367.5Q567 320 567 260V241Q567 181 545.5 133Q524 85 487.5 52Q451 19 403 1.5Q355 -16 302 -16ZM300 115Q326 115 345.5 125.5Q365 136 377.5 154Q390 172 396 196.5Q402 221 402 249Q402 278 396 302.5Q390 327 377.5 346Q365 365 345.5 375.5Q326 386 300 386Q274 386 254.5 375.5Q235 365 222.5 347Q210 329 204 304.5Q198 280 198 252Q198 224 204 199Q210 174 222.5 155Q235 136 254.5 125.5Q274 115 300 115ZM213 550H105Q105 582 113 611Q121 640 137.5 662.5Q154 685 178 698.5Q202 712 233 712Q254 712 269 705.5Q284 699 296.5 691.5Q309 684 321 677.5Q333 671 349 671Q354 671 360.5 672Q367 673 373 677.5Q379 682 383 690.5Q387 699 387 715H495Q495 683 487 654Q479 625 463 602.5Q447 580 423.5 566.5Q400 553 370 553Q348 553 332.5 559.5Q317 566 304.5 573.5Q292 581 280 587.5Q268 594 251 594Q247 594 240.5 593Q234 592 228 587.5Q222 583 217.5 574.5Q213 566 213 550Z" glyph-name="otilde" horiz-adv-x="600" unicode="&#245;" /><glyph d="M215 -180H59V500H179L199 439H201Q230 480 268 497.5Q306 515 357 515Q401 515 442 497.5Q483 480 515 447.5Q547 415 566.5 368Q586 321 586 262V243Q586 190 568.5 143Q551 96 519.5 61Q488 26 444.5 5.5Q401 -15 350 -15Q260 -15 217 34H215ZM317 114Q344 114 363.5 124.5Q383 135 395.5 153Q408 171 414.5 195.5Q421 220 421 248Q421 277 414.5 301.5Q408 326 395.5 345Q383 364 363.5 374.5Q344 385 317 385Q290 385 270.5 374.5Q251 364 238.5 346Q226 328 219.5 303.5Q213 279 213 251Q213 223 219.5 198Q226 173 238.5 154Q251 135 270.5 124.5Q290 114 317 114Z" glyph-name="p" horiz-adv-x="619" unicode="p" /><glyph d="M455 0H332V556H276V314H256Q217 314 182 325Q147 336 120.5 357Q94 378 78 408Q62 438 62 477V491Q62 530 76.5 559.5Q91 589 115 609Q139 629 170.5 639.5Q202 650 237 650H455Z" glyph-name="paragraph" horiz-adv-x="563" unicode="&#182;" /><glyph d="M299 -124H169Q107 -15 81 86Q55 187 55 285Q55 385 81 486Q107 587 169 696H300V680Q258 577 239.5 479Q221 381 221 285Q221 191 239 93Q257 -5 299 -108Z" glyph-name="parenleft" horiz-adv-x="336" unicode="(" /><glyph d="M37 696H167Q229 587 255 486Q281 385 281 287Q281 187 255 86Q229 -15 167 -124H36V-108Q78 -5 96.5 93Q115 191 115 287Q115 381 97 479Q79 577 37 680Z" glyph-name="parenright" horiz-adv-x="336" unicode=")" /><glyph d="M224 0H130V18L487 650H584V632ZM533 -3Q502 -3 474 6Q446 15 424.5 32.5Q403 50 390.5 76Q378 102 378 136V145Q378 179 390.5 205Q403 231 424.5 249Q446 267 474 276Q502 285 533 285Q563 285 591 276Q619 267 640.5 249Q662 231 674.5 205Q687 179 687 145V136Q687 102 674.5 76Q662 50 640.5 32.5Q619 15 591 6Q563 -3 533 -3ZM533 76Q559 76 573 94.5Q587 113 587 141Q587 168 573 186.5Q559 205 533 205Q507 205 492.5 186.5Q478 168 478 141Q478 113 492.5 94.5Q507 76 533 76ZM179 367Q149 367 121 376Q93 385 71.5 403Q50 421 37.5 447Q25 473 25 506V515Q25 549 37.5 575Q50 601 71.5 619Q93 637 121 646Q149 655 179 655Q210 655 238 646Q266 637 287.5 619Q309 601 321.5 575Q334 549 334 515V506Q334 473 321.5 447Q309 421 287.5 403Q266 385 238 376Q210 367 179 367ZM179 446Q206 446 220 464.5Q234 483 234 511Q234 539 220 557.5Q206 576 179 576Q153 576 139 557.5Q125 539 125 511Q125 483 139 464.5Q153 446 179 446Z" glyph-name="percent" horiz-adv-x="712" unicode="%" /><glyph d="M173 -8Q132 -8 103.5 14.5Q75 37 75 80V88Q75 130 103.5 154Q132 178 173 178Q214 178 242.5 154Q271 130 271 88V80Q271 37 242.5 14.5Q214 -8 173 -8Z" glyph-name="period" horiz-adv-x="346" unicode="." /><glyph d="M173 196Q132 196 103.5 218.5Q75 241 75 284V292Q75 334 103.5 358Q132 382 173 382Q214 382 242.5 358Q271 334 271 292V284Q271 241 242.5 218.5Q214 196 173 196Z" glyph-name="periodcentered" horiz-adv-x="346" unicode="&#183;" /><glyph d="M224 0H130V18L487 650H584V632ZM533 -3Q502 -3 474 6Q446 15 424.5 32.5Q403 50 390.5 76Q378 102 378 136V145Q378 179 390.5 205Q403 231 424.5 249Q446 267 474 276Q502 285 533 285Q563 285 591 276Q619 267 640.5 249Q662 231 674.5 205Q687 179 687 145V136Q687 102 674.5 76Q662 50 640.5 32.5Q619 15 591 6Q563 -3 533 -3ZM533 76Q559 76 573 94.5Q587 113 587 141Q587 168 573 186.5Q559 205 533 205Q507 205 492.5 186.5Q478 168 478 141Q478 113 492.5 94.5Q507 76 533 76ZM179 367Q149 367 121 376Q93 385 71.5 403Q50 421 37.5 447Q25 473 25 506V515Q25 549 37.5 575Q50 601 71.5 619Q93 637 121 646Q149 655 179 655Q210 655 238 646Q266 637 287.5 619Q309 601 321.5 575Q334 549 334 515V506Q334 473 321.5 447Q309 421 287.5 403Q266 385 238 376Q210 367 179 367ZM179 446Q206 446 220 464.5Q234 483 234 511Q234 539 220 557.5Q206 576 179 576Q153 576 139 557.5Q125 539 125 511Q125 483 139 464.5Q153 446 179 446ZM873 -3Q842 -3 814 6Q786 15 764.5 32.5Q743 50 730.5 76Q718 102 718 136V145Q718 179 730.5 205Q743 231 764.5 249Q786 267 814 276Q842 285 873 285Q903 285 931 276Q959 267 980.5 249Q1002 231 1014.5 205Q1027 179 1027 145V136Q1027 102 1014.5 76Q1002 50 980.5 32.5Q959 15 931 6Q903 -3 873 -3ZM873 76Q899 76 913 94.5Q927 113 927 141Q927 168 913 186.5Q899 205 873 205Q847 205 832.5 186.5Q818 168 818 141Q818 113 832.5 94.5Q847 76 873 76Z" glyph-name="perthousand" horiz-adv-x="1052" unicode="&#8240;" /><glyph d="M394 73H242V262H52V394H242V584H394V394H585V262H394Z" glyph-name="plus" horiz-adv-x="637" unicode="+" /><glyph d="M394 213H242V349H72V477H242V619H394V477H565V349H394ZM565 34H72V165H565Z" glyph-name="plusminus" horiz-adv-x="637" unicode="&#177;" /><glyph d="M386 -13Q311 -13 246 13.5Q181 40 134 86Q87 132 60 194Q33 256 33 326Q33 396 60 457.5Q87 519 134 565Q181 611 246 638Q311 665 386 665Q461 665 525.5 638Q590 611 637.5 565Q685 519 712 457.5Q739 396 739 326Q739 256 712 194Q685 132 637.5 86Q590 40 525.5 13.5Q461 -13 386 -13ZM386 76Q440 76 486 95.5Q532 115 565.5 149Q599 183 618 228.5Q637 274 637 325Q637 377 618 422.5Q599 468 565.5 502Q532 536 486 555.5Q440 575 386 575Q332 575 286 555.5Q240 536 206.5 502Q173 468 154 422.5Q135 377 135 325Q135 274 154 228.5Q173 183 206.5 149Q240 115 286 95.5Q332 76 386 76ZM362 161H272V499H415Q440 499 462.5 492Q485 485 502 471.5Q519 458 529 437.5Q539 417 539 390V381Q539 354 529 333.5Q519 313 502 299.5Q485 286 462.5 278.5Q440 271 415 271H362ZM362 427V344H404Q428 344 438.5 355Q449 366 449 386Q449 405 438.5 416Q428 427 404 427Z" glyph-name="published" horiz-adv-x="772" unicode="&#8471;" /><glyph d="M560 -180H403V44H401Q380 17 343 1Q306 -15 259 -15Q215 -15 174.5 3Q134 21 102.5 54Q71 87 52 133.5Q33 180 33 238V257Q33 310 51 357Q69 404 101 439Q133 474 176.5 494.5Q220 515 271 515Q322 515 361.5 496Q401 477 426 442H428L448 500H560ZM302 115Q329 115 348.5 125.5Q368 136 380.5 154Q393 172 399.5 196.5Q406 221 406 249Q406 278 399.5 302.5Q393 327 380.5 346Q368 365 348.5 375.5Q329 386 302 386Q275 386 255.5 375.5Q236 365 223.5 347Q211 329 204.5 304.5Q198 280 198 252Q198 224 204.5 199Q211 174 223.5 155Q236 136 255.5 125.5Q275 115 302 115Z" glyph-name="q" horiz-adv-x="619" unicode="q" /><glyph d="M318 229H175L168 376L179 388Q208 388 232.5 391.5Q257 395 275 404.5Q293 414 303.5 431Q314 448 314 476Q314 507 297.5 524Q281 541 252 541Q219 541 202 519Q185 497 187 463H34V477Q34 525 52 560Q70 595 100.5 618Q131 641 172 652.5Q213 664 258 664Q300 664 339 651.5Q378 639 407 616Q436 593 453.5 560.5Q471 528 471 487V477Q471 440 458.5 411Q446 382 425 360Q404 338 377.5 323Q351 308 323 299ZM244 -8Q204 -8 175.5 14.5Q147 37 147 79V87Q147 129 175.5 152Q204 175 244 175Q285 175 314 152Q343 129 343 87V79Q343 37 314 14.5Q285 -8 244 -8Z" glyph-name="question" horiz-adv-x="504" unicode="?" /><glyph d="M186 279H329L336 132L325 120Q297 120 272 116.5Q247 113 229 103.5Q211 94 200.5 77Q190 60 190 32Q190 1 206.5 -16Q223 -33 252 -33Q285 -33 302 -11Q319 11 317 45H470V31Q470 -17 452 -52Q434 -87 403.5 -110Q373 -133 332 -144.5Q291 -156 246 -156Q204 -156 165 -143.5Q126 -131 97 -108Q68 -85 50.5 -52.5Q33 -20 33 21V31Q33 69 45.5 97.5Q58 126 79 148Q100 170 126.5 185Q153 200 181 209ZM260 516Q300 516 328.5 493.5Q357 471 357 429V421Q357 379 328.5 356Q300 333 260 333Q219 333 190 356Q161 379 161 421V429Q161 471 190 493.5Q219 516 260 516Z" glyph-name="questiondown" horiz-adv-x="494" unicode="&#191;" /><glyph d="M181 370H72L54 630V650H199V630ZM372 370H263L245 630V650H390V630Z" glyph-name="quotedbl" horiz-adv-x="444" unicode="&quot;" /><glyph d="M406 -127H292L339 167H514V151ZM176 -127H62L109 167H284V151Z" glyph-name="quotedblbase" horiz-adv-x="572" unicode="&#8222;" /><glyph d="M463 356H288V372L396 650H510ZM233 356H58V372L166 650H280Z" glyph-name="quotedblleft" horiz-adv-x="572" unicode="&#8220;" /><glyph d="M176 356H62L109 650H284V634ZM406 356H293L340 650H514V634Z" glyph-name="quotedblright" horiz-adv-x="572" unicode="&#8221;" /><glyph d="M166 650H284L237 356H58V372Z" glyph-name="quoteleft" horiz-adv-x="346" unicode="&#8216;" /><glyph d="M180 356H62L109 650H288V634Z" glyph-name="quoteright" horiz-adv-x="346" unicode="&#8217;" /><glyph d="M180 -128H62L109 166H288V150Z" glyph-name="quotesinglbase" horiz-adv-x="346" unicode="&#8218;" /><glyph d="M181 370H72L54 630V650H199V630Z" glyph-name="quotesingle" horiz-adv-x="253" unicode="&apos;" /><glyph d="M216 0H59V500H175L204 394H207Q212 447 249 475.5Q286 504 334 504Q345 504 359.5 502.5Q374 501 384 498V352H320Q287 352 266.5 343Q246 334 234.5 318.5Q223 303 219.5 281.5Q216 260 216 236Z" glyph-name="r" horiz-adv-x="404" unicode="r" /><glyph d="M386 -13Q311 -13 246 13.5Q181 40 134 86Q87 132 60 194Q33 256 33 326Q33 396 60 457.5Q87 519 134 565Q181 611 246 638Q311 665 386 665Q461 665 525.5 638Q590 611 637.5 565Q685 519 712 457.5Q739 396 739 326Q739 256 712 194Q685 132 637.5 86Q590 40 525.5 13.5Q461 -13 386 -13ZM386 76Q440 76 486 95.5Q532 115 565.5 149Q599 183 618 228.5Q637 274 637 325Q637 377 618 422.5Q599 468 565.5 502Q532 536 486 555.5Q440 575 386 575Q332 575 286 555.5Q240 536 206.5 502Q173 468 154 422.5Q135 377 135 325Q135 274 154 228.5Q173 183 206.5 149Q240 115 286 95.5Q332 76 386 76ZM348 161H258V499H401Q426 499 448.5 492Q471 485 488 471.5Q505 458 515 437.5Q525 417 525 390V382Q525 347 507.5 324.5Q490 302 461 288L540 179V161H448L372 271H348ZM348 427V344H389Q414 344 424.5 354.5Q435 365 435 386Q435 405 425.5 416Q416 427 392 427Z" glyph-name="registered" horiz-adv-x="772" unicode="&#174;" /><glyph d="M250 532Q224 532 201.5 541Q179 550 163 565.5Q147 581 138 601.5Q129 622 129 645Q129 668 138 688Q147 708 163 723Q179 738 201.5 746.5Q224 755 250 755Q276 755 298.5 746.5Q321 738 337 723Q353 708 362 688Q371 668 371 645Q371 622 362 601.5Q353 581 337 565.5Q321 550 298.5 541Q276 532 250 532ZM250 602Q267 602 279.5 614.5Q292 627 292 645Q292 662 280 674Q268 686 250 686Q233 686 220.5 674Q208 662 208 645Q208 627 220.5 614.5Q233 602 250 602Z" glyph-name="ring" horiz-adv-x="500" unicode="&#730;" /><glyph d="M244 -15Q201 -15 163 -6Q125 3 96 23Q67 43 49.5 74.5Q32 106 30 152V163H172Q174 127 193 109Q212 91 244 91Q271 91 287.5 102Q304 113 304 136Q304 153 293 167Q282 181 250 189Q231 194 208 198Q185 202 161 209Q137 216 114.5 227Q92 238 73 257Q56 274 46 299Q36 324 36 350V358Q36 402 54.5 432Q73 462 102.5 481Q132 500 168.5 508Q205 516 241 516Q281 516 318 507.5Q355 499 383 481Q411 463 428 434.5Q445 406 445 367V356H303Q303 381 288 395Q273 409 244 409Q218 409 205 397Q192 385 192 368Q192 348 204.5 337.5Q217 327 237 323Q261 319 286 314.5Q311 310 335.5 302.5Q360 295 383 283.5Q406 272 425 252Q441 235 449.5 210.5Q458 186 458 160V150Q458 106 439 74.5Q420 43 389.5 23Q359 3 320.5 -6Q282 -15 244 -15Z" glyph-name="s" horiz-adv-x="483" unicode="s" /><glyph d="M261 269Q238 253 238 225Q238 193 258 180Q278 167 311 158Q331 152 353.5 146.5Q376 141 400 133Q414 150 414 171Q414 197 401.5 213Q389 229 346 243Q326 250 304.5 256Q283 262 261 269ZM532 63Q550 43 563 11.5Q576 -20 576 -54V-64Q576 -123 553 -162.5Q530 -202 493 -226.5Q456 -251 409 -261.5Q362 -272 315 -272Q264 -272 219.5 -262Q175 -252 140.5 -229.5Q106 -207 85 -171Q64 -135 59 -83V-69H220Q222 -113 249.5 -132.5Q277 -152 323 -152Q366 -152 390 -133Q414 -114 414 -86Q414 -60 401.5 -44Q389 -28 346 -14Q319 -4 287.5 4.5Q256 13 225 22.5Q194 32 167 44.5Q140 57 122 75Q102 95 87 128.5Q72 162 72 196V206Q72 248 84.5 280Q97 312 119 335Q100 355 86 388Q72 421 72 453V463Q72 518 93.5 556Q115 594 150 617.5Q185 641 229 651.5Q273 662 317 662Q364 662 407 653Q450 644 483 623Q516 602 537 569Q558 536 562 488V475H405Q403 503 385 522Q367 541 322 541Q277 541 257.5 524.5Q238 508 238 482Q238 450 258 437Q278 424 311 415Q336 408 365.5 400Q395 392 424.5 382.5Q454 373 480.5 359.5Q507 346 525 328Q545 308 560.5 274Q576 240 576 203V193Q576 151 564 119Q552 87 532 63Z" glyph-name="section" horiz-adv-x="630" unicode="&#167;" /><glyph d="M166 -127H48L95 167H274V151ZM191 283Q150 283 121.5 305.5Q93 328 93 371V379Q93 421 121.5 445Q150 469 191 469Q232 469 260.5 445Q289 421 289 379V371Q289 328 260.5 305.5Q232 283 191 283Z" glyph-name="semicolon" horiz-adv-x="346" unicode=";" /><glyph d="M310 405H252V650H324L387 509L450 650H524V405H466L467 564H466L414 442H363L310 561H309ZM117 400Q79 400 51 416Q23 432 19 471V476H80Q81 445 120 445Q136 445 145 452Q154 459 154 470Q154 480 149.5 486Q145 492 128 497Q108 505 82.5 511Q57 517 43 531Q35 539 29.5 551.5Q24 564 24 577V581Q24 602 32 616Q40 630 53.5 639Q67 648 83.5 652Q100 656 117 656Q153 656 180 641Q207 626 210 590V585H150Q150 596 143 603Q136 610 119 610Q102 610 94.5 603.5Q87 597 87 588Q87 576 94.5 571Q102 566 115 563Q134 557 158 550Q182 543 196 529Q204 521 209.5 508.5Q215 496 215 482V478Q215 456 206.5 441Q198 426 184 417Q170 408 152.5 404Q135 400 117 400Z" glyph-name="servicemark" horiz-adv-x="561" unicode="&#8480;" /><glyph d="M236 0H74V18Q86 90 109 163.5Q132 237 163.5 303.5Q195 370 234 426Q273 482 317 520L316 522Q284 520 257.5 519.5Q231 519 198 519H34V650H522V549Q470 503 421.5 438Q373 373 334 299.5Q295 226 269 148.5Q243 71 236 0Z" glyph-name="seven" horiz-adv-x="539" unicode="7" /><glyph d="M286 -15Q174 -15 105.5 42.5Q37 100 30 210V231Q30 282 56.5 350.5Q83 419 143 498Q174 539 207.5 574Q241 609 289 650H468V632Q446 614 418 590Q390 566 362 539Q334 512 308.5 483.5Q283 455 266 428L267 427Q271 429 279.5 430.5Q288 432 298 433Q308 434 316.5 434.5Q325 435 329 435Q371 435 409 420Q447 405 476 377Q505 349 522 310.5Q539 272 539 224V212Q539 157 518 115Q497 73 462 44Q427 15 381.5 0Q336 -15 286 -15ZM289 110Q314 110 332 118.5Q350 127 362 141Q374 155 379.5 173.5Q385 192 385 212Q385 253 362 282Q339 311 288 311Q236 311 212.5 280.5Q189 250 189 209Q189 169 213 139.5Q237 110 289 110Z" glyph-name="six" horiz-adv-x="566" unicode="6" /><glyph d="M169 -124H12V-108L347 696H504V680Z" glyph-name="slash" horiz-adv-x="516" unicode="/" /><glyph glyph-name="space" horiz-adv-x="180" unicode=" " /><glyph d="M393 -8Q360 -8 334 -1.5Q308 5 285.5 13.5Q263 22 242.5 28.5Q222 35 201 35Q179 35 168.5 27Q158 19 154 0H18Q18 28 27 56Q36 84 53 107.5Q70 131 95 147Q120 163 153 167Q155 176 155.5 183.5Q156 191 156 196Q156 211 153.5 233Q151 255 146 269H30V383H90Q77 404 68 429Q59 454 59 483V494Q59 532 74.5 563.5Q90 595 117.5 617.5Q145 640 184.5 652.5Q224 665 272 665Q315 665 354.5 654Q394 643 424 620Q454 597 472 561Q490 525 490 475V463H336V472Q336 512 320.5 530.5Q305 549 280 549Q250 549 238.5 530Q227 511 227 482Q227 456 237.5 432Q248 408 265 383H415V269H310Q312 258 313.5 239Q315 220 315 209Q315 168 306 132Q320 128 338 125.5Q356 123 373 123Q394 123 406 133.5Q418 144 423 174H551V163Q548 130 537 99.5Q526 69 506.5 45Q487 21 458.5 6.5Q430 -8 393 -8Z" glyph-name="sterling" horiz-adv-x="555" unicode="&#163;" /><glyph d="M250 -10Q214 -10 183 -1.5Q152 7 129.5 25.5Q107 44 94 74.5Q81 105 81 149V381H18V454Q49 468 72 484Q95 500 113 519.5Q131 539 145.5 562.5Q160 586 174 613H238V494H352V381H239V166Q239 138 252 127Q265 116 288 116Q303 116 319.5 121Q336 126 350 132H362V16Q353 10 339.5 5.5Q326 1 310.5 -2.5Q295 -6 279 -8Q263 -10 250 -10Z" glyph-name="t" horiz-adv-x="388" unicode="t" /><glyph d="M265 -15Q156 -15 91 35Q26 85 21 186V200H171Q174 155 199.5 131Q225 107 269 107Q314 107 338.5 134.5Q363 162 363 206Q363 267 330 288.5Q297 310 241 310Q215 310 192 307L181 312L165 375L221 438Q236 455 258.5 481.5Q281 508 300 526V528Q292 527 275.5 526.5Q259 526 241 525.5Q223 525 206 525H48V650H486V560L357 412Q429 400 472.5 349.5Q516 299 516 226V216Q516 155 497 111.5Q478 68 444 40Q410 12 364.5 -1.5Q319 -15 265 -15Z" glyph-name="three" horiz-adv-x="549" unicode="3" /><glyph d="M163 550H55Q55 582 63 611Q71 640 87.5 662.5Q104 685 128 698.5Q152 712 183 712Q204 712 219 705.5Q234 699 246.5 691.5Q259 684 271 677.5Q283 671 299 671Q304 671 310.5 672Q317 673 323 677.5Q329 682 333 690.5Q337 699 337 715H445Q445 683 437 654Q429 625 413 602.5Q397 580 373.5 566.5Q350 553 320 553Q298 553 282.5 559.5Q267 566 254.5 573.5Q242 581 230 587.5Q218 594 201 594Q197 594 190.5 593Q184 592 178 587.5Q172 583 167.5 574.5Q163 566 163 550Z" glyph-name="tilde" horiz-adv-x="500" unicode="&#732;" /><glyph d="M303 405H245V650H317L380 509L443 650H517V405H459L460 564H459L407 442H356L303 561H302ZM149 405H88V596H19V650H213V596H149Z" glyph-name="trademark" horiz-adv-x="553" unicode="&#8482;" /><glyph d="M524 0H42V89Q114 147 174 201.5Q234 256 291 315Q323 348 338.5 379.5Q354 411 354 456Q354 495 334 518Q314 541 272 541Q233 541 211.5 517.5Q190 494 190 455Q190 445 191.5 430.5Q193 416 196 402V384H53Q48 396 44 418.5Q40 441 40 466Q40 517 60 554Q80 591 113 616Q146 641 188.5 653Q231 665 276 665Q325 665 368 652.5Q411 640 442.5 614.5Q474 589 492 550.5Q510 512 510 460V446Q510 398 489 354.5Q468 311 435 271.5Q402 232 362 197Q322 162 284 131V129Q292 130 305 131Q318 132 332.5 132.5Q347 133 360 133H524Z" glyph-name="two" horiz-adv-x="574" unicode="2" /><glyph d="M279 -15Q170 -15 109.5 40.5Q49 96 49 208V500H206V198Q206 149 230 129.5Q254 110 282 110Q311 110 334.5 129.5Q358 149 358 198V500H510V208Q510 95 449 40Q388 -15 279 -15Z" glyph-name="u" horiz-adv-x="559" unicode="u" /><glyph d="M279 -15Q170 -15 109.5 40.5Q49 96 49 208V500H206V198Q206 149 230 129.5Q254 110 282 110Q311 110 334.5 129.5Q358 149 358 198V500H510V208Q510 95 449 40Q388 -15 279 -15ZM444 642 171 539 131 626 386 765Z" glyph-name="uacute" horiz-adv-x="559" unicode="&#250;" /><glyph d="M279 -15Q170 -15 109.5 40.5Q49 96 49 208V500H206V198Q206 149 230 129.5Q254 110 282 110Q311 110 334.5 129.5Q358 149 358 198V500H510V208Q510 95 449 40Q388 -15 279 -15ZM285 617 145 535 92 615 272 753H298L476 615L423 535Z" glyph-name="ucircumflex" horiz-adv-x="559" unicode="&#251;" /><glyph d="M279 -15Q170 -15 109.5 40.5Q49 96 49 208V500H206V198Q206 149 230 129.5Q254 110 282 110Q311 110 334.5 129.5Q358 149 358 198V500H510V208Q510 95 449 40Q388 -15 279 -15ZM392 554Q356 554 331 575.5Q306 597 306 635Q306 672 331 694Q356 716 392 716Q427 716 452 694Q477 672 477 635Q477 597 452 575.5Q427 554 392 554ZM176 554Q141 554 116 575.5Q91 597 91 635Q91 672 116 694Q141 716 176 716Q212 716 236.5 694Q261 672 261 635Q261 597 236.5 575.5Q212 554 176 554Z" glyph-name="udieresis" horiz-adv-x="559" unicode="&#252;" /><glyph d="M279 -15Q170 -15 109.5 40.5Q49 96 49 208V500H206V198Q206 149 230 129.5Q254 110 282 110Q311 110 334.5 129.5Q358 149 358 198V500H510V208Q510 95 449 40Q388 -15 279 -15ZM427 626 387 539 114 642 172 765Z" glyph-name="ugrave" horiz-adv-x="559" unicode="&#249;" /><glyph d="M351 -208H-2V-95H351Z" glyph-name="underscore" horiz-adv-x="349" unicode="_" /><glyph d="M333 0H190L-5 483V500H162L237 277Q241 265 245 249.5Q249 234 253.5 217Q258 200 261.5 184Q265 168 268 155H270Q272 168 275.5 184Q279 200 283 217Q287 234 291 249.5Q295 265 299 277L372 500H529V483Z" glyph-name="v" horiz-adv-x="524" unicode="v" /><glyph d="M314 0H167L11 482V500H165L231 277Q244 235 253 181H255Q260 208 264.5 231.5Q269 255 275 276L339 500H495L561 277Q574 235 583 181H585Q590 208 594.5 231.5Q599 255 606 276L672 500H818V483L664 0H515L415 310Z" glyph-name="w" horiz-adv-x="829" unicode="w" /><glyph d="M180 0H17V17L199 264L40 483V500H208L292 373L377 500H538V483L380 268L560 17V0H392L286 150Z" glyph-name="x" horiz-adv-x="577" unicode="x" /><glyph d="M265 -180H97V-164L185 24L-5 483V500H162L242 271Q251 248 259 219Q267 190 273 164H275Q280 190 288 219Q296 248 304 271L382 500H539V483Z" glyph-name="y" horiz-adv-x="534" unicode="y" /><glyph d="M265 -180H97V-164L185 24L-5 483V500H162L242 271Q251 248 259 219Q267 190 273 164H275Q280 190 288 219Q296 248 304 271L382 500H539V483ZM378 554Q342 554 317 575.5Q292 597 292 635Q292 672 317 694Q342 716 378 716Q413 716 438 694Q463 672 463 635Q463 597 438 575.5Q413 554 378 554ZM162 554Q127 554 102 575.5Q77 597 77 635Q77 672 102 694Q127 716 162 716Q198 716 222.5 694Q247 672 247 635Q247 597 222.5 575.5Q198 554 162 554Z" glyph-name="ydieresis" horiz-adv-x="534" unicode="&#255;" /><glyph d="M416 0H251V216H65V295H230L201 340H65V419H150L12 632V650H192L337 405L486 650H656V632L517 419H610V340H466L437 295H610V216H416Z" glyph-name="yen" horiz-adv-x="668" unicode="&#165;" /><glyph d="M450 0H21V88L242 380V382H38V500H450V414L229 120V118H450Z" glyph-name="z" horiz-adv-x="481" unicode="z" /><glyph d="M296 -15Q231 -15 182 9.5Q133 34 100.5 77.5Q68 121 51.5 181.5Q35 242 35 315V335Q35 408 51.5 469Q68 530 100.5 573.5Q133 617 182 641Q231 665 296 665Q361 665 410 641Q459 617 491.5 573.5Q524 530 540.5 469Q557 408 557 335V315Q557 242 541 181.5Q525 121 492.5 77.5Q460 34 411 9.5Q362 -15 296 -15ZM297 114Q326 114 344.5 129Q363 144 374 172Q385 200 389.5 238.5Q394 277 394 325Q394 373 390 411.5Q386 450 375 478Q364 506 344.5 521Q325 536 295 536Q266 536 247 521Q228 506 217 478Q206 450 201.5 411.5Q197 373 197 325Q197 277 202 238Q207 199 218.5 171.5Q230 144 249 129Q268 114 297 114Z" glyph-name="zero" horiz-adv-x="592" unicode="0" /></font>
</defs>
</svg>
