<?xml version="1.0" standalone="no"?><!DOCTYPE svg PUBLIC "-//W3C//DTD SVG 1.1//EN" "http://www.w3.org/Graphics/SVG/1.1/DTD/svg11.dtd" ><svg version="1.1" xmlns="http://www.w3.org/2000/svg"><defs><font horiz-adv-x="0" id="font"><font-face ascent="750" bbox="-177 -272 1078 919" cap-height="650" descent="-250" font-family="AT Fabriga Web Bold Italic" font-stretch="normal" font-style="normal" font-weight="600" units-per-em="1000" x-height="500" /><missing-glyph horiz-adv-x="180" /><glyph d="M137 0H-37L-35 18L319 650H497L651 18L649 0H485L461 113H195ZM334 379 262 241H436L408 379Q402 407 396.5 438.5Q391 470 388 498H386Q376 471 362 439Q348 407 334 379Z" glyph-name="A" horiz-adv-x="689" unicode="A" /><glyph d="M878 0H428L446 113H217L137 0H-48L-46 18L430 650H980L960 521H675L655 395H897L876 262H634L613 130H898ZM510 521H508L309 241H466Z" glyph-name="AE" horiz-adv-x="964" unicode="&#198;" /><glyph d="M137 0H-37L-35 18L319 650H497L651 18L649 0H485L461 113H195ZM334 379 262 241H436L408 379Q402 407 396.5 438.5Q391 470 388 498H386Q376 471 362 439Q348 407 334 379ZM596 792 306 689 278 780 555 919Z" glyph-name="Aacute" horiz-adv-x="689" unicode="&#193;" /><glyph d="M137 0H-37L-35 18L319 650H497L651 18L649 0H485L461 113H195ZM334 379 262 241H436L408 379Q402 407 396.5 438.5Q391 470 388 498H386Q376 471 362 439Q348 407 334 379ZM437 771 277 685 234 765 436 903H462L618 765L560 691Z" glyph-name="Acircumflex" horiz-adv-x="689" unicode="&#194;" /><glyph d="M137 0H-37L-35 18L319 650H497L651 18L649 0H485L461 113H195ZM334 379 262 241H436L408 379Q402 407 396.5 438.5Q391 470 388 498H386Q376 471 362 439Q348 407 334 379ZM534 714Q502 714 478 732Q454 750 454 787Q454 807 461.5 823.5Q469 840 482 852Q495 864 511 870.5Q527 877 545 877Q577 877 601.5 857Q626 837 626 800Q626 760 599.5 737Q573 714 534 714ZM318 714Q286 714 262 732Q238 750 238 787Q238 807 245.5 823.5Q253 840 266 852Q279 864 295 870.5Q311 877 329 877Q361 877 385.5 857Q410 837 410 800Q410 760 383.5 737Q357 714 318 714Z" glyph-name="Adieresis" horiz-adv-x="689" unicode="&#196;" /><glyph d="M137 0H-37L-35 18L319 650H497L651 18L649 0H485L461 113H195ZM334 379 262 241H436L408 379Q402 407 396.5 438.5Q391 470 388 498H386Q376 471 362 439Q348 407 334 379ZM572 771 522 689 266 792 339 910Z" glyph-name="Agrave" horiz-adv-x="689" unicode="&#192;" /><glyph d="M137 0H-37L-35 18L310 633Q291 657 291 697Q291 724 302.5 746.5Q314 769 332.5 785.5Q351 802 375.5 811Q400 820 426 820Q471 820 502.5 795Q534 770 534 719Q534 694 523 671Q514 653 500 638L651 18L649 0H485L461 113H195ZM334 379 262 241H436L408 379Q402 407 396.5 438.5Q391 470 388 498H386Q376 471 362 439Q348 407 334 379ZM408 667Q425 667 440.5 680Q456 693 456 713Q456 733 445 742Q434 751 418 751Q401 751 385.5 737.5Q370 724 370 704Q370 685 381 676Q392 667 408 667Z" glyph-name="Aring" horiz-adv-x="689" unicode="&#197;" /><glyph d="M137 0H-37L-35 18L319 650H497L651 18L649 0H485L461 113H195ZM334 379 262 241H436L408 379Q402 407 396.5 438.5Q391 470 388 498H386Q376 471 362 439Q348 407 334 379ZM331 701H223Q226 736 239 766Q252 796 272 817.5Q292 839 317 851Q342 863 369 863Q392 863 407.5 856.5Q423 850 436 842.5Q449 835 461.5 828.5Q474 822 490 822Q495 822 500.5 823Q506 824 512 828.5Q518 833 523 841.5Q528 850 531 866H639Q636 830 623 800.5Q610 771 590.5 749.5Q571 728 547 716Q523 704 497 704Q473 704 457 710.5Q441 717 427.5 724.5Q414 732 401.5 738.5Q389 745 372 745Q368 745 362 744Q356 743 350 738.5Q344 734 339 725.5Q334 717 331 701Z" glyph-name="Atilde" horiz-adv-x="689" unicode="&#195;" /><glyph d="M312 0H30L132 650H385Q429 650 469.5 642Q510 634 540.5 615.5Q571 597 589 566Q607 535 607 489Q607 438 577.5 393.5Q548 349 496 329L495 327Q510 322 525.5 311Q541 300 553.5 284Q566 268 574 247.5Q582 227 582 201Q582 160 569 126Q556 92 527 63Q491 27 436 13.5Q381 0 312 0ZM231 268 208 123H323Q418 123 418 206Q418 216 415 227Q412 238 404.5 247Q397 256 383 262Q369 268 347 268ZM272 528 250 390H355Q373 390 387.5 397.5Q402 405 413 417Q424 429 430 444.5Q436 460 436 476Q436 497 423 512.5Q410 528 379 528Z" glyph-name="B" horiz-adv-x="635" unicode="B" /><glyph d="M339 -15Q276 -15 221 4.5Q166 24 125.5 62Q85 100 61.5 155.5Q38 211 38 284Q38 361 67 430.5Q96 500 150 554Q201 605 271 635Q341 665 423 665Q487 665 539 647.5Q591 630 627.5 598Q664 566 683.5 521.5Q703 477 702 422L700 409H540Q537 523 413 523Q367 523 330 503Q293 483 267.5 450Q242 417 228.5 374Q215 331 215 284Q215 215 252.5 171.5Q290 128 359 128Q423 128 460.5 164.5Q498 201 516 253H678L676 239Q664 194 642.5 151.5Q621 109 588 76Q540 28 478.5 6.5Q417 -15 339 -15Z" glyph-name="C" horiz-adv-x="704" unicode="C" /><glyph d="M253 -195Q228 -195 201.5 -191Q175 -187 158 -180L170 -108H186Q221 -124 249 -124Q254 -124 263 -123Q272 -122 280.5 -119.5Q289 -117 295 -111.5Q301 -106 301 -97Q301 -86 291 -80.5Q281 -75 258 -74L254 -63L284 -11Q251 -6 221 4Q166 24 125.5 62Q85 100 61.5 155.5Q38 211 38 284Q38 361 67 430.5Q96 500 150 554Q201 605 271 635Q341 665 423 665Q487 665 539 647.5Q591 630 627.5 598Q664 566 683.5 521.5Q703 477 702 422L700 409H540Q537 523 413 523Q367 523 330 503Q293 483 267.5 450Q242 417 228.5 374Q215 331 215 284Q215 215 252.5 171.5Q290 128 359 128Q423 128 460.5 164.5Q498 201 516 253H678L676 239Q664 194 642.5 151.5Q621 109 588 76Q540 28 478 6Q426 -12 361 -14L348 -46Q374 -50 390 -65.5Q406 -81 406 -101Q406 -128 390.5 -146Q375 -164 352 -175Q329 -186 302.5 -190.5Q276 -195 253 -195Z" glyph-name="Ccedilla" horiz-adv-x="704" unicode="&#199;" /><glyph d="M308 0H30L132 650H391Q454 650 507.5 633Q561 616 600 582Q639 548 661 496Q683 444 683 373Q683 297 658.5 226Q634 155 581 102Q527 48 458.5 24Q390 0 308 0ZM275 521 213 129H298Q357 129 397.5 149.5Q438 170 463 204.5Q488 239 499 283Q510 327 510 373Q510 445 476 483Q442 521 372 521Z" glyph-name="D" horiz-adv-x="697" unicode="D" /><glyph d="M480 0H30L132 650H582L561 517H276L257 397H499L478 260H236L216 134H501Z" glyph-name="E" horiz-adv-x="566" unicode="E" /><glyph d="M480 0H30L132 650H582L561 517H276L257 397H499L478 260H236L216 134H501ZM539 792 249 689 221 780 498 919Z" glyph-name="Eacute" horiz-adv-x="566" unicode="&#201;" /><glyph d="M480 0H30L132 650H582L561 517H276L257 397H499L478 260H236L216 134H501ZM380 771 220 685 177 765 379 903H405L561 765L503 691Z" glyph-name="Ecircumflex" horiz-adv-x="566" unicode="&#202;" /><glyph d="M480 0H30L132 650H582L561 517H276L257 397H499L478 260H236L216 134H501ZM477 714Q445 714 421 732Q397 750 397 787Q397 807 404.5 823.5Q412 840 425 852Q438 864 454 870.5Q470 877 488 877Q520 877 544.5 857Q569 837 569 800Q569 760 542.5 737Q516 714 477 714ZM261 714Q229 714 205 732Q181 750 181 787Q181 807 188.5 823.5Q196 840 209 852Q222 864 238 870.5Q254 877 272 877Q304 877 328.5 857Q353 837 353 800Q353 760 326.5 737Q300 714 261 714Z" glyph-name="Edieresis" horiz-adv-x="566" unicode="&#203;" /><glyph d="M480 0H30L132 650H582L561 517H276L257 397H499L478 260H236L216 134H501ZM509 771 459 689 203 792 276 910Z" glyph-name="Egrave" horiz-adv-x="566" unicode="&#200;" /><glyph d="M451 348H280Q276 323 274 295H431L400 216H280Q290 171 315 145.5Q340 120 382 120Q427 120 460 147Q493 174 510 231H661L659 217Q651 174 631.5 138Q612 102 585 75Q536 26 481.5 6.5Q427 -13 364 -13Q307 -13 261.5 5Q216 23 183.5 54Q151 85 131 127Q111 169 105 216H-4L27 295H103Q104 309 106 321.5Q108 334 110 348H47L78 427H131Q145 466 166.5 501.5Q188 537 217 566Q265 614 324 639.5Q383 665 459 665Q517 665 562 646.5Q607 628 637 595.5Q667 563 680.5 518.5Q694 474 689 421H536Q540 473 516 502.5Q492 532 446 532Q397 532 361.5 502.5Q326 473 304 427H482Z" glyph-name="Euro" horiz-adv-x="697" unicode="&#8364;" /><glyph d="M195 0H30L132 650H592L571 517H274L253 380H507L485 243H233Z" glyph-name="F" horiz-adv-x="556" unicode="F" /><glyph d="M351 -15Q283 -15 225.5 5.5Q168 26 126.5 65.5Q85 105 61.5 162Q38 219 38 291Q38 360 67.5 430Q97 500 151 554Q204 607 275 636Q346 665 427 665Q495 665 547 649.5Q599 634 634 606.5Q669 579 687.5 541Q706 503 706 457L704 444H545Q543 486 513.5 507Q484 528 430 528Q381 528 340.5 510Q300 492 271 460Q242 428 226.5 385Q211 342 211 291Q211 212 253.5 165.5Q296 119 377 119Q428 119 465.5 134Q503 149 529 172L538 228H371L392 360H706L666 113Q647 92 618 69.5Q589 47 550 28.5Q511 10 461.5 -2.5Q412 -15 351 -15Z" glyph-name="G" horiz-adv-x="739" unicode="G" /><glyph d="M195 0H30L132 650H297L257 395H522L562 650H727L625 0H460L501 262H236Z" glyph-name="H" horiz-adv-x="732" unicode="H" /><glyph d="M195 0H30L132 650H297Z" glyph-name="I" horiz-adv-x="302" unicode="I" /><glyph d="M195 0H30L132 650H297ZM398 792 108 689 80 780 357 919Z" glyph-name="Iacute" horiz-adv-x="302" unicode="&#205;" /><glyph d="M195 0H30L132 650H297ZM242 771 82 685 39 765 241 903H267L423 765L365 691Z" glyph-name="Icircumflex" horiz-adv-x="302" unicode="&#206;" /><glyph d="M195 0H30L132 650H297ZM342 714Q310 714 286 732Q262 750 262 787Q262 807 269.5 823.5Q277 840 290 852Q303 864 319 870.5Q335 877 353 877Q385 877 409.5 857Q434 837 434 800Q434 760 407.5 737Q381 714 342 714ZM126 714Q94 714 70 732Q46 750 46 787Q46 807 53.5 823.5Q61 840 74 852Q87 864 103 870.5Q119 877 137 877Q169 877 193.5 857Q218 837 218 800Q218 760 191.5 737Q165 714 126 714Z" glyph-name="Idieresis" horiz-adv-x="302" unicode="&#207;" /><glyph d="M195 0H30L132 650H297ZM375 771 325 689 69 792 142 910Z" glyph-name="Igrave" horiz-adv-x="302" unicode="&#204;" /><glyph d="M117 -15Q79 -15 42.5 -10Q6 -5 -20 6L2 140H20Q37 130 60 126.5Q83 123 104 123Q147 123 174.5 143.5Q202 164 211 223L279 650H440L369 201Q360 142 338.5 100.5Q317 59 284.5 33.5Q252 8 210 -3.5Q168 -15 117 -15Z" glyph-name="J" horiz-adv-x="446" unicode="J" /><glyph d="M195 0H30L132 650H297L256 387L506 650H687L685 632L407 336L604 18L602 0H424L242 300Z" glyph-name="K" horiz-adv-x="653" unicode="K" /><glyph d="M470 0H30L132 650H297L215 131H490Z" glyph-name="L" horiz-adv-x="536" unicode="L" /><glyph d="M167 0H3L5 18L204 650H364L464 230H466L714 650H870L865 18L863 0H708L713 262Q713 278 714 304.5Q715 331 717 360Q719 389 721.5 415.5Q724 442 728 457H726Q721 441 712.5 419Q704 397 694.5 374.5Q685 352 676 331.5Q667 311 660 299L500 10H380L313 283Q311 292 306.5 315Q302 338 298 364.5Q294 391 290.5 416.5Q287 442 287 457H285Q284 441 280 415.5Q276 390 270 362L260 310Q255 285 250 270Z" glyph-name="M" horiz-adv-x="946" unicode="M" /><glyph d="M191 0H30L132 650H287L435 387Q461 344 479.5 302.5Q498 261 507 241H509Q510 249 511.5 267Q513 285 516 308Q519 331 522.5 358.5Q526 386 530 413L566 650H727L625 0H477L322 271Q299 310 279.5 349Q260 388 251 411H249Q248 403 246 385.5Q244 368 242 345.5Q240 323 237 297.5Q234 272 230 248Z" glyph-name="N" horiz-adv-x="732" unicode="N" /><glyph glyph-name="NULL" horiz-adv-x="0" /><glyph d="M191 0H30L132 650H287L435 387Q461 344 479.5 302.5Q498 261 507 241H509Q510 249 511.5 267Q513 285 516 308Q519 331 522.5 358.5Q526 386 530 413L566 650H727L625 0H477L322 271Q299 310 279.5 349Q260 388 251 411H249Q248 403 246 385.5Q244 368 242 345.5Q240 323 237 297.5Q234 272 230 248ZM347 701H239Q242 736 255 766Q268 796 288 817.5Q308 839 333 851Q358 863 385 863Q408 863 423.5 856.5Q439 850 452 842.5Q465 835 477.5 828.5Q490 822 506 822Q511 822 516.5 823Q522 824 528 828.5Q534 833 539 841.5Q544 850 547 866H655Q652 830 639 800.5Q626 771 606.5 749.5Q587 728 563 716Q539 704 513 704Q489 704 473 710.5Q457 717 443.5 724.5Q430 732 417.5 738.5Q405 745 388 745Q384 745 378 744Q372 743 366 738.5Q360 734 355 725.5Q350 717 347 701Z" glyph-name="Ntilde" horiz-adv-x="732" unicode="&#209;" /><glyph d="M344 -15Q275 -15 218.5 6Q162 27 122 66Q82 105 60 159.5Q38 214 38 280Q38 355 69 429.5Q100 504 152 556Q206 610 273 637.5Q340 665 432 665Q501 665 557.5 644Q614 623 654.5 585Q695 547 717 494Q739 441 739 378Q739 294 708 220.5Q677 147 626 96Q515 -15 344 -15ZM355 124Q402 124 440 145Q478 166 505 200.5Q532 235 547 279.5Q562 324 562 372Q562 439 527 482.5Q492 526 419 526Q371 526 333 505.5Q295 485 268.5 450.5Q242 416 228 372Q214 328 214 280Q214 213 249.5 168.5Q285 124 355 124Z" glyph-name="O" horiz-adv-x="753" unicode="O" /><glyph d="M966 0H516L522 38Q505 27 487 17Q425 -15 344 -15Q275 -15 218.5 6Q162 27 122 66Q82 105 60 159.5Q38 214 38 280Q38 355 69 429.5Q100 504 152 556Q206 610 278.5 637.5Q351 665 428 665Q499 665 546 644Q584 628 610 602L618 650H1068L1047 517H762L743 397H985L964 260H722L702 134H987ZM355 124Q402 124 440 145Q478 166 505 200.5Q532 235 547 279.5Q562 324 562 372Q562 439 527 482.5Q492 526 419 526Q371 526 333 505.5Q295 485 268.5 450.5Q242 416 228 372Q214 328 214 280Q214 213 249.5 168.5Q285 124 355 124Z" glyph-name="OE" horiz-adv-x="1035" unicode="&#338;" /><glyph d="M344 -15Q275 -15 218.5 6Q162 27 122 66Q82 105 60 159.5Q38 214 38 280Q38 355 69 429.5Q100 504 152 556Q206 610 273 637.5Q340 665 432 665Q501 665 557.5 644Q614 623 654.5 585Q695 547 717 494Q739 441 739 378Q739 294 708 220.5Q677 147 626 96Q515 -15 344 -15ZM355 124Q402 124 440 145Q478 166 505 200.5Q532 235 547 279.5Q562 324 562 372Q562 439 527 482.5Q492 526 419 526Q371 526 333 505.5Q295 485 268.5 450.5Q242 416 228 372Q214 328 214 280Q214 213 249.5 168.5Q285 124 355 124ZM626 792 336 689 308 780 585 919Z" glyph-name="Oacute" horiz-adv-x="753" unicode="&#211;" /><glyph d="M344 -15Q275 -15 218.5 6Q162 27 122 66Q82 105 60 159.5Q38 214 38 280Q38 355 69 429.5Q100 504 152 556Q206 610 273 637.5Q340 665 432 665Q501 665 557.5 644Q614 623 654.5 585Q695 547 717 494Q739 441 739 378Q739 294 708 220.5Q677 147 626 96Q515 -15 344 -15ZM355 124Q402 124 440 145Q478 166 505 200.5Q532 235 547 279.5Q562 324 562 372Q562 439 527 482.5Q492 526 419 526Q371 526 333 505.5Q295 485 268.5 450.5Q242 416 228 372Q214 328 214 280Q214 213 249.5 168.5Q285 124 355 124ZM463 771 303 685 260 765 462 903H488L644 765L586 691Z" glyph-name="Ocircumflex" horiz-adv-x="753" unicode="&#212;" /><glyph d="M344 -15Q275 -15 218.5 6Q162 27 122 66Q82 105 60 159.5Q38 214 38 280Q38 355 69 429.5Q100 504 152 556Q206 610 273 637.5Q340 665 432 665Q501 665 557.5 644Q614 623 654.5 585Q695 547 717 494Q739 441 739 378Q739 294 708 220.5Q677 147 626 96Q515 -15 344 -15ZM355 124Q402 124 440 145Q478 166 505 200.5Q532 235 547 279.5Q562 324 562 372Q562 439 527 482.5Q492 526 419 526Q371 526 333 505.5Q295 485 268.5 450.5Q242 416 228 372Q214 328 214 280Q214 213 249.5 168.5Q285 124 355 124ZM560 714Q528 714 504 732Q480 750 480 787Q480 807 487.5 823.5Q495 840 508 852Q521 864 537 870.5Q553 877 571 877Q603 877 627.5 857Q652 837 652 800Q652 760 625.5 737Q599 714 560 714ZM344 714Q312 714 288 732Q264 750 264 787Q264 807 271.5 823.5Q279 840 292 852Q305 864 321 870.5Q337 877 355 877Q387 877 411.5 857Q436 837 436 800Q436 760 409.5 737Q383 714 344 714Z" glyph-name="Odieresis" horiz-adv-x="753" unicode="&#214;" /><glyph d="M344 -15Q275 -15 218.5 6Q162 27 122 66Q82 105 60 159.5Q38 214 38 280Q38 355 69 429.5Q100 504 152 556Q206 610 273 637.5Q340 665 432 665Q501 665 557.5 644Q614 623 654.5 585Q695 547 717 494Q739 441 739 378Q739 294 708 220.5Q677 147 626 96Q515 -15 344 -15ZM355 124Q402 124 440 145Q478 166 505 200.5Q532 235 547 279.5Q562 324 562 372Q562 439 527 482.5Q492 526 419 526Q371 526 333 505.5Q295 485 268.5 450.5Q242 416 228 372Q214 328 214 280Q214 213 249.5 168.5Q285 124 355 124ZM602 771 552 689 296 792 369 910Z" glyph-name="Ograve" horiz-adv-x="753" unicode="&#210;" /><glyph d="M344 -15Q301 -15 263 -7L229 -65H87L90 -50L146 45Q133 55 122 66Q82 105 60 159.5Q38 214 38 280Q38 355 69 429.5Q100 504 152 556Q206 610 273 637.5Q340 665 432 665Q471 665 506 658L539 715H682L679 700L625 609Q641 598 654 585Q695 547 717 494Q739 441 739 378Q739 294 708 220.5Q677 147 626 96Q515 -15 344 -15ZM355 124Q402 124 440 145Q478 166 505 200.5Q532 235 547 279.5Q562 324 562 372Q562 425 540 463L340 124ZM333 505Q295 485 268.5 450.5Q242 416 228 372Q214 328 214 280Q214 230 233 193L428 526H419Q371 526 333 505Z" glyph-name="Oslash" horiz-adv-x="753" unicode="&#216;" /><glyph d="M344 -15Q275 -15 218.5 6Q162 27 122 66Q82 105 60 159.5Q38 214 38 280Q38 355 69 429.5Q100 504 152 556Q206 610 273 637.5Q340 665 432 665Q501 665 557.5 644Q614 623 654.5 585Q695 547 717 494Q739 441 739 378Q739 294 708 220.5Q677 147 626 96Q515 -15 344 -15ZM355 124Q402 124 440 145Q478 166 505 200.5Q532 235 547 279.5Q562 324 562 372Q562 439 527 482.5Q492 526 419 526Q371 526 333 505.5Q295 485 268.5 450.5Q242 416 228 372Q214 328 214 280Q214 213 249.5 168.5Q285 124 355 124ZM358 701H250Q253 736 266 766Q279 796 299 817.5Q319 839 344 851Q369 863 396 863Q419 863 434.5 856.5Q450 850 463 842.5Q476 835 488.5 828.5Q501 822 517 822Q522 822 527.5 823Q533 824 539 828.5Q545 833 550 841.5Q555 850 558 866H666Q663 830 650 800.5Q637 771 617.5 749.5Q598 728 574 716Q550 704 524 704Q500 704 484 710.5Q468 717 454.5 724.5Q441 732 428.5 738.5Q416 745 399 745Q395 745 389 744Q383 743 377 738.5Q371 734 366 725.5Q361 717 358 701Z" glyph-name="Otilde" horiz-adv-x="753" unicode="&#213;" /><glyph d="M196 0H30L132 650H412Q464 650 507 637.5Q550 625 581 599Q612 573 629 534Q646 495 646 442Q646 389 627.5 341.5Q609 294 575 260Q535 220 477 200Q419 180 349 180H224ZM278 523 244 308H346Q416 308 447.5 346Q479 384 479 442Q479 479 457.5 501Q436 523 385 523Z" glyph-name="P" horiz-adv-x="634" unicode="P" /><glyph d="M344 -15Q275 -15 218.5 6Q162 27 122 66Q82 105 60 159.5Q38 214 38 280Q38 355 69 429.5Q100 504 152 556Q206 610 273 637.5Q340 665 432 665Q501 665 557.5 644Q614 623 654.5 585Q695 547 717 494Q739 441 739 378Q739 294 708 220.5Q677 147 626 96Q585 55 535 29L612 -93L608 -114H435L376 -14Q360 -15 344 -15ZM355 124Q402 124 440 145Q478 166 505 200.5Q532 235 547 279.5Q562 324 562 372Q562 439 527 482.5Q492 526 419 526Q371 526 333 505.5Q295 485 268.5 450.5Q242 416 228 372Q214 328 214 280Q214 213 249.5 168.5Q285 124 355 124Z" glyph-name="Q" horiz-adv-x="753" unicode="Q" /><glyph d="M195 0H30L132 650H412Q459 650 499.5 639Q540 628 570 605Q600 582 617.5 545.5Q635 509 635 458Q635 383 588.5 324.5Q542 266 459 240L591 20L588 0H418L289 228H231ZM277 523 249 346H339Q404 346 437.5 376Q471 406 471 454Q471 480 453.5 501.5Q436 523 388 523Z" glyph-name="R" horiz-adv-x="633" unicode="R" /><glyph d="M259 -15Q211 -15 166.5 -5Q122 5 89 27Q56 49 37.5 85.5Q19 122 22 174L24 188H185Q184 183 184 174Q184 138 208.5 121.5Q233 105 275 105Q318 105 348 125Q378 145 378 179Q378 191 374.5 200Q371 209 361 219Q346 234 314.5 245.5Q283 257 247 269Q211 281 176.5 296.5Q142 312 119 334Q99 354 87 380Q75 406 75 444Q75 530 133 588Q180 635 237.5 648.5Q295 662 353 662Q400 662 441.5 652Q483 642 513.5 621Q544 600 560.5 567Q577 534 575 488L573 475H416Q418 503 400 522Q382 541 337 541Q297 541 273 521Q249 501 249 473Q249 451 260 440Q274 425 303 415Q332 405 367 394.5Q402 384 438 368.5Q474 353 501 326Q524 303 535 275.5Q546 248 546 207Q546 171 532 131Q518 91 488 61Q446 19 388 2Q330 -15 259 -15Z" glyph-name="S" horiz-adv-x="587" unicode="S" /><glyph d="M340 0H175L256 517H71L92 650H620L599 517H421Z" glyph-name="T" horiz-adv-x="585" unicode="T" /><glyph d="M314 -15Q251 -15 200.5 2Q150 19 116.5 52.5Q83 86 69 135.5Q55 185 65 249L128 650H292L228 243Q219 184 242.5 153Q266 122 327 122Q373 122 410.5 148.5Q448 175 457 233L523 650H688L620 219Q604 113 527.5 49Q451 -15 314 -15Z" glyph-name="U" horiz-adv-x="690" unicode="U" /><glyph d="M314 -15Q251 -15 200.5 2Q150 19 116.5 52.5Q83 86 69 135.5Q55 185 65 249L128 650H292L228 243Q219 184 242.5 153Q266 122 327 122Q373 122 410.5 148.5Q448 175 457 233L523 650H688L620 219Q604 113 527.5 49Q451 -15 314 -15ZM599 792 309 689 281 780 558 919Z" glyph-name="Uacute" horiz-adv-x="690" unicode="&#218;" /><glyph d="M314 -15Q251 -15 200.5 2Q150 19 116.5 52.5Q83 86 69 135.5Q55 185 65 249L128 650H292L228 243Q219 184 242.5 153Q266 122 327 122Q373 122 410.5 148.5Q448 175 457 233L523 650H688L620 219Q604 113 527.5 49Q451 -15 314 -15ZM443 773 283 687 240 767 442 905H468L624 767L566 693Z" glyph-name="Ucircumflex" horiz-adv-x="690" unicode="&#219;" /><glyph d="M314 -15Q251 -15 200.5 2Q150 19 116.5 52.5Q83 86 69 135.5Q55 185 65 249L128 650H292L228 243Q219 184 242.5 153Q266 122 327 122Q373 122 410.5 148.5Q448 175 457 233L523 650H688L620 219Q604 113 527.5 49Q451 -15 314 -15ZM525 714Q493 714 469 732Q445 750 445 787Q445 807 452.5 823.5Q460 840 473 852Q486 864 502 870.5Q518 877 536 877Q568 877 592.5 857Q617 837 617 800Q617 760 590.5 737Q564 714 525 714ZM309 714Q277 714 253 732Q229 750 229 787Q229 807 236.5 823.5Q244 840 257 852Q270 864 286 870.5Q302 877 320 877Q352 877 376.5 857Q401 837 401 800Q401 760 374.5 737Q348 714 309 714Z" glyph-name="Udieresis" horiz-adv-x="690" unicode="&#220;" /><glyph d="M314 -15Q251 -15 200.5 2Q150 19 116.5 52.5Q83 86 69 135.5Q55 185 65 249L128 650H292L228 243Q219 184 242.5 153Q266 122 327 122Q373 122 410.5 148.5Q448 175 457 233L523 650H688L620 219Q604 113 527.5 49Q451 -15 314 -15ZM567 771 517 689 261 792 334 910Z" glyph-name="Ugrave" horiz-adv-x="690" unicode="&#217;" /><glyph d="M380 0H223L62 632L64 650H231L311 282Q316 265 319.5 239Q323 213 326 184H328Q339 213 349.5 238.5Q360 264 370 282L563 650H744L742 632Z" glyph-name="V" horiz-adv-x="682" unicode="V" /><glyph d="M303 0H151L56 632L58 650H219L253 326Q256 299 257 261.5Q258 224 259 198H261Q268 224 279.5 261.5Q291 299 302 326L444 650H609L652 326Q654 299 656 261.5Q658 224 657 198H659Q667 224 678 261.5Q689 299 701 326L829 650H1003L1001 632L712 0H553L496 423H494Z" glyph-name="W" horiz-adv-x="935" unicode="W" /><glyph d="M152 0H-36L-34 18L253 344L96 632L98 650H269L361 469L500 650H685L683 632L445 347L617 18L615 0H442L335 212Z" glyph-name="X" horiz-adv-x="673" unicode="X" /><glyph d="M365 0H200L241 263L61 632L63 650H234L341 405L528 650H707L705 632L406 263Z" glyph-name="Y" horiz-adv-x="644" unicode="Y" /><glyph d="M365 0H200L241 263L61 632L63 650H234L341 405L528 650H707L705 632L406 263ZM514 714Q482 714 458 732Q434 750 434 787Q434 807 441.5 823.5Q449 840 462 852Q475 864 491 870.5Q507 877 525 877Q557 877 581.5 857Q606 837 606 800Q606 760 579.5 737Q553 714 514 714ZM298 714Q266 714 242 732Q218 750 218 787Q218 807 225.5 823.5Q233 840 246 852Q259 864 275 870.5Q291 877 309 877Q341 877 365.5 857Q390 837 390 800Q390 760 363.5 737Q337 714 298 714Z" glyph-name="Ydieresis" horiz-adv-x="644" unicode="&#376;" /><glyph d="M523 0H7L21 89L379 515V517H105L126 650H634L621 565L264 135V133H544Z" glyph-name="Z" horiz-adv-x="603" unicode="Z" /><glyph d="M230 -15Q191 -15 154.5 -2Q118 11 89.5 38Q61 65 44 107.5Q27 150 27 209Q27 269 51 331.5Q75 394 121 440Q157 476 205 495.5Q253 515 302 515Q359 515 394 495.5Q429 476 453 442H455L484 500H600L521 0H408L397 61H395Q360 20 317 2.5Q274 -15 230 -15ZM281 115Q312 115 336 129.5Q360 144 376 168Q392 192 400.5 222.5Q409 253 409 285Q409 330 389 358Q369 386 324 386Q293 386 269 371.5Q245 357 228.5 333Q212 309 203.5 278.5Q195 248 195 216Q195 172 215.5 143.5Q236 115 281 115Z" glyph-name="a" horiz-adv-x="619" unicode="a" /><glyph d="M230 -15Q191 -15 154.5 -2Q118 11 89.5 38Q61 65 44 107.5Q27 150 27 209Q27 269 51 331.5Q75 394 121 440Q157 476 205 495.5Q253 515 302 515Q359 515 394 495.5Q429 476 453 442H455L484 500H600L521 0H408L397 61H395Q360 20 317 2.5Q274 -15 230 -15ZM281 115Q312 115 336 129.5Q360 144 376 168Q392 192 400.5 222.5Q409 253 409 285Q409 330 389 358Q369 386 324 386Q293 386 269 371.5Q245 357 228.5 333Q212 309 203.5 278.5Q195 248 195 216Q195 172 215.5 143.5Q236 115 281 115ZM509 642 219 539 191 630 468 769Z" glyph-name="aacute" horiz-adv-x="619" unicode="&#225;" /><glyph d="M230 -15Q191 -15 154.5 -2Q118 11 89.5 38Q61 65 44 107.5Q27 150 27 209Q27 269 51 331.5Q75 394 121 440Q157 476 205 495.5Q253 515 302 515Q359 515 394 495.5Q429 476 453 442H455L484 500H600L521 0H408L397 61H395Q360 20 317 2.5Q274 -15 230 -15ZM281 115Q312 115 336 129.5Q360 144 376 168Q392 192 400.5 222.5Q409 253 409 285Q409 330 389 358Q369 386 324 386Q293 386 269 371.5Q245 357 228.5 333Q212 309 203.5 278.5Q195 248 195 216Q195 172 215.5 143.5Q236 115 281 115ZM361 621 201 535 158 615 360 753H386L542 615L484 541Z" glyph-name="acircumflex" horiz-adv-x="619" unicode="&#226;" /><glyph d="M477 642 187 539 159 630 436 769Z" glyph-name="acute" horiz-adv-x="500" unicode="&#180;" /><glyph d="M230 -15Q191 -15 154.5 -2Q118 11 89.5 38Q61 65 44 107.5Q27 150 27 209Q27 269 51 331.5Q75 394 121 440Q157 476 205 495.5Q253 515 302 515Q359 515 394 495.5Q429 476 453 442H455L484 500H600L521 0H408L397 61H395Q360 20 317 2.5Q274 -15 230 -15ZM281 115Q312 115 336 129.5Q360 144 376 168Q392 192 400.5 222.5Q409 253 409 285Q409 330 389 358Q369 386 324 386Q293 386 269 371.5Q245 357 228.5 333Q212 309 203.5 278.5Q195 248 195 216Q195 172 215.5 143.5Q236 115 281 115ZM460 554Q428 554 404 572Q380 590 380 627Q380 647 387.5 663.5Q395 680 408 692Q421 704 437 710.5Q453 717 471 717Q503 717 527.5 697Q552 677 552 640Q552 600 525.5 577Q499 554 460 554ZM244 554Q212 554 188 572Q164 590 164 627Q164 647 171.5 663.5Q179 680 192 692Q205 704 221 710.5Q237 717 255 717Q287 717 311.5 697Q336 677 336 640Q336 600 309.5 577Q283 554 244 554Z" glyph-name="adieresis" horiz-adv-x="619" unicode="&#228;" /><glyph d="M182 -16Q148 -16 117.5 -7Q87 2 63.5 20.5Q40 39 26.5 66.5Q13 94 13 131Q13 170 26.5 201Q40 232 72 259Q88 273 110 283.5Q132 294 156.5 300.5Q181 307 206.5 310Q232 313 256 313Q287 313 310 309.5Q333 306 352 300L356 325Q361 361 347 382Q333 403 298 403Q271 403 251.5 388.5Q232 374 224 345H74L76 358Q86 398 110 427.5Q134 457 167.5 476.5Q201 496 241 505.5Q281 515 323 515Q365 515 404 503.5Q443 492 470 461Q502 488 546 502Q590 516 635 516Q678 516 715.5 503Q753 490 781 464Q809 438 825 399.5Q841 361 841 309Q841 284 837 258Q833 232 826 212H505Q501 165 519.5 134.5Q538 104 582 104Q610 104 633 115.5Q656 127 671 156H818Q811 129 796.5 104.5Q782 80 763 61Q723 21 675 2.5Q627 -16 569 -16Q514 -16 467 3Q420 22 388 57Q337 12 283 -2Q229 -16 182 -16ZM233 103Q246 103 263.5 108Q281 113 297.5 122.5Q314 132 326.5 146.5Q339 161 343 180Q343 183 342.5 186.5Q342 190 342 198Q328 206 310 211Q292 216 266 216Q250 216 233 212.5Q216 209 202.5 201Q189 193 180 180.5Q171 168 171 149Q171 125 189 114Q207 103 233 103ZM688 312Q689 318 689.5 323.5Q690 329 690 334Q690 366 674 385Q658 404 623 404Q582 404 558.5 377.5Q535 351 524 312Z" glyph-name="ae" horiz-adv-x="867" unicode="&#230;" /><glyph d="M230 -15Q191 -15 154.5 -2Q118 11 89.5 38Q61 65 44 107.5Q27 150 27 209Q27 269 51 331.5Q75 394 121 440Q157 476 205 495.5Q253 515 302 515Q359 515 394 495.5Q429 476 453 442H455L484 500H600L521 0H408L397 61H395Q360 20 317 2.5Q274 -15 230 -15ZM281 115Q312 115 336 129.5Q360 144 376 168Q392 192 400.5 222.5Q409 253 409 285Q409 330 389 358Q369 386 324 386Q293 386 269 371.5Q245 357 228.5 333Q212 309 203.5 278.5Q195 248 195 216Q195 172 215.5 143.5Q236 115 281 115ZM505 621 455 539 199 642 272 760Z" glyph-name="agrave" horiz-adv-x="619" unicode="&#224;" /><glyph d="M332 441Q351 452 366 462Q381 472 392 483Q407 498 412.5 512.5Q418 527 418 543Q418 562 408 576Q398 590 374 590Q345 590 329.5 568Q314 546 314 520Q314 485 332 441ZM373 116Q344 150 316.5 187.5Q289 225 265 263Q256 256 248 249.5Q240 243 232 235Q216 219 211 204Q206 189 206 174Q206 139 234 122.5Q262 106 300 106Q339 106 373 116ZM282 -15Q171 -15 108.5 29.5Q46 74 46 160Q46 193 60.5 230.5Q75 268 107 300Q127 320 152.5 337.5Q178 355 206 372Q192 406 183.5 436Q175 466 175 491Q175 534 186 570.5Q197 607 225 635Q254 664 292.5 679.5Q331 695 382 695Q422 695 452.5 683Q483 671 504 651Q525 631 536 604Q547 577 547 547Q547 512 533 476.5Q519 441 487 409Q467 389 441 371Q415 353 386 336Q409 301 435.5 265.5Q462 230 491 196Q502 214 508.5 234.5Q515 255 515 280Q515 327 493 362L496 379H627Q640 358 644.5 332Q649 306 649 282Q649 229 630.5 184Q612 139 579 103Q606 77 631.5 56.5Q657 36 679 22L676 6L520 -15Q496 -2 466 23Q384 -15 282 -15Z" glyph-name="ampersand" horiz-adv-x="730" unicode="&amp;" /><glyph d="M94 338H86L107 468Q172 503 260 503Q289 503 317.5 499Q346 495 374.5 490Q403 485 431.5 481Q460 477 489 477Q528 477 564.5 484.5Q601 492 639 510L646 511L626 381Q599 363 560 353Q521 343 467 343Q438 343 409.5 347Q381 351 352.5 355.5Q324 360 295.5 364Q267 368 238 368Q204 368 168 361.5Q132 355 94 338ZM59 118H51L72 247Q137 282 225 282Q254 282 282.5 278Q311 274 339.5 269Q368 264 396.5 260Q425 256 454 256Q493 256 529.5 263.5Q566 271 604 289L611 290L591 161Q564 143 525 133Q486 123 432 123Q403 123 374.5 127Q346 131 317.5 135.5Q289 140 260.5 144Q232 148 203 148Q169 148 133 141.5Q97 135 59 118Z" glyph-name="approxequal" horiz-adv-x="677" unicode="&#8776;" /><glyph d="M230 -15Q191 -15 154.5 -2Q118 11 89.5 38Q61 65 44 107.5Q27 150 27 209Q27 269 51 331.5Q75 394 121 440Q157 476 205 495Q228 505 251 509Q232 533 232 574Q232 601 243.5 623.5Q255 646 273.5 662.5Q292 679 316.5 688Q341 697 367 697Q412 697 443.5 672Q475 647 475 596Q475 571 464 548.5Q453 526 435 509Q421 497 405 488Q433 470 453 442H455L484 500H600L521 0H408L397 61H395Q360 20 317 2.5Q274 -15 230 -15ZM281 115Q312 115 336 129.5Q360 144 376 168Q392 192 400.5 222.5Q409 253 409 285Q409 330 389 358Q369 386 324 386Q293 386 269 371.5Q245 357 228.5 333Q212 309 203.5 278.5Q195 248 195 216Q195 172 215.5 143.5Q236 115 281 115ZM349 544Q366 544 381.5 557Q397 570 397 590Q397 610 386 619Q375 628 359 628Q342 628 326.5 614.5Q311 601 311 581Q311 562 322 553Q333 544 349 544Z" glyph-name="aring" horiz-adv-x="619" unicode="&#229;" /><glyph d="M178 361H32L247 650H362L485 361H352L289 516Z" glyph-name="asciicircum" horiz-adv-x="481" unicode="^" /><glyph d="M46 209 64 326Q96 348 137.5 359Q179 370 215 370Q251 370 279 363Q307 356 333.5 347Q360 338 387.5 331Q415 324 451 324Q486 324 523.5 335Q561 346 602 371L584 254Q552 232 511.5 221.5Q471 211 434 211Q398 211 370 217.5Q342 224 316 232.5Q290 241 262 247.5Q234 254 198 254Q163 254 124 243Q85 232 46 209Z" glyph-name="asciitilde" horiz-adv-x="635" unicode="~" /><glyph d="M251 480 184 384 108 443 198 519 94 536 141 633 233 587 236 696H339L304 587L412 633L428 536L318 521L381 444L290 384Z" glyph-name="asterisk" horiz-adv-x="433" unicode="*" /><glyph d="M361 -72Q290 -72 230.5 -50.5Q171 -29 128.5 10.5Q86 50 62 104Q38 158 38 222Q38 303 70 372.5Q102 442 157.5 493.5Q213 545 286.5 574Q360 603 443 603Q511 603 568 583Q625 563 665.5 528Q706 493 728.5 446Q751 399 751 344Q751 293 734 249.5Q717 206 687.5 174.5Q658 143 617.5 125Q577 107 529 107Q463 107 442 163Q416 137 387.5 125.5Q359 114 332 114Q310 114 290 120.5Q270 127 254.5 140.5Q239 154 230 174Q221 194 221 222Q221 264 238.5 301.5Q256 339 284.5 366.5Q313 394 350 410.5Q387 427 425 427Q453 427 475.5 417Q498 407 506 383L529 418H598L541 236Q533 212 536.5 196.5Q540 181 561 181Q584 181 602 196Q620 211 632.5 233.5Q645 256 651.5 282.5Q658 309 658 333Q658 372 642 405Q626 438 596.5 462Q567 486 525.5 500Q484 514 432 514Q371 514 317.5 490Q264 466 224.5 426Q185 386 162.5 333.5Q140 281 140 223Q140 175 157 136.5Q174 98 205 71Q236 44 279.5 29.5Q323 15 375 15Q423 15 476 24.5Q529 34 577 56H593L579 -30Q528 -52 478.5 -62Q429 -72 361 -72ZM372 202Q390 202 405.5 211Q421 220 432 234.5Q443 249 449 267Q455 285 455 302Q455 342 415 342Q400 342 385 334.5Q370 327 358.5 313.5Q347 300 339.5 282Q332 264 332 243Q332 202 372 202Z" glyph-name="at" horiz-adv-x="764" unicode="@" /><glyph d="M230 -15Q191 -15 154.5 -2Q118 11 89.5 38Q61 65 44 107.5Q27 150 27 209Q27 269 51 331.5Q75 394 121 440Q157 476 205 495.5Q253 515 302 515Q359 515 394 495.5Q429 476 453 442H455L484 500H600L521 0H408L397 61H395Q360 20 317 2.5Q274 -15 230 -15ZM281 115Q312 115 336 129.5Q360 144 376 168Q392 192 400.5 222.5Q409 253 409 285Q409 330 389 358Q369 386 324 386Q293 386 269 371.5Q245 357 228.5 333Q212 309 203.5 278.5Q195 248 195 216Q195 172 215.5 143.5Q236 115 281 115ZM251 551H143Q146 586 159 616Q172 646 192 667.5Q212 689 237 701Q262 713 289 713Q312 713 327.5 706.5Q343 700 356 692.5Q369 685 381.5 678.5Q394 672 410 672Q415 672 420.5 673Q426 674 432 678.5Q438 683 443 691.5Q448 700 451 716H559Q556 680 543 650.5Q530 621 510.5 599.5Q491 578 467 566Q443 554 417 554Q393 554 377 560.5Q361 567 347.5 574.5Q334 582 321.5 588.5Q309 595 292 595Q288 595 282 594Q276 593 270 588.5Q264 584 259 575.5Q254 567 251 551Z" glyph-name="atilde" horiz-adv-x="619" unicode="&#227;" /><glyph d="M325 -15Q259 -15 223 4.5Q187 24 163 58H161L132 0H20L131 700H288L249 456H251Q308 515 394 515Q430 515 465.5 502Q501 489 529.5 462Q558 435 575.5 392.5Q593 350 593 291Q593 231 569.5 168.5Q546 106 500 60Q464 24 415.5 4.5Q367 -15 325 -15ZM296 114Q327 114 351 128.5Q375 143 391.5 167Q408 191 416.5 221.5Q425 252 425 284Q425 328 404.5 356.5Q384 385 339 385Q308 385 284 370.5Q260 356 244 332Q228 308 219.5 277.5Q211 247 211 215Q211 170 231 142Q251 114 296 114Z" glyph-name="b" horiz-adv-x="619" unicode="b" /><glyph d="M438 -124H289L81 680L84 696H233L440 -108Z" glyph-name="backslash" horiz-adv-x="516" unicode="\" /><glyph d="M278 -126H141L283 773H420Z" glyph-name="bar" horiz-adv-x="537" unicode="|" /><glyph d="M309 -124H234Q161 -124 122.5 -82.5Q84 -41 95 28L112 137Q121 195 103.5 227Q86 259 51 276L55 297Q95 314 122.5 344.5Q150 375 159 435L178 554Q188 615 227.5 655.5Q267 696 344 696H439L420 575H371Q344 575 332.5 555Q321 535 316 501L302 411Q296 371 282.5 346.5Q269 322 254 307.5Q239 293 223.5 287.5Q208 282 197 279V277Q207 275 220.5 267Q234 259 244.5 242.5Q255 226 259.5 200Q264 174 258 135L248 71Q243 37 247.5 17Q252 -3 279 -3H328Z" glyph-name="braceleft" horiz-adv-x="436" unicode="{" /><glyph d="M138 696H213Q286 696 324.5 654.5Q363 613 352 544L335 435Q326 377 343.5 345Q361 313 396 296L392 275Q352 258 324.5 227.5Q297 197 288 137L269 18Q259 -43 219.5 -83.5Q180 -124 103 -124H8L27 -3H76Q103 -3 114.5 17Q126 37 131 71L145 161Q151 201 164.5 225.5Q178 250 193 264.5Q208 279 223.5 284.5Q239 290 250 293V295Q240 297 227 305Q214 313 203.5 329.5Q193 346 188 372Q183 398 189 437L199 501Q204 535 199.5 555Q195 575 168 575H119Z" glyph-name="braceright" horiz-adv-x="436" unicode="}" /><glyph d="M294 -124H9L139 696H425L406 575H270L178 -3H313Z" glyph-name="bracketleft" horiz-adv-x="407" unicode="[" /><glyph d="M125 696H410L280 -124H-6L13 -3H149L241 575H106Z" glyph-name="bracketright" horiz-adv-x="407" unicode="]" /><glyph d="M299 541Q268 541 236.5 551Q205 561 180 582Q155 603 140 634.5Q125 666 126 708H256Q257 679 272.5 662.5Q288 646 316 646Q343 646 360.5 662.5Q378 679 385 708H514Q506 665 486 633.5Q466 602 437.5 581.5Q409 561 373.5 551Q338 541 299 541Z" glyph-name="breve" horiz-adv-x="500" unicode="&#728;" /><glyph d="M245 165Q190 165 152 195.5Q114 226 114 284V295Q114 323 124.5 345.5Q135 368 153 383.5Q171 399 195.5 407.5Q220 416 247 416Q274 416 298 407.5Q322 399 340 383.5Q358 368 368 345.5Q378 323 378 295V284Q378 255 367.5 233Q357 211 339 196Q321 181 296.5 173Q272 165 245 165Z" glyph-name="bullet" horiz-adv-x="480" unicode="&#8226;" /><glyph d="M267 -16Q219 -16 176 -1.5Q133 13 100 42Q67 71 47.5 114Q28 157 28 213Q28 275 51 331.5Q74 388 116 430Q157 471 211 493.5Q265 516 328 516Q379 516 420 501.5Q461 487 490.5 461Q520 435 535.5 398Q551 361 551 317L549 304H412Q411 346 387 369.5Q363 393 323 393Q291 393 265.5 378Q240 363 222.5 337.5Q205 312 196 280Q187 248 187 213Q187 166 212 136.5Q237 107 282 107Q320 107 347.5 128Q375 149 392 196H533L531 183Q523 148 506 117Q489 86 466 63Q424 21 377 2.5Q330 -16 267 -16Z" glyph-name="c" horiz-adv-x="562" unicode="c" /><glyph d="M309 681 469 767 512 687 310 549H284L128 687L186 761Z" glyph-name="caron" horiz-adv-x="500" unicode="&#711;" /><glyph d="M198 -195Q173 -195 146.5 -191Q120 -187 103 -180L115 -108H131Q166 -124 194 -124Q199 -124 208 -123Q217 -122 225.5 -119.5Q234 -117 240 -111.5Q246 -106 246 -97Q246 -86 236 -80.5Q226 -75 203 -74L199 -63L227 -13Q201 -10 176 -1Q133 13 100 42Q67 71 47.5 114Q28 157 28 213Q28 275 51 331.5Q74 388 116 430Q157 471 211 493.5Q265 516 328 516Q379 516 420 501.5Q461 487 490.5 461Q520 435 535.5 398Q551 361 551 317L549 304H412Q411 346 387 369.5Q363 393 323 393Q291 393 265.5 378Q240 363 222.5 337.5Q205 312 196 280Q187 248 187 213Q187 166 212 136.5Q237 107 282 107Q320 107 347.5 128Q375 149 392 196H533L531 183Q523 148 506 117Q489 86 466 63Q424 21 377 2Q345 -10 306 -14L293 -46Q319 -50 335 -65.5Q351 -81 351 -101Q351 -128 335.5 -146Q320 -164 297 -175Q274 -186 247.5 -190.5Q221 -195 198 -195Z" glyph-name="ccedilla" horiz-adv-x="562" unicode="&#231;" /><glyph d="M143 -195Q118 -195 91.5 -191Q65 -187 48 -180L60 -108H76Q111 -124 139 -124Q144 -124 153 -123Q162 -122 170.5 -119.5Q179 -117 185 -111.5Q191 -106 191 -97Q191 -86 181 -80.5Q171 -75 148 -74L144 -63L183 5H259L238 -46Q264 -50 280 -65.5Q296 -81 296 -101Q296 -128 280.5 -146Q265 -164 242 -175Q219 -186 192.5 -190.5Q166 -195 143 -195Z" glyph-name="cedilla" horiz-adv-x="500" unicode="&#184;" /><glyph d="M278 -126H197L215 -11Q195 -8 176 -1Q133 13 100 42Q67 71 47.5 114Q28 157 28 213Q28 275 51 331.5Q74 388 116 430Q157 471 211 493Q252 510 298 515L317 635H398L378 512Q400 508 420 501Q461 487 490.5 461Q520 435 535.5 398Q551 361 551 317L549 304H412Q411 346 387 369Q375 381 359 387L315 111Q333 117 347 128Q375 149 392 196H533L531 183Q523 148 506 117Q489 86 466 63Q424 21 377 2Q341 -11 295 -15ZM265 378Q240 363 222.5 337.5Q205 312 196 280Q187 248 187 213Q187 166 212 136Q222 124 235 117L277 384Z" glyph-name="cent" horiz-adv-x="560" unicode="&#162;" /><glyph d="M317 621 157 535 114 615 316 753H342L498 615L440 541Z" glyph-name="circumflex" horiz-adv-x="500" unicode="&#710;" /><glyph d="M139 -8Q102 -8 74 12.5Q46 33 46 76Q46 99 55 117.5Q64 136 78.5 149.5Q93 163 112 170.5Q131 178 152 178Q189 178 217 155.5Q245 133 245 90Q245 45 214.5 18.5Q184 -8 139 -8ZM185 283Q148 283 120 303.5Q92 324 92 367Q92 390 101 408.5Q110 427 124.5 440.5Q139 454 158 461.5Q177 469 198 469Q235 469 263 446.5Q291 424 291 381Q291 336 260.5 309.5Q230 283 185 283Z" glyph-name="colon" horiz-adv-x="346" unicode=":" /><glyph d="M117 -127H-5L89 167H272L269 151Z" glyph-name="comma" horiz-adv-x="346" unicode="," /><glyph d="M398 -13Q323 -13 258 13.5Q193 40 146 86Q99 132 72 194Q45 256 45 326Q45 396 72 457.5Q99 519 146 565Q193 611 258 638Q323 665 398 665Q473 665 537.5 638Q602 611 649.5 565Q697 519 724 457.5Q751 396 751 326Q751 256 724 194Q697 132 649.5 86Q602 40 537.5 13.5Q473 -13 398 -13ZM398 76Q452 76 498 95.5Q544 115 577.5 149Q611 183 630 228.5Q649 274 649 325Q649 377 630 422.5Q611 468 577.5 502Q544 536 498 555.5Q452 575 398 575Q344 575 298 555.5Q252 536 218.5 502Q185 468 166 422.5Q147 377 147 325Q147 274 166 228.5Q185 183 218.5 149Q252 115 298 95.5Q344 76 398 76ZM401 146Q366 146 334 158.5Q302 171 278 194Q254 217 240 249.5Q226 282 226 322V335Q226 375 240 407.5Q254 440 278 463Q302 486 334 498.5Q366 511 401 511Q463 511 506.5 477Q550 443 560 380V372H471Q466 398 449.5 412.5Q433 427 402 427Q365 427 344.5 399Q324 371 324 329Q324 287 344.5 258Q365 229 403 229Q433 229 449 243.5Q465 258 471 284H560V274Q552 214 507.5 180Q463 146 401 146Z" glyph-name="copyright" horiz-adv-x="772" unicode="&#169;" /><glyph d="M230 -15Q191 -15 154.5 -2Q118 11 89.5 38Q61 65 44 107.5Q27 150 27 209Q27 269 50 330.5Q73 392 119 438Q155 474 204 494.5Q253 515 302 515Q350 515 382.5 500Q415 485 435 463H437L476 700H632L521 0H408L397 61H395Q360 20 317 2.5Q274 -15 230 -15ZM281 115Q312 115 336 129.5Q360 144 376 168Q392 192 400.5 222.5Q409 253 409 285Q409 330 389 358Q369 386 324 386Q293 386 269 371.5Q245 357 228.5 333Q212 309 203.5 278.5Q195 248 195 216Q195 172 215.5 143.5Q236 115 281 115Z" glyph-name="d" horiz-adv-x="619" unicode="d" /><glyph d="M219 -78H101L169 351H73L89 453H185L225 700H343L303 453H402L386 351H287Z" glyph-name="dagger" horiz-adv-x="427" unicode="&#8224;" /><glyph d="M219 -78H101L136 141H39L55 243H152L169 351H72L88 453H185L225 700H343L303 453H401L385 351H287L270 243H368L352 141H254Z" glyph-name="daggerdbl" horiz-adv-x="427" unicode="&#8225;" /><glyph d="M250 331Q216 331 186 340Q156 349 133.5 368Q111 387 97.5 415Q84 443 84 482Q84 552 135 603Q162 630 200 645Q238 660 282 660Q316 660 346 650.5Q376 641 399 621.5Q422 602 435.5 573.5Q449 545 449 506Q449 474 436.5 443.5Q424 413 401 390Q373 362 334 346.5Q295 331 250 331ZM255 427Q296 427 319 450Q342 473 342 506Q342 533 323.5 548.5Q305 564 277 564Q237 564 214 540Q191 516 191 483Q191 457 209 442Q227 427 255 427Z" glyph-name="degree" horiz-adv-x="455" unicode="&#176;" /><glyph d="M415 554Q383 554 359 572Q335 590 335 627Q335 647 342.5 663.5Q350 680 363 692Q376 704 392 710.5Q408 717 426 717Q458 717 482.5 697Q507 677 507 640Q507 600 480.5 577Q454 554 415 554ZM199 554Q167 554 143 572Q119 590 119 627Q119 647 126.5 663.5Q134 680 147 692Q160 704 176 710.5Q192 717 210 717Q242 717 266.5 697Q291 677 291 640Q291 600 264.5 577Q238 554 199 554Z" glyph-name="dieresis" horiz-adv-x="500" unicode="&#168;" /><glyph d="M587 262H54L75 395H608ZM295 59Q260 59 233.5 77Q207 95 207 132Q207 152 215.5 168.5Q224 185 238 197Q252 209 270 215.5Q288 222 308 222Q343 222 369.5 202Q396 182 396 145Q396 105 367 82Q338 59 295 59ZM354 435Q319 435 292.5 453Q266 471 266 508Q266 528 274.5 544.5Q283 561 297 573Q311 585 329 591.5Q347 598 367 598Q402 598 428.5 578Q455 558 455 521Q455 481 426 458Q397 435 354 435Z" glyph-name="divide" horiz-adv-x="637" unicode="&#247;" /><glyph d="M383 640Q398 638 413 634Q452 625 480.5 605Q509 585 525 554Q541 523 539 480L537 467H389Q391 493 373 511Q368 517 361 520L341 392H343Q376 382 410 367.5Q444 353 469 327Q490 306 500.5 279.5Q511 253 511 215Q511 181 498 143.5Q485 106 457 77Q418 39 363 22Q324 11 279 7L261 -105H181L198 8Q175 10 153 15Q112 25 81 46Q50 67 32.5 101Q15 135 18 184L20 197H171Q170 192 170 184Q170 150 193 134Q204 127 219 123L242 269L230 273Q196 285 163 299.5Q130 314 109 335Q91 353 79.5 377.5Q68 402 68 438Q68 520 122 574Q167 618 220 631Q261 641 304 643L318 731H397ZM337 226Q328 234 316 241L297 124Q312 129 325 138Q353 157 353 189Q353 200 349.5 208.5Q346 217 337 226ZM242 434Q250 424 265 417L282 525Q266 521 254 511Q232 492 232 466Q232 444 242 434Z" glyph-name="dollar" horiz-adv-x="554" unicode="$" /><glyph d="M306 549Q274 549 250 566.5Q226 584 226 621Q226 660 254 684.5Q282 709 317 709Q349 709 373.5 689.5Q398 670 398 633Q398 595 371.5 572Q345 549 306 549Z" glyph-name="dotaccent" horiz-adv-x="500" unicode="&#729;" /><glyph d="M176 0H18L97 500H255Z" glyph-name="dotlessi" horiz-adv-x="271" unicode="&#305;" /><glyph d="M265 -16Q216 -16 173 -1.5Q130 13 98 42Q66 71 47 113.5Q28 156 28 213Q28 278 50.5 336Q73 394 115 436Q195 516 323 516Q371 516 412 502Q453 488 483 461.5Q513 435 529.5 396Q546 357 546 306Q546 299 545 287Q544 275 542 261.5Q540 248 537 235Q534 222 531 212H187Q184 165 210 134.5Q236 104 278 104Q309 104 334.5 115.5Q360 127 376 156H523Q515 127 500 102.5Q485 78 465 58Q427 20 376.5 2Q326 -16 265 -16ZM393 312Q394 317 394 321V329Q394 363 374 384Q354 405 319 405Q273 405 245.5 378Q218 351 206 312Z" glyph-name="e" horiz-adv-x="572" unicode="e" /><glyph d="M265 -16Q216 -16 173 -1.5Q130 13 98 42Q66 71 47 113.5Q28 156 28 213Q28 278 50.5 336Q73 394 115 436Q195 516 323 516Q371 516 412 502Q453 488 483 461.5Q513 435 529.5 396Q546 357 546 306Q546 299 545 287Q544 275 542 261.5Q540 248 537 235Q534 222 531 212H187Q184 165 210 134.5Q236 104 278 104Q309 104 334.5 115.5Q360 127 376 156H523Q515 127 500 102.5Q485 78 465 58Q427 20 376.5 2Q326 -16 265 -16ZM518 642 228 539 200 630 477 769ZM393 312Q394 317 394 321V329Q394 363 374 384Q354 405 319 405Q273 405 245.5 378Q218 351 206 312Z" glyph-name="eacute" horiz-adv-x="572" unicode="&#233;" /><glyph d="M265 -16Q216 -16 173 -1.5Q130 13 98 42Q66 71 47 113.5Q28 156 28 213Q28 278 50.5 336Q73 394 115 436Q195 516 323 516Q371 516 412 502Q453 488 483 461.5Q513 435 529.5 396Q546 357 546 306Q546 299 545 287Q544 275 542 261.5Q540 248 537 235Q534 222 531 212H187Q184 165 210 134.5Q236 104 278 104Q309 104 334.5 115.5Q360 127 376 156H523Q515 127 500 102.5Q485 78 465 58Q427 20 376.5 2Q326 -16 265 -16ZM356 621 196 535 153 615 355 753H381L537 615L479 541ZM393 312Q394 317 394 321V329Q394 363 374 384Q354 405 319 405Q273 405 245.5 378Q218 351 206 312Z" glyph-name="ecircumflex" horiz-adv-x="572" unicode="&#234;" /><glyph d="M265 -16Q216 -16 173 -1.5Q130 13 98 42Q66 71 47 113.5Q28 156 28 213Q28 278 50.5 336Q73 394 115 436Q195 516 323 516Q371 516 412 502Q453 488 483 461.5Q513 435 529.5 396Q546 357 546 306Q546 299 545 287Q544 275 542 261.5Q540 248 537 235Q534 222 531 212H187Q184 165 210 134.5Q236 104 278 104Q309 104 334.5 115.5Q360 127 376 156H523Q515 127 500 102.5Q485 78 465 58Q427 20 376.5 2Q326 -16 265 -16ZM237 554Q205 554 181 572Q157 590 157 627Q157 647 164.5 663.5Q172 680 185 692Q198 704 214 710.5Q230 717 248 717Q280 717 304.5 697Q329 677 329 640Q329 600 302.5 577Q276 554 237 554ZM453 554Q421 554 397 572Q373 590 373 627Q373 647 380.5 663.5Q388 680 401 692Q414 704 430 710.5Q446 717 464 717Q496 717 520.5 697Q545 677 545 640Q545 600 518.5 577Q492 554 453 554ZM393 312Q394 317 394 321V329Q394 363 374 384Q354 405 319 405Q273 405 245.5 378Q218 351 206 312Z" glyph-name="edieresis" horiz-adv-x="572" unicode="&#235;" /><glyph d="M265 -16Q216 -16 173 -1.5Q130 13 98 42Q66 71 47 113.5Q28 156 28 213Q28 278 50.5 336Q73 394 115 436Q195 516 323 516Q371 516 412 502Q453 488 483 461.5Q513 435 529.5 396Q546 357 546 306Q546 299 545 287Q544 275 542 261.5Q540 248 537 235Q534 222 531 212H187Q184 165 210 134.5Q236 104 278 104Q309 104 334.5 115.5Q360 127 376 156H523Q515 127 500 102.5Q485 78 465 58Q427 20 376.5 2Q326 -16 265 -16ZM494 621 444 539 188 642 261 760ZM393 312Q394 317 394 321V329Q394 363 374 384Q354 405 319 405Q273 405 245.5 378Q218 351 206 312Z" glyph-name="egrave" horiz-adv-x="572" unicode="&#232;" /><glyph d="M270 -16Q216 -16 170.5 -6Q125 4 92.5 25Q60 46 41.5 79.5Q23 113 23 159Q23 219 56 265.5Q89 312 146 340V342Q121 361 107 392Q93 423 93 461Q93 507 113 544.5Q133 582 167.5 609Q202 636 247.5 650.5Q293 665 344 665Q444 665 501.5 617Q559 569 559 489Q559 445 534.5 400.5Q510 356 462 332V330Q497 307 516 273.5Q535 240 535 197Q535 146 513.5 106.5Q492 67 455 39.5Q418 12 370.5 -2Q323 -16 270 -16ZM276 95Q324 95 350.5 124.5Q377 154 377 195Q377 227 357 251.5Q337 276 290 276Q264 276 244 267Q224 258 210.5 243.5Q197 229 190 212Q183 195 183 178Q183 144 206.5 119.5Q230 95 276 95ZM318 391Q338 391 354.5 399.5Q371 408 382.5 422Q394 436 400.5 453.5Q407 471 407 489Q407 520 390 539.5Q373 559 335 559Q315 559 298 551Q281 543 269 529.5Q257 516 250.5 499Q244 482 244 464Q244 436 261.5 413.5Q279 391 318 391Z" glyph-name="eight" horiz-adv-x="580" unicode="8" /><glyph d="M140 -8Q103 -8 75 12.5Q47 33 47 76Q47 99 56 117.5Q65 136 79.5 149.5Q94 163 113 170.5Q132 178 153 178Q190 178 218 155.5Q246 133 246 90Q246 45 215.5 18.5Q185 -8 140 -8ZM489 -8Q452 -8 424 12.5Q396 33 396 76Q396 99 405 117.5Q414 136 428.5 149.5Q443 163 462 170.5Q481 178 502 178Q539 178 567 155.5Q595 133 595 90Q595 45 564.5 18.5Q534 -8 489 -8ZM838 -8Q801 -8 773 12.5Q745 33 745 76Q745 99 754 117.5Q763 136 777.5 149.5Q792 163 811 170.5Q830 178 851 178Q888 178 916 155.5Q944 133 944 90Q944 45 913.5 18.5Q883 -8 838 -8Z" glyph-name="ellipsis" horiz-adv-x="1044" unicode="&#8230;" /><glyph d="M734 234H50L67 347H751Z" glyph-name="emdash" horiz-adv-x="788" unicode="&#8212;" /><glyph d="M580 234H50L67 347H597Z" glyph-name="endash" horiz-adv-x="634" unicode="&#8211;" /><glyph d="M623 371H91L112 503H644ZM589 153H57L77 284H609Z" glyph-name="equal" horiz-adv-x="676" unicode="=" /><glyph d="M229 229H87L130 632L132 650H318L316 632ZM136 -8Q100 -8 72 12.5Q44 33 44 75Q44 97 53 115.5Q62 134 76.5 147Q91 160 110 167.5Q129 175 149 175Q186 175 214 153Q242 131 242 88Q242 43 211.5 17.5Q181 -8 136 -8Z" glyph-name="exclam" horiz-adv-x="339" unicode="!" /><glyph d="M199 -142H13L15 -124L102 279H244L201 -124ZM204 516Q240 516 268 495.5Q296 475 296 433Q296 411 287 392.5Q278 374 263.5 361Q249 348 230 340.5Q211 333 191 333Q154 333 126 355Q98 377 98 420Q98 465 128.5 490.5Q159 516 204 516Z" glyph-name="exclamdown" horiz-adv-x="339" unicode="&#161;" /><glyph d="M213 0H54L114 381H43L54 453L131 487L141 549Q155 631 209.5 673Q264 715 352 715Q377 715 405.5 712Q434 709 460 702L443 591H429Q409 596 393.5 597.5Q378 599 367 599Q338 599 319.5 587Q301 575 296 542L288 494H426L408 381H273Z" glyph-name="f" horiz-adv-x="414" unicode="f" /><glyph d="M578 0H420L499 500H657ZM589 550Q553 550 525.5 568.5Q498 587 498 627Q498 648 506.5 665Q515 682 529.5 694.5Q544 707 563 714Q582 721 602 721Q638 721 665.5 700Q693 679 693 640Q693 598 663.5 574Q634 550 589 550ZM213 0H54L114 381H43L54 453L131 487L141 549Q155 631 209.5 673Q264 715 352 715Q399 715 450 702L433 591H419Q399 596 388.5 597.5Q378 599 367 599Q338 599 319.5 587Q301 575 296 542L288 494H416L398 381H273Z" glyph-name="fi" horiz-adv-x="673" unicode="&#64257;" /><glyph d="M202 -15Q146 -15 91 -1.5Q36 12 -6 38L15 169H32Q76 144 117.5 130Q159 116 208 116Q269 116 303.5 142Q338 168 338 211Q338 237 326 253.5Q314 270 294 279.5Q274 289 247 293Q220 297 190 297Q157 297 127.5 293Q98 289 75 284L61 297L153 650H531L511 525H263L236 416Q292 418 339.5 407.5Q387 397 422.5 374Q458 351 478 315Q498 279 498 230Q498 182 480.5 140.5Q463 99 431 67Q389 25 329 5Q269 -15 202 -15Z" glyph-name="five" horiz-adv-x="533" unicode="5" /><glyph d="M581 -6Q550 -6 522.5 3Q495 12 475.5 31.5Q456 51 448 83.5Q440 116 447 162L532 700H689L606 181Q600 144 612.5 129Q625 114 663 119H675L657 2Q637 -3 619.5 -4.5Q602 -6 581 -6ZM213 0H54L114 381H43L54 453L131 487L141 549Q155 631 209.5 673Q264 715 352 715Q399 715 450 702L433 591H419Q399 596 388.5 597.5Q378 599 367 599Q338 599 319.5 587Q301 575 296 542L288 494H416L398 381H273Z" glyph-name="fl" horiz-adv-x="717" unicode="&#64258;" /><glyph d="M136 -90H-23L76 288H5L35 401H106L132 497Q154 580 210.5 622.5Q267 665 362 665Q387 665 414 661.5Q441 658 467 649L438 539H424Q411 544 395 546.5Q379 549 371 549Q339 549 316 533.5Q293 518 282 478L262 401H400L370 288H235Z" glyph-name="florin" horiz-adv-x="432" unicode="&#402;" /><glyph d="M451 0H292L317 158H10V245L394 650H553L494 285H592L572 158H476ZM194 279V277Q202 279 216.5 279.5Q231 280 244 280H338L375 436Q379 452 385 475Q391 498 398 521H396Q386 503 372.5 484Q359 465 345 448L246 334Q235 323 220 306.5Q205 290 194 279Z" glyph-name="four" horiz-adv-x="606" unicode="4" /><glyph d="M-82 0H-177L-174 17L281 650H376L374 632Z" glyph-name="fraction" horiz-adv-x="178" unicode="&#8260;" /><glyph d="M244 -204Q193 -204 150 -191.5Q107 -179 76 -155.5Q45 -132 28.5 -97.5Q12 -63 16 -18L17 -10H167Q166 -31 174.5 -45.5Q183 -60 197 -68.5Q211 -77 228.5 -81Q246 -85 262 -85Q276 -85 292.5 -81.5Q309 -78 324 -69Q339 -60 351 -43.5Q363 -27 367 0L377 64H375Q350 38 315 26Q280 14 237 14Q197 14 159.5 26.5Q122 39 93 65.5Q64 92 47 133Q30 174 30 231Q30 287 51 342Q72 397 114 439Q151 476 200.5 495.5Q250 515 301 515Q361 515 400.5 493.5Q440 472 459 442H461L490 500H599L520 -8Q512 -60 487.5 -97Q463 -134 426.5 -158Q390 -182 343.5 -193Q297 -204 244 -204ZM284 144Q316 144 340 156.5Q364 169 379.5 190Q395 211 402.5 239Q410 267 410 297Q409 339 388.5 362.5Q368 386 323 386Q291 386 267.5 373Q244 360 228 338.5Q212 317 204.5 289Q197 261 197 231Q198 191 218.5 167.5Q239 144 284 144Z" glyph-name="g" horiz-adv-x="619" unicode="g" /><glyph d="M333 -14Q310 -14 279 -10Q248 -6 228 2L247 123H267Q278 118 292.5 115.5Q307 113 319 113Q367 113 394 142.5Q421 172 422 222Q422 257 400.5 278Q379 299 342 299H288L308 429H317Q365 429 389.5 456.5Q414 484 415 526Q415 555 398.5 574.5Q382 594 348 594Q323 594 305.5 583.5Q288 573 276.5 556.5Q265 540 258.5 520Q252 500 249 480L175 0H20L98 500Q105 545 121.5 582.5Q138 620 166 648Q202 683 250.5 699Q299 715 359 715Q407 715 446.5 702Q486 689 514 665.5Q542 642 557 609.5Q572 577 572 537Q571 486 548 442.5Q525 399 483 376L482 374Q527 355 551 314Q575 273 575 222Q575 170 558 130Q541 90 509 58Q470 19 425 2.5Q380 -14 333 -14Z" glyph-name="germandbls" horiz-adv-x="607" unicode="&#223;" /><glyph d="M458 621 408 539 152 642 225 760Z" glyph-name="grave" horiz-adv-x="500" unicode="`" /><glyph d="M116 462 140 616 613 375 597 274 50 36 77 205 327 308Q338 313 360.5 320.5Q383 328 397 332L398 334Q385 338 364.5 345.5Q344 353 334 358Z" glyph-name="greater" horiz-adv-x="645" unicode="&gt;" /><glyph d="M594 374 76 202 100 355 281 411Q304 418 327 423.5Q350 429 374 434V436Q352 441 331 445.5Q310 450 289 458L123 514L145 652L610 475ZM542 34H49L70 170H563Z" glyph-name="greaterequal" horiz-adv-x="648" unicode="&#8805;" /><glyph d="M279 60H143L16 251L17 260L204 445H352L350 431L165 245L281 74ZM509 60H373L246 251L247 260L434 445H582L580 431L395 245L511 74Z" glyph-name="guillemotleft" horiz-adv-x="582" unicode="&#171;" /><glyph d="M73 445H209L336 254L335 245L148 60H0L2 74L187 260L71 431ZM303 445H439L566 254L565 245L378 60H230L232 74L417 260L301 431Z" glyph-name="guillemotright" horiz-adv-x="582" unicode="&#187;" /><glyph d="M279 60H143L16 251L17 260L204 445H352L350 431L165 245L281 74Z" glyph-name="guilsinglleft" horiz-adv-x="352" unicode="&#8249;" /><glyph d="M73 445H209L336 254L335 245L148 60H0L2 74L187 260L71 431Z" glyph-name="guilsinglright" horiz-adv-x="352" unicode="&#8250;" /><glyph d="M177 0H20L131 700H288L250 463H252Q282 491 318 503Q354 515 394 515Q436 515 466.5 500Q497 485 516 460Q535 435 542.5 401.5Q550 368 544 332L493 0H336L381 285Q389 339 369.5 362Q350 385 315 385Q278 385 253.5 360Q229 335 222 290Z" glyph-name="h" horiz-adv-x="580" unicode="h" /><glyph d="M580 685 386 535 322 606 495 781ZM354 689 163 535 101 606 273 781Z" glyph-name="hungarumlaut" horiz-adv-x="500" unicode="&#733;" /><glyph d="M420 222H48L70 362H442Z" glyph-name="hyphen" horiz-adv-x="476" unicode="-" /><glyph d="M176 0H18L97 500H255ZM187 550Q151 550 123.5 568.5Q96 587 96 627Q96 648 104.5 665Q113 682 127.5 694.5Q142 707 161 714Q180 721 200 721Q236 721 263.5 700Q291 679 291 640Q291 598 261.5 574Q232 550 187 550Z" glyph-name="i" horiz-adv-x="271" unicode="i" /><glyph d="M176 0H18L97 500H255ZM352 642 62 539 34 630 311 769Z" glyph-name="iacute" horiz-adv-x="271" unicode="&#237;" /><glyph d="M176 0H18L97 500H255ZM204 621 44 535 1 615 203 753H229L385 615L327 541Z" glyph-name="icircumflex" horiz-adv-x="271" unicode="&#238;" /><glyph d="M176 0H18L97 500H255ZM302 564Q270 564 246 582Q222 600 222 637Q222 657 229.5 673.5Q237 690 250 702Q263 714 279 720.5Q295 727 313 727Q345 727 369.5 707Q394 687 394 650Q394 610 367.5 587Q341 564 302 564ZM86 564Q54 564 30 582Q6 600 6 637Q6 657 13.5 673.5Q21 690 34 702Q47 714 63 720.5Q79 727 97 727Q129 727 153.5 707Q178 687 178 650Q178 610 151.5 587Q125 564 86 564Z" glyph-name="idieresis" horiz-adv-x="271" unicode="&#239;" /><glyph d="M176 0H18L97 500H255ZM328 621 278 539 22 642 95 760Z" glyph-name="igrave" horiz-adv-x="271" unicode="&#236;" /><glyph d="M50 -180H-105L-102 -163Q-72 -141 -50 -114.5Q-28 -88 -12.5 -59.5Q3 -31 12.5 -2Q22 27 26 52L97 500H255L181 35Q170 -34 135.5 -91.5Q101 -149 50 -180ZM187 550Q151 550 123.5 568.5Q96 587 96 627Q96 648 104.5 665Q113 682 127.5 694.5Q142 707 161 714Q180 721 200 721Q236 721 263.5 700Q291 679 291 640Q291 598 261.5 574Q232 550 187 550Z" glyph-name="j" horiz-adv-x="272" unicode="j" /><glyph d="M178 0H20L130 700H288L227 312L396 500H573L570 483L376 270L532 17L530 0H356L216 240Z" glyph-name="k" horiz-adv-x="568" unicode="k" /><glyph d="M175 -6Q144 -6 116.5 3Q89 12 69.5 31.5Q50 51 42 83.5Q34 116 41 162L126 700H283L200 181Q194 144 206.5 129Q219 114 257 119H269L251 2Q231 -3 213.5 -4.5Q196 -6 175 -6Z" glyph-name="l" horiz-adv-x="311" unicode="l" /><glyph d="M553 190 529 36 56 277 72 378 619 616 592 447 342 344Q331 339 308.5 331.5Q286 324 272 320L271 318Q284 314 304.5 306.5Q325 299 335 294Z" glyph-name="less" horiz-adv-x="645" unicode="&lt;" /><glyph d="M580 338 558 200 93 377 109 478 627 650 603 497 422 441Q399 434 376 428.5Q353 423 329 418V416Q351 411 372 406.5Q393 402 414 394ZM531 34H38L59 170H552Z" glyph-name="lessequal" horiz-adv-x="648" unicode="&#8804;" /><glyph d="M528 263H370L397 430H55L75 561H575Z" glyph-name="logicalnot" horiz-adv-x="569" unicode="&#172;" /><glyph d="M177 0H20L99 500H212L221 436H223Q252 478 295 496.5Q338 515 383 515Q439 515 471.5 492Q504 469 518 435Q549 477 592 496Q635 515 680 515Q722 515 752 500.5Q782 486 799.5 461Q817 436 822.5 402Q828 368 822 328L770 0H613L659 295Q667 345 649 365Q631 385 601 385Q536 385 521 287L474 0H316L362 295Q370 345 352 365Q334 385 304 385Q239 385 224 287Z" glyph-name="m" horiz-adv-x="858" unicode="m" /><glyph d="M475 569H122L144 683H497Z" glyph-name="macron" horiz-adv-x="500" unicode="&#175;" /><glyph d="M148 -180H-9L109 561H266L213 225Q208 195 213.5 174Q219 153 231.5 140Q244 127 261 121Q278 115 297 115Q336 115 369.5 139.5Q403 164 412 221L464 561H621L533 0H414L405 65H403Q365 19 323.5 2Q282 -15 238 -15Q221 -15 206 -11.5Q191 -8 176 0Z" glyph-name="mu" horiz-adv-x="631" unicode="&#181;" /><glyph d="M177 0H20L99 500H212L221 435H223Q261 481 305.5 498Q350 515 394 515Q436 515 466.5 500Q497 485 516 460Q535 435 542.5 401.5Q550 368 544 332L493 0H336L381 285Q389 339 369.5 362Q350 385 315 385Q278 385 254 360Q230 335 222 290Z" glyph-name="n" horiz-adv-x="581" unicode="n" /><glyph d="M335 665Q441 665 504 613Q567 561 567 464Q567 402 539.5 336.5Q512 271 468 212Q417 143 357.5 89.5Q298 36 241 0H47L49 18Q77 36 113.5 63Q150 90 187.5 120.5Q225 151 258 182.5Q291 214 312 241L311 242Q296 234 274.5 228Q253 222 231 222Q198 222 165.5 234Q133 246 108 269Q83 292 67.5 326Q52 360 52 405Q52 459 71 504Q90 549 124 583Q162 621 213.5 643Q265 665 335 665ZM320 539Q294 539 273.5 528Q253 517 239 499Q225 481 218 459Q211 437 211 414Q211 381 231 358Q251 335 295 335Q324 335 345.5 345Q367 355 381 371.5Q395 388 402 409.5Q409 431 409 455Q409 488 388.5 513.5Q368 539 320 539Z" glyph-name="nine" horiz-adv-x="566" unicode="9" /><glyph glyph-name="nonmarkingreturn" horiz-adv-x="250" unicode="" /><glyph d="M623 371H450L385 284H609L589 153H288L215 54H96L98 68L161 153H57L77 284H258L322 371H91L112 503H420L485 590H604L602 576L548 503H644Z" glyph-name="notequal" horiz-adv-x="676" unicode="&#8800;" /><glyph d="M177 0H20L99 500H212L221 435H223Q261 481 305.5 498Q350 515 394 515Q436 515 466.5 500Q497 485 516 460Q535 435 542.5 401.5Q550 368 544 332L493 0H336L381 285Q389 339 369.5 362Q350 385 315 385Q278 385 254 360Q230 335 222 290ZM248 551H140Q143 586 156 616Q169 646 189 667.5Q209 689 234 701Q259 713 286 713Q309 713 324.5 706.5Q340 700 353 692.5Q366 685 378.5 678.5Q391 672 407 672Q412 672 417.5 673Q423 674 429 678.5Q435 683 440 691.5Q445 700 448 716H556Q553 680 540 650.5Q527 621 507.5 599.5Q488 578 464 566Q440 554 414 554Q390 554 374 560.5Q358 567 344.5 574.5Q331 582 318.5 588.5Q306 595 289 595Q285 595 279 594Q273 593 267 588.5Q261 584 256 575.5Q251 567 248 551Z" glyph-name="ntilde" horiz-adv-x="581" unicode="&#241;" /><glyph d="M295 388 265 281H369L399 388ZM607 388H497L467 281H566L551 189H441L388 0H293L295 18L343 189H239L186 0H91L93 18L141 189H42L57 281H167L197 388H98L112 479H223L271 650H366L363 631L320 479H425L473 650H568L565 631L522 479H621Z" glyph-name="numbersign" horiz-adv-x="637" unicode="#" /><glyph d="M172 0H36L138 650H281Q340 527 376 450Q412 373 432.5 327.5Q453 282 462 260Q471 238 475 225H477Q479 238 481 257.5Q483 277 486 299.5Q489 322 492 345.5Q495 369 498 390L538 650H675L573 0H438Q377 127 339.5 205Q302 283 280.5 329Q259 375 250 397Q241 419 236 433H234Q233 420 230.5 401Q228 382 226 360.5Q224 339 221 317Q218 295 215 275ZM877 346Q848 346 821.5 355Q795 364 775 381Q755 398 743 424Q731 450 731 483Q731 521 744.5 553.5Q758 586 784 612Q811 639 848 652.5Q885 666 928 666Q958 666 985 657Q1012 648 1032.5 630.5Q1053 613 1065.5 587Q1078 561 1078 527Q1078 490 1065 457Q1052 424 1023 397Q995 371 958 358.5Q921 346 877 346ZM894 439Q928 439 944.5 465Q961 491 961 523Q961 545 950 559Q939 573 915 573Q883 573 865.5 548.5Q848 524 848 489Q848 466 858.5 452.5Q869 439 894 439Z" glyph-name="numero" horiz-adv-x="1079" unicode="&#8470;" /><glyph d="M270 -16Q221 -16 177 -1.5Q133 13 100 40.5Q67 68 47.5 109Q28 150 28 203Q28 269 48.5 327.5Q69 386 111 428Q161 478 216.5 497Q272 516 332 516Q381 516 425 501.5Q469 487 502 459.5Q535 432 554 390.5Q573 349 573 295Q573 233 552.5 173Q532 113 487 69Q442 24 385.5 4Q329 -16 270 -16ZM279 115Q310 115 333.5 129.5Q357 144 373 168Q389 192 397 223Q405 254 405 286Q405 330 385.5 358Q366 386 322 386Q291 386 267 371Q243 356 227 332Q211 308 203 277.5Q195 247 195 215Q195 171 215 143Q235 115 279 115Z" glyph-name="o" horiz-adv-x="600" unicode="o" /><glyph d="M270 -16Q221 -16 177 -1.5Q133 13 100 40.5Q67 68 47.5 109Q28 150 28 203Q28 269 48.5 327.5Q69 386 111 428Q161 478 216.5 497Q272 516 332 516Q381 516 425 501.5Q469 487 502 459.5Q535 432 554 390.5Q573 349 573 295Q573 233 552.5 173Q532 113 487 69Q442 24 385.5 4Q329 -16 270 -16ZM279 115Q310 115 333.5 129.5Q357 144 373 168Q389 192 397 223Q405 254 405 286Q405 330 385.5 358Q366 386 322 386Q291 386 267 371Q243 356 227 332Q211 308 203 277.5Q195 247 195 215Q195 171 215 143Q235 115 279 115ZM551 642 261 539 233 630 510 769Z" glyph-name="oacute" horiz-adv-x="600" unicode="&#243;" /><glyph d="M270 -16Q221 -16 177 -1.5Q133 13 100 40.5Q67 68 47.5 109Q28 150 28 203Q28 269 48.5 327.5Q69 386 111 428Q161 478 216.5 497Q272 516 332 516Q381 516 425 501.5Q469 487 502 459.5Q535 432 554 390.5Q573 349 573 295Q573 233 552.5 173Q532 113 487 69Q442 24 385.5 4Q329 -16 270 -16ZM279 115Q310 115 333.5 129.5Q357 144 373 168Q389 192 397 223Q405 254 405 286Q405 330 385.5 358Q366 386 322 386Q291 386 267 371Q243 356 227 332Q211 308 203 277.5Q195 247 195 215Q195 171 215 143Q235 115 279 115ZM368 621 208 535 165 615 367 753H393L549 615L491 541Z" glyph-name="ocircumflex" horiz-adv-x="600" unicode="&#244;" /><glyph d="M270 -16Q221 -16 177 -1.5Q133 13 100 40.5Q67 68 47.5 109Q28 150 28 203Q28 269 48.5 327.5Q69 386 111 428Q161 478 216.5 497Q272 516 332 516Q381 516 425 501.5Q469 487 502 459.5Q535 432 554 390.5Q573 349 573 295Q573 233 552.5 173Q532 113 487 69Q442 24 385.5 4Q329 -16 270 -16ZM279 115Q310 115 333.5 129.5Q357 144 373 168Q389 192 397 223Q405 254 405 286Q405 330 385.5 358Q366 386 322 386Q291 386 267 371Q243 356 227 332Q211 308 203 277.5Q195 247 195 215Q195 171 215 143Q235 115 279 115ZM467 554Q435 554 411 572Q387 590 387 627Q387 647 394.5 663.5Q402 680 415 692Q428 704 444 710.5Q460 717 478 717Q510 717 534.5 697Q559 677 559 640Q559 600 532.5 577Q506 554 467 554ZM251 554Q219 554 195 572Q171 590 171 627Q171 647 178.5 663.5Q186 680 199 692Q212 704 228 710.5Q244 717 262 717Q294 717 318.5 697Q343 677 343 640Q343 600 316.5 577Q290 554 251 554Z" glyph-name="odieresis" horiz-adv-x="600" unicode="&#246;" /><glyph d="M250 -16Q204 -16 163.5 -1.5Q123 13 93 41.5Q63 70 45.5 112.5Q28 155 28 212Q28 276 53.5 335.5Q79 395 122 438Q167 483 218 499.5Q269 516 322 516Q381 516 425.5 494Q470 472 497 434Q535 475 586 495.5Q637 516 697 516Q740 516 777.5 503Q815 490 843 464.5Q871 439 887 400.5Q903 362 903 311Q903 289 898.5 260.5Q894 232 887 212H567Q563 165 582.5 134.5Q602 104 647 104Q673 104 696 116.5Q719 129 733 156H880Q873 128 858 103.5Q843 79 825 60Q786 20 734 2Q682 -16 631 -16Q573 -16 526.5 4.5Q480 25 453 64Q408 21 357.5 2.5Q307 -16 250 -16ZM269 115Q298 115 319.5 130.5Q341 146 355.5 171Q370 196 377.5 227.5Q385 259 385 290Q385 332 367.5 359Q350 386 312 386Q283 386 261 370.5Q239 355 224.5 330Q210 305 202.5 274Q195 243 195 212Q195 170 212.5 142.5Q230 115 269 115ZM750 312Q756 358 738.5 381Q721 404 685 404Q644 404 619 375.5Q594 347 586 312Z" glyph-name="oe" horiz-adv-x="929" unicode="&#339;" /><glyph d="M201 -195Q153 -195 120 -176Q87 -157 87 -116Q87 -91 97.5 -69.5Q108 -48 125 -30.5Q142 -13 163.5 1Q185 15 208 25L280 0Q268 -5 254 -13Q240 -21 228 -31.5Q216 -42 208 -55.5Q200 -69 200 -84Q200 -97 208 -107.5Q216 -118 235 -118Q260 -118 286 -102H302L289 -180Q269 -188 246.5 -191.5Q224 -195 201 -195Z" glyph-name="ogonek" horiz-adv-x="500" unicode="&#731;" /><glyph d="M270 -16Q221 -16 177 -1.5Q133 13 100 40.5Q67 68 47.5 109Q28 150 28 203Q28 269 48.5 327.5Q69 386 111 428Q161 478 216.5 497Q272 516 332 516Q381 516 425 501.5Q469 487 502 459.5Q535 432 554 390.5Q573 349 573 295Q573 233 552.5 173Q532 113 487 69Q442 24 385.5 4Q329 -16 270 -16ZM279 115Q310 115 333.5 129.5Q357 144 373 168Q389 192 397 223Q405 254 405 286Q405 330 385.5 358Q366 386 322 386Q291 386 267 371Q243 356 227 332Q211 308 203 277.5Q195 247 195 215Q195 171 215 143Q235 115 279 115ZM527 621 477 539 221 642 294 760Z" glyph-name="ograve" horiz-adv-x="600" unicode="&#242;" /><glyph d="M250 0H89L159 443H35L52 554Q82 556 107.5 559.5Q133 563 155 573.5Q177 584 193.5 603Q210 622 222 654H353Z" glyph-name="one" horiz-adv-x="361" unicode="1" /><glyph d="M197 280Q170 280 146 289.5Q122 299 104.5 318Q87 337 76.5 365.5Q66 394 66 431Q66 473 82 511Q98 549 125 577.5Q152 606 188.5 623Q225 640 267 640Q300 640 327.5 628.5Q355 617 369 590H370L391 630H470L416 290H332L322 334H321Q298 307 266.5 293.5Q235 280 197 280ZM247 382Q279 382 299.5 403Q320 424 326 463Q327 468 327.5 473Q328 478 328 483Q328 512 313.5 527.5Q299 543 271 543Q237 543 213.5 515Q190 487 190 445Q190 416 205 399Q220 382 247 382Z" glyph-name="ordfeminine" horiz-adv-x="461" unicode="&#170;" /><glyph d="M245 283Q209 283 176.5 293Q144 303 119.5 322.5Q95 342 80.5 371.5Q66 401 66 441Q66 483 81 518.5Q96 554 123 581Q152 610 190.5 625.5Q229 641 271 641Q310 641 342.5 631.5Q375 622 399 602.5Q423 583 436.5 553.5Q450 524 450 484Q450 446 435 407.5Q420 369 392 342Q363 314 325.5 298.5Q288 283 245 283ZM245 379Q265 379 280 388Q295 397 305 411.5Q315 426 320.5 445Q326 464 326 484Q326 511 313 528.5Q300 546 271 546Q251 546 236 537Q221 528 210.5 513.5Q200 499 194.5 480Q189 461 189 441Q189 414 202.5 396.5Q216 379 245 379Z" glyph-name="ordmasculine" horiz-adv-x="447" unicode="&#186;" /><glyph d="M270 -16Q256 -16 242 -14.5Q228 -13 214 -11L182 -65H53L55 -52L106 35Q70 63 49 105Q28 147 28 203Q28 269 48.5 327.5Q69 386 111 428Q161 478 216.5 497Q272 516 332 516Q346 516 359.5 514.5Q373 513 386 511L418 565H546L544 551L494 466Q530 438 551.5 395Q573 352 573 295Q573 233 552.5 173Q532 113 487 69Q442 24 385.5 4Q329 -16 270 -16ZM284 112Q315 114 339 129Q363 144 379 168Q395 192 403.5 222.5Q412 253 412 285Q412 307 408 323ZM317 389Q286 388 262 372.5Q238 357 222 333Q206 309 197.5 278.5Q189 248 189 216Q189 194 193 178Z" glyph-name="oslash" horiz-adv-x="600" unicode="&#248;" /><glyph d="M270 -16Q221 -16 177 -1.5Q133 13 100 40.5Q67 68 47.5 109Q28 150 28 203Q28 269 48.5 327.5Q69 386 111 428Q161 478 216.5 497Q272 516 332 516Q381 516 425 501.5Q469 487 502 459.5Q535 432 554 390.5Q573 349 573 295Q573 233 552.5 173Q532 113 487 69Q442 24 385.5 4Q329 -16 270 -16ZM279 115Q310 115 333.5 129.5Q357 144 373 168Q389 192 397 223Q405 254 405 286Q405 330 385.5 358Q366 386 322 386Q291 386 267 371Q243 356 227 332Q211 308 203 277.5Q195 247 195 215Q195 171 215 143Q235 115 279 115ZM262 551H154Q157 586 170 616Q183 646 203 667.5Q223 689 248 701Q273 713 300 713Q323 713 338.5 706.5Q354 700 367 692.5Q380 685 392.5 678.5Q405 672 421 672Q426 672 431.5 673Q437 674 443 678.5Q449 683 454 691.5Q459 700 462 716H570Q567 680 554 650.5Q541 621 521.5 599.5Q502 578 478 566Q454 554 428 554Q404 554 388 560.5Q372 567 358.5 574.5Q345 582 332.5 588.5Q320 595 303 595Q299 595 293 594Q287 593 281 588.5Q275 584 270 575.5Q265 567 262 551Z" glyph-name="otilde" horiz-adv-x="600" unicode="&#245;" /><glyph d="M148 -180H-8L99 500H212L223 439H225Q260 480 303 497.5Q346 515 390 515Q429 515 465.5 502Q502 489 530.5 462Q559 435 576 392.5Q593 350 593 291Q593 231 570 169.5Q547 108 501 62Q465 26 416 5.5Q367 -15 318 -15Q270 -15 237.5 0Q205 15 185 37H183ZM296 114Q327 114 351 128.5Q375 143 391.5 167Q408 191 416.5 221.5Q425 252 425 284Q425 328 404.5 356.5Q384 385 339 385Q308 385 284 370.5Q260 356 244 332Q228 308 219.5 277.5Q211 247 211 215Q211 170 231 142Q251 114 296 114Z" glyph-name="p" horiz-adv-x="619" unicode="p" /><glyph d="M416 0H293L381 556H325L286 314H266Q232 314 201.5 323.5Q171 333 147.5 351.5Q124 370 110 397.5Q96 425 96 462Q96 541 150 595Q176 621 214 635.5Q252 650 300 650H518Z" glyph-name="paragraph" horiz-adv-x="563" unicode="&#182;" /><glyph d="M240 -124H110Q78 -30 64.5 45Q51 120 51 190Q51 330 96.5 453.5Q142 577 236 696H371L368 680Q286 546 250 421.5Q214 297 214 190Q214 144 215.5 106Q217 68 220.5 32.5Q224 -3 229.5 -37Q235 -71 242 -108Z" glyph-name="parenleft" horiz-adv-x="336" unicode="(" /><glyph d="M107 696H237Q269 602 282.5 527Q296 452 296 382Q296 242 250.5 118.5Q205 -5 111 -124H-24L-21 -108Q61 26 97 150.5Q133 275 133 382Q133 428 131.5 466Q130 504 126.5 539.5Q123 575 118 609Q113 643 105 680Z" glyph-name="parenright" horiz-adv-x="336" unicode=")" /><glyph d="M205 368Q177 368 151.5 375.5Q126 383 107.5 398Q89 413 78 436.5Q67 460 67 493Q67 528 80.5 557.5Q94 587 117 609Q140 631 171.5 643.5Q203 656 239 656Q267 656 292 648Q317 640 335.5 623.5Q354 607 364.5 583.5Q375 560 375 528Q375 493 362 463.5Q349 434 326.5 413Q304 392 273 380Q242 368 205 368ZM210 446Q241 446 258.5 469.5Q276 493 276 527Q276 549 265 562.5Q254 576 231 576Q200 576 182.5 551.5Q165 527 165 498Q165 475 176 460.5Q187 446 210 446ZM499 -3Q471 -3 445.5 4.5Q420 12 401.5 27Q383 42 372 65.5Q361 89 361 122Q361 157 374.5 186.5Q388 216 411 238Q434 260 465.5 272.5Q497 285 533 285Q561 285 586 277Q611 269 629.5 252.5Q648 236 658.5 212.5Q669 189 669 157Q669 122 656 92.5Q643 63 620.5 42Q598 21 567 9Q536 -3 499 -3ZM504 75Q535 75 552.5 98.5Q570 122 570 156Q570 178 559 191.5Q548 205 525 205Q494 205 476.5 180.5Q459 156 459 127Q459 104 470 89.5Q481 75 504 75ZM185 0H90L93 17L548 650H643L641 632Z" glyph-name="percent" horiz-adv-x="712" unicode="%" /><glyph d="M140 -8Q103 -8 75 12.5Q47 33 47 76Q47 99 56 117.5Q65 136 79.5 149.5Q94 163 113 170.5Q132 178 153 178Q190 178 218 155.5Q246 133 246 90Q246 45 215.5 18.5Q185 -8 140 -8Z" glyph-name="period" horiz-adv-x="346" unicode="." /><glyph d="M172 196Q135 196 107 216.5Q79 237 79 280Q79 303 88 321.5Q97 340 111.5 353.5Q126 367 145 374.5Q164 382 185 382Q222 382 250 359.5Q278 337 278 294Q278 249 247.5 222.5Q217 196 172 196Z" glyph-name="periodcentered" horiz-adv-x="346" unicode="&#183;" /><glyph d="M840 -3Q812 -3 786.5 4.5Q761 12 742.5 27Q724 42 713 65.5Q702 89 702 122Q702 157 715.5 186.5Q729 216 752 238Q775 260 806.5 272.5Q838 285 874 285Q902 285 927 277Q952 269 970.5 252.5Q989 236 999.5 212.5Q1010 189 1010 157Q1010 122 997 92.5Q984 63 961.5 42Q939 21 908 9Q877 -3 840 -3ZM845 75Q876 75 893.5 98.5Q911 122 911 156Q911 178 900 191.5Q889 205 866 205Q835 205 817.5 180.5Q800 156 800 127Q800 104 811 89.5Q822 75 845 75ZM500 -3Q472 -3 446.5 4.5Q421 12 402.5 27Q384 42 373 65.5Q362 89 362 122Q362 157 375.5 186.5Q389 216 412 238Q435 260 466.5 272.5Q498 285 534 285Q562 285 587 277Q612 269 630.5 252.5Q649 236 659.5 212.5Q670 189 670 157Q670 122 657 92.5Q644 63 621.5 42Q599 21 568 9Q537 -3 500 -3ZM505 75Q536 75 553.5 98.5Q571 122 571 156Q571 178 560 191.5Q549 205 526 205Q495 205 477.5 180.5Q460 156 460 127Q460 104 471 89.5Q482 75 505 75ZM205 368Q177 368 151.5 375.5Q126 383 107.5 398Q89 413 78 436.5Q67 460 67 493Q67 528 80.5 557.5Q94 587 117 609Q140 631 171.5 643.5Q203 656 239 656Q267 656 292 648Q317 640 335.5 623.5Q354 607 364.5 583.5Q375 560 375 528Q375 493 362 463.5Q349 434 326.5 413Q304 392 273 380Q242 368 205 368ZM210 446Q241 446 258.5 469.5Q276 493 276 527Q276 549 265 562.5Q254 576 231 576Q200 576 182.5 551.5Q165 527 165 498Q165 475 176 460.5Q187 446 210 446ZM185 0H90L93 17L548 650H643L641 632Z" glyph-name="perthousand" horiz-adv-x="1052" unicode="&#8240;" /><glyph d="M366 73H214L244 262H54L75 394H265L295 584H447L417 394H608L587 262H396Z" glyph-name="plus" horiz-adv-x="637" unicode="+" /><glyph d="M388 213H236L258 349H88L108 477H278L301 619H453L430 477H601L581 349H410ZM531 34H38L59 165H552Z" glyph-name="plusminus" horiz-adv-x="637" unicode="&#177;" /><glyph d="M398 -13Q323 -13 258 13.5Q193 40 146 86Q99 132 72 194Q45 256 45 326Q45 396 72 457.5Q99 519 146 565Q193 611 258 638Q323 665 398 665Q473 665 537.5 638Q602 611 649.5 565Q697 519 724 457.5Q751 396 751 326Q751 256 724 194Q697 132 649.5 86Q602 40 537.5 13.5Q473 -13 398 -13ZM398 76Q452 76 498 95.5Q544 115 577.5 149Q611 183 630 228.5Q649 274 649 325Q649 377 630 422.5Q611 468 577.5 502Q544 536 498 555.5Q452 575 398 575Q344 575 298 555.5Q252 536 218.5 502Q185 468 166 422.5Q147 377 147 325Q147 274 166 228.5Q185 183 218.5 149Q252 115 298 95.5Q344 76 398 76ZM374 161H284V499H427Q452 499 474.5 492Q497 485 514 471.5Q531 458 541 437.5Q551 417 551 390V381Q551 354 541 333.5Q531 313 514 299.5Q497 286 474.5 278.5Q452 271 427 271H374ZM374 427V344H416Q440 344 450.5 355Q461 366 461 386Q461 405 450.5 416Q440 427 416 427Z" glyph-name="published" horiz-adv-x="772" unicode="&#8471;" /><glyph d="M492 -180H335L371 44H369Q312 -15 226 -15Q190 -15 154.5 -2Q119 11 90.5 38Q62 65 44.5 107.5Q27 150 27 209Q27 269 50.5 331.5Q74 394 120 440Q156 476 204.5 495.5Q253 515 295 515Q361 515 397 495.5Q433 476 457 442H459L488 500H600ZM281 115Q312 115 336 129.5Q360 144 376 168Q392 192 400.5 222.5Q409 253 409 285Q409 330 389 358Q369 386 324 386Q293 386 269 371.5Q245 357 228.5 333Q212 309 203.5 278.5Q195 248 195 216Q195 172 215.5 143.5Q236 115 281 115Z" glyph-name="q" horiz-adv-x="619" unicode="q" /><glyph d="M315 229H172L188 376L201 388Q266 389 308.5 414.5Q351 440 351 489Q351 513 337 527Q323 541 298 541Q265 541 244.5 519Q224 497 221 463H69Q72 507 90.5 544.5Q109 582 140.5 609Q172 636 215 651Q258 666 309 666Q352 666 389 654Q426 642 453 620.5Q480 599 495.5 568Q511 537 511 499Q511 427 465 375Q419 323 331 300ZM212 -8Q176 -8 148 12.5Q120 33 120 75Q120 97 129 115.5Q138 134 152.5 147Q167 160 186 167.5Q205 175 225 175Q262 175 290 153Q318 131 318 88Q318 43 287.5 17.5Q257 -8 212 -8Z" glyph-name="question" horiz-adv-x="504" unicode="?" /><glyph d="M190 -156Q147 -156 111 -144.5Q75 -133 49 -111.5Q23 -90 8 -59.5Q-7 -29 -7 9Q-7 81 39 133Q85 185 173 208L189 279H332L316 132L303 120Q239 119 196 94Q153 69 153 19Q153 -5 167 -19Q181 -33 206 -33Q239 -33 259.5 -11Q280 11 283 45H435Q432 1 412.5 -36Q393 -73 361 -99.5Q329 -126 285 -141Q241 -156 190 -156ZM292 516Q328 516 356 495.5Q384 475 384 433Q384 411 375 392.5Q366 374 351.5 361Q337 348 318 340.5Q299 333 279 333Q242 333 214 355Q186 377 186 420Q186 465 216.5 490.5Q247 516 292 516Z" glyph-name="questiondown" horiz-adv-x="494" unicode="&#191;" /><glyph d="M200 370H91L114 630L117 650H262L259 630ZM391 370H282L305 630L308 650H453L450 630Z" glyph-name="quotedbl" horiz-adv-x="444" unicode="&quot;" /><glyph d="M345 -127H228L321 167H499L496 151ZM118 -127H1L94 167H272L269 151Z" glyph-name="quotedblbase" horiz-adv-x="567" unicode="&#8222;" /><glyph d="M476 356H298L301 372L452 650H569ZM249 356H71L74 372L225 650H342Z" glyph-name="quotedblleft" horiz-adv-x="566" unicode="&#8220;" /><glyph d="M421 356H304L397 650H575L572 634ZM194 356H77L170 650H348L345 634Z" glyph-name="quotedblright" horiz-adv-x="567" unicode="&#8221;" /><glyph d="M226 650H348L254 356H71L74 372Z" glyph-name="quoteleft" horiz-adv-x="346" unicode="&#8216;" /><glyph d="M199 356H77L171 650H354L351 634Z" glyph-name="quoteright" horiz-adv-x="346" unicode="&#8217;" /><glyph d="M122 -128H0L94 166H277L274 150Z" glyph-name="quotesinglbase" horiz-adv-x="346" unicode="&#8218;" /><glyph d="M200 370H91L114 630L117 650H262L259 630Z" glyph-name="quotesingle" horiz-adv-x="253" unicode="&apos;" /><glyph d="M177 0H20L99 500H209L221 394H224Q229 414 239.5 432.5Q250 451 264 465Q303 504 376 504Q387 504 400 503Q413 502 423 498L400 352H336Q276 352 248.5 317Q221 282 212 226Z" glyph-name="r" horiz-adv-x="404" unicode="r" /><glyph d="M398 -13Q323 -13 258 13.5Q193 40 146 86Q99 132 72 194Q45 256 45 326Q45 396 72 457.5Q99 519 146 565Q193 611 258 638Q323 665 398 665Q473 665 537.5 638Q602 611 649.5 565Q697 519 724 457.5Q751 396 751 326Q751 256 724 194Q697 132 649.5 86Q602 40 537.5 13.5Q473 -13 398 -13ZM398 76Q452 76 498 95.5Q544 115 577.5 149Q611 183 630 228.5Q649 274 649 325Q649 377 630 422.5Q611 468 577.5 502Q544 536 498 555.5Q452 575 398 575Q344 575 298 555.5Q252 536 218.5 502Q185 468 166 422.5Q147 377 147 325Q147 274 166 228.5Q185 183 218.5 149Q252 115 298 95.5Q344 76 398 76ZM360 161H270V499H413Q438 499 460.5 492Q483 485 500 471.5Q517 458 527 437.5Q537 417 537 390V382Q537 347 519.5 324.5Q502 302 473 288L552 179V161H460L384 271H360ZM360 427V344H399Q447 344 447 386Q447 405 436.5 416Q426 427 402 427Z" glyph-name="registered" horiz-adv-x="772" unicode="&#174;" /><glyph d="M302 538Q257 538 224.5 562Q192 586 192 638Q192 665 203.5 687.5Q215 710 233.5 726.5Q252 743 276.5 752Q301 761 327 761Q372 761 403.5 736Q435 711 435 660Q435 635 424 612.5Q413 590 395 573.5Q377 557 353 547.5Q329 538 302 538ZM309 608Q326 608 341.5 621Q357 634 357 654Q357 674 346 683Q335 692 319 692Q302 692 286.5 678.5Q271 665 271 645Q271 626 282 617Q293 608 309 608Z" glyph-name="ring" horiz-adv-x="500" unicode="&#730;" /><glyph d="M207 -15Q161 -15 124 -5Q87 5 61.5 26Q36 47 23.5 78.5Q11 110 15 152L17 163H156Q155 160 155 156V150Q155 121 173.5 106Q192 91 226 91Q251 91 269 103Q287 115 287 138Q287 156 276 167Q263 181 237.5 189.5Q212 198 183.5 207Q155 216 128 226.5Q101 237 83 255Q50 288 50 344Q50 373 60.5 402Q71 431 95 455Q131 491 179 503.5Q227 516 283 516Q320 516 352.5 508.5Q385 501 409.5 486Q434 471 449 447Q464 423 466 390Q466 384 465 374.5Q464 365 462 356H322Q323 360 323 366Q323 386 309 397.5Q295 409 269 409Q241 409 225.5 396.5Q210 384 210 364Q210 355 213 349Q216 343 221 338Q232 328 255 321Q278 314 305.5 306.5Q333 299 361.5 287Q390 275 411 254Q430 235 437 215Q444 195 444 173Q444 138 432 107Q420 76 398 54Q359 15 314.5 0Q270 -15 207 -15Z" glyph-name="s" horiz-adv-x="483" unicode="s" /><glyph d="M500 59Q534 18 534 -42Q534 -81 518.5 -121Q503 -161 474 -190Q432 -232 373 -252Q314 -272 254 -272Q197 -272 148.5 -260.5Q100 -249 66.5 -224Q33 -199 17.5 -161Q2 -123 9 -69H170Q162 -108 186.5 -130Q211 -152 256 -152Q301 -152 330.5 -132.5Q360 -113 360 -75Q360 -64 356.5 -54.5Q353 -45 343 -35Q327 -19 293.5 -7.5Q260 4 223 15Q186 26 151.5 38.5Q117 51 97 70Q74 92 63 119Q52 146 52 177Q52 217 69 257.5Q86 298 118 330L128 340Q112 360 104.5 386.5Q97 413 97 439Q97 479 113 517Q129 555 161 587Q200 626 252 644Q304 662 369 662Q419 662 462 652.5Q505 643 536 622Q567 601 584 568Q601 535 600 488L598 475H441Q443 503 424 522Q405 541 360 541Q323 541 298.5 522Q274 503 274 477Q274 454 287 441Q302 426 332 417Q362 408 398 398Q434 388 471 372.5Q508 357 536 328Q556 308 566 280Q576 252 576 221Q576 181 560.5 141.5Q545 102 514 71L507 64Q504 61 500 59ZM270 273Q229 254 229 215Q229 197 242 184Q260 166 298 156Q336 146 380 132Q403 155 403 186Q403 197 399.5 206.5Q396 216 386 226Q369 243 337.5 253Q306 263 270 273Z" glyph-name="section" horiz-adv-x="630" unicode="&#167;" /><glyph d="M108 -127H-14L80 167H263L260 151ZM204 283Q167 283 139 303.5Q111 324 111 367Q111 390 120 408.5Q129 427 143.5 440.5Q158 454 177 461.5Q196 469 217 469Q254 469 282 446.5Q310 424 310 381Q310 336 279.5 309.5Q249 283 204 283Z" glyph-name="semicolon" horiz-adv-x="346" unicode=";" /><glyph d="M335 405H277L315 650H385L426 509L511 650H587L549 405H491L517 564H516L445 442H394L359 561H358ZM141 400Q108 400 81 415Q54 430 54 465V469Q54 471 55 477H116V472Q116 446 150 446Q166 446 177.5 453.5Q189 461 189 473Q189 482 183 488Q177 494 165 498L139 506Q126 511 112.5 516.5Q99 522 90 531Q83 538 78.5 548Q74 558 74 572Q74 603 97 626Q114 643 135 649.5Q156 656 179 656Q215 656 240 640.5Q265 625 263 590V586H203Q204 597 198 603.5Q192 610 176 610Q159 610 149.5 602.5Q140 595 140 584Q140 576 145 571Q150 566 161 563Q172 560 185.5 556Q199 552 212 547Q225 542 235 532Q245 522 248.5 511.5Q252 501 252 485Q252 471 246.5 456Q241 441 230 430Q200 400 141 400Z" glyph-name="servicemark" horiz-adv-x="561" unicode="&#8480;" /><glyph d="M203 0H36L38 18Q58 95 92.5 169Q127 243 169 309Q211 375 257.5 430Q304 485 348 523L347 525Q315 523 288.5 522.5Q262 522 229 522H77L97 650H585L569 543Q505 494 446 431Q387 368 339 297.5Q291 227 255.5 151.5Q220 76 203 0Z" glyph-name="seven" horiz-adv-x="539" unicode="7" /><glyph d="M255 -15Q149 -15 86 37Q23 89 23 186Q23 248 50.5 313.5Q78 379 122 438Q173 507 232.5 560.5Q292 614 349 650H543L541 632Q513 614 476.5 587Q440 560 402.5 529.5Q365 499 332 467.5Q299 436 278 409L279 408Q294 416 315.5 422Q337 428 359 428Q392 428 424.5 416Q457 404 482 381Q507 358 522.5 324Q538 290 538 245Q538 191 519 146Q500 101 466 67Q428 29 376.5 7Q325 -15 255 -15ZM270 111Q296 111 316.5 122Q337 133 351 151Q365 169 372 191.5Q379 214 379 236Q379 269 359 292Q339 315 295 315Q266 315 244.5 305.5Q223 296 209 279.5Q195 263 188 241Q181 219 181 195Q181 162 201.5 136.5Q222 111 270 111Z" glyph-name="six" horiz-adv-x="566" unicode="6" /><glyph d="M117 -124H-47L-45 -108L417 696H582L579 680Z" glyph-name="slash" horiz-adv-x="516" unicode="/" /><glyph glyph-name="space" horiz-adv-x="180" unicode=" " /><glyph d="M418 269H310Q311 262 311.5 255.5Q312 249 312 241Q312 204 304.5 177.5Q297 151 286 131Q298 128 310 125.5Q322 123 333 123Q362 123 382.5 133Q403 143 411 174H537Q535 134 521.5 100Q508 66 484 42Q459 17 425 4.5Q391 -8 352 -8Q316 -8 290.5 -1Q265 6 245 14Q225 22 207 29Q189 36 167 36Q145 36 132.5 26.5Q120 17 115 0H-21Q-19 35 -7 65.5Q5 96 30 121Q74 165 141 169Q146 180 148 194Q150 208 150 220Q150 245 144 269H33L51 383H103Q97 400 93 417Q89 434 89 451Q89 495 101 531Q113 567 145 599Q180 634 229 649.5Q278 665 331 665Q440 665 487.5 611Q535 557 520 463H369Q377 503 367 526Q357 549 327 549Q292 549 275.5 524Q259 499 259 463Q259 443 264 423Q269 403 277 383H436Z" glyph-name="sterling" horiz-adv-x="555" unicode="&#163;" /><glyph d="M223 -10Q188 -10 156.5 -1.5Q125 7 102.5 27Q80 47 70 79Q60 111 67 159L102 381H39L50 454Q83 468 109 484Q135 500 156 519.5Q177 539 195 562.5Q213 586 232 613H296L277 494H391L373 381H260L226 166Q221 138 234.5 127Q248 116 273 116Q286 116 300 119.5Q314 123 331 132H343L324 9Q301 -1 273.5 -5.5Q246 -10 223 -10Z" glyph-name="t" horiz-adv-x="388" unicode="t" /><glyph d="M236 -15Q126 -15 66 36.5Q6 88 13 200H163Q159 155 181.5 129.5Q204 104 249 104Q297 104 327 136.5Q357 169 357 217Q357 243 347.5 261Q338 279 322.5 290Q307 301 287.5 306Q268 311 247 311Q221 311 197 308L187 313L186 383L251 446Q268 463 295.5 487Q323 511 344 529L345 531Q336 530 319.5 529.5Q303 529 284.5 528.5Q266 528 249 527.5Q232 527 224 527H91L111 650H549L535 560L376 406Q439 390 477.5 346.5Q516 303 516 231Q516 174 494 128Q472 82 433.5 50.5Q395 19 344 2Q293 -15 236 -15Z" glyph-name="three" horiz-adv-x="549" unicode="3" /><glyph d="M212 551H104Q107 586 120 616Q133 646 153 667.5Q173 689 198 701Q223 713 250 713Q273 713 288.5 706.5Q304 700 317 692.5Q330 685 342.5 678.5Q355 672 371 672Q376 672 381.5 673Q387 674 393 678.5Q399 683 404 691.5Q409 700 412 716H520Q517 680 504 650.5Q491 621 471.5 599.5Q452 578 428 566Q404 554 378 554Q354 554 338 560.5Q322 567 308.5 574.5Q295 582 282.5 588.5Q270 595 253 595Q249 595 243 594Q237 593 231 588.5Q225 584 220 575.5Q215 567 212 551Z" glyph-name="tilde" horiz-adv-x="500" unicode="&#732;" /><glyph d="M328 405H270L308 650H378L419 509L504 650H580L542 405H484L510 564H509L438 442H387L352 561H351ZM174 405H113L143 596H74L82 650H276L268 596H204Z" glyph-name="trademark" horiz-adv-x="553" unicode="&#8482;" /><glyph d="M485 0H3L17 89Q96 145 164 196.5Q232 248 282.5 296Q333 344 361.5 388.5Q390 433 390 476Q390 506 371.5 526Q353 546 316 546Q288 546 269 534Q250 522 238.5 502Q227 482 222.5 456Q218 430 219 402L216 384H74Q71 398 71 424Q71 476 88 520Q105 564 137 596Q174 633 228 649Q282 665 335 665Q430 665 488 620Q546 575 546 485Q546 420 513.5 364Q481 308 427 254Q393 220 352 185Q311 150 264 121V119Q272 120 286.5 121.5Q301 123 317 124Q333 125 348 126Q363 127 370 127H507Z" glyph-name="two" horiz-adv-x="574" unicode="2" /><glyph d="M242 -15Q196 -15 155.5 -1Q115 13 87 40.5Q59 68 46 110Q33 152 42 208L89 500H242L195 202Q191 176 195 158.5Q199 141 208 130Q217 119 231 114.5Q245 110 260 110Q288 110 313 128.5Q338 147 345 192L394 500H550L503 208Q495 157 477.5 117Q460 77 432 49Q398 15 353 0Q308 -15 242 -15Z" glyph-name="u" horiz-adv-x="559" unicode="u" /><glyph d="M242 -15Q196 -15 155.5 -1Q115 13 87 40.5Q59 68 46 110Q33 152 42 208L89 500H242L195 202Q191 176 195 158.5Q199 141 208 130Q217 119 231 114.5Q245 110 260 110Q288 110 313 128.5Q338 147 345 192L394 500H550L503 208Q495 157 477.5 117Q460 77 432 49Q398 15 353 0Q308 -15 242 -15ZM508 642 218 539 190 630 467 769Z" glyph-name="uacute" horiz-adv-x="559" unicode="&#250;" /><glyph d="M242 -15Q196 -15 155.5 -1Q115 13 87 40.5Q59 68 46 110Q33 152 42 208L89 500H242L195 202Q191 176 195 158.5Q199 141 208 130Q217 119 231 114.5Q245 110 260 110Q288 110 313 128.5Q338 147 345 192L394 500H550L503 208Q495 157 477.5 117Q460 77 432 49Q398 15 353 0Q308 -15 242 -15ZM352 621 192 535 149 615 351 753H377L533 615L475 541Z" glyph-name="ucircumflex" horiz-adv-x="559" unicode="&#251;" /><glyph d="M242 -15Q196 -15 155.5 -1Q115 13 87 40.5Q59 68 46 110Q33 152 42 208L89 500H242L195 202Q191 176 195 158.5Q199 141 208 130Q217 119 231 114.5Q245 110 260 110Q288 110 313 128.5Q338 147 345 192L394 500H550L503 208Q495 157 477.5 117Q460 77 432 49Q398 15 353 0Q308 -15 242 -15ZM449 554Q417 554 393 572Q369 590 369 627Q369 647 376.5 663.5Q384 680 397 692Q410 704 426 710.5Q442 717 460 717Q492 717 516.5 697Q541 677 541 640Q541 600 514.5 577Q488 554 449 554ZM233 554Q201 554 177 572Q153 590 153 627Q153 647 160.5 663.5Q168 680 181 692Q194 704 210 710.5Q226 717 244 717Q276 717 300.5 697Q325 677 325 640Q325 600 298.5 577Q272 554 233 554Z" glyph-name="udieresis" horiz-adv-x="559" unicode="&#252;" /><glyph d="M242 -15Q196 -15 155.5 -1Q115 13 87 40.5Q59 68 46 110Q33 152 42 208L89 500H242L195 202Q191 176 195 158.5Q199 141 208 130Q217 119 231 114.5Q245 110 260 110Q288 110 313 128.5Q338 147 345 192L394 500H550L503 208Q495 157 477.5 117Q460 77 432 49Q398 15 353 0Q308 -15 242 -15ZM484 621 434 539 178 642 251 760Z" glyph-name="ugrave" horiz-adv-x="559" unicode="&#249;" /><glyph d="M279 -209H-74L-52 -95H301Z" glyph-name="underscore" horiz-adv-x="349" unicode="_" /><glyph d="M294 0H151L32 483L35 500H188L227 277Q229 265 231 249.5Q233 234 235 217Q237 200 238.5 184Q240 168 241 155H243Q247 168 252.5 184Q258 200 264.5 217Q271 234 277 249.5Q283 265 289 277L398 500H569L566 483Z" glyph-name="v" horiz-adv-x="524" unicode="v" /><glyph d="M271 0H128L48 482L51 500H194L224 277Q228 255 229.5 231.5Q231 208 231 181H233Q242 208 250.5 231.5Q259 255 268 276L368 500H530L560 277Q564 255 565.5 231.5Q567 208 567 181H569Q578 208 586.5 231.5Q595 255 605 276L707 500H858L855 483L625 0H472L421 310Z" glyph-name="w" horiz-adv-x="829" unicode="w" /><glyph d="M126 0H-50L-48 17L182 272L62 483L65 500H220L284 381L389 500H563L560 483L358 258L495 17L493 0H338L256 149Z" glyph-name="x" horiz-adv-x="542" unicode="x" /><glyph d="M196 -180H28L31 -164L147 27L32 483L35 500H188L231 271Q237 248 241 219Q245 190 247 164H249Q259 190 270.5 219Q282 248 293 271L408 500H579L576 483Z" glyph-name="y" horiz-adv-x="534" unicode="y" /><glyph d="M196 -180H28L31 -164L147 27L32 483L35 500H188L231 271Q237 248 241 219Q245 190 247 164H249Q259 190 270.5 219Q282 248 293 271L408 500H579L576 483ZM423 554Q391 554 367 572Q343 590 343 627Q343 647 350.5 663.5Q358 680 371 692Q384 704 400 710.5Q416 717 434 717Q466 717 490.5 697Q515 677 515 640Q515 600 488.5 577Q462 554 423 554ZM207 554Q175 554 151 572Q127 590 127 627Q127 647 134.5 663.5Q142 680 155 692Q168 704 184 710.5Q200 717 218 717Q250 717 274.5 697Q299 677 299 640Q299 600 272.5 577Q246 554 207 554Z" glyph-name="ydieresis" horiz-adv-x="534" unicode="&#255;" /><glyph d="M377 0H212L245 216H60L72 295H237L215 340H79L92 419H177L73 632L75 650H246L353 405L540 650H719L717 632L544 419H637L624 340H480L444 295H617L605 216H410Z" glyph-name="yen" horiz-adv-x="668" unicode="&#165;" /><glyph d="M411 0H-18L-5 88L256 380V382H59L78 500H490L476 414L216 120L215 118H429Z" glyph-name="z" horiz-adv-x="481" unicode="z" /><glyph d="M267 -15Q154 -15 96 53Q38 121 38 239Q38 341 65.5 431Q93 521 160 589Q202 631 249 648Q296 665 352 665Q463 665 520.5 601Q578 537 578 419Q578 368 571 317.5Q564 267 549.5 221.5Q535 176 513.5 136.5Q492 97 462 67Q423 28 375 6.5Q327 -15 267 -15ZM275 114Q313 114 339.5 144Q366 174 383 219.5Q400 265 408 320.5Q416 376 416 427Q416 478 399 507Q382 536 339 536Q302 536 275.5 507Q249 478 232 432.5Q215 387 207.5 332Q200 277 200 226Q200 173 216.5 143.5Q233 114 275 114Z" glyph-name="zero" horiz-adv-x="592" unicode="0" /></font>
</defs>
</svg>
