<?xml version="1.0" standalone="no"?><!DOCTYPE svg PUBLIC "-//W3C//DTD SVG 1.1//EN" "http://www.w3.org/Graphics/SVG/1.1/DTD/svg11.dtd" ><svg version="1.1" xmlns="http://www.w3.org/2000/svg"><defs><font horiz-adv-x="0" id="font"><font-face ascent="750" bbox="-174 -204 1058 870" cap-height="650" descent="-250" font-family="AT Fabriga Web Light Italic" font-stretch="normal" font-style="normal" font-weight="600" units-per-em="1000" x-height="500" /><missing-glyph horiz-adv-x="180" /><glyph d="M54 0H-10L-8 13L357 650H424L590 13L588 0H530L485 178H154ZM380 585 187 236H470L382 585Z" glyph-name="A" horiz-adv-x="651" unicode="A" /><glyph d="M30 0H-44L-37 14L471 650H885L876 592H561L525 363H797L788 305H516L477 58H792L783 0H406L434 178H170ZM498 598 214 236H443L500 598Z" glyph-name="AE" horiz-adv-x="899" unicode="&#198;" /><glyph d="M54 0H-10L-8 13L357 650H424L590 13L588 0H530L485 178H154ZM380 585 187 236H470L382 585ZM552 809 322 699 305 733 523 870Z" glyph-name="Aacute" horiz-adv-x="651" unicode="&#193;" /><glyph d="M54 0H-10L-8 13L357 650H424L590 13L588 0H530L485 178H154ZM380 585 187 236H470L382 585ZM408 773 273 703 254 738 412 842 543 738 518 703Z" glyph-name="Acircumflex" horiz-adv-x="651" unicode="&#194;" /><glyph d="M54 0H-10L-8 13L357 650H424L590 13L588 0H530L485 178H154ZM380 585 187 236H470L382 585ZM320 738Q300 738 288.5 749.5Q277 761 277 779Q277 802 292 817Q301 826 311.5 829.5Q322 833 333 833Q351 833 363.5 822Q376 811 376 792Q376 769 360 753Q352 745 341 741.5Q330 738 320 738ZM484 738Q464 738 452.5 749.5Q441 761 441 779Q441 802 456 817Q465 826 475.5 829.5Q486 833 497 833Q515 833 527.5 822Q540 811 540 792Q540 769 524 753Q516 745 505 741.5Q494 738 484 738Z" glyph-name="Adieresis" horiz-adv-x="651" unicode="&#196;" /><glyph d="M54 0H-10L-8 13L357 650H424L590 13L588 0H530L485 178H154ZM380 585 187 236H470L382 585ZM471 733 444 699 256 817 297 870Z" glyph-name="Agrave" horiz-adv-x="651" unicode="&#192;" /><glyph d="M54 0H-10L-8 13L354 645Q343 650 334 659Q312 681 312 718Q312 741 320.5 759Q329 777 343 790Q357 803 374.5 809.5Q392 816 410 816Q451 816 473 794Q495 772 495 736Q495 715 487 697Q479 679 465.5 665.5Q452 652 433 644Q430 643 426 641L590 13L588 0H530L485 178H154ZM380 585 187 236H470L382 585ZM395 679Q417 679 432.5 696Q448 713 448 736Q448 753 437.5 764Q427 775 410 775Q389 775 373.5 758Q358 741 358 718Q358 701 368 690Q378 679 395 679Z" glyph-name="Aring" horiz-adv-x="651" unicode="&#197;" /><glyph d="M54 0H-10L-8 13L357 650H424L590 13L588 0H530L485 178H154ZM380 585 187 236H470L382 585ZM300 715H253Q258 758 284.5 786.5Q311 815 352 815Q375 815 391.5 807.5Q408 800 421 791.5Q434 783 446.5 775.5Q459 768 474 768Q491 768 506 778Q521 788 526 820H573Q568 777 542 748.5Q516 720 474 720Q450 720 434 727.5Q418 735 405 743.5Q392 752 379.5 759.5Q367 767 352 767Q335 767 320 757Q305 747 300 715Z" glyph-name="Atilde" horiz-adv-x="651" unicode="&#195;" /><glyph d="M331 0H60L162 650H393Q428 650 457 642Q486 634 508 617Q530 600 542 572Q554 544 554 503Q554 457 531 410.5Q508 364 458 335L457 333Q489 318 514.5 287.5Q540 257 540 206Q540 163 525 125.5Q510 88 482.5 60Q455 32 416.5 16Q378 0 331 0ZM169 303 131 58H329Q401 58 438.5 99.5Q476 141 476 206Q476 222 471 239Q466 256 454 270.5Q442 285 420.5 294Q399 303 366 303ZM215 592 179 361H367Q400 361 423.5 375.5Q447 390 461 411.5Q475 433 481.5 457.5Q488 482 488 503Q488 538 468 565Q448 592 401 592Z" glyph-name="B" horiz-adv-x="603" unicode="B" /><glyph d="M310 -15Q256 -15 211 4Q166 23 133.5 58Q101 93 83 144Q65 195 65 259Q65 346 96 429Q127 512 186 569Q235 617 291 641Q347 665 416 665Q470 665 514 647.5Q558 630 588 600Q618 570 633.5 530.5Q649 491 647 447L646 441H585Q585 472 576.5 501.5Q568 531 547 554Q526 577 491.5 591Q457 605 406 605Q344 605 293.5 577Q243 549 207 501.5Q171 454 151.5 392.5Q132 331 132 264Q132 216 144.5 176Q157 136 181 106.5Q205 77 240.5 61Q276 45 322 45Q373 45 411 59.5Q449 74 476.5 98.5Q504 123 522.5 155Q541 187 553 221H615L614 215Q603 176 582.5 138Q562 100 533 71Q491 29 436 7Q381 -15 310 -15Z" glyph-name="C" horiz-adv-x="674" unicode="C" /><glyph d="M253 -180Q226 -180 207 -177Q188 -174 174 -168L181 -122H191Q207 -128 223.5 -130Q240 -132 249 -132Q276 -132 292 -124Q308 -116 308 -99Q308 -85 296.5 -79Q285 -73 266 -74L264 -68L294 -14Q249 -12 211 4Q166 23 133.5 58Q101 93 83 144Q65 195 65 259Q65 346 96 429Q127 512 186 569Q235 617 291 641Q347 665 416 665Q470 665 514 647.5Q558 630 588 600Q618 570 633.5 530.5Q649 491 647 447L646 441H585Q585 472 576.5 501.5Q568 531 547 554Q526 577 491.5 591Q457 605 406 605Q344 605 293.5 577Q243 549 207 501.5Q171 454 151.5 392.5Q132 331 132 264Q132 216 144.5 176Q157 136 181 106.5Q205 77 240.5 61Q276 45 322 45Q373 45 411 59.5Q449 74 476.5 98.5Q504 123 522.5 155Q541 187 553 221H615L614 215Q603 176 582.5 138Q562 100 533 71Q491 29 436 7Q394 -9 343 -14L326 -47Q341 -52 354 -65.5Q367 -79 367 -99Q367 -119 357 -134Q347 -149 330.5 -159Q314 -169 293.5 -174.5Q273 -180 253 -180Z" glyph-name="Ccedilla" horiz-adv-x="674" unicode="&#199;" /><glyph d="M253 0H60L162 650H355Q425 650 479.5 633Q534 616 569 581Q601 549 620.5 501.5Q640 454 640 379Q640 343 632.5 304.5Q625 266 610.5 229Q596 192 575 158Q554 124 528 98Q471 41 401.5 20.5Q332 0 253 0ZM215 592 131 58H270Q344 58 400.5 83Q457 108 495.5 151Q534 194 554 253Q574 312 574 379Q574 493 518.5 542.5Q463 592 354 592Z" glyph-name="D" horiz-adv-x="684" unicode="D" /><glyph d="M437 0H60L162 650H539L530 592H215L179 363H451L442 305H170L131 58H446Z" glyph-name="E" horiz-adv-x="553" unicode="E" /><glyph d="M437 0H60L162 650H539L530 592H215L179 363H451L442 305H170L131 58H446ZM501 809 271 699 254 733 472 870Z" glyph-name="Eacute" horiz-adv-x="553" unicode="&#201;" /><glyph d="M437 0H60L162 650H539L530 592H215L179 363H451L442 305H170L131 58H446ZM369 773 234 703 215 738 373 842 504 738 479 703Z" glyph-name="Ecircumflex" horiz-adv-x="553" unicode="&#202;" /><glyph d="M437 0H60L162 650H539L530 592H215L179 363H451L442 305H170L131 58H446ZM265 738Q245 738 233.5 749.5Q222 761 222 779Q222 802 237 817Q246 826 256.5 829.5Q267 833 278 833Q296 833 308.5 822Q321 811 321 792Q321 769 305 753Q297 745 286 741.5Q275 738 265 738ZM429 738Q409 738 397.5 749.5Q386 761 386 779Q386 802 401 817Q410 826 420.5 829.5Q431 833 442 833Q460 833 472.5 822Q485 811 485 792Q485 769 469 753Q461 745 450 741.5Q439 738 429 738Z" glyph-name="Edieresis" horiz-adv-x="553" unicode="&#203;" /><glyph d="M437 0H60L162 650H539L530 592H215L179 363H451L442 305H170L131 58H446ZM491 732 464 698 276 816 317 869Z" glyph-name="Egrave" horiz-adv-x="553" unicode="&#200;" /><glyph d="M424 351H202Q199 337 197 322Q195 307 194 293H395L373 235H194Q199 147 238 95Q277 43 348 43Q388 43 419 57Q450 71 473 94.5Q496 118 511.5 149.5Q527 181 537 215H598L597 209Q586 167 563 124.5Q540 82 510 52Q475 17 433 0Q391 -17 334 -17Q290 -17 253 0Q216 17 189 49.5Q162 82 146 129Q130 176 128 235H6L28 293H130Q131 307 133 322Q135 337 138 351H57L79 409H152Q168 463 194 509.5Q220 556 255 591Q329 665 433 665Q484 665 522 648Q560 631 584 601.5Q608 572 619.5 533Q631 494 630 449L629 443H568Q567 475 561 504.5Q555 534 539 557.5Q523 581 495.5 595Q468 609 424 609Q387 609 354.5 593Q322 577 296 549.5Q270 522 250 486Q230 450 217 409H446Z" glyph-name="Euro" horiz-adv-x="657" unicode="&#8364;" /><glyph d="M122 0H60L162 650H549L540 592H215L175 340H457L448 282H166Z" glyph-name="F" horiz-adv-x="524" unicode="F" /><glyph d="M342 -15Q272 -15 219.5 6Q167 27 132 65Q97 103 79.5 155Q62 207 62 270Q62 352 90.5 428.5Q119 505 175 561Q225 611 289 638Q353 665 431 665Q486 665 529.5 649.5Q573 634 603.5 605.5Q634 577 650 537Q666 497 665 449L664 443H601Q601 475 591.5 504.5Q582 534 560.5 556Q539 578 504.5 591Q470 604 420 604Q354 604 300.5 576.5Q247 549 208.5 503Q170 457 149.5 396.5Q129 336 129 270Q129 223 142.5 182Q156 141 183.5 110.5Q211 80 252.5 62.5Q294 45 349 45Q414 45 471 69.5Q528 94 572 135L594 275H380L389 334H666L631 111Q609 84 578 61Q547 38 509.5 21Q472 4 429.5 -5.5Q387 -15 342 -15Z" glyph-name="G" horiz-adv-x="725" unicode="G" /><glyph d="M122 0H60L162 650H224L179 363H580L625 650H687L585 0H523L571 305H170Z" glyph-name="H" horiz-adv-x="723" unicode="H" /><glyph d="M122 0H60L162 650H224Z" glyph-name="I" horiz-adv-x="260" unicode="I" /><glyph d="M122 0H60L162 650H224ZM348 808 118 698 101 732 319 869Z" glyph-name="Iacute" horiz-adv-x="260" unicode="&#205;" /><glyph d="M122 0H60L162 650H224ZM223 772 88 702 69 737 227 841 358 737 333 702Z" glyph-name="Icircumflex" horiz-adv-x="260" unicode="&#206;" /><glyph d="M122 0H60L162 650H224ZM124 738Q104 738 92.5 749.5Q81 761 81 779Q81 802 96 817Q105 826 115.5 829.5Q126 833 137 833Q155 833 167.5 822Q180 811 180 792Q180 769 164 753Q156 745 145 741.5Q134 738 124 738ZM288 738Q268 738 256.5 749.5Q245 761 245 779Q245 802 260 817Q269 826 279.5 829.5Q290 833 301 833Q319 833 331.5 822Q344 811 344 792Q344 769 328 753Q320 745 309 741.5Q298 738 288 738Z" glyph-name="Idieresis" horiz-adv-x="260" unicode="&#207;" /><glyph d="M122 0H60L162 650H224ZM319 733 292 699 104 817 145 870Z" glyph-name="Igrave" horiz-adv-x="260" unicode="&#204;" /><glyph d="M101 -16Q82 -16 56.5 -11.5Q31 -7 11 7L19 62H34Q48 54 66 48Q84 42 107 42Q149 42 176 65Q196 82 207.5 110.5Q219 139 227 185L300 650H362L287 175Q281 135 269 100.5Q257 66 236 40Q215 14 182.5 -1Q150 -16 101 -16Z" glyph-name="J" horiz-adv-x="398" unicode="J" /><glyph d="M122 0H60L162 650H224L177 349L523 650H594V637L244 334L508 13V0H441L173 325Z" glyph-name="K" horiz-adv-x="582" unicode="K" /><glyph d="M425 0H60L162 650H224L131 58H434Z" glyph-name="L" horiz-adv-x="511" unicode="L" /><glyph d="M95 0H30L32 15L231 650H303L437 121L737 650H817L816 15L814 0H748L751 380Q751 396 751.5 421.5Q752 447 753 475Q754 503 754.5 528.5Q755 554 756 570H754Q748 555 735 529Q722 503 707 475.5Q692 448 677.5 422Q663 396 654 380L441 10H404L307 378Q303 394 297 420Q291 446 285 473.5Q279 501 274 527Q269 553 267 568H265Q261 552 254 526.5Q247 501 238.5 473Q230 445 222.5 419.5Q215 394 210 378Z" glyph-name="M" horiz-adv-x="920" unicode="M" /><glyph d="M123 0H60L162 650H232L522 98H524L610 650H672L570 0H502L211 557H209Z" glyph-name="N" horiz-adv-x="708" unicode="N" /><glyph glyph-name="NULL" horiz-adv-x="0" /><glyph d="M123 0H60L162 650H232L522 98H524L610 650H672L570 0H502L211 557H209ZM335 715H288Q293 758 319.5 786.5Q346 815 387 815Q410 815 426.5 807.5Q443 800 456 791.5Q469 783 481.5 775.5Q494 768 509 768Q526 768 541 778Q556 788 561 820H608Q603 777 577 748.5Q551 720 509 720Q485 720 469 727.5Q453 735 440 743.5Q427 752 414.5 759.5Q402 767 387 767Q370 767 355 757Q340 747 335 715Z" glyph-name="Ntilde" horiz-adv-x="708" unicode="&#209;" /><glyph d="M329 -15Q272 -15 224 4Q176 23 141.5 59Q107 95 87.5 146Q68 197 68 261Q68 346 100 426Q132 506 190 563Q238 611 301 638Q364 665 437 665Q494 665 542 644.5Q590 624 624.5 588Q659 552 678.5 503.5Q698 455 698 399Q698 309 667 226.5Q636 144 577 87Q527 38 465.5 11.5Q404 -15 329 -15ZM339 45Q405 45 459 73Q513 101 551.5 148.5Q590 196 611 257Q632 318 632 384Q632 431 619 471.5Q606 512 580.5 541.5Q555 571 516.5 588Q478 605 427 605Q361 605 307 577Q253 549 214.5 501.5Q176 454 155 393Q134 332 134 266Q134 219 147 178.5Q160 138 185.5 108.5Q211 79 249.5 62Q288 45 339 45Z" glyph-name="O" horiz-adv-x="742" unicode="O" /><glyph d="M956 0H579L597 117Q596 115 595 114Q549 57 482.5 22Q416 -13 329 -15Q272 -15 224 4Q176 23 141.5 59Q107 95 87.5 146Q68 197 68 261Q68 346 100 426Q132 506 190 563Q238 611 301 638Q364 665 437 665Q494 665 540.5 644Q587 623 620 587Q645 559 661 524L681 650H1058L1049 592H734L698 363H970L961 305H689L650 58H965ZM339 45Q405 45 459 73Q513 101 551.5 148.5Q590 196 611 257Q632 318 632 384Q632 431 619 471.5Q606 512 580.5 541.5Q555 571 516.5 588Q478 605 427 605Q361 605 307 577Q253 549 214.5 501.5Q176 454 155 393Q134 332 134 266Q134 219 147 178.5Q160 138 185.5 108.5Q211 79 249.5 62Q288 45 339 45Z" glyph-name="OE" horiz-adv-x="1072" unicode="&#338;" /><glyph d="M329 -15Q272 -15 224 4Q176 23 141.5 59Q107 95 87.5 146Q68 197 68 261Q68 346 100 426Q132 506 190 563Q238 611 301 638Q364 665 437 665Q494 665 542 644.5Q590 624 624.5 588Q659 552 678.5 503.5Q698 455 698 399Q698 309 667 226.5Q636 144 577 87Q527 38 465.5 11.5Q404 -15 329 -15ZM339 45Q405 45 459 73Q513 101 551.5 148.5Q590 196 611 257Q632 318 632 384Q632 431 619 471.5Q606 512 580.5 541.5Q555 571 516.5 588Q478 605 427 605Q361 605 307 577Q253 549 214.5 501.5Q176 454 155 393Q134 332 134 266Q134 219 147 178.5Q160 138 185.5 108.5Q211 79 249.5 62Q288 45 339 45ZM583 809 353 699 336 733 554 870Z" glyph-name="Oacute" horiz-adv-x="742" unicode="&#211;" /><glyph d="M329 -15Q272 -15 224 4Q176 23 141.5 59Q107 95 87.5 146Q68 197 68 261Q68 346 100 426Q132 506 190 563Q238 611 301 638Q364 665 437 665Q494 665 542 644.5Q590 624 624.5 588Q659 552 678.5 503.5Q698 455 698 399Q698 309 667 226.5Q636 144 577 87Q527 38 465.5 11.5Q404 -15 329 -15ZM339 45Q405 45 459 73Q513 101 551.5 148.5Q590 196 611 257Q632 318 632 384Q632 431 619 471.5Q606 512 580.5 541.5Q555 571 516.5 588Q478 605 427 605Q361 605 307 577Q253 549 214.5 501.5Q176 454 155 393Q134 332 134 266Q134 219 147 178.5Q160 138 185.5 108.5Q211 79 249.5 62Q288 45 339 45ZM466 773 331 703 312 738 470 842 601 738 576 703Z" glyph-name="Ocircumflex" horiz-adv-x="742" unicode="&#212;" /><glyph d="M329 -15Q272 -15 224 4Q176 23 141.5 59Q107 95 87.5 146Q68 197 68 261Q68 346 100 426Q132 506 190 563Q238 611 301 638Q364 665 437 665Q494 665 542 644.5Q590 624 624.5 588Q659 552 678.5 503.5Q698 455 698 399Q698 309 667 226.5Q636 144 577 87Q527 38 465.5 11.5Q404 -15 329 -15ZM339 45Q405 45 459 73Q513 101 551.5 148.5Q590 196 611 257Q632 318 632 384Q632 431 619 471.5Q606 512 580.5 541.5Q555 571 516.5 588Q478 605 427 605Q361 605 307 577Q253 549 214.5 501.5Q176 454 155 393Q134 332 134 266Q134 219 147 178.5Q160 138 185.5 108.5Q211 79 249.5 62Q288 45 339 45ZM367 738Q347 738 335.5 749.5Q324 761 324 779Q324 802 339 817Q348 826 358.5 829.5Q369 833 380 833Q398 833 410.5 822Q423 811 423 792Q423 769 407 753Q399 745 388 741.5Q377 738 367 738ZM531 738Q511 738 499.5 749.5Q488 761 488 779Q488 802 503 817Q512 826 522.5 829.5Q533 833 544 833Q562 833 574.5 822Q587 811 587 792Q587 769 571 753Q563 745 552 741.5Q541 738 531 738Z" glyph-name="Odieresis" horiz-adv-x="742" unicode="&#214;" /><glyph d="M329 -15Q272 -15 224 4Q176 23 141.5 59Q107 95 87.5 146Q68 197 68 261Q68 346 100 426Q132 506 190 563Q238 611 301 638Q364 665 437 665Q494 665 542 644.5Q590 624 624.5 588Q659 552 678.5 503.5Q698 455 698 399Q698 309 667 226.5Q636 144 577 87Q527 38 465.5 11.5Q404 -15 329 -15ZM339 45Q405 45 459 73Q513 101 551.5 148.5Q590 196 611 257Q632 318 632 384Q632 431 619 471.5Q606 512 580.5 541.5Q555 571 516.5 588Q478 605 427 605Q361 605 307 577Q253 549 214.5 501.5Q176 454 155 393Q134 332 134 266Q134 219 147 178.5Q160 138 185.5 108.5Q211 79 249.5 62Q288 45 339 45ZM573 733 546 699 358 817 399 870Z" glyph-name="Ograve" horiz-adv-x="742" unicode="&#210;" /><glyph d="M329 -15Q272 -15 224 4L221 5L180 -65H121L124 -50L172 32Q155 44 141 59Q107 95 87.5 146Q68 197 68 261Q68 346 100 426Q132 506 190 563Q238 611 301 638Q364 665 437 665Q489 665 534 648L573 715H633L630 700L584 622Q606 607 624 588Q659 552 678.5 503.5Q698 455 698 399Q698 309 667 226.5Q636 144 577 87Q527 38 465.5 11.5Q404 -15 329 -15ZM339 45Q405 45 459 73Q513 101 551.5 148.5Q590 196 611 257Q632 318 632 384Q632 431 619 471.5Q606 512 580 541Q568 556 552 567L253 60Q290 45 339 45ZM427 605Q361 605 307 577Q253 549 214.5 501.5Q176 454 155 393Q134 332 134 266Q134 219 147 178.5Q160 138 185 108Q194 98 205 88L502 593Q469 605 427 605Z" glyph-name="Oslash" horiz-adv-x="742" unicode="&#216;" /><glyph d="M329 -15Q272 -15 224 4Q176 23 141.5 59Q107 95 87.5 146Q68 197 68 261Q68 346 100 426Q132 506 190 563Q238 611 301 638Q364 665 437 665Q494 665 542 644.5Q590 624 624.5 588Q659 552 678.5 503.5Q698 455 698 399Q698 309 667 226.5Q636 144 577 87Q527 38 465.5 11.5Q404 -15 329 -15ZM339 45Q405 45 459 73Q513 101 551.5 148.5Q590 196 611 257Q632 318 632 384Q632 431 619 471.5Q606 512 580.5 541.5Q555 571 516.5 588Q478 605 427 605Q361 605 307 577Q253 549 214.5 501.5Q176 454 155 393Q134 332 134 266Q134 219 147 178.5Q160 138 185.5 108.5Q211 79 249.5 62Q288 45 339 45ZM346 715H299Q304 758 330.5 786.5Q357 815 398 815Q421 815 437.5 807.5Q454 800 467 791.5Q480 783 492.5 775.5Q505 768 520 768Q537 768 552 778Q567 788 572 820H619Q614 777 588 748.5Q562 720 520 720Q496 720 480 727.5Q464 735 451 743.5Q438 752 425.5 759.5Q413 767 398 767Q381 767 366 757Q351 747 346 715Z" glyph-name="Otilde" horiz-adv-x="742" unicode="&#213;" /><glyph d="M122 0H60L162 650H395Q436 650 470 638.5Q504 627 529.5 605Q555 583 569 551.5Q583 520 583 479Q583 420 566 368.5Q549 317 514 282Q481 249 437.5 232.5Q394 216 337 216H156ZM215 592 165 274H334Q426 274 472 323.5Q518 373 518 465Q518 524 487 558Q456 592 387 592Z" glyph-name="P" horiz-adv-x="595" unicode="P" /><glyph d="M570 -114H502L425 -2Q382 -15 329 -15Q272 -15 224 4Q176 23 141.5 58Q107 93 87.5 142Q68 191 68 251Q68 343 100 424.5Q132 506 190 563Q238 611 301 638Q364 665 437 665Q494 665 542 644.5Q590 624 624.5 588Q659 552 678.5 503.5Q698 455 698 399Q698 309 667 226.5Q636 144 577 87Q538 48 486 21L570 -103ZM339 45Q405 45 459 73Q513 101 551.5 148.5Q590 196 611 257Q632 318 632 384Q632 431 619 471.5Q606 512 580.5 541.5Q555 571 516.5 588Q478 605 427 605Q361 605 307 577Q253 549 214.5 501.5Q176 454 155 393Q134 332 134 266Q134 219 147 178.5Q160 138 185.5 108.5Q211 79 249.5 62Q288 45 339 45Z" glyph-name="Q" horiz-adv-x="742" unicode="Q" /><glyph d="M499 0H434L286 261H163L122 0H60L162 650H394Q429 650 459 640.5Q489 631 512 611.5Q535 592 548 562.5Q561 533 561 493Q561 432 541.5 389.5Q522 347 496 321Q465 290 427 276.5Q389 263 353 261L499 13ZM215 592 172 319H337Q414 319 454 362Q494 405 494 483Q494 535 466 563.5Q438 592 374 592Z" glyph-name="R" horiz-adv-x="590" unicode="R" /><glyph d="M261 -16Q218 -16 181 -4Q144 8 117.5 31Q91 54 76 88.5Q61 123 61 168Q61 178 61.5 185.5Q62 193 63 198H126Q122 165 129 136Q136 107 154 86Q172 65 200.5 52.5Q229 40 268 40Q303 40 332.5 50.5Q362 61 383.5 79.5Q405 98 417 123Q429 148 429 177Q429 203 423.5 221.5Q418 240 398 261Q377 281 345.5 290.5Q314 300 279.5 308Q245 316 211 328.5Q177 341 151 367Q134 384 122 407.5Q110 431 110 466Q110 506 125 541Q140 576 168 604Q199 635 245 648.5Q291 662 339 662Q380 662 413 651Q446 640 469 620Q492 600 504.5 573Q517 546 517 514Q517 503 516.5 491.5Q516 480 514 475H454Q465 538 431 571.5Q397 605 332 605Q291 605 261.5 593Q232 581 213.5 562.5Q195 544 186 522Q177 500 177 479Q177 455 183 439Q189 423 205 407Q223 389 254.5 379.5Q286 370 321.5 360.5Q357 351 392 338Q427 325 451 301Q471 281 482.5 255Q494 229 494 187Q494 139 476.5 105Q459 71 432 44Q396 8 350 -4Q304 -16 261 -16Z" glyph-name="S" horiz-adv-x="564" unicode="S" /><glyph d="M275 0H213L306 592H103L112 650H570L561 592H368Z" glyph-name="T" horiz-adv-x="556" unicode="T" /><glyph d="M290 -15Q239 -15 197.5 -0.5Q156 14 129 43.5Q102 73 91 118.5Q80 164 90 226L157 650H219L152 221Q137 130 177 86.5Q217 43 299 43Q381 43 435 86.5Q489 130 504 221L571 650H633L565 223Q548 111 479.5 48Q411 -15 290 -15Z" glyph-name="U" horiz-adv-x="664" unicode="U" /><glyph d="M290 -15Q239 -15 197.5 -0.5Q156 14 129 43.5Q102 73 91 118.5Q80 164 90 226L157 650H219L152 221Q137 130 177 86.5Q217 43 299 43Q381 43 435 86.5Q489 130 504 221L571 650H633L565 223Q548 111 479.5 48Q411 -15 290 -15ZM559 809 329 699 312 733 530 870Z" glyph-name="Uacute" horiz-adv-x="664" unicode="&#218;" /><glyph d="M290 -15Q239 -15 197.5 -0.5Q156 14 129 43.5Q102 73 91 118.5Q80 164 90 226L157 650H219L152 221Q137 130 177 86.5Q217 43 299 43Q381 43 435 86.5Q489 130 504 221L571 650H633L565 223Q548 111 479.5 48Q411 -15 290 -15ZM422 773 287 703 268 738 426 842 557 738 532 703Z" glyph-name="Ucircumflex" horiz-adv-x="664" unicode="&#219;" /><glyph d="M290 -15Q239 -15 197.5 -0.5Q156 14 129 43.5Q102 73 91 118.5Q80 164 90 226L157 650H219L152 221Q137 130 177 86.5Q217 43 299 43Q381 43 435 86.5Q489 130 504 221L571 650H633L565 223Q548 111 479.5 48Q411 -15 290 -15ZM324 738Q304 738 292.5 749.5Q281 761 281 779Q281 802 296 817Q305 826 315.5 829.5Q326 833 337 833Q355 833 367.5 822Q380 811 380 792Q380 769 364 753Q356 745 345 741.5Q334 738 324 738ZM488 738Q468 738 456.5 749.5Q445 761 445 779Q445 802 460 817Q469 826 479.5 829.5Q490 833 501 833Q519 833 531.5 822Q544 811 544 792Q544 769 528 753Q520 745 509 741.5Q498 738 488 738Z" glyph-name="Udieresis" horiz-adv-x="664" unicode="&#220;" /><glyph d="M290 -15Q239 -15 197.5 -0.5Q156 14 129 43.5Q102 73 91 118.5Q80 164 90 226L157 650H219L152 221Q137 130 177 86.5Q217 43 299 43Q381 43 435 86.5Q489 130 504 221L571 650H633L565 223Q548 111 479.5 48Q411 -15 290 -15ZM508 733 481 699 293 817 334 870Z" glyph-name="Ugrave" horiz-adv-x="664" unicode="&#217;" /><glyph d="M310 0H264L91 637L93 650H155L299 99H301L620 650H686L684 637Z" glyph-name="V" horiz-adv-x="652" unicode="V" /><glyph d="M244 0H172L85 637L87 650H147L219 83H221L465 650H540L606 83H608L858 650H923L921 637L634 0H560L491 560H489Z" glyph-name="W" horiz-adv-x="884" unicode="W" /><glyph d="M61 0H-7L-5 13L275 353L132 637L134 650H193L317 402L518 650H587L585 637L346 346L525 13L523 0H465L305 298Z" glyph-name="X" horiz-adv-x="607" unicode="X" /><glyph d="M302 0H240L281 260L93 637L95 650H154L317 314L584 650H649L647 637L343 260Z" glyph-name="Y" horiz-adv-x="619" unicode="Y" /><glyph d="M302 0H240L281 260L93 637L95 650H154L317 314L584 650H649L647 637L343 260ZM302 738Q282 738 270.5 749.5Q259 761 259 779Q259 802 274 817Q283 826 293.5 829.5Q304 833 315 833Q333 833 345.5 822Q358 811 358 792Q358 769 342 753Q334 745 323 741.5Q312 738 302 738ZM466 738Q446 738 434.5 749.5Q423 761 423 779Q423 802 438 817Q447 826 457.5 829.5Q468 833 479 833Q497 833 509.5 822Q522 811 522 792Q522 769 506 753Q498 745 487 741.5Q476 738 466 738Z" glyph-name="Ydieresis" horiz-adv-x="619" unicode="&#376;" /><glyph d="M483 0H37L44 50L499 590V592H147L156 650H594L587 601L130 60V58H492Z" glyph-name="Z" horiz-adv-x="594" unicode="Z" /><glyph d="M256 -15Q217 -15 181 -2Q145 11 117.5 37.5Q90 64 73.5 103.5Q57 143 57 196Q57 269 79.5 330.5Q102 392 145 436Q182 474 227.5 494.5Q273 515 332 515Q359 515 383 508Q407 501 427 489.5Q447 478 462.5 463.5Q478 449 487 434H489L520 500H562L483 0H446L436 64H434Q399 22 353 3.5Q307 -15 256 -15ZM269 40Q316 40 353 61.5Q390 83 415.5 118.5Q441 154 455 201Q469 248 469 299Q469 332 460.5 361.5Q452 391 434.5 413Q417 435 390.5 447.5Q364 460 327 460Q278 460 240 439.5Q202 419 175.5 383.5Q149 348 135 301Q121 254 121 201Q121 167 129.5 137.5Q138 108 156 86.5Q174 65 202 52.5Q230 40 269 40Z" glyph-name="a" horiz-adv-x="611" unicode="a" /><glyph d="M256 -15Q217 -15 181 -2Q145 11 117.5 37.5Q90 64 73.5 103.5Q57 143 57 196Q57 269 79.5 330.5Q102 392 145 436Q182 474 227.5 494.5Q273 515 332 515Q359 515 383 508Q407 501 427 489.5Q447 478 462.5 463.5Q478 449 487 434H489L520 500H562L483 0H446L436 64H434Q399 22 353 3.5Q307 -15 256 -15ZM269 40Q316 40 353 61.5Q390 83 415.5 118.5Q441 154 455 201Q469 248 469 299Q469 332 460.5 361.5Q452 391 434.5 413Q417 435 390.5 447.5Q364 460 327 460Q278 460 240 439.5Q202 419 175.5 383.5Q149 348 135 301Q121 254 121 201Q121 167 129.5 137.5Q138 108 156 86.5Q174 65 202 52.5Q230 40 269 40ZM451 659 221 549 204 583 422 720Z" glyph-name="aacute" horiz-adv-x="611" unicode="&#225;" /><glyph d="M256 -15Q217 -15 181 -2Q145 11 117.5 37.5Q90 64 73.5 103.5Q57 143 57 196Q57 269 79.5 330.5Q102 392 145 436Q182 474 227.5 494.5Q273 515 332 515Q359 515 383 508Q407 501 427 489.5Q447 478 462.5 463.5Q478 449 487 434H489L520 500H562L483 0H446L436 64H434Q399 22 353 3.5Q307 -15 256 -15ZM269 40Q316 40 353 61.5Q390 83 415.5 118.5Q441 154 455 201Q469 248 469 299Q469 332 460.5 361.5Q452 391 434.5 413Q417 435 390.5 447.5Q364 460 327 460Q278 460 240 439.5Q202 419 175.5 383.5Q149 348 135 301Q121 254 121 201Q121 167 129.5 137.5Q138 108 156 86.5Q174 65 202 52.5Q230 40 269 40ZM343 623 208 553 189 588 347 692 478 588 453 553Z" glyph-name="acircumflex" horiz-adv-x="611" unicode="&#226;" /><glyph d="M445 659 215 549 198 583 416 720Z" glyph-name="acute" horiz-adv-x="500" unicode="&#180;" /><glyph d="M256 -15Q217 -15 181 -2Q145 11 117.5 37.5Q90 64 73.5 103.5Q57 143 57 196Q57 269 79.5 330.5Q102 392 145 436Q182 474 227.5 494.5Q273 515 332 515Q359 515 383 508Q407 501 427 489.5Q447 478 462.5 463.5Q478 449 487 434H489L520 500H562L483 0H446L436 64H434Q399 22 353 3.5Q307 -15 256 -15ZM269 40Q316 40 353 61.5Q390 83 415.5 118.5Q441 154 455 201Q469 248 469 299Q469 332 460.5 361.5Q452 391 434.5 413Q417 435 390.5 447.5Q364 460 327 460Q278 460 240 439.5Q202 419 175.5 383.5Q149 348 135 301Q121 254 121 201Q121 167 129.5 137.5Q138 108 156 86.5Q174 65 202 52.5Q230 40 269 40ZM255 558Q235 558 223.5 569.5Q212 581 212 599Q212 622 227 637Q236 646 246.5 649.5Q257 653 268 653Q286 653 298.5 642Q311 631 311 612Q311 589 295 573Q287 565 276 561.5Q265 558 255 558ZM419 558Q399 558 387.5 569.5Q376 581 376 599Q376 622 391 637Q400 646 410.5 649.5Q421 653 432 653Q450 653 462.5 642Q475 631 475 612Q475 589 459 573Q451 565 440 561.5Q429 558 419 558Z" glyph-name="adieresis" horiz-adv-x="611" unicode="&#228;" /><glyph d="M188 -15Q121 -15 77.5 20.5Q34 56 34 122Q34 155 47 186.5Q60 218 85 243Q116 274 163 290Q210 306 257 306Q331 306 382 286L385 308Q391 342 389.5 373.5Q388 405 371 426Q357 442 337 451Q317 460 284 460Q242 460 206.5 440.5Q171 421 155 368H96L97 374Q108 413 128 439.5Q148 466 175 483Q202 500 233 507.5Q264 515 296 515Q350 515 389 489Q428 463 441 414Q473 462 521.5 488.5Q570 515 634 515Q680 515 712.5 499Q745 483 765.5 456Q786 429 795.5 393.5Q805 358 805 319Q805 303 803.5 287.5Q802 272 800 255Q799 250 798 245.5Q797 241 795 233H435Q433 221 433 211V196Q433 127 463.5 84Q494 41 560 41Q613 41 650.5 66.5Q688 92 707 135H768Q759 112 745 89Q731 66 715 50Q650 -15 552 -15Q492 -15 449.5 15Q407 45 389 100Q371 68 347.5 46Q324 24 297.5 10.5Q271 -3 243 -9Q215 -15 188 -15ZM200 41Q229 41 256 50.5Q283 60 305.5 78Q328 96 344 123Q360 150 366 186L373 232Q344 243 315.5 248Q287 253 257 253Q223 253 194 244Q165 235 143.5 219Q122 203 109.5 180.5Q97 158 97 130Q97 84 126 62.5Q155 41 200 41ZM743 287Q745 299 745 308V323Q745 349 739.5 374Q734 399 720.5 418Q707 437 684.5 448.5Q662 460 628 460Q557 460 511.5 415Q466 370 445 287Z" glyph-name="ae" horiz-adv-x="862" unicode="&#230;" /><glyph d="M256 -15Q217 -15 181 -2Q145 11 117.5 37.5Q90 64 73.5 103.5Q57 143 57 196Q57 269 79.5 330.5Q102 392 145 436Q182 474 227.5 494.5Q273 515 332 515Q359 515 383 508Q407 501 427 489.5Q447 478 462.5 463.5Q478 449 487 434H489L520 500H562L483 0H446L436 64H434Q399 22 353 3.5Q307 -15 256 -15ZM269 40Q316 40 353 61.5Q390 83 415.5 118.5Q441 154 455 201Q469 248 469 299Q469 332 460.5 361.5Q452 391 434.5 413Q417 435 390.5 447.5Q364 460 327 460Q278 460 240 439.5Q202 419 175.5 383.5Q149 348 135 301Q121 254 121 201Q121 167 129.5 137.5Q138 108 156 86.5Q174 65 202 52.5Q230 40 269 40ZM430 583 403 549 215 667 256 720Z" glyph-name="agrave" horiz-adv-x="611" unicode="&#224;" /><glyph d="M270 392Q272 393 273.5 393.5Q275 394 277 395Q349 431 394 470Q439 509 439 564Q439 601 419.5 619.5Q400 638 366 638Q344 638 323.5 628Q303 618 287 599Q271 580 262 551.5Q253 523 253 486Q253 440 270 392ZM422 81Q367 132 319.5 190.5Q272 249 240 310Q215 296 193 280.5Q171 265 154.5 246Q138 227 128.5 204Q119 181 119 152Q119 124 131 103Q143 82 164 68Q185 54 213.5 47.5Q242 41 275 41Q359 41 422 81ZM262 -15Q217 -15 179.5 -4.5Q142 6 115 27Q88 48 72.5 78.5Q57 109 57 148Q57 185 69 216Q81 247 102.5 273Q124 299 153 321Q182 343 216 363Q205 393 198.5 423Q192 453 192 482Q192 588 254 650Q274 670 306 682Q338 694 369 694Q430 694 464.5 660Q499 626 499 570Q499 533 485.5 502Q472 471 446.5 444Q421 417 384 392.5Q347 368 299 342L293 339Q322 280 368 224.5Q414 169 469 120Q496 150 511 188.5Q526 227 526 273Q526 299 521 322Q516 345 508 364L511 379H564Q573 359 578.5 332.5Q584 306 584 275Q584 221 565 172Q546 123 511 84Q533 67 555 51Q577 35 599 21L596 6L538 -10Q520 2 502 15.5Q484 29 466 43Q424 14 371.5 -0.5Q319 -15 262 -15Z" glyph-name="ampersand" horiz-adv-x="679" unicode="&amp;" /><glyph d="M428 190Q398 190 368 195Q338 200 308 205.5Q278 211 248 216Q218 221 187 221Q158 221 129.5 215Q101 209 71 193Q69 193 67 192Q65 191 63 191L71 244Q109 265 139 271.5Q169 278 195 278Q226 278 256 273Q286 268 316 262Q346 256 375.5 251Q405 246 436 246Q465 246 496 253.5Q527 261 561 280Q563 280 564.5 280.5Q566 281 568 281L560 228Q522 205 489 197.5Q456 190 428 190ZM452 345Q422 345 392 350Q362 355 332 360.5Q302 366 272 371Q242 376 211 376Q182 376 154 370Q126 364 95 347Q93 347 91 346.5Q89 346 87 346L96 398Q133 419 163 425.5Q193 432 219 432Q250 432 280 427Q310 422 340 416Q370 410 400 405Q430 400 461 400Q490 400 520.5 407.5Q551 415 585 434Q587 434 588.5 434.5Q590 435 592 435L584 383Q546 359 513 352Q480 345 452 345Z" glyph-name="approxequal" horiz-adv-x="635" unicode="&#8776;" /><glyph d="M256 -15Q217 -15 181 -2Q145 11 117.5 37.5Q90 64 73.5 103.5Q57 143 57 196Q57 269 79.5 330.5Q102 392 145 436Q182 474 227 494Q249 504 274 509Q252 531 252 568Q252 591 260.5 609Q269 627 283 640Q297 653 314.5 659.5Q332 666 350 666Q391 666 413 644Q435 622 435 586Q435 565 427 547Q419 529 405 515Q400 510 393 505Q411 498 427 489Q447 478 462.5 463.5Q478 449 487 434H489L520 500H562L483 0H446L436 64H434Q399 22 353 3.5Q307 -15 256 -15ZM269 40Q316 40 353 61.5Q390 83 415.5 118.5Q441 154 455 201Q469 248 469 299Q469 332 460.5 361.5Q452 391 434.5 413Q417 435 390.5 447.5Q364 460 327 460Q278 460 240 439.5Q202 419 175.5 383.5Q149 348 135 301Q121 254 121 201Q121 167 129.5 137.5Q138 108 156 86.5Q174 65 202 52.5Q230 40 269 40ZM335 529Q357 529 372.5 546Q388 563 388 586Q388 603 377.5 614Q367 625 350 625Q329 625 313.5 608Q298 591 298 568Q298 551 308 540Q318 529 335 529Z" glyph-name="aring" horiz-adv-x="611" unicode="&#229;" /><glyph d="M119 401H51L228 650H291L395 401H333L253 592Z" glyph-name="asciicircum" horiz-adv-x="398" unicode="^" /><glyph d="M81 244 91 304Q111 320 139 327.5Q167 335 194 335Q216 335 237 330Q258 325 277.5 318.5Q297 312 316 307Q335 302 353 302Q413 302 455 336L445 276Q426 260 400.5 253Q375 246 345 246Q327 246 309.5 250.5Q292 255 272.5 261Q253 267 232 271.5Q211 276 185 276Q163 276 136 267.5Q109 259 81 244Z" glyph-name="asciitilde" horiz-adv-x="523" unicode="~" /><glyph d="M252 545 198 460 151 499 224 565 137 589 167 644 241 603 243 695H309L280 601L371 644L384 583L287 568L341 497L286 460Z" glyph-name="asterisk" horiz-adv-x="412" unicode="*" /><glyph d="M380 -71Q308 -71 250 -51Q192 -31 150.5 6Q109 43 86.5 95.5Q64 148 64 212Q64 293 95.5 365Q127 437 181 491Q235 545 307.5 576Q380 607 462 607Q526 607 577.5 586.5Q629 566 665.5 530Q702 494 721.5 445.5Q741 397 741 342Q741 294 729 251Q717 208 693.5 175.5Q670 143 636.5 123.5Q603 104 559 104Q523 104 502.5 121.5Q482 139 477 163Q454 128 413.5 108.5Q373 89 334 89Q306 89 285 99Q264 109 250 126Q236 143 228.5 165Q221 187 221 212Q221 257 239.5 300Q258 343 288.5 376Q319 409 359.5 429.5Q400 450 444 450Q481 450 500.5 435.5Q520 421 530 401H532L557 440H595L531 236Q519 198 526 173Q533 148 571 148Q601 148 624 164Q647 180 662.5 207Q678 234 685.5 269Q693 304 693 341Q693 398 672 439.5Q651 481 617.5 507.5Q584 534 541 547Q498 560 454 560Q385 560 323.5 532Q262 504 216 457Q170 410 143 347Q116 284 116 214Q116 157 136.5 113Q157 69 193 38.5Q229 8 278.5 -7.5Q328 -23 386 -23Q439 -23 480.5 -12.5Q522 -2 563 18H576L569 -26Q530 -47 486 -59Q442 -71 380 -71ZM349 134Q382 134 409.5 153Q437 172 457.5 200.5Q478 229 489 263.5Q500 298 500 329Q500 361 484.5 383Q469 405 428 405Q396 405 368 387Q340 369 319 341Q298 313 286 279Q274 245 274 213Q274 179 292 156.5Q310 134 349 134Z" glyph-name="at" horiz-adv-x="789" unicode="@" /><glyph d="M256 -15Q217 -15 181 -2Q145 11 117.5 37.5Q90 64 73.5 103.5Q57 143 57 196Q57 269 79.5 330.5Q102 392 145 436Q182 474 227.5 494.5Q273 515 332 515Q359 515 383 508Q407 501 427 489.5Q447 478 462.5 463.5Q478 449 487 434H489L520 500H562L483 0H446L436 64H434Q399 22 353 3.5Q307 -15 256 -15ZM269 40Q316 40 353 61.5Q390 83 415.5 118.5Q441 154 455 201Q469 248 469 299Q469 332 460.5 361.5Q452 391 434.5 413Q417 435 390.5 447.5Q364 460 327 460Q278 460 240 439.5Q202 419 175.5 383.5Q149 348 135 301Q121 254 121 201Q121 167 129.5 137.5Q138 108 156 86.5Q174 65 202 52.5Q230 40 269 40ZM223 565H176Q181 608 207.5 636.5Q234 665 275 665Q298 665 314.5 657.5Q331 650 344 641.5Q357 633 369.5 625.5Q382 618 397 618Q414 618 429 628Q444 638 449 670H496Q491 627 465 598.5Q439 570 397 570Q373 570 357 577.5Q341 585 328 593.5Q315 602 302.5 609.5Q290 617 275 617Q258 617 243 607Q228 597 223 565Z" glyph-name="atilde" horiz-adv-x="611" unicode="&#227;" /><glyph d="M285 -15Q257 -15 232 -8Q207 -1 186 10.5Q165 22 149 36.5Q133 51 124 66H122L92 0H50L160 700H220L180 444H182Q220 485 270 500Q320 515 365 515Q404 515 440.5 502Q477 489 505.5 462.5Q534 436 551 396.5Q568 357 568 304Q568 231 546 169.5Q524 108 481 64Q443 26 394.5 5.5Q346 -15 285 -15ZM290 40Q341 40 380.5 60.5Q420 81 447.5 116.5Q475 152 489.5 199Q504 246 504 299Q504 333 495.5 362.5Q487 392 468 413.5Q449 435 420 447.5Q391 460 350 460Q302 460 263.5 438.5Q225 417 198 381.5Q171 346 156.5 299Q142 252 142 201Q142 168 151 138.5Q160 109 178 87Q196 65 224 52.5Q252 40 290 40Z" glyph-name="b" horiz-adv-x="625" unicode="b" /><glyph d="M414 -124H364L156 682L158 696H208L416 -110Z" glyph-name="backslash" horiz-adv-x="531" unicode="\" /><glyph d="M226 -126H170L312 774H368Z" glyph-name="bar" horiz-adv-x="514" unicode="|" /><glyph d="M233 -124H183Q147 -124 125.5 -104.5Q104 -85 104 -46Q104 -40 104.5 -33.5Q105 -27 106 -20L132 139Q134 154 135.5 167.5Q137 181 137 193Q137 224 125.5 245Q114 266 82 281L84 292Q109 303 125 316Q141 329 151.5 346.5Q162 364 168 386Q174 408 178 435L203 592Q211 644 236 670Q261 696 311 696H363L354 642H311Q295 642 285.5 636Q276 630 270.5 620.5Q265 611 262.5 598.5Q260 586 258 572L234 415Q229 382 221.5 360Q214 338 204.5 323Q195 308 184 298.5Q173 289 160 282V281Q176 270 186.5 254Q197 238 197 203Q197 192 195.5 178.5Q194 165 192 149L168 0Q166 -10 165 -19.5Q164 -29 164 -37Q164 -51 170.5 -60.5Q177 -70 200 -70H241Z" glyph-name="braceleft" horiz-adv-x="390" unicode="{" /><glyph d="M169 696H219Q255 696 276.5 676.5Q298 657 298 618Q298 612 297.5 605.5Q297 599 296 592L270 433Q268 418 266.5 404.5Q265 391 265 379Q265 348 276.5 327Q288 306 320 291L318 280Q293 270 277 256.5Q261 243 250.5 225.5Q240 208 234 186Q228 164 224 137L199 -20Q191 -72 166 -98Q141 -124 91 -124H39L48 -70H91Q107 -70 116.5 -64Q126 -58 131.5 -48.5Q137 -39 139.5 -26.5Q142 -14 144 0L168 157Q173 190 180.5 212Q188 234 197.5 249Q207 264 218 273.5Q229 283 242 290V291Q226 302 215.5 318Q205 334 205 369Q205 380 206.5 393.5Q208 407 210 423L234 572Q236 582 237 591.5Q238 601 238 609Q238 623 231.5 632.5Q225 642 202 642H161Z" glyph-name="braceright" horiz-adv-x="390" unicode="}" /><glyph d="M183 -124H39L169 696H312L303 642H218L105 -70H191Z" glyph-name="bracketleft" horiz-adv-x="325" unicode="[" /><glyph d="M154 696H298L168 -124H25L34 -70H119L232 642H146Z" glyph-name="bracketright" horiz-adv-x="325" unicode="]" /><glyph d="M306 559Q248 559 212.5 586.5Q177 614 178 663H233Q236 632 258 618Q280 604 310 604Q340 604 366.5 618Q393 632 407 663H466Q452 614 408 586.5Q364 559 306 559Z" glyph-name="breve" horiz-adv-x="500" unicode="&#728;" /><glyph d="M244 195Q202 195 173 222Q144 249 143 291V295Q143 340 172.5 364.5Q202 389 244 389Q286 389 314.5 364.5Q343 340 343 295V291Q344 249 315 222Q286 195 244 195Z" glyph-name="bullet" horiz-adv-x="476" unicode="&#8226;" /><glyph d="M255 -15Q212 -15 175.5 -1.5Q139 12 113 38Q87 64 72 101.5Q57 139 57 186Q57 261 79.5 326.5Q102 392 147 437Q184 474 232 494.5Q280 515 338 515Q377 515 410.5 504.5Q444 494 469 472.5Q494 451 508.5 419Q523 387 524 344L523 338H465Q461 403 428.5 431Q396 459 330 459Q280 459 241 437.5Q202 416 175.5 379.5Q149 343 135 295.5Q121 248 121 197Q121 127 155 84Q189 41 263 41Q331 41 375 74.5Q419 108 437 165H496L495 159Q477 95 434 52Q399 17 353 1Q307 -15 255 -15Z" glyph-name="c" horiz-adv-x="556" unicode="c" /><glyph d="M465 657 306 553 176 657 200 688 313 622 448 692Z" glyph-name="caron" horiz-adv-x="500" unicode="&#711;" /><glyph d="M203 -180Q176 -180 157 -177Q138 -174 124 -168L131 -122H141Q157 -128 173.5 -130Q190 -132 199 -132Q226 -132 242 -124Q258 -116 258 -99Q258 -85 246.5 -79Q235 -73 216 -74L214 -68L243 -15Q207 -13 175 -1Q139 12 113 38Q87 64 72 101.5Q57 139 57 186Q57 261 79.5 326.5Q102 392 147 437Q184 474 232 494.5Q280 515 338 515Q377 515 410.5 504.5Q444 494 469 472.5Q494 451 508.5 419Q523 387 524 344L523 338H465Q461 403 428.5 431Q396 459 330 459Q280 459 241 437.5Q202 416 175.5 379.5Q149 343 135 295.5Q121 248 121 197Q121 127 155 84Q189 41 263 41Q331 41 375 74.5Q419 108 437 165H496L495 159Q477 95 434 52Q399 17 353 1Q325 -9 294 -12L276 -47Q291 -52 304 -65.5Q317 -79 317 -99Q317 -119 307 -134Q297 -149 280.5 -159Q264 -169 243.5 -174.5Q223 -180 203 -180Z" glyph-name="ccedilla" horiz-adv-x="556" unicode="&#231;" /><glyph d="M137 -180Q110 -180 91 -177Q72 -174 58 -168L65 -122H75Q91 -128 107.5 -130Q124 -132 133 -132Q160 -132 176 -124Q192 -116 192 -99Q192 -85 180.5 -79Q169 -73 150 -74L148 -68L186 0H235L210 -47Q225 -52 238 -65.5Q251 -79 251 -99Q251 -119 241 -134Q231 -149 214.5 -159Q198 -169 177.5 -174.5Q157 -180 137 -180Z" glyph-name="cedilla" horiz-adv-x="500" unicode="&#184;" /><glyph d="M262 -126H201L219 -12Q196 -9 175 -1Q139 12 113 38Q87 64 72 101.5Q57 139 57 186Q57 261 79.5 326.5Q102 392 147 437Q184 474 232 494Q265 508 302 513L321 635H382L363 514Q388 511 410 504Q444 494 469 472.5Q494 451 508.5 419Q523 387 524 344L523 338H465Q461 403 428 431Q402 453 354 458L288 42Q339 47 375 74Q419 108 437 165H496L495 159Q477 95 434 52Q399 17 353 1Q318 -11 279 -14ZM241 437Q202 416 175.5 379.5Q149 343 135 295.5Q121 248 121 197Q121 127 155 84Q180 52 228 43L293 456Q265 450 241 437Z" glyph-name="cent" horiz-adv-x="556" unicode="&#162;" /><glyph d="M319 623 184 553 165 588 323 692 454 588 429 553Z" glyph-name="circumflex" horiz-adv-x="500" unicode="&#710;" /><glyph d="M168 368Q148 368 136.5 379.5Q125 391 125 409Q125 432 140 447Q149 456 159.5 459.5Q170 463 181 463Q199 463 211.5 452Q224 441 224 422Q224 399 208 383Q200 375 189 371.5Q178 368 168 368ZM109 -6Q89 -6 77.5 5.5Q66 17 66 35Q66 58 81 73Q90 82 100.5 85.5Q111 89 122 89Q140 89 152.5 78Q165 67 165 48Q165 25 149 9Q141 1 130 -2.5Q119 -6 109 -6Z" glyph-name="colon" horiz-adv-x="296" unicode=":" /><glyph d="M69 -127H22L104 89H177L175 78Z" glyph-name="comma" horiz-adv-x="252" unicode="," /><glyph d="M404 -12Q332 -12 271.5 14.5Q211 41 167.5 87Q124 133 99.5 195Q75 257 75 327Q75 397 99.5 459Q124 521 167.5 567Q211 613 271.5 639.5Q332 666 404 666Q476 666 537 639.5Q598 613 641.5 567Q685 521 709.5 459Q734 397 734 327Q734 257 709.5 195Q685 133 641.5 87Q598 41 537 14.5Q476 -12 404 -12ZM404 34Q465 34 516.5 57Q568 80 605 120Q642 160 663 213.5Q684 267 684 327Q684 387 663 440.5Q642 494 605 534Q568 574 516.5 597Q465 620 404 620Q343 620 291.5 597Q240 574 203 534Q166 494 145.5 440.5Q125 387 125 327Q125 267 145.5 213.5Q166 160 203 120Q240 80 291.5 57Q343 34 404 34ZM407 140Q372 140 341 153.5Q310 167 287 191Q264 215 250.5 248Q237 281 237 321V334Q237 374 250.5 407Q264 440 287 464Q310 488 341 501.5Q372 515 407 515Q440 515 468 504Q496 493 517.5 474Q539 455 553 429Q567 403 570 373V368H521Q516 407 488.5 437.5Q461 468 411 468Q381 468 358 457Q335 446 319 426.5Q303 407 295 382Q287 357 287 328Q287 300 295 274Q303 248 318.5 229Q334 210 357.5 198.5Q381 187 411 187Q461 187 488.5 217.5Q516 248 521 287H570V281Q566 251 552.5 225Q539 199 517.5 180.5Q496 162 468 151Q440 140 407 140Z" glyph-name="copyright" horiz-adv-x="785" unicode="&#169;" /><glyph d="M264 -15Q224 -15 186.5 -2Q149 11 120 37Q91 63 74 102Q57 141 57 194Q57 267 79 329.5Q101 392 144 436Q182 474 230.5 494.5Q279 515 340 515Q368 515 393.5 508Q419 501 440 489Q461 477 477.5 462.5Q494 448 503 433H505L547 700H607L497 0H460L450 64H448Q412 22 364.5 3.5Q317 -15 264 -15ZM277 40Q325 40 363 61.5Q401 83 428 118.5Q455 154 469 201Q483 248 483 299Q483 332 474 361.5Q465 391 447 413Q429 435 401 447.5Q373 460 335 460Q284 460 244.5 439.5Q205 419 177.5 383.5Q150 348 135.5 301Q121 254 121 201Q121 167 130 137.5Q139 108 158 86.5Q177 65 206.5 52.5Q236 40 277 40Z" glyph-name="d" horiz-adv-x="625" unicode="d" /><glyph d="M198 -78H146L219 392H96L103 439H227L268 700H320L279 439H403L396 392H272Z" glyph-name="dagger" horiz-adv-x="446" unicode="&#8224;" /><glyph d="M196 -78H144L189 207H66L73 253H196L218 392H94L102 439H225L266 700H319L277 439H401L394 392H270L248 253H373L365 207H241Z" glyph-name="daggerdbl" horiz-adv-x="446" unicode="&#8225;" /><glyph d="M243 349Q218 349 194 357Q170 365 151.5 381Q133 397 122 420Q111 443 111 474Q111 555 163 607Q213 657 292 657Q319 657 343 649Q367 641 385 625.5Q403 610 413.5 586.5Q424 563 424 533Q424 495 410 460.5Q396 426 371 401Q345 375 312 362Q279 349 243 349ZM251 403Q274 403 294 413Q314 423 328 440Q342 457 350 479.5Q358 502 358 527Q358 565 338 584Q318 603 283 603Q260 603 240.5 593Q221 583 207 566.5Q193 550 185 528Q177 506 177 482Q177 443 198.5 423Q220 403 251 403Z" glyph-name="degree" horiz-adv-x="455" unicode="&#176;" /><glyph d="M396 568Q376 568 364.5 579.5Q353 591 353 609Q353 632 368 647Q377 656 387.5 659.5Q398 663 409 663Q427 663 439.5 652Q452 641 452 622Q452 599 436 583Q428 575 417 571.5Q406 568 396 568ZM232 568Q212 568 200.5 579.5Q189 591 189 609Q189 632 204 647Q213 656 223.5 659.5Q234 663 245 663Q263 663 275.5 652Q288 641 288 622Q288 599 272 583Q264 575 253 571.5Q242 568 232 568Z" glyph-name="dieresis" horiz-adv-x="500" unicode="&#168;" /><glyph d="M551 301H60L69 356H560ZM280 140Q262 140 250 153Q238 166 238 183Q238 204 254.5 218.5Q271 233 294 233Q313 233 325 220Q337 207 337 190Q337 169 320 154.5Q303 140 280 140ZM325 425Q305 425 293 437.5Q281 450 281 467Q281 489 298.5 503Q316 517 339 517Q357 517 369 504.5Q381 492 381 475Q381 454 364.5 439.5Q348 425 325 425Z" glyph-name="divide" horiz-adv-x="595" unicode="&#247;" /><glyph d="M249 -113H188L207 9Q190 12 174 17Q140 28 115 50Q90 72 76 104.5Q62 137 62 179Q62 188 62.5 195Q63 202 64 207H123Q119 176 126 149Q133 122 150 102Q167 82 194 70Q204 66 216 63L255 313Q229 320 203 330Q171 342 147 366Q130 383 119 404.5Q108 426 108 460Q108 497 122.5 530Q137 563 163 589Q192 618 235 631Q271 641 307 643L320 723H381L368 640Q415 632 446 604Q491 565 491 505Q491 494 490.5 483.5Q490 473 488 468H432Q442 527 410 558Q390 578 359 585L323 356Q348 348 373 339Q406 327 429 304Q448 285 458.5 261Q469 237 469 197Q469 152 453 120Q437 88 411 62Q377 28 334 17Q300 8 268 6ZM317 69Q345 79 365 96Q385 113 396.5 136.5Q408 160 408 188Q408 212 403.5 229.5Q399 247 379 267Q360 285 330 294L314 299L276 59Q298 62 317 69ZM251 578Q224 567 206 550Q188 533 179.5 512Q171 491 171 472Q171 449 177 434Q183 419 198 404Q215 387 244 378L264 372L299 589Q272 587 251 578Z" glyph-name="dollar" horiz-adv-x="538" unicode="$" /><glyph d="M304 564Q284 564 272.5 575.5Q261 587 261 605Q261 628 276 643Q285 652 295.5 655.5Q306 659 317 659Q335 659 347.5 648Q360 637 360 618Q360 595 344 579Q336 571 325 567.5Q314 564 304 564Z" glyph-name="dotaccent" horiz-adv-x="500" unicode="&#729;" /><glyph d="M107 0H47L126 500H186Z" glyph-name="dotlessi" horiz-adv-x="232" unicode="&#305;" /><glyph d="M255 -15Q212 -15 176 -1.5Q140 12 113.5 38Q87 64 72 101.5Q57 139 57 187Q57 265 80.5 332Q104 399 145 440Q186 479 229.5 497Q273 515 330 515Q380 515 416.5 498.5Q453 482 476.5 454.5Q500 427 511 391Q522 355 522 316Q522 297 519.5 273.5Q517 250 512 233H121Q120 225 120 216V199Q120 165 127.5 136Q135 107 152 86Q169 65 196.5 53Q224 41 263 41Q321 41 361.5 66Q402 91 424 135H485Q477 111 463.5 89.5Q450 68 433 51Q399 18 353 1.5Q307 -15 255 -15ZM460 287Q462 317 458 348Q454 379 440 403.5Q426 428 399.5 444Q373 460 329 460Q249 460 198.5 411.5Q148 363 131 287Z" glyph-name="e" horiz-adv-x="579" unicode="e" /><glyph d="M255 -15Q212 -15 176 -1.5Q140 12 113.5 38Q87 64 72 101.5Q57 139 57 187Q57 265 80.5 332Q104 399 145 440Q186 479 229.5 497Q273 515 330 515Q380 515 416.5 498.5Q453 482 476.5 454.5Q500 427 511 391Q522 355 522 316Q522 297 519.5 273.5Q517 250 512 233H121Q120 225 120 216V199Q120 165 127.5 136Q135 107 152 86Q169 65 196.5 53Q224 41 263 41Q321 41 361.5 66Q402 91 424 135H485Q477 111 463.5 89.5Q450 68 433 51Q399 18 353 1.5Q307 -15 255 -15ZM460 287Q462 317 458 348Q454 379 440 403.5Q426 428 399.5 444Q373 460 329 460Q249 460 198.5 411.5Q148 363 131 287ZM486 659 256 549 239 583 457 720Z" glyph-name="eacute" horiz-adv-x="579" unicode="&#233;" /><glyph d="M255 -15Q212 -15 176 -1.5Q140 12 113.5 38Q87 64 72 101.5Q57 139 57 187Q57 265 80.5 332Q104 399 145 440Q186 479 229.5 497Q273 515 330 515Q380 515 416.5 498.5Q453 482 476.5 454.5Q500 427 511 391Q522 355 522 316Q522 297 519.5 273.5Q517 250 512 233H121Q120 225 120 216V199Q120 165 127.5 136Q135 107 152 86Q169 65 196.5 53Q224 41 263 41Q321 41 361.5 66Q402 91 424 135H485Q477 111 463.5 89.5Q450 68 433 51Q399 18 353 1.5Q307 -15 255 -15ZM460 287Q462 317 458 348Q454 379 440 403.5Q426 428 399.5 444Q373 460 329 460Q249 460 198.5 411.5Q148 363 131 287ZM348 623 213 553 194 588 352 692 483 588 458 553Z" glyph-name="ecircumflex" horiz-adv-x="579" unicode="&#234;" /><glyph d="M255 -15Q212 -15 176 -1.5Q140 12 113.5 38Q87 64 72 101.5Q57 139 57 187Q57 265 80.5 332Q104 399 145 440Q186 479 229.5 497Q273 515 330 515Q380 515 416.5 498.5Q453 482 476.5 454.5Q500 427 511 391Q522 355 522 316Q522 297 519.5 273.5Q517 250 512 233H121Q120 225 120 216V199Q120 165 127.5 136Q135 107 152 86Q169 65 196.5 53Q224 41 263 41Q321 41 361.5 66Q402 91 424 135H485Q477 111 463.5 89.5Q450 68 433 51Q399 18 353 1.5Q307 -15 255 -15ZM460 287Q462 317 458 348Q454 379 440 403.5Q426 428 399.5 444Q373 460 329 460Q249 460 198.5 411.5Q148 363 131 287ZM262 558Q242 558 230.5 569.5Q219 581 219 599Q219 622 234 637Q243 646 253.5 649.5Q264 653 275 653Q293 653 305.5 642Q318 631 318 612Q318 589 302 573Q294 565 283 561.5Q272 558 262 558ZM426 558Q406 558 394.5 569.5Q383 581 383 599Q383 622 398 637Q407 646 417.5 649.5Q428 653 439 653Q457 653 469.5 642Q482 631 482 612Q482 589 466 573Q458 565 447 561.5Q436 558 426 558Z" glyph-name="edieresis" horiz-adv-x="579" unicode="&#235;" /><glyph d="M255 -15Q212 -15 176 -1.5Q140 12 113.5 38Q87 64 72 101.5Q57 139 57 187Q57 265 80.5 332Q104 399 145 440Q186 479 229.5 497Q273 515 330 515Q380 515 416.5 498.5Q453 482 476.5 454.5Q500 427 511 391Q522 355 522 316Q522 297 519.5 273.5Q517 250 512 233H121Q120 225 120 216V199Q120 165 127.5 136Q135 107 152 86Q169 65 196.5 53Q224 41 263 41Q321 41 361.5 66Q402 91 424 135H485Q477 111 463.5 89.5Q450 68 433 51Q399 18 353 1.5Q307 -15 255 -15ZM460 287Q462 317 458 348Q454 379 440 403.5Q426 428 399.5 444Q373 460 329 460Q249 460 198.5 411.5Q148 363 131 287ZM465 583 438 549 250 667 291 720Z" glyph-name="egrave" horiz-adv-x="579" unicode="&#232;" /><glyph d="M247 -16Q204 -16 167 -6.5Q130 3 104 23Q78 43 63 73Q48 103 48 145Q48 177 59 207Q70 237 89.5 262Q109 287 135 306Q161 325 192 335L193 337Q161 356 141.5 391Q122 426 122 465Q122 506 137.5 540.5Q153 575 180 602Q210 632 251 648.5Q292 665 338 665Q418 665 467.5 623.5Q517 582 517 505Q517 448 485 401.5Q453 355 401 332L400 330Q438 312 464 275.5Q490 239 490 194Q490 145 471.5 106Q453 67 421 40Q389 13 344.5 -1.5Q300 -16 247 -16ZM249 41Q287 41 319 51.5Q351 62 374.5 81.5Q398 101 411.5 128Q425 155 425 188Q425 241 387.5 269.5Q350 298 289 298Q251 298 219 286.5Q187 275 163.5 254.5Q140 234 126.5 206Q113 178 113 145Q113 97 149.5 69Q186 41 249 41ZM300 361Q335 361 363.5 373Q392 385 412 404.5Q432 424 442.5 450.5Q453 477 453 505Q453 550 424 580Q395 610 340 610Q307 610 278.5 598Q250 586 229.5 566Q209 546 197 520Q185 494 185 465Q185 445 192.5 426.5Q200 408 214.5 393.5Q229 379 250.5 370Q272 361 300 361Z" glyph-name="eight" horiz-adv-x="564" unicode="8" /><glyph d="M109 -6Q89 -6 77.5 5.5Q66 17 66 35Q66 58 81 73Q90 82 100.5 85.5Q111 89 122 89Q140 89 152.5 78Q165 67 165 48Q165 25 149 9Q141 1 130 -2.5Q119 -6 109 -6ZM406 -6Q386 -6 374.5 5.5Q363 17 363 35Q363 58 378 73Q387 82 397.5 85.5Q408 89 419 89Q437 89 449.5 78Q462 67 462 48Q462 25 446 9Q438 1 427 -2.5Q416 -6 406 -6ZM703 -6Q683 -6 671.5 5.5Q660 17 660 35Q660 58 675 73Q684 82 694.5 85.5Q705 89 716 89Q734 89 746.5 78Q759 67 759 48Q759 25 743 9Q735 1 724 -2.5Q713 -6 703 -6Z" glyph-name="ellipsis" horiz-adv-x="890" unicode="&#8230;" /><glyph d="M609 265H84L94 323H619Z" glyph-name="emdash" horiz-adv-x="689" unicode="&#8212;" /><glyph d="M439 265H84L94 323H449Z" glyph-name="endash" horiz-adv-x="519" unicode="&#8211;" /><glyph d="M560 222H68L77 278H569ZM584 376H92L101 431H593Z" glyph-name="equal" horiz-adv-x="636" unicode="=" /><glyph d="M162 186H113L174 637L176 650H245L243 637ZM109 -6Q89 -6 77.5 5.5Q66 17 66 35Q66 58 81 73Q90 82 100.5 85.5Q111 89 122 89Q140 89 152.5 78Q165 67 165 48Q165 25 149 9Q141 1 130 -2.5Q119 -6 109 -6Z" glyph-name="exclam" horiz-adv-x="296" unicode="!" /><glyph d="M120 -141H51L53 -128L134 323H183L122 -128ZM187 515Q207 515 218.5 503.5Q230 492 230 474Q230 451 215 436Q206 427 195.5 423.5Q185 420 174 420Q156 420 143.5 431Q131 442 131 461Q131 484 147 500Q155 508 166 511.5Q177 515 187 515Z" glyph-name="exclamdown" horiz-adv-x="296" unicode="&#161;" /><glyph d="M140 0H80L150 446H73L79 481L158 498L167 549Q181 633 222 674Q263 715 341 715Q358 715 381 712Q404 709 424 698L416 649H401Q381 657 366 659.5Q351 662 333 662Q286 662 261 635Q236 608 228 558L218 500H388L379 446H210Z" glyph-name="f" horiz-adv-x="396" unicode="f" /><glyph d="M481 0H421L500 500H560ZM544 581Q524 581 512.5 592.5Q501 604 501 622Q501 645 516 660Q525 669 535.5 672.5Q546 676 557 676Q575 676 587.5 665Q600 654 600 635Q600 612 584 596Q576 588 565 584.5Q554 581 544 581ZM140 0H80L150 446H73L79 481L158 498L167 549Q181 633 221.5 674Q262 715 339 715Q358 715 377.5 711.5Q397 708 414 698L406 649H391Q371 657 361 659.5Q351 662 333 662Q286 662 261 635Q236 608 228 558L218 500H378L369 446H210Z" glyph-name="fi" horiz-adv-x="606" unicode="&#64257;" /><glyph d="M209 -15Q164 -15 113.5 -3Q63 9 27 38L36 100H51Q62 87 80.5 76.5Q99 66 120.5 59Q142 52 166 48Q190 44 212 44Q254 44 288.5 57Q323 70 347.5 91.5Q372 113 385.5 142Q399 171 399 204Q399 233 386.5 255Q374 277 352.5 291.5Q331 306 302.5 313.5Q274 321 242 321Q213 321 182 317.5Q151 314 117 304L106 317L194 650H508L499 595H239L183 376Q199 378 216 379Q233 380 246 380Q287 380 326 371Q365 362 396 341Q427 320 446 286.5Q465 253 465 204Q465 155 444 114.5Q423 74 388 45Q353 16 306.5 0.5Q260 -15 209 -15Z" glyph-name="five" horiz-adv-x="531" unicode="5" /><glyph d="M140 0H80L150 446H73L79 481L158 498L167 549Q181 633 221.5 674Q262 715 339 715Q358 715 377.5 711.5Q397 708 414 698L406 649H391Q371 657 361 659.5Q351 662 333 662Q286 662 261 635Q236 608 228 558L218 500H378L369 446H210ZM506 -6Q455 -6 439 24Q423 54 431 100L526 700H586L490 97Q485 67 496.5 56Q508 45 541 50H551L543 -2Q533 -4 523.5 -5Q514 -6 506 -6Z" glyph-name="fl" horiz-adv-x="629" unicode="&#64258;" /><glyph d="M61 -90H-1L114 347H40L54 401H129L157 509Q178 594 222.5 629.5Q267 665 331 665Q355 665 379.5 660Q404 655 421 644L407 595H390Q376 603 360.5 605.5Q345 608 331 608Q281 608 257.5 583.5Q234 559 221 509L193 401H353L338 347H176Z" glyph-name="florin" horiz-adv-x="384" unicode="&#402;" /><glyph d="M384 0H322L347 158H17L15 213L419 650H486L418 216H516L507 158H409ZM99 218V216H355L414 564H412Z" glyph-name="four" horiz-adv-x="551" unicode="4" /><glyph d="M-118 0H-174L-171 14L346 650H405L403 637Z" glyph-name="fraction" horiz-adv-x="203" unicode="&#8260;" /><glyph d="M238 -204Q192 -204 155 -191.5Q118 -179 92.5 -156.5Q67 -134 53.5 -103Q40 -72 40 -35V-24Q40 -20 42 -10H104Q103 -17 103 -18V-22Q103 -47 110.5 -69.5Q118 -92 134.5 -109Q151 -126 177 -136Q203 -146 240 -146Q330 -146 376 -101Q422 -56 434 16L445 83H444Q371 10 253 10Q221 10 186.5 20.5Q152 31 123.5 54.5Q95 78 76.5 115.5Q58 153 58 208Q58 276 83 337.5Q108 399 150 441Q224 515 344 515Q397 515 439.5 493Q482 471 502 436H504L534 500H576L499 15Q482 -93 415 -148.5Q348 -204 238 -204ZM277 65Q325 65 363.5 84Q402 103 429 136Q456 169 470 212.5Q484 256 484 304Q484 337 476 365.5Q468 394 450 415Q432 436 403.5 448Q375 460 334 460Q284 460 244.5 440Q205 420 177.5 386.5Q150 353 135.5 309Q121 265 121 217Q121 142 158 103.5Q195 65 277 65Z" glyph-name="g" horiz-adv-x="625" unicode="g" /><glyph d="M305 -13Q278 -13 250 -8Q222 -3 202 8L210 59H226Q244 50 261 46Q278 42 305 42Q388 42 430.5 88.5Q473 135 474 206Q475 266 442.5 299.5Q410 333 336 333H274L283 388H319Q368 388 398 406Q428 424 444 449Q460 474 465 500.5Q470 527 470 544Q471 601 443.5 629.5Q416 658 355 658Q311 658 281 644Q251 630 231.5 605Q212 580 201 547.5Q190 515 184 477L110 0H50L129 509Q135 549 151.5 588.5Q168 628 194 654Q223 683 265.5 699Q308 715 361 715Q400 715 432 705.5Q464 696 487 675.5Q510 655 522.5 623Q535 591 535 547Q535 524 528.5 498.5Q522 473 510.5 449.5Q499 426 482 405Q465 384 443 370L444 368Q486 352 512 309Q538 266 538 206Q538 166 521.5 124Q505 82 476 53Q410 -13 305 -13Z" glyph-name="germandbls" horiz-adv-x="604" unicode="&#223;" /><glyph d="M429 583 402 549 214 667 255 720Z" glyph-name="grave" horiz-adv-x="500" unicode="`" /><glyph d="M135 537 146 604 579 357 571 304 60 58 71 130 498 332V334Z" glyph-name="greater" horiz-adv-x="643" unicode="&gt;" /><glyph d="M563 377 79 158 90 232 479 406V408L146 580L157 649L572 430ZM514 43H58L67 100H523Z" glyph-name="greaterequal" horiz-adv-x="628" unicode="&#8805;" /><glyph d="M237 60H179L52 248L53 257L240 445H305L303 431L120 248L239 74ZM427 60H369L242 248L243 257L430 445H495L493 431L310 248L429 74Z" glyph-name="guillemotleft" horiz-adv-x="527" unicode="&#171;" /><glyph d="M100 445H158L285 257L284 248L97 60H32L34 74L217 257L98 431ZM290 445H348L475 257L474 248L287 60H222L224 74L407 257L288 431Z" glyph-name="guillemotright" horiz-adv-x="527" unicode="&#187;" /><glyph d="M237 60H179L52 248L53 257L240 445H305L303 431L120 248L239 74Z" glyph-name="guilsinglleft" horiz-adv-x="337" unicode="&#8249;" /><glyph d="M100 445H158L285 257L284 248L97 60H32L34 74L217 257L98 431Z" glyph-name="guilsinglright" horiz-adv-x="337" unicode="&#8250;" /><glyph d="M110 0H50L161 700H221L180 443H182Q213 483 256.5 499Q300 515 342 515Q440 515 478 459.5Q516 404 502 315L452 0H392L440 306Q445 336 444 364Q443 392 432.5 413Q422 434 399 446.5Q376 459 337 459Q311 459 282 450.5Q253 442 227.5 420.5Q202 399 182 363Q162 327 153 273Z" glyph-name="h" horiz-adv-x="570" unicode="h" /><glyph d="M546 659 364 548 348 582 513 715ZM372 659 190 548 174 582 339 715Z" glyph-name="hungarumlaut" horiz-adv-x="500" unicode="&#733;" /><glyph d="M339 265H84L94 323H349Z" glyph-name="hyphen" horiz-adv-x="419" unicode="-" /><glyph d="M107 0H47L126 500H186ZM170 581Q150 581 138.5 592.5Q127 604 127 622Q127 645 142 660Q151 669 161.5 672.5Q172 676 183 676Q201 676 213.5 665Q226 654 226 635Q226 612 210 596Q202 588 191 584.5Q180 581 170 581Z" glyph-name="i" horiz-adv-x="232" unicode="i" /><glyph d="M107 0H47L126 500H186ZM320 659 90 549 73 583 291 720Z" glyph-name="iacute" horiz-adv-x="232" unicode="&#237;" /><glyph d="M107 0H47L126 500H186ZM182 623 47 553 28 588 186 692 317 588 292 553Z" glyph-name="icircumflex" horiz-adv-x="232" unicode="&#238;" /><glyph d="M107 0H47L126 500H186ZM85 558Q65 558 53.5 569.5Q42 581 42 599Q42 622 57 637Q66 646 76.5 649.5Q87 653 98 653Q116 653 128.5 642Q141 631 141 612Q141 589 125 573Q117 565 106 561.5Q95 558 85 558ZM249 558Q229 558 217.5 569.5Q206 581 206 599Q206 622 221 637Q230 646 240.5 649.5Q251 653 262 653Q280 653 292.5 642Q305 631 305 612Q305 589 289 573Q281 565 270 561.5Q259 558 249 558Z" glyph-name="idieresis" horiz-adv-x="232" unicode="&#239;" /><glyph d="M107 0H47L126 500H186ZM299 583 272 549 84 667 125 720Z" glyph-name="igrave" horiz-adv-x="232" unicode="&#236;" /><glyph d="M-5 -180H-63L-60 -160Q0 -128 28.5 -76Q57 -24 68 42L141 500H201L124 26Q112 -47 79.5 -100Q47 -153 -5 -180ZM184 581Q164 581 152.5 592.5Q141 604 141 622Q141 645 156 660Q165 669 175.5 672.5Q186 676 197 676Q215 676 227.5 665Q240 654 240 635Q240 612 224 596Q216 588 205 584.5Q194 581 184 581Z" glyph-name="j" horiz-adv-x="248" unicode="j" /><glyph d="M110 0H50L161 700H221L155 287L392 500H461V489L217 269L427 11V0H359L151 257Z" glyph-name="k" horiz-adv-x="491" unicode="k" /><glyph d="M136 -6Q85 -6 69 24Q53 54 61 100L156 700H216L120 97Q115 67 126.5 56Q138 45 171 50H181L173 -2Q163 -4 153.5 -5Q144 -6 136 -6Z" glyph-name="l" horiz-adv-x="259" unicode="l" /><glyph d="M534 124 523 57 90 304 98 357 609 603 598 531 171 329V327Z" glyph-name="less" horiz-adv-x="644" unicode="&lt;" /><glyph d="M532 226 521 158 105 377 114 430 597 649 586 574 199 402V400ZM504 43H48L57 100H513Z" glyph-name="lessequal" horiz-adv-x="628" unicode="&#8804;" /><glyph d="M474 278H411L446 503H84L93 560H518Z" glyph-name="logicalnot" horiz-adv-x="527" unicode="&#172;" /><glyph d="M110 0H50L129 500H172L179 451H181Q210 483 249 499Q288 515 331 515Q388 515 419.5 488.5Q451 462 463 424H465Q494 472 543 493.5Q592 515 643 515Q688 515 718 500Q748 485 765 458.5Q782 432 786 396.5Q790 361 784 320L734 0H674L725 323Q729 350 728 374.5Q727 399 717.5 417.5Q708 436 687 447.5Q666 459 631 459Q568 459 524.5 417Q481 375 468 294L422 0H362L412 316Q415 343 414.5 368.5Q414 394 404.5 414Q395 434 374.5 446.5Q354 459 319 459Q259 459 214.5 418Q170 377 157 297Z" glyph-name="m" horiz-adv-x="852" unicode="m" /><glyph d="M446 590H170L178 643H454Z" glyph-name="macron" horiz-adv-x="500" unicode="&#175;" /><glyph d="M79 -180H23L140 560H196L139 200Q135 170 138 141.5Q141 113 156 90.5Q171 68 199.5 54Q228 40 274 40Q314 40 346 53Q378 66 401.5 88.5Q425 111 440 141Q455 171 462 206L518 560H576L488 0H447L438 54Q404 19 357.5 2Q311 -15 266 -15Q223 -15 180.5 -1Q138 13 115 45Z" glyph-name="mu" horiz-adv-x="603" unicode="&#181;" /><glyph d="M110 0H50L129 500H172L180 443H182Q213 483 256.5 499Q300 515 342 515Q440 515 478 459.5Q516 404 502 315L452 0H392L440 306Q445 336 444 364Q443 392 432.5 413Q422 434 399 446.5Q376 459 337 459Q311 459 282 450.5Q253 442 227.5 420.5Q202 399 182 363Q162 327 153 273Z" glyph-name="n" horiz-adv-x="570" unicode="n" /><glyph d="M342 665Q386 665 422 651Q458 637 483.5 612.5Q509 588 522.5 553Q536 518 536 476Q536 407 502.5 340.5Q469 274 409 200Q383 168 353 138.5Q323 109 293 83Q263 57 235.5 36Q208 15 188 0H115L117 13Q155 41 197.5 76Q240 111 285 154Q296 164 311 179Q326 194 342.5 211Q359 228 374 245Q389 262 399 275L398 276Q377 260 339.5 249Q302 238 270 238Q232 238 195.5 250.5Q159 263 130 292Q107 315 94 346.5Q81 378 81 420Q81 468 99.5 511Q118 554 152 588Q188 624 238 644.5Q288 665 342 665ZM339 609Q298 609 263 594Q228 579 202.5 553Q177 527 162.5 492.5Q148 458 148 420Q148 365 182 330Q216 295 288 295Q328 295 361.5 309.5Q395 324 419.5 349Q444 374 457.5 407Q471 440 471 476Q471 501 463.5 525Q456 549 440 567.5Q424 586 399 597.5Q374 609 339 609Z" glyph-name="nine" horiz-adv-x="560" unicode="9" /><glyph glyph-name="nonmarkingreturn" horiz-adv-x="250" unicode="" /><glyph d="M153 54H99L101 68L216 222H68L77 278H257L328 376H92L101 431H369L487 590H541L539 576L431 431H593L584 376H390L319 278H569L560 222H278Z" glyph-name="notequal" horiz-adv-x="636" unicode="&#8800;" /><glyph d="M110 0H50L129 500H172L180 443H182Q213 483 256.5 499Q300 515 342 515Q440 515 478 459.5Q516 404 502 315L452 0H392L440 306Q445 336 444 364Q443 392 432.5 413Q422 434 399 446.5Q376 459 337 459Q311 459 282 450.5Q253 442 227.5 420.5Q202 399 182 363Q162 327 153 273ZM236 565H189Q194 608 220.5 636.5Q247 665 288 665Q311 665 327.5 657.5Q344 650 357 641.5Q370 633 382.5 625.5Q395 618 410 618Q427 618 442 628Q457 638 462 670H509Q504 627 478 598.5Q452 570 410 570Q386 570 370 577.5Q354 585 341 593.5Q328 602 315.5 609.5Q303 617 288 617Q271 617 256 607Q241 597 236 565Z" glyph-name="ntilde" horiz-adv-x="570" unicode="&#241;" /><glyph d="M292 409 251 260H397L439 409ZM608 409H496L455 260H560L551 207H440L383 0H326L328 13L383 207H236L179 0H122L124 13L179 207H75L84 260H193L235 409H131L140 461H250L303 650H357L355 637L306 461H454L507 650H561L559 637L510 461H617Z" glyph-name="numbersign" horiz-adv-x="665" unicode="#" /><glyph d="M476 -1 215 537H211Q209 527 207 513.5Q205 500 201.5 477Q198 454 192.5 417.5Q187 381 178 325Q169 269 156.5 189Q144 109 127 0H66L168 650H230V651L490 112H494L578 650H639L537 0H476ZM477 -3Q476 -2 476 -1ZM805 347Q783 347 762 355Q741 363 724.5 379Q708 395 697.5 418Q687 441 687 472Q687 516 701.5 555Q716 594 743 621Q765 643 794 654Q823 665 856 665Q879 665 900.5 657Q922 649 938.5 633Q955 617 965 592.5Q975 568 975 536Q975 496 962.5 459Q950 422 922 394Q897 369 867 358Q837 347 805 347ZM817 397Q841 397 860.5 408.5Q880 420 893.5 439Q907 458 914 482Q921 506 921 531Q921 569 902.5 594Q884 619 846 619Q822 619 803 607.5Q784 596 770 576.5Q756 557 748.5 531.5Q741 506 741 478Q741 441 759 419Q777 397 817 397Z" glyph-name="numero" horiz-adv-x="991" unicode="&#8470;" /><glyph d="M261 -15Q220 -15 183 -1.5Q146 12 118 38Q90 64 73.5 102Q57 140 57 189Q57 264 81 327.5Q105 391 153 439Q189 475 237 495Q285 515 343 515Q388 515 425.5 500.5Q463 486 490 459.5Q517 433 532 395.5Q547 358 547 313Q547 239 522.5 173Q498 107 452 61Q415 24 367.5 4.5Q320 -15 261 -15ZM269 41Q319 41 358.5 62.5Q398 84 426 120Q454 156 468.5 202.5Q483 249 483 300Q483 371 446.5 415Q410 459 335 459Q285 459 245.5 438Q206 417 178 381.5Q150 346 135.5 299.5Q121 253 121 203Q121 133 157.5 87Q194 41 269 41Z" glyph-name="o" horiz-adv-x="604" unicode="o" /><glyph d="M261 -15Q220 -15 183 -1.5Q146 12 118 38Q90 64 73.5 102Q57 140 57 189Q57 264 81 327.5Q105 391 153 439Q189 475 237 495Q285 515 343 515Q388 515 425.5 500.5Q463 486 490 459.5Q517 433 532 395.5Q547 358 547 313Q547 239 522.5 173Q498 107 452 61Q415 24 367.5 4.5Q320 -15 261 -15ZM269 41Q319 41 358.5 62.5Q398 84 426 120Q454 156 468.5 202.5Q483 249 483 300Q483 371 446.5 415Q410 459 335 459Q285 459 245.5 438Q206 417 178 381.5Q150 346 135.5 299.5Q121 253 121 203Q121 133 157.5 87Q194 41 269 41ZM501 659 271 549 254 583 472 720Z" glyph-name="oacute" horiz-adv-x="604" unicode="&#243;" /><glyph d="M261 -15Q220 -15 183 -1.5Q146 12 118 38Q90 64 73.5 102Q57 140 57 189Q57 264 81 327.5Q105 391 153 439Q189 475 237 495Q285 515 343 515Q388 515 425.5 500.5Q463 486 490 459.5Q517 433 532 395.5Q547 358 547 313Q547 239 522.5 173Q498 107 452 61Q415 24 367.5 4.5Q320 -15 261 -15ZM269 41Q319 41 358.5 62.5Q398 84 426 120Q454 156 468.5 202.5Q483 249 483 300Q483 371 446.5 415Q410 459 335 459Q285 459 245.5 438Q206 417 178 381.5Q150 346 135.5 299.5Q121 253 121 203Q121 133 157.5 87Q194 41 269 41ZM373 623 238 553 219 588 377 692 508 588 483 553Z" glyph-name="ocircumflex" horiz-adv-x="604" unicode="&#244;" /><glyph d="M261 -15Q220 -15 183 -1.5Q146 12 118 38Q90 64 73.5 102Q57 140 57 189Q57 264 81 327.5Q105 391 153 439Q189 475 237 495Q285 515 343 515Q388 515 425.5 500.5Q463 486 490 459.5Q517 433 532 395.5Q547 358 547 313Q547 239 522.5 173Q498 107 452 61Q415 24 367.5 4.5Q320 -15 261 -15ZM269 41Q319 41 358.5 62.5Q398 84 426 120Q454 156 468.5 202.5Q483 249 483 300Q483 371 446.5 415Q410 459 335 459Q285 459 245.5 438Q206 417 178 381.5Q150 346 135.5 299.5Q121 253 121 203Q121 133 157.5 87Q194 41 269 41ZM285 558Q265 558 253.5 569.5Q242 581 242 599Q242 622 257 637Q266 646 276.5 649.5Q287 653 298 653Q316 653 328.5 642Q341 631 341 612Q341 589 325 573Q317 565 306 561.5Q295 558 285 558ZM449 558Q429 558 417.5 569.5Q406 581 406 599Q406 622 421 637Q430 646 440.5 649.5Q451 653 462 653Q480 653 492.5 642Q505 631 505 612Q505 589 489 573Q481 565 470 561.5Q459 558 449 558Z" glyph-name="odieresis" horiz-adv-x="604" unicode="&#246;" /><glyph d="M251 41Q298 41 334.5 64Q371 87 396.5 124.5Q422 162 435 209Q448 256 448 305Q448 374 415.5 416.5Q383 459 317 459Q271 459 234.5 436.5Q198 414 172.5 377.5Q147 341 134 294.5Q121 248 121 199Q121 130 153 85.5Q185 41 251 41ZM618 -15Q552 -15 509.5 15.5Q467 46 450 103Q416 46 362.5 15.5Q309 -15 245 -15Q160 -15 108.5 37Q57 89 57 185Q57 261 81.5 329Q106 397 153 444Q186 477 229.5 496Q273 515 325 515Q388 515 432 485Q476 455 494 398Q528 455 581 485Q634 515 700 515Q747 515 780 499Q813 483 833 456Q853 429 862 393.5Q871 358 871 319Q871 296 868 272Q865 248 861 233H501Q500 223 499.5 214Q499 205 499 196Q499 127 529.5 84Q560 41 626 41Q679 41 716.5 66.5Q754 92 773 135H834Q826 111 811.5 88.5Q797 66 780 49Q748 17 707 1Q666 -15 618 -15ZM808 287Q811 305 811 323Q811 349 805.5 374Q800 399 786.5 418Q773 437 750.5 448.5Q728 460 694 460Q623 460 578.5 415Q534 370 511 287Z" glyph-name="oe" horiz-adv-x="928" unicode="&#339;" /><glyph d="M201 -180Q176 -180 159 -173.5Q142 -167 131.5 -156.5Q121 -146 116.5 -133Q112 -120 112 -108Q112 -79 134 -48.5Q156 -18 208 7L268 0Q212 -26 190 -52.5Q168 -79 168 -99Q168 -132 211 -132Q222 -132 234 -130Q246 -128 261 -123H270L263 -168Q247 -175 228 -177.5Q209 -180 201 -180Z" glyph-name="ogonek" horiz-adv-x="500" unicode="&#731;" /><glyph d="M261 -15Q220 -15 183 -1.5Q146 12 118 38Q90 64 73.5 102Q57 140 57 189Q57 264 81 327.5Q105 391 153 439Q189 475 237 495Q285 515 343 515Q388 515 425.5 500.5Q463 486 490 459.5Q517 433 532 395.5Q547 358 547 313Q547 239 522.5 173Q498 107 452 61Q415 24 367.5 4.5Q320 -15 261 -15ZM269 41Q319 41 358.5 62.5Q398 84 426 120Q454 156 468.5 202.5Q483 249 483 300Q483 371 446.5 415Q410 459 335 459Q285 459 245.5 438Q206 417 178 381.5Q150 346 135.5 299.5Q121 253 121 203Q121 133 157.5 87Q194 41 269 41ZM480 583 453 549 265 667 306 720Z" glyph-name="ograve" horiz-adv-x="604" unicode="&#242;" /><glyph d="M146 0H84L166 524H67L74 562Q125 567 159.5 584.5Q194 602 213 654H249Z" glyph-name="one" horiz-adv-x="292" unicode="1" /><glyph d="M233 280Q169 280 132 321Q95 362 95 429Q95 472 110 510.5Q125 549 151.5 578Q178 607 213.5 624Q249 641 291 641Q328 641 353 626.5Q378 612 391 592H393L412 631H450L396 290H358L351 329H349Q330 309 300 294.5Q270 280 233 280ZM241 325Q273 325 298 339.5Q323 354 340 377Q357 400 366.5 430Q376 460 376 491Q376 534 354 565Q332 596 283 596Q252 596 227 582.5Q202 569 184.5 546Q167 523 157.5 492.5Q148 462 148 429Q148 385 170 355Q192 325 241 325Z" glyph-name="ordfeminine" horiz-adv-x="468" unicode="&#170;" /><glyph d="M239 283Q174 283 134.5 323.5Q95 364 95 431Q95 470 108.5 508Q122 546 146.5 575.5Q171 605 206.5 623Q242 641 287 641Q318 641 344.5 631Q371 621 390.5 602Q410 583 421 556Q432 529 432 495Q432 454 418.5 416Q405 378 379.5 348.5Q354 319 318.5 301Q283 283 239 283ZM244 330Q276 330 300.5 344.5Q325 359 342 382Q359 405 368 435Q377 465 377 495Q377 540 354 568Q331 596 284 596Q253 596 228 581.5Q203 567 185.5 543.5Q168 520 159 490.5Q150 461 150 431Q150 386 173.5 358Q197 330 244 330Z" glyph-name="ordmasculine" horiz-adv-x="459" unicode="&#186;" /><glyph d="M261 -15Q226 -15 194 -5L159 -65H98L100 -52L141 19Q129 27 118 38Q90 64 73.5 102Q57 140 57 189Q57 264 81 327.5Q105 391 153 439Q189 475 237 495Q285 515 343 515Q388 515 425 500L463 565H523L521 551L475 472Q483 466 490 459Q517 433 532 395.5Q547 358 547 313Q547 239 522.5 173Q498 107 452 61Q415 24 367.5 4.5Q320 -15 261 -15ZM335 459Q285 459 245.5 438Q206 417 178 381.5Q150 346 135.5 299.5Q121 253 121 203Q121 133 157 87Q164 78 172 71L395 450Q369 459 335 459ZM269 41Q319 41 358.5 62.5Q398 84 426 120Q454 156 468.5 202.5Q483 249 483 300Q483 371 446 415L443 419L224 46Q244 41 269 41Z" glyph-name="oslash" horiz-adv-x="604" unicode="&#248;" /><glyph d="M261 -15Q220 -15 183 -1.5Q146 12 118 38Q90 64 73.5 102Q57 140 57 189Q57 264 81 327.5Q105 391 153 439Q189 475 237 495Q285 515 343 515Q388 515 425.5 500.5Q463 486 490 459.5Q517 433 532 395.5Q547 358 547 313Q547 239 522.5 173Q498 107 452 61Q415 24 367.5 4.5Q320 -15 261 -15ZM269 41Q319 41 358.5 62.5Q398 84 426 120Q454 156 468.5 202.5Q483 249 483 300Q483 371 446.5 415Q410 459 335 459Q285 459 245.5 438Q206 417 178 381.5Q150 346 135.5 299.5Q121 253 121 203Q121 133 157.5 87Q194 41 269 41ZM253 565H206Q211 608 237.5 636.5Q264 665 305 665Q328 665 344.5 657.5Q361 650 374 641.5Q387 633 399.5 625.5Q412 618 427 618Q444 618 459 628Q474 638 479 670H526Q521 627 495 598.5Q469 570 427 570Q403 570 387 577.5Q371 585 358 593.5Q345 602 332.5 609.5Q320 617 305 617Q288 617 273 607Q258 597 253 565Z" glyph-name="otilde" horiz-adv-x="604" unicode="&#245;" /><glyph d="M81 -180H21L128 499H165L175 435H177Q213 477 260.5 495.5Q308 514 361 514Q402 514 439 501Q476 488 505 462Q534 436 551 397Q568 358 568 305Q568 232 546 169.5Q524 107 481 63Q443 25 394.5 4.5Q346 -16 285 -16Q257 -16 231.5 -9Q206 -2 185 10Q164 22 147.5 36.5Q131 51 122 66H120ZM290 39Q341 39 380.5 59.5Q420 80 447.5 115.5Q475 151 489.5 198Q504 245 504 298Q504 332 495 361.5Q486 391 467 412.5Q448 434 418.5 446.5Q389 459 348 459Q300 459 262 437.5Q224 416 197 380.5Q170 345 156 298Q142 251 142 200Q142 167 151 137.5Q160 108 178 86Q196 64 224 51.5Q252 39 290 39Z" glyph-name="p" horiz-adv-x="625" unicode="p" /><glyph d="M373 0H315L408 588H325L286 342H269Q241 342 215 350.5Q189 359 170 377Q151 395 139.5 422Q128 449 128 486Q128 516 140.5 545Q153 574 176 597.5Q199 621 231 635.5Q263 650 301 650H475Z" glyph-name="paragraph" horiz-adv-x="550" unicode="&#182;" /><glyph d="M169 -124H122Q96 -51 84 18Q72 87 72 155Q72 295 114.5 431.5Q157 568 248 696H298L296 684Q219 564 177 426Q135 288 135 155Q135 83 143.5 18.5Q152 -46 171 -112Z" glyph-name="parenleft" horiz-adv-x="296" unicode="(" /><glyph d="M139 696H186Q212 623 224 554Q236 485 236 417Q236 277 193.5 140.5Q151 4 60 -124H10L12 -112Q89 8 131 146Q173 284 173 417Q173 489 164.5 553.5Q156 618 137 684Z" glyph-name="parenright" horiz-adv-x="296" unicode=")" /><glyph d="M140 0H87L89 13L547 650H602L600 637ZM415 -6Q394 -6 374.5 2Q355 10 340.5 24Q326 38 317.5 58.5Q309 79 309 103Q309 135 320 165Q331 195 354 218Q374 238 401 249Q428 260 458 260Q502 260 533 230Q564 200 564 151Q564 121 552.5 89Q541 57 518 34Q478 -6 415 -6ZM424 43Q462 43 485 73Q508 103 508 144Q508 173 493.5 192Q479 211 450 211Q411 211 388 180.5Q365 150 365 108Q365 80 379.5 61.5Q394 43 424 43ZM232 388Q211 388 191.5 396Q172 404 157.5 418Q143 432 134.5 452.5Q126 473 126 497Q126 529 137.5 560Q149 591 172 614Q192 634 218.5 644Q245 654 275 654Q319 654 350 624Q381 594 381 545Q381 515 369.5 483Q358 451 335 428Q295 388 232 388ZM241 437Q279 437 302 467Q325 497 325 538Q325 567 310.5 586Q296 605 267 605Q228 605 205 574.5Q182 544 182 502Q182 474 196.5 455.5Q211 437 241 437Z" glyph-name="percent" horiz-adv-x="615" unicode="%" /><glyph d="M109 -6Q89 -6 77.5 5.5Q66 17 66 35Q66 58 81 73Q90 82 100.5 85.5Q111 89 122 89Q140 89 152.5 78Q165 67 165 48Q165 25 149 9Q141 1 130 -2.5Q119 -6 109 -6Z" glyph-name="period" horiz-adv-x="296" unicode="." /><glyph d="M147 233Q127 233 115.5 244.5Q104 256 104 274Q104 297 119 312Q128 321 138.5 324.5Q149 328 160 328Q178 328 190.5 317Q203 306 203 287Q203 264 187 248Q179 240 168 236.5Q157 233 147 233Z" glyph-name="periodcentered" horiz-adv-x="296" unicode="&#183;" /><glyph d="M140 0H87L89 13L547 650H602L600 637ZM416 -6Q395 -6 375.5 2Q356 10 341.5 24Q327 38 318.5 58.5Q310 79 310 103Q310 135 321.5 165.5Q333 196 356 219Q397 260 459 260Q503 260 534 230Q565 200 565 151Q565 121 553.5 89.5Q542 58 519 35Q478 -6 416 -6ZM425 43Q463 43 486 73Q509 103 509 144Q509 173 494.5 192Q480 211 451 211Q412 211 389 180.5Q366 150 366 108Q366 80 380.5 61.5Q395 43 425 43ZM232 388Q211 388 191.5 396Q172 404 157.5 418Q143 432 134.5 452.5Q126 473 126 497Q126 529 137.5 559.5Q149 590 172 613Q213 654 275 654Q319 654 350 624Q381 594 381 545Q381 515 369.5 483.5Q358 452 335 429Q294 388 232 388ZM241 437Q279 437 302 467Q325 497 325 538Q325 567 310.5 586Q296 605 267 605Q228 605 205 574.5Q182 544 182 502Q182 474 196.5 455.5Q211 437 241 437ZM697 -6Q676 -6 656.5 2Q637 10 622.5 24Q608 38 599.5 58.5Q591 79 591 103Q591 135 602.5 165.5Q614 196 637 219Q678 260 740 260Q784 260 815 230Q846 200 846 151Q846 121 834.5 89.5Q823 58 800 35Q759 -6 697 -6ZM706 43Q744 43 767 73Q790 103 790 144Q790 173 775.5 192Q761 211 732 211Q693 211 670 180.5Q647 150 647 108Q647 80 661.5 61.5Q676 43 706 43Z" glyph-name="perthousand" horiz-adv-x="896" unicode="&#8240;" /><glyph d="M299 73H240L276 300H60L69 358H285L321 584H380L344 358H560L551 300H335Z" glyph-name="plus" horiz-adv-x="595" unicode="+" /><glyph d="M320 208H261L289 384H93L103 444H299L327 619H386L358 444H554L544 384H348ZM490 43H39L48 100H499Z" glyph-name="plusminus" horiz-adv-x="595" unicode="&#177;" /><glyph d="M402 -10Q332 -10 272.5 16.5Q213 43 169 89Q125 135 100 196.5Q75 258 75 328Q75 398 100 459.5Q125 521 169 566.5Q213 612 272.5 638.5Q332 665 402 665Q472 665 532 638.5Q592 612 636.5 566.5Q681 521 706 459.5Q731 398 731 328Q731 258 706 196.5Q681 135 636.5 89Q592 43 532 16.5Q472 -10 402 -10ZM402 33Q461 33 512.5 56.5Q564 80 601.5 120Q639 160 660.5 213.5Q682 267 682 328Q682 389 660.5 442.5Q639 496 601.5 536Q564 576 512.5 599Q461 622 402 622Q343 622 292.5 599Q242 576 204.5 536Q167 496 145.5 442.5Q124 389 124 328Q124 267 145.5 213.5Q167 160 204.5 120Q242 80 292.5 56.5Q343 33 402 33ZM348 145H297V516H436Q461 516 483.5 508.5Q506 501 523 486Q540 471 550 450Q560 429 560 402V393Q559 369 548.5 348Q538 327 521.5 311.5Q505 296 483 287.5Q461 279 436 279H348ZM348 465V329H437Q475 329 492 351Q509 373 509 398Q509 408 505.5 420Q502 432 494 442Q486 452 474 458.5Q462 465 444 465Z" glyph-name="published" horiz-adv-x="782" unicode="&#8471;" /><glyph d="M468 -180H408L445 56H443Q405 15 355 0Q305 -15 260 -15Q221 -15 184.5 -2Q148 11 119.5 37.5Q91 64 74 103.5Q57 143 57 196Q57 269 79 330.5Q101 392 144 436Q182 474 230.5 494.5Q279 515 340 515Q368 515 393 508Q418 501 439 489.5Q460 478 476 463.5Q492 449 501 434H503L533 500H575ZM275 40Q323 40 361.5 61.5Q400 83 427 118.5Q454 154 468.5 201Q483 248 483 299Q483 332 474 361.5Q465 391 447 413Q429 435 401 447.5Q373 460 335 460Q284 460 244.5 439.5Q205 419 177.5 383.5Q150 348 135.5 301Q121 254 121 201Q121 167 129.5 137.5Q138 108 157 86.5Q176 65 205 52.5Q234 40 275 40Z" glyph-name="q" horiz-adv-x="625" unicode="q" /><glyph d="M254 190H202L225 367L232 373Q305 382 348.5 417.5Q392 453 392 518Q392 561 367 585Q342 609 295 609Q240 609 210 583.5Q180 558 168 515H109L111 527Q118 553 130.5 575Q143 597 159 613Q189 642 225 653.5Q261 665 296 665Q336 665 366 654Q396 643 416 623.5Q436 604 446 577.5Q456 551 456 521Q456 480 442.5 448.5Q429 417 402 390Q377 365 346.5 350Q316 335 279 327ZM196 -6Q176 -6 163.5 7.5Q151 21 154 41V43Q158 65 174.5 77Q191 89 211 89Q229 89 241 79Q253 69 253 52Q253 46 252 43V41Q249 21 232.5 7.5Q216 -6 196 -6Z" glyph-name="question" horiz-adv-x="480" unicode="?" /><glyph d="M227 319H279L256 142L249 136Q176 127 132.5 91.5Q89 56 89 -9Q89 -52 114 -76Q139 -100 186 -100Q241 -100 271 -74.5Q301 -49 313 -6H372L370 -18Q363 -44 350.5 -66Q338 -88 322 -104Q292 -133 256 -144.5Q220 -156 185 -156Q145 -156 115 -145Q85 -134 65 -114.5Q45 -95 35 -68.5Q25 -42 25 -12Q25 29 38.5 60.5Q52 92 79 119Q104 144 134.5 159Q165 174 202 182ZM285 515Q305 515 317.5 501.5Q330 488 327 468V466Q323 444 306.5 432Q290 420 270 420Q252 420 240 430Q228 440 228 457Q228 463 229 466V468Q232 488 248.5 501.5Q265 515 285 515Z" glyph-name="questiondown" horiz-adv-x="480" unicode="&#191;" /><glyph d="M284 444H240L260 637L262 650H326L324 637ZM169 444H125L145 637L147 650H211L209 637Z" glyph-name="quotedbl" horiz-adv-x="347" unicode="&quot;" /><glyph d="M174 -127H127L209 89H282L280 78ZM38 -127H-9L73 89H146L144 78Z" glyph-name="quotedblbase" horiz-adv-x="379" unicode="&#8222;" /><glyph d="M362 650H409L327 434H254L256 445ZM226 650H273L191 434H118L120 445Z" glyph-name="quotedblleft" horiz-adv-x="428" unicode="&#8220;" /><glyph d="M295 434H248L330 650H403L401 639ZM159 434H112L194 650H267L265 639Z" glyph-name="quotedblright" horiz-adv-x="428" unicode="&#8221;" /><glyph d="M226 650H273L191 434H118L120 445Z" glyph-name="quoteleft" horiz-adv-x="292" unicode="&#8216;" /><glyph d="M158 434H111L193 650H266L264 639Z" glyph-name="quoteright" horiz-adv-x="292" unicode="&#8217;" /><glyph d="M69 -127H22L104 89H177L175 78Z" glyph-name="quotesinglbase" horiz-adv-x="252" unicode="&#8218;" /><glyph d="M169 444H125L145 637L147 650H211L209 637Z" glyph-name="quotesingle" horiz-adv-x="232" unicode="&apos;" /><glyph d="M110 0H50L129 500H164L172 421H173Q201 463 246.5 483.5Q292 504 336 504H349Q357 504 365 502L356 443Q348 444 343 444H334Q280 444 246.5 426Q213 408 193 378.5Q173 349 163 311.5Q153 274 147 236Z" glyph-name="r" horiz-adv-x="361" unicode="r" /><glyph d="M404 -12Q332 -12 271.5 14.5Q211 41 167.5 87Q124 133 99.5 195Q75 257 75 327Q75 397 99.5 459Q124 521 167.5 567Q211 613 271.5 639.5Q332 666 404 666Q476 666 537 639.5Q598 613 641.5 567Q685 521 709.5 459Q734 397 734 327Q734 257 709.5 195Q685 133 641.5 87Q598 41 537 14.5Q476 -12 404 -12ZM404 34Q465 34 516.5 57Q568 80 605 120Q642 160 663 213.5Q684 267 684 327Q684 387 663 440.5Q642 494 605 534Q568 574 516.5 597Q465 620 404 620Q343 620 291.5 597Q240 574 203 534Q166 494 145.5 440.5Q125 387 125 327Q125 267 145.5 213.5Q166 160 203 120Q240 80 291.5 57Q343 34 404 34ZM334 148H285V518H422Q447 518 469.5 510.5Q492 503 509 489Q526 475 536 454Q546 433 546 406V397Q546 359 525 331.5Q504 304 471 290L562 166V148H514L414 284H334ZM334 472V330H428Q447 330 460 336.5Q473 343 481 353.5Q489 364 492.5 377Q496 390 496 403Q496 412 492.5 424Q489 436 481 446.5Q473 457 460.5 464.5Q448 472 431 472Z" glyph-name="registered" horiz-adv-x="785" unicode="&#174;" /><glyph d="M307 567Q269 567 246.5 589Q224 611 224 648Q224 671 232.5 689Q241 707 255 720Q269 733 286.5 739.5Q304 746 322 746Q363 746 385 724Q407 702 407 666Q407 645 399 627Q391 609 377.5 595.5Q364 582 345.5 574.5Q327 567 307 567ZM307 609Q329 609 344.5 626Q360 643 360 666Q360 683 349.5 694Q339 705 322 705Q301 705 285.5 688Q270 671 270 648Q270 631 280 620Q290 609 307 609Z" glyph-name="ring" horiz-adv-x="500" unicode="&#730;" /><glyph d="M213 -15Q137 -15 89.5 20Q42 55 42 124Q42 129 42.5 137Q43 145 45 155H106Q104 144 104 137V126Q104 82 136.5 59.5Q169 37 219 37Q254 37 279 46.5Q304 56 320 71.5Q336 87 343.5 106.5Q351 126 351 145Q351 174 335 191Q317 209 288 218Q259 227 227.5 234.5Q196 242 166 252Q136 262 115 283Q98 300 90.5 318.5Q83 337 83 364Q83 389 92.5 414Q102 439 123 460Q149 486 185.5 500.5Q222 515 273 515Q345 515 389.5 484Q434 453 434 396V386Q434 381 432 372H374Q375 377 375 380V387Q375 431 345.5 447Q316 463 273 463Q238 463 214 454Q190 445 175 431.5Q160 418 153.5 402.5Q147 387 147 375Q147 369 149 354Q151 339 165 324Q180 309 207.5 301Q235 293 266 285.5Q297 278 327.5 267.5Q358 257 380 235Q394 221 404 200.5Q414 180 414 152Q414 120 402 90Q390 60 368 39Q336 9 297 -3Q258 -15 213 -15Z" glyph-name="s" horiz-adv-x="488" unicode="s" /><glyph d="M215 -73Q180 -73 149 -64Q118 -55 95 -37.5Q72 -20 59 6Q46 32 46 66Q46 77 46.5 83.5Q47 90 48 97H109Q108 91 108 85V75Q108 30 135.5 5Q163 -20 218 -20Q278 -20 316 10.5Q354 41 354 92Q354 105 350.5 116.5Q347 128 339 136Q321 154 292 162.5Q263 171 231.5 178Q200 185 169 195.5Q138 206 116 228Q104 240 95 258Q86 276 86 302Q86 336 104.5 367.5Q123 399 157 420L148 429Q136 441 127 460.5Q118 480 118 512Q118 533 128.5 558.5Q139 584 159 604Q187 632 227 645.5Q267 659 313 659Q345 659 373.5 652Q402 645 423.5 630.5Q445 616 458 593.5Q471 571 471 540Q471 531 470.5 526Q470 521 469 516H410Q412 543 404.5 560Q397 577 382.5 587Q368 597 349 601Q330 605 307 605Q274 605 250.5 596.5Q227 588 212 574.5Q197 561 189.5 544.5Q182 528 182 512Q182 499 186.5 488Q191 477 198 470Q213 455 242 447Q271 439 303.5 431.5Q336 424 367.5 413.5Q399 403 420 382Q433 369 442 349Q451 329 451 294Q451 265 435 233Q419 201 390 176Q401 163 410 143Q419 123 419 92Q419 30 375 -14Q346 -43 304 -58Q262 -73 215 -73ZM344 209Q365 225 375.5 247Q386 269 386 294Q386 322 371 337Q358 351 339.5 358.5Q321 366 300.5 371Q280 376 258 380Q236 384 215 390Q179 375 164.5 354Q150 333 150 308Q150 284 165 269Q177 257 198 250Q219 243 243.5 237.5Q268 232 294 226Q320 220 344 209Z" glyph-name="section" horiz-adv-x="506" unicode="&#167;" /><glyph d="M74 -127H27L109 89H182L180 78ZM188 368Q168 368 156.5 379.5Q145 391 145 409Q145 432 160 447Q169 456 179.5 459.5Q190 463 201 463Q219 463 231.5 452Q244 441 244 422Q244 399 228 383Q220 375 209 371.5Q198 368 188 368Z" glyph-name="semicolon" horiz-adv-x="294" unicode=";" /><glyph d="M328 405H286L324 650H379L422 487L513 650H576L538 405H497L522 557Q524 570 526.5 583Q529 596 532 609H531Q523 594 516.5 581.5Q510 569 502 555L437 445H396L366 560Q364 571 361.5 584.5Q359 598 357 609H356Q354 584 351 559ZM168 397Q123 397 98 419Q73 441 77 476H114Q114 457 129 444.5Q144 432 168 432Q194 432 206.5 445Q219 458 219 476Q219 481 216.5 486.5Q214 492 211 495Q203 503 190.5 507.5Q178 512 163.5 516Q149 520 135.5 525Q122 530 112 540Q106 546 101 555Q96 564 96 578Q96 612 119 633Q133 647 151 652.5Q169 658 193 658Q221 658 245.5 643.5Q270 629 270 598Q270 591 269 587H231Q233 601 223 613.5Q213 626 187 626Q167 626 152.5 616Q138 606 138 586Q138 575 145 568Q153 561 165 556.5Q177 552 191 548.5Q205 545 219 539.5Q233 534 243 524Q252 514 256.5 504.5Q261 495 261 478Q261 464 255 449.5Q249 435 238 424Q224 410 205 403.5Q186 397 168 397Z" glyph-name="servicemark" horiz-adv-x="582" unicode="&#8480;" /><glyph d="M131 0H66L68 13Q100 94 138.5 171.5Q177 249 225.5 322Q274 395 334 463.5Q394 532 467 593V595H111L120 650H563L554 597Q401 472 296.5 320Q192 168 131 0Z" glyph-name="seven" horiz-adv-x="521" unicode="7" /><glyph d="M242 -15Q198 -15 162 -1Q126 13 100.5 37.5Q75 62 61.5 97Q48 132 48 174Q48 243 81.5 309.5Q115 376 175 450Q201 482 231 511.5Q261 541 291 567Q321 593 348.5 614Q376 635 396 650H469L467 637Q429 609 386.5 574Q344 539 299 496Q289 486 273.5 471Q258 456 241.5 439Q225 422 210 405.5Q195 389 185 375L186 374Q207 390 244.5 401Q282 412 314 412Q352 412 388.5 399.5Q425 387 454 358Q477 335 490 303.5Q503 272 503 230Q503 182 484.5 139Q466 96 432 62Q396 26 346 5.5Q296 -15 242 -15ZM245 41Q286 41 321 56Q356 71 381.5 97Q407 123 421.5 157.5Q436 192 436 230Q436 285 402 320Q368 355 296 355Q256 355 222.5 340.5Q189 326 164.5 301Q140 276 126.5 243Q113 210 113 174Q113 149 120.5 125.5Q128 102 144 83Q160 64 185 52.5Q210 41 245 41Z" glyph-name="six" horiz-adv-x="560" unicode="6" /><glyph d="M54 -124H-1L1 -110L465 696H520L518 682Z" glyph-name="slash" horiz-adv-x="531" unicode="/" /><glyph glyph-name="space" horiz-adv-x="180" unicode=" " /><glyph d="M410 283H244Q249 265 251.5 247Q254 229 254 209Q254 184 249 155Q244 126 234 98Q268 84 299 67.5Q330 51 370 51Q390 51 403 58Q416 65 424.5 76.5Q433 88 437.5 102Q442 116 443 131H505L504 122Q494 65 462 28.5Q430 -8 370 -8Q337 -8 308 2Q279 12 253 23.5Q227 35 202 45Q177 55 152 55Q118 55 101.5 40.5Q85 26 80 0H17Q26 54 58.5 84.5Q91 115 153 115H163Q169 115 174 114Q182 137 186 159Q190 181 190 199Q190 222 186.5 242Q183 262 176 283H72L82 341H154Q145 364 135.5 395Q126 426 126 461Q126 499 138 534.5Q150 570 179 599Q211 631 254.5 648Q298 665 340 665Q415 665 461 627.5Q507 590 507 523Q507 514 506.5 503Q506 492 502 476H444Q446 484 446.5 494Q447 504 447 510Q447 529 442 546.5Q437 564 424.5 577.5Q412 591 391.5 599.5Q371 608 340 608Q308 608 281 596Q254 584 234.5 564Q215 544 204 517.5Q193 491 193 461Q193 446 196.5 429Q200 412 205.5 396Q211 380 216.5 366Q222 352 225 342V341H420Z" glyph-name="sterling" horiz-adv-x="570" unicode="&#163;" /><glyph d="M209 -9Q172 -9 147 3Q122 15 108.5 35.5Q95 56 91 83.5Q87 111 92 143L140 446H63L68 478Q97 484 117.5 498.5Q138 513 152.5 531.5Q167 550 176 571.5Q185 593 192 613H227L209 500H353L344 446H200L152 141Q147 110 151 91Q155 72 165 62Q175 52 189.5 48.5Q204 45 220 45Q254 45 293 70H308L300 14Q283 4 258.5 -2.5Q234 -9 209 -9Z" glyph-name="t" horiz-adv-x="372" unicode="t" /><glyph d="M222 -16Q156 -16 117 3Q78 22 58 49Q38 76 32.5 106.5Q27 137 29 161L30 167H95Q94 142 99.5 119Q105 96 120 79Q135 62 160 51.5Q185 41 222 41Q263 41 296 55Q329 69 352 93.5Q375 118 388 151.5Q401 185 401 223Q401 274 368 309Q335 344 269 344Q248 344 233.5 342Q219 340 206 338L195 344L190 389L410 595V597H119L128 650H504L497 601L284 403Q325 401 358.5 387Q392 373 416 349.5Q440 326 453.5 294Q467 262 467 223Q467 175 450.5 131.5Q434 88 402 56Q367 21 319.5 2.5Q272 -16 222 -16Z" glyph-name="three" horiz-adv-x="531" unicode="3" /><glyph d="M200 565H153Q158 608 184.5 636.5Q211 665 252 665Q275 665 291.5 657.5Q308 650 321 641.5Q334 633 346.5 625.5Q359 618 374 618Q391 618 406 628Q421 638 426 670H473Q468 627 442 598.5Q416 570 374 570Q350 570 334 577.5Q318 585 305 593.5Q292 602 279.5 609.5Q267 617 252 617Q235 617 220 607Q205 597 200 565Z" glyph-name="tilde" horiz-adv-x="500" unicode="&#732;" /><glyph d="M341 405H299L337 650H392L435 487L526 650H589L551 405H510L535 557Q537 570 539.5 583Q542 596 545 609H544Q536 594 529.5 581.5Q523 569 515 555L450 445H409L379 560Q377 571 374.5 584.5Q372 598 370 609H369Q367 584 364 559ZM185 405H141L173 612H102L108 650H294L288 612H217Z" glyph-name="trademark" horiz-adv-x="595" unicode="&#8482;" /><glyph d="M437 0H31L38 49Q113 109 186.5 172.5Q260 236 330 305Q374 349 407 399Q440 449 440 505Q440 548 412.5 579Q385 610 324 610Q251 610 207 563.5Q163 517 165 439L163 424H106Q101 469 115 519Q129 569 163 603Q192 632 234.5 648.5Q277 665 325 665Q408 665 456 622.5Q504 580 504 503Q504 449 475 393.5Q446 338 396 289Q364 258 329.5 225.5Q295 193 261.5 163Q228 133 196.5 106Q165 79 139 58V56H446Z" glyph-name="two" horiz-adv-x="542" unicode="2" /><glyph d="M241 -16Q206 -16 170.5 -5.5Q135 5 108.5 29Q82 53 68.5 92Q55 131 64 188L114 500H174L124 188Q118 147 125.5 119Q133 91 150 73.5Q167 56 191.5 48Q216 40 243 40Q267 40 292.5 46.5Q318 53 340 69.5Q362 86 378.5 114.5Q395 143 402 188L452 500H512L461 182Q452 125 429.5 87Q407 49 377 26Q347 3 311.5 -6.5Q276 -16 241 -16Z" glyph-name="u" horiz-adv-x="546" unicode="u" /><glyph d="M241 -16Q206 -16 170.5 -5.5Q135 5 108.5 29Q82 53 68.5 92Q55 131 64 188L114 500H174L124 188Q118 147 125.5 119Q133 91 150 73.5Q167 56 191.5 48Q216 40 243 40Q267 40 292.5 46.5Q318 53 340 69.5Q362 86 378.5 114.5Q395 143 402 188L452 500H512L461 182Q452 125 429.5 87Q407 49 377 26Q347 3 311.5 -6.5Q276 -16 241 -16ZM491 659 261 549 244 583 462 720Z" glyph-name="uacute" horiz-adv-x="546" unicode="&#250;" /><glyph d="M241 -16Q206 -16 170.5 -5.5Q135 5 108.5 29Q82 53 68.5 92Q55 131 64 188L114 500H174L124 188Q118 147 125.5 119Q133 91 150 73.5Q167 56 191.5 48Q216 40 243 40Q267 40 292.5 46.5Q318 53 340 69.5Q362 86 378.5 114.5Q395 143 402 188L452 500H512L461 182Q452 125 429.5 87Q407 49 377 26Q347 3 311.5 -6.5Q276 -16 241 -16ZM342 623 207 553 188 588 346 692 477 588 452 553Z" glyph-name="ucircumflex" horiz-adv-x="546" unicode="&#251;" /><glyph d="M241 -16Q206 -16 170.5 -5.5Q135 5 108.5 29Q82 53 68.5 92Q55 131 64 188L114 500H174L124 188Q118 147 125.5 119Q133 91 150 73.5Q167 56 191.5 48Q216 40 243 40Q267 40 292.5 46.5Q318 53 340 69.5Q362 86 378.5 114.5Q395 143 402 188L452 500H512L461 182Q452 125 429.5 87Q407 49 377 26Q347 3 311.5 -6.5Q276 -16 241 -16ZM245 558Q225 558 213.5 569.5Q202 581 202 599Q202 622 217 637Q226 646 236.5 649.5Q247 653 258 653Q276 653 288.5 642Q301 631 301 612Q301 589 285 573Q277 565 266 561.5Q255 558 245 558ZM409 558Q389 558 377.5 569.5Q366 581 366 599Q366 622 381 637Q390 646 400.5 649.5Q411 653 422 653Q440 653 452.5 642Q465 631 465 612Q465 589 449 573Q441 565 430 561.5Q419 558 409 558Z" glyph-name="udieresis" horiz-adv-x="546" unicode="&#252;" /><glyph d="M241 -16Q206 -16 170.5 -5.5Q135 5 108.5 29Q82 53 68.5 92Q55 131 64 188L114 500H174L124 188Q118 147 125.5 119Q133 91 150 73.5Q167 56 191.5 48Q216 40 243 40Q267 40 292.5 46.5Q318 53 340 69.5Q362 86 378.5 114.5Q395 143 402 188L452 500H512L461 182Q452 125 429.5 87Q407 49 377 26Q347 3 311.5 -6.5Q276 -16 241 -16ZM420 583 393 549 205 667 246 720Z" glyph-name="ugrave" horiz-adv-x="546" unicode="&#249;" /><glyph d="M206 -171H-69L-60 -115H215Z" glyph-name="underscore" horiz-adv-x="272" unicode="_" /><glyph d="M251 0H189L58 489L60 500H117L227 71H229L474 500H538L536 489Z" glyph-name="v" horiz-adv-x="518" unicode="v" /><glyph d="M225 0H156L77 489L79 500H138L202 82H204L401 500H476L542 82H544L740 500H802L800 489L567 0H498L430 426H428Z" glyph-name="w" horiz-adv-x="801" unicode="w" /><glyph d="M46 0H-20L-19 11L214 267L91 489L93 500H152L254 317L415 500H482L480 489L287 271L438 11L437 0H377L246 220Z" glyph-name="x" horiz-adv-x="507" unicode="x" /><glyph d="M136 -180H72L74 -169L183 17L58 489L60 500H119L225 85H227L466 500H529L527 489Z" glyph-name="y" horiz-adv-x="509" unicode="y" /><glyph d="M136 -180H72L74 -169L183 17L58 489L60 500H119L225 85H227L466 500H529L527 489ZM221 558Q201 558 189.5 569.5Q178 581 178 599Q178 622 193 637Q202 646 212.5 649.5Q223 653 234 653Q252 653 264.5 642Q277 631 277 612Q277 589 261 573Q253 565 242 561.5Q231 558 221 558ZM385 558Q365 558 353.5 569.5Q342 581 342 599Q342 622 357 637Q366 646 376.5 649.5Q387 653 398 653Q416 653 428.5 642Q441 631 441 612Q441 589 425 573Q417 565 406 561.5Q395 558 385 558Z" glyph-name="ydieresis" horiz-adv-x="509" unicode="&#255;" /><glyph d="M292 0H230L268 241H62L71 297H252L224 354H80L89 411H195L83 637L85 650H144L307 314L574 650H639L637 637L455 411H563L554 354H409L363 297H545L536 241H330Z" glyph-name="yen" horiz-adv-x="600" unicode="&#165;" /><glyph d="M389 0H33L40 45L376 444V446H106L115 500H463L455 451L123 56V54H397Z" glyph-name="z" horiz-adv-x="498" unicode="z" /><glyph d="M254 -14Q208 -14 172.5 3Q137 20 114 51.5Q91 83 79 127Q67 171 67 224Q67 278 75 331.5Q83 385 99 433.5Q115 482 139 524.5Q163 567 195 599Q228 632 270.5 648.5Q313 665 362 665Q455 665 502 600Q549 535 549 428Q549 375 541.5 322.5Q534 270 519 221.5Q504 173 481 131Q458 89 426 57Q392 23 348.5 4.5Q305 -14 254 -14ZM264 46Q320 46 361 79.5Q402 113 429.5 166.5Q457 220 470.5 286.5Q484 353 484 420Q484 461 477 494.5Q470 528 454 553Q438 578 413 591.5Q388 605 352 605Q297 605 255.5 571.5Q214 538 186.5 484.5Q159 431 145.5 364.5Q132 298 132 231Q132 191 139 157Q146 123 162 98Q178 73 203 59.5Q228 46 264 46Z" glyph-name="zero" horiz-adv-x="592" unicode="0" /></font>
</defs>
</svg>
