<?xml version="1.0" standalone="no"?><!DOCTYPE svg PUBLIC "-//W3C//DTD SVG 1.1//EN" "http://www.w3.org/Graphics/SVG/1.1/DTD/svg11.dtd" ><svg version="1.1" xmlns="http://www.w3.org/2000/svg"><defs><font horiz-adv-x="0" id="font"><font-face ascent="750" bbox="-176 -215 1065 903" cap-height="650" descent="-250" font-family="AT Fabriga Web Medium Italic" font-stretch="normal" font-style="normal" font-weight="600" units-per-em="1000" x-height="500" /><missing-glyph horiz-adv-x="180" /><glyph d="M105 0H-26L-24 16L332 650H464L620 16L618 0H496L467 132H175ZM333 426 234 241H443L403 426Q398 452 393 477Q388 502 386 527H384Q374 503 360.5 477.5Q347 452 333 426Z" glyph-name="A" horiz-adv-x="665" unicode="A" /><glyph d="M852 0H430L451 133H216L118 0H-26L-24 16L464 650H954L938 543H643L617 384H869L852 275H600L573 107H868ZM514 537 294 239H468Z" glyph-name="AE" horiz-adv-x="950" unicode="&#198;" /><glyph d="M105 0H-26L-24 16L332 650H464L620 16L618 0H496L467 132H175ZM333 426 234 241H443L403 426Q398 452 393 477Q388 502 386 527H384Q374 503 360.5 477.5Q347 452 333 426ZM564 800 287 688 260 760 524 903Z" glyph-name="Aacute" horiz-adv-x="665" unicode="&#193;" /><glyph d="M105 0H-26L-24 16L332 650H464L620 16L618 0H496L467 132H175ZM333 426 234 241H443L403 426Q398 452 393 477Q388 502 386 527H384Q374 503 360.5 477.5Q347 452 333 426ZM410 766 268 690 233 756 411 878H435L574 756L529 690Z" glyph-name="Acircumflex" horiz-adv-x="665" unicode="&#194;" /><glyph d="M105 0H-26L-24 16L332 650H464L620 16L618 0H496L467 132H175ZM333 426 234 241H443L403 426Q398 452 393 477Q388 502 386 527H384Q374 503 360.5 477.5Q347 452 333 426ZM511 707Q482 707 462.5 724Q443 741 443 769Q443 802 467.5 826.5Q492 851 530 851Q559 851 577.5 833.5Q596 816 596 789Q596 757 572.5 732Q549 707 511 707ZM309 707Q280 707 260.5 724Q241 741 241 769Q241 802 265.5 826.5Q290 851 328 851Q357 851 375.5 833.5Q394 816 394 789Q394 757 370.5 732Q347 707 309 707Z" glyph-name="Adieresis" horiz-adv-x="665" unicode="&#196;" /><glyph d="M105 0H-26L-24 16L332 650H464L620 16L618 0H496L467 132H175ZM333 426 234 241H443L403 426Q398 452 393 477Q388 502 386 527H384Q374 503 360.5 477.5Q347 452 333 426ZM540 754 500 688 259 800 324 900Z" glyph-name="Agrave" horiz-adv-x="665" unicode="&#192;" /><glyph d="M105 0H-26L-24 16L322 632Q298 658 298 693Q298 716 308 736.5Q318 757 334.5 773Q351 789 373.5 798Q396 807 420 807Q461 807 487.5 780.5Q514 754 514 717Q514 694 504 673.5Q494 653 477 637L469 629L620 16L618 0H496L467 132H175ZM333 426 234 241H443L403 426Q398 452 393 477Q388 502 386 527H384Q374 503 360.5 477.5Q347 452 333 426ZM399 663Q418 663 433.5 678Q449 693 449 713Q449 728 439 737.5Q429 747 413 747Q394 747 378.5 732.5Q363 718 363 698Q363 683 373 673Q383 663 399 663Z" glyph-name="Aring" horiz-adv-x="665" unicode="&#197;" /><glyph d="M105 0H-26L-24 16L332 650H464L620 16L618 0H496L467 132H175ZM333 426 234 241H443L403 426Q398 452 393 477Q388 502 386 527H384Q374 503 360.5 477.5Q347 452 333 426ZM315 705H231Q235 732 246.5 758Q258 784 275.5 804Q293 824 316.5 836.5Q340 849 368 849Q391 849 405.5 842Q420 835 432 827Q444 819 456 812Q468 805 485 805Q497 805 512 812Q527 819 532 850H616Q612 823 600.5 797Q589 771 571 751Q553 731 530 718.5Q507 706 478 706Q456 706 441 713Q426 720 414 728Q402 736 389.5 743Q377 750 359 750Q354 750 347 749Q340 748 334 743.5Q328 739 322.5 730Q317 721 315 705Z" glyph-name="Atilde" horiz-adv-x="665" unicode="&#195;" /><glyph d="M317 0H42L144 650H380Q423 650 460 640.5Q497 631 524.5 611.5Q552 592 567.5 563Q583 534 583 496Q583 448 556 401.5Q529 355 478 331V329Q513 318 538 286Q563 254 563 209Q563 165 546 127Q529 89 501 61Q440 0 317 0ZM211 277 184 107H319Q371 107 405 129Q439 151 439 200Q439 214 435.5 227.5Q432 241 423 252Q414 263 398 270Q382 277 357 277ZM254 543 228 382H361Q398 382 425.5 409Q453 436 453 477Q453 504 439 523.5Q425 543 390 543Z" glyph-name="B" horiz-adv-x="613" unicode="B" /><glyph d="M319 -15Q259 -15 209.5 4.5Q160 24 125 60Q90 96 70.5 147Q51 198 51 261Q51 301 58 342Q65 383 79.5 423Q94 463 115.5 499Q137 535 167 565Q218 616 284.5 640.5Q351 665 423 665Q480 665 528 647.5Q576 630 610 598.5Q644 567 662.5 524.5Q681 482 680 431L678 421H552Q554 477 520.5 515.5Q487 554 407 554Q355 554 313 529.5Q271 505 242 465.5Q213 426 197.5 376.5Q182 327 182 277Q182 238 192 205Q202 172 221.5 147.5Q241 123 270.5 109.5Q300 96 339 96Q377 96 406.5 107.5Q436 119 458 138.5Q480 158 496 184.5Q512 211 522 241H649L647 231Q628 170 596 124Q564 78 521.5 47Q479 16 427.5 0.5Q376 -15 319 -15Z" glyph-name="C" horiz-adv-x="689" unicode="C" /><glyph d="M246 -190Q194 -190 160 -177L173 -110H183Q201 -118 215 -121.5Q229 -125 241 -125Q249 -125 259 -124Q269 -123 278 -119Q287 -115 293 -109Q299 -103 299 -92Q299 -71 258 -71L255 -64L286 -13Q245 -9 209 4Q160 24 125 60Q90 96 70.5 147Q51 198 51 261Q51 301 58 342Q65 383 79.5 423Q94 463 115.5 499Q137 535 167 565Q218 616 284.5 640.5Q351 665 423 665Q480 665 528 647.5Q576 630 610 598.5Q644 567 662.5 524.5Q681 482 680 431L678 421H552Q554 477 520.5 515.5Q487 554 407 554Q355 554 313 529.5Q271 505 242 465.5Q213 426 197.5 376.5Q182 327 182 277Q182 238 192 205Q202 172 221.5 147.5Q241 123 270.5 109.5Q300 96 339 96Q377 96 406.5 107.5Q436 119 458 138.5Q480 158 496 184.5Q512 211 522 241H649L647 231Q628 170 596 124Q564 78 521.5 47Q479 16 427 0Q394 -9 358 -13L343 -46Q369 -51 379.5 -65.5Q390 -80 390 -96Q390 -122 376 -139.5Q362 -157 341 -168.5Q320 -180 294.5 -185Q269 -190 246 -190Z" glyph-name="Ccedilla" horiz-adv-x="689" unicode="&#199;" /><glyph d="M294 0H42L144 650H381Q443 650 495.5 632Q548 614 586.5 580.5Q625 547 646.5 497.5Q668 448 668 385Q668 349 661.5 310.5Q655 272 641.5 235Q628 198 607.5 164Q587 130 560 103Q504 47 439.5 23.5Q375 0 294 0ZM253 541 185 109H296Q353 109 398 129.5Q443 150 474.5 186Q506 222 522.5 270.5Q539 319 539 376Q539 451 497 496Q455 541 362 541Z" glyph-name="D" horiz-adv-x="694" unicode="D" /><glyph d="M465 0H42L144 650H567L550 541H253L228 383H482L465 274H211L185 109H482Z" glyph-name="E" horiz-adv-x="553" unicode="E" /><glyph d="M465 0H42L144 650H567L550 541H253L228 383H482L465 274H211L185 109H482ZM520 800 243 688 216 760 480 903Z" glyph-name="Eacute" horiz-adv-x="553" unicode="&#201;" /><glyph d="M465 0H42L144 650H567L550 541H253L228 383H482L465 274H211L185 109H482ZM358 766 216 690 181 756 359 878H383L522 756L477 690Z" glyph-name="Ecircumflex" horiz-adv-x="553" unicode="&#202;" /><glyph d="M465 0H42L144 650H567L550 541H253L228 383H482L465 274H211L185 109H482ZM467 707Q438 707 418.5 724Q399 741 399 769Q399 802 423.5 826.5Q448 851 486 851Q515 851 533.5 833.5Q552 816 552 789Q552 757 528.5 732Q505 707 467 707ZM265 707Q236 707 216.5 724Q197 741 197 769Q197 802 221.5 826.5Q246 851 284 851Q313 851 331.5 833.5Q350 816 350 789Q350 757 326.5 732Q303 707 265 707Z" glyph-name="Edieresis" horiz-adv-x="553" unicode="&#203;" /><glyph d="M465 0H42L144 650H567L550 541H253L228 383H482L465 274H211L185 109H482ZM496 754 456 688 215 800 280 900Z" glyph-name="Egrave" horiz-adv-x="553" unicode="&#200;" /><glyph d="M353 -15Q301 -15 259.5 2.5Q218 20 188 52Q158 84 139.5 128.5Q121 173 115 227H4L33 298H117Q119 312 120.5 326Q122 340 125 354H55L82 425H141Q161 478 189.5 522Q218 566 256.5 598Q295 630 343.5 647.5Q392 665 451 665Q497 665 538.5 651Q580 637 610.5 609.5Q641 582 658 540Q675 498 672 442L670 432H550Q555 489 527.5 523Q500 557 443 557Q382 557 342 524Q302 491 276 425H476L449 354H253Q250 341 248 328Q246 315 244 298H427L398 227H245Q253 164 284 128Q315 92 369 92Q426 92 463.5 127.5Q501 163 518 228H637L635 218Q603 97 529.5 41Q456 -15 353 -15Z" glyph-name="Euro" horiz-adv-x="687" unicode="&#8364;" /><glyph d="M168 0H42L144 650H577L560 541H253L225 366H489L472 257H208Z" glyph-name="F" horiz-adv-x="554" unicode="F" /><glyph d="M341 -15Q273 -15 219 5.5Q165 26 127.5 62.5Q90 99 70 149.5Q50 200 50 260Q50 342 76 421Q102 500 162 560Q214 612 286.5 638.5Q359 665 437 665Q556 665 622 610.5Q688 556 689 465L688 455H563Q559 506 526.5 531Q494 556 425 556Q367 556 321 533.5Q275 511 243.5 472Q212 433 195.5 381.5Q179 330 179 273Q179 194 224 144Q269 94 366 94Q420 94 463.5 111.5Q507 129 537 152L551 243H375L392 352H691L653 114Q628 86 593 62.5Q558 39 517 22Q476 5 431 -5Q386 -15 341 -15Z" glyph-name="G" horiz-adv-x="739" unicode="G" /><glyph d="M168 0H42L144 650H270L228 383H545L587 650H713L611 0H485L528 274H211Z" glyph-name="H" horiz-adv-x="731" unicode="H" /><glyph d="M168 0H42L144 650H270Z" glyph-name="I" horiz-adv-x="288" unicode="I" /><glyph d="M388 800 111 688 84 760 348 903ZM168 0H42L144 650H270Z" glyph-name="Iacute" horiz-adv-x="288" unicode="&#205;" /><glyph d="M222 766 80 690 45 756 223 878H247L386 756L341 690ZM168 0H42L144 650H270Z" glyph-name="Icircumflex" horiz-adv-x="288" unicode="&#206;" /><glyph d="M168 0H42L144 650H270ZM325 707Q296 707 276.5 724Q257 741 257 769Q257 802 281.5 826.5Q306 851 344 851Q373 851 391.5 833.5Q410 816 410 789Q410 757 386.5 732Q363 707 325 707ZM123 707Q94 707 74.5 724Q55 741 55 769Q55 802 79.5 826.5Q104 851 142 851Q171 851 189.5 833.5Q208 816 208 789Q208 757 184.5 732Q161 707 123 707Z" glyph-name="Idieresis" horiz-adv-x="288" unicode="&#207;" /><glyph d="M364 754 324 688 83 800 148 900ZM168 0H42L144 650H270Z" glyph-name="Igrave" horiz-adv-x="288" unicode="&#204;" /><glyph d="M103 -16Q77 -16 47 -12.5Q17 -9 -8 2L9 111H26Q64 95 102 95Q146 95 177.5 117.5Q209 140 219 201L290 650H412L338 179Q322 76 260 30Q198 -16 103 -16Z" glyph-name="J" horiz-adv-x="430" unicode="J" /><glyph d="M168 0H42L144 650H270L226 371L509 650H657L655 634L344 333L580 17L578 0H438L215 303Z" glyph-name="K" horiz-adv-x="635" unicode="K" /><glyph d="M455 0H42L144 650H270L185 109H472Z" glyph-name="L" horiz-adv-x="533" unicode="L" /><glyph d="M134 0H12L14 16L210 650H335L446 181L725 650H843L834 16L832 0H715L719 338Q719 369 722 411Q725 453 731 495H729Q721 469 713.5 448.5Q706 428 698 410Q690 392 681.5 375Q673 358 662 340L471 10H377L295 340Q284 386 278 420Q272 454 270 497H268Q263 456 255.5 416Q248 376 237 338Z" glyph-name="M" horiz-adv-x="925" unicode="M" /><glyph d="M167 0H42L144 650H275L447 336Q466 302 482.5 268Q499 234 516 191H518Q523 228 528.5 272.5Q534 317 540 355L585 650H713L611 0H491L306 328Q289 363 272 399Q255 435 240 474H238Q234 436 228.5 395Q223 354 217 316Z" glyph-name="N" horiz-adv-x="731" unicode="N" /><glyph glyph-name="NULL" horiz-adv-x="0" /><glyph d="M343 705H259Q263 732 274.5 758Q286 784 303.5 804Q321 824 344.5 836.5Q368 849 396 849Q419 849 433.5 842Q448 835 460 827Q472 819 484 812Q496 805 513 805Q525 805 540 812Q555 819 560 850H644Q640 823 628.5 797Q617 771 599 751Q581 731 558 718.5Q535 706 506 706Q484 706 469 713Q454 720 442 728Q430 736 417.5 743Q405 750 387 750Q382 750 375 749Q368 748 362 743.5Q356 739 350.5 730Q345 721 343 705ZM167 0H42L144 650H275L447 336Q466 302 482.5 268Q499 234 516 191H518Q523 228 528.5 272.5Q534 317 540 355L585 650H713L611 0H491L306 328Q289 363 272 399Q255 435 240 474H238Q234 436 228.5 395Q223 354 217 316Z" glyph-name="Ntilde" horiz-adv-x="731" unicode="&#209;" /><glyph d="M336 -15Q274 -15 221.5 5.5Q169 26 131 62.5Q93 99 71.5 150Q50 201 50 261Q50 343 76.5 418.5Q103 494 163 554Q217 608 288 636.5Q359 665 436 665Q498 665 550.5 644Q603 623 641 585.5Q679 548 700.5 496.5Q722 445 722 384Q722 306 693.5 228Q665 150 606 91Q552 37 482.5 11Q413 -15 336 -15ZM354 96Q408 96 452.5 119.5Q497 143 528 181.5Q559 220 576 270Q593 320 593 374Q593 412 581.5 445Q570 478 548 502Q526 526 493 540Q460 554 418 554Q364 554 319.5 530.5Q275 507 244 469Q213 431 196 381.5Q179 332 179 279Q179 240 190.5 206.5Q202 173 224 148.5Q246 124 279 110Q312 96 354 96Z" glyph-name="O" horiz-adv-x="748" unicode="O" /><glyph d="M963 0H540L549 61Q522 36 490 19Q430 -13 336 -15Q274 -15 221.5 6Q169 27 131 64.5Q93 102 71.5 154Q50 206 50 267Q50 345 77.5 424Q105 503 164 562Q219 617 288.5 641Q358 665 437 665Q498 665 545.5 645Q593 625 625 589L631 581L642 650H1065L1048 541H751L726 383H980L963 274H709L683 109H980ZM354 96Q408 96 452.5 119.5Q497 143 528 181.5Q559 220 576 270Q593 320 593 374Q593 412 582.5 445Q572 478 550 502Q528 526 495 540Q462 554 418 554Q364 553 319.5 530.5Q275 508 244 470.5Q213 433 196 383.5Q179 334 179 279Q179 240 190.5 206.5Q202 173 224 148.5Q246 124 279 110Q312 96 354 96Z" glyph-name="OE" horiz-adv-x="1061" unicode="&#338;" /><glyph d="M623 800 346 688 319 760 583 903ZM336 -15Q274 -15 221.5 5.5Q169 26 131 62.5Q93 99 71.5 150Q50 201 50 261Q50 343 76.5 418.5Q103 494 163 554Q217 608 288 636.5Q359 665 436 665Q498 665 550.5 644Q603 623 641 585.5Q679 548 700.5 496.5Q722 445 722 384Q722 306 693.5 228Q665 150 606 91Q552 37 482.5 11Q413 -15 336 -15ZM354 96Q408 96 452.5 119.5Q497 143 528 181.5Q559 220 576 270Q593 320 593 374Q593 412 581.5 445Q570 478 548 502Q526 526 493 540Q460 554 418 554Q364 554 319.5 530.5Q275 507 244 469Q213 431 196 381.5Q179 332 179 279Q179 240 190.5 206.5Q202 173 224 148.5Q246 124 279 110Q312 96 354 96Z" glyph-name="Oacute" horiz-adv-x="748" unicode="&#211;" /><glyph d="M449 766 307 690 272 756 450 878H474L613 756L568 690ZM336 -15Q274 -15 221.5 5.5Q169 26 131 62.5Q93 99 71.5 150Q50 201 50 261Q50 343 76.5 418.5Q103 494 163 554Q217 608 288 636.5Q359 665 436 665Q498 665 550.5 644Q603 623 641 585.5Q679 548 700.5 496.5Q722 445 722 384Q722 306 693.5 228Q665 150 606 91Q552 37 482.5 11Q413 -15 336 -15ZM354 96Q408 96 452.5 119.5Q497 143 528 181.5Q559 220 576 270Q593 320 593 374Q593 412 581.5 445Q570 478 548 502Q526 526 493 540Q460 554 418 554Q364 554 319.5 530.5Q275 507 244 469Q213 431 196 381.5Q179 332 179 279Q179 240 190.5 206.5Q202 173 224 148.5Q246 124 279 110Q312 96 354 96Z" glyph-name="Ocircumflex" horiz-adv-x="748" unicode="&#212;" /><glyph d="M550 707Q521 707 501.5 724Q482 741 482 769Q482 802 506.5 826.5Q531 851 569 851Q598 851 616.5 833.5Q635 816 635 789Q635 757 611.5 732Q588 707 550 707ZM348 707Q319 707 299.5 724Q280 741 280 769Q280 802 304.5 826.5Q329 851 367 851Q396 851 414.5 833.5Q433 816 433 789Q433 757 409.5 732Q386 707 348 707ZM336 -15Q274 -15 221.5 5.5Q169 26 131 62.5Q93 99 71.5 150Q50 201 50 261Q50 343 76.5 418.5Q103 494 163 554Q217 608 288 636.5Q359 665 436 665Q498 665 550.5 644Q603 623 641 585.5Q679 548 700.5 496.5Q722 445 722 384Q722 306 693.5 228Q665 150 606 91Q552 37 482.5 11Q413 -15 336 -15ZM354 96Q408 96 452.5 119.5Q497 143 528 181.5Q559 220 576 270Q593 320 593 374Q593 412 581.5 445Q570 478 548 502Q526 526 493 540Q460 554 418 554Q364 554 319.5 530.5Q275 507 244 469Q213 431 196 381.5Q179 332 179 279Q179 240 190.5 206.5Q202 173 224 148.5Q246 124 279 110Q312 96 354 96Z" glyph-name="Odieresis" horiz-adv-x="748" unicode="&#214;" /><glyph d="M599 754 559 688 318 800 383 900ZM336 -15Q274 -15 221.5 5.5Q169 26 131 62.5Q93 99 71.5 150Q50 201 50 261Q50 343 76.5 418.5Q103 494 163 554Q217 608 288 636.5Q359 665 436 665Q498 665 550.5 644Q603 623 641 585.5Q679 548 700.5 496.5Q722 445 722 384Q722 306 693.5 228Q665 150 606 91Q552 37 482.5 11Q413 -15 336 -15ZM354 96Q408 96 452.5 119.5Q497 143 528 181.5Q559 220 576 270Q593 320 593 374Q593 412 581.5 445Q570 478 548 502Q526 526 493 540Q460 554 418 554Q364 554 319.5 530.5Q275 507 244 469Q213 431 196 381.5Q179 332 179 279Q179 240 190.5 206.5Q202 173 224 148.5Q246 124 279 110Q312 96 354 96Z" glyph-name="Ograve" horiz-adv-x="748" unicode="&#210;" /><glyph d="M336 -15Q287 -15 244 -2L207 -65H95L98 -50L153 43Q141 52 131 62Q93 99 71.5 150Q50 201 50 261Q50 343 76.5 418.5Q103 494 163 554Q217 608 288 636.5Q359 665 436 665Q476 665 512 656L547 715H660L657 700L606 614Q625 601 641 585Q679 548 700.5 496.5Q722 445 722 384Q722 306 693.5 228Q665 150 606 91Q552 37 482.5 11Q413 -15 336 -15ZM354 96Q408 96 452.5 119.5Q497 143 528 181.5Q559 220 576 270Q593 320 593 374Q593 412 581.5 445Q570 478 548 502Q546 504 543 506L305 101Q328 96 354 96ZM418 554Q364 554 319.5 530.5Q275 507 244 469Q213 431 196 381.5Q179 332 179 279Q179 240 190 206Q200 177 218 155L451 551Q435 554 418 554Z" glyph-name="Oslash" horiz-adv-x="748" unicode="&#216;" /><glyph d="M354 705H270Q274 732 285.5 758Q297 784 314.5 804Q332 824 355.5 836.5Q379 849 407 849Q430 849 444.5 842Q459 835 471 827Q483 819 495 812Q507 805 524 805Q536 805 551 812Q566 819 571 850H655Q651 823 639.5 797Q628 771 610 751Q592 731 569 718.5Q546 706 517 706Q495 706 480 713Q465 720 453 728Q441 736 428.5 743Q416 750 398 750Q393 750 386 749Q379 748 373 743.5Q367 739 361.5 730Q356 721 354 705ZM336 -15Q274 -15 221.5 5.5Q169 26 131 62.5Q93 99 71.5 150Q50 201 50 261Q50 343 76.5 418.5Q103 494 163 554Q217 608 288 636.5Q359 665 436 665Q498 665 550.5 644Q603 623 641 585.5Q679 548 700.5 496.5Q722 445 722 384Q722 306 693.5 228Q665 150 606 91Q552 37 482.5 11Q413 -15 336 -15ZM354 96Q408 96 452.5 119.5Q497 143 528 181.5Q559 220 576 270Q593 320 593 374Q593 412 581.5 445Q570 478 548 502Q526 526 493 540Q460 554 418 554Q364 554 319.5 530.5Q275 507 244 469Q213 431 196 381.5Q179 332 179 279Q179 240 190.5 206.5Q202 173 224 148.5Q246 124 279 110Q312 96 354 96Z" glyph-name="Otilde" horiz-adv-x="748" unicode="&#213;" /><glyph d="M168 0H42L144 650H423Q464 650 500.5 637Q537 624 564 600Q591 576 607 541Q623 506 623 461Q623 408 604 356Q585 304 545 264Q503 222 445 205Q387 188 326 188H197ZM253 541 215 297H344Q410 297 451.5 339Q493 381 493 449Q493 492 470.5 516.5Q448 541 395 541Z" glyph-name="P" horiz-adv-x="617" unicode="P" /><glyph d="M336 -15Q274 -15 221.5 5.5Q169 26 131 62.5Q93 99 71.5 150Q50 201 50 261Q50 343 76.5 418.5Q103 494 163 554Q217 608 288 636.5Q359 665 436 665Q498 665 550.5 644Q603 623 641 585.5Q679 548 700.5 496.5Q722 445 722 384Q722 306 693.5 228Q665 150 606 91Q563 48 511 23L597 -99L594 -114H461L389 -12Q363 -15 336 -15ZM354 96Q408 96 452.5 119.5Q497 143 528 181.5Q559 220 576 270Q593 320 593 374Q593 412 581.5 445Q570 478 548 502Q526 526 493 540Q460 554 418 554Q364 554 319.5 530.5Q275 507 244 469Q213 431 196 381.5Q179 332 179 279Q179 240 190.5 206.5Q202 173 224 148.5Q246 124 279 110Q312 96 354 96Z" glyph-name="Q" horiz-adv-x="748" unicode="Q" /><glyph d="M168 0H42L144 650H410Q451 650 487.5 638.5Q524 627 551.5 604.5Q579 582 595 549.5Q611 517 611 475Q611 428 595.5 385.5Q580 343 542 305Q516 279 485 266Q454 253 420 244L563 16L561 0H430L293 228H204ZM253 541 221 340H350Q377 340 401 348.5Q425 357 443 373Q461 389 471.5 412Q482 435 482 464Q482 500 458.5 520.5Q435 541 381 541Z" glyph-name="R" horiz-adv-x="629" unicode="R" /><glyph d="M263 -16Q215 -16 172.5 -3.5Q130 9 99 33.5Q68 58 51 95Q34 132 37 180L39 190H159Q157 136 190.5 112Q224 88 281 88Q303 88 325.5 94Q348 100 366 112.5Q384 125 395 145Q406 165 406 193Q406 204 403 214.5Q400 225 391 234Q372 253 338 264Q304 275 265.5 285.5Q227 296 190 310Q153 324 127 349Q106 370 96.5 396Q87 422 87 451Q87 504 107.5 543.5Q128 583 163 609.5Q198 636 244 649Q290 662 342 662Q383 662 423 652.5Q463 643 494 622Q525 601 543 567.5Q561 534 558 485L557 475H442Q443 510 420 535.5Q397 561 337 561Q318 561 297 556.5Q276 552 258.5 541.5Q241 531 229.5 514Q218 497 218 472Q218 446 234 430Q252 412 284 402.5Q316 393 352.5 383Q389 373 425.5 358.5Q462 344 488 318Q506 300 519.5 271.5Q533 243 533 204Q533 148 511 106.5Q489 65 452 38Q415 11 366 -2.5Q317 -16 263 -16Z" glyph-name="S" horiz-adv-x="585" unicode="S" /><glyph d="M320 0H194L279 541H87L104 650H606L589 541H405Z" glyph-name="T" horiz-adv-x="584" unicode="T" /><glyph d="M307 -15Q174 -15 114.5 52Q55 119 75 244L139 650H265L197 219Q186 152 220.5 122Q255 92 321 92Q348 92 374.5 99.5Q401 107 422.5 123Q444 139 459.5 162.5Q475 186 480 219L548 650H670L603 226Q583 101 510.5 43Q438 -15 307 -15Z" glyph-name="U" horiz-adv-x="683" unicode="U" /><glyph d="M608 800 331 688 304 760 568 903ZM307 -15Q174 -15 114.5 52Q55 119 75 244L139 650H265L197 219Q186 152 220.5 122Q255 92 321 92Q348 92 374.5 99.5Q401 107 422.5 123Q444 139 459.5 162.5Q475 186 480 219L548 650H670L603 226Q583 101 510.5 43Q438 -15 307 -15Z" glyph-name="Uacute" horiz-adv-x="683" unicode="&#218;" /><glyph d="M414 766 272 690 237 756 415 878H439L578 756L533 690ZM307 -15Q174 -15 114.5 52Q55 119 75 244L139 650H265L197 219Q186 152 220.5 122Q255 92 321 92Q348 92 374.5 99.5Q401 107 422.5 123Q444 139 459.5 162.5Q475 186 480 219L548 650H670L603 226Q583 101 510.5 43Q438 -15 307 -15Z" glyph-name="Ucircumflex" horiz-adv-x="683" unicode="&#219;" /><glyph d="M515 707Q486 707 466.5 724Q447 741 447 769Q447 802 471.5 826.5Q496 851 534 851Q563 851 581.5 833.5Q600 816 600 789Q600 757 576.5 732Q553 707 515 707ZM313 707Q284 707 264.5 724Q245 741 245 769Q245 802 269.5 826.5Q294 851 332 851Q361 851 379.5 833.5Q398 816 398 789Q398 757 374.5 732Q351 707 313 707ZM307 -15Q174 -15 114.5 52Q55 119 75 244L139 650H265L197 219Q186 152 220.5 122Q255 92 321 92Q348 92 374.5 99.5Q401 107 422.5 123Q444 139 459.5 162.5Q475 186 480 219L548 650H670L603 226Q583 101 510.5 43Q438 -15 307 -15Z" glyph-name="Udieresis" horiz-adv-x="683" unicode="&#220;" /><glyph d="M554 754 514 688 273 800 338 900ZM307 -15Q174 -15 114.5 52Q55 119 75 244L139 650H265L197 219Q186 152 220.5 122Q255 92 321 92Q348 92 374.5 99.5Q401 107 422.5 123Q444 139 459.5 162.5Q475 186 480 219L548 650H670L603 226Q583 101 510.5 43Q438 -15 307 -15Z" glyph-name="Ugrave" horiz-adv-x="683" unicode="&#217;" /><glyph d="M355 0H239L74 634L76 650H197L294 255Q301 229 306.5 195Q312 161 314 130H316Q328 160 343 194Q358 228 373 255L589 650H722L720 634Z" glyph-name="V" horiz-adv-x="672" unicode="V" /><glyph d="M289 0H163L68 634L70 650H187L239 281Q243 252 244.5 214Q246 176 246 144H248Q256 175 268.5 213.5Q281 252 293 281L457 650H594L644 281Q647 252 649.5 213Q652 174 651 144H653Q661 173 673 212.5Q685 252 698 281L857 650H977L975 634L692 0H564L506 499H504Z" glyph-name="W" horiz-adv-x="921" unicode="W" /><glyph d="M118 0H-17L-15 17L267 341L117 634L119 650H245L348 435L514 650H648L646 634L408 344L582 17L580 0H455L328 245Z" glyph-name="X" horiz-adv-x="641" unicode="X" /><glyph d="M337 0H211L252 259L70 634L72 650H197L327 362L550 650H682L680 634L378 259Z" glyph-name="Y" horiz-adv-x="628" unicode="Y" /><glyph d="M494 707Q465 707 445.5 724Q426 741 426 769Q426 802 450.5 826.5Q475 851 513 851Q542 851 560.5 833.5Q579 816 579 789Q579 757 555.5 732Q532 707 494 707ZM292 707Q263 707 243.5 724Q224 741 224 769Q224 802 248.5 826.5Q273 851 311 851Q340 851 358.5 833.5Q377 816 377 789Q377 757 353.5 732Q330 707 292 707ZM337 0H211L252 259L70 634L72 650H197L327 362L550 650H682L680 634L378 259Z" glyph-name="Ydieresis" horiz-adv-x="628" unicode="&#376;" /><glyph d="M509 0H19L31 77L429 539V541H121L138 650H620L609 577L212 111V109H526Z" glyph-name="Z" horiz-adv-x="602" unicode="Z" /><glyph d="M235 -15Q197 -15 162 -1Q127 13 100.5 40Q74 67 58 106Q42 145 42 194Q42 263 63 325.5Q84 388 131 435Q173 478 220.5 496.5Q268 515 321 515Q372 515 410 496.5Q448 478 471 446H473L500 500H590L511 0H422L412 60H410Q377 21 331 3Q285 -15 235 -15ZM276 85Q314 85 343.5 103.5Q373 122 393 151Q413 180 423 217.5Q433 255 433 292Q433 345 408 381.5Q383 418 327 418Q288 418 258 399Q228 380 208 351Q188 322 178 286Q168 250 168 216Q168 153 194 119Q220 85 276 85Z" glyph-name="a" horiz-adv-x="621" unicode="a" /><glyph d="M235 -15Q197 -15 162 -1Q127 13 100.5 40Q74 67 58 106Q42 145 42 194Q42 263 63 325.5Q84 388 131 435Q173 478 220.5 496.5Q268 515 321 515Q372 515 410 496.5Q448 478 471 446H473L500 500H590L511 0H422L412 60H410Q377 21 331 3Q285 -15 235 -15ZM276 85Q314 85 343.5 103.5Q373 122 393 151Q413 180 423 217.5Q433 255 433 292Q433 345 408 381.5Q383 418 327 418Q288 418 258 399Q228 380 208 351Q188 322 178 286Q168 250 168 216Q168 153 194 119Q220 85 276 85ZM507 650 230 538 203 610 467 753Z" glyph-name="aacute" horiz-adv-x="621" unicode="&#225;" /><glyph d="M235 -15Q197 -15 162 -1Q127 13 100.5 40Q74 67 58 106Q42 145 42 194Q42 263 63 325.5Q84 388 131 435Q173 478 220.5 496.5Q268 515 321 515Q372 515 410 496.5Q448 478 471 446H473L500 500H590L511 0H422L412 60H410Q377 21 331 3Q285 -15 235 -15ZM276 85Q314 85 343.5 103.5Q373 122 393 151Q413 180 423 217.5Q433 255 433 292Q433 345 408 381.5Q383 418 327 418Q288 418 258 399Q228 380 208 351Q188 322 178 286Q168 250 168 216Q168 153 194 119Q220 85 276 85ZM339 616 197 540 162 606 340 728H364L503 606L458 540Z" glyph-name="acircumflex" horiz-adv-x="621" unicode="&#226;" /><glyph d="M464 650 187 538 160 610 424 753Z" glyph-name="acute" horiz-adv-x="500" unicode="&#180;" /><glyph d="M235 -15Q197 -15 162 -1Q127 13 100.5 40Q74 67 58 106Q42 145 42 194Q42 263 63 325.5Q84 388 131 435Q173 478 220.5 496.5Q268 515 321 515Q372 515 410 496.5Q448 478 471 446H473L500 500H590L511 0H422L412 60H410Q377 21 331 3Q285 -15 235 -15ZM276 85Q314 85 343.5 103.5Q373 122 393 151Q413 180 423 217.5Q433 255 433 292Q433 345 408 381.5Q383 418 327 418Q288 418 258 399Q228 380 208 351Q188 322 178 286Q168 250 168 216Q168 153 194 119Q220 85 276 85ZM443 557Q414 557 394.5 574Q375 591 375 619Q375 652 399.5 676.5Q424 701 462 701Q491 701 509.5 683.5Q528 666 528 639Q528 607 504.5 582Q481 557 443 557ZM241 557Q212 557 192.5 574Q173 591 173 619Q173 652 197.5 676.5Q222 701 260 701Q289 701 307.5 683.5Q326 666 326 639Q326 607 302.5 582Q279 557 241 557Z" glyph-name="adieresis" horiz-adv-x="621" unicode="&#228;" /><glyph d="M197 -16Q160 -16 128 -6Q96 4 72.5 22Q49 40 36 66Q23 92 23 125Q23 174 44 209.5Q65 245 99.5 268Q134 291 179 302Q224 313 271 313Q292 313 316.5 310Q341 307 363 302L366 320Q369 342 369.5 361Q370 380 363.5 394Q357 408 341 416Q325 424 295 424Q263 424 234 409Q205 394 196 353H87L89 365Q98 403 118.5 431.5Q139 460 167 478.5Q195 497 229 506Q263 515 299 515Q350 515 395 501.5Q440 488 465 456L470 449Q507 482 552 498.5Q597 515 645 515Q687 515 721.5 500Q756 485 780.5 456.5Q805 428 818.5 388Q832 348 832 298Q832 279 828.5 256.5Q825 234 818 212H486Q484 155 508.5 119Q533 83 582 83Q618 83 641.5 97.5Q665 112 682 145H803Q774 65 711 24.5Q648 -16 568 -16Q511 -16 467.5 8Q424 32 397 74Q360 32 311 8Q262 -16 197 -16ZM227 86Q247 86 268 93.5Q289 101 306 114Q323 127 335.5 144Q348 161 352 180Q351 187 351.5 194Q352 201 353 209Q335 216 309.5 220.5Q284 225 258 225Q240 225 221 220.5Q202 216 185.5 207Q169 198 158.5 184Q148 170 148 150Q148 114 169.5 100Q191 86 227 86ZM711 307Q712 311 712 315V323Q712 363 693.5 389.5Q675 416 633 416Q582 416 551.5 386Q521 356 504 307Z" glyph-name="ae" horiz-adv-x="870" unicode="&#230;" /><glyph d="M235 -15Q197 -15 162 -1Q127 13 100.5 40Q74 67 58 106Q42 145 42 194Q42 263 63 325.5Q84 388 131 435Q173 478 220.5 496.5Q268 515 321 515Q372 515 410 496.5Q448 478 471 446H473L500 500H590L511 0H422L412 60H410Q377 21 331 3Q285 -15 235 -15ZM276 85Q314 85 343.5 103.5Q373 122 393 151Q413 180 423 217.5Q433 255 433 292Q433 345 408 381.5Q383 418 327 418Q288 418 258 399Q228 380 208 351Q188 322 178 286Q168 250 168 216Q168 153 194 119Q220 85 276 85ZM493 603 453 537 212 649 277 749Z" glyph-name="agrave" horiz-adv-x="621" unicode="&#224;" /><glyph d="M269 -15Q224 -15 185 -4.5Q146 6 117 27.5Q88 49 71.5 81Q55 113 55 155Q55 193 67.5 224.5Q80 256 102 283Q124 310 154 332Q184 354 218 372Q206 398 195.5 435.5Q185 473 185 505Q185 545 198.5 579.5Q212 614 237.5 639.5Q263 665 299 679.5Q335 694 379 694Q419 694 448 681.5Q477 669 495.5 649Q514 629 523 605Q532 581 532 558Q532 520 517 487.5Q502 455 477 427.5Q452 400 421.5 378Q391 356 359 338Q379 306 402.5 274Q426 242 452 210Q459 201 468 190Q477 179 485 171Q500 193 510.5 219Q521 245 521 274Q521 300 515 322Q509 344 500 362L503 379H608Q620 355 624.5 321Q629 287 629 264Q629 217 611 176.5Q593 136 561 98Q586 76 610.5 56Q635 36 654 22L651 6L529 -13Q516 -5 498.5 6Q481 17 464 32Q426 11 378.5 -2Q331 -15 269 -15ZM289 79Q315 79 345.5 86Q376 93 396 103Q385 114 374.5 127Q364 140 353 154Q328 185 303 219.5Q278 254 256 290Q224 273 198.5 241.5Q173 210 173 167Q173 122 206 100.5Q239 79 289 79ZM322 416Q340 425 359 438.5Q378 452 393.5 469Q409 486 419 506.5Q429 527 429 551Q429 577 414.5 592.5Q400 608 370 608Q356 608 342 601Q328 594 317.5 581.5Q307 569 300.5 552.5Q294 536 294 517Q294 492 301 465Q308 438 322 416Z" glyph-name="ampersand" horiz-adv-x="715" unicode="&amp;" /><glyph d="M95 341 86 340 103 444Q137 462 172.5 470Q208 478 246 478Q276 478 305 473.5Q334 469 363 464Q392 459 421 454.5Q450 450 479 450Q515 450 549.5 457.5Q584 465 621 484L628 485L612 381Q542 343 462 343Q432 343 403 347Q374 351 345 356.5Q316 362 287 366Q258 370 228 370Q196 370 163 364Q130 358 95 341ZM63 143H55L71 246Q105 264 141 272Q177 280 215 280Q245 280 274 275.5Q303 271 331.5 266Q360 261 389 256.5Q418 252 447 252Q483 252 518 259.5Q553 267 590 286L597 287L581 184Q544 164 507.5 155Q471 146 431 146Q401 146 372 150Q343 154 314 159.5Q285 165 256 169Q227 173 197 173Q165 173 131.5 166.5Q98 160 63 143Z" glyph-name="approxequal" horiz-adv-x="663" unicode="&#8776;" /><glyph d="M235 -15Q197 -15 162 -1Q127 13 100.5 40Q74 67 58 106Q42 145 42 194Q42 263 63 325.5Q84 388 131 435Q173 478 220 496Q239 504 259 508Q236 533 236 568Q236 591 246 611.5Q256 632 272.5 648Q289 664 311.5 673Q334 682 358 682Q399 682 425.5 655.5Q452 629 452 592Q452 569 442 548.5Q432 528 415 512Q409 505 401 500Q406 498 410 496Q448 478 471 446H473L500 500H590L511 0H422L412 60H410Q377 21 331 3Q285 -15 235 -15ZM276 85Q314 85 343.5 103.5Q373 122 393 151Q413 180 423 217.5Q433 255 433 292Q433 345 408 381.5Q383 418 327 418Q288 418 258 399Q228 380 208 351Q188 322 178 286Q168 250 168 216Q168 153 194 119Q220 85 276 85ZM337 538Q356 538 371.5 553Q387 568 387 588Q387 603 377 612.5Q367 622 351 622Q332 622 316.5 607.5Q301 593 301 573Q301 558 311 548Q321 538 337 538Z" glyph-name="aring" horiz-adv-x="621" unicode="&#229;" /><glyph d="M164 376H45L247 650H343L459 376H351L283 542Z" glyph-name="asciicircum" horiz-adv-x="464" unicode="^" /><glyph d="M60 222 75 318Q110 338 144.5 347.5Q179 357 208 357Q237 357 262.5 350.5Q288 344 312.5 336.5Q337 329 362.5 322.5Q388 316 416 316Q446 316 479.5 326Q513 336 548 358L533 262Q498 242 465 233Q432 224 402 224Q374 224 348.5 230Q323 236 298 243Q273 250 247.5 256Q222 262 194 262Q164 262 129.5 252Q95 242 60 222Z" glyph-name="asciitilde" horiz-adv-x="595" unicode="~" /><glyph d="M254 501 195 411 121 466 205 536 109 551 153 642 232 596V695H326L294 596L393 642L409 551L308 537L366 467L286 411Z" glyph-name="asterisk" horiz-adv-x="422" unicode="*" /><glyph d="M371 -71Q300 -71 241.5 -50Q183 -29 141 8.5Q99 46 75.5 99.5Q52 153 52 217Q52 297 84 367.5Q116 438 172 490.5Q228 543 303 573.5Q378 604 463 604Q529 604 583 583Q637 562 675 526.5Q713 491 733.5 444Q754 397 754 344Q754 296 739.5 253Q725 210 698.5 177Q672 144 634.5 124.5Q597 105 551 105Q514 105 493 120.5Q472 136 464 162Q440 133 406.5 119.5Q373 106 335 106Q289 106 254.5 137.5Q220 169 220 227Q220 268 237.5 306Q255 344 284.5 373.5Q314 403 352.5 421Q391 439 432 439Q473 439 493 427.5Q513 416 522 394H523L548 431H603L544 243Q531 203 537.5 187.5Q544 172 570 172Q596 172 616 187.5Q636 203 649.5 227Q663 251 669.5 281Q676 311 676 339Q676 427 619 478Q562 529 452 529Q389 529 332 504.5Q275 480 232 437.5Q189 395 163.5 339Q138 283 138 220Q138 169 155.5 128.5Q173 88 205.5 60Q238 32 283 17Q328 2 382 2Q432 2 481 12Q530 22 576 43H591L579 -28Q530 -50 483 -60.5Q436 -71 371 -71ZM367 179Q393 179 413.5 192Q434 205 448 225.5Q462 246 470 271Q478 296 478 321Q478 344 466 357Q454 370 427 370Q405 370 384.5 358Q364 346 348.5 327.5Q333 309 324 285.5Q315 262 315 238Q315 212 328 195.5Q341 179 367 179Z" glyph-name="at" horiz-adv-x="776" unicode="@" /><glyph d="M235 -15Q197 -15 162 -1Q127 13 100.5 40Q74 67 58 106Q42 145 42 194Q42 263 63 325.5Q84 388 131 435Q173 478 220.5 496.5Q268 515 321 515Q372 515 410 496.5Q448 478 471 446H473L500 500H590L511 0H422L412 60H410Q377 21 331 3Q285 -15 235 -15ZM276 85Q314 85 343.5 103.5Q373 122 393 151Q413 180 423 217.5Q433 255 433 292Q433 345 408 381.5Q383 418 327 418Q288 418 258 399Q228 380 208 351Q188 322 178 286Q168 250 168 216Q168 153 194 119Q220 85 276 85ZM247 555H163Q167 582 178.5 608Q190 634 207.5 654Q225 674 248.5 686.5Q272 699 300 699Q323 699 337.5 692Q352 685 364 677Q376 669 388 662Q400 655 417 655Q429 655 444 662Q459 669 464 700H548Q544 673 532.5 647Q521 621 503 601Q485 581 462 568.5Q439 556 410 556Q388 556 373 563Q358 570 346 578Q334 586 321.5 593Q309 600 291 600Q286 600 279 599Q272 598 266 593.5Q260 589 254.5 580Q249 571 247 555Z" glyph-name="atilde" horiz-adv-x="621" unicode="&#227;" /><glyph d="M313 -15Q253 -15 211 5Q169 25 145 53L119 0H33L143 700H265L226 453H228Q263 486 305 501Q347 516 396 516Q437 516 473 501Q509 486 536 458Q563 430 578.5 390.5Q594 351 594 302Q594 236 572 174.5Q550 113 503 64Q464 23 411.5 4Q359 -15 313 -15ZM306 83Q347 83 377.5 101.5Q408 120 428.5 149.5Q449 179 459.5 216.5Q470 254 470 292Q470 346 442.5 381Q415 416 355 416Q315 416 283.5 398Q252 380 231 351.5Q210 323 199 288.5Q188 254 188 222Q188 157 217.5 120Q247 83 306 83Z" glyph-name="b" horiz-adv-x="634" unicode="b" /><glyph d="M418 -124H306L96 682L98 696H212L420 -110Z" glyph-name="backslash" horiz-adv-x="506" unicode="\" /><glyph d="M262 -126H152L294 773H404Z" glyph-name="bar" horiz-adv-x="532" unicode="|" /><glyph d="M263 -124H218Q180 -124 155.5 -112.5Q131 -101 117.5 -81Q104 -61 100.5 -34.5Q97 -8 102 22L120 137Q129 194 113.5 227Q98 260 63 277L67 297Q107 314 132.5 346Q158 378 167 435L190 578Q200 638 236 667Q272 696 348 696H393L377 599H338Q315 599 308.5 580.5Q302 562 298 537L279 419Q272 376 260 351Q248 326 234 313Q220 300 206 295.5Q192 291 182 288V286Q191 283 203.5 278.5Q216 274 225.5 260.5Q235 247 239.5 221.5Q244 196 237 153L218 35Q214 10 215 -8.5Q216 -27 239 -27H278Z" glyph-name="braceleft" horiz-adv-x="402" unicode="{" /><glyph d="M151 696H196Q234 696 258.5 684.5Q283 673 296.5 653Q310 633 313.5 606.5Q317 580 312 550L294 435Q285 378 300.5 345Q316 312 351 295L347 275Q307 258 281.5 226Q256 194 247 137L224 -6Q214 -66 178 -95Q142 -124 66 -124H21L37 -27H76Q99 -27 105.5 -8.5Q112 10 116 35L135 153Q142 196 154 221Q166 246 180 259Q194 272 208 276.5Q222 281 232 284V286Q223 289 210.5 294Q198 299 188.5 312.5Q179 326 174.5 351Q170 376 177 419L196 537Q200 562 199 580.5Q198 599 175 599H136Z" glyph-name="braceright" horiz-adv-x="402" unicode="}" /><glyph d="M239 -124H21L151 696H369L353 599H249L150 -27H254Z" glyph-name="bracketleft" horiz-adv-x="363" unicode="[" /><glyph d="M136 696H354L224 -124H6L22 -27H126L225 599H121Z" glyph-name="bracketright" horiz-adv-x="363" unicode="]" /><glyph d="M294 551Q222 551 181 590.5Q140 630 142 703H255Q254 675 267.5 658.5Q281 642 308 642Q336 642 354.5 658.5Q373 675 380 703H496Q475 630 420.5 590.5Q366 551 294 551Z" glyph-name="breve" horiz-adv-x="500" unicode="&#728;" /><glyph d="M246 182Q195 182 160.5 209Q126 236 126 287V294Q126 347 160.5 374Q195 401 246 401Q295 401 330.5 374Q366 347 366 294V287Q366 262 356.5 242Q347 222 330.5 209Q314 196 292 189Q270 182 246 182Z" glyph-name="bullet" horiz-adv-x="480" unicode="&#8226;" /><glyph d="M256 -16Q207 -16 167 0.5Q127 17 98.5 45.5Q70 74 55 114Q40 154 40 200Q40 263 62 324.5Q84 386 128 430Q173 475 224 495Q275 515 336 515Q381 515 419.5 502.5Q458 490 485.5 465.5Q513 441 527.5 406Q542 371 540 326L539 316H426Q431 365 404 390Q377 415 326 415Q285 415 254.5 396.5Q224 378 203.5 348.5Q183 319 173 282.5Q163 246 163 209Q163 154 191 119.5Q219 85 277 85Q326 85 356 109Q386 133 404 183H517L516 173Q499 120 472.5 84Q446 48 412.5 25.5Q379 3 339.5 -6.5Q300 -16 256 -16Z" glyph-name="c" horiz-adv-x="568" unicode="c" /><glyph d="M312 544H288L148 666L195 732L314 656L456 732L489 666Z" glyph-name="caron" horiz-adv-x="500" unicode="&#711;" /><glyph d="M189 -190Q137 -190 103 -177L116 -110H126Q144 -118 158 -121.5Q172 -125 184 -125Q192 -125 202 -124Q212 -123 221 -119Q230 -115 236 -109Q242 -103 242 -92Q242 -71 201 -71L198 -64L228 -15Q195 -11 167 0Q127 17 98.5 45.5Q70 74 55 114Q40 154 40 200Q40 263 62 324.5Q84 386 128 430Q173 475 224 495Q275 515 336 515Q381 515 419.5 502.5Q458 490 485.5 465.5Q513 441 527.5 406Q542 371 540 326L539 316H426Q431 365 404 390Q377 415 326 415Q285 415 254.5 396.5Q224 378 203.5 348.5Q183 319 173 282.5Q163 246 163 209Q163 154 191 119.5Q219 85 277 85Q326 85 356 109Q386 133 404 183H517L516 173Q499 120 472.5 84Q446 48 412.5 25.5Q379 3 339 -6Q321 -11 301 -13L286 -46Q312 -51 322.5 -65.5Q333 -80 333 -96Q333 -122 319 -139.5Q305 -157 284 -168.5Q263 -180 237.5 -185Q212 -190 189 -190Z" glyph-name="ccedilla" horiz-adv-x="568" unicode="&#231;" /><glyph d="M144 -190Q92 -190 58 -177L71 -110H81Q99 -118 113 -121.5Q127 -125 139 -125Q147 -125 157 -124Q167 -123 176 -119Q185 -115 191 -109Q197 -103 197 -92Q197 -71 156 -71L153 -64L193 0H263L241 -46Q267 -51 277.5 -65.5Q288 -80 288 -96Q288 -122 274 -139.5Q260 -157 239 -168.5Q218 -180 192.5 -185Q167 -190 144 -190Z" glyph-name="cedilla" horiz-adv-x="500" unicode="&#184;" /><glyph d="M272 -126H199L217 -13Q190 -9 167 0Q127 17 98.5 45.5Q70 74 55 114Q40 154 40 200Q40 263 62 324.5Q84 386 128 430Q173 475 224 495Q259 509 300 513L319 635H392L373 513Q397 509 419 502Q458 490 485.5 465.5Q513 441 527.5 406Q542 371 540 326L539 316H426Q431 365 404 390Q386 407 357 412L305 87Q335 92 356 109Q386 133 404 183H517L516 173Q499 120 472.5 84Q446 48 412.5 25.5Q379 3 339 -6Q315 -12 289 -14ZM254 396Q224 378 203.5 348.5Q183 319 173 282.5Q163 246 163 209Q163 154 191 119Q207 99 233 91L283 409Q268 404 254 396Z" glyph-name="cent" horiz-adv-x="561" unicode="&#162;" /><glyph d="M302 616 160 540 125 606 303 728H327L466 606L421 540Z" glyph-name="circumflex" horiz-adv-x="500" unicode="&#710;" /><glyph d="M121 -7Q90 -7 70.5 8.5Q51 24 51 53Q51 70 56 86.5Q61 103 75 117Q101 141 142 141Q174 141 194.5 125Q215 109 215 81Q215 64 210.5 48Q206 32 193 20Q179 5 161 -1Q143 -7 121 -7ZM172 315Q141 315 121.5 330.5Q102 346 102 375Q102 392 107 408.5Q112 425 126 439Q152 463 193 463Q225 463 245.5 447Q266 431 266 403Q266 386 261.5 370Q257 354 244 342Q230 327 212 321Q194 315 172 315Z" glyph-name="colon" horiz-adv-x="324" unicode=":" /><glyph d="M88 -127H8L97 142H234L232 128Z" glyph-name="comma" horiz-adv-x="324" unicode="," /><glyph d="M401 -11Q331 -11 268.5 15.5Q206 42 159 88Q112 134 85 195.5Q58 257 58 327Q58 397 85 458.5Q112 520 159 566Q206 612 268.5 638.5Q331 665 401 665Q472 665 534 638.5Q596 612 643 566Q690 520 717 458.5Q744 397 744 327Q744 257 717 195.5Q690 134 643 88Q596 42 534 15.5Q472 -11 401 -11ZM401 60Q455 60 502.5 81Q550 102 585.5 138.5Q621 175 641.5 223.5Q662 272 662 327Q662 382 641.5 430.5Q621 479 585.5 515Q550 551 502.5 572Q455 593 401 593Q348 593 300.5 572Q253 551 217.5 515Q182 479 161.5 430.5Q141 382 141 327Q141 272 161.5 223.5Q182 175 217.5 138.5Q253 102 300.5 81Q348 60 401 60ZM402 140Q367 140 335.5 153Q304 166 280.5 189.5Q257 213 243 245.5Q229 278 229 318V331Q229 371 243 403.5Q257 436 280.5 459.5Q304 483 335.5 496Q367 509 402 509Q465 509 508.5 474.5Q552 440 563 374V367H484Q476 399 458.5 416.5Q441 434 404 434Q360 434 336.5 402.5Q313 371 313 324Q313 278 336.5 246Q360 214 404 214Q441 214 459 231.5Q477 249 485 281H563V273Q560 243 546 218Q532 193 510.5 176Q489 159 461 149.5Q433 140 402 140Z" glyph-name="copyright" horiz-adv-x="776" unicode="&#169;" /><glyph d="M245 -16Q202 -16 165 -1Q128 14 100 42.5Q72 71 56 111.5Q40 152 40 203Q40 270 61 328Q82 386 129 435Q168 476 219.5 495.5Q271 515 317 515Q380 515 417.5 499.5Q455 484 472 461H474L512 700H633L522 0H433L424 56H422Q383 14 337 -1Q291 -16 245 -16ZM281 84Q322 84 352.5 102.5Q383 121 404 150.5Q425 180 435.5 217.5Q446 255 446 292Q446 346 417.5 381.5Q389 417 330 417Q288 417 256.5 399Q225 381 204.5 352.5Q184 324 174 289Q164 254 164 221Q164 157 192.5 120.5Q221 84 281 84Z" glyph-name="d" horiz-adv-x="634" unicode="d" /><glyph d="M203 -78H104L174 369H66L81 460H189L228 700H327L288 460H399L384 369H273Z" glyph-name="dagger" horiz-adv-x="408" unicode="&#8224;" /><glyph d="M201 -78H102L141 169H33L48 261H156L173 369H65L79 460H187L226 700H325L286 460H397L382 369H272L255 261H365L351 169H240Z" glyph-name="daggerdbl" horiz-adv-x="408" unicode="&#8225;" /><glyph d="M246 336Q215 336 187 346Q159 356 138 374.5Q117 393 104.5 419Q92 445 92 476Q92 516 106.5 550Q121 584 147 608.5Q173 633 208 646.5Q243 660 285 660Q315 660 343.5 650Q372 640 393.5 622Q415 604 428 578.5Q441 553 441 522Q441 482 426 448Q411 414 385 389Q359 364 323.5 350Q288 336 246 336ZM258 422Q295 422 319.5 447Q344 472 344 511Q344 539 322.5 556.5Q301 574 275 574Q238 572 213.5 548.5Q189 525 189 484Q189 456 210 439Q231 422 258 422Z" glyph-name="degree" horiz-adv-x="455" unicode="&#176;" /><glyph d="M404 557Q375 557 355.5 574Q336 591 336 619Q336 652 360.5 676.5Q385 701 423 701Q452 701 470.5 683.5Q489 666 489 639Q489 607 465.5 582Q442 557 404 557ZM202 557Q173 557 153.5 574Q134 591 134 619Q134 652 158.5 676.5Q183 701 221 701Q250 701 268.5 683.5Q287 666 287 639Q287 607 263.5 582Q240 557 202 557Z" glyph-name="dieresis" horiz-adv-x="500" unicode="&#168;" /><glyph d="M575 275H56L73 382H592ZM288 78Q259 78 237.5 97.5Q216 117 216 146Q216 181 240.5 203.5Q265 226 300 226Q332 226 353 206Q374 186 374 158Q374 123 350 100.5Q326 78 288 78ZM344 431Q315 431 293.5 450.5Q272 470 272 499Q272 534 296.5 556.5Q321 579 356 579Q388 579 409 559Q430 539 430 511Q430 476 406 453.5Q382 431 344 431Z" glyph-name="divide" horiz-adv-x="623" unicode="&#247;" /><glyph d="M252 -105H172L190 8Q169 12 149 17Q109 29 80 52.5Q51 76 35 110.5Q19 145 22 190L24 200H137Q135 149 166 126Q183 114 206 109L234 289Q200 299 166 312Q131 325 107 349Q87 369 78 394Q69 419 69 445Q69 495 88 532.5Q107 570 140 594.5Q173 619 216 631Q250 641 287 643L301 731H381L366 639Q376 637 385 635Q423 626 452 606.5Q481 587 498 555Q515 523 512 477L511 468H403Q404 500 382 524Q371 536 351 543L325 378Q356 369 387 358Q421 345 446 320Q463 303 476 276.5Q489 250 489 213Q489 160 468.5 121Q448 82 413 56.5Q378 31 331 18Q301 10 270 7ZM293 109Q314 115 331 127Q348 139 358.5 157.5Q369 176 369 203Q369 213 366 223Q363 233 355 241Q339 257 311 267L286 107ZM266 544Q247 540 230.5 530.5Q214 521 203 505Q192 489 192 465Q192 441 207 426Q222 410 249 401L272 546Z" glyph-name="dollar" horiz-adv-x="539" unicode="$" /><glyph d="M301 555Q273 555 253 572Q233 589 233 618Q233 652 257.5 674.5Q282 697 319 697Q347 697 367 679.5Q387 662 387 636Q387 601 362 578Q337 555 301 555Z" glyph-name="dotaccent" horiz-adv-x="500" unicode="&#729;" /><glyph d="M149 0H27L106 500H228Z" glyph-name="dotlessi" horiz-adv-x="254" unicode="&#305;" /><glyph d="M259 -16Q210 -16 170 0.5Q130 17 101 46Q72 75 56 115Q40 155 40 203Q40 264 61 325.5Q82 387 129 434Q171 476 223.5 495.5Q276 515 334 515Q380 515 417.5 500Q455 485 482 456.5Q509 428 524 388Q539 348 539 298Q539 279 535.5 256.5Q532 234 525 212H163Q161 155 188.5 119Q216 83 273 83Q315 83 342 97.5Q369 112 389 145H510Q478 65 411 24.5Q344 -16 259 -16ZM418 307Q419 311 419 315V323Q419 363 396.5 389.5Q374 416 324 416Q268 416 234 386Q200 356 181 307Z" glyph-name="e" horiz-adv-x="578" unicode="e" /><glyph d="M259 -16Q210 -16 170 0.5Q130 17 101 46Q72 75 56 115Q40 155 40 203Q40 264 61 325.5Q82 387 129 434Q171 476 223.5 495.5Q276 515 334 515Q380 515 417.5 500Q455 485 482 456.5Q509 428 524 388Q539 348 539 298Q539 279 535.5 256.5Q532 234 525 212H163Q161 155 188.5 119Q216 83 273 83Q315 83 342 97.5Q369 112 389 145H510Q478 65 411 24.5Q344 -16 259 -16ZM505 650 228 538 201 610 465 753ZM418 307Q419 311 419 315V323Q419 363 396.5 389.5Q374 416 324 416Q268 416 234 386Q200 356 181 307Z" glyph-name="eacute" horiz-adv-x="578" unicode="&#233;" /><glyph d="M259 -16Q210 -16 170 0.5Q130 17 101 46Q72 75 56 115Q40 155 40 203Q40 264 61 325.5Q82 387 129 434Q171 476 223.5 495.5Q276 515 334 515Q380 515 417.5 500Q455 485 482 456.5Q509 428 524 388Q539 348 539 298Q539 279 535.5 256.5Q532 234 525 212H163Q161 155 188.5 119Q216 83 273 83Q315 83 342 97.5Q369 112 389 145H510Q478 65 411 24.5Q344 -16 259 -16ZM351 616 209 540 174 606 352 728H376L515 606L470 540ZM418 307Q419 311 419 315V323Q419 363 396.5 389.5Q374 416 324 416Q268 416 234 386Q200 356 181 307Z" glyph-name="ecircumflex" horiz-adv-x="578" unicode="&#234;" /><glyph d="M259 -16Q210 -16 170 0.5Q130 17 101 46Q72 75 56 115Q40 155 40 203Q40 264 61 325.5Q82 387 129 434Q171 476 223.5 495.5Q276 515 334 515Q380 515 417.5 500Q455 485 482 456.5Q509 428 524 388Q539 348 539 298Q539 279 535.5 256.5Q532 234 525 212H163Q161 155 188.5 119Q216 83 273 83Q315 83 342 97.5Q369 112 389 145H510Q478 65 411 24.5Q344 -16 259 -16ZM418 307Q419 311 419 315V323Q419 363 396.5 389.5Q374 416 324 416Q268 416 234 386Q200 356 181 307ZM452 557Q423 557 403.5 574Q384 591 384 619Q384 652 408.5 676.5Q433 701 471 701Q500 701 518.5 683.5Q537 666 537 639Q537 607 513.5 582Q490 557 452 557ZM250 557Q221 557 201.5 574Q182 591 182 619Q182 652 206.5 676.5Q231 701 269 701Q298 701 316.5 683.5Q335 666 335 639Q335 607 311.5 582Q288 557 250 557Z" glyph-name="edieresis" horiz-adv-x="578" unicode="&#235;" /><glyph d="M259 -16Q210 -16 170 0.5Q130 17 101 46Q72 75 56 115Q40 155 40 203Q40 264 61 325.5Q82 387 129 434Q171 476 223.5 495.5Q276 515 334 515Q380 515 417.5 500Q455 485 482 456.5Q509 428 524 388Q539 348 539 298Q539 279 535.5 256.5Q532 234 525 212H163Q161 155 188.5 119Q216 83 273 83Q315 83 342 97.5Q369 112 389 145H510Q478 65 411 24.5Q344 -16 259 -16ZM491 604 451 538 210 650 275 750ZM418 307Q419 311 419 315V323Q419 363 396.5 389.5Q374 416 324 416Q268 416 234 386Q200 356 181 307Z" glyph-name="egrave" horiz-adv-x="578" unicode="&#232;" /><glyph d="M260 -15Q208 -15 166 -3.5Q124 8 94 30Q64 52 48 83Q32 114 32 153Q32 213 66 263Q100 313 157 340L158 342Q137 356 119.5 385Q102 414 102 450Q102 500 119.5 539.5Q137 579 168 607Q199 635 243 650Q287 665 339 665Q381 665 418.5 654Q456 643 484 622Q512 601 528 571.5Q544 542 544 504Q544 453 516.5 406.5Q489 360 444 331L443 329Q475 311 497.5 277.5Q520 244 520 196Q520 148 498.5 109Q477 70 441 42.5Q405 15 358 0Q311 -15 260 -15ZM269 83Q295 83 318 90.5Q341 98 358.5 112Q376 126 386.5 147Q397 168 397 196Q397 234 367 258Q337 282 286 282Q261 282 237.5 275Q214 268 195.5 253.5Q177 239 166 218Q155 197 155 169Q155 134 185 108.5Q215 83 269 83ZM310 379Q359 379 391 409Q423 439 423 487Q423 522 399.5 547.5Q376 573 334 573Q286 572 255.5 544Q225 516 225 468Q225 452 230.5 436Q236 420 247 407.5Q258 395 273.5 387Q289 379 310 379Z" glyph-name="eight" horiz-adv-x="574" unicode="8" /><glyph d="M121 -7Q90 -7 70.5 8.5Q51 24 51 53Q51 70 56 86.5Q61 103 75 117Q101 141 142 141Q174 141 194.5 125Q215 109 215 81Q215 64 210.5 48Q206 32 193 20Q179 5 161 -1Q143 -7 121 -7ZM446 -7Q415 -7 395.5 8.5Q376 24 376 53Q376 70 381 86.5Q386 103 400 117Q426 141 467 141Q499 141 519.5 125Q540 109 540 81Q540 64 535.5 48Q531 32 518 20Q504 5 486 -1Q468 -7 446 -7ZM772 -7Q741 -7 721.5 8.5Q702 24 702 53Q702 70 707 86.5Q712 103 726 117Q752 141 793 141Q825 141 845.5 125Q866 109 866 81Q866 64 861.5 48Q857 32 844 20Q830 5 812 -1Q794 -7 772 -7Z" glyph-name="ellipsis" horiz-adv-x="975" unicode="&#8230;" /><glyph d="M688 244H63L78 338H703Z" glyph-name="emdash" horiz-adv-x="753" unicode="&#8212;" /><glyph d="M528 244H63L78 338H543Z" glyph-name="endash" horiz-adv-x="593" unicode="&#8211;" /><glyph d="M609 372H91L108 479H626ZM578 176H60L77 282H595Z" glyph-name="equal" horiz-adv-x="662" unicode="=" /><glyph d="M210 213H104L159 650H293L291 634ZM121 -7Q90 -7 70.5 8.5Q51 24 51 53Q51 70 56 86.5Q61 103 75 117Q101 141 142 141Q174 141 194.5 125Q215 109 215 81Q215 64 210.5 48Q206 32 193 20Q179 5 161 -1Q143 -7 121 -7Z" glyph-name="exclam" horiz-adv-x="324" unicode="!" /><glyph d="M114 296H220L165 -141H31L33 -125ZM203 516Q234 516 253.5 500.5Q273 485 273 456Q273 439 268 422.5Q263 406 249 392Q223 368 182 368Q150 368 129.5 384Q109 400 109 428Q109 445 113.5 461Q118 477 131 489Q145 504 163 510Q181 516 203 516Z" glyph-name="exclamdown" horiz-adv-x="324" unicode="&#161;" /><glyph d="M190 0H68L132 406H59L68 463L146 495L154 549Q166 637 218 676Q270 715 348 715Q379 715 402.5 712Q426 709 451 703L436 608H419Q402 613 383.5 615Q365 617 351 617Q316 617 299.5 602Q283 587 277 548L269 500H417L402 406H254Z" glyph-name="f" horiz-adv-x="405" unicode="f" /><glyph d="M544 0H422L501 500H623ZM575 571Q544 571 523 586.5Q502 602 502 630Q502 646 507 661.5Q512 677 524 689Q538 703 556.5 709Q575 715 596 715Q626 715 646 700Q666 685 666 657Q666 640 661 624Q656 608 643 595Q631 583 613 577Q595 571 575 571ZM190 0H68L132 406H59L68 463L146 495L154 549Q166 637 218 676Q270 715 348 715Q398 715 441 703L426 608H409Q392 613 378 615Q364 617 347 617Q315 617 299 602Q283 587 277 548L269 500H407L392 406H254Z" glyph-name="fi" horiz-adv-x="649" unicode="&#64257;" /><glyph d="M204 -15Q151 -15 99 -6.5Q47 2 6 25L26 145H43Q80 121 120.5 108.5Q161 96 214 96Q243 96 270 104Q297 112 318 128Q339 144 351.5 166.5Q364 189 364 219Q364 242 352 258.5Q340 275 320.5 285.5Q301 296 275.5 300.5Q250 305 223 305Q190 305 153.5 298.5Q117 292 91 285L78 298L170 650H528L511 546H261L223 405Q234 406 248.5 406.5Q263 407 274 407Q321 407 360.5 394Q400 381 428.5 358Q457 335 473 302Q489 269 489 229Q489 183 472.5 140.5Q456 98 421 63Q379 21 321.5 3Q264 -15 204 -15Z" glyph-name="five" horiz-adv-x="539" unicode="5" /><glyph d="M577 -5Q502 -5 468.5 41Q435 87 449 174L533 700H655L569 165Q562 120 585 107Q608 94 645 99H657L642 2Q624 -2 610.5 -3.5Q597 -5 577 -5ZM190 0H68L132 406H59L68 463L146 495L154 549Q166 637 218 676Q270 715 348 715Q398 715 441 703L426 608H409Q392 613 378 615Q364 617 347 617Q315 617 299 602Q283 587 277 548L269 500H407L392 406H254Z" glyph-name="fl" horiz-adv-x="703" unicode="&#64258;" /><glyph d="M92 -90H-33L72 307H-1L23 401H97L122 497Q145 585 200 625Q255 665 339 665Q362 665 386.5 662Q411 659 435 652Q428 629 422.5 605.5Q417 582 410 559H395Q381 564 363 566Q345 568 331 568Q295 568 275 548Q255 528 244 489L220 401H366Q355 355 341 307H197Z" glyph-name="florin" horiz-adv-x="406" unicode="&#402;" /><glyph d="M429 0H302L327 158H20V240L398 650H531L471 268H563L546 158H454ZM179 268V266Q188 267 200.5 267.5Q213 268 225 268H349L380 440Q382 457 387.5 482Q393 507 399 531H397Q386 515 374.5 496.5Q363 478 349 463L226 313Q216 302 203 290.5Q190 279 179 268Z" glyph-name="four" horiz-adv-x="591" unicode="4" /><glyph d="M-97 0H-176L-173 16L302 650H384L382 633Z" glyph-name="fraction" horiz-adv-x="184" unicode="&#8260;" /><glyph d="M248 -204Q136 -204 81.5 -157Q27 -110 31 -23L32 -15H150Q150 -43 159 -60.5Q168 -78 183 -88Q198 -98 217.5 -101.5Q237 -105 259 -105Q309 -105 348 -81.5Q387 -58 396 -1L409 79H407Q370 50 328.5 37Q287 24 245 24Q206 24 169.5 38Q133 52 105.5 78.5Q78 105 61.5 142Q45 179 45 225Q45 282 64 338Q83 394 126 437Q168 479 220 497Q272 515 328 515Q382 515 419.5 496.5Q457 478 482 445H484L512 500H600L518 -9Q510 -58 486.5 -94.5Q463 -131 427 -155.5Q391 -180 345.5 -192Q300 -204 248 -204ZM287 128Q324 128 354 142Q384 156 405 180Q426 204 437.5 235.5Q449 267 449 303Q449 352 420 385Q391 418 330 418Q293 418 263 403.5Q233 389 212 365Q191 341 179.5 310Q168 279 168 247Q168 190 197 159Q226 128 287 128Z" glyph-name="g" horiz-adv-x="631" unicode="g" /><glyph d="M329 -15Q302 -15 271 -11Q240 -7 223 1L240 110H257Q269 103 290 98Q311 93 333 93Q356 93 376 102.5Q396 112 411 129Q426 146 435 169Q444 192 444 220Q444 256 423 283Q402 310 360 310H290L306 416H330Q376 416 407 447Q438 478 438 531Q438 563 421 586.5Q404 610 359 610Q325 610 303 596.5Q281 583 267.5 562.5Q254 542 247.5 517.5Q241 493 237 470L164 0H42L121 507Q135 601 195.5 658Q256 715 361 715Q406 715 444 703Q482 691 509.5 669.5Q537 648 552 617Q567 586 567 547Q567 498 545.5 451.5Q524 405 482 371L483 369Q522 354 546.5 312.5Q571 271 571 218Q571 167 551.5 124Q532 81 499 50Q466 19 422.5 2Q379 -15 329 -15Z" glyph-name="germandbls" horiz-adv-x="617" unicode="&#223;" /><glyph d="M455 604 415 538 174 650 239 750Z" glyph-name="grave" horiz-adv-x="500" unicode="`" /><glyph d="M576 283 42 43 62 179 417 331V333L109 486L130 611L589 368Z" glyph-name="greater" horiz-adv-x="634" unicode="&gt;" /><glyph d="M572 374 66 187 86 310 398 420V422L121 532L138 650L586 459ZM520 37H39L57 146H538Z" glyph-name="greaterequal" horiz-adv-x="617" unicode="&#8805;" /><glyph d="M270 60H155L28 248L29 257L208 445H339L337 431L159 244L272 74ZM500 60H385L258 248L259 257L438 445H569L567 431L389 244L502 74Z" glyph-name="guillemotleft" horiz-adv-x="581" unicode="&#171;" /><glyph d="M81 445H196L323 257L322 248L143 60H12L14 74L192 261L79 431ZM311 445H426L553 257L552 248L373 60H242L244 74L422 261L309 431Z" glyph-name="guillemotright" horiz-adv-x="581" unicode="&#187;" /><glyph d="M270 60H155L28 248L29 257L208 445H339L337 431L159 244L272 74Z" glyph-name="guilsinglleft" horiz-adv-x="351" unicode="&#8249;" /><glyph d="M81 445H196L323 257L322 248L143 60H12L14 74L192 261L79 431Z" glyph-name="guilsinglright" horiz-adv-x="351" unicode="&#8250;" /><glyph d="M153 0H32L142 700H263L224 450H226Q259 485 294 500Q329 515 370 515Q412 515 444 499.5Q476 484 497 457.5Q518 431 526.5 396Q535 361 529 322L479 0H359L404 289Q415 356 391.5 384Q368 412 326 412Q275 412 241 375Q207 338 196 275Z" glyph-name="h" horiz-adv-x="579" unicode="h" /><glyph d="M566 676 376 540 328 602 495 759ZM358 678 169 540 123 602 289 759Z" glyph-name="hungarumlaut" horiz-adv-x="500" unicode="&#733;" /><glyph d="M387 239H62L79 346H404Z" glyph-name="hyphen" horiz-adv-x="453" unicode="-" /><glyph d="M149 0H27L106 500H228ZM180 571Q149 571 128 586.5Q107 602 107 630Q107 646 112 661.5Q117 677 129 689Q143 703 161.5 709Q180 715 201 715Q231 715 251 700Q271 685 271 657Q271 640 266 624Q261 608 248 595Q236 583 218 577Q200 571 180 571Z" glyph-name="i" horiz-adv-x="254" unicode="i" /><glyph d="M149 0H27L106 500H228ZM339 650 62 538 35 610 299 753Z" glyph-name="iacute" horiz-adv-x="254" unicode="&#237;" /><glyph d="M149 0H27L106 500H228ZM184 616 42 540 7 606 185 728H209L348 606L303 540Z" glyph-name="icircumflex" horiz-adv-x="254" unicode="&#238;" /><glyph d="M149 0H27L106 500H228ZM285 557Q256 557 236.5 574Q217 591 217 619Q217 652 241.5 676.5Q266 701 304 701Q333 701 351.5 683.5Q370 666 370 639Q370 607 346.5 582Q323 557 285 557ZM83 557Q54 557 34.5 574Q15 591 15 619Q15 652 39.5 676.5Q64 701 102 701Q131 701 149.5 683.5Q168 666 168 639Q168 607 144.5 582Q121 557 83 557Z" glyph-name="idieresis" horiz-adv-x="254" unicode="&#239;" /><glyph d="M149 0H27L106 500H228ZM325 604 285 538 44 650 109 750Z" glyph-name="igrave" horiz-adv-x="254" unicode="&#236;" /><glyph d="M27 -180H-96L-93 -163Q-63 -144 -41 -117.5Q-19 -91 -3.5 -61.5Q12 -32 21.5 -2.5Q31 27 35 52L106 500H229L155 26Q144 -43 110.5 -97Q77 -151 27 -180ZM180 571Q149 571 128 586.5Q107 602 107 630Q107 646 112 661.5Q117 677 129 689Q143 703 161.5 709Q180 715 201 715Q231 715 251 700Q271 685 271 657Q271 640 266 624Q261 608 248 595Q236 583 218 577Q200 571 180 571Z" glyph-name="j" horiz-adv-x="255" unicode="j" /><glyph d="M154 0H32L142 700H264L199 286L391 500H531L528 485L323 264L501 15L499 0H365L193 247Z" glyph-name="k" horiz-adv-x="536" unicode="k" /><glyph d="M182 -5Q107 -5 73.5 41Q40 87 54 174L138 700H260L174 165Q167 120 190 107Q213 94 250 99H262L247 2Q229 -2 215.5 -3.5Q202 -5 182 -5Z" glyph-name="l" horiz-adv-x="308" unicode="l" /><glyph d="M549 168 528 43 69 286 82 371 616 611 596 475 241 323V321Z" glyph-name="less" horiz-adv-x="634" unicode="&lt;" /><glyph d="M550 304 533 186 85 377 99 462 605 649 585 526 273 416V414ZM509 37H29L47 146H527Z" glyph-name="lessequal" horiz-adv-x="616" unicode="&#8804;" /><glyph d="M510 268H383L414 465H66L81 560H556Z" glyph-name="logicalnot" horiz-adv-x="555" unicode="&#172;" /><glyph d="M153 0H32L111 500H199L208 440H210Q269 515 354 515Q405 515 437 492.5Q469 470 485 433H487Q522 477 564.5 496Q607 515 656 515Q697 515 729 500.5Q761 486 781 460.5Q801 435 809 399.5Q817 364 810 322L759 0H639L685 295Q696 362 675.5 387Q655 412 619 412Q573 412 541.5 376.5Q510 341 500 281L456 0H336L382 295Q393 362 372 387Q351 412 313 412Q268 412 237.5 375Q207 338 196 275Z" glyph-name="m" horiz-adv-x="859" unicode="m" /><glyph d="M467 572H138L157 670H486Z" glyph-name="macron" horiz-adv-x="500" unicode="&#175;" /><glyph d="M125 -180H1L118 560H242L186 206Q177 150 206.5 120Q236 90 286 90Q338 90 377.5 121.5Q417 153 426 208L482 560H606L518 0H423L413 62H411Q378 22 336 3.5Q294 -15 258 -15Q221 -15 197 -6.5Q173 2 156 18Z" glyph-name="mu" horiz-adv-x="621" unicode="&#181;" /><glyph d="M153 0H32L111 500H200L209 439H211Q246 480 285.5 497.5Q325 515 367 515Q410 515 443 499.5Q476 484 497 457.5Q518 431 526.5 396Q535 361 529 322L479 0H359L404 289Q415 356 391.5 384Q368 412 326 412Q275 412 241 375Q207 338 196 275Z" glyph-name="n" horiz-adv-x="579" unicode="n" /><glyph d="M343 665Q392 665 432 651Q472 637 500 612Q528 587 543 551.5Q558 516 558 472Q558 424 542.5 376.5Q527 329 502 284.5Q477 240 444.5 199.5Q412 159 378 125Q336 83 300.5 54Q265 25 226 0H71L73 16Q107 39 143.5 65.5Q180 92 215 121.5Q250 151 282.5 182Q315 213 341 244L340 246Q323 236 298 228Q273 220 250 220Q211 220 176 233Q141 246 115.5 270Q90 294 75 328Q60 362 60 403Q60 455 81 503.5Q102 552 136 586Q178 628 232 646.5Q286 665 343 665ZM325 564Q297 564 272 552Q247 540 228 520Q209 500 198 473.5Q187 447 187 418Q187 380 211.5 352Q236 324 290 324Q321 324 346 335Q371 346 389 365Q407 384 417 410Q427 436 427 465Q427 484 421 502Q415 520 403 533.5Q391 547 371.5 555.5Q352 564 325 564Z" glyph-name="nine" horiz-adv-x="569" unicode="9" /><glyph glyph-name="nonmarkingreturn" horiz-adv-x="250" unicode="" /><glyph d="M201 54H97L99 68L178 176H60L77 282H257L323 372H91L108 479H402L485 590H589L587 576L514 479H626L609 372H435L369 282H595L578 176H290Z" glyph-name="notequal" horiz-adv-x="662" unicode="&#8800;" /><glyph d="M153 0H32L111 500H200L209 439H211Q246 480 285.5 497.5Q325 515 367 515Q410 515 443 499.5Q476 484 497 457.5Q518 431 526.5 396Q535 361 529 322L479 0H359L404 289Q415 356 391.5 384Q368 412 326 412Q275 412 241 375Q207 338 196 275ZM254 555H170Q174 582 185.5 608Q197 634 214.5 654Q232 674 255.5 686.5Q279 699 307 699Q330 699 344.5 692Q359 685 371 677Q383 669 395 662Q407 655 424 655Q436 655 451 662Q466 669 471 700H555Q551 673 539.5 647Q528 621 510 601Q492 581 469 568.5Q446 556 417 556Q395 556 380 563Q365 570 353 578Q341 586 328.5 593Q316 600 298 600Q293 600 286 599Q279 598 273 593.5Q267 589 261.5 580Q256 571 254 555Z" glyph-name="ntilde" horiz-adv-x="579" unicode="&#241;" /><glyph d="M298 393 265 274H378L411 393ZM608 393H500L467 274H565L552 194H444L390 0H303L305 16L355 194H242L188 0H101L103 16L153 194H55L68 274H176L209 393H111L123 472H232L282 650H368L366 634L321 472H434L484 650H570L568 634L523 472H620Z" glyph-name="numbersign" horiz-adv-x="649" unicode="#" /><glyph d="M161 0H48L150 650H278Q341 518 377.5 433Q414 348 433.5 295.5Q453 243 461 215.5Q469 188 476 171H478Q483 208 488 250Q493 292 499 330L549 650H663L561 0H442Q376 137 338.5 224.5Q301 312 280.5 365Q260 418 251.5 444.5Q243 471 236 487H234Q230 449 225 411Q220 373 214 335ZM870 347Q841 347 814 356.5Q787 366 766.5 383.5Q746 401 733.5 426Q721 451 721 481Q721 520 734.5 554Q748 588 772.5 613Q797 638 831.5 652.5Q866 667 908 667Q938 667 965.5 657.5Q993 648 1013.5 630.5Q1034 613 1046.5 588Q1059 563 1059 532Q1059 494 1045 460Q1031 426 1006 401Q981 376 946 361.5Q911 347 870 347ZM881 433Q915 433 933.5 459.5Q952 486 952 521Q952 545 940 563Q928 581 902 581Q867 581 847 554Q827 527 827 493Q827 468 841 450.5Q855 433 881 433Z" glyph-name="numero" horiz-adv-x="1065" unicode="&#8470;" /><glyph d="M268 -16Q221 -16 179.5 -1Q138 14 107 41.5Q76 69 58 109Q40 149 40 199Q40 259 59.5 321Q79 383 127 431Q171 475 226 495Q281 515 333 515Q381 515 423 500.5Q465 486 496 458.5Q527 431 545 391.5Q563 352 563 301Q563 239 542.5 177Q522 115 475 68Q431 24 376 4Q321 -16 268 -16ZM276 85Q315 85 345.5 102.5Q376 120 397 148Q418 176 428.5 210.5Q439 245 439 278Q439 341 411 378Q383 415 326 415Q287 415 256.5 397.5Q226 380 205.5 352Q185 324 174.5 289.5Q164 255 164 221Q164 159 191.5 122Q219 85 276 85Z" glyph-name="o" horiz-adv-x="603" unicode="o" /><glyph d="M268 -16Q221 -16 179.5 -1Q138 14 107 41.5Q76 69 58 109Q40 149 40 199Q40 259 59.5 321Q79 383 127 431Q171 475 226 495Q281 515 333 515Q381 515 423 500.5Q465 486 496 458.5Q527 431 545 391.5Q563 352 563 301Q563 239 542.5 177Q522 115 475 68Q431 24 376 4Q321 -16 268 -16ZM276 85Q315 85 345.5 102.5Q376 120 397 148Q418 176 428.5 210.5Q439 245 439 278Q439 341 411 378Q383 415 326 415Q287 415 256.5 397.5Q226 380 205.5 352Q185 324 174.5 289.5Q164 255 164 221Q164 159 191.5 122Q219 85 276 85ZM520 650 243 538 216 610 480 753Z" glyph-name="oacute" horiz-adv-x="603" unicode="&#243;" /><glyph d="M268 -16Q221 -16 179.5 -1Q138 14 107 41.5Q76 69 58 109Q40 149 40 199Q40 259 59.5 321Q79 383 127 431Q171 475 226 495Q281 515 333 515Q381 515 423 500.5Q465 486 496 458.5Q527 431 545 391.5Q563 352 563 301Q563 239 542.5 177Q522 115 475 68Q431 24 376 4Q321 -16 268 -16ZM276 85Q315 85 345.5 102.5Q376 120 397 148Q418 176 428.5 210.5Q439 245 439 278Q439 341 411 378Q383 415 326 415Q287 415 256.5 397.5Q226 380 205.5 352Q185 324 174.5 289.5Q164 255 164 221Q164 159 191.5 122Q219 85 276 85ZM356 616 214 540 179 606 357 728H381L520 606L475 540Z" glyph-name="ocircumflex" horiz-adv-x="603" unicode="&#244;" /><glyph d="M268 -16Q221 -16 179.5 -1Q138 14 107 41.5Q76 69 58 109Q40 149 40 199Q40 259 59.5 321Q79 383 127 431Q171 475 226 495Q281 515 333 515Q381 515 423 500.5Q465 486 496 458.5Q527 431 545 391.5Q563 352 563 301Q563 239 542.5 177Q522 115 475 68Q431 24 376 4Q321 -16 268 -16ZM276 85Q315 85 345.5 102.5Q376 120 397 148Q418 176 428.5 210.5Q439 245 439 278Q439 341 411 378Q383 415 326 415Q287 415 256.5 397.5Q226 380 205.5 352Q185 324 174.5 289.5Q164 255 164 221Q164 159 191.5 122Q219 85 276 85ZM457 557Q428 557 408.5 574Q389 591 389 619Q389 652 413.5 676.5Q438 701 476 701Q505 701 523.5 683.5Q542 666 542 639Q542 607 518.5 582Q495 557 457 557ZM255 557Q226 557 206.5 574Q187 591 187 619Q187 652 211.5 676.5Q236 701 274 701Q303 701 321.5 683.5Q340 666 340 639Q340 607 316.5 582Q293 557 255 557Z" glyph-name="odieresis" horiz-adv-x="603" unicode="&#246;" /><glyph d="M627 -16Q569 -16 524.5 9Q480 34 454 78L446 70Q404 26 355 5Q306 -16 256 -16Q211 -16 171.5 -1.5Q132 13 102.5 40.5Q73 68 56.5 107.5Q40 147 40 197Q40 257 59.5 320Q79 383 127 431Q169 475 221 495Q273 515 323 515Q384 515 430 491.5Q476 468 502 422L512 432Q552 474 601 494.5Q650 515 704 515Q746 515 780.5 500Q815 485 839.5 456.5Q864 428 877.5 388Q891 348 891 298Q891 279 887.5 256.5Q884 234 877 212H545Q543 155 567.5 119Q592 83 641 83Q677 83 700.5 97.5Q724 112 741 145H862Q833 65 770 24.5Q707 -16 627 -16ZM266 85Q303 85 331.5 103Q360 121 379.5 150.5Q399 180 409 217Q419 254 419 291Q419 346 394.5 380.5Q370 415 318 415Q281 415 252 397Q223 379 203.5 349.5Q184 320 174 283.5Q164 247 164 209Q164 155 188.5 120Q213 85 266 85ZM770 307Q771 311 771 315V323Q771 363 752.5 389.5Q734 416 692 416Q641 416 610.5 386Q580 356 563 307Z" glyph-name="oe" horiz-adv-x="929" unicode="&#339;" /><glyph d="M197 -190Q149 -190 122 -167Q95 -144 95 -109Q95 -85 104.5 -66Q114 -47 130 -31.5Q146 -16 166 -3.5Q186 9 208 18L276 0Q263 -6 248.5 -14.5Q234 -23 221.5 -34Q209 -45 200.5 -59.5Q192 -74 192 -90Q192 -103 200.5 -111Q209 -119 227 -119Q251 -119 280 -105H293L282 -176Q263 -183 240 -186.5Q217 -190 197 -190Z" glyph-name="ogonek" horiz-adv-x="500" unicode="&#731;" /><glyph d="M268 -16Q221 -16 179.5 -1Q138 14 107 41.5Q76 69 58 109Q40 149 40 199Q40 259 59.5 321Q79 383 127 431Q171 475 226 495Q281 515 333 515Q381 515 423 500.5Q465 486 496 458.5Q527 431 545 391.5Q563 352 563 301Q563 239 542.5 177Q522 115 475 68Q431 24 376 4Q321 -16 268 -16ZM276 85Q315 85 345.5 102.5Q376 120 397 148Q418 176 428.5 210.5Q439 245 439 278Q439 341 411 378Q383 415 326 415Q287 415 256.5 397.5Q226 380 205.5 352Q185 324 174.5 289.5Q164 255 164 221Q164 159 191.5 122Q219 85 276 85ZM506 604 466 538 225 650 290 750Z" glyph-name="ograve" horiz-adv-x="603" unicode="&#242;" /><glyph d="M205 0H79L152 465H38L52 554Q82 558 106 561.5Q130 565 149.5 574.5Q169 584 184 602.5Q199 621 212 654H308Z" glyph-name="one" horiz-adv-x="332" unicode="1" /><glyph d="M214 281Q185 281 159.5 290.5Q134 300 115 319Q96 338 85 365.5Q74 393 74 430Q74 471 89.5 509Q105 547 132.5 576Q160 605 198 622.5Q236 640 281 640Q318 640 344 626.5Q370 613 384 590H386L405 629H469L415 291H345L338 335H337Q310 307 281 294Q252 281 214 281ZM247 360Q273 360 292.5 370.5Q312 381 324.5 399Q337 417 343.5 440Q350 463 350 488Q350 523 332.5 543.5Q315 564 279 564Q254 564 234.5 553.5Q215 543 201.5 525Q188 507 181.5 484Q175 461 175 436Q175 402 192.5 381Q210 360 247 360Z" glyph-name="ordfeminine" horiz-adv-x="470" unicode="&#170;" /><glyph d="M231 283Q200 283 171.5 293Q143 303 121 322Q99 341 86.5 368Q74 395 74 429Q74 470 89 510.5Q104 551 133 582Q163 613 200.5 627Q238 641 280 641Q312 641 341 631.5Q370 622 391.5 604Q413 586 426 559.5Q439 533 439 498Q439 456 424.5 413.5Q410 371 378 339Q349 310 311 296.5Q273 283 231 283ZM242 362Q266 362 284.5 373Q303 384 315 402Q327 420 333.5 442.5Q340 465 340 488Q340 520 323.5 541Q307 562 272 562Q248 562 230 551Q212 540 199.5 522Q187 504 181 482Q175 460 175 437Q175 404 191.5 383Q208 362 242 362Z" glyph-name="ordmasculine" horiz-adv-x="447" unicode="&#186;" /><glyph d="M268 -16Q235 -16 205 -8L172 -65H71L73 -52L121 29L107 41Q76 69 58 109Q40 149 40 199Q40 259 59.5 321Q79 383 127 431Q171 475 226 495Q281 515 333 515Q369 515 402 507L436 565H536L534 551L485 467L496 458Q527 431 545 391.5Q563 352 563 301Q563 239 542.5 177Q522 115 475 68Q431 24 376 4Q321 -16 268 -16ZM326 415Q287 415 256.5 397.5Q226 380 205.5 352Q185 324 174.5 289.5Q164 255 164 221Q164 169 183 135L347 413Q337 415 326 415ZM276 85Q315 85 345.5 102.5Q376 120 397 148Q418 176 428.5 210.5Q439 245 439 278Q439 327 422 360L260 85Z" glyph-name="oslash" horiz-adv-x="603" unicode="&#248;" /><glyph d="M268 -16Q221 -16 179.5 -1Q138 14 107 41.5Q76 69 58 109Q40 149 40 199Q40 259 59.5 321Q79 383 127 431Q171 475 226 495Q281 515 333 515Q381 515 423 500.5Q465 486 496 458.5Q527 431 545 391.5Q563 352 563 301Q563 239 542.5 177Q522 115 475 68Q431 24 376 4Q321 -16 268 -16ZM276 85Q315 85 345.5 102.5Q376 120 397 148Q418 176 428.5 210.5Q439 245 439 278Q439 341 411 378Q383 415 326 415Q287 415 256.5 397.5Q226 380 205.5 352Q185 324 174.5 289.5Q164 255 164 221Q164 159 191.5 122Q219 85 276 85ZM261 555H177Q181 582 192.5 608Q204 634 221.5 654Q239 674 262.5 686.5Q286 699 314 699Q337 699 351.5 692Q366 685 378 677Q390 669 402 662Q414 655 431 655Q443 655 458 662Q473 669 478 700H562Q558 673 546.5 647Q535 621 517 601Q499 581 476 568.5Q453 556 424 556Q402 556 387 563Q372 570 360 578Q348 586 335.5 593Q323 600 305 600Q300 600 293 599Q286 598 280 593.5Q274 589 268.5 580Q263 571 261 555Z" glyph-name="otilde" horiz-adv-x="603" unicode="&#245;" /><glyph d="M125 -180H4L112 500H201L210 444H212Q251 486 298.5 501Q346 516 395 516Q436 516 472 501Q508 486 535 458Q562 430 578 390.5Q594 351 594 302Q594 236 572 174.5Q550 113 503 64Q464 23 413.5 4Q363 -15 317 -15Q254 -15 216.5 0.5Q179 16 162 39H160ZM302 83Q343 83 374 101.5Q405 120 426.5 149.5Q448 179 459 216.5Q470 254 470 292Q470 346 442.5 381Q415 416 355 416Q315 416 283.5 397.5Q252 379 231 349.5Q210 320 199 283Q188 246 188 208Q188 154 215.5 118.5Q243 83 302 83Z" glyph-name="p" horiz-adv-x="634" unicode="p" /><glyph d="M406 0H302L391 568H325L287 326H268Q235 326 206.5 338Q178 350 156 370Q134 390 121.5 418Q109 446 109 477Q109 516 123 548Q137 580 162.5 602.5Q188 625 223.5 637.5Q259 650 301 650H508Z" glyph-name="paragraph" horiz-adv-x="565" unicode="&#182;" /><glyph d="M215 -124H116Q87 -49 74 30Q61 109 61 178Q61 321 108 446.5Q155 572 240 696H344L342 682Q271 559 228 427Q185 295 185 146Q185 86 192.5 19.5Q200 -47 217 -110Z" glyph-name="parenleft" horiz-adv-x="321" unicode="(" /><glyph d="M118 696H217Q246 621 259 542Q272 463 272 394Q272 252 225.5 126.5Q179 1 93 -124H-11L-9 -110Q62 13 105 145Q148 277 148 426Q148 486 140.5 552.5Q133 619 116 682Z" glyph-name="parenright" horiz-adv-x="321" unicode=")" /><glyph d="M159 0H79L81 16L538 650H621L619 633ZM460 -4Q435 -4 411.5 5Q388 14 370 30Q352 46 341.5 68Q331 90 331 117Q331 150 343.5 179Q356 208 377.5 229.5Q399 251 429.5 263.5Q460 276 496 276Q522 276 545 267.5Q568 259 585.5 244Q603 229 613.5 207Q624 185 624 158Q624 125 611.5 95.5Q599 66 577.5 44Q556 22 526 9Q496 -4 460 -4ZM468 65Q500 65 519.5 90Q539 115 539 150Q539 174 526.5 190.5Q514 207 488 207Q456 207 436.5 181.5Q417 156 417 121Q417 97 429.5 81Q442 65 468 65ZM204 374Q179 374 155.5 383Q132 392 114 408Q96 424 85.5 446Q75 468 75 495Q75 528 87.5 557Q100 586 121.5 607.5Q143 629 173.5 641.5Q204 654 240 654Q266 654 289 645.5Q312 637 329.5 622Q347 607 357.5 585Q368 563 368 536Q368 503 355.5 473.5Q343 444 321.5 422Q300 400 270 387Q240 374 204 374ZM212 443Q244 443 263.5 468Q283 493 283 528Q283 552 270.5 568.5Q258 585 232 585Q200 585 180.5 559.5Q161 534 161 499Q161 475 173.5 459Q186 443 212 443Z" glyph-name="percent" horiz-adv-x="712" unicode="%" /><glyph d="M121 -7Q90 -7 70.5 8.5Q51 24 51 53Q51 70 56 86.5Q61 103 75 117Q101 141 142 141Q174 141 194.5 125Q215 109 215 81Q215 64 210.5 48Q206 32 193 20Q179 5 161 -1Q143 -7 121 -7Z" glyph-name="period" horiz-adv-x="324" unicode="." /><glyph d="M156 218Q125 218 105.5 233.5Q86 249 86 278Q86 295 91 311.5Q96 328 110 342Q136 366 177 366Q209 366 229.5 350Q250 334 250 306Q250 289 245.5 273Q241 257 228 245Q214 230 196 224Q178 218 156 218Z" glyph-name="periodcentered" horiz-adv-x="324" unicode="&#183;" /><glyph d="M159 0H79L81 16L538 650H621L619 633ZM460 -4Q435 -4 411.5 5Q388 14 370 30Q352 46 341.5 68Q331 90 331 117Q331 150 343.5 179Q356 208 377.5 229.5Q399 251 429.5 263.5Q460 276 496 276Q522 276 545 267.5Q568 259 585.5 244Q603 229 613.5 207Q624 185 624 158Q624 125 611.5 95.5Q599 66 577.5 44Q556 22 526 9Q496 -4 460 -4ZM468 65Q500 65 519.5 90Q539 115 539 150Q539 174 526.5 190.5Q514 207 488 207Q456 207 436.5 181.5Q417 156 417 121Q417 97 429.5 81Q442 65 468 65ZM204 374Q179 374 155.5 383Q132 392 114 408Q96 424 85.5 446Q75 468 75 495Q75 528 87.5 557Q100 586 121.5 607.5Q143 629 173.5 641.5Q204 654 240 654Q266 654 289 645.5Q312 637 329.5 622Q347 607 357.5 585Q368 563 368 536Q368 503 355.5 473.5Q343 444 321.5 422Q300 400 270 387Q240 374 204 374ZM212 443Q244 443 263.5 468Q283 493 283 528Q283 552 270.5 568.5Q258 585 232 585Q200 585 180.5 559.5Q161 534 161 499Q161 475 173.5 459Q186 443 212 443ZM783 -4Q758 -4 734.5 5Q711 14 693 30Q675 46 664.5 68Q654 90 654 117Q654 150 666.5 179Q679 208 700.5 229.5Q722 251 752.5 263.5Q783 276 819 276Q845 276 868 267.5Q891 259 908.5 244Q926 229 936.5 207Q947 185 947 158Q947 125 934.5 95.5Q922 66 900.5 44Q879 22 849 9Q819 -4 783 -4ZM791 65Q823 65 842.5 90Q862 115 862 150Q862 174 849.5 190.5Q837 207 811 207Q779 207 759.5 181.5Q740 156 740 121Q740 97 752.5 81Q765 65 791 65Z" glyph-name="perthousand" horiz-adv-x="1052" unicode="&#8240;" /><glyph d="M343 73H222L254 274H56L73 382H271L303 584H424L392 382H592L575 274H375Z" glyph-name="plus" horiz-adv-x="623" unicode="+" /><glyph d="M364 208H243L268 360H90L106 466H284L309 619H430L405 466H585L569 360H389ZM517 37H38L56 146H535Z" glyph-name="plusminus" horiz-adv-x="623" unicode="&#177;" /><glyph d="M402 -12Q329 -12 265.5 14.5Q202 41 156 87Q110 133 83.5 194.5Q57 256 57 326Q57 396 83.5 457.5Q110 519 156 565Q202 611 265.5 638Q329 665 402 665Q475 665 538 638Q601 611 647.5 565Q694 519 720.5 457.5Q747 396 747 326Q747 256 720.5 194.5Q694 133 647.5 87Q601 41 538 14.5Q475 -12 402 -12ZM402 61Q458 61 505.5 82Q553 103 587.5 139Q622 175 642 223Q662 271 662 326Q662 381 642 429Q622 477 587.5 513Q553 549 505.5 569.5Q458 590 402 590Q346 590 298.5 569.5Q251 549 216 513Q181 477 161.5 429Q142 381 142 326Q142 271 161.5 223Q181 175 216 139Q251 103 298.5 82Q346 61 402 61ZM368 155H291V504H432Q457 504 479.5 497Q502 490 519 476Q536 462 546 441.5Q556 421 556 394V385Q556 359 545.5 338Q535 317 518 303Q501 289 479 281Q457 273 432 273H368ZM368 439V339H425Q454 339 466.5 353.5Q479 368 479 390Q479 409 467.5 424Q456 439 428 439Z" glyph-name="published" horiz-adv-x="780" unicode="&#8471;" /><glyph d="M493 -180H371L408 48H406Q371 15 329 0Q287 -15 238 -15Q198 -15 162 1Q126 17 99 46Q72 75 56 115Q40 155 40 204Q40 270 61 327.5Q82 385 129 434Q168 475 221.5 495.5Q275 516 321 516Q381 516 422.5 496.5Q464 477 487 448H489L515 500H601ZM279 85Q320 85 351 103Q382 121 403 149.5Q424 178 435 212.5Q446 247 446 279Q446 344 416.5 381Q387 418 328 418Q288 418 257 399.5Q226 381 205.5 352.5Q185 324 174.5 288.5Q164 253 164 218Q164 157 191.5 121Q219 85 279 85Z" glyph-name="q" horiz-adv-x="634" unicode="q" /><glyph d="M298 213H192L213 385L223 393Q247 394 272.5 399Q298 404 319 416.5Q340 429 353.5 450Q367 471 367 502Q367 531 347 548.5Q327 566 292 566Q245 566 222 540Q199 514 197 479H82L83 489Q97 577 156 621.5Q215 666 305 666Q345 666 379 654Q413 642 438 621Q463 600 477 571Q491 542 491 507Q491 431 442 383Q393 335 316 309ZM207 -7Q176 -7 156.5 8.5Q137 24 137 53Q137 70 142 86.5Q147 103 161 117Q187 141 228 141Q260 141 280.5 125Q301 109 301 81Q301 64 296.5 48Q292 32 279 20Q265 5 247 -1Q229 -7 207 -7Z" glyph-name="question" horiz-adv-x="494" unicode="?" /><glyph d="M196 296H302L281 124L271 116Q247 115 221.5 110Q196 105 175 92.5Q154 80 140.5 59.5Q127 39 127 7Q127 -22 147 -39.5Q167 -57 202 -57Q249 -57 272 -31Q295 -5 297 30H412L411 20Q397 -68 338 -112.5Q279 -157 189 -157Q149 -157 115 -145Q81 -133 56 -112Q31 -91 17 -62Q3 -33 3 2Q3 78 52.5 126.5Q102 175 178 200ZM287 516Q318 516 337.5 500.5Q357 485 357 456Q357 439 352 422.5Q347 406 333 392Q307 368 266 368Q234 368 213.5 384Q193 400 193 428Q193 445 197.5 461Q202 477 215 489Q229 504 247 510Q265 516 287 516Z" glyph-name="questiondown" horiz-adv-x="494" unicode="&#191;" /><glyph d="M186 401H108L127 634L129 650H243L241 634ZM351 401H273L292 634L294 650H408L406 634Z" glyph-name="quotedbl" horiz-adv-x="411" unicode="&quot;" /><glyph d="M93 -127H13L102 142H239L237 128ZM295 -127H215L304 142H441L439 128Z" glyph-name="quotedblbase" horiz-adv-x="524" unicode="&#8222;" /><glyph d="M432 650H512L423 381H286L288 395ZM233 650H313L224 381H87L89 395Z" glyph-name="quotedblleft" horiz-adv-x="524" unicode="&#8220;" /><glyph d="M176 381H96L185 650H322L320 636ZM376 381H296L385 650H522L520 636Z" glyph-name="quotedblright" horiz-adv-x="524" unicode="&#8221;" /><glyph d="M233 650H313L224 381H87L89 395Z" glyph-name="quoteleft" horiz-adv-x="324" unicode="&#8216;" /><glyph d="M176 381H96L185 650H322L320 636Z" glyph-name="quoteright" horiz-adv-x="324" unicode="&#8217;" /><glyph d="M93 -128H13L102 141H239L237 127Z" glyph-name="quotesinglbase" horiz-adv-x="346" unicode="&#8218;" /><glyph d="M186 401H108L127 634L129 650H243L241 634Z" glyph-name="quotesingle" horiz-adv-x="246" unicode="&apos;" /><glyph d="M153 0H32L111 500H197L206 413H208Q229 458 273 481Q317 504 363 504Q371 504 383 503.5Q395 503 403 501L384 382H339Q296 382 269 371Q242 360 226 340.5Q210 321 202.5 295Q195 269 190 239Z" glyph-name="r" horiz-adv-x="392" unicode="r" /><glyph d="M401 -11Q331 -11 268.5 15.5Q206 42 159 88Q112 134 85 195.5Q58 257 58 327Q58 397 85 458.5Q112 520 159 566Q206 612 268.5 638.5Q331 665 401 665Q472 665 534 638.5Q596 612 643 566Q690 520 717 458.5Q744 397 744 327Q744 257 717 195.5Q690 134 643 88Q596 42 534 15.5Q472 -11 401 -11ZM401 60Q455 60 502.5 81Q550 102 585.5 138.5Q621 175 641.5 223.5Q662 272 662 327Q662 382 641.5 430.5Q621 479 585.5 515Q550 551 502.5 572Q455 593 401 593Q348 593 300.5 572Q253 551 217.5 515Q182 479 161.5 430.5Q141 382 141 327Q141 272 161.5 223.5Q182 175 217.5 138.5Q253 102 300.5 81Q348 60 401 60ZM355 155H277V505H420Q445 505 467.5 498Q490 491 507 476.5Q524 462 534 441.5Q544 421 544 394V384Q544 348 525 323Q506 298 476 284L558 173V155H479L395 271H355ZM355 436V340H408Q437 340 451.5 354Q466 368 466 388Q466 409 454.5 422.5Q443 436 415 436Z" glyph-name="registered" horiz-adv-x="776" unicode="&#174;" /><glyph d="M301 538Q260 538 233.5 564.5Q207 591 207 628Q207 651 217 671.5Q227 692 243.5 708Q260 724 282.5 733Q305 742 329 742Q370 742 396.5 715.5Q423 689 423 652Q423 629 413 608.5Q403 588 386.5 572Q370 556 347.5 547Q325 538 301 538ZM308 598Q327 598 342.5 613Q358 628 358 648Q358 663 348 672.5Q338 682 322 682Q303 682 287.5 667.5Q272 653 272 633Q272 618 282 608Q292 598 308 598Z" glyph-name="ring" horiz-adv-x="500" unicode="&#730;" /><glyph d="M220 -15Q179 -15 142 -5.5Q105 4 78 24.5Q51 45 37 76Q23 107 28 150L30 160H144Q138 118 157.5 97.5Q177 77 225 77Q239 77 254.5 80.5Q270 84 282.5 91.5Q295 99 303 111.5Q311 124 311 143Q311 151 308.5 159.5Q306 168 299 175Q284 190 258 199Q232 208 203 216.5Q174 225 145.5 236.5Q117 248 97 268Q82 283 73 305.5Q64 328 64 354Q64 396 81.5 426Q99 456 127.5 476Q156 496 193.5 505.5Q231 515 271 515Q308 515 341.5 507Q375 499 400 481.5Q425 464 439 437Q453 410 451 372L450 362H340Q345 397 324.5 411Q304 425 264 425Q235 425 212 411.5Q189 398 189 367Q189 351 200 340Q212 328 237 320.5Q262 313 291 304.5Q320 296 350 283.5Q380 271 402 249Q417 234 425 210.5Q433 187 433 164Q433 119 415.5 85.5Q398 52 369 29.5Q340 7 301 -4Q262 -15 220 -15Z" glyph-name="s" horiz-adv-x="489" unicode="s" /><glyph d="M225 -215Q172 -215 129 -203.5Q86 -192 57 -169Q28 -146 13.5 -111Q-1 -76 4 -29L6 -17H133Q127 -61 153 -88Q179 -115 230 -115Q250 -115 270.5 -109Q291 -103 307 -91.5Q323 -80 333 -62.5Q343 -45 343 -21Q343 3 328 18Q312 34 281.5 45Q251 56 216.5 67Q182 78 148.5 91.5Q115 105 93 127Q52 168 52 230Q52 271 69.5 309.5Q87 348 117 378Q105 394 97.5 415.5Q90 437 90 463Q90 513 110 550.5Q130 588 163.5 612.5Q197 637 241 649.5Q285 662 332 662Q378 662 417.5 652Q457 642 484.5 621.5Q512 601 526 569.5Q540 538 536 494L534 482H412Q417 516 395 539.5Q373 563 323 563Q305 563 287.5 558.5Q270 554 256 544Q242 534 233.5 518Q225 502 225 480Q225 455 242 441Q259 428 288.5 417.5Q318 407 351 396Q384 385 415.5 371.5Q447 358 467 338Q485 320 498 292.5Q511 265 511 232Q511 195 496 154Q481 113 450 79Q461 64 467.5 42.5Q474 21 474 -9Q474 -59 452.5 -97.5Q431 -136 396 -162Q361 -188 316.5 -201.5Q272 -215 225 -215ZM357 153Q380 176 380 211Q380 246 352.5 261Q325 276 283 287L218 307Q204 296 196 280.5Q188 265 188 244Q188 215 210 202.5Q232 190 265 181Q300 171 320 165Q340 159 357 153Z" glyph-name="section" horiz-adv-x="559" unicode="&#167;" /><glyph d="M79 -127H-1L88 142H225L223 128ZM186 315Q155 315 135.5 330.5Q116 346 116 375Q116 392 121 408.5Q126 425 140 439Q166 463 207 463Q239 463 259.5 447Q280 431 280 403Q280 386 275.5 370Q271 354 258 342Q244 327 226 321Q208 315 186 315Z" glyph-name="semicolon" horiz-adv-x="324" unicode=";" /><glyph d="M334 405H280L318 650H383L427 501L516 650H583L545 405H493L519 567H518L445 443H394L359 564H358ZM151 399Q113 399 86 416Q59 433 61 472L62 476H116Q114 459 126 450Q138 441 158 441Q171 441 185 448Q199 455 199 471Q199 482 192 487.5Q185 493 176 498Q159 505 135.5 513Q112 521 98 535Q83 550 83 575Q83 615 112 635.5Q141 656 180 656Q197 656 213 652.5Q229 649 241.5 641Q254 633 261 620.5Q268 608 266 590L265 585H213Q214 597 205.5 605.5Q197 614 177 614Q164 614 151.5 608.5Q139 603 139 586Q139 570 156 562Q174 552 199 545.5Q224 539 239 524Q256 507 256 484Q256 441 224 420Q192 399 151 399Z" glyph-name="servicemark" horiz-adv-x="567" unicode="&#8480;" /><glyph d="M187 0H52L54 16Q77 85 110.5 158Q144 231 186.5 300.5Q229 370 280 432Q331 494 391 540L392 542H90L109 650H581L567 559Q493 496 433.5 432.5Q374 369 327.5 300.5Q281 232 246.5 158Q212 84 187 0Z" glyph-name="seven" horiz-adv-x="545" unicode="7" /><glyph d="M245 -15Q196 -15 156 -1Q116 13 88 38Q60 63 45 99Q30 135 30 178Q30 226 45.5 273.5Q61 321 86 365.5Q111 410 143.5 450.5Q176 491 210 525Q252 567 287.5 596Q323 625 362 650H517L515 634Q481 612 444.5 585Q408 558 373 528.5Q338 499 305.5 468Q273 437 247 406L248 404Q265 414 290 422Q315 430 338 430Q377 430 412 417Q447 404 472.5 380Q498 356 513 322Q528 288 528 247Q528 195 507 146.5Q486 98 452 64Q410 22 356 3.5Q302 -15 245 -15ZM263 86Q291 86 316 98Q341 110 360 130Q379 150 390 176.5Q401 203 401 232Q401 270 376.5 298Q352 326 298 326Q267 326 242 315Q217 304 199 285Q181 266 171 240Q161 214 161 185Q161 166 167 148Q173 130 185 116.5Q197 103 216.5 94.5Q236 86 263 86Z" glyph-name="six" horiz-adv-x="569" unicode="6" /><glyph d="M88 -124H-34V-110L430 696H552V682Z" glyph-name="slash" horiz-adv-x="506" unicode="/" /><glyph glyph-name="space" horiz-adv-x="180" unicode=" " /><glyph d="M362 -8Q329 -8 302.5 0Q276 8 252.5 17Q229 26 207.5 34Q186 42 164 42Q141 42 125.5 33Q110 24 107 0H1Q2 29 12 54.5Q22 80 41 99.5Q60 119 87 131Q114 143 149 144Q157 159 162 176Q167 193 167 213Q167 237 159 263H56L71 357H126Q118 377 111.5 405.5Q105 434 105 457Q105 505 122.5 543.5Q140 582 170.5 609Q201 636 243.5 650.5Q286 665 336 665Q381 665 418 653.5Q455 642 480 618.5Q505 595 515.5 559Q526 523 518 474L516 463H401L402 469Q409 514 393.5 541.5Q378 569 329 569Q283 569 256.5 535.5Q230 502 230 453Q230 428 238 404Q246 380 254 357H427L412 263H280Q282 247 281.5 232Q281 217 278 202Q271 158 255 123Q284 112 311 103.5Q338 95 367 95Q390 95 407 108.5Q424 122 426 154H527L525 142Q520 116 508.5 89Q497 62 477.5 40.5Q458 19 429.5 5.5Q401 -8 362 -8Z" glyph-name="sterling" horiz-adv-x="570" unicode="&#163;" /><glyph d="M213 -9Q135 -9 99.5 33.5Q64 76 77 156L116 406H48L57 461Q120 489 156 528.5Q192 568 218 613H271L253 500H380L365 406H238L197 148Q192 114 206 103Q220 92 243 92Q263 92 281.5 98Q300 104 317 115H334L318 16Q301 5 270 -2Q239 -9 213 -9Z" glyph-name="t" horiz-adv-x="387" unicode="t" /><glyph d="M221 -16Q121 -16 69 31.5Q17 79 17 156Q17 164 18 169.5Q19 175 21 191H142Q138 137 162 112Q186 87 237 87Q265 87 289 97.5Q313 108 330.5 127Q348 146 358 172Q368 198 368 228Q368 270 340 293.5Q312 317 258 317Q247 317 229 316Q211 315 200 313L190 321L184 377L266 459Q285 478 311 503.5Q337 529 360 550V552Q340 550 316 549Q292 548 272 548H104L121 650H527L516 575L350 401Q415 389 455 344Q495 299 495 238Q495 188 477.5 141.5Q460 95 426 61Q382 17 330.5 0.5Q279 -16 221 -16Z" glyph-name="three" horiz-adv-x="545" unicode="3" /><glyph d="M208 555H124Q128 582 139.5 608Q151 634 168.5 654Q186 674 209.5 686.5Q233 699 261 699Q284 699 298.5 692Q313 685 325 677Q337 669 349 662Q361 655 378 655Q390 655 405 662Q420 669 425 700H509Q505 673 493.5 647Q482 621 464 601Q446 581 423 568.5Q400 556 371 556Q349 556 334 563Q319 570 307 578Q295 586 282.5 593Q270 600 252 600Q247 600 240 599Q233 598 227 593.5Q221 589 215.5 580Q210 571 208 555Z" glyph-name="tilde" horiz-adv-x="500" unicode="&#732;" /><glyph d="M334 405H280L318 650H383L427 501L516 650H583L545 405H493L519 567H518L445 443H394L359 564H358ZM174 405H119L150 601H81L88 650H279L272 601H205Z" glyph-name="trademark" horiz-adv-x="567" unicode="&#8482;" /><glyph d="M471 0H13L26 81Q70 114 108.5 143Q147 172 183 200Q219 228 252.5 257Q286 286 319 319Q336 336 352 354.5Q368 373 381.5 394Q395 415 403 438.5Q411 462 411 487Q411 522 386 541Q361 560 323 560Q270 560 235.5 523Q201 486 201 428V414L199 398H83Q83 403 82.5 415Q82 427 82 435Q82 486 101.5 528.5Q121 571 154.5 601Q188 631 233 648Q278 665 329 665Q376 665 414.5 653Q453 641 480.5 619Q508 597 523 565Q538 533 538 494Q538 425 504 368Q470 311 412 253Q373 214 328 178Q283 142 236 107V105H489Z" glyph-name="two" horiz-adv-x="570" unicode="2" /><glyph d="M246 -16Q201 -16 162.5 -1Q124 14 97 42Q70 70 58 110.5Q46 151 54 202L101 500H221L174 203Q169 170 174 147.5Q179 125 191 112Q203 99 220.5 93.5Q238 88 257 88Q297 88 327.5 112Q358 136 368 203L415 500H535L484 182Q476 131 454.5 93.5Q433 56 402 31.5Q371 7 331 -4.5Q291 -16 246 -16Z" glyph-name="u" horiz-adv-x="556" unicode="u" /><glyph d="M246 -16Q201 -16 162.5 -1Q124 14 97 42Q70 70 58 110.5Q46 151 54 202L101 500H221L174 203Q169 170 174 147.5Q179 125 191 112Q203 99 220.5 93.5Q238 88 257 88Q297 88 327.5 112Q358 136 368 203L415 500H535L484 182Q476 131 454.5 93.5Q433 56 402 31.5Q371 7 331 -4.5Q291 -16 246 -16ZM505 650 228 538 201 610 465 753Z" glyph-name="uacute" horiz-adv-x="556" unicode="&#250;" /><glyph d="M246 -16Q201 -16 162.5 -1Q124 14 97 42Q70 70 58 110.5Q46 151 54 202L101 500H221L174 203Q169 170 174 147.5Q179 125 191 112Q203 99 220.5 93.5Q238 88 257 88Q297 88 327.5 112Q358 136 368 203L415 500H535L484 182Q476 131 454.5 93.5Q433 56 402 31.5Q371 7 331 -4.5Q291 -16 246 -16ZM330 616 188 540 153 606 331 728H355L494 606L449 540Z" glyph-name="ucircumflex" horiz-adv-x="556" unicode="&#251;" /><glyph d="M246 -16Q201 -16 162.5 -1Q124 14 97 42Q70 70 58 110.5Q46 151 54 202L101 500H221L174 203Q169 170 174 147.5Q179 125 191 112Q203 99 220.5 93.5Q238 88 257 88Q297 88 327.5 112Q358 136 368 203L415 500H535L484 182Q476 131 454.5 93.5Q433 56 402 31.5Q371 7 331 -4.5Q291 -16 246 -16ZM432 557Q403 557 383.5 574Q364 591 364 619Q364 652 388.5 676.5Q413 701 451 701Q480 701 498.5 683.5Q517 666 517 639Q517 607 493.5 582Q470 557 432 557ZM230 557Q201 557 181.5 574Q162 591 162 619Q162 652 186.5 676.5Q211 701 249 701Q278 701 296.5 683.5Q315 666 315 639Q315 607 291.5 582Q268 557 230 557Z" glyph-name="udieresis" horiz-adv-x="556" unicode="&#252;" /><glyph d="M246 -16Q201 -16 162.5 -1Q124 14 97 42Q70 70 58 110.5Q46 151 54 202L101 500H221L174 203Q169 170 174 147.5Q179 125 191 112Q203 99 220.5 93.5Q238 88 257 88Q297 88 327.5 112Q358 136 368 203L415 500H535L484 182Q476 131 454.5 93.5Q433 56 402 31.5Q371 7 331 -4.5Q291 -16 246 -16ZM471 604 431 538 190 650 255 750Z" glyph-name="ugrave" horiz-adv-x="556" unicode="&#249;" /><glyph d="M253 -206H-76L-57 -108H272Z" glyph-name="underscore" horiz-adv-x="325" unicode="_" /><glyph d="M279 0H166L41 485L44 500H162L221 224Q226 202 230.5 175Q235 148 237 124H239Q249 148 261.5 174.5Q274 201 286 224L428 500H560L557 485Z" glyph-name="v" horiz-adv-x="524" unicode="v" /><glyph d="M257 0H139L60 485L63 500H176L211 232Q214 209 215.5 179.5Q217 150 218 127H220Q226 150 237 179.5Q248 209 259 232L382 500H512L549 232Q552 209 553.5 179.5Q555 150 556 127H558Q564 150 575 179.5Q586 209 597 232L719 500H833L830 485L599 0H481L437 279Q428 324 428 369H426Q418 346 409 324Q400 302 389 279Z" glyph-name="w" horiz-adv-x="816" unicode="w" /><glyph d="M117 0H-20L-18 15L206 265L83 485L86 500H210L285 354L408 500H544L541 485L349 269L496 15L494 0H371L271 179Z" glyph-name="x" horiz-adv-x="552" unicode="x" /><glyph d="M178 -180H49L51 -165L165 19L41 485L44 500H163L227 233Q232 211 237.5 181.5Q243 152 247 129H249Q260 157 269.5 179.5Q279 202 291 225L439 500H570L567 485Z" glyph-name="y" horiz-adv-x="534" unicode="y" /><glyph d="M178 -180H49L51 -165L165 19L41 485L44 500H163L227 233Q232 211 237.5 181.5Q243 152 247 129H249Q260 157 269.5 179.5Q279 202 291 225L439 500H570L567 485ZM432 557Q403 557 383.5 574Q364 591 364 619Q364 652 388.5 676.5Q413 701 451 701Q480 701 498.5 683.5Q517 666 517 639Q517 607 493.5 582Q470 557 432 557ZM230 557Q201 557 181.5 574Q162 591 162 619Q162 652 186.5 676.5Q211 701 249 701Q278 701 296.5 683.5Q315 666 315 639Q315 607 291.5 582Q268 557 230 557Z" glyph-name="ydieresis" horiz-adv-x="534" unicode="&#255;" /><glyph d="M335 0H209L245 227H38L50 298H231L204 354H59L70 425H169L68 634L70 650H195L325 362L548 650H680L678 634L509 425H615L604 354H452L407 298H595L583 227H371Z" glyph-name="yen" horiz-adv-x="646" unicode="&#165;" /><glyph d="M402 0H4L15 75L304 404L305 406H78L93 500H481L469 425L177 96L176 94H416Z" glyph-name="z" horiz-adv-x="489" unicode="z" /><glyph d="M260 -15Q207 -15 167.5 3Q128 21 101.5 53Q75 85 62 130.5Q49 176 49 230Q49 274 55.5 322Q62 370 76.5 417.5Q91 465 114 508.5Q137 552 171 586Q211 626 257 645.5Q303 665 364 665Q417 665 456.5 647.5Q496 630 522.5 598Q549 566 562 521Q575 476 575 421Q575 374 569 324.5Q563 275 548 228Q533 181 508.5 137Q484 93 448 57Q411 20 364 2.5Q317 -15 260 -15ZM275 94Q329 94 362.5 130Q396 166 415 217.5Q434 269 441 326.5Q448 384 448 426Q448 486 426.5 521Q405 556 349 556Q295 555 261 519.5Q227 484 208.5 433Q190 382 183 326Q176 270 176 226Q176 165 197.5 129.5Q219 94 275 94Z" glyph-name="zero" horiz-adv-x="600" unicode="0" /></font>
</defs>
</svg>
