<?xml version="1.0" encoding="UTF-8" standalone="no"?>
<svg width="32px" height="32px" viewBox="0 0 32 32" version="1.1" xmlns="http://www.w3.org/2000/svg" xmlns:xlink="http://www.w3.org/1999/xlink">
    <!-- Generator: Sketch 3.6.1 (26313) - http://www.bohemiancoding.com/sketch -->
    <title>times</title>
    <desc>Created with Sketch.</desc>
    <defs></defs>
    <g id="close-icon" fill-rule="evenodd" fill="#fff">
        <g id="times" >
            <path d="M17.4142136,16 L23.7764339,9.63777963 C24.1745374,9.23967616 24.1686989,8.6123497 23.7781746,8.22182541 C23.3849276,7.82857845 22.753706,7.83208044 22.3622204,8.22356607 L16,14.5857864 L9.63777963,8.22356607 C9.23967616,7.8254626 8.6123497,7.83130112 8.22182541,8.22182541 C7.82857845,8.61507236 7.83208044,9.246294 8.22356607,9.63777963 L14.5857864,16 L8.22356607,22.3622204 C7.8254626,22.7603238 7.83130112,23.3876503 8.22182541,23.7781746 C8.61507236,24.1714215 9.246294,24.1679196 9.63777963,23.7764339 L16,17.4142136 L22.3622204,23.7764339 C22.7603238,24.1745374 23.3876503,24.1686989 23.7781746,23.7781746 C24.1714215,23.3849276 24.1679196,22.753706 23.7764339,22.3622204 L17.4142136,16 L17.4142136,16 Z"></path>
        </g>
    </g>
</svg>