<?xml version="1.0" encoding="UTF-8"?>
<svg width="32px" height="32px" viewBox="0 0 32 32" version="1.1" xmlns="http://www.w3.org/2000/svg" xmlns:xlink="http://www.w3.org/1999/xlink">
    <!-- Generator: Sketch 41.2 (35397) - http://www.bohemiancoding.com/sketch -->
    <title>2-icon/info-circle/info-blue</title>
    <desc>Created with Sketch.</desc>
    <defs></defs>
    <g id="Guide" stroke="none" stroke-width="1" fill="none" fill-rule="evenodd">
        <g id="Iconography" transform="translate(-395.000000, -331.000000)" fill="#4AB7E2">
            <g id="icons-circles" transform="translate(135.000000, 247.000000)">
                <g id="2-icon/info-circle/info-blue" transform="translate(260.000000, 84.000000)">
                    <path d="M16,32 C24.836556,32 32,24.836556 32,16 C32,7.163444 24.836556,0 16,0 C7.163444,0 0,7.163444 0,16 C0,24.836556 7.163444,32 16,32 Z M14.5999756,12.9985023 C14.5999756,12.4470447 15.0426359,12 15.5989321,12 L16.601019,12 C17.1527275,12 17.5999756,12.4474894 17.5999756,12.9985023 L17.5999756,24.0014977 C17.5999756,24.5529553 17.1573153,25 16.601019,25 L15.5989321,25 C15.0472237,25 14.5999756,24.5525106 14.5999756,24.0014977 L14.5999756,12.9985023 Z M14.5999756,7.99895656 C14.5999756,7.44724809 15.0426359,7 15.5989321,7 L16.601019,7 C17.1527275,7 17.5999756,7.44266033 17.5999756,7.99895656 L17.5999756,9.00104344 C17.5999756,9.55275191 17.1573153,10 16.601019,10 L15.5989321,10 C15.0472237,10 14.5999756,9.55733967 14.5999756,9.00104344 L14.5999756,7.99895656 Z"></path>
                </g>
            </g>
        </g>
    </g>
</svg>