<?xml version="1.0" standalone="no"?><!DOCTYPE svg PUBLIC "-//W3C//DTD SVG 1.1//EN" "http://www.w3.org/Graphics/SVG/1.1/DTD/svg11.dtd" ><svg version="1.1" xmlns="http://www.w3.org/2000/svg"><defs><font horiz-adv-x="0" id="font"><font-face ascent="750" bbox="-137 -204 994 887" cap-height="650" descent="-250" font-family="AT Fabriga Web" font-stretch="normal" font-style="normal" font-weight="600" units-per-em="1000" x-height="500" /><missing-glyph horiz-adv-x="176" /><glyph d="M118 0H22V15L290 650H372L641 15V0H541L479 154H180ZM304 464 213 238H445L353 466Q352 470 348.5 478.5Q345 487 341.5 497Q338 507 335 517Q332 527 330 533H328L315 495Q312 485 309 476.5Q306 468 304 464Z" glyph-name="A" horiz-adv-x="663" unicode="A" /><glyph d="M854 0H454V154H197L103 0H2V15L397 650H854V566H548V373H811V289H548V84H854ZM454 570H452L249 238H454Z" glyph-name="AE" horiz-adv-x="920" unicode="&#198;" /><glyph d="M118 0H22V15L290 650H372L641 15V0H541L479 154H180ZM304 464 213 238H445L353 466Q352 470 348.5 478.5Q345 487 341.5 497Q338 507 335 517Q332 527 330 533H328L315 495Q312 485 309 476.5Q306 468 304 464ZM463 806 228 693 199 745 417 887Z" glyph-name="Aacute" horiz-adv-x="663" unicode="&#193;" /><glyph d="M118 0H22V15L290 650H372L641 15V0H541L479 154H180ZM304 464 213 238H445L353 466Q352 470 348.5 478.5Q345 487 341.5 497Q338 507 335 517Q332 527 330 533H328L315 495Q312 485 309 476.5Q306 468 304 464ZM330 777 207 701 172 755 330 870 493 755 458 701Z" glyph-name="Acircumflex" horiz-adv-x="663" unicode="&#194;" /><glyph d="M118 0H22V15L290 650H372L641 15V0H541L479 154H180ZM304 464 213 238H445L353 466Q352 470 348.5 478.5Q345 487 341.5 497Q338 507 335 517Q332 527 330 533H328L315 495Q312 485 309 476.5Q306 468 304 464ZM425 709Q398 709 379.5 725.5Q361 742 361 769Q361 795 379.5 812Q398 829 425 829Q451 829 469.5 812.5Q488 796 488 769Q488 743 469.5 726Q451 709 425 709ZM237 709Q211 709 192.5 725.5Q174 742 174 769Q174 795 192 812Q210 829 237 829Q263 829 282 812.5Q301 796 301 769Q301 743 282 726Q263 709 237 709Z" glyph-name="Adieresis" horiz-adv-x="663" unicode="&#196;" /><glyph d="M118 0H22V15L290 650H372L641 15V0H541L479 154H180ZM304 464 213 238H445L353 466Q352 470 348.5 478.5Q345 487 341.5 497Q338 507 335 517Q332 527 330 533H328L315 495Q312 485 309 476.5Q306 468 304 464ZM463 745 434 693 199 806 245 887Z" glyph-name="Agrave" horiz-adv-x="663" unicode="&#192;" /><glyph d="M118 0H22V15L279 625Q269 631 260 640Q232 668 232 709Q232 749 260.5 776.5Q289 804 331 804Q373 804 401.5 776.5Q430 749 430 709Q430 668 401 640Q392 631 382 625L641 15V0H541L479 154H180ZM304 464 213 238H445L353 466Q352 470 348.5 478.5Q345 487 341.5 497Q338 507 335 517Q332 527 330 533H328L315 495Q312 485 309 476.5Q306 468 304 464ZM331 664Q349 664 361.5 677Q374 690 374 709Q374 728 362 740.5Q350 753 331 753Q313 753 300.5 740Q288 727 288 709Q288 690 300.5 677Q313 664 331 664Z" glyph-name="Aring" horiz-adv-x="663" unicode="&#197;" /><glyph d="M118 0H22V15L290 650H372L641 15V0H541L479 154H180ZM304 464 213 238H445L353 466Q352 470 348.5 478.5Q345 487 341.5 497Q338 507 335 517Q332 527 330 533H328L315 495Q312 485 309 476.5Q306 468 304 464ZM228 710H162Q162 733 168.5 754.5Q175 776 187.5 793.5Q200 811 219.5 821.5Q239 832 264 832Q287 832 303.5 825Q320 818 334.5 809.5Q349 801 363 794Q377 787 393 787Q407 787 420.5 795Q434 803 434 835H500Q500 813 493.5 791Q487 769 474.5 751.5Q462 734 443 723.5Q424 713 398 713Q376 713 359 720Q342 727 327 735.5Q312 744 298.5 751Q285 758 268 758Q254 758 241 750Q228 742 228 710Z" glyph-name="Atilde" horiz-adv-x="663" unicode="&#195;" /><glyph d="M358 0H88V650H328Q370 650 406.5 640Q443 630 470 609.5Q497 589 512.5 557Q528 525 528 480V474Q528 424 506.5 390.5Q485 357 451 340V338Q471 331 490.5 316.5Q510 302 525 282Q540 262 549.5 237.5Q559 213 559 186V180Q559 135 544 101Q529 67 502 44.5Q475 22 438 11Q401 0 358 0ZM182 290V83H356Q391 83 412 93Q433 103 444.5 118Q456 133 460 151Q464 169 464 186Q464 201 460 219.5Q456 238 444 253.5Q432 269 411 279.5Q390 290 357 290ZM182 567V372H346Q371 372 387.5 381.5Q404 391 414 406Q424 421 428.5 439.5Q433 458 433 476Q433 490 429 505.5Q425 521 414.5 535Q404 549 385.5 558Q367 567 339 567Z" glyph-name="B" horiz-adv-x="603" unicode="B" /><glyph d="M365 -15Q299 -15 241.5 8.5Q184 32 142 75.5Q100 119 76 180Q52 241 52 316V338Q52 410 76.5 470Q101 530 143 573.5Q185 617 241.5 641Q298 665 363 665Q427 665 477 647Q527 629 563 598.5Q599 568 620 527Q641 486 645 439V431H553Q546 461 533 488Q520 515 498 535Q476 555 443 567Q410 579 362 579Q313 579 273 560.5Q233 542 205.5 509Q178 476 163 430Q148 384 148 329Q148 271 164 223.5Q180 176 209 142Q238 108 278.5 89.5Q319 71 368 71Q414 71 447 83.5Q480 96 502 118Q524 140 537 169Q550 198 555 231H648V223Q641 169 617.5 125Q594 81 557 50Q520 19 471 2Q422 -15 365 -15Z" glyph-name="C" horiz-adv-x="693" unicode="C" /><glyph d="M312 -185Q266 -185 234 -173V-116H244Q262 -123 279 -125.5Q296 -128 307 -128Q333 -128 345 -119.5Q357 -111 357 -100Q357 -71 312 -69L308 -62L328 -13Q283 -8 241 8Q184 32 142 75.5Q100 119 76 180Q52 241 52 316V338Q52 410 76.5 470Q101 530 143 573.5Q185 617 241.5 641Q298 665 363 665Q427 665 477 647Q527 629 563 598.5Q599 568 620 527Q641 486 645 439V431H553Q546 461 533 488Q520 515 498 535Q476 555 443 567Q410 579 362 579Q313 579 273 560.5Q233 542 205.5 509Q178 476 163 430Q148 384 148 329Q148 271 164 223.5Q180 176 209 142Q238 108 278.5 89.5Q319 71 368 71Q414 71 447 83.5Q480 96 502 118Q524 140 537 169Q550 198 555 231H648V223Q641 169 617.5 125Q594 81 557 50Q520 19 471 2Q434 -10 394 -14L383 -44Q405 -51 418 -65.5Q431 -80 431 -101Q431 -122 420.5 -138Q410 -154 393.5 -164.5Q377 -175 355.5 -180Q334 -185 312 -185Z" glyph-name="Ccedilla" horiz-adv-x="693" unicode="&#199;" /><glyph d="M315 0H88V650H315Q461 650 550 561Q588 523 610.5 464Q633 405 633 335V313Q633 239 608 181Q583 123 545 85Q506 46 445 23Q384 0 315 0ZM182 566V84H307Q418 84 471 137Q506 172 522 219Q538 266 538 324Q538 381 522 428.5Q506 476 474 508Q445 537 404 551.5Q363 566 305 566Z" glyph-name="D" horiz-adv-x="685" unicode="D" /><glyph d="M488 0H88V650H488V566H182V373H445V289H182V84H488Z" glyph-name="E" horiz-adv-x="554" unicode="E" /><glyph d="M488 0H88V650H488V566H182V373H445V289H182V84H488ZM409 806 174 693 145 745 363 887Z" glyph-name="Eacute" horiz-adv-x="554" unicode="&#201;" /><glyph d="M488 0H88V650H488V566H182V373H445V289H182V84H488ZM275 777 152 701 117 755 275 870 438 755 403 701Z" glyph-name="Ecircumflex" horiz-adv-x="554" unicode="&#202;" /><glyph d="M488 0H88V650H488V566H182V373H445V289H182V84H488ZM376 709Q349 709 330.5 725.5Q312 742 312 769Q312 795 330.5 812Q349 829 376 829Q402 829 420.5 812.5Q439 796 439 769Q439 743 420.5 726Q402 709 376 709ZM188 709Q162 709 143.5 725.5Q125 742 125 769Q125 795 143 812Q161 829 188 829Q214 829 233 812.5Q252 796 252 769Q252 743 233 726Q214 709 188 709Z" glyph-name="Edieresis" horiz-adv-x="554" unicode="&#203;" /><glyph d="M488 0H88V650H488V566H182V373H445V289H182V84H488ZM409 745 380 693 145 806 191 887Z" glyph-name="Egrave" horiz-adv-x="554" unicode="&#200;" /><glyph d="M380 -15Q332 -15 290 2Q248 19 214.5 50.5Q181 82 157 127.5Q133 173 122 229H5L21 300H115V352H36L53 423H121Q132 478 155 523Q178 568 211.5 599.5Q245 631 287.5 648Q330 665 379 665Q428 665 469.5 650Q511 635 542.5 607.5Q574 580 593 539.5Q612 499 616 448V440H526Q522 470 511.5 496Q501 522 483.5 541.5Q466 561 440.5 572Q415 583 381 583Q317 583 274.5 539Q232 495 220 423H440L423 352H210V317Q210 307 211 300H408L391 229H221Q238 158 279.5 113Q321 68 385 68Q419 68 444.5 80Q470 92 487.5 113Q505 134 515 162.5Q525 191 528 224H619V216Q616 164 597 121Q578 78 546 48Q514 18 472 1.5Q430 -15 380 -15Z" glyph-name="Euro" horiz-adv-x="670" unicode="&#8364;" /><glyph d="M182 0H88V650H498V566H182V353H455V269H182Z" glyph-name="F" horiz-adv-x="545" unicode="F" /><glyph d="M376 -15Q301 -15 241 10Q181 35 139 78.5Q97 122 74.5 182Q52 242 52 312V334Q52 409 76 470Q100 531 142 574.5Q184 618 242 641.5Q300 665 367 665Q418 665 465.5 653Q513 641 551 615.5Q589 590 613.5 550Q638 510 643 455V446H549Q541 517 491 548Q441 579 368 579Q315 579 274 560Q233 541 204.5 507Q176 473 161.5 426Q147 379 147 324Q147 270 162 223.5Q177 177 207 143Q237 109 283 89.5Q329 70 390 70Q444 70 488.5 88Q533 106 569 140V259H378V343H662V116Q616 59 543.5 22Q471 -15 376 -15Z" glyph-name="G" horiz-adv-x="732" unicode="G" /><glyph d="M182 0H88V650H182V373H541V650H635V0H541V289H182Z" glyph-name="H" horiz-adv-x="723" unicode="H" /><glyph d="M182 0H88V650H182Z" glyph-name="I" horiz-adv-x="270" unicode="I" /><glyph d="M182 0H88V650H182ZM267 806 32 693 3 745 221 887Z" glyph-name="Iacute" horiz-adv-x="270" unicode="&#205;" /><glyph d="M182 0H88V650H182ZM134 777 11 701 -24 755 134 870 297 755 262 701Z" glyph-name="Icircumflex" horiz-adv-x="270" unicode="&#206;" /><glyph d="M182 0H88V650H182ZM229 709Q202 709 183.5 725.5Q165 742 165 769Q165 795 183.5 812Q202 829 229 829Q255 829 273.5 812.5Q292 796 292 769Q292 743 273.5 726Q255 709 229 709ZM41 709Q15 709 -3.5 725.5Q-22 742 -22 769Q-22 795 -4 812Q14 829 41 829Q67 829 86 812.5Q105 796 105 769Q105 743 86 726Q67 709 41 709Z" glyph-name="Idieresis" horiz-adv-x="270" unicode="&#207;" /><glyph d="M182 0H88V650H182ZM267 745 238 693 3 806 49 887Z" glyph-name="Igrave" horiz-adv-x="270" unicode="&#204;" /><glyph d="M142 -16Q119 -16 90 -12.5Q61 -9 38 2V87H54Q71 79 90 74Q109 69 130 69Q151 69 168.5 74Q186 79 199 91Q215 106 222.5 129.5Q230 153 230 191V650H322V184Q322 148 313.5 112.5Q305 77 284.5 48.5Q264 20 229.5 2Q195 -16 142 -16Z" glyph-name="J" horiz-adv-x="410" unicode="J" /><glyph d="M182 0H88V650H182V366L458 650H563V635L279 346L582 15V0H473L182 317Z" glyph-name="K" horiz-adv-x="616" unicode="K" /><glyph d="M478 0H88V650H182V84H478Z" glyph-name="L" horiz-adv-x="524" unicode="L" /><glyph d="M156 0H62V15L159 650H254L458 154L661 650H756L853 15V0H759L704 378Q699 413 695.5 444.5Q692 476 689 508H687Q679 477 667.5 443.5Q656 410 643 378L489 10H426L271 378Q258 410 246.5 443.5Q235 477 227 508H225Q222 476 218.5 444.5Q215 413 210 378Z" glyph-name="M" horiz-adv-x="915" unicode="M" /><glyph d="M182 0H88V650H188L451 277Q458 268 470 250Q482 232 494.5 212.5Q507 193 518.5 175.5Q530 158 535 149H538Q538 160 537.5 178.5Q537 197 536.5 218Q536 239 536 258V650H630V0H535L270 373Q264 382 251.5 400Q239 418 225.5 438Q212 458 200.5 476Q189 494 183 503H180Q180 493 180.5 474Q181 455 181.5 434Q182 413 182 393Z" glyph-name="N" horiz-adv-x="718" unicode="N" /><glyph glyph-name="NULL" horiz-adv-x="0" /><glyph d="M182 0H88V650H188L451 277Q458 268 470 250Q482 232 494.5 212.5Q507 193 518.5 175.5Q530 158 535 149H538Q538 160 537.5 178.5Q537 197 536.5 218Q536 239 536 258V650H630V0H535L270 373Q264 382 251.5 400Q239 418 225.5 438Q212 458 200.5 476Q189 494 183 503H180Q180 493 180.5 474Q181 455 181.5 434Q182 413 182 393ZM256 710H190Q190 733 196.5 754.5Q203 776 215.5 793.5Q228 811 247.5 821.5Q267 832 292 832Q315 832 331.5 825Q348 818 362.5 809.5Q377 801 391 794Q405 787 421 787Q435 787 448.5 795Q462 803 462 835H528Q528 813 521.5 791Q515 769 502.5 751.5Q490 734 471 723.5Q452 713 426 713Q404 713 387 720Q370 727 355 735.5Q340 744 326.5 751Q313 758 296 758Q282 758 269 750Q256 742 256 710Z" glyph-name="Ntilde" horiz-adv-x="718" unicode="&#209;" /><glyph d="M371 -15Q304 -15 245.5 9Q187 33 144 76Q101 119 76.5 179.5Q52 240 52 313V337Q52 410 77 470.5Q102 531 145 574Q188 617 246 641Q304 665 371 665Q437 665 495 641Q553 617 596 574Q639 531 664 470.5Q689 410 689 337V313Q689 240 664.5 179.5Q640 119 597 76Q554 33 496 9Q438 -15 371 -15ZM371 71Q425 71 466.5 91Q508 111 536.5 145.5Q565 180 579.5 226.5Q594 273 594 325Q594 377 579.5 423.5Q565 470 537 504.5Q509 539 467 559Q425 579 370 579Q315 579 273 559Q231 539 203 504.5Q175 470 161 423.5Q147 377 147 325Q147 273 162 226.5Q177 180 205.5 145.5Q234 111 275.5 91Q317 71 371 71Z" glyph-name="O" horiz-adv-x="741" unicode="O" /><glyph d="M994 0H594V84L587 76Q548 33 493 9Q438 -15 371 -15Q304 -15 245.5 9Q187 33 144 76Q101 119 76.5 179.5Q52 240 52 313V337Q52 410 77 470.5Q102 531 145 574Q188 617 246 641Q304 665 371 665Q437 665 492 641Q547 617 586 574Q590 570 594 565V650H994V566H688V373H951V289H688V84H994ZM371 71Q425 71 466.5 91Q508 111 536.5 145.5Q565 180 579.5 226.5Q594 273 594 325Q594 377 579.5 423.5Q565 470 537 504.5Q509 539 467 559Q425 579 370 579Q315 579 273 559Q231 539 203 504.5Q175 470 161 423.5Q147 377 147 325Q147 273 162 226.5Q177 180 205.5 145.5Q234 111 275.5 91Q317 71 371 71Z" glyph-name="OE" horiz-adv-x="1060" unicode="&#338;" /><glyph d="M371 -15Q304 -15 245.5 9Q187 33 144 76Q101 119 76.5 179.5Q52 240 52 313V337Q52 410 77 470.5Q102 531 145 574Q188 617 246 641Q304 665 371 665Q437 665 495 641Q553 617 596 574Q639 531 664 470.5Q689 410 689 337V313Q689 240 664.5 179.5Q640 119 597 76Q554 33 496 9Q438 -15 371 -15ZM371 71Q425 71 466.5 91Q508 111 536.5 145.5Q565 180 579.5 226.5Q594 273 594 325Q594 377 579.5 423.5Q565 470 537 504.5Q509 539 467 559Q425 579 370 579Q315 579 273 559Q231 539 203 504.5Q175 470 161 423.5Q147 377 147 325Q147 273 162 226.5Q177 180 205.5 145.5Q234 111 275.5 91Q317 71 371 71ZM502 806 267 693 238 745 456 887Z" glyph-name="Oacute" horiz-adv-x="741" unicode="&#211;" /><glyph d="M371 -15Q304 -15 245.5 9Q187 33 144 76Q101 119 76.5 179.5Q52 240 52 313V337Q52 410 77 470.5Q102 531 145 574Q188 617 246 641Q304 665 371 665Q437 665 495 641Q553 617 596 574Q639 531 664 470.5Q689 410 689 337V313Q689 240 664.5 179.5Q640 119 597 76Q554 33 496 9Q438 -15 371 -15ZM371 71Q425 71 466.5 91Q508 111 536.5 145.5Q565 180 579.5 226.5Q594 273 594 325Q594 377 579.5 423.5Q565 470 537 504.5Q509 539 467 559Q425 579 370 579Q315 579 273 559Q231 539 203 504.5Q175 470 161 423.5Q147 377 147 325Q147 273 162 226.5Q177 180 205.5 145.5Q234 111 275.5 91Q317 71 371 71ZM369 777 246 701 211 755 369 870 532 755 497 701Z" glyph-name="Ocircumflex" horiz-adv-x="741" unicode="&#212;" /><glyph d="M371 -15Q304 -15 245.5 9Q187 33 144 76Q101 119 76.5 179.5Q52 240 52 313V337Q52 410 77 470.5Q102 531 145 574Q188 617 246 641Q304 665 371 665Q437 665 495 641Q553 617 596 574Q639 531 664 470.5Q689 410 689 337V313Q689 240 664.5 179.5Q640 119 597 76Q554 33 496 9Q438 -15 371 -15ZM371 71Q425 71 466.5 91Q508 111 536.5 145.5Q565 180 579.5 226.5Q594 273 594 325Q594 377 579.5 423.5Q565 470 537 504.5Q509 539 467 559Q425 579 370 579Q315 579 273 559Q231 539 203 504.5Q175 470 161 423.5Q147 377 147 325Q147 273 162 226.5Q177 180 205.5 145.5Q234 111 275.5 91Q317 71 371 71ZM464 709Q437 709 418.5 725.5Q400 742 400 769Q400 795 418.5 812Q437 829 464 829Q490 829 508.5 812.5Q527 796 527 769Q527 743 508.5 726Q490 709 464 709ZM276 709Q250 709 231.5 725.5Q213 742 213 769Q213 795 231 812Q249 829 276 829Q302 829 321 812.5Q340 796 340 769Q340 743 321 726Q302 709 276 709Z" glyph-name="Odieresis" horiz-adv-x="741" unicode="&#214;" /><glyph d="M371 -15Q304 -15 245.5 9Q187 33 144 76Q101 119 76.5 179.5Q52 240 52 313V337Q52 410 77 470.5Q102 531 145 574Q188 617 246 641Q304 665 371 665Q437 665 495 641Q553 617 596 574Q639 531 664 470.5Q689 410 689 337V313Q689 240 664.5 179.5Q640 119 597 76Q554 33 496 9Q438 -15 371 -15ZM371 71Q425 71 466.5 91Q508 111 536.5 145.5Q565 180 579.5 226.5Q594 273 594 325Q594 377 579.5 423.5Q565 470 537 504.5Q509 539 467 559Q425 579 370 579Q315 579 273 559Q231 539 203 504.5Q175 470 161 423.5Q147 377 147 325Q147 273 162 226.5Q177 180 205.5 145.5Q234 111 275.5 91Q317 71 371 71ZM502 745 473 693 238 806 284 887Z" glyph-name="Ograve" horiz-adv-x="741" unicode="&#210;" /><glyph d="M371 -15Q317 -15 268 0L240 -65H158V-50L194 35Q167 53 144 76Q101 119 76.5 179.5Q52 240 52 313V337Q52 410 77 470.5Q102 531 145 574Q188 617 246 641Q304 665 371 665Q417 665 459 653L486 715H569V700L535 621Q568 601 596 574Q639 531 664 470.5Q689 410 689 337V313Q689 240 664.5 179.5Q640 119 597 76Q554 33 496 9Q438 -15 371 -15ZM371 71Q425 71 466.5 91Q508 111 536.5 145.5Q565 180 579.5 226.5Q594 273 594 325Q594 377 579.5 423.5Q565 470 537 504Q521 524 500 539L302 80Q334 71 371 71ZM370 579Q315 579 273 559Q231 539 203 504.5Q175 470 161 423.5Q147 377 147 325Q147 273 162 226.5Q177 180 205 145Q217 131 231 119L425 573Q399 579 370 579Z" glyph-name="Oslash" horiz-adv-x="741" unicode="&#216;" /><glyph d="M371 -15Q304 -15 245.5 9Q187 33 144 76Q101 119 76.5 179.5Q52 240 52 313V337Q52 410 77 470.5Q102 531 145 574Q188 617 246 641Q304 665 371 665Q437 665 495 641Q553 617 596 574Q639 531 664 470.5Q689 410 689 337V313Q689 240 664.5 179.5Q640 119 597 76Q554 33 496 9Q438 -15 371 -15ZM371 71Q425 71 466.5 91Q508 111 536.5 145.5Q565 180 579.5 226.5Q594 273 594 325Q594 377 579.5 423.5Q565 470 537 504.5Q509 539 467 559Q425 579 370 579Q315 579 273 559Q231 539 203 504.5Q175 470 161 423.5Q147 377 147 325Q147 273 162 226.5Q177 180 205.5 145.5Q234 111 275.5 91Q317 71 371 71ZM267 710H201Q201 733 207.5 754.5Q214 776 226.5 793.5Q239 811 258.5 821.5Q278 832 303 832Q326 832 342.5 825Q359 818 373.5 809.5Q388 801 402 794Q416 787 432 787Q446 787 459.5 795Q473 803 473 835H539Q539 813 532.5 791Q526 769 513.5 751.5Q501 734 482 723.5Q463 713 437 713Q415 713 398 720Q381 727 366 735.5Q351 744 337.5 751Q324 758 307 758Q293 758 280 750Q267 742 267 710Z" glyph-name="Otilde" horiz-adv-x="741" unicode="&#213;" /><glyph d="M182 0H88V650H349Q395 650 435 635.5Q475 621 504.5 593.5Q534 566 551 525.5Q568 485 568 433V415Q568 363 550 322.5Q532 282 500.5 254Q469 226 426.5 211.5Q384 197 336 197H182ZM182 566V281H341Q375 281 399.5 292.5Q424 304 440.5 323.5Q457 343 465 368.5Q473 394 473 422Q473 451 466 477Q459 503 444 523Q429 543 405 554.5Q381 566 348 566Z" glyph-name="P" horiz-adv-x="602" unicode="P" /><glyph d="M638 -114H530L440 -8Q409 -15 371 -15Q304 -15 245.5 9Q187 33 144 76Q101 119 76.5 179.5Q52 240 52 313V337Q52 410 77 470.5Q102 531 145 574Q188 617 246 641Q304 665 371 665Q437 665 495 641Q553 617 596 574Q639 531 664 470.5Q689 410 689 337V313Q689 213 645 139Q601 65 529 25L638 -101ZM371 71Q425 71 466.5 91Q508 111 536.5 145.5Q565 180 579.5 226.5Q594 273 594 325Q594 377 579.5 423.5Q565 470 537 504.5Q509 539 467 559Q425 579 370 579Q315 579 273 559Q231 539 203 504.5Q175 470 161 423.5Q147 377 147 325Q147 273 162 226.5Q177 180 205.5 145.5Q234 111 275.5 91Q317 71 371 71Z" glyph-name="Q" horiz-adv-x="741" unicode="Q" /><glyph d="M182 0H88V650H338Q382 650 420 637.5Q458 625 486 601Q514 577 530.5 541.5Q547 506 547 459V442Q547 403 534.5 372Q522 341 500 317.5Q478 294 448 279Q418 264 383 257L570 15V0H462L273 246H182ZM182 566V332H330Q361 332 384 341.5Q407 351 422 367Q437 383 444.5 404Q452 425 452 448Q452 497 425.5 531.5Q399 566 337 566Z" glyph-name="R" horiz-adv-x="608" unicode="R" /><glyph d="M292 -16Q244 -16 201.5 -2.5Q159 11 127.5 37Q96 63 77 100.5Q58 138 57 186V194H153Q155 134 192 100Q229 66 295 66Q352 66 386.5 93Q421 120 421 170Q421 217 394 244Q372 267 334 278Q296 289 254.5 299Q213 309 173.5 322Q134 335 108 361Q85 384 73.5 411Q62 438 62 476V486Q62 528 80.5 561Q99 594 129 616.5Q159 639 197.5 650.5Q236 662 276 662Q321 662 360.5 650.5Q400 639 429 616.5Q458 594 475.5 560.5Q493 527 494 483V475H406Q404 496 396 515.5Q388 535 372.5 550Q357 565 334 574Q311 583 280 583Q217 583 188 554.5Q159 526 159 488Q159 466 165 451Q171 436 185 422Q202 405 238 395Q274 385 316 374.5Q358 364 399.5 349Q441 334 469 305Q492 282 504.5 250Q517 218 517 186V176Q517 123 496 86.5Q475 50 442.5 27Q410 4 370 -6Q330 -16 292 -16Z" glyph-name="S" horiz-adv-x="569" unicode="S" /><glyph d="M335 0H240V566H43V650H523V566H335Z" glyph-name="T" horiz-adv-x="566" unicode="T" /><glyph d="M336 -15Q214 -15 148.5 43.5Q83 102 83 227V650H177V215Q177 136 220 102Q263 68 338 68Q406 68 450.5 102.5Q495 137 495 215V650H588V227Q588 102 522.5 43.5Q457 -15 336 -15Z" glyph-name="U" horiz-adv-x="671" unicode="U" /><glyph d="M336 -15Q214 -15 148.5 43.5Q83 102 83 227V650H177V215Q177 136 220 102Q263 68 338 68Q406 68 450.5 102.5Q495 137 495 215V650H588V227Q588 102 522.5 43.5Q457 -15 336 -15ZM467 806 232 693 203 745 421 887Z" glyph-name="Uacute" horiz-adv-x="671" unicode="&#218;" /><glyph d="M336 -15Q214 -15 148.5 43.5Q83 102 83 227V650H177V215Q177 136 220 102Q263 68 338 68Q406 68 450.5 102.5Q495 137 495 215V650H588V227Q588 102 522.5 43.5Q457 -15 336 -15ZM340 777 217 701 182 755 340 870 503 755 468 701Z" glyph-name="Ucircumflex" horiz-adv-x="671" unicode="&#219;" /><glyph d="M336 -15Q214 -15 148.5 43.5Q83 102 83 227V650H177V215Q177 136 220 102Q263 68 338 68Q406 68 450.5 102.5Q495 137 495 215V650H588V227Q588 102 522.5 43.5Q457 -15 336 -15ZM434 709Q407 709 388.5 725.5Q370 742 370 769Q370 795 388.5 812Q407 829 434 829Q460 829 478.5 812.5Q497 796 497 769Q497 743 478.5 726Q460 709 434 709ZM246 709Q220 709 201.5 725.5Q183 742 183 769Q183 795 201 812Q219 829 246 829Q272 829 291 812.5Q310 796 310 769Q310 743 291 726Q272 709 246 709Z" glyph-name="Udieresis" horiz-adv-x="671" unicode="&#220;" /><glyph d="M336 -15Q214 -15 148.5 43.5Q83 102 83 227V650H177V215Q177 136 220 102Q263 68 338 68Q406 68 450.5 102.5Q495 137 495 215V650H588V227Q588 102 522.5 43.5Q457 -15 336 -15ZM467 745 438 693 203 806 249 887Z" glyph-name="Ugrave" horiz-adv-x="671" unicode="&#217;" /><glyph d="M373 0H291L22 635V650H120L310 184Q312 180 315 171.5Q318 163 321 153L328 133Q332 123 333 117H335L347 154Q351 165 354.5 173.5Q358 182 359 186L547 650H642V635Z" glyph-name="V" horiz-adv-x="664" unicode="V" /><glyph d="M309 0H207L16 635V650H110L238 206Q240 199 243.5 186.5Q247 174 250 161Q253 148 256 136.5Q259 125 260 118H262Q264 125 266.5 136.5Q269 148 272 161Q275 174 278 186.5Q281 199 283 206L400 650H506L623 206Q625 199 628 186.5Q631 174 634 161Q637 148 640 136.5Q643 125 644 118H646Q648 125 650.5 136.5Q653 148 656 161Q659 174 662.5 186.5Q666 199 668 206L796 650H890V635L699 0H597L453 527H451Z" glyph-name="W" horiz-adv-x="906" unicode="W" /><glyph d="M128 0H31V15L264 345L80 635V650H179L319 420L465 650H561V635L372 347L595 15V0H497L317 273Z" glyph-name="X" horiz-adv-x="626" unicode="X" /><glyph d="M352 0H257V254L18 635V650H122L307 343L493 650H590V635L352 254Z" glyph-name="Y" horiz-adv-x="608" unicode="Y" /><glyph d="M352 0H257V254L18 635V650H122L307 343L493 650H590V635L352 254ZM398 709Q371 709 352.5 725.5Q334 742 334 769Q334 795 352.5 812Q371 829 398 829Q424 829 442.5 812.5Q461 796 461 769Q461 743 442.5 726Q424 709 398 709ZM210 709Q184 709 165.5 725.5Q147 742 147 769Q147 795 165 812Q183 829 210 829Q236 829 255 812.5Q274 796 274 769Q274 743 255 726Q236 709 210 709Z" glyph-name="Ydieresis" horiz-adv-x="608" unicode="&#376;" /><glyph d="M535 0H67V59L416 564V566H84V650H544V592L194 86V84H535Z" glyph-name="Z" horiz-adv-x="596" unicode="Z" /><glyph d="M284 -16Q243 -16 201.5 1Q160 18 127 50Q94 82 73 129.5Q52 177 52 238V256Q52 311 69 358.5Q86 406 117.5 441Q149 476 194.5 496Q240 516 297 516Q347 516 388.5 494Q430 472 453 442H456L475 500H539V0H471L452 60H450Q423 22 379 3Q335 -16 284 -16ZM298 62Q337 62 366 77.5Q395 93 414 119Q433 145 442 179Q451 213 451 250Q451 287 442 321Q433 355 414.5 381.5Q396 408 367 423.5Q338 439 298 439Q259 439 230 424Q201 409 182 383Q163 357 153.5 322.5Q144 288 144 249Q144 212 154 178Q164 144 183.5 118.5Q203 93 231.5 77.5Q260 62 298 62Z" glyph-name="a" horiz-adv-x="617" unicode="a" /><glyph d="M284 -16Q243 -16 201.5 1Q160 18 127 50Q94 82 73 129.5Q52 177 52 238V256Q52 311 69 358.5Q86 406 117.5 441Q149 476 194.5 496Q240 516 297 516Q347 516 388.5 494Q430 472 453 442H456L475 500H539V0H471L452 60H450Q423 22 379 3Q335 -16 284 -16ZM298 62Q337 62 366 77.5Q395 93 414 119Q433 145 442 179Q451 213 451 250Q451 287 442 321Q433 355 414.5 381.5Q396 408 367 423.5Q338 439 298 439Q259 439 230 424Q201 409 182 383Q163 357 153.5 322.5Q144 288 144 249Q144 212 154 178Q164 144 183.5 118.5Q203 93 231.5 77.5Q260 62 298 62ZM424 656 189 543 160 595 378 737Z" glyph-name="aacute" horiz-adv-x="617" unicode="&#225;" /><glyph d="M284 -16Q243 -16 201.5 1Q160 18 127 50Q94 82 73 129.5Q52 177 52 238V256Q52 311 69 358.5Q86 406 117.5 441Q149 476 194.5 496Q240 516 297 516Q347 516 388.5 494Q430 472 453 442H456L475 500H539V0H471L452 60H450Q423 22 379 3Q335 -16 284 -16ZM298 62Q337 62 366 77.5Q395 93 414 119Q433 145 442 179Q451 213 451 250Q451 287 442 321Q433 355 414.5 381.5Q396 408 367 423.5Q338 439 298 439Q259 439 230 424Q201 409 182 383Q163 357 153.5 322.5Q144 288 144 249Q144 212 154 178Q164 144 183.5 118.5Q203 93 231.5 77.5Q260 62 298 62ZM292 627 169 551 134 605 292 720 455 605 420 551Z" glyph-name="acircumflex" horiz-adv-x="617" unicode="&#226;" /><glyph d="M377 656 142 543 113 595 331 737Z" glyph-name="acute" horiz-adv-x="496" unicode="&#180;" /><glyph d="M284 -16Q243 -16 201.5 1Q160 18 127 50Q94 82 73 129.5Q52 177 52 238V256Q52 311 69 358.5Q86 406 117.5 441Q149 476 194.5 496Q240 516 297 516Q347 516 388.5 494Q430 472 453 442H456L475 500H539V0H471L452 60H450Q423 22 379 3Q335 -16 284 -16ZM298 62Q337 62 366 77.5Q395 93 414 119Q433 145 442 179Q451 213 451 250Q451 287 442 321Q433 355 414.5 381.5Q396 408 367 423.5Q338 439 298 439Q259 439 230 424Q201 409 182 383Q163 357 153.5 322.5Q144 288 144 249Q144 212 154 178Q164 144 183.5 118.5Q203 93 231.5 77.5Q260 62 298 62ZM383 559Q356 559 337.5 575.5Q319 592 319 619Q319 645 337.5 662Q356 679 383 679Q409 679 427.5 662.5Q446 646 446 619Q446 593 427.5 576Q409 559 383 559ZM195 559Q169 559 150.5 575.5Q132 592 132 619Q132 645 150 662Q168 679 195 679Q221 679 240 662.5Q259 646 259 619Q259 593 240 576Q221 559 195 559Z" glyph-name="adieresis" horiz-adv-x="617" unicode="&#228;" /><glyph d="M238 -16Q202 -16 169 -5Q136 6 110.5 26.5Q85 47 70 75.5Q55 104 55 139V146Q55 181 66 206.5Q77 232 97 252Q111 267 130.5 278Q150 289 172 296Q194 303 217.5 306.5Q241 310 262 310Q288 310 317 306.5Q346 303 371 296V333Q371 384 343.5 412.5Q316 441 262 441Q221 441 195 421.5Q169 402 167 360H81V368Q85 407 101 435Q117 463 141.5 480.5Q166 498 198 506.5Q230 515 266 515Q319 515 361.5 498Q404 481 430 442Q459 477 500.5 496Q542 515 593 515Q647 515 687.5 495Q728 475 755.5 440Q783 405 797 358.5Q811 312 811 259V240Q811 233 810 222H464Q467 188 476 158.5Q485 129 501 107.5Q517 86 541 74Q565 62 598 62Q644 62 671.5 82Q699 102 713 140H803Q786 65 731 24.5Q676 -16 596 -16Q538 -16 492 8Q446 32 417 76Q381 22 335 3Q289 -16 238 -16ZM245 61Q268 61 290.5 69.5Q313 78 331 94Q349 110 360 132.5Q371 155 371 182V222Q347 230 319.5 234.5Q292 239 267 239Q245 239 223.5 234Q202 229 185 218Q168 207 157.5 189.5Q147 172 147 148Q147 106 175 83.5Q203 61 245 61ZM718 297Q716 323 708 348Q700 373 685.5 392.5Q671 412 649 424.5Q627 437 596 437Q534 437 504.5 398.5Q475 360 466 297Z" glyph-name="ae" horiz-adv-x="863" unicode="&#230;" /><glyph d="M284 -16Q243 -16 201.5 1Q160 18 127 50Q94 82 73 129.5Q52 177 52 238V256Q52 311 69 358.5Q86 406 117.5 441Q149 476 194.5 496Q240 516 297 516Q347 516 388.5 494Q430 472 453 442H456L475 500H539V0H471L452 60H450Q423 22 379 3Q335 -16 284 -16ZM298 62Q337 62 366 77.5Q395 93 414 119Q433 145 442 179Q451 213 451 250Q451 287 442 321Q433 355 414.5 381.5Q396 408 367 423.5Q338 439 298 439Q259 439 230 424Q201 409 182 383Q163 357 153.5 322.5Q144 288 144 249Q144 212 154 178Q164 144 183.5 118.5Q203 93 231.5 77.5Q260 62 298 62ZM416 595 387 543 152 656 198 737Z" glyph-name="agrave" horiz-adv-x="617" unicode="&#224;" /><glyph d="M313 -16Q265 -16 222.5 -5.5Q180 5 148.5 27.5Q117 50 98.5 85.5Q80 121 80 170V182Q80 216 90.5 244.5Q101 273 118.5 297Q136 321 158.5 340Q181 359 205 374Q185 412 170 448.5Q155 485 155 520V536Q155 569 165.5 598Q176 627 197 648.5Q218 670 249 682.5Q280 695 320 695Q358 695 387 683.5Q416 672 435.5 653Q455 634 465.5 609Q476 584 476 557V544Q476 505 462.5 476Q449 447 427.5 424.5Q406 402 378.5 384Q351 366 324 349Q352 307 387 266Q422 225 462 187L500 149Q514 170 520.5 190.5Q527 211 527 235Q527 273 516.5 306Q506 339 490 364V379H575Q595 346 604.5 307Q614 268 614 233Q614 161 567 96Q596 74 623 55.5Q650 37 675 21V6L580 -12Q563 -2 543.5 10Q524 22 504 37Q469 13 421 -1.5Q373 -16 313 -16ZM318 62Q350 62 382 70Q414 78 438 92Q426 103 413.5 114.5Q401 126 388 138Q349 176 313.5 218.5Q278 261 249 306Q214 283 193 251Q172 219 172 175Q172 117 214 89.5Q256 62 318 62ZM283 414Q305 426 325 438.5Q345 451 360 467Q375 483 383.5 502.5Q392 522 392 549Q392 581 373 601.5Q354 622 324 622Q290 622 268 599Q246 576 246 532Q246 504 256 474Q266 444 283 414Z" glyph-name="ampersand" horiz-adv-x="709" unicode="&amp;" /><glyph d="M78 344 70 343V420Q102 440 134 447Q166 454 198 454Q228 454 258.5 449.5Q289 445 319.5 439Q350 433 380 428.5Q410 424 440 424Q472 424 504 431.5Q536 439 568 458L575 459V382Q541 360 507.5 352Q474 344 440 344Q410 344 380 348.5Q350 353 319.5 358.5Q289 364 258.5 368.5Q228 373 198 373Q168 373 138 367Q108 361 78 344ZM78 169 70 168V245Q102 265 134 272Q166 279 198 279Q228 279 258.5 274.5Q289 270 319.5 264Q350 258 380 253.5Q410 249 440 249Q472 249 504 256.5Q536 264 568 283L575 284V207Q541 185 507.5 177Q474 169 440 169Q410 169 380 173.5Q350 178 319.5 183.5Q289 189 258.5 193.5Q228 198 198 198Q168 198 138 192Q108 186 78 169Z" glyph-name="approxequal" horiz-adv-x="645" unicode="&#8776;" /><glyph d="M284 -16Q243 -16 201.5 1Q160 18 127 50Q94 82 73 129.5Q52 177 52 238V256Q52 311 69 358.5Q86 406 117.5 441Q149 476 194 496Q211 503 228 508L226 510Q198 538 198 579Q198 619 226.5 646.5Q255 674 297 674Q339 674 367.5 646.5Q396 619 396 579Q396 538 367 510Q365 507 362 505Q376 500 388 494Q430 472 453 442H456L475 500H539V0H471L452 60H450Q423 22 379 3Q335 -16 284 -16ZM298 62Q337 62 366 77.5Q395 93 414 119Q433 145 442 179Q451 213 451 250Q451 287 442 321Q433 355 414.5 381.5Q396 408 367 423.5Q338 439 298 439Q259 439 230 424Q201 409 182 383Q163 357 153.5 322.5Q144 288 144 249Q144 212 154 178Q164 144 183.5 118.5Q203 93 231.5 77.5Q260 62 298 62ZM297 534Q315 534 327.5 547Q340 560 340 579Q340 598 328 610.5Q316 623 297 623Q279 623 266.5 610Q254 597 254 579Q254 560 266.5 547Q279 534 297 534Z" glyph-name="aring" horiz-adv-x="617" unicode="&#229;" /><glyph d="M121 388H32L181 650H260L411 388H320L219 567Z" glyph-name="asciicircum" horiz-adv-x="443" unicode="^" /><glyph d="M71 233V311Q100 329 129 337.5Q158 346 184 346Q209 346 232.5 340Q256 334 279 327.5Q302 321 325 315Q348 309 373 309Q426 309 484 347V269Q456 251 428 243Q400 235 374 235Q349 235 326 240.5Q303 246 279.5 252Q256 258 233 263.5Q210 269 185 269Q159 269 129.5 259.5Q100 250 71 233Z" glyph-name="asciitilde" horiz-adv-x="555" unicode="~" /><glyph d="M207 519 164 431 95 480 166 549 68 565 96 646 182 600 166 695H246L232 600L318 646L345 564L248 550L315 481L249 431Z" glyph-name="asterisk" horiz-adv-x="413" unicode="*" /><glyph d="M418 -71Q340 -71 274 -46.5Q208 -22 159.5 22.5Q111 67 84 129.5Q57 192 57 269Q57 339 83.5 400Q110 461 157 506.5Q204 552 268 578.5Q332 605 406 605Q478 605 538 581.5Q598 558 640.5 517Q683 476 707 420Q731 364 731 299Q731 206 690.5 156.5Q650 107 586 107Q542 107 519 122Q496 137 489 161Q462 127 431 113Q400 99 362 99Q338 99 314 108Q290 117 271.5 134Q253 151 241.5 177Q230 203 230 237Q230 280 244 316.5Q258 353 282 379Q306 405 339.5 420Q373 435 412 435Q445 435 469.5 422.5Q494 410 505 392L523 426H578L545 224Q539 186 554 173.5Q569 161 592 161Q629 161 649.5 196Q670 231 670 298Q670 358 649 404Q628 450 592 481.5Q556 513 507.5 529Q459 545 405 545Q346 545 295 524Q244 503 206 466Q168 429 146 379Q124 329 124 271Q124 205 146.5 152.5Q169 100 208 64Q247 28 300.5 8.5Q354 -11 417 -11Q468 -11 512 -0.5Q556 10 596 30H610V-27Q566 -49 523.5 -60Q481 -71 418 -71ZM379 156Q403 156 423 167.5Q443 179 457.5 198.5Q472 218 479.5 243Q487 268 487 296Q487 333 468.5 356.5Q450 380 408 380Q385 380 366 369Q347 358 333 339Q319 320 311 295Q303 270 303 242Q303 204 322 180Q341 156 379 156Z" glyph-name="at" horiz-adv-x="778" unicode="@" /><glyph d="M284 -16Q243 -16 201.5 1Q160 18 127 50Q94 82 73 129.5Q52 177 52 238V256Q52 311 69 358.5Q86 406 117.5 441Q149 476 194.5 496Q240 516 297 516Q347 516 388.5 494Q430 472 453 442H456L475 500H539V0H471L452 60H450Q423 22 379 3Q335 -16 284 -16ZM298 62Q337 62 366 77.5Q395 93 414 119Q433 145 442 179Q451 213 451 250Q451 287 442 321Q433 355 414.5 381.5Q396 408 367 423.5Q338 439 298 439Q259 439 230 424Q201 409 182 383Q163 357 153.5 322.5Q144 288 144 249Q144 212 154 178Q164 144 183.5 118.5Q203 93 231.5 77.5Q260 62 298 62ZM187 560H121Q121 583 127.5 604.5Q134 626 146.5 643.5Q159 661 178.5 671.5Q198 682 223 682Q246 682 262.5 675Q279 668 293.5 659.5Q308 651 322 644Q336 637 352 637Q366 637 379.5 645Q393 653 393 685H459Q459 663 452.5 641Q446 619 433.5 601.5Q421 584 402 573.5Q383 563 357 563Q335 563 318 570Q301 577 286 585.5Q271 594 257.5 601Q244 608 227 608Q213 608 200 600Q187 592 187 560Z" glyph-name="atilde" horiz-adv-x="617" unicode="&#227;" /><glyph d="M325 -16Q275 -16 231 6Q187 28 164 58H161L142 0H78V700H169V442H171Q200 480 244 497.5Q288 515 339 515Q383 515 425.5 498.5Q468 482 501 450Q534 418 554.5 370.5Q575 323 575 261V244Q575 188 558.5 140Q542 92 510.5 57.5Q479 23 432 3.5Q385 -16 325 -16ZM322 61Q364 61 394.5 75.5Q425 90 444.5 115.5Q464 141 473.5 175.5Q483 210 483 250Q483 289 473.5 323Q464 357 444 382.5Q424 408 393.5 422.5Q363 437 322 437Q282 437 252.5 422Q223 407 204 381.5Q185 356 175.5 322Q166 288 166 250Q166 212 175 178Q184 144 203 118Q222 92 251.5 76.5Q281 61 322 61Z" glyph-name="b" horiz-adv-x="627" unicode="b" /><glyph d="M370 -124 34 682V696H123L459 -110V-124Z" glyph-name="backslash" horiz-adv-x="493" unicode="\" /><glyph d="M301 -126H218V774H301Z" glyph-name="bar" horiz-adv-x="519" unicode="|" /><glyph d="M305 -124H263Q199 -124 170 -93Q141 -62 141 -6V138Q141 194 124.5 227Q108 260 66 279V295Q108 313 124.5 346Q141 379 141 435V578Q141 634 170 665Q199 696 263 696H305V620H260Q237 620 232.5 600Q228 580 228 554V419Q228 381 222 357.5Q216 334 206.5 320Q197 306 185.5 299.5Q174 293 163 288V286Q174 281 185.5 274Q197 267 206.5 253Q216 239 222 215Q228 191 228 153V18Q228 -8 232.5 -28Q237 -48 260 -48H305Z" glyph-name="braceleft" horiz-adv-x="392" unicode="{" /><glyph d="M87 -124V-48H132Q155 -48 159.5 -28Q164 -8 164 18V153Q164 191 170 215Q176 239 185.5 253Q195 267 206.5 274Q218 281 229 286V288Q218 293 206.5 299.5Q195 306 185.5 320Q176 334 170 357.5Q164 381 164 419V554Q164 580 159.5 600Q155 620 132 620H87V696H129Q193 696 222 665Q251 634 251 578V435Q251 379 267.5 346Q284 313 326 295V279Q284 260 267.5 227Q251 194 251 138V-6Q251 -62 222 -93Q193 -124 129 -124Z" glyph-name="braceright" horiz-adv-x="392" unicode="}" /><glyph d="M268 -124H87V696H268V620H173V-48H268Z" glyph-name="bracketleft" horiz-adv-x="340" unicode="[" /><glyph d="M72 696H253V-124H72V-48H167V620H72Z" glyph-name="bracketright" horiz-adv-x="340" unicode="]" /><glyph d="M248 557Q216 557 187 565.5Q158 574 135.5 590Q113 606 98 629.5Q83 653 79 683H171Q178 651 198 637Q218 623 248 623Q278 623 298 637Q318 651 325 683H417Q413 653 398 629.5Q383 606 360.5 590Q338 574 309 565.5Q280 557 248 557Z" glyph-name="breve" horiz-adv-x="496" unicode="&#728;" /><glyph d="M238 190Q192 190 160 217Q128 244 128 292V297Q128 346 160 371.5Q192 397 238 397Q284 397 316 371.5Q348 346 348 297V292Q348 244 316 217Q284 190 238 190Z" glyph-name="bullet" horiz-adv-x="476" unicode="&#8226;" /><glyph d="M300 -16Q245 -16 199.5 3Q154 22 121 56.5Q88 91 70 138.5Q52 186 52 243V257Q52 313 71 360.5Q90 408 123 442.5Q156 477 201.5 496Q247 515 301 515Q345 515 383.5 503Q422 491 451 468.5Q480 446 499 412.5Q518 379 523 335V327H440Q432 382 396.5 410Q361 438 303 438Q267 438 237.5 423.5Q208 409 187.5 384Q167 359 155.5 324.5Q144 290 144 249Q144 209 155 174.5Q166 140 186.5 115Q207 90 235.5 76Q264 62 300 62Q360 62 396 89Q432 116 441 173H525V165Q520 124 501.5 90.5Q483 57 453 33.5Q423 10 384 -3Q345 -16 300 -16Z" glyph-name="c" horiz-adv-x="564" unicode="c" /><glyph d="M407 666 249 551 86 666 121 720 249 644 372 720Z" glyph-name="caron" horiz-adv-x="496" unicode="&#711;" /><glyph d="M249 -185Q203 -185 171 -173V-116H181Q199 -123 216 -125.5Q233 -128 244 -128Q270 -128 282 -119.5Q294 -111 294 -100Q294 -71 249 -69L245 -62L265 -14Q230 -10 199 3Q154 22 121 56.5Q88 91 70 138.5Q52 186 52 243V257Q52 313 71 360.5Q90 408 123 442.5Q156 477 201.5 496Q247 515 301 515Q345 515 383.5 503Q422 491 451 468.5Q480 446 499 412.5Q518 379 523 335V327H440Q432 382 396.5 410Q361 438 303 438Q267 438 237.5 423.5Q208 409 187.5 384Q167 359 155.5 324.5Q144 290 144 249Q144 209 155 174.5Q166 140 186.5 115Q207 90 235.5 76Q264 62 300 62Q360 62 396 89Q432 116 441 173H525V165Q520 124 501.5 90.5Q483 57 453 33.5Q423 10 384 -3Q358 -11 330 -14L320 -44Q342 -51 355 -65.5Q368 -80 368 -101Q368 -122 357.5 -138Q347 -154 330.5 -164.5Q314 -175 292.5 -180Q271 -185 249 -185Z" glyph-name="ccedilla" horiz-adv-x="564" unicode="&#231;" /><glyph d="M202 -185Q156 -185 124 -173V-116H134Q152 -123 169 -125.5Q186 -128 197 -128Q223 -128 235 -119.5Q247 -111 247 -100Q247 -71 202 -69L198 -62L224 0H289L273 -44Q295 -51 308 -65.5Q321 -80 321 -101Q321 -122 310.5 -138Q300 -154 283.5 -164.5Q267 -175 245.5 -180Q224 -185 202 -185Z" glyph-name="cedilla" horiz-adv-x="496" unicode="&#184;" /><glyph d="M253 433Q198 418 171 368Q144 318 144 249Q144 180 171 131.5Q198 83 253 68ZM326 -126H253V-13Q209 -6 172 15Q135 36 108.5 69Q82 102 67 146.5Q52 191 52 243V257Q52 309 67 353Q82 397 108.5 430Q135 463 172 484Q209 505 253 512V635H326V513Q402 505 454 458.5Q506 412 514 335V327H431Q415 422 326 436V64Q417 76 432 174H516V166Q508 88 456.5 41Q405 -6 326 -14Z" glyph-name="cent" horiz-adv-x="556" unicode="&#162;" /><glyph d="M246 627 123 551 88 605 246 720 409 605 374 551Z" glyph-name="circumflex" horiz-adv-x="496" unicode="&#710;" /><glyph d="M153 -7Q126 -7 107 9Q88 25 88 53V56Q88 85 107 100Q126 115 153 115Q180 115 199 100Q218 85 218 56V53Q218 25 199 9Q180 -7 153 -7ZM153 340Q126 340 107 356Q88 372 88 400V403Q88 432 107 447Q126 462 153 462Q180 462 199 447Q218 432 218 403V400Q218 372 199 356Q180 340 153 340Z" glyph-name="colon" horiz-adv-x="306" unicode=":" /><glyph d="M132 -127H67L116 132H231V120Z" glyph-name="comma" horiz-adv-x="306" unicode="," /><glyph d="M388 -11Q316 -11 254.5 15.5Q193 42 148 88Q103 134 77.5 195.5Q52 257 52 327Q52 397 77.5 458.5Q103 520 148 566Q193 612 254.5 638.5Q316 665 388 665Q460 665 521.5 638.5Q583 612 628 566Q673 520 699 458.5Q725 397 725 327Q725 257 699 195.5Q673 134 628 88Q583 42 521.5 15.5Q460 -11 388 -11ZM388 47Q445 47 494.5 69Q544 91 580.5 129Q617 167 637.5 218Q658 269 658 327Q658 385 637.5 435.5Q617 486 580.5 524Q544 562 494.5 584Q445 606 388 606Q331 606 281.5 584Q232 562 196 524Q160 486 139.5 435.5Q119 385 119 327Q119 269 139.5 218Q160 167 196 129Q232 91 281.5 69Q331 47 388 47ZM391 144Q356 144 324.5 157Q293 170 269.5 193.5Q246 217 232.5 250Q219 283 219 323V336Q219 376 232.5 409Q246 442 269.5 465.5Q293 489 324.5 502Q356 515 391 515Q455 515 499.5 477.5Q544 440 553 377V371H489Q482 406 459.5 430Q437 454 392 454Q342 454 314.5 417.5Q287 381 287 329Q287 304 294 281Q301 258 315 241Q329 224 349.5 214Q370 204 397 204Q439 204 460.5 228Q482 252 489 287H554V281Q545 219 500 181.5Q455 144 391 144Z" glyph-name="copyright" horiz-adv-x="777" unicode="&#169;" /><glyph d="M289 -16Q245 -16 202.5 0.5Q160 17 126.5 49Q93 81 72.5 128.5Q52 176 52 238V253Q52 309 68.5 357Q85 405 117 440Q149 475 195.5 495Q242 515 301 515Q354 515 393 497Q432 479 456 448H458V700H549V0H481L462 60H460Q433 22 386.5 3Q340 -16 289 -16ZM305 62Q345 62 374.5 77Q404 92 423 117.5Q442 143 451.5 177Q461 211 461 249Q461 287 452 321Q443 355 424 381Q405 407 375.5 422.5Q346 438 305 438Q263 438 232.5 423.5Q202 409 182.5 383.5Q163 358 153.5 323.5Q144 289 144 249Q144 210 153.5 176Q163 142 183 116.5Q203 91 233.5 76.5Q264 62 305 62Z" glyph-name="d" horiz-adv-x="627" unicode="d" /><glyph d="M252 -82H170V378H56V454H170V704H252V454H367V378H252Z" glyph-name="dagger" horiz-adv-x="423" unicode="&#8224;" /><glyph d="M252 -78H171V185H57V260H171V378H57V452H171V700H252V452H366V378H252V260H366V185H252Z" glyph-name="daggerdbl" horiz-adv-x="423" unicode="&#8225;" /><glyph d="M225 341Q195 341 166 351Q137 361 113.5 380.5Q90 400 76 429Q62 458 62 495V506Q62 543 76 572Q90 601 113.5 620.5Q137 640 166 650Q195 660 225 660Q255 660 284 650Q313 640 336.5 620.5Q360 601 374.5 572Q389 543 389 506V495Q389 458 374.5 429Q360 400 336.5 380.5Q313 361 284 351Q255 341 225 341ZM225 417Q254 417 278.5 437Q303 457 303 495V506Q303 544 278.5 564Q254 584 225 584Q196 584 172 564Q148 544 148 506V495Q148 457 172 437Q196 417 225 417Z" glyph-name="degree" horiz-adv-x="451" unicode="&#176;" /><glyph d="M342 559Q315 559 296.5 575.5Q278 592 278 619Q278 645 296.5 662Q315 679 342 679Q368 679 386.5 662.5Q405 646 405 619Q405 593 386.5 576Q368 559 342 559ZM154 559Q128 559 109.5 575.5Q91 592 91 619Q91 645 109 662Q127 679 154 679Q180 679 199 662.5Q218 646 218 619Q218 593 199 576Q180 559 154 559Z" glyph-name="dieresis" horiz-adv-x="496" unicode="&#168;" /><glyph d="M555 288H50V369H555ZM302 109Q276 109 257.5 125.5Q239 142 239 169Q239 195 257 212Q275 229 302 229Q328 229 347 212.5Q366 196 366 169Q366 143 347 126Q328 109 302 109ZM302 428Q275 428 256.5 445Q238 462 238 488Q238 515 256.5 531.5Q275 548 302 548Q328 548 346.5 531Q365 514 365 488Q365 461 346.5 444.5Q328 428 302 428Z" glyph-name="divide" horiz-adv-x="605" unicode="&#247;" /><glyph d="M300 -105H224V8Q201 12 179 19Q139 32 109.5 56.5Q80 81 62.5 116Q45 151 44 196V204H134Q136 147 171 115Q193 95 225 87V303Q188 312 153 323Q116 336 92 361Q70 382 59 407.5Q48 433 48 469V478Q48 518 65.5 549Q83 580 111.5 601Q140 622 176 633Q197 639 220 642V731H294V641Q312 638 329 633Q366 622 393.5 601Q421 580 437.5 548.5Q454 517 455 476V468H372Q368 509 340 539Q323 558 294 565V372Q329 362 365 349Q404 335 431 308Q454 286 465 256Q476 226 476 196V187Q476 137 456.5 102.5Q437 68 406.5 46.5Q376 25 338 15Q319 10 300 8ZM354 108Q386 134 386 181Q386 204 380.5 220.5Q375 237 361 251Q340 272 304 282L300 284V85Q332 91 354 108ZM166 543Q140 516 140 480Q140 442 164 418Q180 402 214 393Q216 392 219 391V567Q185 561 166 543Z" glyph-name="dollar" horiz-adv-x="528" unicode="$" /><glyph d="M248 563Q221 563 201.5 580Q182 597 182 626Q182 653 201 670Q220 687 248 687Q275 687 294.5 670.5Q314 654 314 626Q314 597 294.5 580Q275 563 248 563Z" glyph-name="dotaccent" horiz-adv-x="496" unicode="&#729;" /><glyph d="M165 0H74V500H165Z" glyph-name="dotlessi" horiz-adv-x="239" unicode="&#305;" /><glyph d="M292 -16Q240 -16 196 2.5Q152 21 120 55Q88 89 70 137Q52 185 52 243V257Q52 315 69.5 362.5Q87 410 118 444Q149 478 193 496.5Q237 515 289 515Q345 515 387.5 495Q430 475 459 440Q488 405 502.5 358.5Q517 312 517 259V240Q517 233 516 222H145Q151 153 188 107.5Q225 62 294 62Q343 62 373.5 82Q404 102 419 140H509Q491 65 433 24.5Q375 -16 292 -16ZM424 297Q422 323 413.5 348Q405 373 389 393Q373 413 349 425.5Q325 438 292 438Q226 438 191.5 399Q157 360 147 297Z" glyph-name="e" horiz-adv-x="569" unicode="e" /><glyph d="M292 -16Q240 -16 196 2.5Q152 21 120 55Q88 89 70 137Q52 185 52 243V257Q52 315 69.5 362.5Q87 410 118 444Q149 478 193 496.5Q237 515 289 515Q345 515 387.5 495Q430 475 459 440Q488 405 502.5 358.5Q517 312 517 259V240Q517 233 516 222H145Q151 153 188 107.5Q225 62 294 62Q343 62 373.5 82Q404 102 419 140H509Q491 65 433 24.5Q375 -16 292 -16ZM424 297Q422 323 413.5 348Q405 373 389 393Q373 413 349 425.5Q325 438 292 438Q226 438 191.5 399Q157 360 147 297ZM418 656 183 543 154 595 372 737Z" glyph-name="eacute" horiz-adv-x="569" unicode="&#233;" /><glyph d="M292 -16Q240 -16 196 2.5Q152 21 120 55Q88 89 70 137Q52 185 52 243V257Q52 315 69.5 362.5Q87 410 118 444Q149 478 193 496.5Q237 515 289 515Q345 515 387.5 495Q430 475 459 440Q488 405 502.5 358.5Q517 312 517 259V240Q517 233 516 222H145Q151 153 188 107.5Q225 62 294 62Q343 62 373.5 82Q404 102 419 140H509Q491 65 433 24.5Q375 -16 292 -16ZM424 297Q422 323 413.5 348Q405 373 389 393Q373 413 349 425.5Q325 438 292 438Q226 438 191.5 399Q157 360 147 297ZM285 627 162 551 127 605 285 720 448 605 413 551Z" glyph-name="ecircumflex" horiz-adv-x="569" unicode="&#234;" /><glyph d="M292 -16Q240 -16 196 2.5Q152 21 120 55Q88 89 70 137Q52 185 52 243V257Q52 315 69.5 362.5Q87 410 118 444Q149 478 193 496.5Q237 515 289 515Q345 515 387.5 495Q430 475 459 440Q488 405 502.5 358.5Q517 312 517 259V240Q517 233 516 222H145Q151 153 188 107.5Q225 62 294 62Q343 62 373.5 82Q404 102 419 140H509Q491 65 433 24.5Q375 -16 292 -16ZM424 297Q422 323 413.5 348Q405 373 389 393Q373 413 349 425.5Q325 438 292 438Q226 438 191.5 399Q157 360 147 297ZM376 559Q349 559 330.5 575.5Q312 592 312 619Q312 645 330.5 662Q349 679 376 679Q402 679 420.5 662.5Q439 646 439 619Q439 593 420.5 576Q402 559 376 559ZM188 559Q162 559 143.5 575.5Q125 592 125 619Q125 645 143 662Q161 679 188 679Q214 679 233 662.5Q252 646 252 619Q252 593 233 576Q214 559 188 559Z" glyph-name="edieresis" horiz-adv-x="569" unicode="&#235;" /><glyph d="M292 -16Q240 -16 196 2.5Q152 21 120 55Q88 89 70 137Q52 185 52 243V257Q52 315 69.5 362.5Q87 410 118 444Q149 478 193 496.5Q237 515 289 515Q345 515 387.5 495Q430 475 459 440Q488 405 502.5 358.5Q517 312 517 259V240Q517 233 516 222H145Q151 153 188 107.5Q225 62 294 62Q343 62 373.5 82Q404 102 419 140H509Q491 65 433 24.5Q375 -16 292 -16ZM424 297Q422 323 413.5 348Q405 373 389 393Q373 413 349 425.5Q325 438 292 438Q226 438 191.5 399Q157 360 147 297ZM418 595 389 543 154 656 200 737Z" glyph-name="egrave" horiz-adv-x="569" unicode="&#232;" /><glyph d="M282 -16Q233 -16 191 -4Q149 8 118 31.5Q87 55 70 89.5Q53 124 53 170V178Q53 203 61 227Q69 251 82.5 271Q96 291 113.5 307.5Q131 324 151 334V336Q137 345 123.5 359.5Q110 374 99 392Q88 410 81.5 430Q75 450 75 471V479Q75 524 91 559Q107 594 135 617.5Q163 641 201 653Q239 665 282 665Q326 665 364 653Q402 641 430 617.5Q458 594 474 559Q490 524 490 479V471Q490 450 483.5 430Q477 410 466 392Q455 374 441.5 359.5Q428 345 414 336V334Q434 324 451.5 307.5Q469 291 482.5 271Q496 251 504 227Q512 203 512 178V170Q512 124 495 89.5Q478 55 447 31.5Q416 8 374 -4Q332 -16 282 -16ZM282 63Q346 63 383 95Q420 127 420 174Q420 228 381 258.5Q342 289 282 289Q222 289 183.5 258.5Q145 228 145 174Q145 127 182 95Q219 63 282 63ZM282 371Q309 371 330.5 380.5Q352 390 367 405Q382 420 390 439Q398 458 398 478Q398 526 367 558Q336 590 282 590Q229 590 198 558Q167 526 167 478Q167 458 175 439Q183 420 197.5 405Q212 390 233.5 380.5Q255 371 282 371Z" glyph-name="eight" horiz-adv-x="565" unicode="8" /><glyph d="M772 -7Q745 -7 726 9Q707 25 707 53V56Q707 85 726 100Q745 115 772 115Q799 115 818 100Q837 85 837 56V53Q837 25 818 9Q799 -7 772 -7ZM153 -7Q126 -7 107 9Q88 25 88 53V56Q88 85 107 100Q126 115 153 115Q180 115 199 100Q218 85 218 56V53Q218 25 199 9Q180 -7 153 -7ZM462 -7Q435 -7 416 9Q397 25 397 53V56Q397 85 416 100Q435 115 462 115Q489 115 508 100Q527 85 527 56V53Q527 25 508 9Q489 -7 462 -7Z" glyph-name="ellipsis" horiz-adv-x="925" unicode="&#8230;" /><glyph d="M646 254H71V331H646Z" glyph-name="emdash" horiz-adv-x="717" unicode="&#8212;" /><glyph d="M481 254H71V331H481Z" glyph-name="endash" horiz-adv-x="552" unicode="&#8211;" /><glyph d="M575 374H70V455H575ZM575 199H70V280H575Z" glyph-name="equal" horiz-adv-x="645" unicode="=" /><glyph d="M192 200H114L103 635V650H204V635ZM153 -7Q126 -7 107 9Q88 25 88 53V56Q88 85 107 100Q126 115 153 115Q180 115 199 100Q218 85 218 56V53Q218 25 199 9Q180 -7 153 -7Z" glyph-name="exclam" horiz-adv-x="306" unicode="!" /><glyph d="M114 308H192L203 -127V-142H102V-127ZM153 515Q180 515 199 499Q218 483 218 455V452Q218 423 199 408Q180 393 153 393Q126 393 107 408Q88 423 88 452V455Q88 483 107 499Q126 515 153 515Z" glyph-name="exclamdown" horiz-adv-x="306" unicode="&#161;" /><glyph d="M207 0H116V426H41V476L116 497V541Q116 627 155.5 671Q195 715 274 715Q319 715 364 702V627H348Q333 633 313 635.5Q293 638 279 638Q240 638 223.5 618Q207 598 207 553V500H361V426H207Z" glyph-name="f" horiz-adv-x="396" unicode="f" /><glyph d="M544 0H453V500H544ZM499 595Q472 595 453 611Q434 627 434 654V657Q434 685 453 700Q472 715 499 715Q526 715 545 700Q564 685 564 657V654Q564 627 545 611Q526 595 499 595ZM207 0H116V426H41V476L116 497V541Q116 627 155.5 671Q195 715 274 715Q296 715 313.5 712Q331 709 354 702V627H338Q323 633 308 635.5Q293 638 279 638Q240 638 223.5 618Q207 598 207 553V500H351V426H207Z" glyph-name="fi" horiz-adv-x="618" unicode="&#64257;" /><glyph d="M243 -15Q195 -15 143 -5.5Q91 4 49 29V127H65Q102 101 143 85.5Q184 70 231 70Q306 70 345.5 104.5Q385 139 385 190Q385 223 371.5 246Q358 269 335.5 284Q313 299 284.5 306Q256 313 225 313Q187 313 154 308Q121 303 95 295L81 308L116 650H453V570H196L178 393Q186 394 204.5 394.5Q223 395 231 395Q276 395 321 384Q366 373 401 349.5Q436 326 458 288.5Q480 251 480 198V186Q480 141 460 103.5Q440 66 407 40Q374 14 331.5 -0.5Q289 -15 243 -15Z" glyph-name="five" horiz-adv-x="528" unicode="5" /><glyph d="M207 0H116V426H41V476L116 497V541Q116 627 155.5 671Q195 715 274 715Q296 715 313.5 712Q331 709 354 702V627H338Q323 633 308 635.5Q293 638 279 638Q240 638 223.5 618Q207 598 207 553V500H351V426H207ZM588 -3Q523 -3 490 33.5Q457 70 457 137V700H548V149Q548 102 571.5 87.5Q595 73 634 80H649V2Q639 0 620.5 -1.5Q602 -3 588 -3Z" glyph-name="fl" horiz-adv-x="679" unicode="&#64258;" /><glyph d="M119 -90H28L72 327H-3L4 401H80L89 491Q97 577 142 621Q187 665 266 665Q311 665 354 652L346 577H330Q316 583 296 585.5Q276 588 262 588Q223 588 205 568Q187 548 182 503L171 401H325L317 327H163Z" glyph-name="florin" horiz-adv-x="376" unicode="&#402;" /><glyph d="M454 0H359V158H31L19 231L351 650H454V242H547V158H454ZM133 243V241Q144 242 160 242H361V503Q361 526 362 540H360Q352 525 339.5 508Q327 491 318 480L164 279Q159 274 149 262Q139 250 133 243Z" glyph-name="four" horiz-adv-x="585" unicode="4" /><glyph d="M-71 0H-137V15Q-92 91 -58 146Q-24 201 4.5 246.5Q33 292 59.5 332.5Q86 373 114.5 418.5Q143 464 177 519.5Q211 575 256 650H322V634Z" glyph-name="fraction" horiz-adv-x="185" unicode="&#8260;" /><glyph d="M311 -204Q202 -204 142.5 -153Q83 -102 78 -18V-10H171Q174 -62 210.5 -93.5Q247 -125 307 -125Q337 -125 364 -116Q391 -107 411.5 -90Q432 -73 443.5 -48.5Q455 -24 455 6V72H453Q425 37 381 20.5Q337 4 289 4Q247 4 204.5 20Q162 36 128.5 66.5Q95 97 73.5 142.5Q52 188 52 248V263Q52 319 70 365.5Q88 412 120.5 445Q153 478 199 496.5Q245 515 302 515Q352 515 396 493.5Q440 472 463 442H466L485 500H549V3Q549 -49 529.5 -87.5Q510 -126 477.5 -152Q445 -178 402 -191Q359 -204 311 -204ZM303 82Q343 82 373 95.5Q403 109 422.5 132.5Q442 156 451.5 188.5Q461 221 461 259Q461 297 451.5 329.5Q442 362 422.5 386Q403 410 373.5 424Q344 438 303 438Q263 438 233 424.5Q203 411 183 387Q163 363 153.5 330.5Q144 298 144 259Q144 222 154 189.5Q164 157 184 133Q204 109 233.5 95.5Q263 82 303 82Z" glyph-name="g" horiz-adv-x="627" unicode="g" /><glyph d="M346 -14Q326 -14 295.5 -10.5Q265 -7 245 1V85H261Q277 77 298.5 72Q320 67 346 67Q403 67 431.5 103Q460 139 460 200Q460 226 451 249Q442 272 425.5 289Q409 306 386.5 316.5Q364 327 337 327H264V407H298Q325 407 344.5 417Q364 427 377 443.5Q390 460 396.5 482Q403 504 403 529Q403 574 375 603.5Q347 633 289 633Q242 633 217 615.5Q192 598 181.5 572.5Q171 547 170 517.5Q169 488 169 463V0H78V513Q78 603 132.5 659Q187 715 290 715Q331 715 368.5 704Q406 693 435 671Q464 649 481 615.5Q498 582 498 537V524Q498 482 477 445Q456 408 427 387V385Q454 377 477 359.5Q500 342 517.5 318.5Q535 295 544.5 266Q554 237 554 205V193Q554 148 539.5 110Q525 72 498 44Q471 16 432.5 1Q394 -14 346 -14Z" glyph-name="germandbls" horiz-adv-x="602" unicode="&#223;" /><glyph d="M382 595 353 543 118 656 164 737Z" glyph-name="grave" horiz-adv-x="496" unicode="`" /><glyph d="M80 152 444 330V332L81 509V607L565 364V295L80 50Z" glyph-name="greater" horiz-adv-x="635" unicode="&gt;" /><glyph d="M81 270 409 412V414L82 555V649L545 446V377L81 172ZM80 40V123H548V40Z" glyph-name="greaterequal" horiz-adv-x="618" unicode="&#8805;" /><glyph d="M290 60H192L35 248V257L192 445H290V431L141 252L290 74ZM500 60H402L245 248V257L402 445H500V431L351 252L500 74Z" glyph-name="guillemotleft" horiz-adv-x="550" unicode="&#171;" /><glyph d="M50 60V74L199 252L50 431V445H148L305 257V248L148 60ZM260 60V74L409 252L260 431V445H358L515 257V248L358 60Z" glyph-name="guillemotright" horiz-adv-x="550" unicode="&#187;" /><glyph d="M290 60H192L35 248V257L192 445H290V431L141 252L290 74Z" glyph-name="guilsinglleft" horiz-adv-x="340" unicode="&#8249;" /><glyph d="M50 60V74L199 252L50 431V445H148L305 257V248L148 60Z" glyph-name="guilsinglright" horiz-adv-x="340" unicode="&#8250;" /><glyph d="M169 0H78V700H169V447H171Q198 481 235.5 498Q273 515 313 515Q404 515 454 462Q500 414 500 321V0H410V305Q410 343 403 366.5Q396 390 381 405Q351 435 296 435Q266 435 241 426Q216 417 197 396Q169 367 169 293Z" glyph-name="h" horiz-adv-x="568" unicode="h" /><glyph d="M478 667 311 544 273 590 417 737ZM288 667 121 544 83 590 227 737Z" glyph-name="hungarumlaut" horiz-adv-x="496" unicode="&#733;" /><glyph d="M361 252H71V334H361Z" glyph-name="hyphen" horiz-adv-x="432" unicode="-" /><glyph d="M165 0H74V500H165ZM120 595Q93 595 74 611Q55 627 55 654V657Q55 685 74 700Q93 715 120 715Q147 715 166 700Q185 685 185 657V654Q185 627 166 611Q147 595 120 595Z" glyph-name="i" horiz-adv-x="239" unicode="i" /><glyph d="M165 0H74V500H165ZM252 656 17 543 -12 595 206 737Z" glyph-name="iacute" horiz-adv-x="239" unicode="&#237;" /><glyph d="M165 0H74V500H165ZM118 627 -5 551 -40 605 118 720 281 605 246 551Z" glyph-name="icircumflex" horiz-adv-x="239" unicode="&#238;" /><glyph d="M165 0H74V500H165ZM214 559Q187 559 168.5 575.5Q150 592 150 619Q150 645 168.5 662Q187 679 214 679Q240 679 258.5 662.5Q277 646 277 619Q277 593 258.5 576Q240 559 214 559ZM26 559Q0 559 -18.5 575.5Q-37 592 -37 619Q-37 645 -19 662Q-1 679 26 679Q52 679 71 662.5Q90 646 90 619Q90 593 71 576Q52 559 26 559Z" glyph-name="idieresis" horiz-adv-x="239" unicode="&#239;" /><glyph d="M165 0H74V500H165ZM252 595 223 543 -12 656 34 737Z" glyph-name="igrave" horiz-adv-x="239" unicode="&#236;" /><glyph d="M67 -180H-22V-167Q5 -148 23.5 -120.5Q42 -93 53.5 -63.5Q65 -34 69.5 -3.5Q74 27 74 52V500H166V45Q166 -24 140 -84.5Q114 -145 67 -180ZM120 595Q93 595 74 611Q55 627 55 654V657Q55 685 74 700Q93 715 120 715Q147 715 166 700Q185 685 185 657V654Q185 627 166 611Q147 595 120 595Z" glyph-name="j" horiz-adv-x="240" unicode="j" /><glyph d="M169 0H78V700H169V283L355 500H453V487L266 270L502 13V0H393L169 244Z" glyph-name="k" horiz-adv-x="514" unicode="k" /><glyph d="M204 -3Q139 -3 106 33.5Q73 70 73 137V700H164V149Q164 102 187.5 87.5Q211 73 250 80H265V2Q255 0 236.5 -1.5Q218 -3 204 -3Z" glyph-name="l" horiz-adv-x="295" unicode="l" /><glyph d="M555 152V50L70 295V364L554 607V509L191 332V330Z" glyph-name="less" horiz-adv-x="635" unicode="&lt;" /><glyph d="M537 270V172L73 377V446L536 649V555L209 414V412ZM538 40H70V123H538Z" glyph-name="lessequal" horiz-adv-x="618" unicode="&#8804;" /><glyph d="M486 273H391V484H36V560H486Z" glyph-name="logicalnot" horiz-adv-x="537" unicode="&#172;" /><glyph d="M169 0H78V500H146L164 441H166Q192 479 227.5 497Q263 515 301 515Q355 515 394 492Q433 469 454 429H456Q482 472 524 493.5Q566 515 611 515Q692 515 738 470Q784 425 784 341V0H693V314Q693 435 588 435Q538 435 507 401Q476 367 476 307V0H386V314Q386 435 280 435Q229 435 199.5 400.5Q170 366 169 306Z" glyph-name="m" horiz-adv-x="852" unicode="m" /><glyph d="M396 580H100V657H396Z" glyph-name="macron" horiz-adv-x="496" unicode="&#175;" /><glyph d="M168 -180H78V560H168V203Q168 145 202.5 105Q237 65 307 65Q373 65 410 104.5Q447 144 449 207V560H540V0H472L454 59H452Q438 40 419 26Q400 12 379.5 3Q359 -6 338 -10.5Q317 -15 299 -15Q280 -15 260.5 -12.5Q241 -10 223 -5.5Q205 -1 190.5 5.5Q176 12 168 20Z" glyph-name="mu" horiz-adv-x="608" unicode="&#181;" /><glyph d="M169 0H78V500H146L164 441H166Q194 479 232.5 497Q271 515 313 515Q404 515 454 462Q500 414 500 321V0H410V305Q410 343 403 366.5Q396 390 381 405Q351 435 296 435Q266 435 241 426Q216 417 197 396Q169 367 169 293Z" glyph-name="n" horiz-adv-x="568" unicode="n" /><glyph d="M267 666Q325 666 370 649.5Q415 633 445.5 604Q476 575 491.5 534.5Q507 494 507 447V433Q507 402 499 369.5Q491 337 478 305.5Q465 274 448 245Q431 216 413 190Q375 138 330.5 88Q286 38 240 0H128V15Q160 41 190.5 67Q221 93 250 125Q261 137 274.5 152Q288 167 301.5 182.5Q315 198 327 213.5Q339 229 347 243L346 244Q330 236 305.5 230.5Q281 225 262 225Q217 225 176.5 239Q136 253 105.5 280Q75 307 57 346.5Q39 386 39 436V449Q39 498 58 538Q77 578 108.5 606.5Q140 635 181 650.5Q222 666 267 666ZM269 586Q236 586 210.5 574Q185 562 168.5 542.5Q152 523 143.5 498.5Q135 474 135 448Q135 419 143.5 393.5Q152 368 169 348.5Q186 329 212.5 318Q239 307 275 307Q346 307 378.5 346.5Q411 386 411 447Q411 473 402.5 498Q394 523 376.5 542.5Q359 562 332 574Q305 586 269 586Z" glyph-name="nine" horiz-adv-x="554" unicode="9" /><glyph glyph-name="nonmarkingreturn" horiz-adv-x="250" unicode="" /><glyph d="M575 374H401L347 280H575V199H300L216 54H127V68L203 199H70V280H250L304 374H70V455H351L430 590H519V576L448 455H575Z" glyph-name="notequal" horiz-adv-x="645" unicode="&#8800;" /><glyph d="M169 0H78V500H146L164 441H166Q194 479 232.5 497Q271 515 313 515Q404 515 454 462Q500 414 500 321V0H410V305Q410 343 403 366.5Q396 390 381 405Q351 435 296 435Q266 435 241 426Q216 417 197 396Q169 367 169 293ZM181 560H115Q115 583 121.5 604.5Q128 626 140.5 643.5Q153 661 172.5 671.5Q192 682 217 682Q240 682 256.5 675Q273 668 287.5 659.5Q302 651 316 644Q330 637 346 637Q360 637 373.5 645Q387 653 387 685H453Q453 663 446.5 641Q440 619 427.5 601.5Q415 584 396 573.5Q377 563 351 563Q329 563 312 570Q295 577 280 585.5Q265 594 251.5 601Q238 608 221 608Q207 608 194 600Q181 592 181 560Z" glyph-name="ntilde" horiz-adv-x="568" unicode="&#241;" /><glyph d="M269 401 252 267H385L401 401ZM582 401H472L455 267H558V200H447L423 0H354V15L377 200H244L220 0H150V15L173 200H71V267H181L197 401H95V467H206L228 650H297V635L277 467H410L432 650H500V635L480 467H582Z" glyph-name="numbersign" horiz-adv-x="653" unicode="#" /><glyph d="M181 0H94V650H189L498 157H501Q501 168 500.5 186.5Q500 205 499.5 226Q499 247 499 266V650H586V0H496L182 498H179Q179 488 179.5 469Q180 450 180.5 429Q181 408 181 388ZM817 347Q787 347 759.5 357Q732 367 710.5 386.5Q689 406 676.5 435Q664 464 664 501V512Q664 549 676.5 578Q689 607 710.5 626.5Q732 646 759.5 656Q787 666 817 666Q847 666 874.5 656Q902 646 923.5 626.5Q945 607 958 578Q971 549 971 512V501Q971 464 958 435Q945 406 923.5 386.5Q902 367 874.5 357Q847 347 817 347ZM817 415Q858 415 875 441Q892 467 892 507Q892 545 875 572.5Q858 600 817 600Q776 600 759.5 572.5Q743 545 743 507Q743 467 759.5 441Q776 415 817 415Z" glyph-name="numero" horiz-adv-x="1024" unicode="&#8470;" /><glyph d="M301 -16Q250 -16 204.5 1Q159 18 125.5 51Q92 84 72 132Q52 180 52 241V258Q52 320 72 368Q92 416 126 448.5Q160 481 205 498Q250 515 301 515Q352 515 397.5 498Q443 481 477 448.5Q511 416 530.5 368Q550 320 550 258V241Q550 180 530 132Q510 84 476.5 51Q443 18 397.5 1Q352 -16 301 -16ZM301 62Q341 62 370.5 76.5Q400 91 419.5 116.5Q439 142 448.5 176.5Q458 211 458 250Q458 290 448.5 324Q439 358 419.5 383.5Q400 409 370.5 423.5Q341 438 301 438Q261 438 231.5 423.5Q202 409 182.5 383.5Q163 358 153.5 324Q144 290 144 250Q144 211 153.5 176.5Q163 142 182.5 116.5Q202 91 231.5 76.5Q261 62 301 62Z" glyph-name="o" horiz-adv-x="603" unicode="o" /><glyph d="M301 -16Q250 -16 204.5 1Q159 18 125.5 51Q92 84 72 132Q52 180 52 241V258Q52 320 72 368Q92 416 126 448.5Q160 481 205 498Q250 515 301 515Q352 515 397.5 498Q443 481 477 448.5Q511 416 530.5 368Q550 320 550 258V241Q550 180 530 132Q510 84 476.5 51Q443 18 397.5 1Q352 -16 301 -16ZM301 62Q341 62 370.5 76.5Q400 91 419.5 116.5Q439 142 448.5 176.5Q458 211 458 250Q458 290 448.5 324Q439 358 419.5 383.5Q400 409 370.5 423.5Q341 438 301 438Q261 438 231.5 423.5Q202 409 182.5 383.5Q163 358 153.5 324Q144 290 144 250Q144 211 153.5 176.5Q163 142 182.5 116.5Q202 91 231.5 76.5Q261 62 301 62ZM433 656 198 543 169 595 387 737Z" glyph-name="oacute" horiz-adv-x="603" unicode="&#243;" /><glyph d="M301 -16Q250 -16 204.5 1Q159 18 125.5 51Q92 84 72 132Q52 180 52 241V258Q52 320 72 368Q92 416 126 448.5Q160 481 205 498Q250 515 301 515Q352 515 397.5 498Q443 481 477 448.5Q511 416 530.5 368Q550 320 550 258V241Q550 180 530 132Q510 84 476.5 51Q443 18 397.5 1Q352 -16 301 -16ZM301 62Q341 62 370.5 76.5Q400 91 419.5 116.5Q439 142 448.5 176.5Q458 211 458 250Q458 290 448.5 324Q439 358 419.5 383.5Q400 409 370.5 423.5Q341 438 301 438Q261 438 231.5 423.5Q202 409 182.5 383.5Q163 358 153.5 324Q144 290 144 250Q144 211 153.5 176.5Q163 142 182.5 116.5Q202 91 231.5 76.5Q261 62 301 62ZM300 627 177 551 142 605 300 720 463 605 428 551Z" glyph-name="ocircumflex" horiz-adv-x="603" unicode="&#244;" /><glyph d="M301 -16Q250 -16 204.5 1Q159 18 125.5 51Q92 84 72 132Q52 180 52 241V258Q52 320 72 368Q92 416 126 448.5Q160 481 205 498Q250 515 301 515Q352 515 397.5 498Q443 481 477 448.5Q511 416 530.5 368Q550 320 550 258V241Q550 180 530 132Q510 84 476.5 51Q443 18 397.5 1Q352 -16 301 -16ZM301 62Q341 62 370.5 76.5Q400 91 419.5 116.5Q439 142 448.5 176.5Q458 211 458 250Q458 290 448.5 324Q439 358 419.5 383.5Q400 409 370.5 423.5Q341 438 301 438Q261 438 231.5 423.5Q202 409 182.5 383.5Q163 358 153.5 324Q144 290 144 250Q144 211 153.5 176.5Q163 142 182.5 116.5Q202 91 231.5 76.5Q261 62 301 62ZM395 559Q368 559 349.5 575.5Q331 592 331 619Q331 645 349.5 662Q368 679 395 679Q421 679 439.5 662.5Q458 646 458 619Q458 593 439.5 576Q421 559 395 559ZM207 559Q181 559 162.5 575.5Q144 592 144 619Q144 645 162 662Q180 679 207 679Q233 679 252 662.5Q271 646 271 619Q271 593 252 576Q233 559 207 559Z" glyph-name="odieresis" horiz-adv-x="603" unicode="&#246;" /><glyph d="M658 -16Q597 -16 550.5 11Q504 38 475 87Q443 36 394 10Q345 -16 286 -16Q238 -16 195.5 1Q153 18 121 51Q89 84 70.5 132Q52 180 52 241V258Q52 320 70.5 368Q89 416 121 448.5Q153 481 195 498Q237 515 285 515Q345 515 394 489.5Q443 464 474 413Q502 461 548 488Q594 515 655 515Q708 515 749 495Q790 475 817.5 440Q845 405 859 358.5Q873 312 873 259V240Q873 233 872 222H521Q526 153 561 107.5Q596 62 660 62Q747 62 775 140H865Q848 65 792.5 24.5Q737 -16 658 -16ZM286 62Q322 62 348.5 76.5Q375 91 393 116.5Q411 142 419.5 176.5Q428 211 428 250Q428 290 419.5 324Q411 358 393 383.5Q375 409 348.5 423.5Q322 438 286 438Q250 438 223.5 423.5Q197 409 179 383.5Q161 358 152.5 324Q144 290 144 250Q144 211 152.5 176.5Q161 142 179 116.5Q197 91 223.5 76.5Q250 62 286 62ZM780 297Q779 323 771.5 348.5Q764 374 749 393.5Q734 413 711.5 425Q689 437 658 437Q596 437 564 398.5Q532 360 523 297Z" glyph-name="oe" horiz-adv-x="925" unicode="&#339;" /><glyph d="M260 -185Q207 -185 182 -159Q157 -133 157 -99Q157 -67 179 -36Q201 -5 244 10L309 0Q265 -20 249.5 -43.5Q234 -67 234 -90Q234 -124 274 -124Q288 -124 299.5 -121.5Q311 -119 328 -112H338V-172Q322 -179 300 -182Q278 -185 260 -185Z" glyph-name="ogonek" horiz-adv-x="496" unicode="&#731;" /><glyph d="M301 -16Q250 -16 204.5 1Q159 18 125.5 51Q92 84 72 132Q52 180 52 241V258Q52 320 72 368Q92 416 126 448.5Q160 481 205 498Q250 515 301 515Q352 515 397.5 498Q443 481 477 448.5Q511 416 530.5 368Q550 320 550 258V241Q550 180 530 132Q510 84 476.5 51Q443 18 397.5 1Q352 -16 301 -16ZM301 62Q341 62 370.5 76.5Q400 91 419.5 116.5Q439 142 448.5 176.5Q458 211 458 250Q458 290 448.5 324Q439 358 419.5 383.5Q400 409 370.5 423.5Q341 438 301 438Q261 438 231.5 423.5Q202 409 182.5 383.5Q163 358 153.5 324Q144 290 144 250Q144 211 153.5 176.5Q163 142 182.5 116.5Q202 91 231.5 76.5Q261 62 301 62ZM433 595 404 543 169 656 215 737Z" glyph-name="ograve" horiz-adv-x="603" unicode="&#242;" /><glyph d="M219 0H124V492H12V556Q40 558 64 562.5Q88 567 106.5 578Q125 589 137.5 607.5Q150 626 154 654H219Z" glyph-name="one" horiz-adv-x="314" unicode="1" /><glyph d="M211 280Q182 280 153.5 291.5Q125 303 102.5 325.5Q80 348 66 380Q52 412 52 452V464Q52 502 64.5 534.5Q77 567 99.5 590.5Q122 614 153 627Q184 640 222 640Q257 640 285.5 626.5Q314 613 328 594H329L342 630H401V291H342L330 332H328Q305 303 274.5 291.5Q244 280 211 280ZM227 340Q279 340 303.5 375.5Q328 411 328 460Q328 511 303.5 545.5Q279 580 227 580Q179 580 153.5 545.5Q128 511 128 460Q128 410 153.5 375Q179 340 227 340Z" glyph-name="ordfeminine" horiz-adv-x="469" unicode="&#170;" /><glyph d="M223 283Q190 283 159 294.5Q128 306 104 328Q80 350 66 382.5Q52 415 52 457V469Q52 510 66 542Q80 574 104 596Q128 618 159 629.5Q190 641 223 641Q257 641 288.5 629.5Q320 618 344 596Q368 574 382.5 542Q397 510 397 469V457Q397 415 382.5 382.5Q368 350 344 328Q320 306 288.5 294.5Q257 283 223 283ZM224 346Q272 346 296 379.5Q320 413 320 463Q320 512 296 545.5Q272 579 224 579Q176 579 152.5 545.5Q129 512 129 463Q129 413 152.5 379.5Q176 346 224 346Z" glyph-name="ordmasculine" horiz-adv-x="449" unicode="&#186;" /><glyph d="M301 -16Q268 -16 238 -9L214 -65H135V-52L165 19Q143 33 125 51Q92 84 72 132Q52 180 52 241V258Q52 320 72 368Q92 416 126 448.5Q160 481 205 498Q250 515 301 515Q339 515 374 505L400 565H478V551L445 474Q462 462 477 448Q511 416 530.5 368Q550 320 550 258V241Q550 180 530 132Q510 84 476.5 51Q443 18 397.5 1Q352 -16 301 -16ZM301 438Q261 438 231.5 423.5Q202 409 182.5 383.5Q163 358 153.5 324Q144 290 144 250Q144 211 153.5 176.5Q163 142 182 116Q190 106 199 98L343 433Q324 438 301 438ZM301 62Q341 62 370.5 76.5Q400 91 419.5 116.5Q439 142 448.5 176.5Q458 211 458 250Q458 290 448.5 324Q439 358 419 383Q415 389 410 394L269 64Q284 62 301 62Z" glyph-name="oslash" horiz-adv-x="606" unicode="&#248;" /><glyph d="M301 -16Q250 -16 204.5 1Q159 18 125.5 51Q92 84 72 132Q52 180 52 241V258Q52 320 72 368Q92 416 126 448.5Q160 481 205 498Q250 515 301 515Q352 515 397.5 498Q443 481 477 448.5Q511 416 530.5 368Q550 320 550 258V241Q550 180 530 132Q510 84 476.5 51Q443 18 397.5 1Q352 -16 301 -16ZM301 62Q341 62 370.5 76.5Q400 91 419.5 116.5Q439 142 448.5 176.5Q458 211 458 250Q458 290 448.5 324Q439 358 419.5 383.5Q400 409 370.5 423.5Q341 438 301 438Q261 438 231.5 423.5Q202 409 182.5 383.5Q163 358 153.5 324Q144 290 144 250Q144 211 153.5 176.5Q163 142 182.5 116.5Q202 91 231.5 76.5Q261 62 301 62ZM198 560H132Q132 583 138.5 604.5Q145 626 157.5 643.5Q170 661 189.5 671.5Q209 682 234 682Q257 682 273.5 675Q290 668 304.5 659.5Q319 651 333 644Q347 637 363 637Q377 637 390.5 645Q404 653 404 685H470Q470 663 463.5 641Q457 619 444.5 601.5Q432 584 413 573.5Q394 563 368 563Q346 563 329 570Q312 577 297 585.5Q282 594 268.5 601Q255 608 238 608Q224 608 211 600Q198 592 198 560Z" glyph-name="otilde" horiz-adv-x="603" unicode="&#245;" /><glyph d="M169 -180H78V500H146L165 440H167Q194 478 240.5 497Q287 516 338 516Q382 516 424.5 499.5Q467 483 500.5 451Q534 419 554.5 371.5Q575 324 575 262V247Q575 191 558.5 143Q542 95 510 60Q478 25 431.5 5Q385 -15 326 -15Q273 -15 234 3Q195 21 171 52H169ZM322 62Q364 62 394.5 76.5Q425 91 444.5 116.5Q464 142 473.5 176.5Q483 211 483 251Q483 290 473.5 324Q464 358 444 383.5Q424 409 393.5 423.5Q363 438 322 438Q282 438 252.5 423Q223 408 204 382.5Q185 357 175.5 323Q166 289 166 251Q166 213 175 179Q184 145 203 119Q222 93 251.5 77.5Q281 62 322 62Z" glyph-name="p" horiz-adv-x="627" unicode="p" /><glyph d="M427 0H345V578H271V334H253Q219 334 188 344Q157 354 133 373.5Q109 393 95 421.5Q81 450 81 487V499Q81 535 93.5 563.5Q106 592 127.5 611Q149 630 177 640Q205 650 236 650H427Z" glyph-name="paragraph" horiz-adv-x="554" unicode="&#182;" /><glyph d="M252 -124H181Q123 -15 98.5 86Q74 187 74 285Q74 385 98.5 486Q123 587 181 696H251V683Q207 580 188 480Q169 380 169 285Q169 191 188.5 92Q208 -7 252 -111Z" glyph-name="parenleft" horiz-adv-x="308" unicode="(" /><glyph d="M56 696H127Q185 587 209.5 486Q234 385 234 287Q234 187 209.5 86Q185 -15 127 -124H57V-111Q101 -8 120 92Q139 192 139 287Q139 381 119.5 480Q100 579 56 683Z" glyph-name="parenright" horiz-adv-x="308" unicode=")" /><glyph d="M171 0H105V15L462 650H531V635ZM458 -5Q432 -5 408 4Q384 13 366 30Q348 47 337 71.5Q326 96 326 127V136Q326 167 337 191.5Q348 216 366 233Q384 250 408 259Q432 268 458 268Q484 268 508 259Q532 250 550 233Q568 216 579 191.5Q590 167 590 136V127Q590 96 579 71.5Q568 47 550 30Q532 13 508 4Q484 -5 458 -5ZM458 55Q490 55 506.5 77Q523 99 523 131Q523 163 506.5 185.5Q490 208 458 208Q426 208 409.5 185.5Q393 163 393 131Q393 99 409.5 77Q426 55 458 55ZM178 381Q152 381 128 390Q104 399 86 416Q68 433 57 457.5Q46 482 46 513V522Q46 553 57 577.5Q68 602 86.5 619Q105 636 129 645Q153 654 179 654Q205 654 229 645Q253 636 271 619Q289 602 300 577.5Q311 553 311 522V513Q311 482 300 457.5Q289 433 270.5 416Q252 399 228 390Q204 381 178 381ZM179 441Q211 441 227.5 463Q244 485 244 517Q244 549 227.5 571.5Q211 594 179 594Q147 594 130 571.5Q113 549 113 517Q113 485 130 463Q147 441 179 441Z" glyph-name="percent" horiz-adv-x="636" unicode="%" /><glyph d="M153 -7Q126 -7 107 9Q88 25 88 53V56Q88 85 107 100Q126 115 153 115Q180 115 199 100Q218 85 218 56V53Q218 25 199 9Q180 -7 153 -7Z" glyph-name="period" horiz-adv-x="306" unicode="." /><glyph d="M153 232Q126 232 107 248Q88 264 88 292V295Q88 324 107 339Q126 354 153 354Q180 354 199 339Q218 324 218 295V292Q218 264 199 248Q180 232 153 232Z" glyph-name="periodcentered" horiz-adv-x="306" unicode="&#183;" /><glyph d="M171 0H105V15L462 650H531V635ZM458 -5Q432 -5 408 4Q384 13 366 30Q348 47 337 71.5Q326 96 326 127V136Q326 167 337 191.5Q348 216 366 233Q384 250 408 259Q432 268 458 268Q484 268 508 259Q532 250 550 233Q568 216 579 191.5Q590 167 590 136V127Q590 96 579 71.5Q568 47 550 30Q532 13 508 4Q484 -5 458 -5ZM458 55Q490 55 506.5 77Q523 99 523 131Q523 163 506.5 185.5Q490 208 458 208Q426 208 409.5 185.5Q393 163 393 131Q393 99 409.5 77Q426 55 458 55ZM178 381Q152 381 128 390Q104 399 86 416Q68 433 57 457.5Q46 482 46 513V522Q46 553 57 577.5Q68 602 86.5 619Q105 636 129 645Q153 654 179 654Q205 654 229 645Q253 636 271 619Q289 602 300 577.5Q311 553 311 522V513Q311 482 300 457.5Q289 433 270.5 416Q252 399 228 390Q204 381 178 381ZM179 441Q211 441 227.5 463Q244 485 244 517Q244 549 227.5 571.5Q211 594 179 594Q147 594 130 571.5Q113 549 113 517Q113 485 130 463Q147 441 179 441ZM758 -5Q732 -5 708 4Q684 13 666 30Q648 47 637 71.5Q626 96 626 127V136Q626 167 637 191.5Q648 216 666 233Q684 250 708 259Q732 268 758 268Q784 268 808 259Q832 250 850 233Q868 216 879 191.5Q890 167 890 136V127Q890 96 879 71.5Q868 47 850 30Q832 13 808 4Q784 -5 758 -5ZM758 55Q790 55 806.5 77Q823 99 823 131Q823 163 806.5 185.5Q790 208 758 208Q726 208 709.5 185.5Q693 163 693 131Q693 99 709.5 77Q726 55 758 55Z" glyph-name="perthousand" horiz-adv-x="936" unicode="&#8240;" /><glyph d="M347 73H257V287H50V370H257V584H347V370H555V287H347Z" glyph-name="plus" horiz-adv-x="605" unicode="+" /><glyph d="M347 208H257V372H70V455H257V619H347V455H535V372H347ZM535 40H70V123H535Z" glyph-name="plusminus" horiz-adv-x="605" unicode="&#177;" /><glyph d="M388 -11Q316 -11 254.5 15.5Q193 42 148 88Q103 134 77.5 195.5Q52 257 52 327Q52 397 77.5 458.5Q103 520 148 566Q193 612 254.5 638.5Q316 665 388 665Q460 665 521.5 638.5Q583 612 628 566Q673 520 699 458.5Q725 397 725 327Q725 257 699 195.5Q673 134 628 88Q583 42 521.5 15.5Q460 -11 388 -11ZM388 47Q445 47 494.5 69Q544 91 580.5 129Q617 167 637.5 218Q658 269 658 327Q658 385 637.5 435.5Q617 486 580.5 524Q544 562 494.5 584Q445 606 388 606Q331 606 281.5 584Q232 562 196 524Q160 486 139.5 435.5Q119 385 119 327Q119 269 139.5 218Q160 167 196 129Q232 91 281.5 69Q331 47 388 47ZM344 150H280V510H420Q445 510 467.5 502.5Q490 495 507 481Q524 467 534 446Q544 425 544 398V389Q543 364 533 343Q523 322 506 307Q489 292 467 284Q445 276 420 276H344ZM344 452V334H417Q451 334 465.5 352.5Q480 371 480 394Q480 414 467 433Q454 452 422 452Z" glyph-name="published" horiz-adv-x="777" unicode="&#8471;" /><glyph d="M549 -180H458V58H456Q427 20 383 2.5Q339 -15 288 -15Q244 -15 201.5 1.5Q159 18 126 50Q93 82 72.5 129.5Q52 177 52 239V256Q52 312 68.5 360Q85 408 116.5 442.5Q148 477 195 496.5Q242 516 302 516Q352 516 396 494Q440 472 463 442H466L485 500H549ZM305 63Q345 63 374.5 78Q404 93 423 118.5Q442 144 451.5 178Q461 212 461 250Q461 288 452 322Q443 356 424 382Q405 408 375.5 423.5Q346 439 305 439Q263 439 232.5 424.5Q202 410 182.5 384.5Q163 359 153.5 324.5Q144 290 144 250Q144 211 153.5 177Q163 143 183 117.5Q203 92 233.5 77.5Q264 63 305 63Z" glyph-name="q" horiz-adv-x="627" unicode="q" /><glyph d="M280 202H202L196 374L203 381Q231 383 255.5 389.5Q280 396 298 409Q316 422 326.5 442Q337 462 337 492Q337 532 311 560.5Q285 589 242 589Q214 589 195 581.5Q176 574 164.5 561.5Q153 549 148 532.5Q143 516 143 498H54V506Q57 547 73 577Q89 607 114.5 626.5Q140 646 173 655Q206 664 242 664Q281 664 314.5 652.5Q348 641 373.5 619.5Q399 598 413.5 567.5Q428 537 428 499V493Q428 461 416.5 433Q405 405 385 383Q365 361 339 345.5Q313 330 283 321ZM241 -7Q214 -7 194.5 9Q175 25 175 53V56Q175 85 194.5 100Q214 115 241 115Q267 115 286.5 100Q306 85 306 56V53Q306 25 286.5 9Q267 -7 241 -7Z" glyph-name="question" horiz-adv-x="481" unicode="?" /><glyph d="M201 306H279L285 134L278 127Q250 125 225.5 118.5Q201 112 183 99Q165 86 154.5 66Q144 46 144 16Q144 -24 170 -52.5Q196 -81 239 -81Q267 -81 286 -73.5Q305 -66 316.5 -53.5Q328 -41 333 -24.5Q338 -8 338 10H427V2Q424 -39 408 -69Q392 -99 366.5 -118.5Q341 -138 308 -147Q275 -156 239 -156Q200 -156 166.5 -144.5Q133 -133 107.5 -111.5Q82 -90 67.5 -59.5Q53 -29 53 9V15Q53 47 64.5 75Q76 103 96 125Q116 147 142 162.5Q168 178 198 187ZM240 515Q267 515 286.5 499Q306 483 306 455V452Q306 423 286.5 408Q267 393 240 393Q214 393 194.5 408Q175 423 175 452V455Q175 483 194.5 499Q214 515 240 515Z" glyph-name="questiondown" horiz-adv-x="461" unicode="&#191;" /><glyph d="M294 422H233L219 635V650H308V635ZM148 422H87L73 635V650H162V635Z" glyph-name="quotedbl" horiz-adv-x="381" unicode="&quot;" /><glyph d="M126 -127H61L110 132H225V120ZM310 -127H245L294 132H409V120Z" glyph-name="quotedblbase" horiz-adv-x="490" unicode="&#8222;" /><glyph d="M363 650H428L379 391H264V403ZM180 650H245L196 391H81V403Z" glyph-name="quotedblleft" horiz-adv-x="489" unicode="&#8220;" /><glyph d="M126 391H61L110 650H225V638ZM310 391H245L294 650H409V638Z" glyph-name="quotedblright" horiz-adv-x="490" unicode="&#8221;" /><glyph d="M180 650H245L196 391H81V403Z" glyph-name="quoteleft" horiz-adv-x="306" unicode="&#8216;" /><glyph d="M143 391H78L127 650H242V638Z" glyph-name="quoteright" horiz-adv-x="306" unicode="&#8217;" /><glyph d="M126 -127H61L110 132H225V120Z" glyph-name="quotesinglbase" horiz-adv-x="286" unicode="&#8218;" /><glyph d="M148 422H87L73 635V650H162V635Z" glyph-name="quotesingle" horiz-adv-x="235" unicode="&apos;" /><glyph d="M169 0H78V500H139L162 412H164Q179 457 221 480.5Q263 504 311 504Q316 504 326.5 503.5Q337 503 342 502V412H314Q264 412 235 397.5Q206 383 191.5 359Q177 335 173 303.5Q169 272 169 238Z" glyph-name="r" horiz-adv-x="368" unicode="r" /><glyph d="M388 -11Q316 -11 254.5 15.5Q193 42 148 88Q103 134 77.5 195.5Q52 257 52 327Q52 397 77.5 458.5Q103 520 148 566Q193 612 254.5 638.5Q316 665 388 665Q460 665 521.5 638.5Q583 612 628 566Q673 520 699 458.5Q725 397 725 327Q725 257 699 195.5Q673 134 628 88Q583 42 521.5 15.5Q460 -11 388 -11ZM388 47Q445 47 494.5 69Q544 91 580.5 129Q617 167 637.5 218Q658 269 658 327Q658 385 637.5 435.5Q617 486 580.5 524Q544 562 494.5 584Q445 606 388 606Q331 606 281.5 584Q232 562 196 524Q160 486 139.5 435.5Q119 385 119 327Q119 269 139.5 218Q160 167 196 129Q232 91 281.5 69Q331 47 388 47ZM329 150H265V510H405Q430 510 452.5 502.5Q475 495 492 481Q509 467 519 446Q529 425 529 398V389Q529 351 509.5 325Q490 299 458 285L544 168V150H481L389 276H329ZM329 452V334H402Q436 334 450.5 352.5Q465 371 465 394Q465 414 452 433Q439 452 407 452Z" glyph-name="registered" horiz-adv-x="777" unicode="&#174;" /><glyph d="M248 482Q206 482 177.5 510Q149 538 149 579Q149 619 177.5 646.5Q206 674 248 674Q290 674 318.5 646.5Q347 619 347 579Q347 538 318.5 510Q290 482 248 482ZM248 534Q266 534 278.5 547Q291 560 291 579Q291 598 279 610.5Q267 623 248 623Q230 623 217.5 610Q205 597 205 579Q205 560 217.5 547Q230 534 248 534Z" glyph-name="ring" horiz-adv-x="496" unicode="&#730;" /><glyph d="M254 -15Q163 -15 108.5 26Q54 67 51 150V158H138Q138 58 253 58Q304 58 329 77.5Q354 97 354 132Q354 161 335 180Q317 198 286.5 206.5Q256 215 221.5 222.5Q187 230 153 242Q119 254 95 278Q81 292 70 315.5Q59 339 59 365V372Q59 410 74.5 437Q90 464 115.5 481.5Q141 499 174 507Q207 515 241 515Q278 515 311 506.5Q344 498 369 480.5Q394 463 409 437Q424 411 424 375V367H337Q335 411 308.5 427.5Q282 444 238 444Q195 444 172 426.5Q149 409 149 381Q149 355 167 337Q184 320 214.5 312Q245 304 279.5 296.5Q314 289 348 277Q382 265 407 240Q424 223 433 200Q442 177 443 142V138Q441 97 425 69Q409 39 382.5 20.5Q356 2 322.5 -6.5Q289 -15 254 -15Z" glyph-name="s" horiz-adv-x="493" unicode="s" /><glyph d="M178 346Q156 325 156 293Q156 267 167 251Q178 235 197 225Q216 215 240 209Q264 203 290 197Q311 192 329.5 186.5Q348 181 365 173Q380 193 380 222Q380 253 366.5 272Q353 291 331.5 302.5Q310 314 283 320.5Q256 327 229 332Q204 336 178 346ZM439 122Q473 83 473 24V15Q473 -33 454.5 -66Q436 -99 406 -119.5Q376 -140 339.5 -149Q303 -158 267 -158Q225 -158 187.5 -145.5Q150 -133 121.5 -109.5Q93 -86 76 -52Q59 -18 57 25V35H150Q150 13 158.5 -7.5Q167 -28 183 -43.5Q199 -59 222 -68.5Q245 -78 273 -78Q322 -78 351 -55.5Q380 -33 380 9Q380 40 366.5 59Q353 78 331.5 89.5Q310 101 283 107.5Q256 114 229 119Q195 126 164 139Q133 152 110.5 172Q88 192 74.5 219.5Q61 247 61 283V291Q61 324 71.5 349.5Q82 375 101 394Q82 414 71.5 438.5Q61 463 61 495V504Q61 542 76.5 571.5Q92 601 119 621Q146 641 182 651.5Q218 662 259 662Q299 662 333.5 651.5Q368 641 394.5 620.5Q421 600 436.5 570Q452 540 453 500V489H366Q364 527 337 556Q310 585 256 585Q202 585 179 561.5Q156 538 156 506Q156 480 167 464Q178 448 197 437.5Q216 427 240 421Q264 415 290 409Q331 400 365 386Q399 372 423 351.5Q447 331 460 302.5Q473 274 473 236V227Q473 194 464 168Q455 142 439 122Z" glyph-name="section" horiz-adv-x="525" unicode="&#167;" /><glyph d="M112 -127H47L96 132H211V120ZM160 340Q133 340 114 356Q95 372 95 400V403Q95 432 114 447Q133 462 160 462Q187 462 206 447Q225 432 225 403V400Q225 372 206 356Q187 340 160 340Z" glyph-name="semicolon" horiz-adv-x="306" unicode=";" /><glyph d="M304 405H256V650H315L385 494L454 650H514V405H466L467 573H466L409 444H359L304 570H303ZM125 398Q87 398 61 416.5Q35 435 31 473V476H77Q79 458 92.5 448Q106 438 127 438Q172 438 172 473Q172 478 170.5 483.5Q169 489 164 492Q155 501 140.5 505.5Q126 510 109.5 514Q93 518 78 523.5Q63 529 52 539Q45 546 39.5 557.5Q34 569 34 582V586Q34 606 42 619.5Q50 633 62.5 641.5Q75 650 91 653.5Q107 657 123 657Q155 657 181.5 642Q208 627 212 590V586H167Q165 599 155.5 608.5Q146 618 123 618Q82 618 82 591Q82 576 91 568Q99 561 113 557L143 550Q159 546 174.5 540Q190 534 201 523Q209 515 214 502.5Q219 490 219 479V474Q219 452 210.5 437.5Q202 423 188.5 414Q175 405 158.5 401.5Q142 398 125 398Z" glyph-name="servicemark" horiz-adv-x="570" unicode="&#8480;" /><glyph d="M196 0H106V15Q118 87 144.5 164.5Q171 242 209 316Q247 390 295.5 455.5Q344 521 400 568V570H52V650H517V568Q452 516 399 448.5Q346 381 306 306.5Q266 232 238.5 153.5Q211 75 196 0Z" glyph-name="seven" horiz-adv-x="539" unicode="7" /><glyph d="M287 -16Q229 -16 184 0.5Q139 17 108.5 46Q78 75 62.5 115.5Q47 156 47 203V217Q47 249 55 281Q63 313 76 344.5Q89 376 106 405.5Q123 435 141 460Q179 512 223.5 562Q268 612 314 650H426V635Q394 609 363.5 583Q333 557 304 525Q293 513 279.5 498Q266 483 252.5 467.5Q239 452 227 436.5Q215 421 207 407L208 406Q224 414 248.5 419.5Q273 425 292 425Q337 425 377.5 411Q418 397 448.5 370Q479 343 497 303.5Q515 264 515 214V201Q515 152 496.5 112Q478 72 446.5 43.5Q415 15 373.5 -0.5Q332 -16 287 -16ZM285 64Q318 64 343.5 76Q369 88 385.5 107.5Q402 127 410.5 151.5Q419 176 419 202Q419 231 410.5 256.5Q402 282 385 301.5Q368 321 341.5 332Q315 343 279 343Q208 343 175.5 303.5Q143 264 143 203Q143 177 151.5 152Q160 127 177.5 107.5Q195 88 222 76Q249 64 285 64Z" glyph-name="six" horiz-adv-x="554" unicode="6" /><glyph d="M123 -124H34V-110L370 696H459V682Z" glyph-name="slash" horiz-adv-x="493" unicode="/" /><glyph glyph-name="space" horiz-adv-x="176" unicode=" " /><glyph d="M391 -8Q356 -8 330.5 1.5Q305 11 281 22Q257 32 237 40Q217 48 190 48Q132 48 132 0H46Q43 56 73 92Q103 128 170 130H177Q179 143 180 157.5Q181 172 181 186Q181 209 174.5 230.5Q168 252 158 272H58V349H117Q103 375 92 406.5Q81 438 81 467V480Q81 521 95 555Q109 589 135 613.5Q161 638 198 651.5Q235 665 282 665Q326 665 361.5 651.5Q397 638 421.5 613.5Q446 589 459.5 555Q473 521 473 479V469H385V474Q385 527 361 557Q337 587 280 587Q226 587 200.5 554Q175 521 175 475Q175 442 189 411Q203 380 222 349H405V272H255Q261 253 264.5 234Q268 215 268 195Q268 145 261 113Q277 108 291.5 102Q306 96 321 90Q337 84 354.5 79Q372 74 392 74Q424 74 438 92.5Q452 111 450 142H532V130Q531 104 523.5 79.5Q516 55 499.5 35.5Q483 16 456.5 4Q430 -8 391 -8Z" glyph-name="sterling" horiz-adv-x="567" unicode="&#163;" /><glyph d="M261 -9Q180 -9 143.5 32Q107 73 107 142V426H35V470Q64 480 84 496Q104 512 117.5 531Q131 550 139.5 571.5Q148 593 153 613H199V500H338V426H199V145Q199 100 220 84.5Q241 69 269 69Q310 69 341 92H357V15Q339 5 311.5 -2Q284 -9 261 -9Z" glyph-name="t" horiz-adv-x="391" unicode="t" /><glyph d="M255 -15Q149 -15 93.5 36Q38 87 33 171V179H126Q129 127 161.5 95Q194 63 259 63Q317 63 353 98.5Q389 134 389 195Q389 253 352.5 291Q316 329 242 329Q233 329 219.5 328Q206 327 195 325L181 335L170 379L329 568V570H61L60 650H451V592L298 404Q338 398 372 382Q406 366 431 340.5Q456 315 470 282Q484 249 484 210V200Q484 149 466 109Q448 69 417 41.5Q386 14 344.5 -0.5Q303 -15 255 -15Z" glyph-name="three" horiz-adv-x="534" unicode="3" /><glyph d="M145 560H79Q79 583 85.5 604.5Q92 626 104.5 643.5Q117 661 136.5 671.5Q156 682 181 682Q204 682 220.5 675Q237 668 251.5 659.5Q266 651 280 644Q294 637 310 637Q324 637 337.5 645Q351 653 351 685H417Q417 663 410.5 641Q404 619 391.5 601.5Q379 584 360 573.5Q341 563 315 563Q293 563 276 570Q259 577 244 585.5Q229 594 215.5 601Q202 608 185 608Q171 608 158 600Q145 592 145 560Z" glyph-name="tilde" horiz-adv-x="496" unicode="&#732;" /><glyph d="M300 405H253V650H311L381 494L451 650H511V405H462L463 573H462L406 444H355L301 570H300ZM153 405H103V606H33V650H221V606H153Z" glyph-name="trademark" horiz-adv-x="567" unicode="&#8482;" /><glyph d="M495 0H61V59Q93 86 127.5 119.5Q162 153 196.5 187.5Q231 222 262.5 256Q294 290 318 318Q346 350 366 384.5Q386 419 386 473Q386 522 357 553Q328 584 274 584Q242 584 218 574Q194 564 178.5 548Q163 532 155.5 512.5Q148 493 148 473Q148 450 153 425V411H67Q58 443 58 472Q58 516 73.5 552Q89 588 117 613Q145 638 185 651.5Q225 665 274 665Q319 665 357 652Q395 639 422.5 615Q450 591 466 556.5Q482 522 482 478V463Q482 418 462.5 373Q443 328 399 276Q354 223 310 179Q266 135 211 84V82H495Z" glyph-name="two" horiz-adv-x="553" unicode="2" /><glyph d="M273 -16Q233 -16 195.5 -4Q158 8 129 32.5Q100 57 82.5 96Q65 135 65 189V500H155V193Q155 156 165 131Q175 106 191.5 91Q208 76 229.5 70Q251 64 273 64Q295 64 316.5 70Q338 76 354.5 91Q371 106 381 131Q391 156 391 193V500H481V189Q481 135 463.5 96Q446 57 417 32.5Q388 8 350.5 -4Q313 -16 273 -16Z" glyph-name="u" horiz-adv-x="546" unicode="u" /><glyph d="M273 -16Q233 -16 195.5 -4Q158 8 129 32.5Q100 57 82.5 96Q65 135 65 189V500H155V193Q155 156 165 131Q175 106 191.5 91Q208 76 229.5 70Q251 64 273 64Q295 64 316.5 70Q338 76 354.5 91Q371 106 381 131Q391 156 391 193V500H481V189Q481 135 463.5 96Q446 57 417 32.5Q388 8 350.5 -4Q313 -16 273 -16ZM405 656 170 543 141 595 359 737Z" glyph-name="uacute" horiz-adv-x="546" unicode="&#250;" /><glyph d="M273 -16Q233 -16 195.5 -4Q158 8 129 32.5Q100 57 82.5 96Q65 135 65 189V500H155V193Q155 156 165 131Q175 106 191.5 91Q208 76 229.5 70Q251 64 273 64Q295 64 316.5 70Q338 76 354.5 91Q371 106 381 131Q391 156 391 193V500H481V189Q481 135 463.5 96Q446 57 417 32.5Q388 8 350.5 -4Q313 -16 273 -16ZM271 627 148 551 113 605 271 720 434 605 399 551Z" glyph-name="ucircumflex" horiz-adv-x="546" unicode="&#251;" /><glyph d="M273 -16Q233 -16 195.5 -4Q158 8 129 32.5Q100 57 82.5 96Q65 135 65 189V500H155V193Q155 156 165 131Q175 106 191.5 91Q208 76 229.5 70Q251 64 273 64Q295 64 316.5 70Q338 76 354.5 91Q371 106 381 131Q391 156 391 193V500H481V189Q481 135 463.5 96Q446 57 417 32.5Q388 8 350.5 -4Q313 -16 273 -16ZM367 559Q340 559 321.5 575.5Q303 592 303 619Q303 645 321.5 662Q340 679 367 679Q393 679 411.5 662.5Q430 646 430 619Q430 593 411.5 576Q393 559 367 559ZM179 559Q153 559 134.5 575.5Q116 592 116 619Q116 645 134 662Q152 679 179 679Q205 679 224 662.5Q243 646 243 619Q243 593 224 576Q205 559 179 559Z" glyph-name="udieresis" horiz-adv-x="546" unicode="&#252;" /><glyph d="M273 -16Q233 -16 195.5 -4Q158 8 129 32.5Q100 57 82.5 96Q65 135 65 189V500H155V193Q155 156 165 131Q175 106 191.5 91Q208 76 229.5 70Q251 64 273 64Q295 64 316.5 70Q338 76 354.5 91Q371 106 381 131Q391 156 391 193V500H481V189Q481 135 463.5 96Q446 57 417 32.5Q388 8 350.5 -4Q313 -16 273 -16ZM405 595 376 543 141 656 187 737Z" glyph-name="ugrave" horiz-adv-x="546" unicode="&#249;" /><glyph d="M294 -198H-2V-121H294Z" glyph-name="underscore" horiz-adv-x="292" unicode="_" /><glyph d="M300 0H212L10 487V500H105L232 169L238 154Q242 144 246 132.5Q250 121 253 110L259 94H261Q263 100 266 110.5Q269 121 273 132Q277 143 280.5 153Q284 163 286 169L411 500H502V487Z" glyph-name="v" horiz-adv-x="512" unicode="v" /><glyph d="M278 0H184L29 487V500H119L215 183Q217 177 220 167.5Q223 158 226 147Q229 136 231.5 126.5Q234 117 235 111H237Q238 117 240 126.5Q242 136 245 146.5Q248 157 250.5 166.5Q253 176 255 182L353 500H456L555 181Q557 175 559.5 165.5Q562 156 565 146Q568 136 570.5 126.5Q573 117 574 111H576Q577 117 579 126Q581 135 584 145.5Q587 156 589.5 165Q592 174 594 180L691 500H776V487L620 0H526L403 385L402 387Z" glyph-name="w" horiz-adv-x="805" unicode="w" /><glyph d="M114 0H22V13L207 259L48 487V500H148L264 329L380 500H474V487L316 263L500 13V0H403L260 195Z" glyph-name="x" horiz-adv-x="522" unicode="x" /><glyph d="M218 -180H123V-167L203 23L10 487V500H105L227 183Q229 178 233 167.5Q237 157 241 146Q245 135 248.5 124Q252 113 254 107H256Q258 113 261 123.5Q264 134 268 145Q272 156 275.5 166Q279 176 281 182L403 500H494V487Z" glyph-name="y" horiz-adv-x="504" unicode="y" /><glyph d="M218 -180H123V-167L203 23L10 487V500H105L227 183Q229 178 233 167.5Q237 157 241 146Q245 135 248.5 124Q252 113 254 107H256Q258 113 261 123.5Q264 134 268 145Q272 156 275.5 166Q279 176 281 182L403 500H494V487ZM352 559Q325 559 306.5 575.5Q288 592 288 619Q288 645 306.5 662Q325 679 352 679Q378 679 396.5 662.5Q415 646 415 619Q415 593 396.5 576Q378 559 352 559ZM164 559Q138 559 119.5 575.5Q101 592 101 619Q101 645 119 662Q137 679 164 679Q190 679 209 662.5Q228 646 228 619Q228 593 209 576Q190 559 164 559Z" glyph-name="ydieresis" horiz-adv-x="504" unicode="&#255;" /><glyph d="M359 0H264V227H78V298H236L201 354H78V425H157L25 635V650H129L314 343L500 650H597V635L466 425H543V354H421L386 298H543V227H359Z" glyph-name="yen" horiz-adv-x="622" unicode="&#165;" /><glyph d="M428 0H53V56L309 424V426H62V500H426V442L170 76V74H428Z" glyph-name="z" horiz-adv-x="488" unicode="z" /><glyph d="M296 -15Q236 -15 190.5 9.5Q145 34 114 77.5Q83 121 67.5 182Q52 243 52 315V333Q52 406 67.5 467Q83 528 114 572Q145 616 190.5 640.5Q236 665 296 665Q356 665 401.5 640.5Q447 616 478 572Q509 528 524.5 467Q540 406 540 333V315Q540 243 524.5 182Q509 121 478 77.5Q447 34 401.5 9.5Q356 -15 296 -15ZM296 69Q338 69 366 88.5Q394 108 411.5 142.5Q429 177 436 223.5Q443 270 443 324Q443 378 436 425Q429 472 411.5 506.5Q394 541 366 560.5Q338 580 296 580Q254 580 226 560.5Q198 541 180.5 506.5Q163 472 156 426Q149 380 149 326Q149 271 156 224Q163 177 180.5 142.5Q198 108 226 88.5Q254 69 296 69Z" glyph-name="zero" horiz-adv-x="592" unicode="0" /></font>
</defs>
</svg>
