<?xml version="1.0" standalone="no"?><!DOCTYPE svg PUBLIC "-//W3C//DTD SVG 1.1//EN" "http://www.w3.org/Graphics/SVG/1.1/DTD/svg11.dtd" ><svg version="1.1" xmlns="http://www.w3.org/2000/svg"><defs><font horiz-adv-x="0" id="font"><font-face ascent="750" bbox="-135 -215 1015 903" cap-height="650" descent="-250" font-family="AT Fabriga Web Medium" font-stretch="normal" font-style="normal" font-weight="600" units-per-em="1000" x-height="500" /><missing-glyph horiz-adv-x="180" /><glyph d="M137 0H13V16L269 650H401L657 16V0H528L478 132H187ZM298 426 228 241H437L368 426Q358 452 349 476.5Q340 501 334 526H332Q326 502 317 477Q308 452 298 426Z" glyph-name="A" horiz-adv-x="670" unicode="A" /><glyph d="M891 0H468V133H225L147 0H13V16L398 650H891V543H596V384H848V275H596V107H891ZM468 545H466L287 239H468Z" glyph-name="AE" horiz-adv-x="950" unicode="&#198;" /><glyph d="M137 0H13V16L269 650H401L657 16V0H528L478 132H187ZM298 426 228 241H437L368 426Q358 452 349 476.5Q340 501 334 526H332Q326 502 317 477Q308 452 298 426ZM483 800 224 688 188 757 427 903Z" glyph-name="Aacute" horiz-adv-x="670" unicode="&#193;" /><glyph d="M137 0H13V16L269 650H401L657 16V0H528L478 132H187ZM298 426 228 241H437L368 426Q358 452 349 476.5Q340 501 334 526H332Q326 502 317 477Q308 452 298 426ZM333 765 203 689 163 755 321 877H345L504 755L464 689Z" glyph-name="Acircumflex" horiz-adv-x="670" unicode="&#194;" /><glyph d="M137 0H13V16L269 650H401L657 16V0H528L478 132H187ZM298 426 228 241H437L368 426Q358 452 349 476.5Q340 501 334 526H332Q326 502 317 477Q308 452 298 426ZM434 707Q402 707 380 726.5Q358 746 358 779Q358 811 380 831Q402 851 434 851Q466 851 487.5 831Q509 811 509 779Q509 746 487.5 726.5Q466 707 434 707ZM232 707Q200 707 178 726.5Q156 746 156 779Q156 811 178 831Q200 851 232 851Q264 851 285.5 831Q307 811 307 779Q307 746 285.5 726.5Q264 707 232 707Z" glyph-name="Adieresis" horiz-adv-x="670" unicode="&#196;" /><glyph d="M137 0H13V16L269 650H401L657 16V0H528L478 132H187ZM298 426 228 241H437L368 426Q358 452 349 476.5Q340 501 334 526H332Q326 502 317 477Q308 452 298 426ZM458 757 422 688 163 800 219 903Z" glyph-name="Agrave" horiz-adv-x="670" unicode="&#192;" /><glyph d="M137 0H13V16L261 631L259 633Q245 647 236.5 665.5Q228 684 228 705Q228 726 236.5 744.5Q245 763 259.5 777Q274 791 293.5 799Q313 807 335 807Q357 807 376.5 799Q396 791 410.5 777Q425 763 433.5 744.5Q442 726 442 705Q442 684 433.5 665.5Q425 647 410 633L408 631L657 16V0H528L478 132H187ZM298 426 228 241H437L368 426Q358 452 349 476.5Q340 501 334 526H332Q326 502 317 477Q308 452 298 426ZM335 663Q352 663 364.5 675.5Q377 688 377 705Q377 723 365 735Q353 747 335 747Q318 747 305.5 734.5Q293 722 293 705Q293 688 305.5 675.5Q318 663 335 663Z" glyph-name="Aring" horiz-adv-x="670" unicode="&#197;" /><glyph d="M137 0H13V16L269 650H401L657 16V0H528L478 132H187ZM298 426 228 241H437L368 426Q358 452 349 476.5Q340 501 334 526H332Q326 502 317 477Q308 452 298 426ZM236 705H152Q152 732 159.5 758Q167 784 181 804Q195 824 217 836.5Q239 849 267 849Q290 849 305.5 842Q321 835 334.5 827Q348 819 361 812Q374 805 391 805Q397 805 404 806Q411 807 416.5 811.5Q422 816 426 825Q430 834 430 850H514Q514 823 506.5 797Q499 771 485 751Q471 731 449.5 718.5Q428 706 399 706Q377 706 361 713Q345 720 331.5 728Q318 736 304.5 743Q291 750 273 750Q268 750 261.5 749Q255 748 249.5 743.5Q244 739 240 730Q236 721 236 705Z" glyph-name="Atilde" horiz-adv-x="670" unicode="&#195;" /><glyph d="M356 0H81V650H321Q369 650 409.5 639.5Q450 629 480 607.5Q510 586 527 554Q544 522 544 479V473Q544 425 521.5 389Q499 353 464 337V335Q485 329 504 315.5Q523 302 538 282.5Q553 263 562 239Q571 215 571 189V183Q571 140 555.5 105.5Q540 71 511.5 48Q483 25 443.5 12.5Q404 0 356 0ZM207 277V107H347Q378 107 397.5 114Q417 121 428 133Q439 145 443 160.5Q447 176 447 192Q447 204 443.5 218.5Q440 233 430 246Q420 259 401.5 268Q383 277 353 277ZM207 543V382H340Q362 382 377 390Q392 398 401 410Q410 422 414 436Q418 450 418 462Q418 492 401 517.5Q384 543 343 543Z" glyph-name="B" horiz-adv-x="613" unicode="B" /><glyph d="M357 -15Q290 -15 233 9Q176 33 134 76.5Q92 120 68.5 181Q45 242 45 316V340Q45 410 68.5 469.5Q92 529 133.5 572.5Q175 616 232 640.5Q289 665 356 665Q418 665 469.5 648Q521 631 559.5 600Q598 569 621.5 526Q645 483 651 431V421H526Q522 448 510.5 472.5Q499 497 479.5 515Q460 533 430.5 543.5Q401 554 360 554Q314 554 279 536.5Q244 519 220.5 488Q197 457 185 416.5Q173 376 173 329Q173 280 184.5 237.5Q196 195 219.5 163.5Q243 132 278 114Q313 96 360 96Q401 96 429.5 107.5Q458 119 477.5 138.5Q497 158 508.5 184.5Q520 211 525 241H651V231Q641 171 615 125.5Q589 80 551 48.5Q513 17 463.5 1Q414 -15 357 -15Z" glyph-name="C" horiz-adv-x="689" unicode="C" /><glyph d="M317 -190Q291 -190 268.5 -186.5Q246 -183 229 -177V-110H239Q259 -118 273.5 -121.5Q288 -125 300 -125Q324 -125 338.5 -117.5Q353 -110 353 -95Q353 -84 342.5 -77.5Q332 -71 307 -71L303 -64L324 -13Q276 -9 233 9Q176 33 134 76.5Q92 120 68.5 181Q45 242 45 316V340Q45 410 68.5 469.5Q92 529 133.5 572.5Q175 616 232 640.5Q289 665 356 665Q418 665 469.5 648Q521 631 559.5 600Q598 569 621.5 526Q645 483 651 431V421H526Q522 448 510.5 472.5Q499 497 479.5 515Q460 533 430.5 543.5Q401 554 360 554Q314 554 279 536.5Q244 519 220.5 488Q197 457 185 416.5Q173 376 173 329Q173 280 184.5 237.5Q196 195 219.5 163.5Q243 132 278 114Q313 96 360 96Q401 96 429.5 107.5Q458 119 477.5 138.5Q497 158 508.5 184.5Q520 211 525 241H651V231Q641 171 615 125.5Q589 80 551 48.5Q513 17 463 1Q431 -9 397 -13L387 -46Q412 -50 428 -66Q444 -82 444 -102Q444 -125 433 -142Q422 -159 404 -169.5Q386 -180 363 -185Q340 -190 317 -190Z" glyph-name="Ccedilla" horiz-adv-x="689" unicode="&#199;" /><glyph d="M318 0H81V650H318Q387 650 447 628.5Q507 607 552 566.5Q597 526 623 468Q649 410 649 336V312Q649 239 623 181.5Q597 124 552.5 83.5Q508 43 447.5 21.5Q387 0 318 0ZM207 541V109H318Q371 109 409.5 124.5Q448 140 473 168.5Q498 197 510.5 236.5Q523 276 523 324Q523 372 511 412Q499 452 473.5 480.5Q448 509 409 525Q370 541 316 541Z" glyph-name="D" horiz-adv-x="694" unicode="D" /><glyph d="M504 0H81V650H504V541H207V383H461V274H207V109H504Z" glyph-name="E" horiz-adv-x="553" unicode="E" /><glyph d="M504 0H81V650H504V541H207V383H461V274H207V109H504ZM429 800 170 688 134 757 373 903Z" glyph-name="Eacute" horiz-adv-x="553" unicode="&#201;" /><glyph d="M504 0H81V650H504V541H207V383H461V274H207V109H504ZM281 765 151 689 111 755 269 877H293L452 755L412 689Z" glyph-name="Ecircumflex" horiz-adv-x="553" unicode="&#202;" /><glyph d="M504 0H81V650H504V541H207V383H461V274H207V109H504ZM390 707Q358 707 336 726.5Q314 746 314 779Q314 811 336 831Q358 851 390 851Q422 851 443.5 831Q465 811 465 779Q465 746 443.5 726.5Q422 707 390 707ZM188 707Q156 707 134 726.5Q112 746 112 779Q112 811 134 831Q156 851 188 851Q220 851 241.5 831Q263 811 263 779Q263 746 241.5 726.5Q220 707 188 707Z" glyph-name="Edieresis" horiz-adv-x="553" unicode="&#203;" /><glyph d="M504 0H81V650H504V541H207V383H461V274H207V109H504ZM414 757 378 688 119 800 175 903Z" glyph-name="Egrave" horiz-adv-x="553" unicode="&#200;" /><glyph d="M390 -15Q288 -15 216.5 49Q145 113 119 227H10L27 298H112Q111 326 112 354H40L56 425H119Q131 481 155.5 525.5Q180 570 215.5 601Q251 632 295 648.5Q339 665 390 665Q438 665 482.5 650.5Q527 636 561.5 608Q596 580 617.5 538.5Q639 497 643 442V432H523Q519 489 485 523Q451 557 394 557Q281 557 249 425H450L434 354H238Q237 330 238 298H421L404 227H251Q269 164 305.5 128Q342 92 396 92Q453 92 486 130Q519 168 523 228H642V218Q639 162 617.5 118.5Q596 75 562 45.5Q528 16 483.5 0.5Q439 -15 390 -15Z" glyph-name="Euro" horiz-adv-x="687" unicode="&#8364;" /><glyph d="M207 0H81V650H514V541H207V366H471V257H207Z" glyph-name="F" horiz-adv-x="554" unicode="F" /><glyph d="M383 -15Q307 -15 244.5 10Q182 35 138 79.5Q94 124 69.5 184Q45 244 45 314V335Q45 408 69.5 469Q94 530 137.5 573.5Q181 617 240.5 641Q300 665 371 665Q428 665 477.5 652Q527 639 564.5 613.5Q602 588 625.5 550.5Q649 513 655 465V455H531Q518 507 480.5 531.5Q443 556 369 556Q274 556 222.5 493Q171 430 171 325Q171 276 184.5 233.5Q198 191 225.5 160Q253 129 294.5 111.5Q336 94 391 94Q442 94 483.5 110.5Q525 127 553 149V243H377V352H676V118Q655 90 624 66Q593 42 554.5 24Q516 6 472 -4.5Q428 -15 383 -15Z" glyph-name="G" horiz-adv-x="739" unicode="G" /><glyph d="M207 0H81V650H207V383H524V650H650V0H524V274H207Z" glyph-name="H" horiz-adv-x="731" unicode="H" /><glyph d="M207 0H81V650H207Z" glyph-name="I" horiz-adv-x="288" unicode="I" /><glyph d="M207 0H81V650H207ZM297 800 38 688 2 757 241 903Z" glyph-name="Iacute" horiz-adv-x="288" unicode="&#205;" /><glyph d="M207 0H81V650H207ZM145 765 15 689 -25 755 133 877H157L316 755L276 689Z" glyph-name="Icircumflex" horiz-adv-x="288" unicode="&#206;" /><glyph d="M207 0H81V650H207ZM247 707Q215 707 193 726.5Q171 746 171 779Q171 811 193 831Q215 851 247 851Q279 851 300.5 831Q322 811 322 779Q322 746 300.5 726.5Q279 707 247 707ZM45 707Q13 707 -9 726.5Q-31 746 -31 779Q-31 811 -9 831Q13 851 45 851Q77 851 98.5 831Q120 811 120 779Q120 746 98.5 726.5Q77 707 45 707Z" glyph-name="Idieresis" horiz-adv-x="288" unicode="&#207;" /><glyph d="M207 0H81V650H207ZM282 757 246 688 -13 800 43 903Z" glyph-name="Igrave" horiz-adv-x="288" unicode="&#204;" /><glyph d="M145 -16Q119 -16 88 -12.5Q57 -9 31 2V111H48Q90 95 126 95Q170 95 198.5 117.5Q227 140 227 201V650H349V189Q349 141 334.5 103Q320 65 293 38.5Q266 12 228.5 -2Q191 -16 145 -16Z" glyph-name="J" horiz-adv-x="420" unicode="J" /><glyph d="M207 0H81V650H207V372L464 650H604V634L328 342L615 17V0H471L207 304Z" glyph-name="K" horiz-adv-x="640" unicode="K" /><glyph d="M494 0H81V650H207V109H494Z" glyph-name="L" horiz-adv-x="533" unicode="L" /><glyph d="M177 0H55V16L151 650H276L469 181L666 650H784L875 16V0H753L703 338Q692 413 694 497H692Q684 452 674.5 417.5Q665 383 647 340L510 10H419L283 340Q265 383 255.5 417.5Q246 452 238 497H236Q238 413 227 338Z" glyph-name="M" horiz-adv-x="930" unicode="M" /><glyph d="M204 0H81V650H212L437 336Q461 302 484 265.5Q507 229 529 191H531Q529 228 528 272.5Q527 317 527 355L526 650H650V0H530L292 328Q269 363 245.5 401.5Q222 440 202 474H200Q202 436 203 395Q204 354 204 316Z" glyph-name="N" horiz-adv-x="731" unicode="N" /><glyph glyph-name="NULL" horiz-adv-x="0" /><glyph d="M204 0H81V650H212L437 336Q461 302 484 265.5Q507 229 529 191H531Q529 228 528 272.5Q527 317 527 355L526 650H650V0H530L292 328Q269 363 245.5 401.5Q222 440 202 474H200Q202 436 203 395Q204 354 204 316ZM264 705H180Q180 732 187.5 758Q195 784 209 804Q223 824 245 836.5Q267 849 295 849Q318 849 333.5 842Q349 835 362.5 827Q376 819 389 812Q402 805 419 805Q425 805 432 806Q439 807 444.5 811.5Q450 816 454 825Q458 834 458 850H542Q542 823 534.5 797Q527 771 513 751Q499 731 477.5 718.5Q456 706 427 706Q405 706 389 713Q373 720 359.5 728Q346 736 332.5 743Q319 750 301 750Q296 750 289.5 749Q283 748 277.5 743.5Q272 739 268 730Q264 721 264 705Z" glyph-name="Ntilde" horiz-adv-x="731" unicode="&#209;" /><glyph d="M375 -15Q306 -15 245.5 9Q185 33 140.5 76Q96 119 70.5 179.5Q45 240 45 313V337Q45 410 70.5 470.5Q96 531 141 574Q186 617 246 641Q306 665 375 665Q443 665 503 641Q563 617 607.5 574Q652 531 677.5 470.5Q703 410 703 337V313Q703 240 677.5 179.5Q652 119 607.5 76Q563 33 503.5 9Q444 -15 375 -15ZM374 96Q423 96 460.5 114Q498 132 524 163Q550 194 563.5 235.5Q577 277 577 325Q577 373 564.5 414.5Q552 456 526.5 487Q501 518 462.5 536Q424 554 373 554Q322 554 284.5 536Q247 518 221.5 487Q196 456 183.5 414.5Q171 373 171 325Q171 277 184.5 235.5Q198 194 224 163Q250 132 287.5 114Q325 96 374 96Z" glyph-name="O" horiz-adv-x="748" unicode="O" /><glyph d="M1000 0H577V56Q543 27 500 9Q444 -15 375 -15Q306 -15 245.5 9Q185 33 140.5 76Q96 119 70.5 179.5Q45 240 45 313V337Q45 410 70.5 470.5Q96 531 141 574Q186 617 246 641Q306 665 375 665Q443 665 499 641Q543 622 577 593V650H1000V541H703V383H957V274H703V109H1000ZM374 96Q423 96 460.5 114Q498 132 524 163Q550 194 563.5 235.5Q577 277 577 325V337Q575 378 564 414Q552 456 526.5 487Q501 518 462.5 536Q424 554 373 554Q322 554 284.5 536Q247 518 221.5 487Q196 456 183.5 414.5Q171 373 171 325Q171 277 184.5 235.5Q198 194 224 163Q250 132 287.5 114Q325 96 374 96Z" glyph-name="OE" horiz-adv-x="1059" unicode="&#338;" /><glyph d="M375 -15Q306 -15 245.5 9Q185 33 140.5 76Q96 119 70.5 179.5Q45 240 45 313V337Q45 410 70.5 470.5Q96 531 141 574Q186 617 246 641Q306 665 375 665Q443 665 503 641Q563 617 607.5 574Q652 531 677.5 470.5Q703 410 703 337V313Q703 240 677.5 179.5Q652 119 607.5 76Q563 33 503.5 9Q444 -15 375 -15ZM374 96Q423 96 460.5 114Q498 132 524 163Q550 194 563.5 235.5Q577 277 577 325Q577 373 564.5 414.5Q552 456 526.5 487Q501 518 462.5 536Q424 554 373 554Q322 554 284.5 536Q247 518 221.5 487Q196 456 183.5 414.5Q171 373 171 325Q171 277 184.5 235.5Q198 194 224 163Q250 132 287.5 114Q325 96 374 96ZM532 800 273 688 237 757 476 903Z" glyph-name="Oacute" horiz-adv-x="748" unicode="&#211;" /><glyph d="M375 -15Q306 -15 245.5 9Q185 33 140.5 76Q96 119 70.5 179.5Q45 240 45 313V337Q45 410 70.5 470.5Q96 531 141 574Q186 617 246 641Q306 665 375 665Q443 665 503 641Q563 617 607.5 574Q652 531 677.5 470.5Q703 410 703 337V313Q703 240 677.5 179.5Q652 119 607.5 76Q563 33 503.5 9Q444 -15 375 -15ZM374 96Q423 96 460.5 114Q498 132 524 163Q550 194 563.5 235.5Q577 277 577 325Q577 373 564.5 414.5Q552 456 526.5 487Q501 518 462.5 536Q424 554 373 554Q322 554 284.5 536Q247 518 221.5 487Q196 456 183.5 414.5Q171 373 171 325Q171 277 184.5 235.5Q198 194 224 163Q250 132 287.5 114Q325 96 374 96ZM372 765 242 689 202 755 360 877H384L543 755L503 689Z" glyph-name="Ocircumflex" horiz-adv-x="748" unicode="&#212;" /><glyph d="M375 -15Q306 -15 245.5 9Q185 33 140.5 76Q96 119 70.5 179.5Q45 240 45 313V337Q45 410 70.5 470.5Q96 531 141 574Q186 617 246 641Q306 665 375 665Q443 665 503 641Q563 617 607.5 574Q652 531 677.5 470.5Q703 410 703 337V313Q703 240 677.5 179.5Q652 119 607.5 76Q563 33 503.5 9Q444 -15 375 -15ZM374 96Q423 96 460.5 114Q498 132 524 163Q550 194 563.5 235.5Q577 277 577 325Q577 373 564.5 414.5Q552 456 526.5 487Q501 518 462.5 536Q424 554 373 554Q322 554 284.5 536Q247 518 221.5 487Q196 456 183.5 414.5Q171 373 171 325Q171 277 184.5 235.5Q198 194 224 163Q250 132 287.5 114Q325 96 374 96ZM473 707Q441 707 419 726.5Q397 746 397 779Q397 811 419 831Q441 851 473 851Q505 851 526.5 831Q548 811 548 779Q548 746 526.5 726.5Q505 707 473 707ZM271 707Q239 707 217 726.5Q195 746 195 779Q195 811 217 831Q239 851 271 851Q303 851 324.5 831Q346 811 346 779Q346 746 324.5 726.5Q303 707 271 707Z" glyph-name="Odieresis" horiz-adv-x="748" unicode="&#214;" /><glyph d="M375 -15Q306 -15 245.5 9Q185 33 140.5 76Q96 119 70.5 179.5Q45 240 45 313V337Q45 410 70.5 470.5Q96 531 141 574Q186 617 246 641Q306 665 375 665Q443 665 503 641Q563 617 607.5 574Q652 531 677.5 470.5Q703 410 703 337V313Q703 240 677.5 179.5Q652 119 607.5 76Q563 33 503.5 9Q444 -15 375 -15ZM374 96Q423 96 460.5 114Q498 132 524 163Q550 194 563.5 235.5Q577 277 577 325Q577 373 564.5 414.5Q552 456 526.5 487Q501 518 462.5 536Q424 554 373 554Q322 554 284.5 536Q247 518 221.5 487Q196 456 183.5 414.5Q171 373 171 325Q171 277 184.5 235.5Q198 194 224 163Q250 132 287.5 114Q325 96 374 96ZM517 757 481 688 222 800 278 903Z" glyph-name="Ograve" horiz-adv-x="748" unicode="&#210;" /><glyph d="M375 -15Q330 -15 289 -5L263 -65H151V-50L188 37Q162 54 140 76Q96 119 70.5 179.5Q45 240 45 313V337Q45 410 70.5 470.5Q96 531 141 574Q186 617 246 641Q306 665 375 665Q416 665 454 656L479 715H592V700L555 614Q583 597 607 574Q652 531 677.5 470.5Q703 410 703 337V313Q703 240 677.5 179.5Q652 119 607.5 76Q563 33 503.5 9Q444 -15 375 -15ZM374 96Q423 96 460.5 114Q498 132 524 163Q550 194 563.5 235.5Q577 277 577 325Q577 373 564.5 414.5Q552 456 526 487Q518 497 508 505L334 99Q353 96 374 96ZM373 554Q322 554 284.5 536Q247 518 221.5 487Q196 456 183.5 414.5Q171 373 171 325Q171 277 184.5 235.5Q198 194 224 163Q230 156 236 149L409 551Q392 554 373 554Z" glyph-name="Oslash" horiz-adv-x="748" unicode="&#216;" /><glyph d="M375 -15Q306 -15 245.5 9Q185 33 140.5 76Q96 119 70.5 179.5Q45 240 45 313V337Q45 410 70.5 470.5Q96 531 141 574Q186 617 246 641Q306 665 375 665Q443 665 503 641Q563 617 607.5 574Q652 531 677.5 470.5Q703 410 703 337V313Q703 240 677.5 179.5Q652 119 607.5 76Q563 33 503.5 9Q444 -15 375 -15ZM374 96Q423 96 460.5 114Q498 132 524 163Q550 194 563.5 235.5Q577 277 577 325Q577 373 564.5 414.5Q552 456 526.5 487Q501 518 462.5 536Q424 554 373 554Q322 554 284.5 536Q247 518 221.5 487Q196 456 183.5 414.5Q171 373 171 325Q171 277 184.5 235.5Q198 194 224 163Q250 132 287.5 114Q325 96 374 96ZM275 705H191Q191 732 198.5 758Q206 784 220 804Q234 824 256 836.5Q278 849 306 849Q329 849 344.5 842Q360 835 373.5 827Q387 819 400 812Q413 805 430 805Q436 805 443 806Q450 807 455.5 811.5Q461 816 465 825Q469 834 469 850H553Q553 823 545.5 797Q538 771 524 751Q510 731 488.5 718.5Q467 706 438 706Q416 706 400 713Q384 720 370.5 728Q357 736 343.5 743Q330 750 312 750Q307 750 300.5 749Q294 748 288.5 743.5Q283 739 279 730Q275 721 275 705Z" glyph-name="Otilde" horiz-adv-x="748" unicode="&#213;" /><glyph d="M207 0H81V650H360Q406 650 447.5 636.5Q489 623 521 595.5Q553 568 572 527Q591 486 591 431V414Q591 362 570 320Q549 278 514 249Q479 220 432.5 204Q386 188 336 188H207ZM207 541V297H336Q400 297 432 331Q464 365 464 415Q464 473 438 507Q412 541 349 541Z" glyph-name="P" horiz-adv-x="617" unicode="P" /><glyph d="M652 -114H519L430 -11Q416 -13 402.5 -14Q389 -15 375 -15Q306 -15 245.5 9Q185 33 140.5 76Q96 119 70.5 179.5Q45 240 45 313V337Q45 410 70.5 470.5Q96 531 141 574Q186 617 246 641Q306 665 375 665Q443 665 503 641Q563 617 607.5 574Q652 531 677.5 470.5Q703 410 703 337V313Q703 216 659 142.5Q615 69 543 28L652 -99ZM374 96Q423 96 460.5 114Q498 132 524 163Q550 194 563.5 235.5Q577 277 577 325Q577 373 564.5 414.5Q552 456 526.5 487Q501 518 462.5 536Q424 554 373 554Q322 554 284.5 536Q247 518 221.5 487Q196 456 183.5 414.5Q171 373 171 325Q171 277 184.5 235.5Q198 194 224 163Q250 132 287.5 114Q325 96 374 96Z" glyph-name="Q" horiz-adv-x="748" unicode="Q" /><glyph d="M207 0H81V650H347Q392 650 433.5 638Q475 626 506.5 601Q538 576 557 539Q576 502 576 451V434Q576 399 563.5 368.5Q551 338 530 313.5Q509 289 480.5 272Q452 255 420 246L600 16V0H461L288 228H207ZM207 541V340H336Q368 340 389.5 348.5Q411 357 424.5 371Q438 385 444 403.5Q450 422 450 441Q450 488 423.5 514.5Q397 541 335 541Z" glyph-name="R" horiz-adv-x="629" unicode="R" /><glyph d="M299 -16Q249 -16 205 -3.5Q161 9 127.5 33.5Q94 58 73.5 95Q53 132 48 180V190H169Q174 141 209 114.5Q244 88 302 88Q359 88 388 112.5Q417 137 417 177Q417 191 411.5 205.5Q406 220 393 231Q370 252 331.5 263.5Q293 275 251 285.5Q209 296 169 310.5Q129 325 102 352Q80 374 67.5 404Q55 434 55 466V476Q55 524 75.5 559.5Q96 595 129 617.5Q162 640 203 651Q244 662 286 662Q330 662 370.5 652.5Q411 643 442.5 622Q474 601 495 567.5Q516 534 521 485V475H404Q402 492 395 507.5Q388 523 374.5 535Q361 547 339.5 554.5Q318 562 287 562Q241 562 210.5 543Q180 524 180 487Q180 468 186.5 455Q193 442 203 433Q223 415 260.5 404Q298 393 340 382Q382 371 423.5 355.5Q465 340 493 311Q515 289 527.5 258Q540 227 540 195V184Q540 130 519.5 92Q499 54 465.5 30Q432 6 388.5 -5Q345 -16 299 -16Z" glyph-name="S" horiz-adv-x="585" unicode="S" /><glyph d="M359 0H233V541H41V650H543V541H359Z" glyph-name="T" horiz-adv-x="584" unicode="T" /><glyph d="M338 -15Q205 -15 138 48.5Q71 112 71 237V650H197V219Q197 152 236 122Q275 92 341 92Q368 92 393.5 99.5Q419 107 438 123Q457 139 468.5 162.5Q480 186 480 219V650H602V237Q602 112 535.5 48.5Q469 -15 338 -15Z" glyph-name="U" horiz-adv-x="673" unicode="U" /><glyph d="M338 -15Q205 -15 138 48.5Q71 112 71 237V650H197V219Q197 152 236 122Q275 92 341 92Q368 92 393.5 99.5Q419 107 438 123Q457 139 468.5 162.5Q480 186 480 219V650H602V237Q602 112 535.5 48.5Q469 -15 338 -15ZM517 800 258 688 222 757 461 903Z" glyph-name="Uacute" horiz-adv-x="673" unicode="&#218;" /><glyph d="M338 -15Q205 -15 138 48.5Q71 112 71 237V650H197V219Q197 152 236 122Q275 92 341 92Q368 92 393.5 99.5Q419 107 438 123Q457 139 468.5 162.5Q480 186 480 219V650H602V237Q602 112 535.5 48.5Q469 -15 338 -15ZM345 765 215 689 175 755 333 877H357L516 755L476 689Z" glyph-name="Ucircumflex" horiz-adv-x="673" unicode="&#219;" /><glyph d="M338 -15Q205 -15 138 48.5Q71 112 71 237V650H197V219Q197 152 236 122Q275 92 341 92Q368 92 393.5 99.5Q419 107 438 123Q457 139 468.5 162.5Q480 186 480 219V650H602V237Q602 112 535.5 48.5Q469 -15 338 -15ZM446 707Q414 707 392 726.5Q370 746 370 779Q370 811 392 831Q414 851 446 851Q478 851 499.5 831Q521 811 521 779Q521 746 499.5 726.5Q478 707 446 707ZM244 707Q212 707 190 726.5Q168 746 168 779Q168 811 190 831Q212 851 244 851Q276 851 297.5 831Q319 811 319 779Q319 746 297.5 726.5Q276 707 244 707Z" glyph-name="Udieresis" horiz-adv-x="673" unicode="&#220;" /><glyph d="M338 -15Q205 -15 138 48.5Q71 112 71 237V650H197V219Q197 152 236 122Q275 92 341 92Q368 92 393.5 99.5Q419 107 438 123Q457 139 468.5 162.5Q480 186 480 219V650H602V237Q602 112 535.5 48.5Q469 -15 338 -15ZM472 757 436 688 177 800 233 903Z" glyph-name="Ugrave" horiz-adv-x="673" unicode="&#217;" /><glyph d="M394 0H278L13 634V650H141L300 255Q310 229 320 195Q330 161 338 130H340Q348 160 358 194Q368 228 379 255L533 650H659V634Z" glyph-name="V" horiz-adv-x="672" unicode="V" /><glyph d="M328 0H202L7 634V650H129L239 281Q243 267 247 249Q251 231 254 212Q257 193 260 175.5Q263 158 266 144H268Q271 158 273.5 175.5Q276 193 279 212Q282 231 285.5 249Q289 267 293 281L399 650H536L644 281Q648 267 651.5 249Q655 231 658.5 212Q662 193 665 175.5Q668 158 671 144H673Q676 158 678.5 175.5Q681 193 684 212Q687 231 690.5 249Q694 267 698 281L799 650H914V634L731 0H603L466 499H464Z" glyph-name="W" horiz-adv-x="921" unicode="W" /><glyph d="M150 0H22V17L252 344L56 634V650H188L324 440L457 650H585V634L393 347L619 17V0H487L321 248Z" glyph-name="X" horiz-adv-x="641" unicode="X" /><glyph d="M376 0H250V259L9 634V650H142L317 362L495 650H619V634L376 259Z" glyph-name="Y" horiz-adv-x="628" unicode="Y" /><glyph d="M376 0H250V259L9 634V650H142L317 362L495 650H619V634L376 259ZM417 707Q385 707 363 726.5Q341 746 341 779Q341 811 363 831Q385 851 417 851Q449 851 470.5 831Q492 811 492 779Q492 746 470.5 726.5Q449 707 417 707ZM215 707Q183 707 161 726.5Q139 746 139 779Q139 811 161 831Q183 851 215 851Q247 851 268.5 831Q290 811 290 779Q290 746 268.5 726.5Q247 707 215 707Z" glyph-name="Ydieresis" horiz-adv-x="628" unicode="&#376;" /><glyph d="M548 0H58V77L387 539V541H75V650H557V577L229 111V109H548Z" glyph-name="Z" horiz-adv-x="602" unicode="Z" /><glyph d="M281 -15Q237 -15 195 2Q153 19 120.5 51Q88 83 68 130Q48 177 48 238V256Q48 311 65.5 358Q83 405 114 440Q145 475 189 495Q233 515 285 515Q337 515 377 496Q417 477 450 442H452L472 500H560V0H466L447 60H445Q417 21 374.5 3Q332 -15 281 -15ZM304 84Q339 84 364.5 97Q390 110 407 132.5Q424 155 432.5 185Q441 215 441 250Q441 285 432.5 315.5Q424 346 407 368.5Q390 391 364.5 404Q339 417 304 417Q269 417 243 404Q217 391 200 368.5Q183 346 175 315.5Q167 285 167 250Q167 215 175 185Q183 155 200 132.5Q217 110 243 97Q269 84 304 84Z" glyph-name="a" horiz-adv-x="631" unicode="a" /><glyph d="M281 -15Q237 -15 195 2Q153 19 120.5 51Q88 83 68 130Q48 177 48 238V256Q48 311 65.5 358Q83 405 114 440Q145 475 189 495Q233 515 285 515Q337 515 377 496Q417 477 450 442H452L472 500H560V0H466L447 60H445Q417 21 374.5 3Q332 -15 281 -15ZM304 84Q339 84 364.5 97Q390 110 407 132.5Q424 155 432.5 185Q441 215 441 250Q441 285 432.5 315.5Q424 346 407 368.5Q390 391 364.5 404Q339 417 304 417Q269 417 243 404Q217 391 200 368.5Q183 346 175 315.5Q167 285 167 250Q167 215 175 185Q183 155 200 132.5Q217 110 243 97Q269 84 304 84ZM419 650 160 538 124 607 363 753Z" glyph-name="aacute" horiz-adv-x="631" unicode="&#225;" /><glyph d="M281 -15Q237 -15 195 2Q153 19 120.5 51Q88 83 68 130Q48 177 48 238V256Q48 311 65.5 358Q83 405 114 440Q145 475 189 495Q233 515 285 515Q337 515 377 496Q417 477 450 442H452L472 500H560V0H466L447 60H445Q417 21 374.5 3Q332 -15 281 -15ZM304 84Q339 84 364.5 97Q390 110 407 132.5Q424 155 432.5 185Q441 215 441 250Q441 285 432.5 315.5Q424 346 407 368.5Q390 391 364.5 404Q339 417 304 417Q269 417 243 404Q217 391 200 368.5Q183 346 175 315.5Q167 285 167 250Q167 215 175 185Q183 155 200 132.5Q217 110 243 97Q269 84 304 84ZM293 615 163 539 123 605 281 727H305L464 605L424 539Z" glyph-name="acircumflex" horiz-adv-x="631" unicode="&#226;" /><glyph d="M397 650 138 538 102 607 341 753Z" glyph-name="acute" horiz-adv-x="500" unicode="&#180;" /><glyph d="M281 -15Q237 -15 195 2Q153 19 120.5 51Q88 83 68 130Q48 177 48 238V256Q48 311 65.5 358Q83 405 114 440Q145 475 189 495Q233 515 285 515Q337 515 377 496Q417 477 450 442H452L472 500H560V0H466L447 60H445Q417 21 374.5 3Q332 -15 281 -15ZM304 84Q339 84 364.5 97Q390 110 407 132.5Q424 155 432.5 185Q441 215 441 250Q441 285 432.5 315.5Q424 346 407 368.5Q390 391 364.5 404Q339 417 304 417Q269 417 243 404Q217 391 200 368.5Q183 346 175 315.5Q167 285 167 250Q167 215 175 185Q183 155 200 132.5Q217 110 243 97Q269 84 304 84ZM395 557Q363 557 341 576.5Q319 596 319 629Q319 661 341 681Q363 701 395 701Q427 701 448.5 681Q470 661 470 629Q470 596 448.5 576.5Q427 557 395 557ZM193 557Q161 557 139 576.5Q117 596 117 629Q117 661 139 681Q161 701 193 701Q225 701 246.5 681Q268 661 268 629Q268 596 246.5 576.5Q225 557 193 557Z" glyph-name="adieresis" horiz-adv-x="631" unicode="&#228;" /><glyph d="M230 -16Q189 -16 154.5 -4.5Q120 7 95 28Q70 49 56 78Q42 107 42 142V150Q42 197 61.5 228Q81 259 112 278Q143 297 182.5 305Q222 313 261 313Q282 313 307 310Q332 307 355 302V320Q355 342 352.5 361Q350 380 341 394Q332 408 314.5 416Q297 424 267 424Q236 424 209 409Q182 394 180 353H71V365Q74 403 91 431.5Q108 460 134.5 478.5Q161 497 195 506Q229 515 265 515Q316 515 359 501.5Q402 488 432 456L440 447Q466 479 506 497Q546 515 598 515Q650 515 692 497.5Q734 480 764 447Q794 414 810 367.5Q826 321 826 263V235Q826 221 825 212H492Q496 149 524.5 116Q553 83 612 83Q652 83 674.5 97Q697 111 709 145H822Q804 64 745.5 24Q687 -16 606 -16Q544 -16 498 7Q452 30 422 72Q391 35 343.5 9.5Q296 -16 230 -16ZM253 86Q273 86 292.5 93.5Q312 101 327.5 114Q343 127 352.5 144Q362 161 363 180Q361 187 360.5 194Q360 201 359 209Q340 216 314 220.5Q288 225 262 225Q244 225 226.5 221Q209 217 195 209Q181 201 172.5 187.5Q164 174 164 155Q164 118 188 102Q212 86 253 86ZM711 307Q710 330 704 351Q698 372 685.5 387.5Q673 403 654 412.5Q635 422 607 422Q553 422 528.5 389Q504 356 497 307Z" glyph-name="ae" horiz-adv-x="870" unicode="&#230;" /><glyph d="M281 -15Q237 -15 195 2Q153 19 120.5 51Q88 83 68 130Q48 177 48 238V256Q48 311 65.5 358Q83 405 114 440Q145 475 189 495Q233 515 285 515Q337 515 377 496Q417 477 450 442H452L472 500H560V0H466L447 60H445Q417 21 374.5 3Q332 -15 281 -15ZM304 84Q339 84 364.5 97Q390 110 407 132.5Q424 155 432.5 185Q441 215 441 250Q441 285 432.5 315.5Q424 346 407 368.5Q390 391 364.5 404Q339 417 304 417Q269 417 243 404Q217 391 200 368.5Q183 346 175 315.5Q167 285 167 250Q167 215 175 185Q183 155 200 132.5Q217 110 243 97Q269 84 304 84ZM414 607 378 538 119 650 175 753Z" glyph-name="agrave" horiz-adv-x="631" unicode="&#224;" /><glyph d="M316 -15Q269 -15 224.5 -5Q180 5 146 27Q112 49 91.5 83.5Q71 118 71 166V181Q71 212 82 240.5Q93 269 111 293Q129 317 152 336.5Q175 356 199 369Q180 400 162 440.5Q144 481 144 517V530Q144 561 154.5 590.5Q165 620 186.5 643Q208 666 241 680Q274 694 319 694Q364 694 395.5 680.5Q427 667 446.5 645.5Q466 624 474.5 597.5Q483 571 483 546V535Q483 502 471 473.5Q459 445 439.5 421.5Q420 398 395.5 378.5Q371 359 346 343Q371 310 401.5 276.5Q432 243 464 211Q472 202 483.5 191Q495 180 503 172Q512 188 516 207.5Q520 227 520 246Q520 279 508.5 309Q497 339 482 362V379H587Q610 345 619 305.5Q628 266 628 242Q628 206 617 173Q606 140 580 105Q610 81 638.5 59.5Q667 38 690 22V6L569 -13Q555 -5 535 6.5Q515 18 495 33Q460 12 417 -1.5Q374 -15 316 -15ZM322 79Q348 79 374.5 86Q401 93 419 103Q394 126 368 154Q339 185 308 219.5Q277 254 250 290Q217 273 201 245.5Q185 218 185 183Q185 157 196.5 137.5Q208 118 226.5 105Q245 92 270 85.5Q295 79 322 79ZM298 416Q334 437 359 466.5Q384 496 384 541Q384 565 368 586.5Q352 608 323 608Q292 608 272 589Q252 570 252 535Q252 509 265 475.5Q278 442 298 416Z" glyph-name="ampersand" horiz-adv-x="715" unicode="&amp;" /><glyph d="M80 341 72 340V444Q103 462 137.5 470Q172 478 210 478Q240 478 269.5 473.5Q299 469 329 464Q359 459 388.5 454.5Q418 450 447 450Q483 450 516.5 457.5Q550 465 584 484L591 485V381Q527 343 447 343Q417 343 387.5 347Q358 351 328 356.5Q298 362 268.5 366Q239 370 209 370Q177 370 144.5 364Q112 358 80 341ZM80 143H72V246Q103 264 137.5 272Q172 280 210 280Q240 280 269.5 275.5Q299 271 329 266Q359 261 388.5 256.5Q418 252 447 252Q483 252 516.5 259.5Q550 267 584 286L591 287V184Q558 164 522.5 155Q487 146 447 146Q417 146 387.5 150Q358 154 328 159.5Q298 165 268.5 169Q239 173 209 173Q177 173 144.5 166.5Q112 160 80 143Z" glyph-name="approxequal" horiz-adv-x="663" unicode="&#8776;" /><glyph d="M281 -15Q237 -15 195 2Q153 19 120.5 51Q88 83 68 130Q48 177 48 238V256Q48 311 65.5 358Q83 405 114 440Q145 475 189 495Q207 503 226 507L225 508Q211 522 202.5 540.5Q194 559 194 580Q194 601 202.5 619.5Q211 638 225.5 652Q240 666 259.5 674Q279 682 301 682Q323 682 342.5 674Q362 666 376.5 652Q391 638 399.5 619.5Q408 601 408 580Q408 559 399.5 540.5Q391 522 376 508L367 500Q372 498 377 496Q417 477 450 442H452L472 500H560V0H466L447 60H445Q417 21 374.5 3Q332 -15 281 -15ZM304 84Q339 84 364.5 97Q390 110 407 132.5Q424 155 432.5 185Q441 215 441 250Q441 285 432.5 315.5Q424 346 407 368.5Q390 391 364.5 404Q339 417 304 417Q269 417 243 404Q217 391 200 368.5Q183 346 175 315.5Q167 285 167 250Q167 215 175 185Q183 155 200 132.5Q217 110 243 97Q269 84 304 84ZM301 538Q318 538 330.5 550.5Q343 563 343 580Q343 598 331 610Q319 622 301 622Q284 622 271.5 609.5Q259 597 259 580Q259 563 271.5 550.5Q284 538 301 538Z" glyph-name="aring" horiz-adv-x="631" unicode="&#229;" /><glyph d="M137 376H25L184 650H280L439 376H324L230 542Z" glyph-name="asciicircum" horiz-adv-x="464" unicode="^" /><glyph d="M64 222V318Q96 338 129 347.5Q162 357 191 357Q220 357 246 350.5Q272 344 298 336.5Q324 329 350.5 322.5Q377 316 405 316Q435 316 467 326Q499 336 531 358V262Q499 242 467.5 233Q436 224 406 224Q378 224 351.5 230Q325 236 299 243Q273 250 246.5 256Q220 262 192 262Q162 262 129 252Q96 242 64 222Z" glyph-name="asciitilde" horiz-adv-x="595" unicode="~" /><glyph d="M211 501 166 411 87 466 160 536 61 551 91 642 181 596 165 695H258L242 596L331 642L361 551L262 537L332 467L257 411Z" glyph-name="asterisk" horiz-adv-x="422" unicode="*" /><glyph d="M418 -71Q339 -71 272 -46.5Q205 -22 156 22.5Q107 67 79 129.5Q51 192 51 269Q51 338 78 399Q105 460 153 505.5Q201 551 266 577.5Q331 604 407 604Q481 604 541.5 581Q602 558 645.5 518.5Q689 479 713 425.5Q737 372 737 312Q737 265 725 227Q713 189 691 162Q669 135 638.5 120Q608 105 571 105Q534 105 510 120.5Q486 136 475 162Q455 133 422.5 119.5Q390 106 352 106Q326 106 302 116Q278 126 260 144Q242 162 231 187.5Q220 213 220 243Q220 284 234 319.5Q248 355 272 381.5Q296 408 329 423.5Q362 439 399 439Q440 439 461.5 427.5Q483 416 496 394H497L516 431H571L542 243Q537 210 547.5 191Q558 172 579 172Q611 172 636.5 202.5Q662 233 662 301Q662 353 642 395Q622 437 587.5 467Q553 497 506 513Q459 529 404 529Q347 529 298 508.5Q249 488 213 453Q177 418 156.5 370.5Q136 323 136 269Q136 207 157.5 157.5Q179 108 216.5 73.5Q254 39 305.5 20.5Q357 2 418 2Q468 2 515.5 12Q563 22 605 43H620V-28Q574 -50 528.5 -60.5Q483 -71 418 -71ZM375 179Q399 179 416 189.5Q433 200 444 217Q455 234 460 256.5Q465 279 465 303Q465 334 451 352Q437 370 405 370Q387 370 370 361Q353 352 340 336.5Q327 321 319.5 300Q312 279 312 255Q312 222 329 200.5Q346 179 375 179Z" glyph-name="at" horiz-adv-x="776" unicode="@" /><glyph d="M281 -15Q237 -15 195 2Q153 19 120.5 51Q88 83 68 130Q48 177 48 238V256Q48 311 65.5 358Q83 405 114 440Q145 475 189 495Q233 515 285 515Q337 515 377 496Q417 477 450 442H452L472 500H560V0H466L447 60H445Q417 21 374.5 3Q332 -15 281 -15ZM304 84Q339 84 364.5 97Q390 110 407 132.5Q424 155 432.5 185Q441 215 441 250Q441 285 432.5 315.5Q424 346 407 368.5Q390 391 364.5 404Q339 417 304 417Q269 417 243 404Q217 391 200 368.5Q183 346 175 315.5Q167 285 167 250Q167 215 175 185Q183 155 200 132.5Q217 110 243 97Q269 84 304 84ZM208 555H124Q124 582 131.5 608Q139 634 153 654Q167 674 189 686.5Q211 699 239 699Q262 699 277.5 692Q293 685 306.5 677Q320 669 333 662Q346 655 363 655Q369 655 376 656Q383 657 388.5 661.5Q394 666 398 675Q402 684 402 700H486Q486 673 478.5 647Q471 621 457 601Q443 581 421.5 568.5Q400 556 371 556Q349 556 333 563Q317 570 303.5 578Q290 586 276.5 593Q263 600 245 600Q240 600 233.5 599Q227 598 221.5 593.5Q216 589 212 580Q208 571 208 555Z" glyph-name="atilde" horiz-adv-x="631" unicode="&#227;" /><glyph d="M343 -15Q284 -15 242 6.5Q200 28 178 55H176L157 0H71V700H193V453H195Q224 486 263.5 501Q303 516 352 516Q396 516 438 498.5Q480 481 513 448.5Q546 416 566 369Q586 322 586 263V244Q586 188 568.5 140.5Q551 93 519 58.5Q487 24 442 4.5Q397 -15 343 -15ZM327 83Q362 83 388 96Q414 109 431 131.5Q448 154 456 184.5Q464 215 464 250Q464 285 456 315Q448 345 431 367.5Q414 390 388 403Q362 416 327 416Q292 416 266.5 403Q241 390 224 367.5Q207 345 198.5 315Q190 285 190 250Q190 215 198.5 184.5Q207 154 224 131.5Q241 109 266.5 96Q292 83 327 83Z" glyph-name="b" horiz-adv-x="634" unicode="b" /><glyph d="M361 -124 25 682V696H145L481 -110V-124Z" glyph-name="backslash" horiz-adv-x="506" unicode="\" /><glyph d="M321 -126H211V773H321Z" glyph-name="bar" horiz-adv-x="532" unicode="|" /><glyph d="M322 -124H277Q201 -124 169.5 -88Q138 -52 138 8V137Q138 194 117.5 227Q97 260 59 277V297Q97 314 117.5 346Q138 378 138 435V564Q138 624 169.5 660Q201 696 277 696H322V599H283Q260 599 256 580.5Q252 562 252 537V419Q252 376 244 351Q236 326 224 313Q212 300 199 295.5Q186 291 176 288V286Q186 283 199 278.5Q212 274 224 260.5Q236 247 244 221.5Q252 196 252 153V35Q252 10 256 -8.5Q260 -27 283 -27H322Z" glyph-name="braceleft" horiz-adv-x="402" unicode="{" /><glyph d="M80 -124V-27H119Q142 -27 146 -8.5Q150 10 150 35V153Q150 196 158 221.5Q166 247 178 260.5Q190 274 203 278.5Q216 283 226 286V288Q216 291 203 295.5Q190 300 178 313Q166 326 158 351Q150 376 150 419V537Q150 562 146 580.5Q142 599 119 599H80V696H125Q201 696 232.5 660Q264 624 264 564V435Q264 378 284.5 346Q305 314 343 297V277Q305 260 284.5 227Q264 194 264 137V8Q264 -52 232.5 -88Q201 -124 125 -124Z" glyph-name="braceright" horiz-adv-x="402" unicode="}" /><glyph d="M298 -124H80V696H298V599H194V-27H298Z" glyph-name="bracketleft" horiz-adv-x="363" unicode="[" /><glyph d="M65 696H283V-124H65V-27H169V599H65Z" glyph-name="bracketright" horiz-adv-x="363" unicode="]" /><glyph d="M249 551Q177 551 130 590.5Q83 630 73 703H188Q191 675 207 658.5Q223 642 250 642Q278 642 294 658.5Q310 675 313 703H427Q417 630 369 590.5Q321 551 249 551Z" glyph-name="breve" horiz-adv-x="500" unicode="&#728;" /><glyph d="M240 182Q189 182 154.5 209Q120 236 120 287V294Q120 347 154.5 374Q189 401 240 401Q289 401 324.5 374Q360 347 360 294V287Q360 262 350.5 242Q341 222 324.5 209Q308 196 286 189Q264 182 240 182Z" glyph-name="bullet" horiz-adv-x="480" unicode="&#8226;" /><glyph d="M298 -16Q244 -16 197.5 3.5Q151 23 117.5 57Q84 91 64.5 138.5Q45 186 45 241V257Q45 312 63.5 359Q82 406 115 440.5Q148 475 194 495Q240 515 295 515Q341 515 381 503Q421 491 452 467Q483 443 502.5 408Q522 373 528 326V316H419Q408 366 379.5 390.5Q351 415 300 415Q267 415 242 402Q217 389 200 366.5Q183 344 174.5 314Q166 284 166 249Q166 214 174.5 184Q183 154 200 132Q217 110 242.5 97.5Q268 85 302 85Q351 85 381 108Q411 131 419 183H528V173Q523 127 503 91.5Q483 56 452.5 32Q422 8 382 -4Q342 -16 298 -16Z" glyph-name="c" horiz-adv-x="568" unicode="c" /><glyph d="M262 544H238L79 666L119 732L250 656L380 732L420 666Z" glyph-name="caron" horiz-adv-x="500" unicode="&#711;" /><glyph d="M257 -190Q231 -190 208.5 -186.5Q186 -183 169 -177V-110H179Q199 -118 213.5 -121.5Q228 -125 240 -125Q264 -125 278.5 -117.5Q293 -110 293 -95Q293 -84 282.5 -77.5Q272 -71 247 -71L243 -64L264 -14Q229 -10 197 3Q151 23 117.5 57Q84 91 64.5 138.5Q45 186 45 241V257Q45 312 63.5 359Q82 406 115 440.5Q148 475 194 495Q240 515 295 515Q341 515 381 503Q421 491 452 467Q483 443 502.5 408Q522 373 528 326V316H419Q408 366 379.5 390.5Q351 415 300 415Q267 415 242 402Q217 389 200 366.5Q183 344 174.5 314Q166 284 166 249Q166 214 174.5 184Q183 154 200 132Q217 110 242.5 97.5Q268 85 302 85Q351 85 381 108Q411 131 419 183H528V173Q523 127 503 91.5Q483 56 452.5 32Q422 8 382 -4Q360 -10 337 -13L327 -46Q352 -50 368 -66Q384 -82 384 -102Q384 -125 373 -142Q362 -159 344 -169.5Q326 -180 303 -185Q280 -190 257 -190Z" glyph-name="ccedilla" horiz-adv-x="568" unicode="&#231;" /><glyph d="M215 -190Q189 -190 166.5 -186.5Q144 -183 127 -177V-110H137Q157 -118 171.5 -121.5Q186 -125 198 -125Q222 -125 236.5 -117.5Q251 -110 251 -95Q251 -84 240.5 -77.5Q230 -71 205 -71L201 -64L228 0H299L285 -46Q310 -50 326 -66Q342 -82 342 -102Q342 -125 331 -142Q320 -159 302 -169.5Q284 -180 261 -185Q238 -190 215 -190Z" glyph-name="cedilla" horiz-adv-x="500" unicode="&#184;" /><glyph d="M334 -126H261V-13Q227 -9 197 3Q151 23 117.5 57Q84 91 64.5 138.5Q45 186 45 241V257Q45 312 63.5 359Q82 406 115 440.5Q148 475 194 495Q225 508 261 513V635H334V513Q358 510 381 503Q421 491 452 467Q483 443 502.5 408Q522 373 528 326V316H419Q408 366 379 390Q361 406 334 412V87Q361 93 381 108Q411 131 419 183H528V173Q523 127 503 91.5Q483 56 452.5 32Q422 8 382 -4Q359 -11 334 -14ZM242 402Q217 389 200 366.5Q183 344 174.5 314Q166 284 166 249Q166 214 174.5 184Q183 154 200 132Q217 110 242 97Q251 93 261 90V409Q251 406 242 402Z" glyph-name="cent" horiz-adv-x="561" unicode="&#162;" /><glyph d="M249 615 119 539 79 605 237 727H261L420 605L380 539Z" glyph-name="circumflex" horiz-adv-x="500" unicode="&#710;" /><glyph d="M162 -7Q128 -7 104.5 11Q81 29 81 64V69Q81 104 104.5 122.5Q128 141 162 141Q195 141 219 122.5Q243 104 243 69V64Q243 29 219 11Q195 -7 162 -7ZM162 315Q128 315 104.5 333Q81 351 81 386V391Q81 426 104.5 444.5Q128 463 162 463Q195 463 219 444.5Q243 426 243 391V386Q243 351 219 333Q195 315 162 315Z" glyph-name="colon" horiz-adv-x="324" unicode=":" /><glyph d="M146 -127H68L114 142H249V128Z" glyph-name="comma" horiz-adv-x="324" unicode="," /><glyph d="M388 -11Q318 -11 255.5 15.5Q193 42 146 88Q99 134 72 195.5Q45 257 45 327Q45 397 72 458.5Q99 520 146 566Q193 612 255.5 638.5Q318 665 388 665Q459 665 521 638.5Q583 612 630 566Q677 520 704 458.5Q731 397 731 327Q731 257 704 195.5Q677 134 630 88Q583 42 521 15.5Q459 -11 388 -11ZM388 60Q442 60 489.5 81Q537 102 572.5 138.5Q608 175 628.5 223.5Q649 272 649 327Q649 382 628.5 430.5Q608 479 572.5 515Q537 551 489.5 572Q442 593 388 593Q335 593 287.5 572Q240 551 204.5 515Q169 479 148.5 430.5Q128 382 128 327Q128 272 148.5 223.5Q169 175 204.5 138.5Q240 102 287.5 81Q335 60 388 60ZM389 140Q354 140 322.5 153Q291 166 267.5 189.5Q244 213 230 245.5Q216 278 216 318V331Q216 371 230 403.5Q244 436 267.5 459.5Q291 483 322.5 496Q354 509 389 509Q452 509 495.5 474.5Q539 440 550 374V367H471Q463 399 445.5 416.5Q428 434 391 434Q347 434 323.5 402.5Q300 371 300 324Q300 278 323.5 246Q347 214 391 214Q428 214 446 231.5Q464 249 472 281H550V273Q547 243 533 218Q519 193 497.5 176Q476 159 448 149.5Q420 140 389 140Z" glyph-name="copyright" horiz-adv-x="776" unicode="&#169;" /><glyph d="M283 -16Q239 -16 196.5 1.5Q154 19 121 51.5Q88 84 68 131Q48 178 48 237V256Q48 312 66 359.5Q84 407 116 441.5Q148 476 193 495.5Q238 515 293 515Q350 515 384 499.5Q418 484 440 460H442V700H563V0H470L453 56H451Q418 14 375 -1Q332 -16 283 -16ZM307 84Q342 84 367.5 97Q393 110 410 132.5Q427 155 435.5 185Q444 215 444 250Q444 285 435.5 315.5Q427 346 410 368.5Q393 391 367.5 404Q342 417 307 417Q272 417 246 404Q220 391 203 368.5Q186 346 178 315.5Q170 285 170 250Q170 215 178 185Q186 155 203 132.5Q220 110 246 97Q272 84 307 84Z" glyph-name="d" horiz-adv-x="634" unicode="d" /><glyph d="M252 -78H154V348H45V436H154V700H252V436H363V348H252Z" glyph-name="dagger" horiz-adv-x="408" unicode="&#8224;" /><glyph d="M363 348H252V236H363V148H252V-78H154V148H45V236H154V348H45V436H154V700H252V436H363Z" glyph-name="daggerdbl" horiz-adv-x="408" unicode="&#8225;" /><glyph d="M227 336Q193 336 162 346.5Q131 357 107.5 377Q84 397 70 426Q56 455 56 492V503Q56 540 70 569Q84 598 107.5 618.5Q131 639 162 649.5Q193 660 227 660Q260 660 291 649.5Q322 639 346 618.5Q370 598 384.5 569Q399 540 399 503V492Q399 455 384.5 426Q370 397 346 377Q322 357 291 346.5Q260 336 227 336ZM227 422Q256 422 279.5 440.5Q303 459 303 492V503Q303 535 279.5 554.5Q256 574 227 574Q197 574 174.5 554.5Q152 535 152 503V492Q152 459 174.5 440.5Q197 422 227 422Z" glyph-name="degree" horiz-adv-x="455" unicode="&#176;" /><glyph d="M351 557Q319 557 297 576.5Q275 596 275 629Q275 661 297 681Q319 701 351 701Q383 701 404.5 681Q426 661 426 629Q426 596 404.5 576.5Q383 557 351 557ZM149 557Q117 557 95 576.5Q73 596 73 629Q73 661 95 681Q117 701 149 701Q181 701 202.5 681Q224 661 224 629Q224 596 202.5 576.5Q181 557 149 557Z" glyph-name="dieresis" horiz-adv-x="500" unicode="&#168;" /><glyph d="M571 275H52V382H571ZM311 78Q279 78 256 97.5Q233 117 233 151Q233 184 256 204.5Q279 225 311 225Q343 225 366.5 205Q390 185 390 151Q390 118 366.5 98Q343 78 311 78ZM311 431Q279 431 256 451Q233 471 233 505Q233 538 256 558.5Q279 579 311 579Q343 579 366 558.5Q389 538 389 505Q389 471 366 451Q343 431 311 431Z" glyph-name="divide" horiz-adv-x="623" unicode="&#247;" /><glyph d="M303 641Q319 638 335 635Q373 626 403 606.5Q433 587 453 555Q473 523 477 477V468H367Q365 483 358.5 498Q352 513 339.5 524.5Q327 536 306 543Q305 543 303 544V381Q305 381 306 380Q346 370 385 355.5Q424 341 451 314Q471 293 483 263.5Q495 234 495 204V194Q495 144 475.5 108Q456 72 424.5 49.5Q393 27 352 16Q330 11 308 8V-105H228V8Q203 11 179 17Q138 29 106.5 52.5Q75 76 55.5 110.5Q36 145 32 190V200H146Q151 154 184 129Q202 115 228 108V288Q226 288 223 289Q184 299 146.5 313Q109 327 83 352Q63 373 51 401Q39 429 39 460V469Q39 514 58.5 547Q78 580 108.5 601.5Q139 623 178 633Q200 639 223 642V731H303ZM357 238Q338 255 308 266V107Q335 112 352 127Q379 150 379 188Q379 201 374 214.5Q369 228 357 238ZM178 428Q194 413 223 403V547Q201 542 185 532Q156 514 156 479Q156 462 162.5 449.5Q169 437 178 428Z" glyph-name="dollar" horiz-adv-x="539" unicode="$" /><glyph d="M250 556Q219 556 196.5 575Q174 594 174 628Q174 660 196 679Q218 698 250 698Q281 698 303.5 679Q326 660 326 628Q326 595 303.5 575.5Q281 556 250 556Z" glyph-name="dotaccent" horiz-adv-x="500" unicode="&#729;" /><glyph d="M188 0H66V500H188Z" glyph-name="dotlessi" horiz-adv-x="254" unicode="&#305;" /><glyph d="M295 -16Q243 -16 197.5 3Q152 22 118 55.5Q84 89 64.5 136.5Q45 184 45 241V257Q45 314 64.5 361.5Q84 409 118 443Q152 477 197 496Q242 515 294 515Q346 515 389.5 497Q433 479 465 446Q497 413 515 366.5Q533 320 533 263Q533 254 532.5 245Q532 236 532 229Q532 220 531 212H169Q177 155 209 119Q241 83 299 83Q341 83 367.5 97.5Q394 112 409 145H527Q507 65 445 24.5Q383 -16 295 -16ZM409 307Q406 353 379 384.5Q352 416 298 416Q242 416 212.5 386Q183 356 172 307Z" glyph-name="e" horiz-adv-x="578" unicode="e" /><glyph d="M295 -16Q243 -16 197.5 3Q152 22 118 55.5Q84 89 64.5 136.5Q45 184 45 241V257Q45 314 64.5 361.5Q84 409 118 443Q152 477 197 496Q242 515 294 515Q346 515 389.5 497Q433 479 465 446Q497 413 515 366.5Q533 320 533 263Q533 254 532.5 245Q532 236 532 229Q532 220 531 212H169Q177 155 209 119Q241 83 299 83Q341 83 367.5 97.5Q394 112 409 145H527Q507 65 445 24.5Q383 -16 295 -16ZM409 307Q406 353 379 384.5Q352 416 298 416Q242 416 212.5 386Q183 356 172 307ZM438 650 179 538 143 607 382 753Z" glyph-name="eacute" horiz-adv-x="578" unicode="&#233;" /><glyph d="M295 -16Q243 -16 197.5 3Q152 22 118 55.5Q84 89 64.5 136.5Q45 184 45 241V257Q45 314 64.5 361.5Q84 409 118 443Q152 477 197 496Q242 515 294 515Q346 515 389.5 497Q433 479 465 446Q497 413 515 366.5Q533 320 533 263Q533 254 532.5 245Q532 236 532 229Q532 220 531 212H169Q177 155 209 119Q241 83 299 83Q341 83 367.5 97.5Q394 112 409 145H527Q507 65 445 24.5Q383 -16 295 -16ZM409 307Q406 353 379 384.5Q352 416 298 416Q242 416 212.5 386Q183 356 172 307ZM298 615 168 539 128 605 286 727H310L469 605L429 539Z" glyph-name="ecircumflex" horiz-adv-x="578" unicode="&#234;" /><glyph d="M295 -16Q243 -16 197.5 3Q152 22 118 55.5Q84 89 64.5 136.5Q45 184 45 241V257Q45 314 64.5 361.5Q84 409 118 443Q152 477 197 496Q242 515 294 515Q346 515 389.5 497Q433 479 465 446Q497 413 515 366.5Q533 320 533 263Q533 254 532.5 245Q532 236 532 229Q532 220 531 212H169Q177 155 209 119Q241 83 299 83Q341 83 367.5 97.5Q394 112 409 145H527Q507 65 445 24.5Q383 -16 295 -16ZM409 307Q406 353 379 384.5Q352 416 298 416Q242 416 212.5 386Q183 356 172 307ZM399 557Q367 557 345 576.5Q323 596 323 629Q323 661 345 681Q367 701 399 701Q431 701 452.5 681Q474 661 474 629Q474 596 452.5 576.5Q431 557 399 557ZM197 557Q165 557 143 576.5Q121 596 121 629Q121 661 143 681Q165 701 197 701Q229 701 250.5 681Q272 661 272 629Q272 596 250.5 576.5Q229 557 197 557Z" glyph-name="edieresis" horiz-adv-x="578" unicode="&#235;" /><glyph d="M295 -16Q243 -16 197.5 3Q152 22 118 55.5Q84 89 64.5 136.5Q45 184 45 241V257Q45 314 64.5 361.5Q84 409 118 443Q152 477 197 496Q242 515 294 515Q346 515 389.5 497Q433 479 465 446Q497 413 515 366.5Q533 320 533 263Q533 254 532.5 245Q532 236 532 229Q532 220 531 212H169Q177 155 209 119Q241 83 299 83Q341 83 367.5 97.5Q394 112 409 145H527Q507 65 445 24.5Q383 -16 295 -16ZM409 307Q406 353 379 384.5Q352 416 298 416Q242 416 212.5 386Q183 356 172 307ZM433 607 397 538 138 650 194 753Z" glyph-name="egrave" horiz-adv-x="578" unicode="&#232;" /><glyph d="M286 -15Q235 -15 191.5 -2.5Q148 10 115.5 34Q83 58 64.5 94Q46 130 46 177V185Q46 236 73 275Q100 314 140 334V336Q127 344 114 357.5Q101 371 91 388.5Q81 406 75 426.5Q69 447 69 468V476Q69 521 85.5 556.5Q102 592 131.5 616Q161 640 200.5 652.5Q240 665 286 665Q333 665 373 652.5Q413 640 442.5 616Q472 592 488.5 556.5Q505 521 505 476V468Q505 447 499 426.5Q493 406 483 388.5Q473 371 460 357.5Q447 344 434 336V334Q474 314 501 275Q528 236 528 185V177Q528 130 509.5 94Q491 58 458.5 34Q426 10 381.5 -2.5Q337 -15 286 -15ZM287 83Q346 83 376 113Q406 143 406 181Q406 229 373 255.5Q340 282 287 282Q234 282 201 255.5Q168 229 168 181Q168 142 198 112.5Q228 83 287 83ZM287 379Q310 379 328 387Q346 395 358.5 408.5Q371 422 377.5 439.5Q384 457 384 475Q384 518 357.5 546Q331 574 287 574Q243 574 216.5 546Q190 518 190 475Q190 457 196.5 440Q203 423 215.5 409.5Q228 396 246 387.5Q264 379 287 379Z" glyph-name="eight" horiz-adv-x="574" unicode="8" /><glyph d="M162 -7Q128 -7 104.5 11Q81 29 81 64V69Q81 104 104.5 122.5Q128 141 162 141Q195 141 219 122.5Q243 104 243 69V64Q243 29 219 11Q195 -7 162 -7ZM486 -7Q452 -7 428.5 11Q405 29 405 64V69Q405 104 428.5 122.5Q452 141 486 141Q519 141 543 122.5Q567 104 567 69V64Q567 29 543 11Q519 -7 486 -7ZM810 -7Q776 -7 752.5 11Q729 29 729 64V69Q729 104 752.5 122.5Q776 141 810 141Q843 141 867 122.5Q891 104 891 69V64Q891 29 867 11Q843 -7 810 -7Z" glyph-name="ellipsis" horiz-adv-x="972" unicode="&#8230;" /><glyph d="M689 244H64V338H689Z" glyph-name="emdash" horiz-adv-x="753" unicode="&#8212;" /><glyph d="M529 244H64V338H529Z" glyph-name="endash" horiz-adv-x="593" unicode="&#8211;" /><glyph d="M590 372H72V479H590ZM590 176H72V282H590Z" glyph-name="equal" horiz-adv-x="662" unicode="=" /><glyph d="M216 213H110L97 634V650H230V634ZM162 -7Q128 -7 104.5 11Q81 29 81 64V69Q81 104 104.5 122.5Q128 141 162 141Q195 141 219 122.5Q243 104 243 69V64Q243 29 219 11Q195 -7 162 -7Z" glyph-name="exclam" horiz-adv-x="324" unicode="!" /><glyph d="M108 296H214L227 -125V-141H94V-125ZM162 516Q196 516 219.5 498Q243 480 243 445V440Q243 405 219.5 386.5Q196 368 162 368Q129 368 105 386.5Q81 405 81 440V445Q81 480 105 498Q129 516 162 516Z" glyph-name="exclamdown" horiz-adv-x="324" unicode="&#161;" /><glyph d="M229 0H107V406H34V463L107 495V534Q107 622 152.5 668.5Q198 715 280 715Q306 715 329.5 712Q353 709 379 703V608H362Q345 613 325.5 615Q306 617 292 617Q257 617 243 602Q229 587 229 548V500H377V406H229Z" glyph-name="f" horiz-adv-x="405" unicode="f" /><glyph d="M583 0H461V500H583ZM522 571Q488 571 464.5 589Q441 607 441 640V645Q441 679 464.5 697Q488 715 522 715Q555 715 579 697Q603 679 603 645V640Q603 607 579 589Q555 571 522 571ZM229 0H107V406H34V463L107 495V534Q107 622 152.5 668.5Q198 715 280 715Q306 715 324.5 712Q343 709 369 703V608H352Q335 613 320.5 615Q306 617 292 617Q257 617 243 602Q229 587 229 548V500H367V406H229Z" glyph-name="fi" horiz-adv-x="649" unicode="&#64257;" /><glyph d="M246 -15Q193 -15 139.5 -6.5Q86 2 42 25V148H59Q100 124 142.5 109.5Q185 95 238 95Q271 95 295 104Q319 113 335.5 128Q352 143 360 162Q368 181 368 201Q368 230 355.5 249.5Q343 269 322 280.5Q301 292 273.5 297Q246 302 216 302Q183 302 147 297.5Q111 293 86 286L71 299L107 650H465V545H216L201 405Q262 411 315.5 400.5Q369 390 408.5 364.5Q448 339 470.5 299Q493 259 493 206V197Q493 146 472.5 106.5Q452 67 418 40Q384 13 339 -1Q294 -15 246 -15Z" glyph-name="five" horiz-adv-x="539" unicode="5" /><glyph d="M617 -5Q542 -5 501.5 35Q461 75 461 162V700H583V170Q583 125 607.5 109.5Q632 94 669 99H681V2Q664 -2 650.5 -3.5Q637 -5 617 -5ZM229 0H107V406H34V463L107 495V534Q107 622 152.5 668.5Q198 715 280 715Q306 715 324.5 712Q343 709 369 703V608H352Q335 613 320.5 615Q306 617 292 617Q257 617 243 602Q229 587 229 548V500H367V406H229Z" glyph-name="fl" horiz-adv-x="703" unicode="&#64258;" /><glyph d="M146 -90H21L63 307H-10L-1 401H73L82 485Q91 573 140 619Q189 665 273 665Q296 665 321 662Q346 659 371 652Q368 629 366 605Q364 581 361 558H346Q332 562 313.5 564.5Q295 567 281 567Q245 567 228 551Q211 535 207 496L196 401H342Q340 377 337.5 354Q335 331 332 307H188Z" glyph-name="florin" horiz-adv-x="406" unicode="&#402;" /><glyph d="M468 0H341V158H34L21 240L335 650H468V268H560V158H468ZM175 268V266Q184 267 196.5 267.5Q209 268 221 268H346V428Q346 445 347 471.5Q348 498 350 522H348Q340 503 329 485Q318 467 307 451L211 313Q196 291 175 268Z" glyph-name="four" horiz-adv-x="591" unicode="4" /><glyph d="M-60 0H-135V16Q-41 176 53 333Q147 490 241 650H319V633Z" glyph-name="fraction" horiz-adv-x="184" unicode="&#8260;" /><glyph d="M315 -204Q203 -204 143.5 -156Q84 -108 74 -23V-15H195Q200 -68 233.5 -86.5Q267 -105 313 -105Q338 -105 360 -98.5Q382 -92 399 -78Q416 -64 426 -43.5Q436 -23 436 6V79H434Q402 50 360 37Q318 24 281 24Q237 24 195 39Q153 54 120.5 83.5Q88 113 68 156.5Q48 200 48 257V274Q48 325 66 369.5Q84 414 115.5 446Q147 478 190.5 496.5Q234 515 286 515Q342 515 381 496Q420 477 450 442H452L472 500H560V0Q560 -49 540 -87Q520 -125 486.5 -151Q453 -177 408.5 -190.5Q364 -204 315 -204ZM304 123Q374 123 406.5 164Q439 205 439 268Q439 333 407 375Q375 417 304 417Q237 417 202.5 376Q168 335 168 270Q168 205 203 164Q238 123 304 123Z" glyph-name="g" horiz-adv-x="631" unicode="g" /><glyph d="M355 -15Q336 -15 309 -11Q282 -7 263 1V110H280Q294 103 316 98Q338 93 354 93Q400 93 425.5 122.5Q451 152 451 202Q451 223 444 242.5Q437 262 424.5 277Q412 292 393.5 301Q375 310 351 310H281V416H305Q357 416 376.5 444.5Q396 473 396 522Q396 537 391 552.5Q386 568 375 581Q364 594 346.5 602Q329 610 305 610Q270 610 249.5 596.5Q229 583 218.5 562.5Q208 542 205.5 517.5Q203 493 203 470V0H81V510Q81 554 95 591Q109 628 136.5 656Q164 684 205.5 699.5Q247 715 301 715Q344 715 383.5 704Q423 693 453.5 670.5Q484 648 502.5 614Q521 580 521 533V520Q521 475 503 442.5Q485 410 462 387V385Q510 368 543 321.5Q576 275 576 211V197Q576 145 557 105.5Q538 66 507 39Q476 12 436 -1.5Q396 -15 355 -15Z" glyph-name="germandbls" horiz-adv-x="617" unicode="&#223;" /><glyph d="M397 607 361 538 102 650 158 753Z" glyph-name="grave" horiz-adv-x="500" unicode="`" /><glyph d="M571 284 74 43V173L406 326V328L73 480V611L571 369Z" glyph-name="greater" horiz-adv-x="634" unicode="&gt;" /><glyph d="M552 377 73 186V309L369 419V421L75 531V649L552 462ZM554 37H73V146H554Z" glyph-name="greaterequal" horiz-adv-x="617" unicode="&#8805;" /><glyph d="M308 60H185L28 248V257L185 445H308V431L159 252L308 74ZM538 60H415L258 248V257L415 445H538V431L389 252L538 74Z" glyph-name="guillemotleft" horiz-adv-x="581" unicode="&#171;" /><glyph d="M43 60V74L192 252L43 431V445H166L323 257V248L166 60ZM273 60V74L422 252L273 431V445H396L553 257V248L396 60Z" glyph-name="guillemotright" horiz-adv-x="581" unicode="&#187;" /><glyph d="M308 60H185L28 248V257L185 445H308V431L159 252L308 74Z" glyph-name="guilsinglleft" horiz-adv-x="351" unicode="&#8249;" /><glyph d="M43 60V74L192 252L43 431V445H166L323 257V248L166 60Z" glyph-name="guilsinglright" horiz-adv-x="351" unicode="&#8250;" /><glyph d="M192 0H71V700H192V450H194Q222 485 257.5 500Q293 515 335 515Q376 515 409.5 501.5Q443 488 467 464.5Q491 441 504.5 408.5Q518 376 518 337V0H398V301Q398 359 370.5 385.5Q343 412 298 412Q249 412 220.5 384.5Q192 357 192 300Z" glyph-name="h" horiz-adv-x="579" unicode="h" /><glyph d="M495 676 327 540 270 598 415 759ZM287 678 120 540 65 598 209 759Z" glyph-name="hungarumlaut" horiz-adv-x="500" unicode="&#733;" /><glyph d="M389 239H64V346H389Z" glyph-name="hyphen" horiz-adv-x="453" unicode="-" /><glyph d="M188 0H66V500H188ZM127 571Q93 571 69.5 589Q46 607 46 640V645Q46 679 69.5 697Q93 715 127 715Q160 715 184 697Q208 679 208 645V640Q208 607 184 589Q160 571 127 571Z" glyph-name="i" horiz-adv-x="254" unicode="i" /><glyph d="M188 0H66V500H188ZM272 650 13 538 -23 607 216 753Z" glyph-name="iacute" horiz-adv-x="254" unicode="&#237;" /><glyph d="M188 0H66V500H188ZM131 615 1 539 -39 605 119 727H143L302 605L262 539Z" glyph-name="icircumflex" horiz-adv-x="254" unicode="&#238;" /><glyph d="M188 0H66V500H188ZM232 557Q200 557 178 576.5Q156 596 156 629Q156 661 178 681Q200 701 232 701Q264 701 285.5 681Q307 661 307 629Q307 596 285.5 576.5Q264 557 232 557ZM30 557Q-2 557 -24 576.5Q-46 596 -46 629Q-46 661 -24 681Q-2 701 30 701Q62 701 83.5 681Q105 661 105 629Q105 596 83.5 576.5Q62 557 30 557Z" glyph-name="idieresis" horiz-adv-x="254" unicode="&#239;" /><glyph d="M188 0H66V500H188ZM267 607 231 538 -28 650 28 753Z" glyph-name="igrave" horiz-adv-x="254" unicode="&#236;" /><glyph d="M89 -180H-29V-163Q-2 -144 16.5 -117.5Q35 -91 46 -61.5Q57 -32 61.5 -2.5Q66 27 66 52V500H189V45Q189 -24 162.5 -84.5Q136 -145 89 -180ZM127 571Q93 571 69.5 589Q46 607 46 640V645Q46 679 69.5 697Q93 715 127 715Q160 715 184 697Q208 679 208 645V640Q208 607 184 589Q160 571 127 571Z" glyph-name="j" horiz-adv-x="255" unicode="j" /><glyph d="M193 0H71V700H193V290L365 500H491V485L316 273L540 15V0H400L193 236Z" glyph-name="k" horiz-adv-x="546" unicode="k" /><glyph d="M222 -5Q147 -5 106.5 35Q66 75 66 162V700H188V170Q188 125 212.5 109.5Q237 94 274 99H286V2Q269 -2 255.5 -3.5Q242 -5 222 -5Z" glyph-name="l" horiz-adv-x="308" unicode="l" /><glyph d="M561 176V43L63 286V371L559 611V483L228 331V329Z" glyph-name="less" horiz-adv-x="634" unicode="&lt;" /><glyph d="M543 309V186L65 377V462L542 649V531L248 421V419ZM543 37H63V146H543Z" glyph-name="lessequal" horiz-adv-x="616" unicode="&#8804;" /><glyph d="M507 268H380V465H32V560H507Z" glyph-name="logicalnot" horiz-adv-x="555" unicode="&#172;" /><glyph d="M192 0H71V500H164L183 440H185Q211 481 246 498Q281 515 319 515Q370 515 407 492.5Q444 470 466 433H468Q482 455 501 470.5Q520 486 541 496Q562 506 584 510.5Q606 515 625 515Q705 515 751.5 467.5Q798 420 798 342V0H678V309Q678 366 654 389Q630 412 589 412Q547 412 521 388.5Q495 365 495 308V0H375V312Q375 366 349.5 389Q324 412 285 412Q241 412 216.5 385.5Q192 359 192 304Z" glyph-name="m" horiz-adv-x="859" unicode="m" /><glyph d="M414 572H85V670H414Z" glyph-name="macron" horiz-adv-x="500" unicode="&#175;" /><glyph d="M193 -180H69V560H193V206Q193 150 227 120Q261 90 311 90Q363 90 397.5 121.5Q432 153 433 208V560H557V0H462Q457 16 452.5 31Q448 46 443 62H441Q414 22 371.5 3.5Q329 -15 294 -15Q262 -15 234 -9Q206 -3 193 8Z" glyph-name="mu" horiz-adv-x="621" unicode="&#181;" /><glyph d="M192 0H71V500H164L183 439H185Q214 480 252 497.5Q290 515 335 515Q376 515 409.5 501.5Q443 488 467 464.5Q491 441 504.5 408.5Q518 376 518 337V0H398V301Q398 359 370.5 385.5Q343 412 298 412Q249 412 220.5 384.5Q192 357 192 300Z" glyph-name="n" horiz-adv-x="579" unicode="n" /><glyph d="M287 665Q342 665 386.5 650Q431 635 462.5 606.5Q494 578 511 537.5Q528 497 528 446V430Q528 371 503.5 309Q479 247 439 192Q424 172 405 147Q386 122 364 96Q342 70 317.5 45Q293 20 268 0H125V16Q150 35 178.5 60.5Q207 86 234.5 114.5Q262 143 286.5 172.5Q311 202 329 229L327 231Q314 226 292.5 222.5Q271 219 250 219Q212 219 174 234.5Q136 250 106 278Q76 306 57.5 345.5Q39 385 39 433V447Q39 498 59.5 538.5Q80 579 114.5 607Q149 635 193.5 650Q238 665 287 665ZM283 560Q253 560 231 549.5Q209 539 194.5 522.5Q180 506 173 484.5Q166 463 166 440Q166 418 173 396.5Q180 375 194.5 358.5Q209 342 231.5 332Q254 322 285 322Q315 322 337 332.5Q359 343 373.5 359.5Q388 376 394.5 397.5Q401 419 401 441Q401 464 394 485Q387 506 373 523Q359 540 336.5 550Q314 560 283 560Z" glyph-name="nine" horiz-adv-x="569" unicode="9" /><glyph glyph-name="nonmarkingreturn" horiz-adv-x="250" unicode="" /><glyph d="M232 54H128V68L190 176H72V282H252L304 372H72V479H366L431 590H535V576L478 479H590V372H416L364 282H590V176H302Z" glyph-name="notequal" horiz-adv-x="662" unicode="&#8800;" /><glyph d="M192 0H71V500H164L183 439H185Q214 480 252 497.5Q290 515 335 515Q376 515 409.5 501.5Q443 488 467 464.5Q491 441 504.5 408.5Q518 376 518 337V0H398V301Q398 359 370.5 385.5Q343 412 298 412Q249 412 220.5 384.5Q192 357 192 300ZM199 555H115Q115 582 122.5 608Q130 634 144 654Q158 674 180 686.5Q202 699 230 699Q253 699 268.5 692Q284 685 297.5 677Q311 669 324 662Q337 655 354 655Q360 655 367 656Q374 657 379.5 661.5Q385 666 389 675Q393 684 393 700H477Q477 673 469.5 647Q462 621 448 601Q434 581 412.5 568.5Q391 556 362 556Q340 556 324 563Q308 570 294.5 578Q281 586 267.5 593Q254 600 236 600Q231 600 224.5 599Q218 598 212.5 593.5Q207 589 203 580Q199 571 199 555Z" glyph-name="ntilde" horiz-adv-x="579" unicode="&#241;" /><glyph d="M273 393 259 274H376L391 393ZM585 393H475L461 274H561V194H451L427 0H344V16L366 194H249L225 0H142V16L164 194H64V274H174L189 393H88V472H199L221 650H303V634L283 472H401L423 650H505V634L485 472H585Z" glyph-name="numbersign" horiz-adv-x="649" unicode="#" /><glyph d="M200 0H87V650H215Q299 518 348.5 435.5Q398 353 426 303Q454 253 467 228Q480 203 489 186H491Q489 223 488 265Q487 307 487 345L486 650H600V0H481Q394 137 342.5 222.5Q291 308 262 358.5Q233 409 220 434Q207 459 198 475H196Q198 437 199 399Q200 361 200 323ZM848 347Q815 347 785.5 357.5Q756 368 733 387.5Q710 407 696.5 435.5Q683 464 683 501V513Q683 550 696.5 578.5Q710 607 733 626.5Q756 646 785.5 656.5Q815 667 848 667Q881 667 911 656.5Q941 646 964.5 626.5Q988 607 1001.5 578.5Q1015 550 1015 513V501Q1015 464 1001.5 435.5Q988 407 964.5 387.5Q941 368 911 357.5Q881 347 848 347ZM849 433Q880 433 895 454.5Q910 476 910 508Q910 538 895 559.5Q880 581 849 581Q818 581 803 559.5Q788 538 788 508Q788 476 803 454.5Q818 433 849 433Z" glyph-name="numero" horiz-adv-x="1065" unicode="&#8470;" /><glyph d="M300 -16Q250 -16 204 1Q158 18 122.5 50.5Q87 83 66 131Q45 179 45 240V258Q45 320 66 368Q87 416 122.5 448.5Q158 481 204 498Q250 515 300 515Q350 515 396.5 498Q443 481 479 448.5Q515 416 536.5 368Q558 320 558 258V240Q558 179 536.5 131Q515 83 479 50.5Q443 18 396.5 1Q350 -16 300 -16ZM301 85Q335 85 360 97.5Q385 110 402 132.5Q419 155 427.5 185Q436 215 436 250Q436 285 427.5 315Q419 345 402 367.5Q385 390 360 402.5Q335 415 301 415Q267 415 242 402.5Q217 390 200.5 367.5Q184 345 175.5 315Q167 285 167 250Q167 215 175.5 185Q184 155 200.5 132.5Q217 110 242 97.5Q267 85 301 85Z" glyph-name="o" horiz-adv-x="603" unicode="o" /><glyph d="M300 -16Q250 -16 204 1Q158 18 122.5 50.5Q87 83 66 131Q45 179 45 240V258Q45 320 66 368Q87 416 122.5 448.5Q158 481 204 498Q250 515 300 515Q350 515 396.5 498Q443 481 479 448.5Q515 416 536.5 368Q558 320 558 258V240Q558 179 536.5 131Q515 83 479 50.5Q443 18 396.5 1Q350 -16 300 -16ZM301 85Q335 85 360 97.5Q385 110 402 132.5Q419 155 427.5 185Q436 215 436 250Q436 285 427.5 315Q419 345 402 367.5Q385 390 360 402.5Q335 415 301 415Q267 415 242 402.5Q217 390 200.5 367.5Q184 345 175.5 315Q167 285 167 250Q167 215 175.5 185Q184 155 200.5 132.5Q217 110 242 97.5Q267 85 301 85ZM453 650 194 538 158 607 397 753Z" glyph-name="oacute" horiz-adv-x="603" unicode="&#243;" /><glyph d="M300 -16Q250 -16 204 1Q158 18 122.5 50.5Q87 83 66 131Q45 179 45 240V258Q45 320 66 368Q87 416 122.5 448.5Q158 481 204 498Q250 515 300 515Q350 515 396.5 498Q443 481 479 448.5Q515 416 536.5 368Q558 320 558 258V240Q558 179 536.5 131Q515 83 479 50.5Q443 18 396.5 1Q350 -16 300 -16ZM301 85Q335 85 360 97.5Q385 110 402 132.5Q419 155 427.5 185Q436 215 436 250Q436 285 427.5 315Q419 345 402 367.5Q385 390 360 402.5Q335 415 301 415Q267 415 242 402.5Q217 390 200.5 367.5Q184 345 175.5 315Q167 285 167 250Q167 215 175.5 185Q184 155 200.5 132.5Q217 110 242 97.5Q267 85 301 85ZM303 615 173 539 133 605 291 727H315L474 605L434 539Z" glyph-name="ocircumflex" horiz-adv-x="603" unicode="&#244;" /><glyph d="M300 -16Q250 -16 204 1Q158 18 122.5 50.5Q87 83 66 131Q45 179 45 240V258Q45 320 66 368Q87 416 122.5 448.5Q158 481 204 498Q250 515 300 515Q350 515 396.5 498Q443 481 479 448.5Q515 416 536.5 368Q558 320 558 258V240Q558 179 536.5 131Q515 83 479 50.5Q443 18 396.5 1Q350 -16 300 -16ZM301 85Q335 85 360 97.5Q385 110 402 132.5Q419 155 427.5 185Q436 215 436 250Q436 285 427.5 315Q419 345 402 367.5Q385 390 360 402.5Q335 415 301 415Q267 415 242 402.5Q217 390 200.5 367.5Q184 345 175.5 315Q167 285 167 250Q167 215 175.5 185Q184 155 200.5 132.5Q217 110 242 97.5Q267 85 301 85ZM404 557Q372 557 350 576.5Q328 596 328 629Q328 661 350 681Q372 701 404 701Q436 701 457.5 681Q479 661 479 629Q479 596 457.5 576.5Q436 557 404 557ZM202 557Q170 557 148 576.5Q126 596 126 629Q126 661 148 681Q170 701 202 701Q234 701 255.5 681Q277 661 277 629Q277 596 255.5 576.5Q234 557 202 557Z" glyph-name="odieresis" horiz-adv-x="603" unicode="&#246;" /><glyph d="M290 -16Q240 -16 195.5 1Q151 18 117.5 50.5Q84 83 64.5 131Q45 179 45 240V258Q45 320 64.5 368Q84 416 118 448.5Q152 481 196.5 498Q241 515 290 515Q347 515 396 491.5Q445 468 478 423Q506 465 551 490Q596 515 659 515Q710 515 751.5 497.5Q793 480 822.5 447Q852 414 868 367.5Q884 321 884 263V235Q884 221 883 212H550Q554 149 582.5 116Q611 83 670 83Q710 83 732.5 97Q755 111 767 145H880Q862 64 803.5 24Q745 -16 664 -16Q604 -16 557 8Q510 32 479 76Q446 31 396.5 7.5Q347 -16 290 -16ZM293 85Q324 85 347 97.5Q370 110 385.5 132.5Q401 155 408.5 185Q416 215 416 250Q416 285 408.5 315Q401 345 385.5 367.5Q370 390 347 402.5Q324 415 293 415Q262 415 238.5 402.5Q215 390 199 367.5Q183 345 175 315Q167 285 167 250Q167 215 175 185Q183 155 199 132.5Q215 110 238.5 97.5Q262 85 293 85ZM769 307Q768 330 762 351Q756 372 743.5 387.5Q731 403 712 412.5Q693 422 665 422Q611 422 586.5 389Q562 356 555 307Z" glyph-name="oe" horiz-adv-x="929" unicode="&#339;" /><glyph d="M267 -190Q215 -190 183 -166.5Q151 -143 151 -101Q151 -65 175.5 -32.5Q200 0 245 18L315 0Q277 -17 261.5 -39Q246 -61 246 -83Q246 -99 255.5 -109Q265 -119 285 -119Q309 -119 336 -105H349V-176Q332 -183 309.5 -186.5Q287 -190 267 -190Z" glyph-name="ogonek" horiz-adv-x="500" unicode="&#731;" /><glyph d="M300 -16Q250 -16 204 1Q158 18 122.5 50.5Q87 83 66 131Q45 179 45 240V258Q45 320 66 368Q87 416 122.5 448.5Q158 481 204 498Q250 515 300 515Q350 515 396.5 498Q443 481 479 448.5Q515 416 536.5 368Q558 320 558 258V240Q558 179 536.5 131Q515 83 479 50.5Q443 18 396.5 1Q350 -16 300 -16ZM301 85Q335 85 360 97.5Q385 110 402 132.5Q419 155 427.5 185Q436 215 436 250Q436 285 427.5 315Q419 345 402 367.5Q385 390 360 402.5Q335 415 301 415Q267 415 242 402.5Q217 390 200.5 367.5Q184 345 175.5 315Q167 285 167 250Q167 215 175.5 185Q184 155 200.5 132.5Q217 110 242 97.5Q267 85 301 85ZM448 607 412 538 153 650 209 753Z" glyph-name="ograve" horiz-adv-x="603" unicode="&#242;" /><glyph d="M244 0H118V465H4V554Q33 558 56.5 561.5Q80 565 98 574.5Q116 584 128.5 602.5Q141 621 148 654H244Z" glyph-name="one" horiz-adv-x="332" unicode="1" /><glyph d="M207 281Q175 281 145 292.5Q115 304 92.5 326.5Q70 349 56.5 381Q43 413 43 453V465Q43 501 55.5 533Q68 565 91.5 588.5Q115 612 147 626Q179 640 218 640Q255 640 283 626.5Q311 613 328 590H330L343 629H407V291H337L323 335H322Q299 307 272 294Q245 281 207 281ZM228 360Q270 360 291.5 388Q313 416 313 461Q313 508 291.5 536Q270 564 228 564Q184 564 163 535Q142 506 142 461Q142 417 163 388.5Q184 360 228 360Z" glyph-name="ordfeminine" horiz-adv-x="468" unicode="&#170;" /><glyph d="M222 283Q187 283 154.5 294.5Q122 306 97.5 328Q73 350 58 382Q43 414 43 456V469Q43 510 58 542Q73 574 97.5 596Q122 618 154.5 629.5Q187 641 222 641Q257 641 290 629.5Q323 618 348.5 596Q374 574 389 542Q404 510 404 469V456Q404 414 389 382Q374 350 348.5 328Q323 306 290 294.5Q257 283 222 283ZM223 362Q265 362 284.5 391Q304 420 304 463Q304 505 284.5 533.5Q265 562 223 562Q182 562 162.5 533.5Q143 505 143 463Q143 420 162.5 391Q182 362 223 362Z" glyph-name="ordmasculine" horiz-adv-x="447" unicode="&#186;" /><glyph d="M300 -16Q270 -16 242 -10L219 -65H118V-52L152 27Q136 37 122 50Q87 83 66 131Q45 179 45 240V258Q45 320 66 368Q87 416 122.5 448.5Q158 481 204 498Q250 515 300 515Q330 515 359 508L383 565H483V551L449 471Q465 461 479 448Q515 416 536.5 368Q558 320 558 258V240Q558 179 536.5 131Q515 83 479 50.5Q443 18 396.5 1Q350 -16 300 -16ZM301 85Q335 85 360 97.5Q385 110 402 132.5Q419 155 427.5 185Q436 215 436 250Q436 285 427 315Q419 343 403 365L283 85Q292 85 301 85ZM301 415Q267 415 242 402.5Q217 390 200.5 367.5Q184 345 175.5 315Q167 285 167 250Q167 215 175 185Q183 156 198 135L318 414Q310 415 301 415Z" glyph-name="oslash" horiz-adv-x="603" unicode="&#248;" /><glyph d="M300 -16Q250 -16 204 1Q158 18 122.5 50.5Q87 83 66 131Q45 179 45 240V258Q45 320 66 368Q87 416 122.5 448.5Q158 481 204 498Q250 515 300 515Q350 515 396.5 498Q443 481 479 448.5Q515 416 536.5 368Q558 320 558 258V240Q558 179 536.5 131Q515 83 479 50.5Q443 18 396.5 1Q350 -16 300 -16ZM301 85Q335 85 360 97.5Q385 110 402 132.5Q419 155 427.5 185Q436 215 436 250Q436 285 427.5 315Q419 345 402 367.5Q385 390 360 402.5Q335 415 301 415Q267 415 242 402.5Q217 390 200.5 367.5Q184 345 175.5 315Q167 285 167 250Q167 215 175.5 185Q184 155 200.5 132.5Q217 110 242 97.5Q267 85 301 85ZM206 555H122Q122 582 129.5 608Q137 634 151 654Q165 674 187 686.5Q209 699 237 699Q260 699 275.5 692Q291 685 304.5 677Q318 669 331 662Q344 655 361 655Q367 655 374 656Q381 657 386.5 661.5Q392 666 396 675Q400 684 400 700H484Q484 673 476.5 647Q469 621 455 601Q441 581 419.5 568.5Q398 556 369 556Q347 556 331 563Q315 570 301.5 578Q288 586 274.5 593Q261 600 243 600Q238 600 231.5 599Q225 598 219.5 593.5Q214 589 210 580Q206 571 206 555Z" glyph-name="otilde" horiz-adv-x="603" unicode="&#245;" /><glyph d="M192 -180H71V500H164L181 444H183Q216 486 259 501Q302 516 351 516Q395 516 437.5 498.5Q480 481 513 448.5Q546 416 566 369Q586 322 586 263V244Q586 188 568.5 140.5Q551 93 518.5 58.5Q486 24 441.5 4.5Q397 -15 343 -15Q284 -15 250 1Q216 17 194 41H192ZM327 83Q362 83 388 96Q414 109 431 131.5Q448 154 456 184.5Q464 215 464 250Q464 285 456 315Q448 345 431 367.5Q414 390 388 403Q362 416 327 416Q292 416 266.5 403Q241 390 224 367.5Q207 345 198.5 315Q190 285 190 250Q190 215 198.5 184.5Q207 154 224 131.5Q241 109 266.5 96Q292 83 327 83Z" glyph-name="p" horiz-adv-x="634" unicode="p" /><glyph d="M445 0H341V568H275V326H256Q220 326 187 336.5Q154 347 129 367Q104 387 89 416.5Q74 446 74 483V496Q74 534 87.5 562.5Q101 591 123.5 610.5Q146 630 175.5 640Q205 650 238 650H445Z" glyph-name="paragraph" horiz-adv-x="565" unicode="&#182;" /><glyph d="M274 -124H175Q115 -15 90 86Q65 187 65 285Q65 385 90 486Q115 587 175 696H273V682Q230 579 210.5 479.5Q191 380 191 285Q191 191 210.5 92.5Q230 -6 274 -110Z" glyph-name="parenleft" horiz-adv-x="321" unicode="(" /><glyph d="M47 696H146Q206 587 231 486Q256 385 256 287Q256 187 231 86Q206 -15 146 -124H48V-110Q91 -7 110.5 92.5Q130 192 130 287Q130 381 110.5 479.5Q91 578 47 682Z" glyph-name="parenright" horiz-adv-x="321" unicode=")" /><glyph d="M198 0H118V16L475 650H558V633ZM496 -4Q468 -4 442 5Q416 14 396.5 31.5Q377 49 365 74Q353 99 353 131V140Q353 173 365 198Q377 223 396.5 240.5Q416 258 442 267Q468 276 496 276Q524 276 550 267Q576 258 595.5 240.5Q615 223 627 198Q639 173 639 140V131Q639 99 627 74Q615 49 595.5 31.5Q576 14 550 5Q524 -4 496 -4ZM496 65Q525 65 540.5 85.5Q556 106 556 136Q556 165 540.5 185.5Q525 206 496 206Q467 206 451.5 185.5Q436 165 436 136Q436 106 451.5 85.5Q467 65 496 65ZM179 374Q151 374 125 383Q99 392 79.5 409.5Q60 427 48 452Q36 477 36 509V518Q36 551 48 576Q60 601 79.5 618.5Q99 636 125.5 645Q152 654 180 654Q208 654 234 645Q260 636 279.5 618.5Q299 601 311 576Q323 551 323 518V509Q323 477 311 452Q299 427 279.5 409.5Q260 392 234 383Q208 374 179 374ZM180 443Q209 443 224.5 463.5Q240 484 240 514Q240 544 224.5 564.5Q209 585 180 585Q151 585 135.5 564.5Q120 544 120 514Q120 484 135.5 463.5Q151 443 180 443Z" glyph-name="percent" horiz-adv-x="712" unicode="%" /><glyph d="M162 -7Q128 -7 104.5 11Q81 29 81 64V69Q81 104 104.5 122.5Q128 141 162 141Q195 141 219 122.5Q243 104 243 69V64Q243 29 219 11Q195 -7 162 -7Z" glyph-name="period" horiz-adv-x="324" unicode="." /><glyph d="M162 218Q128 218 104.5 236Q81 254 81 289V294Q81 329 104.5 347.5Q128 366 162 366Q195 366 219 347.5Q243 329 243 294V289Q243 254 219 236Q195 218 162 218Z" glyph-name="periodcentered" horiz-adv-x="324" unicode="&#183;" /><glyph d="M198 0H118V16L475 650H558V633ZM496 -4Q468 -4 442 5Q416 14 396.5 31.5Q377 49 365 74Q353 99 353 131V140Q353 173 365 198Q377 223 396.5 240.5Q416 258 442 267Q468 276 496 276Q524 276 550 267Q576 258 595.5 240.5Q615 223 627 198Q639 173 639 140V131Q639 99 627 74Q615 49 595.5 31.5Q576 14 550 5Q524 -4 496 -4ZM496 65Q525 65 540.5 85.5Q556 106 556 136Q556 165 540.5 185.5Q525 206 496 206Q467 206 451.5 185.5Q436 165 436 136Q436 106 451.5 85.5Q467 65 496 65ZM179 374Q151 374 125 383Q99 392 79.5 409.5Q60 427 48 452Q36 477 36 509V518Q36 551 48 576Q60 601 79.5 618.5Q99 636 125.5 645Q152 654 180 654Q208 654 234 645Q260 636 279.5 618.5Q299 601 311 576Q323 551 323 518V509Q323 477 311 452Q299 427 279.5 409.5Q260 392 234 383Q208 374 179 374ZM180 443Q209 443 224.5 463.5Q240 484 240 514Q240 544 224.5 564.5Q209 585 180 585Q151 585 135.5 564.5Q120 544 120 514Q120 484 135.5 463.5Q151 443 180 443ZM816 -4Q788 -4 762 5Q736 14 716.5 31.5Q697 49 685 74Q673 99 673 131V140Q673 173 685 198Q697 223 716.5 240.5Q736 258 762 267Q788 276 816 276Q844 276 870 267Q896 258 915.5 240.5Q935 223 947 198Q959 173 959 140V131Q959 99 947 74Q935 49 915.5 31.5Q896 14 870 5Q844 -4 816 -4ZM816 65Q845 65 860.5 85.5Q876 106 876 136Q876 165 860.5 185.5Q845 206 816 206Q787 206 771.5 185.5Q756 165 756 136Q756 106 771.5 85.5Q787 65 816 65Z" glyph-name="perthousand" horiz-adv-x="1052" unicode="&#8240;" /><glyph d="M371 73H250V274H52V382H250V584H371V382H571V274H371Z" glyph-name="plus" horiz-adv-x="623" unicode="+" /><glyph d="M371 208H250V360H72V466H250V619H371V466H551V360H371ZM551 37H72V146H551Z" glyph-name="plusminus" horiz-adv-x="623" unicode="&#177;" /><glyph d="M390 -12Q317 -12 253.5 14.5Q190 41 144 87Q98 133 71.5 194.5Q45 256 45 326Q45 396 71.5 457.5Q98 519 144 565Q190 611 253.5 638Q317 665 390 665Q463 665 526 638Q589 611 635.5 565Q682 519 708.5 457.5Q735 396 735 326Q735 256 708.5 194.5Q682 133 635.5 87Q589 41 526 14.5Q463 -12 390 -12ZM390 61Q446 61 493.5 82Q541 103 575.5 139Q610 175 630 223Q650 271 650 326Q650 381 630 429Q610 477 575.5 513Q541 549 493.5 569.5Q446 590 390 590Q334 590 286.5 569.5Q239 549 204 513Q169 477 149.5 429Q130 381 130 326Q130 271 149.5 223Q169 175 204 139Q239 103 286.5 82Q334 61 390 61ZM356 155H279V504H420Q445 504 467.5 497Q490 490 507 476Q524 462 534 441.5Q544 421 544 394V385Q544 359 533.5 338Q523 317 506 303Q489 289 467 281Q445 273 420 273H356ZM356 439V339H413Q442 339 454.5 353.5Q467 368 467 390Q467 409 455.5 424Q444 439 416 439Z" glyph-name="published" horiz-adv-x="780" unicode="&#8471;" /><glyph d="M563 -180H441V47H439Q410 14 370.5 -1Q331 -16 282 -16Q238 -16 196 1.5Q154 19 121 51.5Q88 84 68 131Q48 178 48 237V256Q48 312 65.5 359.5Q83 407 115 441.5Q147 476 192 495.5Q237 515 291 515Q350 515 392 493.5Q434 472 456 445H458L477 500H563ZM307 84Q342 84 367.5 97Q393 110 410 132.5Q427 155 435.5 185Q444 215 444 250Q444 285 435.5 315.5Q427 346 410 368.5Q393 391 367.5 404Q342 417 307 417Q272 417 246 404Q220 391 203 368.5Q186 346 178 315.5Q170 285 170 250Q170 215 178 185Q186 155 203 132.5Q220 110 246 97Q272 84 307 84Z" glyph-name="q" horiz-adv-x="634" unicode="q" /><glyph d="M304 213H198L192 385L200 393Q227 394 250.5 398.5Q274 403 291.5 413.5Q309 424 318.5 442Q328 460 328 488Q328 523 306.5 544.5Q285 566 244 566Q199 566 178 540Q157 514 159 479H45V489Q45 533 61 566Q77 599 104.5 621Q132 643 168.5 654.5Q205 666 246 666Q287 666 324 654.5Q361 643 389 621Q417 599 433.5 567Q450 535 450 494V486Q450 452 438.5 424.5Q427 397 407.5 376Q388 355 362 340Q336 325 307 315ZM247 -7Q213 -7 189.5 11Q166 29 166 64V69Q166 104 189.5 122.5Q213 141 247 141Q280 141 304 122.5Q328 104 328 69V64Q328 29 304 11Q280 -7 247 -7Z" glyph-name="question" horiz-adv-x="494" unicode="?" /><glyph d="M190 296H296L302 124L294 116Q267 115 243.5 110.5Q220 106 202.5 95.5Q185 85 175.5 67Q166 49 166 21Q166 -14 187.5 -35.5Q209 -57 250 -57Q295 -57 316 -31Q337 -5 335 30H449V20Q449 -24 433 -57Q417 -90 389.5 -112Q362 -134 325.5 -145.5Q289 -157 248 -157Q207 -157 170 -145.5Q133 -134 105 -112Q77 -90 60.5 -58Q44 -26 44 15V23Q44 58 55.5 85Q67 112 86.5 133Q106 154 132 169Q158 184 187 194ZM247 516Q281 516 304.5 498Q328 480 328 445V440Q328 405 304.5 386.5Q281 368 247 368Q214 368 190 386.5Q166 405 166 440V445Q166 480 190 498Q214 516 247 516Z" glyph-name="questiondown" horiz-adv-x="494" unicode="&#191;" /><glyph d="M162 401H84L66 634V650H180V634ZM327 401H249L231 634V650H345V634Z" glyph-name="quotedbl" horiz-adv-x="411" unicode="&quot;" /><glyph d="M151 -127H73L119 142H254V128ZM353 -127H275L321 142H456V128Z" glyph-name="quotedblbase" horiz-adv-x="524" unicode="&#8222;" /><glyph d="M371 650H449L403 381H268V395ZM171 650H249L203 381H68V395Z" glyph-name="quotedblleft" horiz-adv-x="524" unicode="&#8220;" /><glyph d="M153 381H75L121 650H256V636ZM353 381H275L321 650H456V636Z" glyph-name="quotedblright" horiz-adv-x="524" unicode="&#8221;" /><glyph d="M171 650H249L203 381H68V395Z" glyph-name="quoteleft" horiz-adv-x="324" unicode="&#8216;" /><glyph d="M153 381H75L121 650H256V636Z" glyph-name="quoteright" horiz-adv-x="324" unicode="&#8217;" /><glyph d="M151 -128H73L119 141H254V127Z" glyph-name="quotesinglbase" horiz-adv-x="346" unicode="&#8218;" /><glyph d="M162 401H84L66 634V650H180V634Z" glyph-name="quotesingle" horiz-adv-x="246" unicode="&apos;" /><glyph d="M192 0H71V500H157L183 404H185Q196 453 235.5 478.5Q275 504 323 504Q331 504 343 503.5Q355 503 363 501V382H318Q275 382 250 371Q225 360 212 340.5Q199 321 195.5 295Q192 269 192 239Z" glyph-name="r" horiz-adv-x="392" unicode="r" /><glyph d="M388 -11Q318 -11 255.5 15.5Q193 42 146 88Q99 134 72 195.5Q45 257 45 327Q45 397 72 458.5Q99 520 146 566Q193 612 255.5 638.5Q318 665 388 665Q459 665 521 638.5Q583 612 630 566Q677 520 704 458.5Q731 397 731 327Q731 257 704 195.5Q677 134 630 88Q583 42 521 15.5Q459 -11 388 -11ZM388 60Q442 60 489.5 81Q537 102 572.5 138.5Q608 175 628.5 223.5Q649 272 649 327Q649 382 628.5 430.5Q608 479 572.5 515Q537 551 489.5 572Q442 593 388 593Q335 593 287.5 572Q240 551 204.5 515Q169 479 148.5 430.5Q128 382 128 327Q128 272 148.5 223.5Q169 175 204.5 138.5Q240 102 287.5 81Q335 60 388 60ZM342 155H264V505H407Q432 505 454.5 498Q477 491 494 476.5Q511 462 521 441.5Q531 421 531 394V384Q531 348 512 323Q493 298 463 284L545 173V155H468L384 271H342ZM342 436V340H395Q424 340 438.5 354Q453 368 453 388Q453 409 441.5 422.5Q430 436 402 436Z" glyph-name="registered" horiz-adv-x="776" unicode="&#174;" /><glyph d="M250 538Q228 538 208.5 546Q189 554 174.5 568Q160 582 151.5 600.5Q143 619 143 640Q143 661 151.5 679.5Q160 698 174.5 712Q189 726 208.5 734Q228 742 250 742Q272 742 291.5 734Q311 726 325.5 712Q340 698 348.5 679.5Q357 661 357 640Q357 619 348.5 600.5Q340 582 325.5 568Q311 554 291.5 546Q272 538 250 538ZM250 598Q267 598 279.5 610.5Q292 623 292 640Q292 658 280 670Q268 682 250 682Q233 682 220.5 669.5Q208 657 208 640Q208 623 220.5 610.5Q233 598 250 598Z" glyph-name="ring" horiz-adv-x="500" unicode="&#730;" /><glyph d="M246 -15Q204 -15 168 -5.5Q132 4 105 24.5Q78 45 62 76Q46 107 44 150V160H158Q158 116 180 96.5Q202 77 248 77Q287 77 307.5 94Q328 111 328 137Q328 157 315.5 173Q303 189 271 198Q253 203 229 207Q205 211 179.5 217Q154 223 129.5 234Q105 245 87 263Q71 279 60 304Q49 329 49 357V363Q49 404 66 433Q83 462 110.5 480Q138 498 172 506.5Q206 515 240 515Q279 515 313 506.5Q347 498 372.5 481Q398 464 414 437Q430 410 432 372V362H322Q320 397 298.5 411Q277 425 240 425Q168 425 168 373Q168 354 180.5 340.5Q193 327 215 322Q237 317 262.5 312.5Q288 308 314 301Q340 294 364 283Q388 272 406 254Q424 236 435 209Q446 182 446 153V148Q446 103 427.5 72Q409 41 380.5 21.5Q352 2 316.5 -6.5Q281 -15 246 -15Z" glyph-name="s" horiz-adv-x="489" unicode="s" /><glyph d="M281 -215Q234 -215 193 -203.5Q152 -192 120.5 -169Q89 -146 70 -111Q51 -76 48 -29V-17H175Q176 -61 206.5 -88Q237 -115 288 -115Q334 -115 360.5 -94Q387 -73 387 -38Q387 -7 371 11.5Q355 30 320 42Q295 51 265.5 57.5Q236 64 207 72Q178 80 152 92Q126 104 106 123Q85 144 70.5 174Q56 204 56 239V248Q56 286 67.5 314.5Q79 343 99 364Q81 384 68.5 413Q56 442 56 474V483Q56 532 75.5 566Q95 600 126 621.5Q157 643 196.5 652.5Q236 662 276 662Q320 662 358.5 652Q397 642 427 621.5Q457 601 475.5 569.5Q494 538 497 494V482H375Q373 514 351 538.5Q329 563 279 563Q230 563 208.5 543Q187 523 187 494Q187 458 209 442.5Q231 427 265 418Q306 407 337 398Q368 389 392.5 380Q417 371 435.5 360Q454 349 470 333Q490 313 502 283.5Q514 254 514 219V210Q514 172 503.5 143.5Q493 115 475 92Q492 72 503 44.5Q514 17 514 -15V-24Q514 -78 493 -114.5Q472 -151 439 -173.5Q406 -196 364.5 -205.5Q323 -215 281 -215ZM372 153Q387 170 387 196Q387 218 379 232.5Q371 247 356.5 257Q342 267 321.5 274Q301 281 277 287L209 307Q187 288 187 259Q187 221 212.5 206Q238 191 276 181Q313 171 334 165Q355 159 372 153Z" glyph-name="section" horiz-adv-x="559" unicode="&#167;" /><glyph d="M137 -127H59L105 142H240V128ZM176 315Q142 315 118.5 333Q95 351 95 386V391Q95 426 118.5 444.5Q142 463 176 463Q209 463 233 444.5Q257 426 257 391V386Q257 351 233 333Q209 315 176 315Z" glyph-name="semicolon" horiz-adv-x="324" unicode=";" /><glyph d="M308 405H256V650H320Q337 612 353.5 575.5Q370 539 387 501L454 650H520V405H467Q467 446 467.5 486Q468 526 468 568H467L413 443H362L308 565H307Q307 524 307.5 484.5Q308 445 308 405ZM122 399Q84 399 57 416Q30 433 26 472V476H80Q82 459 93.5 450Q105 441 125 441Q144 441 154 449Q164 457 164 471Q164 485 154.5 491.5Q145 498 133 501Q113 508 88 514.5Q63 521 49 535Q41 543 36 554.5Q31 566 31 580V583Q31 603 39 617Q47 631 59.5 639.5Q72 648 88.5 652Q105 656 121 656Q155 656 182 641Q209 626 212 590V585H160Q158 597 150 605.5Q142 614 122 614Q85 614 85 589Q85 575 95 569Q105 563 117 559Q137 553 161 547Q185 541 200 526Q208 518 213.5 505.5Q219 493 219 480V476Q219 454 210.5 439Q202 424 188 415Q174 406 156.5 402.5Q139 399 122 399Z" glyph-name="servicemark" horiz-adv-x="567" unicode="&#8480;" /><glyph d="M217 0H93V16Q105 85 128.5 158Q152 231 185 300.5Q218 370 261.5 432.5Q305 495 357 541V543H46V650H518V559Q454 496 404.5 432.5Q355 369 318 300.5Q281 232 256.5 158Q232 84 217 0Z" glyph-name="seven" horiz-adv-x="545" unicode="7" /><glyph d="M282 -15Q227 -15 182.5 0Q138 15 106.5 43.5Q75 72 58 112.5Q41 153 41 204V220Q41 279 65.5 341Q90 403 130 458Q145 478 164 503Q183 528 205 554Q227 580 251.5 605Q276 630 301 650H444V634Q419 615 390.5 589.5Q362 564 334.5 535.5Q307 507 282.5 477.5Q258 448 240 421L242 419Q255 424 276.5 427.5Q298 431 319 431Q357 431 395 415.5Q433 400 463 372Q493 344 511.5 304.5Q530 265 530 217V203Q530 152 509.5 111.5Q489 71 454.5 43Q420 15 375.5 0Q331 -15 282 -15ZM286 90Q316 90 338 100.5Q360 111 374.5 127.5Q389 144 396 166Q403 188 403 210Q403 233 396 254Q389 275 374.5 291.5Q360 308 337.5 318Q315 328 284 328Q254 328 232 317.5Q210 307 195.5 290.5Q181 274 174.5 252.5Q168 231 168 209Q168 187 175 165.5Q182 144 196 127Q210 110 232.5 100Q255 90 286 90Z" glyph-name="six" horiz-adv-x="569" unicode="6" /><glyph d="M145 -124H25V-110L361 696H481V682Z" glyph-name="slash" horiz-adv-x="506" unicode="/" /><glyph glyph-name="space" horiz-adv-x="180" unicode=" " /><glyph d="M394 -8Q361 -8 334.5 0Q308 8 284.5 17Q261 26 240 34Q219 42 197 42Q174 42 159.5 33Q145 24 146 0H40Q37 29 43.5 54.5Q50 80 66 100Q82 120 108 132Q134 144 169 145Q173 157 174.5 167.5Q176 178 176 186Q176 227 158 263H54V357H106Q92 383 82 411Q72 439 72 474V486Q72 526 87 559Q102 592 129 615.5Q156 639 194.5 652Q233 665 280 665Q324 665 361 653.5Q398 642 425 618.5Q452 595 467 559Q482 523 482 474V463H367V469Q367 514 347 541.5Q327 569 278 569Q230 569 213 542Q196 515 196 473Q196 442 209 414Q222 386 239 357H410V263H281Q283 248 284.5 232.5Q286 217 286 202Q285 179 282.5 159.5Q280 140 275 123Q306 112 334 103.5Q362 95 391 95Q414 95 429.5 108.5Q445 122 441 154H542V142Q541 116 532.5 89Q524 62 506 40.5Q488 19 460.5 5.5Q433 -8 394 -8Z" glyph-name="sterling" horiz-adv-x="570" unicode="&#163;" /><glyph d="M259 -9Q181 -9 138.5 31Q96 71 96 159V406H28V461Q87 489 116.5 528.5Q146 568 165 613H218V500H345V406H218V148Q218 114 234 103Q250 92 273 92Q293 92 310 98Q327 104 343 115H360V16Q340 5 309.5 -2Q279 -9 259 -9Z" glyph-name="t" horiz-adv-x="387" unicode="t" /><glyph d="M260 -16Q149 -16 91 37Q33 90 31 181V191H153Q163 88 264 88Q318 88 347 118.5Q376 149 376 202Q376 255 343.5 286Q311 317 248 317Q237 317 219.5 316Q202 315 191 313L180 321L168 377L236 456Q252 475 273 499.5Q294 524 314 545V547Q294 545 272 545H59V650H465V573L330 410Q368 403 399 385.5Q430 368 452 342.5Q474 317 486.5 285Q499 253 499 217V208Q499 151 480 109Q461 67 428 39Q395 11 351.5 -2.5Q308 -16 260 -16Z" glyph-name="three" horiz-adv-x="545" unicode="3" /><glyph d="M153 555H69Q69 582 76.5 608Q84 634 98 654Q112 674 134 686.5Q156 699 184 699Q207 699 222.5 692Q238 685 251.5 677Q265 669 278 662Q291 655 308 655Q314 655 321 656Q328 657 333.5 661.5Q339 666 343 675Q347 684 347 700H431Q431 673 423.5 647Q416 621 402 601Q388 581 366.5 568.5Q345 556 316 556Q294 556 278 563Q262 570 248.5 578Q235 586 221.5 593Q208 600 190 600Q185 600 178.5 599Q172 598 166.5 593.5Q161 589 157 580Q153 571 153 555Z" glyph-name="tilde" horiz-adv-x="500" unicode="&#732;" /><glyph d="M308 405H255V650H320L387 501L453 650H520V405H467L468 567H467L413 443H362L308 564H307ZM149 405H94V601H25V650H216V601H149Z" glyph-name="trademark" horiz-adv-x="567" unicode="&#8482;" /><glyph d="M510 0H52V75Q131 142 193 200.5Q255 259 312 326Q341 361 356.5 394Q372 427 372 467Q372 510 346 536.5Q320 563 276 563Q249 563 229 554Q209 545 196 530Q183 515 176.5 496Q170 477 170 457Q170 443 171.5 432.5Q173 422 175 414V398H59Q57 409 53.5 429Q50 449 50 469Q50 516 68.5 552Q87 588 118 613.5Q149 639 190 652Q231 665 275 665Q324 665 365.5 652Q407 639 437 614.5Q467 590 483.5 553Q500 516 500 468V454Q500 406 475 356.5Q450 307 405 257Q370 218 327.5 178Q285 138 253 109V107H510Z" glyph-name="two" horiz-adv-x="570" unicode="2" /><glyph d="M278 -16Q233 -16 193.5 -2Q154 12 124.5 38.5Q95 65 78 104.5Q61 144 61 195V500H181V203Q181 170 189 147.5Q197 125 210 112Q223 99 241 93.5Q259 88 278 88Q298 88 315.5 93.5Q333 99 346 112Q359 125 367 147.5Q375 170 375 203V500H495V195Q495 144 478 104.5Q461 65 431.5 38Q402 11 362.5 -2.5Q323 -16 278 -16Z" glyph-name="u" horiz-adv-x="556" unicode="u" /><glyph d="M278 -16Q233 -16 193.5 -2Q154 12 124.5 38.5Q95 65 78 104.5Q61 144 61 195V500H181V203Q181 170 189 147.5Q197 125 210 112Q223 99 241 93.5Q259 88 278 88Q298 88 315.5 93.5Q333 99 346 112Q359 125 367 147.5Q375 170 375 203V500H495V195Q495 144 478 104.5Q461 65 431.5 38Q402 11 362.5 -2.5Q323 -16 278 -16ZM438 650 179 538 143 607 382 753Z" glyph-name="uacute" horiz-adv-x="556" unicode="&#250;" /><glyph d="M278 -16Q233 -16 193.5 -2Q154 12 124.5 38.5Q95 65 78 104.5Q61 144 61 195V500H181V203Q181 170 189 147.5Q197 125 210 112Q223 99 241 93.5Q259 88 278 88Q298 88 315.5 93.5Q333 99 346 112Q359 125 367 147.5Q375 170 375 203V500H495V195Q495 144 478 104.5Q461 65 431.5 38Q402 11 362.5 -2.5Q323 -16 278 -16ZM277 615 147 539 107 605 265 727H289L448 605L408 539Z" glyph-name="ucircumflex" horiz-adv-x="556" unicode="&#251;" /><glyph d="M278 -16Q233 -16 193.5 -2Q154 12 124.5 38.5Q95 65 78 104.5Q61 144 61 195V500H181V203Q181 170 189 147.5Q197 125 210 112Q223 99 241 93.5Q259 88 278 88Q298 88 315.5 93.5Q333 99 346 112Q359 125 367 147.5Q375 170 375 203V500H495V195Q495 144 478 104.5Q461 65 431.5 38Q402 11 362.5 -2.5Q323 -16 278 -16ZM379 557Q347 557 325 576.5Q303 596 303 629Q303 661 325 681Q347 701 379 701Q411 701 432.5 681Q454 661 454 629Q454 596 432.5 576.5Q411 557 379 557ZM177 557Q145 557 123 576.5Q101 596 101 629Q101 661 123 681Q145 701 177 701Q209 701 230.5 681Q252 661 252 629Q252 596 230.5 576.5Q209 557 177 557Z" glyph-name="udieresis" horiz-adv-x="556" unicode="&#252;" /><glyph d="M278 -16Q233 -16 193.5 -2Q154 12 124.5 38.5Q95 65 78 104.5Q61 144 61 195V500H181V203Q181 170 189 147.5Q197 125 210 112Q223 99 241 93.5Q259 88 278 88Q298 88 315.5 93.5Q333 99 346 112Q359 125 367 147.5Q375 170 375 203V500H495V195Q495 144 478 104.5Q461 65 431.5 38Q402 11 362.5 -2.5Q323 -16 278 -16ZM413 607 377 538 118 650 174 753Z" glyph-name="ugrave" horiz-adv-x="556" unicode="&#249;" /><glyph d="M327 -206H-2V-108H327Z" glyph-name="underscore" horiz-adv-x="325" unicode="_" /><glyph d="M318 0H205L4 485V500H133L236 224Q244 202 253 175Q262 148 268 124H270Q276 148 284.5 174.5Q293 201 301 224L399 500H520V485Z" glyph-name="v" horiz-adv-x="524" unicode="v" /><glyph d="M296 0H178L23 485V500H141L219 232Q226 209 232 179.5Q238 150 242 127H244Q247 150 253.5 179.5Q260 209 267 232L347 500H477L557 232Q564 209 570 179.5Q576 150 580 127H582Q585 150 591.5 179.5Q598 209 605 232L684 500H793V485L638 0H520L432 279Q424 302 418.5 324Q413 346 409 369H407Q403 346 397.5 324Q392 302 384 279Z" glyph-name="w" horiz-adv-x="816" unicode="w" /><glyph d="M146 0H19V15L204 265L46 485V500H179L277 354L377 500H504V485L346 269L533 15V0H400L273 176Z" glyph-name="x" horiz-adv-x="552" unicode="x" /><glyph d="M240 -180H113V-165L200 24L4 485V500H133L237 231Q245 209 253 183.5Q261 158 269 134H271Q279 158 286.5 183Q294 208 302 231L403 500H524V485Z" glyph-name="y" horiz-adv-x="528" unicode="y" /><glyph d="M240 -180H113V-165L200 24L4 485V500H133L237 231Q245 209 253 183.5Q261 158 269 134H271Q279 158 286.5 183Q294 208 302 231L403 500H524V485ZM373 557Q341 557 319 576.5Q297 596 297 629Q297 661 319 681Q341 701 373 701Q405 701 426.5 681Q448 661 448 629Q448 596 426.5 576.5Q405 557 373 557ZM171 557Q139 557 117 576.5Q95 596 95 629Q95 661 117 681Q139 701 171 701Q203 701 224.5 681Q246 661 246 629Q246 596 224.5 576.5Q203 557 171 557Z" glyph-name="ydieresis" horiz-adv-x="528" unicode="&#255;" /><glyph d="M385 0H259V227H53V298H234L198 354H53V425H152L18 634V650H151L326 362L504 650H628V634L492 425H598V354H446L410 298H598V227H385Z" glyph-name="yen" horiz-adv-x="646" unicode="&#165;" /><glyph d="M441 0H43V75L284 404V406H53V500H441V425L197 96V94H441Z" glyph-name="z" horiz-adv-x="494" unicode="z" /><glyph d="M300 -15Q237 -15 189.5 9.5Q142 34 109.5 78Q77 122 61 183Q45 244 45 316V334Q45 407 61 468Q77 529 109.5 572.5Q142 616 189.5 640.5Q237 665 300 665Q363 665 410.5 640.5Q458 616 490.5 572.5Q523 529 539 468Q555 407 555 334V316Q555 244 539 183Q523 122 490.5 78Q458 34 410.5 9.5Q363 -15 300 -15ZM300 94Q338 94 362.5 111Q387 128 401.5 159Q416 190 421.5 232.5Q427 275 427 326Q427 377 421.5 419.5Q416 462 401.5 492Q387 522 362.5 539Q338 556 300 556Q262 556 237.5 539Q213 522 198.5 492Q184 462 178.5 419.5Q173 377 173 326Q173 275 178.5 232.5Q184 190 198.5 159Q213 128 237.5 111Q262 94 300 94Z" glyph-name="zero" horiz-adv-x="600" unicode="0" /></font>
</defs>
</svg>
