<?xml version="1.0" standalone="no"?><!DOCTYPE svg PUBLIC "-//W3C//DTD SVG 1.1//EN" "http://www.w3.org/Graphics/SVG/1.1/DTD/svg11.dtd" ><svg version="1.1" xmlns="http://www.w3.org/2000/svg"><defs><font horiz-adv-x="0" id="font"><font-face ascent="750" bbox="-131 -310 1074 923" cap-height="650" descent="-250" font-family="AT Fabriga Web Black" font-stretch="normal" font-style="normal" font-weight="600" units-per-em="1000" x-height="500" /><missing-glyph horiz-adv-x="180" /><glyph d="M192 0H-6V20L247 650H456L708 20V0H511L474 104H228ZM312 349 275 241H425L387 349Q377 376 367.5 414.5Q358 453 351 482H349Q343 453 332.5 415Q322 377 312 349Z" glyph-name="A" horiz-adv-x="702" unicode="A" /><glyph d="M196 0H-6V19L357 650H932V505H654V403H889V252H654V147H932V0H466V98H247ZM464 513 324 242H466V513Z" glyph-name="AE" horiz-adv-x="970" unicode="&#198;" /><glyph d="M192 0H-6V20L247 650H456L708 20V0H511L474 104H228ZM312 349 275 241H425L387 349Q377 376 367.5 414.5Q358 453 351 482H349Q343 453 332.5 415Q322 377 312 349ZM527 778 240 683 197 789 467 920Z" glyph-name="Aacute" horiz-adv-x="702" unicode="&#193;" /><glyph d="M192 0H-6V20L247 650H456L708 20V0H511L474 104H228ZM312 349 275 241H425L387 349Q377 376 367.5 414.5Q358 453 351 482H349Q343 453 332.5 415Q322 377 312 349ZM353 760 203 671 137 766 339 920H367L565 766L499 671Z" glyph-name="Acircumflex" horiz-adv-x="702" unicode="&#194;" /><glyph d="M192 0H-6V20L247 650H456L708 20V0H511L474 104H228ZM312 349 275 241H425L387 349Q377 376 367.5 414.5Q358 453 351 482H349Q343 453 332.5 415Q322 377 312 349ZM468 699Q429 699 401 723Q373 747 373 789Q373 830 401 854Q429 878 468 878Q508 878 535.5 854Q563 830 563 789Q563 747 535.5 723Q508 699 468 699ZM239 699Q200 699 172 723Q144 747 144 789Q144 830 172 854Q200 878 239 878Q279 878 306.5 854Q334 830 334 789Q334 747 306.5 723Q279 699 239 699Z" glyph-name="Adieresis" horiz-adv-x="702" unicode="&#196;" /><glyph d="M192 0H-6V20L247 650H456L708 20V0H511L474 104H228ZM312 349 275 241H425L387 349Q377 376 367.5 414.5Q358 453 351 482H349Q343 453 332.5 415Q322 377 312 349ZM515 790 472 684 185 779 245 921Z" glyph-name="Agrave" horiz-adv-x="702" unicode="&#192;" /><glyph d="M192 0H-6V20L241 634Q216 665 216 707Q216 732 226 754Q236 776 254 792Q272 808 297 817.5Q322 827 352 827Q382 827 407 817.5Q432 808 449.5 792Q467 776 477 754Q487 732 487 707Q487 682 477 659Q471 646 462 634L708 20V0H511L474 104H228ZM312 349 275 241H425L387 349Q377 376 367.5 414.5Q358 453 351 482H349Q343 453 332.5 415Q322 377 312 349ZM352 664Q371 664 383.5 676.5Q396 689 396 707Q396 725 383.5 737Q371 749 352 749Q334 749 321 736.5Q308 724 308 707Q308 690 321 677Q334 664 352 664Z" glyph-name="Aring" horiz-adv-x="702" unicode="&#197;" /><glyph d="M192 0H-6V20L247 650H456L708 20V0H511L474 104H228ZM312 349 275 241H425L387 349Q377 376 367.5 414.5Q358 453 351 482H349Q343 453 332.5 415Q322 377 312 349ZM277 695H145Q145 731 154 764Q163 797 181 822Q199 847 225.5 861.5Q252 876 286 876Q307 876 320.5 870Q334 864 345.5 856.5Q357 849 368.5 843Q380 837 395 837Q398 837 404 838Q410 839 416 843Q422 847 426.5 855.5Q431 864 431 880H564Q564 844 555 811Q546 778 528.5 753.5Q511 729 485.5 714.5Q460 700 428 700Q406 700 391 706Q376 712 364.5 719.5Q353 727 342 733Q331 739 316 739Q313 739 306.5 738Q300 737 293.5 732.5Q287 728 282 719.5Q277 711 277 695Z" glyph-name="Atilde" horiz-adv-x="702" unicode="&#195;" /><glyph d="M353 0H60V650H326Q382 650 430 641Q478 632 513 611.5Q548 591 568 559Q588 527 588 480V474Q588 426 564.5 388.5Q541 351 499 335V333Q547 321 577.5 282.5Q608 244 608 191V185Q608 138 589.5 103.5Q571 69 537 46Q503 23 456 11.5Q409 0 353 0ZM242 262V134H341Q365 134 379.5 139.5Q394 145 402.5 154Q411 163 413.5 174.5Q416 186 416 197Q416 206 413.5 217.5Q411 229 403 239Q395 249 380.5 255.5Q366 262 342 262ZM242 517V395H331Q349 395 360.5 401.5Q372 408 379.5 417.5Q387 427 390 438.5Q393 450 393 459Q393 482 379.5 499.5Q366 517 333 517Z" glyph-name="B" horiz-adv-x="634" unicode="B" /><glyph d="M370 -15Q295 -15 231.5 9.5Q168 34 122 77.5Q76 121 50 181Q24 241 24 313V338Q24 410 50.5 470Q77 530 123.5 573.5Q170 617 232.5 641Q295 665 368 665Q430 665 486 649Q542 633 586 601.5Q630 570 659 523Q688 476 695 415V401H503Q492 458 460 483.5Q428 509 374 509Q336 509 308 494.5Q280 480 261.5 455Q243 430 234 396.5Q225 363 225 326Q225 289 234 255.5Q243 222 261.5 196.5Q280 171 308 156Q336 141 374 141Q487 141 503 261H695V247Q688 185 659.5 136Q631 87 587.5 53.5Q544 20 488 2.5Q432 -15 370 -15Z" glyph-name="C" horiz-adv-x="713" unicode="C" /><glyph d="M330 -200Q305 -200 273.5 -195.5Q242 -191 222 -183V-101H244Q284 -118 313 -118Q332 -118 343 -112Q354 -106 354 -96Q354 -86 343.5 -78Q333 -70 307 -72L298 -56L318 -12Q272 -6 231 9Q168 34 122 77.5Q76 121 50 181Q24 241 24 313V338Q24 410 50.5 470Q77 530 123.5 573.5Q170 617 232.5 641Q295 665 368 665Q430 665 486 649Q542 633 586 601.5Q630 570 659 523Q688 476 695 415V401H503Q492 458 460 483.5Q428 509 374 509Q336 509 308 494.5Q280 480 261.5 455Q243 430 234 396.5Q225 363 225 326Q225 289 234 255.5Q243 222 261.5 196.5Q280 171 308 156Q336 141 374 141Q487 141 503 261H695V247Q688 185 659.5 136Q631 87 587.5 53.5Q544 20 488 2Q452 -8 414 -13L404 -45Q433 -52 455 -67.5Q477 -83 477 -113Q477 -138 463.5 -154.5Q450 -171 428.5 -181Q407 -191 381 -195.5Q355 -200 330 -200Z" glyph-name="Ccedilla" horiz-adv-x="713" unicode="&#199;" /><glyph d="M370 0H60V650H372Q428 650 483 632Q538 614 582 576.5Q626 539 653 481.5Q680 424 680 344V319Q680 238 652.5 178Q625 118 581 78.5Q537 39 481.5 19.5Q426 0 370 0ZM255 508V142H354Q424 142 451 192.5Q478 243 478 330Q478 416 448.5 462Q419 508 358 508Z" glyph-name="D" horiz-adv-x="704" unicode="D" /><glyph d="M530 0H60V650H529V504H252V400H487V258H252V149H530Z" glyph-name="E" horiz-adv-x="568" unicode="E" /><glyph d="M530 0H60V650H529V504H252V400H487V258H252V149H530ZM467 778 180 683 137 789 407 920Z" glyph-name="Eacute" horiz-adv-x="568" unicode="&#201;" /><glyph d="M530 0H60V650H529V504H252V400H487V258H252V149H530ZM295 760 145 671 79 766 281 920H309L507 766L441 671Z" glyph-name="Ecircumflex" horiz-adv-x="568" unicode="&#202;" /><glyph d="M530 0H60V650H529V504H252V400H487V258H252V149H530ZM402 699Q363 699 335 723Q307 747 307 789Q307 830 335 854Q363 878 402 878Q442 878 469.5 854Q497 830 497 789Q497 747 469.5 723Q442 699 402 699ZM173 699Q134 699 106 723Q78 747 78 789Q78 830 106 854Q134 878 173 878Q213 878 240.5 854Q268 830 268 789Q268 747 240.5 723Q213 699 173 699Z" glyph-name="Edieresis" horiz-adv-x="568" unicode="&#203;" /><glyph d="M530 0H60V650H529V504H252V400H487V258H252V149H530ZM438 790 395 684 108 779 168 921Z" glyph-name="Egrave" horiz-adv-x="568" unicode="&#200;" /><glyph d="M406 -15Q352 -15 304.5 1.5Q257 18 218 48Q179 78 150.5 120.5Q122 163 108 216H2L23 305H97Q96 312 96 322Q96 332 97 337H29L50 425H105Q118 480 146 524Q174 568 213.5 599.5Q253 631 302 648Q351 665 406 665Q460 665 508 649.5Q556 634 593.5 604Q631 574 655 530Q679 486 685 429V415H505Q500 463 475 489Q450 515 409 515Q370 515 344.5 491.5Q319 468 308 425H462L441 337H296Q295 332 295 329V314Q295 311 296 305H435L414 216H312Q322 178 348.5 156.5Q375 135 411 135Q493 135 506 235H685V222Q678 163 654 118.5Q630 74 593 44.5Q556 15 508 0Q460 -15 406 -15Z" glyph-name="Euro" horiz-adv-x="707" unicode="&#8364;" /><glyph d="M252 0H60V650H539V502H250V382H497V240H252Z" glyph-name="F" horiz-adv-x="558" unicode="F" /><glyph d="M392 -15Q310 -15 242 8.5Q174 32 125.5 75Q77 118 50.5 178Q24 238 24 310V331Q24 408 52 469.5Q80 531 128 574.5Q176 618 239 641.5Q302 665 372 665Q433 665 487 652.5Q541 640 583 614Q625 588 652 546.5Q679 505 687 448V432H496Q486 469 459.5 490Q433 511 381 511Q304 511 264.5 461.5Q225 412 225 324Q225 237 272 189.5Q319 142 395 142Q437 142 467 149Q497 156 520 169V227H369V364H702V115Q680 87 647 63Q614 39 573.5 21.5Q533 4 486.5 -5.5Q440 -15 392 -15Z" glyph-name="G" horiz-adv-x="737" unicode="G" /><glyph d="M252 0H60V650H252V404H481V650H673V0H481V253H252Z" glyph-name="H" horiz-adv-x="733" unicode="H" /><glyph d="M252 0H60V650H252Z" glyph-name="I" horiz-adv-x="312" unicode="I" /><glyph d="M252 0H60V650H252ZM319 778 32 683 -11 789 259 920Z" glyph-name="Iacute" horiz-adv-x="312" unicode="&#205;" /><glyph d="M252 0H60V650H252ZM155 759 5 670 -61 765 141 919H169L367 765L301 670Z" glyph-name="Icircumflex" horiz-adv-x="312" unicode="&#206;" /><glyph d="M252 0H60V650H252ZM272 699Q233 699 205 723Q177 747 177 789Q177 830 205 854Q233 878 272 878Q312 878 339.5 854Q367 830 367 789Q367 747 339.5 723Q312 699 272 699ZM43 699Q4 699 -24 723Q-52 747 -52 789Q-52 830 -24 854Q4 878 43 878Q83 878 110.5 854Q138 830 138 789Q138 747 110.5 723Q83 699 43 699Z" glyph-name="Idieresis" horiz-adv-x="312" unicode="&#207;" /><glyph d="M252 0H60V650H252ZM303 790 260 684 -27 779 33 921Z" glyph-name="Igrave" horiz-adv-x="312" unicode="&#204;" /><glyph d="M135 -15Q100 -15 67 -9Q34 -3 10 8V160H30Q49 149 74 146Q99 143 122 143Q164 143 186 159.5Q208 176 208 222V650H397V212Q397 103 332 44Q267 -15 135 -15Z" glyph-name="J" horiz-adv-x="457" unicode="J" /><glyph d="M253 0H60V650H253V396L460 650H664V630L433 344L677 20V0H462L253 280Z" glyph-name="K" horiz-adv-x="691" unicode="K" /><glyph d="M520 0H60V650H252V151H520Z" glyph-name="L" horiz-adv-x="548" unicode="L" /><glyph d="M219 0H32V20L129 650H334L495 258L657 650H859L951 20V0H761L727 265Q725 279 723.5 301Q722 323 721 349.5Q720 376 720.5 404.5Q721 433 722 459H720Q713 408 702.5 368.5Q692 329 679 299L565 21H417L301 299Q288 329 277.5 368.5Q267 408 260 459H258Q260 433 260 404.5Q260 376 259 349.5Q258 323 256.5 301Q255 279 253 265Z" glyph-name="M" horiz-adv-x="983" unicode="M" /><glyph d="M243 0H60V650H243L425 405Q439 386 451.5 366Q464 346 474 329.5Q484 313 491 300.5Q498 288 501 283H503Q500 312 498 342Q496 369 494.5 396.5Q493 424 493 447V650H673V0H498L307 263Q295 280 283 299.5Q271 319 261.5 336Q252 353 244.5 366.5Q237 380 234 386H232L238 330Q240 305 241.5 280.5Q243 256 243 237Z" glyph-name="N" horiz-adv-x="733" unicode="N" /><glyph glyph-name="NULL" horiz-adv-x="0" /><glyph d="M243 0H60V650H243L425 405Q439 386 451.5 366Q464 346 474 329.5Q484 313 491 300.5Q498 288 501 283H503Q500 312 498 342Q496 369 494.5 396.5Q493 424 493 447V650H673V0H498L307 263Q295 280 283 299.5Q271 319 261.5 336Q252 353 244.5 366.5Q237 380 234 386H232L238 330Q240 305 241.5 280.5Q243 256 243 237ZM284 695H152Q152 731 161 764Q170 797 188 822Q206 847 232.5 861.5Q259 876 293 876Q314 876 327.5 870Q341 864 352.5 856.5Q364 849 375.5 843Q387 837 402 837Q405 837 411 838Q417 839 423 843Q429 847 433.5 855.5Q438 864 438 880H571Q571 844 562 811Q553 778 535.5 753.5Q518 729 492.5 714.5Q467 700 435 700Q413 700 398 706Q383 712 371.5 719.5Q360 727 349 733Q338 739 323 739Q320 739 313.5 738Q307 737 300.5 732.5Q294 728 289 719.5Q284 711 284 695Z" glyph-name="Ntilde" horiz-adv-x="733" unicode="&#209;" /><glyph d="M379 -15Q304 -15 239 9Q174 33 126.5 76Q79 119 51.5 179.5Q24 240 24 313V337Q24 410 51.5 470.5Q79 531 127 574Q175 617 239.5 641Q304 665 379 665Q453 665 517 641Q581 617 628.5 574Q676 531 703.5 470.5Q731 410 731 337V313Q731 240 703.5 179.5Q676 119 628.5 76Q581 33 517 9Q453 -15 379 -15ZM379 143Q414 143 441 157Q468 171 487 196Q506 221 515.5 254Q525 287 525 325Q525 363 516 396Q507 429 488.5 454Q470 479 442.5 493Q415 507 378 507Q341 507 313 493Q285 479 266.5 454Q248 429 239 396Q230 363 230 325Q230 287 240 254Q250 221 268.5 196Q287 171 315 157Q343 143 379 143Z" glyph-name="O" horiz-adv-x="755" unicode="O" /><glyph d="M379 -15Q304 -15 239 9Q174 33 126.5 76Q79 119 51.5 179.5Q24 240 24 313V337Q24 410 51.5 470.5Q79 531 127 574Q175 617 239.5 641Q304 665 379 665Q437 665 489 650H1005V504H728V400H963V258H728V149H1006V0H489Q437 -15 379 -15ZM379 143Q414 143 441 157Q468 171 487 196Q506 221 515.5 254Q525 287 525 325Q525 363 516 396Q507 429 488.5 454Q470 479 442.5 493Q415 507 378 507Q341 507 313 493Q285 479 266.5 454Q248 429 239 396Q230 363 230 325Q230 287 240 254Q250 221 268.5 196Q287 171 315 157Q343 143 379 143Z" glyph-name="OE" horiz-adv-x="1044" unicode="&#338;" /><glyph d="M379 -15Q304 -15 239 9Q174 33 126.5 76Q79 119 51.5 179.5Q24 240 24 313V337Q24 410 51.5 470.5Q79 531 127 574Q175 617 239.5 641Q304 665 379 665Q453 665 517 641Q581 617 628.5 574Q676 531 703.5 470.5Q731 410 731 337V313Q731 240 703.5 179.5Q676 119 628.5 76Q581 33 517 9Q453 -15 379 -15ZM379 143Q414 143 441 157Q468 171 487 196Q506 221 515.5 254Q525 287 525 325Q525 363 516 396Q507 429 488.5 454Q470 479 442.5 493Q415 507 378 507Q341 507 313 493Q285 479 266.5 454Q248 429 239 396Q230 363 230 325Q230 287 240 254Q250 221 268.5 196Q287 171 315 157Q343 143 379 143ZM543 778 256 683 213 789 483 920Z" glyph-name="Oacute" horiz-adv-x="755" unicode="&#211;" /><glyph d="M379 -15Q304 -15 239 9Q174 33 126.5 76Q79 119 51.5 179.5Q24 240 24 313V337Q24 410 51.5 470.5Q79 531 127 574Q175 617 239.5 641Q304 665 379 665Q453 665 517 641Q581 617 628.5 574Q676 531 703.5 470.5Q731 410 731 337V313Q731 240 703.5 179.5Q676 119 628.5 76Q581 33 517 9Q453 -15 379 -15ZM379 143Q414 143 441 157Q468 171 487 196Q506 221 515.5 254Q525 287 525 325Q525 363 516 396Q507 429 488.5 454Q470 479 442.5 493Q415 507 378 507Q341 507 313 493Q285 479 266.5 454Q248 429 239 396Q230 363 230 325Q230 287 240 254Q250 221 268.5 196Q287 171 315 157Q343 143 379 143ZM373 760 223 671 157 766 359 920H387L585 766L519 671Z" glyph-name="Ocircumflex" horiz-adv-x="755" unicode="&#212;" /><glyph d="M379 -15Q304 -15 239 9Q174 33 126.5 76Q79 119 51.5 179.5Q24 240 24 313V337Q24 410 51.5 470.5Q79 531 127 574Q175 617 239.5 641Q304 665 379 665Q453 665 517 641Q581 617 628.5 574Q676 531 703.5 470.5Q731 410 731 337V313Q731 240 703.5 179.5Q676 119 628.5 76Q581 33 517 9Q453 -15 379 -15ZM379 143Q414 143 441 157Q468 171 487 196Q506 221 515.5 254Q525 287 525 325Q525 363 516 396Q507 429 488.5 454Q470 479 442.5 493Q415 507 378 507Q341 507 313 493Q285 479 266.5 454Q248 429 239 396Q230 363 230 325Q230 287 240 254Q250 221 268.5 196Q287 171 315 157Q343 143 379 143ZM485 699Q446 699 418 723Q390 747 390 789Q390 830 418 854Q446 878 485 878Q525 878 552.5 854Q580 830 580 789Q580 747 552.5 723Q525 699 485 699ZM256 699Q217 699 189 723Q161 747 161 789Q161 830 189 854Q217 878 256 878Q296 878 323.5 854Q351 830 351 789Q351 747 323.5 723Q296 699 256 699Z" glyph-name="Odieresis" horiz-adv-x="755" unicode="&#214;" /><glyph d="M379 -15Q304 -15 239 9Q174 33 126.5 76Q79 119 51.5 179.5Q24 240 24 313V337Q24 410 51.5 470.5Q79 531 127 574Q175 617 239.5 641Q304 665 379 665Q453 665 517 641Q581 617 628.5 574Q676 531 703.5 470.5Q731 410 731 337V313Q731 240 703.5 179.5Q676 119 628.5 76Q581 33 517 9Q453 -15 379 -15ZM379 143Q414 143 441 157Q468 171 487 196Q506 221 515.5 254Q525 287 525 325Q525 363 516 396Q507 429 488.5 454Q470 479 442.5 493Q415 507 378 507Q341 507 313 493Q285 479 266.5 454Q248 429 239 396Q230 363 230 325Q230 287 240 254Q250 221 268.5 196Q287 171 315 157Q343 143 379 143ZM525 790 482 684 195 779 255 921Z" glyph-name="Ograve" horiz-adv-x="755" unicode="&#210;" /><glyph d="M379 -15Q347 -15 317 -10L294 -65H131V-50L170 42Q147 57 126 76Q79 119 51.5 179.5Q24 240 24 313V337Q24 410 51.5 470.5Q79 531 127 574Q175 617 239.5 641Q304 665 379 665Q408 665 436 661L459 715H623V700L583 608Q608 593 628 574Q676 531 703.5 470.5Q731 410 731 337V313Q731 240 703.5 179.5Q676 119 628.5 76Q581 33 517 9Q453 -15 379 -15ZM440 157Q468 171 486.5 196Q505 221 515 254Q525 287 525 325Q525 363 516 396Q511 412 505 426L383 143Q415 144 440 157ZM312 493Q285 479 266.5 454Q248 429 239 396Q230 363 230 325Q230 287 239 254Q244 239 249 226L370 507Q337 505 312 493Z" glyph-name="Oslash" horiz-adv-x="755" unicode="&#216;" /><glyph d="M379 -15Q304 -15 239 9Q174 33 126.5 76Q79 119 51.5 179.5Q24 240 24 313V337Q24 410 51.5 470.5Q79 531 127 574Q175 617 239.5 641Q304 665 379 665Q453 665 517 641Q581 617 628.5 574Q676 531 703.5 470.5Q731 410 731 337V313Q731 240 703.5 179.5Q676 119 628.5 76Q581 33 517 9Q453 -15 379 -15ZM379 143Q414 143 441 157Q468 171 487 196Q506 221 515.5 254Q525 287 525 325Q525 363 516 396Q507 429 488.5 454Q470 479 442.5 493Q415 507 378 507Q341 507 313 493Q285 479 266.5 454Q248 429 239 396Q230 363 230 325Q230 287 240 254Q250 221 268.5 196Q287 171 315 157Q343 143 379 143ZM295 695H163Q163 731 172 764Q181 797 199 822Q217 847 243.5 861.5Q270 876 304 876Q325 876 338.5 870Q352 864 363.5 856.5Q375 849 386.5 843Q398 837 413 837Q416 837 422 838Q428 839 434 843Q440 847 444.5 855.5Q449 864 449 880H582Q582 844 573 811Q564 778 546.5 753.5Q529 729 503.5 714.5Q478 700 446 700Q424 700 409 706Q394 712 382.5 719.5Q371 727 360 733Q349 739 334 739Q331 739 324.5 738Q318 737 311.5 732.5Q305 728 300 719.5Q295 711 295 695Z" glyph-name="Otilde" horiz-adv-x="755" unicode="&#213;" /><glyph d="M254 0H60V650H375Q426 650 473 635Q520 620 556 590.5Q592 561 613 518Q634 475 634 418V401Q634 347 615 305Q596 263 561.5 234Q527 205 479.5 189.5Q432 174 375 174H254ZM254 510V316H347Q399 316 419.5 344.5Q440 373 440 412Q440 459 419 484.5Q398 510 347 510Z" glyph-name="P" horiz-adv-x="645" unicode="P" /><glyph d="M691 -126H488L384 -15H379Q304 -15 239 9Q174 33 126.5 76Q79 119 51.5 179.5Q24 240 24 313V337Q24 410 51.5 470.5Q79 531 127 574Q175 617 239.5 641Q304 665 379 665Q453 665 517 641Q581 617 628.5 574Q676 531 703.5 470.5Q731 410 731 337V313Q731 217 685.5 144.5Q640 72 565 30L691 -106ZM379 143Q414 143 441 157Q468 171 487 196Q506 221 515.5 254Q525 287 525 325Q525 363 516 396Q507 429 488.5 454Q470 479 442.5 493Q415 507 378 507Q341 507 313 493Q285 479 266.5 454Q248 429 239 396Q230 363 230 325Q230 287 240 254Q250 221 268.5 196Q287 171 315 157Q343 143 379 143Z" glyph-name="Q" horiz-adv-x="755" unicode="Q" /><glyph d="M252 0H60V650H348Q404 650 453.5 637Q503 624 540 597.5Q577 571 598 532Q619 493 619 441V424Q619 362 583.5 312.5Q548 263 485 240L649 20V0H444L284 228H252ZM252 510V351H345Q371 351 388 359Q405 367 415 379.5Q425 392 429 406Q433 420 433 432Q433 445 429.5 458.5Q426 472 417 483.5Q408 495 392 502.5Q376 510 350 510Z" glyph-name="R" horiz-adv-x="645" unicode="R" /><glyph d="M297 -15Q243 -15 195.5 -4Q148 7 112 31.5Q76 56 53.5 95.5Q31 135 27 192V209H216Q216 157 242 138.5Q268 120 305 120Q340 120 358.5 133.5Q377 147 377 172Q377 181 373.5 191Q370 201 362 209Q344 227 311 236.5Q278 246 240 256Q202 266 163 280.5Q124 295 93 325Q70 348 55.5 380Q41 412 41 447V459Q41 515 63 553.5Q85 592 120.5 616Q156 640 201 651Q246 662 292 662Q345 662 390.5 651.5Q436 641 470.5 618.5Q505 596 526 559.5Q547 523 550 471V454H371Q369 486 353.5 506Q338 526 297 526Q263 526 248 512Q233 498 233 478Q233 459 247 445Q263 429 295.5 420.5Q328 412 366.5 402Q405 392 445.5 375.5Q486 359 519 326Q539 306 552.5 273Q566 240 566 208V195Q566 136 542.5 95.5Q519 55 481 30.5Q443 6 395 -4.5Q347 -15 297 -15Z" glyph-name="S" horiz-adv-x="590" unicode="S" /><glyph d="M393 0H201V499H20V650H566V499H393Z" glyph-name="T" horiz-adv-x="586" unicode="T" /><glyph d="M348 -15Q203 -15 130 55Q57 125 57 257V650H252V228Q252 187 279.5 165Q307 143 352 143Q390 143 419 164.5Q448 186 448 228V650H637V257Q637 125 564.5 55Q492 -15 348 -15Z" glyph-name="U" horiz-adv-x="694" unicode="U" /><glyph d="M348 -15Q203 -15 130 55Q57 125 57 257V650H252V228Q252 187 279.5 165Q307 143 352 143Q390 143 419 164.5Q448 186 448 228V650H637V257Q637 125 564.5 55Q492 -15 348 -15ZM507 778 220 683 177 789 447 920Z" glyph-name="Uacute" horiz-adv-x="694" unicode="&#218;" /><glyph d="M348 -15Q203 -15 130 55Q57 125 57 257V650H252V228Q252 187 279.5 165Q307 143 352 143Q390 143 419 164.5Q448 186 448 228V650H637V257Q637 125 564.5 55Q492 -15 348 -15ZM356 763 206 674 140 769 342 923H370L568 769L502 674Z" glyph-name="Ucircumflex" horiz-adv-x="694" unicode="&#219;" /><glyph d="M348 -15Q203 -15 130 55Q57 125 57 257V650H252V228Q252 187 279.5 165Q307 143 352 143Q390 143 419 164.5Q448 186 448 228V650H637V257Q637 125 564.5 55Q492 -15 348 -15ZM463 699Q424 699 396 723Q368 747 368 789Q368 830 396 854Q424 878 463 878Q503 878 530.5 854Q558 830 558 789Q558 747 530.5 723Q503 699 463 699ZM234 699Q195 699 167 723Q139 747 139 789Q139 830 167 854Q195 878 234 878Q274 878 301.5 854Q329 830 329 789Q329 747 301.5 723Q274 699 234 699Z" glyph-name="Udieresis" horiz-adv-x="694" unicode="&#220;" /><glyph d="M348 -15Q203 -15 130 55Q57 125 57 257V650H252V228Q252 187 279.5 165Q307 143 352 143Q390 143 419 164.5Q448 186 448 228V650H637V257Q637 125 564.5 55Q492 -15 348 -15ZM508 790 465 684 178 779 238 921Z" glyph-name="Ugrave" horiz-adv-x="694" unicode="&#217;" /><glyph d="M436 0H251L-6 630V650H199L313 337Q321 317 330 285Q339 253 347 221H349Q357 253 366.5 285Q376 317 383 337L492 650H695V630Z" glyph-name="V" horiz-adv-x="689" unicode="V" /><glyph d="M368 0H188L-12 630V650H189L269 356Q272 344 275.5 325Q279 306 282 285.5Q285 265 287.5 246Q290 227 291 216H293Q294 227 296 246Q298 265 301 285.5Q304 306 307.5 325Q311 344 314 356L393 650H577L660 356Q663 344 666.5 325Q670 306 673 285.5Q676 265 678.5 246Q681 227 682 216H684Q686 227 688 246Q690 265 693 285.5Q696 306 699 325Q702 344 705 356L781 650H974V630L777 0H594L483 374H481Z" glyph-name="W" horiz-adv-x="962" unicode="W" /><glyph d="M215 0H4V20L235 347L35 630V650H251L353 486L455 650H660V630L462 351L691 20V0H474L346 199Z" glyph-name="X" horiz-adv-x="695" unicode="X" /><glyph d="M417 0H225V266L-12 630V650H202L328 429L453 650H654V630L417 267Z" glyph-name="Y" horiz-adv-x="642" unicode="Y" /><glyph d="M417 0H225V266L-12 630V650H202L328 429L453 650H654V630L417 267ZM444 698Q405 698 377 722Q349 746 349 788Q349 829 377 853Q405 877 444 877Q484 877 511.5 853Q539 829 539 788Q539 746 511.5 722Q484 698 444 698ZM215 698Q176 698 148 722Q120 746 120 788Q120 829 148 853Q176 877 215 877Q255 877 282.5 853Q310 829 310 788Q310 746 282.5 722Q255 698 215 698Z" glyph-name="Ydieresis" horiz-adv-x="642" unicode="&#376;" /><glyph d="M571 0H37V100L315 498V500H54V650H580V551L303 152V150H571Z" glyph-name="Z" horiz-adv-x="604" unicode="Z" /><glyph d="M251 -15Q207 -15 166 2.5Q125 20 93.5 53Q62 86 43 133Q24 180 24 238V258Q24 309 40.5 356Q57 403 88 438Q119 473 162 494Q205 515 257 515Q309 515 346.5 498Q384 481 409 442H411L431 500H562V0H424L403 62H401Q375 24 338.5 4.5Q302 -15 251 -15ZM299 135Q343 135 364 168Q385 201 385 249Q385 299 364 333Q343 367 299 367Q256 367 235.5 334Q215 301 215 253Q215 203 235 169Q255 135 299 135Z" glyph-name="a" horiz-adv-x="612" unicode="a" /><glyph d="M251 -15Q207 -15 166 2.5Q125 20 93.5 53Q62 86 43 133Q24 180 24 238V258Q24 309 40.5 356Q57 403 88 438Q119 473 162 494Q205 515 257 515Q309 515 346.5 498Q384 481 409 442H411L431 500H562V0H424L403 62H401Q375 24 338.5 4.5Q302 -15 251 -15ZM299 135Q343 135 364 168Q385 201 385 249Q385 299 364 333Q343 367 299 367Q256 367 235.5 334Q215 301 215 253Q215 203 235 169Q255 135 299 135ZM436 627 149 532 106 638 376 769Z" glyph-name="aacute" horiz-adv-x="612" unicode="&#225;" /><glyph d="M251 -15Q207 -15 166 2.5Q125 20 93.5 53Q62 86 43 133Q24 180 24 238V258Q24 309 40.5 356Q57 403 88 438Q119 473 162 494Q205 515 257 515Q309 515 346.5 498Q384 481 409 442H411L431 500H562V0H424L403 62H401Q375 24 338.5 4.5Q302 -15 251 -15ZM299 135Q343 135 364 168Q385 201 385 249Q385 299 364 333Q343 367 299 367Q256 367 235.5 334Q215 301 215 253Q215 203 235 169Q255 135 299 135ZM297 609 147 520 81 615 283 769H311L509 615L443 520Z" glyph-name="acircumflex" horiz-adv-x="612" unicode="&#226;" /><glyph d="M425 628 138 533 95 639 365 770Z" glyph-name="acute" horiz-adv-x="500" unicode="&#180;" /><glyph d="M251 -15Q207 -15 166 2.5Q125 20 93.5 53Q62 86 43 133Q24 180 24 238V258Q24 309 40.5 356Q57 403 88 438Q119 473 162 494Q205 515 257 515Q309 515 346.5 498Q384 481 409 442H411L431 500H562V0H424L403 62H401Q375 24 338.5 4.5Q302 -15 251 -15ZM299 135Q343 135 364 168Q385 201 385 249Q385 299 364 333Q343 367 299 367Q256 367 235.5 334Q215 301 215 253Q215 203 235 169Q255 135 299 135ZM404 549Q365 549 337 573Q309 597 309 639Q309 680 337 704Q365 728 404 728Q444 728 471.5 704Q499 680 499 639Q499 597 471.5 573Q444 549 404 549ZM175 549Q136 549 108 573Q80 597 80 639Q80 680 108 704Q136 728 175 728Q215 728 242.5 704Q270 680 270 639Q270 597 242.5 573Q215 549 175 549Z" glyph-name="adieresis" horiz-adv-x="612" unicode="&#228;" /><glyph d="M583 -16Q530 -16 482 0.5Q434 17 397 49Q367 21 322.5 3Q278 -15 206 -15Q174 -15 139.5 -7Q105 1 76 19Q47 37 28 67Q9 97 9 142V152Q9 180 22 206Q35 232 53 250Q71 268 96 280Q121 292 148 299.5Q175 307 202.5 310Q230 313 254 313Q289 313 317 307V327Q317 361 304.5 378.5Q292 396 258 396Q227 396 212 379.5Q197 363 195 342H37V355Q37 393 56 423Q75 453 106.5 473.5Q138 494 178 505Q218 516 260 516Q312 516 353 506Q394 496 428 465Q482 516 575 516Q620 516 665 502.5Q710 489 746 459Q782 429 804.5 382Q827 335 827 267V239Q827 225 825 212H501Q504 172 526.5 145.5Q549 119 588 119Q609 119 629.5 128.5Q650 138 658 164H824Q816 118 792.5 84.5Q769 51 736.5 28.5Q704 6 664 -5Q624 -16 583 -16ZM253 116Q270 116 292 126.5Q314 137 328 154Q321 176 318 205Q304 208 289 210Q274 212 258 212Q246 212 234 209.5Q222 207 212.5 201.5Q203 196 196.5 186.5Q190 177 190 162Q190 140 207 127.5Q224 115 253 116ZM648 316Q648 349 630 372.5Q612 396 579 396Q542 396 524.5 372.5Q507 349 504 316Z" glyph-name="ae" horiz-adv-x="851" unicode="&#230;" /><glyph d="M251 -15Q207 -15 166 2.5Q125 20 93.5 53Q62 86 43 133Q24 180 24 238V258Q24 309 40.5 356Q57 403 88 438Q119 473 162 494Q205 515 257 515Q309 515 346.5 498Q384 481 409 442H411L431 500H562V0H424L403 62H401Q375 24 338.5 4.5Q302 -15 251 -15ZM299 135Q343 135 364 168Q385 201 385 249Q385 299 364 333Q343 367 299 367Q256 367 235.5 334Q215 301 215 253Q215 203 235 169Q255 135 299 135ZM417 640 374 534 87 629 147 771Z" glyph-name="agrave" horiz-adv-x="612" unicode="&#224;" /><glyph d="M729 6 549 -16Q531 -7 516.5 2.5Q502 12 490 21Q454 4 410 -5.5Q366 -15 315 -15Q267 -15 221.5 -6Q176 3 139 24.5Q102 46 78.5 81.5Q55 117 51 170V185Q53 239 86.5 290Q120 341 180 376Q157 407 140.5 442.5Q124 478 124 514V527Q124 562 137.5 593Q151 624 175.5 646.5Q200 669 236 682Q272 695 317 695Q359 695 394.5 682.5Q430 670 455 649Q480 628 494 599.5Q508 571 508 539V528Q508 486 477 439Q446 392 389 357Q405 335 424.5 310Q444 285 464 262Q474 251 483.5 240Q493 229 503 219Q505 226 506 234.5Q507 243 507 251Q507 277 495 309.5Q483 342 469 362V379H615Q637 352 647 316.5Q657 281 657 251Q657 216 646 180Q635 144 612 112Q640 86 669.5 62.5Q699 39 729 22ZM315 122Q323 122 341.5 124Q360 126 371 128Q362 137 353 147.5Q344 158 335 169Q316 190 298.5 212.5Q281 235 267 255Q250 244 239 227.5Q228 211 228 194Q228 175 235.5 161.5Q243 148 255.5 139Q268 130 283.5 126Q299 122 315 122ZM310 455Q342 473 353 493Q364 513 364 534Q364 553 354.5 567.5Q345 582 325 582Q305 582 293.5 568.5Q282 555 282 534Q282 494 310 455Z" glyph-name="ampersand" horiz-adv-x="733" unicode="&amp;" /><glyph d="M80 336H72V486Q104 503 144.5 512.5Q185 522 237 522Q266 522 294.5 518Q323 514 352 509.5Q381 505 410 501Q439 497 467 497Q512 497 551.5 504.5Q591 512 628 529L635 530V381Q603 364 561.5 353.5Q520 343 466 343Q438 343 408.5 346.5Q379 350 350 354.5Q321 359 292.5 362.5Q264 366 236 366Q198 366 159 359.5Q120 353 80 336ZM80 99H72V248Q104 265 144.5 274Q185 283 237 283Q266 283 294.5 279.5Q323 276 352 271.5Q381 267 410 263Q439 259 467 259Q512 259 551.5 266.5Q591 274 628 291L635 292V144Q603 127 561.5 116.5Q520 106 466 106Q438 106 408.5 109.5Q379 113 350 117.5Q321 122 292.5 125.5Q264 129 236 129Q198 129 159 122.5Q120 116 80 99Z" glyph-name="approxequal" horiz-adv-x="707" unicode="&#8776;" /><glyph d="M251 -15Q207 -15 166 2.5Q125 20 93.5 53Q62 86 43 133Q24 180 24 238V258Q24 309 40.5 356Q57 403 88 438Q119 473 162 494L171 498Q148 528 148 568Q148 593 158 615Q168 637 186 653Q204 669 229 678.5Q254 688 284 688Q314 688 339 678.5Q364 669 381.5 653Q399 637 409 615Q419 593 419 568Q419 543 409 520.5Q399 498 381 482L377 478Q395 463 409 442H411L431 500H562V0H424L403 62H401Q375 24 338.5 4.5Q302 -15 251 -15ZM299 135Q343 135 364 168Q385 201 385 249Q385 299 364 333Q343 367 299 367Q256 367 235.5 334Q215 301 215 253Q215 203 235 169Q255 135 299 135ZM284 525Q303 525 315.5 537.5Q328 550 328 568Q328 586 315.5 598Q303 610 284 610Q266 610 253 597.5Q240 585 240 568Q240 551 253 538Q266 525 284 525Z" glyph-name="aring" horiz-adv-x="612" unicode="&#229;" /><glyph d="M160 348H4L183 650H312L488 349H328L244 498Z" glyph-name="asciicircum" horiz-adv-x="492" unicode="^" /><glyph d="M43 200V331Q82 355 122.5 367Q163 379 199 379Q234 379 267 371Q300 363 332 354Q364 345 396.5 337Q429 329 463 329Q500 329 539 341.5Q578 354 618 380V249Q580 225 541 213.5Q502 202 464 202Q430 202 397.5 209.5Q365 217 332.5 225.5Q300 234 268 241.5Q236 249 201 249Q163 249 122.5 237Q82 225 43 200Z" glyph-name="asciitilde" horiz-adv-x="661" unicode="~" /><glyph d="M220 462 164 363 72 428 153 506 42 524 73 630 180 581 164 696H278L260 580L365 629L397 523L287 508L365 429L277 363Z" glyph-name="asterisk" horiz-adv-x="440" unicode="*" /><glyph d="M401 -73Q321 -73 252 -48Q183 -23 132.5 22Q82 67 53 130Q24 193 24 269Q24 337 49.5 397.5Q75 458 122.5 503.5Q170 549 238 575.5Q306 602 391 602Q470 602 533 581.5Q596 561 640.5 523Q685 485 708.5 431.5Q732 378 732 312Q732 261 716.5 222Q701 183 675 156.5Q649 130 615 116.5Q581 103 543 103Q508 103 482 120Q456 137 445 165Q423 136 394 122.5Q365 109 334 109Q310 109 287 118Q264 127 246 144Q228 161 217 186Q206 211 206 244Q206 276 216 307.5Q226 339 246.5 364Q267 389 297 405Q327 421 366 421Q431 421 454 375L473 412H551L523 242Q519 222 525.5 203.5Q532 185 552 185Q583 185 607 217Q631 249 631 309Q631 404 567.5 453.5Q504 503 392 503Q332 503 285 483.5Q238 464 205.5 431.5Q173 399 156 356Q139 313 139 266Q139 212 159 167.5Q179 123 214.5 91.5Q250 60 298 42.5Q346 25 403 25Q450 25 504.5 34Q559 43 605 66H621V-32Q576 -53 523 -63Q470 -73 401 -73ZM363 198Q390 198 406.5 222.5Q423 247 423 282Q423 305 413.5 319.5Q404 334 381 334Q368 334 357.5 326.5Q347 319 339.5 307.5Q332 296 328 281Q324 266 324 251Q324 229 333.5 213.5Q343 198 363 198Z" glyph-name="at" horiz-adv-x="756" unicode="@" /><glyph d="M251 -15Q207 -15 166 2.5Q125 20 93.5 53Q62 86 43 133Q24 180 24 238V258Q24 309 40.5 356Q57 403 88 438Q119 473 162 494Q205 515 257 515Q309 515 346.5 498Q384 481 409 442H411L431 500H562V0H424L403 62H401Q375 24 338.5 4.5Q302 -15 251 -15ZM299 135Q343 135 364 168Q385 201 385 249Q385 299 364 333Q343 367 299 367Q256 367 235.5 334Q215 301 215 253Q215 203 235 169Q255 135 299 135ZM209 544H77Q77 580 86 613Q95 646 113 671Q131 696 157.5 710.5Q184 725 218 725Q239 725 252.5 719Q266 713 277.5 705.5Q289 698 300.5 692Q312 686 327 686Q330 686 336 687Q342 688 348 692Q354 696 358.5 704.5Q363 713 363 729H496Q496 693 487 660Q478 627 460.5 602.5Q443 578 417.5 563.5Q392 549 360 549Q338 549 323 555Q308 561 296.5 568.5Q285 576 274 582Q263 588 248 588Q245 588 238.5 587Q232 586 225.5 581.5Q219 577 214 568.5Q209 560 209 544Z" glyph-name="atilde" horiz-adv-x="612" unicode="&#227;" /><glyph d="M358 -15Q310 -15 272 1.5Q234 18 204 60H202L181 0H50V700H233V459H235Q286 515 377 515Q421 515 463 497.5Q505 480 537.5 447.5Q570 415 589.5 368Q609 321 609 262V242Q609 191 590 144.5Q571 98 537.5 62.5Q504 27 458 6Q412 -15 358 -15ZM326 129Q370 129 395.5 161.5Q421 194 421 247Q421 301 395 333Q369 365 322 365Q277 365 252 334Q227 303 227 247Q227 190 252.5 159.5Q278 129 326 129Z" glyph-name="b" horiz-adv-x="633" unicode="b" /><glyph d="M335 -124 1 678V696H181L515 -106V-124Z" glyph-name="backslash" horiz-adv-x="516" unicode="\" /><glyph d="M347 -126H191V773H347Z" glyph-name="bar" horiz-adv-x="538" unicode="|" /><glyph d="M400 -124H287Q206 -124 165 -78.5Q124 -33 124 42V137Q124 196 100.5 227Q77 258 39 275V297Q77 314 100.5 344Q124 374 124 435V530Q124 605 165 650.5Q206 696 287 696H400V559H343Q314 559 303 537.5Q292 516 292 477V419Q292 376 282 351Q272 326 258 312.5Q244 299 228.5 294Q213 289 202 287V284Q213 282 228.5 277.5Q244 273 258 259.5Q272 246 282 221Q292 196 292 153V95Q292 56 303 34.5Q314 13 343 13H400Z" glyph-name="braceleft" horiz-adv-x="460" unicode="{" /><glyph d="M60 696H173Q254 696 295 650.5Q336 605 336 530V435Q336 376 359.5 345Q383 314 421 297V275Q384 259 360 228.5Q336 198 336 137V42Q336 -33 295 -78.5Q254 -124 173 -124H60V13H117Q146 13 157 34.5Q168 56 168 95V153Q168 196 178 221Q188 246 202 259.5Q216 273 231.5 278Q247 283 258 285V288Q247 290 231.5 294.5Q216 299 202 312.5Q188 326 178 351Q168 376 168 419V477Q168 516 157 537.5Q146 559 117 559H60Z" glyph-name="braceright" horiz-adv-x="460" unicode="}" /><glyph d="M391 -124H60V696H392V559H234V13H391Z" glyph-name="bracketleft" horiz-adv-x="437" unicode="[" /><glyph d="M46 696H377V-124H45V13H203V559H46Z" glyph-name="bracketright" horiz-adv-x="437" unicode="]" /><glyph d="M248 539Q163 539 107.5 581.5Q52 624 39 721H184Q192 689 207 673Q222 657 250 657Q279 657 294.5 673Q310 689 318 721H461Q448 624 390.5 581.5Q333 539 248 539Z" glyph-name="breve" horiz-adv-x="500" unicode="&#728;" /><glyph d="M240 156Q211 156 185.5 164.5Q160 173 141 189.5Q122 206 111 230Q100 254 100 284V297Q100 327 111 351.5Q122 376 141 392.5Q160 409 185.5 418Q211 427 240 427Q269 427 294 418Q319 409 338.5 392.5Q358 376 369 351.5Q380 327 380 297V284Q380 254 369 230Q358 206 338.5 189.5Q319 173 294 164.5Q269 156 240 156Z" glyph-name="bullet" horiz-adv-x="480" unicode="&#8226;" /><glyph d="M292 -16Q236 -16 187 3Q138 22 102 56Q66 90 45 137Q24 184 24 240V260Q24 316 45 363Q66 410 102 444Q138 478 187.5 497Q237 516 294 516Q342 516 386.5 503.5Q431 491 466 466Q501 441 524 402.5Q547 364 551 312V298H384Q379 336 357.5 355.5Q336 375 301 375Q253 375 229 339.5Q205 304 205 250Q205 196 228.5 160.5Q252 125 299 125Q332 125 355.5 146Q379 167 384 205H551V191Q547 139 524 100Q501 61 466 35.5Q431 10 386 -3Q341 -16 292 -16Z" glyph-name="c" horiz-adv-x="562" unicode="c" /><glyph d="M266 520H238L40 674L106 769L252 678L402 769L468 674Z" glyph-name="caron" horiz-adv-x="500" unicode="&#711;" /><glyph d="M265 -200Q240 -200 208.5 -195.5Q177 -191 157 -183V-101H179Q219 -118 248 -118Q267 -118 278 -112Q289 -106 289 -96Q289 -86 278.5 -78Q268 -70 242 -72L233 -56L253 -13Q218 -9 187 3Q138 22 102 56Q66 90 45 137Q24 184 24 240V260Q24 316 45 363Q66 410 102 444Q138 478 187.5 497Q237 516 294 516Q342 516 386.5 503.5Q431 491 466 466Q501 441 524 402.5Q547 364 551 312V298H384Q379 336 357.5 355.5Q336 375 301 375Q253 375 229 339.5Q205 304 205 250Q205 196 228.5 160.5Q252 125 299 125Q332 125 355.5 146Q379 167 384 205H551V191Q547 139 524 100Q501 61 466 35.5Q431 10 386 -3Q368 -8 349 -11L339 -45Q368 -52 390 -67.5Q412 -83 412 -113Q412 -138 398.5 -154.5Q385 -171 363.5 -181Q342 -191 316 -195.5Q290 -200 265 -200Z" glyph-name="ccedilla" horiz-adv-x="562" unicode="&#231;" /><glyph d="M214 -200Q189 -200 157.5 -195.5Q126 -191 106 -183V-101H128Q168 -118 197 -118Q216 -118 227 -112Q238 -106 238 -96Q238 -86 227.5 -78Q217 -70 191 -72L182 -56L213 10L302 0L288 -45Q317 -52 339 -67.5Q361 -83 361 -113Q361 -138 347.5 -154.5Q334 -171 312.5 -181Q291 -191 265 -195.5Q239 -200 214 -200Z" glyph-name="cedilla" horiz-adv-x="500" unicode="&#184;" /><glyph d="M341 -108H257V-14Q221 -10 188 3Q139 22 103 56Q67 90 46 137Q25 184 25 240V260Q25 316 46 363Q67 410 103 444Q139 478 188 497Q221 509 257 514V627H341V513Q365 510 387 503Q432 491 467 466Q502 441 525 402.5Q548 364 552 312V298H385Q380 336 358 355Q350 362 341 367V135Q349 139 356 146Q380 167 385 205H552V191Q548 139 525 100Q502 61 467 35.5Q432 10 387 -3Q364 -9 341 -13ZM230 339Q206 304 206 250Q206 196 229 160Q240 143 257 134V364Q241 356 230 339Z" glyph-name="cent" horiz-adv-x="565" unicode="&#162;" /><glyph d="M251 610 101 521 35 616 237 770H265L463 616L397 521Z" glyph-name="circumflex" horiz-adv-x="500" unicode="&#710;" /><glyph d="M179 -9Q134 -9 102 17Q70 43 70 91V101Q70 149 102 176Q134 203 179 203Q224 203 256.5 176Q289 149 289 101V91Q289 43 256.5 17Q224 -9 179 -9ZM179 261Q134 261 102 287Q70 313 70 361V371Q70 419 102 446Q134 473 179 473Q224 473 256.5 446Q289 419 289 371V361Q289 313 256.5 287Q224 261 179 261Z" glyph-name="colon" horiz-adv-x="359" unicode=":" /><glyph d="M196 -127H50L99 185H307V167Z" glyph-name="comma" horiz-adv-x="359" unicode="," /><glyph d="M384 -15Q306 -15 240 11.5Q174 38 126 84.5Q78 131 51 193Q24 255 24 325Q24 395 51 456.5Q78 518 126 564.5Q174 611 240 638Q306 665 384 665Q462 665 528 638Q594 611 642 565Q690 519 717 457.5Q744 396 744 326Q744 256 717 193.5Q690 131 642 85Q594 39 528 12Q462 -15 384 -15ZM384 87Q438 87 483 105.5Q528 124 560.5 156.5Q593 189 611 232Q629 275 629 323Q629 373 611 416.5Q593 460 560.5 492.5Q528 525 483 544Q438 563 384 563Q330 563 285 544Q240 525 207.5 492.5Q175 460 157 416.5Q139 373 139 323Q139 275 157 232Q175 189 207.5 156.5Q240 124 285 105.5Q330 87 384 87ZM387 143Q352 143 320 155.5Q288 168 264 191Q240 214 225.5 246Q211 278 211 318V331Q211 371 225 403Q239 435 263 458Q287 481 318.5 493.5Q350 506 385 506Q448 506 492 472Q536 438 546 375V369H449Q442 390 428 403Q414 416 388 416Q356 416 337.5 390.5Q319 365 319 325Q319 286 337.5 259.5Q356 233 389 233Q415 233 429 246Q443 259 448 279H546V272Q543 242 529 218Q515 194 494 177.5Q473 161 445.5 152Q418 143 387 143Z" glyph-name="copyright" horiz-adv-x="768" unicode="&#169;" /><glyph d="M256 -15Q212 -15 170 2.5Q128 20 95.5 52.5Q63 85 43.5 132Q24 179 24 238V258Q24 309 43 355.5Q62 402 95 437.5Q128 473 173.5 494Q219 515 273 515Q357 515 398 462H400V700H583V0H444L421 65H419Q393 24 351.5 4.5Q310 -15 256 -15ZM310 135Q355 135 380 166Q405 197 405 253Q405 310 380 340.5Q355 371 310 371Q263 371 237.5 338.5Q212 306 212 253Q212 199 237.5 167Q263 135 310 135Z" glyph-name="d" horiz-adv-x="633" unicode="d" /><glyph d="M286 -78H153V347H62V463H154V700H285V463H377V347H286Z" glyph-name="dagger" horiz-adv-x="440" unicode="&#8224;" /><glyph d="M285 -78H154V127H62V243H153V346H62V462H154V700H285V462H377V346H286V243H377V127H285Z" glyph-name="daggerdbl" horiz-adv-x="440" unicode="&#8225;" /><glyph d="M227 327Q187 327 153 338Q119 349 94.5 370Q70 391 56 420.5Q42 450 42 487V498Q42 535 56 565Q70 595 94.5 616Q119 637 153 648.5Q187 660 227 660Q267 660 301 648.5Q335 637 360 616Q385 595 399 565Q413 535 413 498V487Q413 450 399 420.5Q385 391 360 370Q335 349 301 338Q267 327 227 327ZM227 431Q259 431 279.5 447Q300 463 300 487V498Q300 522 279.5 539.5Q259 557 227 557Q195 557 175 539.5Q155 522 155 498V487Q155 463 175 447Q195 431 227 431Z" glyph-name="degree" horiz-adv-x="455" unicode="&#176;" /><glyph d="M363 549Q324 549 296 573Q268 597 268 639Q268 680 296 704Q324 728 363 728Q403 728 430.5 704Q458 680 458 639Q458 597 430.5 573Q403 549 363 549ZM134 549Q95 549 67 573Q39 597 39 639Q39 680 67 704Q95 728 134 728Q174 728 201.5 704Q229 680 229 639Q229 597 201.5 573Q174 549 134 549Z" glyph-name="dieresis" horiz-adv-x="500" unicode="&#168;" /><glyph d="M595 252H52V405H595ZM325 39Q282 39 251.5 62.5Q221 86 221 129Q221 170 251.5 194.5Q282 219 325 219Q368 219 398.5 194.5Q429 170 429 129Q429 86 398.5 62.5Q368 39 325 39ZM325 438Q282 438 251.5 461.5Q221 485 221 528Q221 569 251.5 593.5Q282 618 325 618Q368 618 398.5 593.5Q429 569 429 528Q429 485 398.5 461.5Q368 438 325 438Z" glyph-name="divide" horiz-adv-x="647" unicode="&#247;" /><glyph d="M309 -113H237V7Q204 9 173 16Q129 27 94.5 50Q60 73 39 110Q18 147 14 201V217H192Q192 168 216 150Q225 144 234 140V256Q224 258 215 261Q179 270 142.5 284Q106 298 77 326Q54 347 41 378Q28 409 28 441V452Q28 505 48.5 541.5Q69 578 102.5 600.5Q136 623 178 633Q212 642 246 643V723H316V641Q337 639 357 634Q400 625 432 603.5Q464 582 484 547.5Q504 513 507 464V448H338Q336 477 321 496Q316 502 308 506V404Q320 402 334 398Q371 389 409 373.5Q447 358 477 327Q496 309 509 277.5Q522 246 522 216V204Q522 148 500 110Q478 72 442 49Q406 26 360 16Q335 10 309 7ZM326 146Q344 159 344 182Q344 190 341 199.5Q338 209 330 217Q319 227 304 234V136Q317 139 326 146ZM222 502Q208 489 208 470Q208 460 211 453.5Q214 447 221 439Q228 432 238 426V511Q228 508 222 502Z" glyph-name="dollar" horiz-adv-x="544" unicode="$" /><glyph d="M246 549Q207 549 179 573Q151 597 151 639Q151 680 179 704Q207 728 246 728Q286 728 313.5 704Q341 680 341 639Q341 597 313.5 573Q286 549 246 549Z" glyph-name="dotaccent" horiz-adv-x="500" unicode="&#729;" /><glyph d="M233 0H50V500H233Z" glyph-name="dotlessi" horiz-adv-x="283" unicode="&#305;" /><glyph d="M301 -16Q247 -16 196.5 0.5Q146 17 108 49.5Q70 82 47 129.5Q24 177 24 240V260Q24 320 45.5 367.5Q67 415 103.5 448Q140 481 189 498.5Q238 516 293 516Q340 516 386.5 502.5Q433 489 470.5 459Q508 429 531.5 382Q555 335 555 267V239Q555 225 553 212H209Q212 172 237 145.5Q262 119 306 119Q330 119 353 128.5Q376 138 386 164H552Q543 118 519 84.5Q495 51 461 28.5Q427 6 385.5 -5Q344 -16 301 -16ZM377 316Q377 349 356 373.5Q335 398 297 398Q255 398 234.5 373.5Q214 349 211 316Z" glyph-name="e" horiz-adv-x="579" unicode="e" /><glyph d="M301 -16Q247 -16 196.5 0.5Q146 17 108 49.5Q70 82 47 129.5Q24 177 24 240V260Q24 320 45.5 367.5Q67 415 103.5 448Q140 481 189 498.5Q238 516 293 516Q340 516 386.5 502.5Q433 489 470.5 459Q508 429 531.5 382Q555 335 555 267V239Q555 225 553 212H209Q212 172 237 145.5Q262 119 306 119Q330 119 353 128.5Q376 138 386 164H552Q543 118 519 84.5Q495 51 461 28.5Q427 6 385.5 -5Q344 -16 301 -16ZM471 627 184 532 141 638 411 769ZM377 316Q377 349 356 373.5Q335 398 297 398Q255 398 234.5 373.5Q214 349 211 316Z" glyph-name="eacute" horiz-adv-x="579" unicode="&#233;" /><glyph d="M301 -16Q247 -16 196.5 0.5Q146 17 108 49.5Q70 82 47 129.5Q24 177 24 240V260Q24 320 45.5 367.5Q67 415 103.5 448Q140 481 189 498.5Q238 516 293 516Q340 516 386.5 502.5Q433 489 470.5 459Q508 429 531.5 382Q555 335 555 267V239Q555 225 553 212H209Q212 172 237 145.5Q262 119 306 119Q330 119 353 128.5Q376 138 386 164H552Q543 118 519 84.5Q495 51 461 28.5Q427 6 385.5 -5Q344 -16 301 -16ZM290 610 140 521 74 616 276 770H304L502 616L436 521ZM377 316Q377 349 356 373.5Q335 398 297 398Q255 398 234.5 373.5Q214 349 211 316Z" glyph-name="ecircumflex" horiz-adv-x="579" unicode="&#234;" /><glyph d="M301 -16Q247 -16 196.5 0.5Q146 17 108 49.5Q70 82 47 129.5Q24 177 24 240V260Q24 320 45.5 367.5Q67 415 103.5 448Q140 481 189 498.5Q238 516 293 516Q340 516 386.5 502.5Q433 489 470.5 459Q508 429 531.5 382Q555 335 555 267V239Q555 225 553 212H209Q212 172 237 145.5Q262 119 306 119Q330 119 353 128.5Q376 138 386 164H552Q543 118 519 84.5Q495 51 461 28.5Q427 6 385.5 -5Q344 -16 301 -16ZM176 548Q137 548 109 572Q81 596 81 638Q81 679 109 703Q137 727 176 727Q216 727 243.5 703Q271 679 271 638Q271 596 243.5 572Q216 548 176 548ZM405 548Q366 548 338 572Q310 596 310 638Q310 679 338 703Q366 727 405 727Q445 727 472.5 703Q500 679 500 638Q500 596 472.5 572Q445 548 405 548ZM377 316Q377 349 356 373.5Q335 398 297 398Q255 398 234.5 373.5Q214 349 211 316Z" glyph-name="edieresis" horiz-adv-x="579" unicode="&#235;" /><glyph d="M301 -16Q247 -16 196.5 0.5Q146 17 108 49.5Q70 82 47 129.5Q24 177 24 240V260Q24 320 45.5 367.5Q67 415 103.5 448Q140 481 189 498.5Q238 516 293 516Q340 516 386.5 502.5Q433 489 470.5 459Q508 429 531.5 382Q555 335 555 267V239Q555 225 553 212H209Q212 172 237 145.5Q262 119 306 119Q330 119 353 128.5Q376 138 386 164H552Q543 118 519 84.5Q495 51 461 28.5Q427 6 385.5 -5Q344 -16 301 -16ZM446 640 403 534 116 629 176 771ZM377 316Q377 349 356 373.5Q335 398 297 398Q255 398 234.5 373.5Q214 349 211 316Z" glyph-name="egrave" horiz-adv-x="579" unicode="&#232;" /><glyph d="M289 -15Q237 -15 189 -3Q141 9 105 33Q69 57 47.5 93.5Q26 130 26 178V188Q26 239 51 275.5Q76 312 118 335Q86 355 68.5 389Q51 423 51 466V474Q51 521 68.5 556.5Q86 592 117.5 616Q149 640 193 652.5Q237 665 289 665Q341 665 385 652.5Q429 640 461 616Q493 592 511 556.5Q529 521 529 474V466Q529 423 510.5 389Q492 355 460 335Q502 312 527.5 275.5Q553 239 553 188V178Q553 130 531.5 93.5Q510 57 473.5 33Q437 9 389.5 -3Q342 -15 289 -15ZM290 111Q313 111 328.5 118Q344 125 353 136.5Q362 148 366 162Q370 176 370 191Q370 206 366.5 219.5Q363 233 354 244Q345 255 329.5 261.5Q314 268 290 268Q244 268 226.5 244Q209 220 209 191Q209 176 213 162Q217 148 226.5 136.5Q236 125 251.5 118Q267 111 290 111ZM290 394Q328 394 343.5 418Q359 442 359 469Q359 497 344.5 520.5Q330 544 290 544Q252 544 236.5 520.5Q221 497 221 469Q221 442 236.5 418Q252 394 290 394Z" glyph-name="eight" horiz-adv-x="579" unicode="8" /><glyph d="M179 -9Q134 -9 102 17Q70 43 70 91V101Q70 149 102 176Q134 203 179 203Q224 203 256.5 176Q289 149 289 101V91Q289 43 256.5 17Q224 -9 179 -9ZM538 -9Q493 -9 461 17Q429 43 429 91V101Q429 149 461 176Q493 203 538 203Q583 203 615.5 176Q648 149 648 101V91Q648 43 615.5 17Q583 -9 538 -9ZM897 -9Q852 -9 820 17Q788 43 788 91V101Q788 149 820 176Q852 203 897 203Q942 203 974.5 176Q1007 149 1007 101V91Q1007 43 974.5 17Q942 -9 897 -9Z" glyph-name="ellipsis" horiz-adv-x="1077" unicode="&#8230;" /><glyph d="M769 227H44V354H769Z" glyph-name="emdash" horiz-adv-x="812" unicode="&#8212;" /><glyph d="M619 227H44V354H619Z" glyph-name="endash" horiz-adv-x="663" unicode="&#8211;" /><glyph d="M634 370H72V521H634ZM634 136H72V285H634Z" glyph-name="equal" horiz-adv-x="706" unicode="=" /><glyph d="M258 240H90L65 630V650H286V630ZM170 -9Q125 -9 93 16Q61 41 61 89V99Q61 146 93 172.5Q125 199 170 199Q215 199 247.5 172.5Q280 146 280 99V89Q280 41 247.5 16Q215 -9 170 -9Z" glyph-name="exclam" horiz-adv-x="347" unicode="!" /><glyph d="M253 266 281 -124V-144H60V-124L85 266ZM165 515Q210 515 242.5 490Q275 465 275 417V407Q275 360 242.5 333.5Q210 307 165 307Q120 307 88 333.5Q56 360 56 407V417Q56 465 88 490Q120 515 165 515Z" glyph-name="exclamdown" horiz-adv-x="347" unicode="&#161;" /><glyph d="M267 0H84V363H14V440L84 481V526Q84 617 134.5 666Q185 715 276 715Q300 715 332.5 713Q365 711 395 703V579H379Q366 582 351.5 584Q337 586 323 586Q291 586 277 576.5Q263 567 263 538V490H394V363H267Z" glyph-name="f" horiz-adv-x="420" unicode="f" /><glyph d="M638 0H455V500H638ZM546 532Q501 532 469 555.5Q437 579 437 623V632Q437 676 469 700.5Q501 725 546 725Q591 725 623.5 700.5Q656 676 656 632V623Q656 579 623.5 555.5Q591 532 546 532ZM267 0H84V363H14V440L84 481V526Q84 617 132 666Q180 715 271 715Q295 715 322.5 713Q350 711 380 703V579H364Q351 582 339.5 584Q328 586 311 586Q288 586 275.5 576.5Q263 567 263 538V490H379V363H267Z" glyph-name="fi" horiz-adv-x="688" unicode="&#64257;" /><glyph d="M241 -15Q186 -15 132.5 -6.5Q79 2 31 25V182H53Q77 170 98 161.5Q119 153 140 147Q161 141 184 138.5Q207 136 235 136Q286 136 312.5 153.5Q339 171 339 214Q339 254 301 271.5Q263 289 207 289Q169 289 129.5 283.5Q90 278 68 270L52 283L91 650H488V508H241L233 427Q293 430 344.5 418Q396 406 434.5 380Q473 354 495 314.5Q517 275 517 224V211Q517 148 493 105Q469 62 430 35.5Q391 9 341.5 -3Q292 -15 241 -15Z" glyph-name="five" horiz-adv-x="537" unicode="5" /><glyph d="M267 0H84V363H14V440L84 481V526Q84 617 132 666Q180 715 271 715Q295 715 322.5 713Q350 711 380 703V579H364Q351 582 339.5 584Q328 586 311 586Q288 586 275.5 576.5Q263 567 263 538V490H379V363H267ZM640 -5Q599 -5 565 2.5Q531 10 506.5 27.5Q482 45 468.5 74.5Q455 104 455 147V700H638V187Q638 149 654.5 141.5Q671 134 713 138H726V5Q702 0 682.5 -2.5Q663 -5 640 -5Z" glyph-name="fl" horiz-adv-x="746" unicode="&#64258;" /><glyph d="M221 -90H38L75 274H5L19 401H88L97 475Q108 566 165 615.5Q222 665 312 665Q338 665 368 663Q398 661 427 654L415 528H402Q388 531 371.5 533Q355 535 340 535Q309 535 295 526Q281 517 277 488L267 401H400L386 274H258Z" glyph-name="florin" horiz-adv-x="447" unicode="&#402;" /><glyph d="M485 0H303V158H13L1 259L290 650H485V296H584V158H485ZM195 295V293Q203 295 218.5 295.5Q234 296 248 296H318L319 397V443Q319 458 319.5 471Q320 484 321 493H319Q314 477 302.5 455Q291 433 281 419L238 356Q230 344 218 326.5Q206 309 195 295Z" glyph-name="four" horiz-adv-x="594" unicode="4" /><glyph d="M-43 0H-131V19L206 650H294V631Z" glyph-name="fraction" horiz-adv-x="163" unicode="&#8260;" /><glyph d="M306 -204Q188 -204 121.5 -153Q55 -102 50 -18V-8H224Q226 -26 234.5 -37.5Q243 -49 255 -55.5Q267 -62 281.5 -64.5Q296 -67 309 -67Q341 -67 364.5 -48.5Q388 -30 388 9V70H386Q371 45 338 31Q305 17 264 17H256Q212 17 170.5 32Q129 47 96.5 77Q64 107 44 151.5Q24 196 24 254V274Q24 325 41.5 369.5Q59 414 90 446Q121 478 162.5 496.5Q204 515 252 515Q304 515 342.5 499Q381 483 409 442H411L431 500H562V-4Q562 -49 543.5 -86Q525 -123 491 -149.5Q457 -176 410 -190Q363 -204 306 -204ZM300 166Q343 166 364 192.5Q385 219 385 265Q385 313 364 340Q343 367 300 367Q256 367 235.5 340.5Q215 314 215 269Q215 221 235 193.5Q255 166 300 166Z" glyph-name="g" horiz-adv-x="612" unicode="g" /><glyph d="M371 -12Q350 -12 323 -9Q296 -6 277 2V133H297Q317 126 342 126Q357 126 371.5 131Q386 136 397.5 146Q409 156 416.5 171.5Q424 187 424 208Q424 249 399 271Q374 293 332 293H280V435H298Q339 435 355.5 458Q372 481 372 511Q372 546 353.5 565Q335 584 302 584Q261 584 244.5 556.5Q228 529 228 494V0H50V485Q50 597 114 656Q178 715 299 715Q347 715 390.5 704Q434 693 467.5 670.5Q501 648 521 614Q541 580 541 533V520Q541 472 521 441.5Q501 411 473 393V391Q497 385 519 369.5Q541 354 557.5 330.5Q574 307 584 278Q594 249 594 216V202Q594 153 575.5 113Q557 73 526.5 45.5Q496 18 455.5 3Q415 -12 371 -12Z" glyph-name="germandbls" horiz-adv-x="613" unicode="&#223;" /><glyph d="M405 640 362 534 75 629 135 771Z" glyph-name="grave" horiz-adv-x="500" unicode="`" /><glyph d="M89 433V621L610 381V268L91 32V214L314 309Q316 309 323 311Q330 313 339 315.5Q348 318 356 320Q364 322 368 322V324Q365 324 356.5 326Q348 328 339 330.5Q330 333 322.5 335.5Q315 338 313 338Z" glyph-name="greater" horiz-adv-x="653" unicode="&gt;" /><glyph d="M89 377 193 406Q227 416 260 422.5Q293 429 328 431V433Q258 440 191 460L92 489V650L593 490V377L89 210ZM91 31V188H594V31Z" glyph-name="greaterequal" horiz-adv-x="672" unicode="&#8805;" /><glyph d="M329 60H164L7 248V257L164 445H329V431L180 252L329 74ZM559 60H394L237 248V257L394 445H559V431L410 252L559 74Z" glyph-name="guillemotleft" horiz-adv-x="581" unicode="&#171;" /><glyph d="M22 60V74L171 252L22 431V445H187L344 257V248L187 60ZM252 60V74L401 252L252 431V445H417L574 257V248L417 60Z" glyph-name="guillemotright" horiz-adv-x="581" unicode="&#187;" /><glyph d="M329 60H164L7 248V257L164 445H329V431L180 252L329 74Z" glyph-name="guilsinglleft" horiz-adv-x="351" unicode="&#8249;" /><glyph d="M22 60V74L171 252L22 431V445H187L344 257V248L187 60Z" glyph-name="guilsinglright" horiz-adv-x="351" unicode="&#8250;" /><glyph d="M233 0H50V700H233V457H235Q258 486 289.5 500.5Q321 515 368 515Q416 515 449.5 501Q483 487 504.5 463Q526 439 535.5 407.5Q545 376 545 341V0H362V290Q362 328 344.5 347Q327 366 299 366Q268 366 250.5 347Q233 328 233 290Z" glyph-name="h" horiz-adv-x="585" unicode="h" /><glyph d="M525 688 354 525 261 609 406 798ZM281 694 115 525 23 609 168 798Z" glyph-name="hungarumlaut" horiz-adv-x="500" unicode="&#733;" /><glyph d="M449 210H44V373H449Z" glyph-name="hyphen" horiz-adv-x="493" unicode="-" /><glyph d="M233 0H50V500H233ZM141 532Q96 532 64 555.5Q32 579 32 623V632Q32 676 64 700.5Q96 725 141 725Q186 725 218.5 700.5Q251 676 251 632V623Q251 579 218.5 555.5Q186 532 141 532Z" glyph-name="i" horiz-adv-x="283" unicode="i" /><glyph d="M233 0H50V500H233ZM300 628 13 533 -30 639 240 770Z" glyph-name="iacute" horiz-adv-x="283" unicode="&#237;" /><glyph d="M233 0H50V500H233ZM140 610 -10 521 -76 616 126 770H154L352 616L286 521Z" glyph-name="icircumflex" horiz-adv-x="283" unicode="&#238;" /><glyph d="M233 0H50V500H233ZM253 549Q214 549 186 573Q158 597 158 639Q158 680 186 704Q214 728 253 728Q293 728 320.5 704Q348 680 348 639Q348 597 320.5 573Q293 549 253 549ZM24 549Q-15 549 -43 573Q-71 597 -71 639Q-71 680 -43 704Q-15 728 24 728Q64 728 91.5 704Q119 680 119 639Q119 597 91.5 573Q64 549 24 549Z" glyph-name="idieresis" horiz-adv-x="283" unicode="&#239;" /><glyph d="M233 0H50V500H233ZM298 640 255 534 -32 629 28 771Z" glyph-name="igrave" horiz-adv-x="283" unicode="&#236;" /><glyph d="M143 -180H-35V-160Q-8 -141 10.5 -115Q29 -89 40 -60.5Q51 -32 55.5 -2.5Q60 27 60 52V500H243V45Q243 -24 216.5 -84.5Q190 -145 143 -180ZM151 532Q106 532 74 555.5Q42 579 42 623V632Q42 676 74 700.5Q106 725 151 725Q196 725 228.5 700.5Q261 676 261 632V623Q261 579 228.5 555.5Q196 532 151 532Z" glyph-name="j" horiz-adv-x="293" unicode="j" /><glyph d="M233 0H50V700H233V310L367 500H557V480L404 273L605 19V0H396L233 209Z" glyph-name="k" horiz-adv-x="617" unicode="k" /><glyph d="M228 -5Q187 -5 153 2.5Q119 10 94.5 27.5Q70 45 56.5 74.5Q43 104 43 147V700H226V187Q226 149 242.5 141.5Q259 134 301 138H314V5Q290 0 270.5 -2.5Q251 -5 228 -5Z" glyph-name="l" horiz-adv-x="334" unicode="l" /><glyph d="M564 218V30L43 270V383L562 619V437L339 342Q338 342 330.5 340Q323 338 314 335.5Q305 333 297 331Q289 329 285 329V327Q288 327 296.5 325Q305 323 314 320.5Q323 318 331 315.5Q339 313 340 313Z" glyph-name="less" horiz-adv-x="653" unicode="&lt;" /><glyph d="M583 377V210L79 377V490L580 650V489L481 460Q414 440 344 433V431Q379 429 412 422.5Q445 416 479 406ZM581 31H78V188H581Z" glyph-name="lessequal" horiz-adv-x="672" unicode="&#8804;" /><glyph d="M539 259H360V412H22V562H539Z" glyph-name="logicalnot" horiz-adv-x="579" unicode="&#172;" /><glyph d="M233 0H50V500H192L214 434H216Q237 476 272.5 495.5Q308 515 364 515Q417 515 452 493Q487 471 504 434H506Q528 476 564 495.5Q600 515 656 515Q699 515 729.5 502Q760 489 779.5 467Q799 445 808 415Q817 385 817 350V0H634V297Q634 366 582 366Q525 366 525 297V0H342V297Q342 366 290 366Q233 366 233 297Z" glyph-name="m" horiz-adv-x="857" unicode="m" /><glyph d="M438 565H62V695H438Z" glyph-name="macron" horiz-adv-x="500" unicode="&#175;" /><glyph d="M232 -180H52V561H232V212Q232 198 236.5 184Q241 170 251 158.5Q261 147 276.5 140Q292 133 314 133Q329 133 344.5 137Q360 141 372.5 150.5Q385 160 393.5 175Q402 190 402 211V561H582V0H441L420 67H418Q394 23 355.5 4Q317 -15 282 -15Q259 -15 248.5 -14.5Q238 -14 232 -12Z" glyph-name="mu" horiz-adv-x="638" unicode="&#181;" /><glyph d="M233 0H50V500H192L214 432H216Q258 515 370 515Q416 515 449 501Q482 487 503.5 463Q525 439 535 407.5Q545 376 545 341V0H362V290Q362 328 344.5 347Q327 366 298 366Q268 366 250.5 347Q233 328 233 290Z" glyph-name="n" horiz-adv-x="585" unicode="n" /><glyph d="M277 665Q334 665 383 650.5Q432 636 468 606.5Q504 577 524.5 533Q545 489 545 430V412Q545 348 515.5 282Q486 216 441 158Q406 113 367 72.5Q328 32 291 0H87V20Q107 37 131.5 59.5Q156 82 181 106.5Q206 131 228.5 156.5Q251 182 266 205L265 206Q204 206 157 221.5Q110 237 78 265.5Q46 294 30 333.5Q14 373 14 421V435Q14 491 35.5 534Q57 577 93 606Q129 635 177 650Q225 665 277 665ZM277 520Q232 520 212.5 492.5Q193 465 193 427Q193 390 212 362.5Q231 335 276 335Q320 335 341.5 361Q363 387 363 426Q363 463 342.5 491.5Q322 520 277 520Z" glyph-name="nine" horiz-adv-x="567" unicode="9" /><glyph glyph-name="nonmarkingreturn" horiz-adv-x="250" unicode="" /><glyph d="M634 370H453L402 285H634V136H314L248 24H119V38L177 136H72V285H265L315 370H72V521H404L463 620H592V606L542 521H634Z" glyph-name="notequal" horiz-adv-x="706" unicode="&#8800;" /><glyph d="M233 0H50V500H192L214 432H216Q258 515 370 515Q416 515 449 501Q482 487 503.5 463Q525 439 535 407.5Q545 376 545 341V0H362V290Q362 328 344.5 347Q327 366 298 366Q268 366 250.5 347Q233 328 233 290ZM209 545H77Q77 581 86 614Q95 647 113 672Q131 697 157.5 711.5Q184 726 218 726Q239 726 252.5 720Q266 714 277.5 706.5Q289 699 300.5 693Q312 687 327 687Q330 687 336 688Q342 689 348 693Q354 697 358.5 705.5Q363 714 363 730H496Q496 694 487 661Q478 628 460.5 603.5Q443 579 417.5 564.5Q392 550 360 550Q338 550 323 556Q308 562 296.5 569.5Q285 577 274 583Q263 589 248 589Q245 589 238.5 588Q232 587 225.5 582.5Q219 578 214 569.5Q209 561 209 545Z" glyph-name="ntilde" horiz-adv-x="585" unicode="&#241;" /><glyph d="M273 384 260 285H357L369 384ZM585 384H475L462 285H561V185H450L427 0H325V20L345 185H248L225 0H123V20L143 185H44V285H155L167 384H68V483H180L200 650H303V630L285 483H382L402 650H505V630L487 483H585Z" glyph-name="numbersign" horiz-adv-x="629" unicode="#" /><glyph d="M220 0H69V650H224Q297 535 343 461Q389 387 415 343Q441 299 452.5 277.5Q464 256 468 246H470Q470 254 469 273Q468 292 467 316.5Q466 341 465 367.5Q464 394 464 418L463 650H614V0H466Q390 116 343 190Q296 264 269 308Q242 352 231 373.5Q220 395 215 406H213Q213 398 214.5 379Q216 360 217 336.5Q218 313 219 288Q220 263 220 243ZM867 346Q834 346 803 356.5Q772 367 748 386.5Q724 406 709.5 434.5Q695 463 695 500V512Q695 549 709.5 577.5Q724 606 748 625.5Q772 645 803 655.5Q834 666 867 666Q902 666 933.5 655.5Q965 645 989 625.5Q1013 606 1027.5 577.5Q1042 549 1042 512V500Q1042 463 1027.5 434.5Q1013 406 989 386.5Q965 367 933.5 356.5Q902 346 867 346ZM869 446Q896 446 908 462.5Q920 479 920 507Q920 533 908 549.5Q896 566 869 566Q841 566 829 549.5Q817 533 817 507Q817 479 829 462.5Q841 446 869 446Z" glyph-name="numero" horiz-adv-x="1082" unicode="&#8470;" /><glyph d="M303 -16Q248 -16 197.5 1Q147 18 108.5 51Q70 84 47 131.5Q24 179 24 240V260Q24 322 47 369.5Q70 417 108.5 449.5Q147 482 197.5 499Q248 516 303 516Q358 516 408.5 499Q459 482 498 449.5Q537 417 560.5 369.5Q584 322 584 260V240Q584 179 560.5 131.5Q537 84 498 51Q459 18 408.5 1Q358 -16 303 -16ZM304 127Q355 127 378.5 163Q402 199 402 251Q402 302 378.5 338Q355 374 304 374Q253 374 229.5 338Q206 302 206 251Q206 199 229.5 163Q253 127 304 127Z" glyph-name="o" horiz-adv-x="608" unicode="o" /><glyph d="M303 -16Q248 -16 197.5 1Q147 18 108.5 51Q70 84 47 131.5Q24 179 24 240V260Q24 322 47 369.5Q70 417 108.5 449.5Q147 482 197.5 499Q248 516 303 516Q358 516 408.5 499Q459 482 498 449.5Q537 417 560.5 369.5Q584 322 584 260V240Q584 179 560.5 131.5Q537 84 498 51Q459 18 408.5 1Q358 -16 303 -16ZM304 127Q355 127 378.5 163Q402 199 402 251Q402 302 378.5 338Q355 374 304 374Q253 374 229.5 338Q206 302 206 251Q206 199 229.5 163Q253 127 304 127ZM490 628 203 533 160 639 430 770Z" glyph-name="oacute" horiz-adv-x="608" unicode="&#243;" /><glyph d="M303 -16Q248 -16 197.5 1Q147 18 108.5 51Q70 84 47 131.5Q24 179 24 240V260Q24 322 47 369.5Q70 417 108.5 449.5Q147 482 197.5 499Q248 516 303 516Q358 516 408.5 499Q459 482 498 449.5Q537 417 560.5 369.5Q584 322 584 260V240Q584 179 560.5 131.5Q537 84 498 51Q459 18 408.5 1Q358 -16 303 -16ZM304 127Q355 127 378.5 163Q402 199 402 251Q402 302 378.5 338Q355 374 304 374Q253 374 229.5 338Q206 302 206 251Q206 199 229.5 163Q253 127 304 127ZM306 610 156 521 90 616 292 770H320L518 616L452 521Z" glyph-name="ocircumflex" horiz-adv-x="608" unicode="&#244;" /><glyph d="M303 -16Q248 -16 197.5 1Q147 18 108.5 51Q70 84 47 131.5Q24 179 24 240V260Q24 322 47 369.5Q70 417 108.5 449.5Q147 482 197.5 499Q248 516 303 516Q358 516 408.5 499Q459 482 498 449.5Q537 417 560.5 369.5Q584 322 584 260V240Q584 179 560.5 131.5Q537 84 498 51Q459 18 408.5 1Q358 -16 303 -16ZM304 127Q355 127 378.5 163Q402 199 402 251Q402 302 378.5 338Q355 374 304 374Q253 374 229.5 338Q206 302 206 251Q206 199 229.5 163Q253 127 304 127ZM419 549Q380 549 352 573Q324 597 324 639Q324 680 352 704Q380 728 419 728Q459 728 486.5 704Q514 680 514 639Q514 597 486.5 573Q459 549 419 549ZM190 549Q151 549 123 573Q95 597 95 639Q95 680 123 704Q151 728 190 728Q230 728 257.5 704Q285 680 285 639Q285 597 257.5 573Q230 549 190 549Z" glyph-name="odieresis" horiz-adv-x="608" unicode="&#246;" /><glyph d="M293 -16Q240 -16 191.5 1Q143 18 105.5 51Q68 84 46 131.5Q24 179 24 240V260Q24 322 46 369.5Q68 417 105.5 449.5Q143 482 191.5 499Q240 516 293 516Q349 516 397.5 497.5Q446 479 481 444Q512 479 555.5 497.5Q599 516 655 516Q700 516 745 502.5Q790 489 826 459Q862 429 884.5 382Q907 335 907 267V239Q907 225 905 212H581Q584 172 606.5 145.5Q629 119 668 119Q689 119 709.5 128.5Q730 138 738 164H904Q896 118 872.5 84.5Q849 51 816.5 28.5Q784 6 744 -5Q704 -16 663 -16Q606 -16 559 2Q512 20 479 56Q444 21 396 2.5Q348 -16 293 -16ZM294 127Q340 127 361 163Q382 199 382 251Q382 302 361 338Q340 374 294 374Q248 374 227 338Q206 302 206 251Q206 199 227 163Q248 127 294 127ZM728 316Q728 349 710 372.5Q692 396 659 396Q622 396 604.5 372.5Q587 349 584 316Z" glyph-name="oe" horiz-adv-x="931" unicode="&#339;" /><glyph d="M276 -200Q251 -200 226 -195.5Q201 -191 181.5 -180.5Q162 -170 149.5 -152Q137 -134 137 -106Q137 -63 165 -27Q193 9 243 33L324 0Q298 -11 279.5 -30.5Q261 -50 261 -70Q261 -85 269.5 -97Q278 -109 299 -109Q310 -109 323 -106.5Q336 -104 347 -97H366V-183Q326 -200 276 -200Z" glyph-name="ogonek" horiz-adv-x="500" unicode="&#731;" /><glyph d="M303 -16Q248 -16 197.5 1Q147 18 108.5 51Q70 84 47 131.5Q24 179 24 240V260Q24 322 47 369.5Q70 417 108.5 449.5Q147 482 197.5 499Q248 516 303 516Q358 516 408.5 499Q459 482 498 449.5Q537 417 560.5 369.5Q584 322 584 260V240Q584 179 560.5 131.5Q537 84 498 51Q459 18 408.5 1Q358 -16 303 -16ZM304 127Q355 127 378.5 163Q402 199 402 251Q402 302 378.5 338Q355 374 304 374Q253 374 229.5 338Q206 302 206 251Q206 199 229.5 163Q253 127 304 127ZM491 640 448 534 161 629 221 771Z" glyph-name="ograve" horiz-adv-x="608" unicode="&#242;" /><glyph d="M320 0H128V417H4V553Q69 555 109 576Q149 597 159 654H320Z" glyph-name="one" horiz-adv-x="382" unicode="1" /><glyph d="M184 280Q155 280 127 292Q99 304 77.5 326.5Q56 349 42.5 381Q29 413 29 453V466Q29 501 41 533Q53 565 74 589Q95 613 124.5 627.5Q154 642 189 642Q224 642 249.5 630Q275 618 292 592H294L307 632H392V290H303L288 332H287Q269 306 244 293Q219 280 184 280ZM217 387Q247 387 261.5 408Q276 429 276 460Q276 492 261.5 514Q247 536 217 536Q188 536 174 514.5Q160 493 160 463Q160 431 174 409Q188 387 217 387Z" glyph-name="ordfeminine" horiz-adv-x="433" unicode="&#170;" /><glyph d="M219 283Q182 283 147.5 294.5Q113 306 87 327.5Q61 349 45 381Q29 413 29 454V469Q29 510 45 542Q61 574 87 596Q113 618 147.5 629.5Q182 641 219 641Q255 641 289.5 629.5Q324 618 350 596Q376 574 392 542Q408 510 408 469V454Q408 413 392 381Q376 349 350 327.5Q324 306 289.5 294.5Q255 283 219 283ZM219 388Q250 388 263.5 409.5Q277 431 277 463Q277 492 263.5 513.5Q250 535 219 535Q189 535 175 513.5Q161 492 161 463Q161 431 175 409.5Q189 388 219 388Z" glyph-name="ordmasculine" horiz-adv-x="437" unicode="&#186;" /><glyph d="M247 -65H99V-52L135 32Q85 64 54.5 116Q24 168 24 240V260Q24 322 47 369.5Q70 417 108.5 449.5Q147 482 197.5 499Q248 516 303 516Q313 516 322.5 515.5Q332 515 342 514L364 565H511V551L475 467Q524 435 554 383Q584 331 584 260V240Q584 179 560.5 131.5Q537 84 498 51Q459 18 408.5 1Q358 -16 303 -16Q294 -16 285.5 -15.5Q277 -15 269 -14ZM321 119Q369 125 391.5 162Q414 199 414 251Q414 287 404 314ZM290 382Q242 377 219.5 339.5Q197 302 197 251Q197 215 207 188Z" glyph-name="oslash" horiz-adv-x="608" unicode="&#248;" /><glyph d="M303 -16Q248 -16 197.5 1Q147 18 108.5 51Q70 84 47 131.5Q24 179 24 240V260Q24 322 47 369.5Q70 417 108.5 449.5Q147 482 197.5 499Q248 516 303 516Q358 516 408.5 499Q459 482 498 449.5Q537 417 560.5 369.5Q584 322 584 260V240Q584 179 560.5 131.5Q537 84 498 51Q459 18 408.5 1Q358 -16 303 -16ZM304 127Q355 127 378.5 163Q402 199 402 251Q402 302 378.5 338Q355 374 304 374Q253 374 229.5 338Q206 302 206 251Q206 199 229.5 163Q253 127 304 127ZM226 545H94Q94 581 103 614Q112 647 130 672Q148 697 174.5 711.5Q201 726 235 726Q256 726 269.5 720Q283 714 294.5 706.5Q306 699 317.5 693Q329 687 344 687Q347 687 353 688Q359 689 365 693Q371 697 375.5 705.5Q380 714 380 730H513Q513 694 504 661Q495 628 477.5 603.5Q460 579 434.5 564.5Q409 550 377 550Q355 550 340 556Q325 562 313.5 569.5Q302 577 291 583Q280 589 265 589Q262 589 255.5 588Q249 587 242.5 582.5Q236 578 231 569.5Q226 561 226 545Z" glyph-name="otilde" horiz-adv-x="608" unicode="&#245;" /><glyph d="M233 -180H50V500H189L212 435H214Q240 476 281.5 495.5Q323 515 377 515Q421 515 463 497.5Q505 480 537.5 447.5Q570 415 589.5 368Q609 321 609 262V242Q609 191 590 144.5Q571 98 538 62.5Q505 27 459.5 6Q414 -15 360 -15Q319 -15 286.5 -1Q254 13 235 38H233ZM322 129Q369 129 395 161.5Q421 194 421 247Q421 301 395 333Q369 365 322 365Q277 365 252 334Q227 303 227 247Q227 190 252 159.5Q277 129 322 129Z" glyph-name="p" horiz-adv-x="633" unicode="p" /><glyph d="M476 0H333V548H277V306H256Q216 306 179.5 317Q143 328 115 349.5Q87 371 70.5 402Q54 433 54 473V487Q54 527 69 557.5Q84 588 109 608.5Q134 629 167 639.5Q200 650 236 650H476Z" glyph-name="paragraph" horiz-adv-x="576" unicode="&#182;" /><glyph d="M315 -124H163Q100 -15 72.5 86Q45 187 45 285Q45 385 72.5 486Q100 587 163 696H315V678Q273 575 255 477.5Q237 380 237 285Q237 191 255 94Q273 -3 315 -106Z" glyph-name="parenleft" horiz-adv-x="340" unicode="(" /><glyph d="M24 696H176Q239 587 266.5 486Q294 385 294 287Q294 187 266.5 86Q239 -15 176 -124H24V-106Q66 -3 84 94.5Q102 192 102 287Q102 381 84 478Q66 575 24 678Z" glyph-name="parenright" horiz-adv-x="340" unicode=")" /><glyph d="M244 0H142V20L498 650H601V630ZM181 362Q148 362 118.5 371Q89 380 66.5 398Q44 416 30.5 442.5Q17 469 17 504V513Q17 548 30.5 574.5Q44 601 66.5 619Q89 637 118.5 646Q148 655 181 655Q214 655 243.5 646Q273 637 295.5 619Q318 601 331.5 574.5Q345 548 345 513V504Q345 469 331.5 442.5Q318 416 295.5 398Q273 380 243.5 371Q214 362 181 362ZM181 447Q206 447 219 464.5Q232 482 232 509Q232 535 219 552.5Q206 570 181 570Q157 570 143.5 552.5Q130 535 130 509Q130 482 143.5 464.5Q157 447 181 447ZM561 -3Q528 -3 498.5 6Q469 15 446.5 33Q424 51 410.5 77.5Q397 104 397 139V148Q397 183 410.5 209.5Q424 236 446.5 254Q469 272 498.5 281Q528 290 561 290Q594 290 623.5 281Q653 272 675.5 254Q698 236 711.5 209.5Q725 183 725 148V139Q725 104 711.5 77.5Q698 51 675.5 33Q653 15 623.5 6Q594 -3 561 -3ZM561 82Q586 82 599 99.5Q612 117 612 144Q612 170 599 187.5Q586 205 561 205Q537 205 523.5 187.5Q510 170 510 144Q510 117 523.5 99.5Q537 82 561 82Z" glyph-name="percent" horiz-adv-x="742" unicode="%" /><glyph d="M179 -9Q134 -9 102 17Q70 43 70 91V101Q70 149 102 176Q134 203 179 203Q224 203 256.5 176Q289 149 289 101V91Q289 43 256.5 17Q224 -9 179 -9Z" glyph-name="period" horiz-adv-x="359" unicode="." /><glyph d="M180 181Q135 181 103 207Q71 233 71 281V291Q71 339 103 366Q135 393 180 393Q225 393 257.5 366Q290 339 290 291V281Q290 233 257.5 207Q225 181 180 181Z" glyph-name="periodcentered" horiz-adv-x="360" unicode="&#183;" /><glyph d="M242 0H138V19L495 650H600V631ZM179 361Q147 361 117.5 370.5Q88 380 65.5 398Q43 416 30 442.5Q17 469 17 503V512Q17 547 30 574Q43 601 65.5 619Q88 637 117 646Q146 655 178 655Q211 655 240.5 646Q270 637 292.5 619Q315 601 328 574Q341 547 341 512V503Q341 469 328 442.5Q315 416 292.5 398Q270 380 240.5 370.5Q211 361 179 361ZM178 448Q204 448 216.5 465Q229 482 229 508Q229 534 216.5 551.5Q204 569 178 569Q155 569 141.5 551.5Q128 534 128 508Q128 482 141.5 465Q155 448 178 448ZM558 -2Q526 -2 496.5 7Q467 16 444.5 33.5Q422 51 408.5 77.5Q395 104 395 139V148Q395 183 408.5 210Q422 237 444.5 255Q467 273 496.5 282Q526 291 558 291Q590 291 619.5 282Q649 273 671.5 255Q694 237 707 210Q720 183 720 148V139Q720 104 707 77.5Q694 51 671.5 33.5Q649 16 619.5 7Q590 -2 558 -2ZM558 84Q583 84 595.5 101Q608 118 608 144Q608 170 595.5 187Q583 204 558 204Q534 204 520.5 187Q507 170 507 144Q507 118 520.5 101Q534 84 558 84ZM912 -2Q880 -2 850.5 7Q821 16 798.5 33.5Q776 51 762.5 77.5Q749 104 749 139V148Q749 183 762.5 210Q776 237 798.5 255Q821 273 850.5 282Q880 291 912 291Q944 291 973.5 282Q1003 273 1025.5 255Q1048 237 1061 210Q1074 183 1074 148V139Q1074 104 1061 77.5Q1048 51 1025.5 33.5Q1003 16 973.5 7Q944 -2 912 -2ZM912 84Q937 84 949.5 101Q962 118 962 144Q962 170 949.5 187Q937 204 912 204Q888 204 874.5 187Q861 170 861 144Q861 118 874.5 101Q888 84 912 84Z" glyph-name="perthousand" horiz-adv-x="1091" unicode="&#8240;" /><glyph d="M411 73H236V253H52V403H236V584H411V403H595V253H411Z" glyph-name="plus" horiz-adv-x="647" unicode="+" /><glyph d="M411 218H236V341H72V485H236V619H411V485H575V341H411ZM575 32H72V178H575Z" glyph-name="plusminus" horiz-adv-x="647" unicode="&#177;" /><glyph d="M383 -13Q306 -13 240.5 13.5Q175 40 127 86Q79 132 51.5 194Q24 256 24 326Q24 396 51.5 457.5Q79 519 127 565Q175 611 240.5 638Q306 665 383 665Q459 665 524.5 638Q590 611 638 565Q686 519 713.5 457.5Q741 396 741 326Q741 256 713.5 194Q686 132 638 86Q590 40 524.5 13.5Q459 -13 383 -13ZM383 87Q436 87 480.5 105.5Q525 124 557.5 156.5Q590 189 608.5 232Q627 275 627 324Q627 374 608.5 417.5Q590 461 557.5 493Q525 525 480.5 544Q436 563 383 563Q330 563 285 544Q240 525 207.5 493Q175 461 156.5 417.5Q138 374 138 324Q138 275 156.5 232Q175 189 207.5 156.5Q240 124 285 105.5Q330 87 383 87ZM368 155H269V485H413Q438 485 460.5 478.5Q483 472 500 458.5Q517 445 527 424.5Q537 404 537 377V368Q537 341 527 320.5Q517 300 500 286.5Q483 273 460.5 266Q438 259 413 259H368ZM368 408V337H399Q419 337 428.5 347Q438 357 438 373Q438 389 428.5 398.5Q419 408 397 408Z" glyph-name="published" horiz-adv-x="765" unicode="&#8471;" /><glyph d="M583 -180H400V41H398Q348 -15 256 -15Q212 -15 170 2.5Q128 20 95.5 52.5Q63 85 43.5 132Q24 179 24 238V258Q24 309 43 355.5Q62 402 95 437.5Q128 473 173.5 494Q219 515 273 515Q322 515 362.5 498Q403 481 429 440H431L452 500H583ZM311 135Q356 135 381 166Q406 197 406 253Q406 310 380.5 340.5Q355 371 307 371Q263 371 237.5 338.5Q212 306 212 253Q212 199 238 167Q264 135 311 135Z" glyph-name="q" horiz-adv-x="633" unicode="q" /><glyph d="M338 240H170L161 372L174 387Q204 388 229 390.5Q254 393 273 401.5Q292 410 302.5 426Q313 442 313 470Q313 495 299.5 510.5Q286 526 260 526Q233 526 216.5 506.5Q200 487 202 454H24V471Q26 520 44 556Q62 592 93 616Q124 640 166.5 652Q209 664 259 665Q306 666 348 653Q390 640 422 616.5Q454 593 473 559.5Q492 526 492 486V474Q492 436 479.5 405.5Q467 375 446.5 352Q426 329 399 313.5Q372 298 343 291ZM250 -9Q205 -9 173 16Q141 41 141 89V99Q141 146 173 172.5Q205 199 250 199Q295 199 327.5 172.5Q360 146 360 99V89Q360 41 327.5 16Q295 -9 250 -9Z" glyph-name="question" horiz-adv-x="515" unicode="?" /><glyph d="M179 266H347L356 134L343 119Q313 118 288 115.5Q263 113 244 104.5Q225 96 214.5 80Q204 64 204 36Q204 11 217.5 -4.5Q231 -20 257 -20Q284 -20 300.5 -0.5Q317 19 315 52H493V35Q492 -14 473.5 -50Q455 -86 424 -110Q393 -134 350.5 -146Q308 -158 258 -159Q211 -160 169 -147Q127 -134 95 -110.5Q63 -87 44 -53.5Q25 -20 25 20V32Q25 70 37.5 100.5Q50 131 70.5 154Q91 177 118 192.5Q145 208 174 215ZM267 515Q312 515 344 490Q376 465 376 417V407Q376 360 344 333.5Q312 307 267 307Q222 307 189.5 333.5Q157 360 157 407V417Q157 465 189.5 490Q222 515 267 515Z" glyph-name="questiondown" horiz-adv-x="502" unicode="&#191;" /><glyph d="M194 348H64L46 630V650H212V630ZM404 348H274L256 630V650H422V630Z" glyph-name="quotedbl" horiz-adv-x="468" unicode="&quot;" /><glyph d="M455 -127H314L363 185H566V167ZM195 -127H54L103 185H306V167Z" glyph-name="quotedblbase" horiz-adv-x="600" unicode="&#8222;" /><glyph d="M252 338H48V356L159 650H301ZM512 338H310V356L421 650H561Z" glyph-name="quotedblleft" horiz-adv-x="615" unicode="&#8220;" /><glyph d="M195 338H54L103 650H306V632ZM455 338H315L364 650H566V632Z" glyph-name="quotedblright" horiz-adv-x="614" unicode="&#8221;" /><glyph d="M165 650H311L262 338H54V356Z" glyph-name="quoteleft" horiz-adv-x="359" unicode="&#8216;" /><glyph d="M200 338H54L103 650H311V632Z" glyph-name="quoteright" horiz-adv-x="359" unicode="&#8217;" /><glyph d="M200 -128H54L103 184H311V166Z" glyph-name="quotesinglbase" horiz-adv-x="345" unicode="&#8218;" /><glyph d="M194 348H64L46 630V650H212V630Z" glyph-name="quotesingle" horiz-adv-x="258" unicode="&apos;" /><glyph d="M233 0H50V500H187L219 387H222Q222 415 232 437Q242 459 258.5 474Q275 489 296 496.5Q317 504 341 504Q355 504 371 502.5Q387 501 399 496V331H321Q294 331 277 323.5Q260 316 250.5 303Q241 290 237 272.5Q233 255 233 234Z" glyph-name="r" horiz-adv-x="412" unicode="r" /><glyph d="M384 -15Q306 -15 240 11.5Q174 38 126 84.5Q78 131 51 193Q24 255 24 325Q24 395 51 456.5Q78 518 126 564.5Q174 611 240 638Q306 665 384 665Q462 665 528 638Q594 611 642 565Q690 519 717 457.5Q744 396 744 326Q744 256 717 193.5Q690 131 642 85Q594 39 528 12Q462 -15 384 -15ZM384 87Q438 87 483 105.5Q528 124 560.5 156.5Q593 189 611 232Q629 275 629 323Q629 373 611 416.5Q593 460 560.5 492.5Q528 525 483 544Q438 563 384 563Q330 563 285 544Q240 525 207.5 492.5Q175 460 157 416.5Q139 373 139 323Q139 275 157 232Q175 189 207.5 156.5Q240 124 285 105.5Q330 87 384 87ZM356 165H258V495H401Q426 495 448.5 488.5Q471 482 488 468.5Q505 455 515 434.5Q525 414 525 387V381Q525 347 508 325.5Q491 304 464 290L541 183V165H440L369 271H356ZM356 421V346H385Q408 346 417.5 354.5Q427 363 427 384Q427 421 385 421Z" glyph-name="registered" horiz-adv-x="768" unicode="&#174;" /><glyph d="M251 522Q190 522 152.5 557Q115 592 115 643Q115 668 125 690Q135 712 153 728Q171 744 196 753.5Q221 763 251 763Q281 763 306 753.5Q331 744 348.5 728Q366 712 376 690Q386 668 386 643Q386 618 376 595.5Q366 573 348.5 557Q331 541 306 531.5Q281 522 251 522ZM251 600Q270 600 282.5 612.5Q295 625 295 643Q295 661 282.5 673Q270 685 251 685Q233 685 220 672.5Q207 660 207 643Q207 626 220 613Q233 600 251 600Z" glyph-name="ring" horiz-adv-x="500" unicode="&#730;" /><glyph d="M251 -15Q207 -15 167.5 -6.5Q128 2 97.5 22Q67 42 47.5 74Q28 106 24 152V165H191Q194 134 210 116.5Q226 99 255 99Q303 99 303 137Q303 153 291.5 162.5Q280 172 260 178Q238 184 212.5 189Q187 194 161.5 201Q136 208 112 219.5Q88 231 69 250Q52 267 40.5 290Q29 313 29 342V352Q29 399 49.5 430.5Q70 462 102 481.5Q134 501 172.5 509Q211 517 248 517Q287 517 325 508.5Q363 500 393 482Q423 464 442.5 435Q462 406 465 365V352H298Q297 370 288 385.5Q279 401 249 401Q205 401 205 368Q205 348 218.5 340.5Q232 333 249 328Q273 322 299 317.5Q325 313 350.5 306Q376 299 399.5 287.5Q423 276 441 257Q478 219 478 164V152Q478 107 457 75.5Q436 44 403 23.5Q370 3 330 -6Q290 -15 251 -15Z" glyph-name="s" horiz-adv-x="500" unicode="s" /><glyph d="M338 243Q301 243 287 223.5Q273 204 273 183Q273 174 276 164.5Q279 155 287 147Q298 136 316.5 129Q335 122 358 116Q387 118 402 132Q417 146 417 169Q417 178 413 190.5Q409 203 401 211Q390 222 374 229.5Q358 237 338 243ZM540 44Q545 40 549 36.5Q553 33 557 29Q579 7 592.5 -23Q606 -53 606 -85V-98Q606 -157 582 -197.5Q558 -238 519.5 -263Q481 -288 432 -299Q383 -310 333 -310Q279 -310 232.5 -299Q186 -288 150.5 -263.5Q115 -239 93 -199.5Q71 -160 67 -103V-86H254Q254 -138 281.5 -158.5Q309 -179 346 -179Q381 -179 399 -164.5Q417 -150 417 -125Q417 -116 413 -103.5Q409 -91 401 -83Q383 -65 350 -55Q317 -45 278.5 -34.5Q240 -24 201 -9Q162 6 131 36Q108 59 94.5 90.5Q81 122 81 157V169Q81 220 98.5 256Q116 292 145 318Q141 320 138 323.5Q135 327 131 330Q108 353 94.5 384.5Q81 416 81 451V463Q81 516 103 553.5Q125 591 161 615Q197 639 242.5 650Q288 661 334 661Q387 661 432 650.5Q477 640 510.5 617.5Q544 595 565 558.5Q586 522 590 470V453H411Q409 485 394.5 506Q380 527 338 527Q301 527 287 512.5Q273 498 273 477Q273 468 276 458.5Q279 449 287 441Q303 425 335.5 416Q368 407 407 397Q446 387 486 370.5Q526 354 557 323Q579 301 592.5 270Q606 239 606 207V194Q606 143 588 106Q570 69 540 44Z" glyph-name="section" horiz-adv-x="667" unicode="&#167;" /><glyph d="M178 -127H32L81 185H289V167ZM183 261Q138 261 106 287Q74 313 74 361V371Q74 419 106 446Q138 473 183 473Q228 473 260.5 446Q293 419 293 371V361Q293 313 260.5 287Q228 261 183 261Z" glyph-name="semicolon" horiz-adv-x="359" unicode=";" /><glyph d="M313 405H251V650H328L389 515L449 650H528V405H468V562H466L416 442H365L315 559H313ZM112 401Q71 401 42.5 418Q14 435 11 479V485H82Q82 465 92 457.5Q102 450 116 450Q143 450 143 470Q143 473 141.5 478Q140 483 137 486Q130 493 118 496.5Q106 500 91.5 504Q77 508 62 514Q47 520 35 531Q16 548 16 577V582Q16 603 24.5 617Q33 631 46.5 640Q60 649 77 652.5Q94 656 111 656Q151 656 178.5 639.5Q206 623 209 584V577H141Q140 589 134.5 597Q129 605 113 605Q100 605 94.5 600Q89 595 89 587Q89 578 94 573Q100 567 112.5 563.5Q125 560 139.5 556Q154 552 169 546Q184 540 196 528Q214 512 214 484V480Q214 458 205 442.5Q196 427 181.5 418Q167 409 149 405Q131 401 112 401Z" glyph-name="servicemark" horiz-adv-x="553" unicode="&#8480;" /><glyph d="M259 0H79V20Q98 158 151 279Q204 400 304 504V507Q269 505 237 504Q205 503 171 503H23V650H532V537Q482 491 437 430Q392 369 356 299.5Q320 230 295 153.5Q270 77 259 0Z" glyph-name="seven" horiz-adv-x="539" unicode="7" /><glyph d="M290 -15Q233 -15 184 -0.5Q135 14 99 43.5Q63 73 42.5 117Q22 161 22 220V238Q22 302 51.5 368Q81 434 126 492Q161 537 200 577.5Q239 618 276 650H480V630Q461 613 436 590.5Q411 568 386 543.5Q361 519 338.5 493.5Q316 468 301 445L302 444Q364 444 410.5 428.5Q457 413 489 384.5Q521 356 537 316.5Q553 277 553 229V215Q553 159 531.5 116Q510 73 474 44Q438 15 390.5 0Q343 -15 290 -15ZM290 130Q335 130 354.5 157.5Q374 185 374 223Q374 260 355 287.5Q336 315 291 315Q247 315 225.5 289Q204 263 204 224Q204 187 224.5 158.5Q245 130 290 130Z" glyph-name="six" horiz-adv-x="567" unicode="6" /><glyph d="M181 -124H1V-106L335 696H515V678Z" glyph-name="slash" horiz-adv-x="516" unicode="/" /><glyph glyph-name="space" horiz-adv-x="180" unicode=" " /><glyph d="M423 267H328Q330 255 331 241.5Q332 228 332 213Q332 192 325 157Q332 152 348 146Q364 140 372 140Q392 140 399.5 153Q407 166 409 189H558V179Q557 140 546 106Q535 72 514 46.5Q493 21 462.5 6.5Q432 -8 392 -8Q359 -8 333.5 -2Q308 4 286 11Q264 18 244 24Q224 30 204 30Q183 30 175 22.5Q167 15 160 0H1Q4 28 15 57.5Q26 87 43.5 113Q61 139 85.5 158Q110 177 141 183Q141 208 137.5 228.5Q134 249 128 267H16V396H62Q54 414 49 434.5Q44 455 44 480V490Q44 529 60.5 561Q77 593 106.5 616Q136 639 176.5 652Q217 665 266 665Q308 665 349 654.5Q390 644 423 621.5Q456 599 476 563Q496 527 496 476V463H323V474Q315 511 303.5 521Q292 531 278 531Q242 531 242 489Q242 462 251 440Q260 418 273 396H423Z" glyph-name="sterling" horiz-adv-x="566" unicode="&#163;" /><glyph d="M238 -10Q205 -10 174.5 -3Q144 4 120 21.5Q96 39 82 68.5Q68 98 68 142V363H8V442Q34 454 59 473.5Q84 493 106 515.5Q128 538 146 563.5Q164 589 176 613H249V490H360V363H251V179Q251 155 264 143.5Q277 132 300 132Q312 132 326.5 135.5Q341 139 352 144H366V16Q357 10 341.5 5Q326 0 308.5 -3Q291 -6 272.5 -8Q254 -10 238 -10Z" glyph-name="t" horiz-adv-x="391" unicode="t" /><glyph d="M270 -16Q216 -16 169.5 -3Q123 10 88.5 36Q54 62 33.5 101Q13 140 11 193V210H196Q196 159 218.5 140Q241 121 279 121Q317 121 335 144Q353 167 352 207Q352 232 342 249.5Q332 267 316 278Q300 289 279 294Q258 299 235 299Q222 299 207.5 298Q193 297 176 293L164 298L153 371L208 429Q225 446 248.5 468.5Q272 491 302 512V514Q267 509 239.5 508.5Q212 508 185 508H38V650H497V536L377 408Q451 391 489.5 342Q528 293 528 221V208Q528 148 506.5 105.5Q485 63 449 36Q413 9 366.5 -3.5Q320 -16 270 -16Z" glyph-name="three" horiz-adv-x="548" unicode="3" /><glyph d="M173 545H41Q41 581 50 614Q59 647 77 672Q95 697 121.5 711.5Q148 726 182 726Q203 726 216.5 720Q230 714 241.5 706.5Q253 699 264.5 693Q276 687 291 687Q294 687 300 688Q306 689 312 693Q318 697 322.5 705.5Q327 714 327 730H460Q460 694 451 661Q442 628 424.5 603.5Q407 579 381.5 564.5Q356 550 324 550Q302 550 287 556Q272 562 260.5 569.5Q249 577 238 583Q227 589 212 589Q209 589 202.5 588Q196 587 189.5 582.5Q183 578 178 569.5Q173 561 173 545Z" glyph-name="tilde" horiz-adv-x="500" unicode="&#732;" /><glyph d="M303 405H241V650H318L379 515L439 650H518V405H458V562H456L406 442H355L305 559H303ZM138 405H72V592H7V650H201V592H138Z" glyph-name="trademark" horiz-adv-x="543" unicode="&#8482;" /><glyph d="M516 0H28V101Q60 126 93.5 154.5Q127 183 159.5 212.5Q192 242 221 270Q250 298 272 322Q296 349 313.5 380.5Q331 412 331 454Q331 486 313 502.5Q295 519 266 519Q233 519 214.5 500Q196 481 196 447Q196 435 199.5 420Q203 405 205 395V373L41 372Q35 389 30 410.5Q25 432 25 459Q25 509 44.5 547.5Q64 586 97 612Q130 638 173.5 651.5Q217 665 265 665Q320 665 366 652Q412 639 445 612.5Q478 586 496.5 547Q515 508 515 455V440Q515 393 495 349.5Q475 306 443.5 267.5Q412 229 373.5 197.5Q335 166 298 142V140Q324 143 344 144.5Q364 146 390 146H516Z" glyph-name="two" horiz-adv-x="556" unicode="2" /><glyph d="M279 -15Q159 -15 99.5 35.5Q40 86 40 201V500H224V188Q224 152 243.5 137Q263 122 286 122Q308 122 326.5 137Q345 152 345 188V500H519V200Q519 86 458.5 35.5Q398 -15 279 -15Z" glyph-name="u" horiz-adv-x="559" unicode="u" /><glyph d="M279 -15Q159 -15 99.5 35.5Q40 86 40 201V500H224V188Q224 152 243.5 137Q263 122 286 122Q308 122 326.5 137Q345 152 345 188V500H519V200Q519 86 458.5 35.5Q398 -15 279 -15ZM448 628 161 533 118 639 388 770Z" glyph-name="uacute" horiz-adv-x="559" unicode="&#250;" /><glyph d="M279 -15Q159 -15 99.5 35.5Q40 86 40 201V500H224V188Q224 152 243.5 137Q263 122 286 122Q308 122 326.5 137Q345 152 345 188V500H519V200Q519 86 458.5 35.5Q398 -15 279 -15ZM291 609 141 520 75 615 277 769H305L503 615L437 520Z" glyph-name="ucircumflex" horiz-adv-x="559" unicode="&#251;" /><glyph d="M279 -15Q159 -15 99.5 35.5Q40 86 40 201V500H224V188Q224 152 243.5 137Q263 122 286 122Q308 122 326.5 137Q345 152 345 188V500H519V200Q519 86 458.5 35.5Q398 -15 279 -15ZM401 549Q362 549 334 573Q306 597 306 639Q306 680 334 704Q362 728 401 728Q441 728 468.5 704Q496 680 496 639Q496 597 468.5 573Q441 549 401 549ZM172 549Q133 549 105 573Q77 597 77 639Q77 680 105 704Q133 728 172 728Q212 728 239.5 704Q267 680 267 639Q267 597 239.5 573Q212 549 172 549Z" glyph-name="udieresis" horiz-adv-x="559" unicode="&#252;" /><glyph d="M279 -15Q159 -15 99.5 35.5Q40 86 40 201V500H224V188Q224 152 243.5 137Q263 122 286 122Q308 122 326.5 137Q345 152 345 188V500H519V200Q519 86 458.5 35.5Q398 -15 279 -15ZM438 640 395 534 108 629 168 771Z" glyph-name="ugrave" horiz-adv-x="559" unicode="&#249;" /><glyph d="M373 -213H-2V-84H373Z" glyph-name="underscore" horiz-adv-x="371" unicode="_" /><glyph d="M350 0H183L-14 480V500H178L244 306Q248 294 252.5 277.5Q257 261 260 243L267 208Q271 191 274 178H276Q278 191 281 208Q284 225 287.5 243Q291 261 295 277.5Q299 294 303 306L370 500H548V480Z" glyph-name="v" horiz-adv-x="534" unicode="v" /><glyph d="M327 0H159L3 480V500H182L239 308Q242 297 245.5 281.5Q249 266 252 248.5Q255 231 257.5 213.5Q260 196 261 181H263Q265 196 267 213L271 248Q273 266 275.5 281Q278 296 281 306L334 500H508L564 308Q567 297 570.5 281.5Q574 266 576 248L581 213Q584 196 585 181H587Q589 196 591 213L595 248Q597 266 600 281Q603 296 606 306L663 500H834V480L682 0H511L419 294Z" glyph-name="w" horiz-adv-x="837" unicode="w" /><glyph d="M190 0H1V20L184 261L25 480V500H215L289 384L365 500H547V480L388 265L570 20V0H374L282 130Z" glyph-name="x" horiz-adv-x="571" unicode="x" /><glyph d="M272 -180H79V-160L172 42L-14 480V500H177L247 300Q256 277 264 241Q272 205 277 179H279Q283 205 290 240.5Q297 276 306 300L370 500H548V480Z" glyph-name="y" horiz-adv-x="534" unicode="y" /><glyph d="M272 -180H79V-160L172 42L-14 480V500H177L247 300Q256 277 264 241Q272 205 277 179H279Q283 205 290 240.5Q297 276 306 300L370 500H548V480ZM393 549Q354 549 326 573Q298 597 298 639Q298 680 326 704Q354 728 393 728Q433 728 460.5 704Q488 680 488 639Q488 597 460.5 573Q433 549 393 549ZM164 549Q125 549 97 573Q69 597 69 639Q69 680 97 704Q125 728 164 728Q204 728 231.5 704Q259 680 259 639Q259 597 231.5 573Q204 549 164 549Z" glyph-name="ydieresis" horiz-adv-x="534" unicode="&#255;" /><glyph d="M596 207H419V0H227V207H51V292H210L187 327H51V412H131L-10 630V650H204L330 429L455 650H656V630L514 412H596V327H458L435 292H596Z" glyph-name="yen" horiz-adv-x="646" unicode="&#165;" /><glyph d="M470 0H26V103L231 363V365H37V500H470V397L267 137V135H470Z" glyph-name="z" horiz-adv-x="496" unicode="z" /><glyph d="M302 -15Q233 -15 181 9.5Q129 34 94.5 77.5Q60 121 42.5 182Q25 243 25 316V334Q25 407 42.5 468Q60 529 95 572.5Q130 616 181.5 640.5Q233 665 302 665Q370 665 422 640.5Q474 616 508.5 572.5Q543 529 560.5 468Q578 407 578 334V316Q578 243 560.5 182Q543 121 508.5 77.5Q474 34 422.5 9.5Q371 -15 302 -15ZM301 128Q355 128 373.5 180.5Q392 233 392 325Q392 370 388 406.5Q384 443 373.5 468.5Q363 494 345.5 508Q328 522 301 522Q274 522 256.5 508Q239 494 229 468.5Q219 443 215 406.5Q211 370 211 325Q211 233 229.5 180.5Q248 128 301 128Z" glyph-name="zero" horiz-adv-x="604" unicode="0" /></font>
</defs>
</svg>
