<svg xmlns="http://www.w3.org/2000/svg" xmlns:xlink="http://www.w3.org/1999/xlink"  width="24" height="109">
  <defs>
	<g id="part-ex" >
		<path d="M18.5,9.4L18.5,9.4L18.5,9.4l0,0.3c-0.1,0.6-0.6,1-1.3,1c0,0,0.1,0.1,0.1,0.1
			c0,0,0.1,0.1,0.1,0.1l0,0c0,0.1,0.1,0.2,0.1,0.2l0,0c0,0,0,0,0,0c0,0.1,0.1,0.1,0.1,0.2c0,0,0,0,0,0c0,0,0,0,0,0.1
			c0,0.1,0.1,0.1,0.1,0.2c0.1,0.1,0.1,0.2,0.1,0.3c0,0,0,0.1,0,0.1c0,0.1,0.1,0.3,0.1,0.4c0,0,0,0.1,0,0.1c0,0.2,0,0.4,0,0.7
			c0,0,0,0.1,0,0.1l0,0c0,0.1,0,0.2,0,0.3c0,0,0,0.1,0,0.1c0,0.1,0,0.1,0,0.2c0,0,0,0.1,0,0.1c0,0.1,0,0.2,0,0.3c0,0,0,0.1,0,0.1v0
			c0,0.1,0,0.2,0,0.3c0,0,0,0.1,0,0.1c0,0.1,0,0.1,0,0.2v1.1v1.3c0,1.1,0,2.1,0,2.2c0,0.5-0.3,0.9-0.8,0.9H16
			c-0.5,0-0.8-0.4-0.8-0.9v-0.1H3.3v0.1c0,0.5-0.3,0.9-0.8,0.9H1.1c-0.5,0-0.8-0.4-0.8-0.9c0-0.3,0-0.7,0-1.2l0-0.4c0-1.2,0-3,0-3.1
			h0l0,0h0c0-0.3,0-1.7,0-1.8c0-0.8,0.1-1.3,0.3-1.8c0.1-0.1,0.1-0.2,0.2-0.3c0.1-0.1,0.1-0.1,0.1-0.2c0,0,0,0,0,0
			C1,11.1,1,11,1,10.9c0.1-0.1,0.2-0.2,0.2-0.3l0,0c-0.7,0-1.2-0.4-1.3-1l0-0.1l0-0.2c0.1-0.7,0.8-1.1,1.4-1.1
			c0.5,0,0.9,0.2,1.1,0.6c0.1-0.4,0.3-0.7,0.4-1.1c0.2-0.4,0.4-0.8,0.6-1.2C3.6,6.3,3.7,6,3.9,5.7l0-0.1l0,0C4.4,5.1,4.8,5,5.6,4.9
			c0.8-0.1,1.8-0.2,2.7-0.2c0.3,0,0.6,0,0.9,0l0.2,0c0.1,0,0.2,0,0.3,0C11,4.8,12,4.8,12.9,5c0.6,0.1,1.2,0.2,1.7,0.7l0,0l0,0.1
			C14.8,6,14.9,6.3,15,6.5c0.2,0.4,0.4,0.8,0.6,1.2c0,0.1,0.1,0.2,0.1,0.3c0,0.1,0.1,0.2,0.1,0.3c0,0.1,0.1,0.2,0.1,0.3
			c0,0,0,0.1,0,0.1c0,0,0,0.1,0,0.1l0,0c0,0,0,0,0,0c0,0,0,0,0-0.1c0,0,0.1-0.1,0.1-0.1c0.2-0.2,0.5-0.4,0.9-0.4
			c0.3,0,0.7,0.1,1,0.3c0,0,0,0,0.1,0c0,0,0.1,0.1,0.1,0.1c0,0,0.1,0.1,0.1,0.1C18.4,9,18.5,9.2,18.5,9.4L18.5,9.4L18.5,9.4
			L18.5,9.4l0,0.2c0,0,0.1,0,0.1,0c1.5,0,2.3,0,2.3,0l0,0l0,0c0.1,0,0.2,0.1,0.2,0.2c0,0,0.1,0.3,0.4,1c0.1,0.2,0.2,0.7,0.2,0.8
			c0,0,0,0,0,0c0,0.1,0,0.1,0,0.2c0,0-0.1,0.1-0.1,0.1c0,0,0,0,0,0c0,0-1.3-0.2-3.2-0.2c-0.3,0-0.5,0-0.8,0c0,0,0,0,0,0.1
			c0.1,0.1,0.1,0.2,0.1,0.3c0,0,0,0.1,0,0.1c0,0.1,0.1,0.3,0.1,0.4c0,0,0,0.1,0,0.1c0.1,0,0.3,0,0.5,0h0.1l0,0.1v-0.1
			c1.1,0,1.6,0.1,1.8,0.1c0,0,0,0,0,0c0.2,0,0.4,0.1,0.6,0.3c0.1,0.1,0.3,0.6,0.4,0.6l0,0l0,0c0,0.1,0,0.2,0,0.2
			c0,0-0.1,0.1-0.1,0.1h-3.1c0,0,0,0.1,0,0.1c0,0,0,0.1,0,0.1c0,0.1,0,0.2,0,0.3c0,0,0,0,0,0h1.7c0.1,0,0.3,0.1,0.3,0.3V15
			c0,0.2-0.1,0.3-0.3,0.3h-1.7v1v0.2h3.5v0c0,0.3,0.2,0.5,0.4,0.5h0.7c0.2,0,0.4-0.2,0.4-0.5c0-0.1,0-0.6,0-1.2v-0.7v-0.6
			c0,0,0-0.1,0-0.1c0,0,0,0,0-0.1c0-0.1,0-0.1,0-0.2v0c0,0,0,0,0-0.1c0,0,0-0.1,0-0.1c0,0,0,0,0-0.1c0,0,0-0.1,0-0.1c0,0,0,0,0-0.1
			c0-0.1,0-0.1,0-0.2l0,0c0,0,0,0,0-0.1c0-0.1,0-0.2,0-0.4c0,0,0,0,0-0.1c0-0.1,0-0.1-0.1-0.2c0,0,0,0,0-0.1c0-0.1,0-0.1-0.1-0.2
			c0,0,0-0.1-0.1-0.1c0,0,0,0,0,0c0,0,0,0,0,0c0,0,0-0.1-0.1-0.1c0,0,0,0,0,0l0,0c0,0,0-0.1,0-0.1l0,0c0,0,0,0,0-0.1
			c0,0-0.1-0.1-0.1-0.1c0.3,0,0.6-0.2,0.7-0.5l0-0.1l0,0l0,0c0-0.1,0-0.2-0.1-0.2c0,0,0,0,0-0.1c0,0,0,0-0.1-0.1c0,0,0,0,0,0
			c-0.1-0.1-0.3-0.2-0.5-0.2c-0.2,0-0.4,0.1-0.5,0.2c0,0,0,0,0,0.1c0,0,0,0,0,0c0,0,0,0,0,0l0,0c0,0,0,0,0,0c0,0,0,0,0-0.1
			c0-0.1,0-0.1-0.1-0.2c0,0,0-0.1-0.1-0.1c0,0,0-0.1-0.1-0.1c-0.1-0.2-0.2-0.4-0.3-0.6c-0.1-0.1-0.1-0.3-0.2-0.4l0,0l0,0
			C21.1,9,20.8,9,20.5,8.9c-0.4-0.1-1-0.1-1.6-0.1c-0.1,0-0.1,0-0.2,0l-0.1,0c-0.1,0-0.2,0-0.3,0l0,0c0,0,0,0,0,0.1
			C18.4,9,18.5,9.2,18.5,9.4L18.5,9.4L18.5,9.4z M3.2,10.5L3.2,10.5L3.2,10.5L3.2,10.5c0.1,0,1.8-0.3,5.9-0.3c3.8,0,6.2,0.3,6.2,0.3
			c0,0,0,0,0,0c0.1,0,0.1,0,0.2-0.1c0.1-0.1,0-0.3,0-0.4c0,0,0,0,0-0.1c0,0-0.3-1.1-0.5-1.5c-0.6-1.4-0.8-1.9-0.8-2
			c-0.1-0.2-0.3-0.3-0.4-0.3l0,0l0,0c0,0-1.6,0-4.5,0c-3.1,0-4.4,0-4.5,0h0l0,0c-0.2,0-0.4,0.2-0.4,0.3c0,0-0.3,0.5-0.9,2
			C3.3,8.9,2.9,9.9,2.9,9.9c0,0.1,0,0.3,0.1,0.4C3,10.4,3.1,10.5,3.2,10.5L3.2,10.5z M11.8,15.7h-5c-0.3,0-0.5,0.3-0.5,0.6v0.6
			c0,0.3,0.2,0.6,0.5,0.6h5c0.3,0,0.5-0.3,0.5-0.6v-0.6C12.3,16,12.1,15.7,11.8,15.7L11.8,15.7z M14.8,14L14.8,14
			c0-0.1-0.4-1-0.7-1.2c-0.5-0.4-0.9-0.5-1.2-0.6c0,0,0,0-0.1,0c-0.3-0.1-1.3-0.2-3.5-0.2v0.2l0-0.2H9.2c-2.7,0-3.4,0.1-3.6,0.2
			c0,0,0,0-0.1,0c-0.3,0.1-0.7,0.1-1.2,0.6c-0.3,0.3-0.7,1.1-0.7,1.2l0,0l0,0c-0.1,0.2,0,0.3,0,0.4c0.1,0.1,0.2,0.1,0.3,0.1h10.6
			c0.1,0,0.2-0.1,0.3-0.1C14.9,14.4,14.9,14.2,14.8,14L14.8,14L14.8,14z M2.8,10.8L2.8,10.8c-0.3,0-0.7,0.1-1,0.5
			c-0.3,0.3-0.4,0.7-0.4,1.1c0,0.8,0.4,1.3,1.1,1.3h0c0.3,0,0.7-0.2,1-0.5c0.3-0.3,0.4-0.8,0.4-1.2C3.9,11.3,3.4,10.8,2.8,10.8
			L2.8,10.8z M15.8,10.8c-0.7,0-1.1,0.5-1.1,1.3c0,0.4,0.2,0.8,0.4,1.2c0.3,0.3,0.6,0.5,1,0.5h0c0.7,0,1.1-0.5,1.1-1.3
			c0-0.4-0.2-0.8-0.4-1.1C16.4,10.9,16.1,10.8,15.8,10.8L15.8,10.8L15.8,10.8z M22,11.9c-0.3,0-0.6,0.3-0.6,0.6
			c0,0.2,0.1,0.4,0.2,0.6c0.1,0.2,0.3,0.3,0.5,0.3h0c0.3,0,0.6-0.3,0.6-0.7c0-0.2-0.1-0.4-0.2-0.6C22.3,12,22.1,11.9,22,11.9
			L22,11.9L22,11.9z M18.9,20.2v1.9h-7.5v2h7.5V26l5.1-2.9L18.9,20.2L18.9,20.2z M17.7,1.9H24v2h-6.3v1.9l-5.1-2.9L17.7,0V1.9
			L17.7,1.9z"/>
	    </g>
    </defs>
<use x="0" y="0" style="fill:#267EC8" xlink:href="#part-ex" />
<use x="0" y="26" style="fill:#ffffff" xlink:href="#part-ex" />
<use x="0" y="52" style="fill:#dcd0cb" xlink:href="#part-ex" />
<use x="0" y="78" style="fill:#ffffff" xlink:href="#part-ex"  />
</svg>
